<svg xmlns="http://www.w3.org/2000/svg" width="24" height="24" fill="currentColor" viewBox="0 0 24 24"><path d="M11.875 6.816c.04.02.07.066.117.066.043 0 .11-.015.113-.058.008-.055-.074-.09-.125-.113-.066-.028-.152-.04-.214-.004-.016.007-.031.027-.024.043.012.05.09.043.133.066m-.855.066c.046 0 .078-.046.117-.066.043-.023.12-.016.137-.062.007-.016-.008-.036-.024-.043-.062-.036-.148-.024-.215.003-.05.024-.133.059-.125.114.004.039.07.058.11.054m8.632 10.89c-.14-.156-.207-.453-.282-.77-.07-.316-.152-.655-.41-.874a1 1 0 0 0-.316-.192c.36-1.066.219-2.128-.144-3.09-.446-1.175-1.223-2.202-1.817-2.905-.668-.84-1.316-1.637-1.304-2.813.02-1.792.199-5.124-2.961-5.128-4-.008-3 4.039-3.043 5.28-.066.915-.25 1.634-.879 2.528-.738.879-1.777 2.297-2.269 3.777-.234.7-.344 1.41-.242 2.082-.254.226-.445.574-.648.789-.164.168-.403.23-.664.324-.262.094-.547.234-.723.566a1 1 0 0 0-.11.485c0 .152.024.308.047.46.047.317.098.614.032.813-.203.563-.23.953-.086 1.238.148.285.445.41.785.48.676.141 1.593.106 2.316.489.773.406 1.559.55 2.183.406.454-.101.825-.375 1.012-.789.488-.004 1.027-.21 1.887-.258.582-.047 1.312.207 2.152.16q.034.137.098.262v.004c.324.652.93.95 1.574.898.648-.05 1.332-.43 1.886-1.09.531-.64 1.406-.905 1.988-1.257.29-.176.524-.394.543-.715.016-.32-.172-.675-.605-1.16M11.988 5.41c.383-.867 1.336-.852 1.719-.016.254.555.14 1.207-.168 1.578a5 5 0 0 0-.492-.191c.043-.047.12-.106.152-.18.188-.46-.008-1.054-.355-1.066-.285-.02-.543.422-.461.898a3 3 0 0 0-.508-.172c-.039-.27-.012-.57.113-.851m-1.59-.45c.395 0 .813.555.747 1.31a1.4 1.4 0 0 0-.399.179c.047-.348-.129-.785-.375-.766-.328.028-.382.828-.07 1.098.039.031.074-.008-.23.215-.61-.57-.41-2.035.328-2.035m-.53 2.372c.242-.18.53-.391.55-.41.184-.172.527-.555 1.09-.555.277 0 .61.09 1.012.347.246.16.44.172.882.364.328.136.535.379.41.71-.101.278-.43.563-.886.708-.434.14-.774.625-1.492.582a1.1 1.1 0 0 1-.375-.082c-.313-.137-.477-.407-.781-.586-.336-.188-.516-.407-.575-.598q-.082-.287.164-.48m.128 13.045c-.105 1.371-1.714 1.344-2.94.704-1.169-.618-2.68-.254-2.989-.856-.094-.184-.094-.496.102-1.031v-.008c.093-.297.023-.625-.024-.933-.047-.305-.07-.586.035-.782.137-.261.332-.355.578-.441.403-.145.461-.133.766-.387.215-.222.371-.503.559-.703.199-.215.39-.316.69-.27.317.048.59.266.856.626l.766 1.39c.371.777 1.683 1.89 1.601 2.691m-.054-1.011a8 8 0 0 0-.563-.766c.277 0 .555-.086.652-.347.09-.243 0-.582-.289-.973-.527-.71-1.496-1.27-1.496-1.27-.527-.328-.824-.73-.96-1.167-.137-.438-.118-.91-.012-1.375.203-.895.726-1.766 1.062-2.312.09-.067.032.124-.34.812-.332.629-.953 2.082-.101 3.218a6.8 6.8 0 0 1 .539-2.402c.469-1.07 1.457-2.925 1.535-4.402.043.032.18.125.242.16.18.106.316.262.492.403.485.39 1.114.36 1.656.047.243-.137.438-.293.621-.352.387-.121.696-.336.871-.586.301 1.188 1.004 2.902 1.454 3.738.238.445.714 1.387.921 2.523q.197-.004.426.055c.539-1.394-.457-2.898-.91-3.316-.184-.18-.192-.258-.102-.254.492.438 1.14 1.316 1.375 2.305.11.453.13.925.016 1.394.64.266 1.402.7 1.199 1.36-.086-.005-.125 0-.164 0 .125-.395-.152-.688-.89-1.02-.766-.336-1.407-.336-1.497.488-.472.164-.714.574-.835 1.066-.11.438-.141.965-.172 1.559-.02.3-.14.703-.266 1.132-1.254.895-2.996 1.286-4.464.282m10.054-.45c-.036.657-1.61.778-2.47 1.817-.515.613-1.147.953-1.702.996s-1.035-.188-1.316-.754c-.184-.434-.094-.902.043-1.418.144-.554.359-1.125.386-1.586.032-.593.067-1.113.164-1.511.102-.403.258-.672.535-.824l.04-.02c.03.516.285 1.039.734 1.152.492.13 1.199-.293 1.5-.636.351-.012.613-.036.883.199.386.332.277 1.183.667 1.625.414.453.547.761.535.96M10.02 7.809c.078.074.183.176.312.277.258.204.617.414 1.066.414.454 0 .88-.23 1.243-.421.191-.102.425-.274.578-.407s.23-.246.12-.257c-.109-.012-.1.101-.234.199-.171.125-.378.289-.543.383-.288.164-.761.398-1.167.398s-.73-.187-.973-.379a4 4 0 0 1-.3-.27c-.06-.054-.075-.18-.169-.19-.054-.005-.07.144.067.253"/></svg>