<svg width="24" height="23" viewBox="0 0 24 23" fill="currentColor" xmlns="http://www.w3.org/2000/svg">
<path d="M10.1484 16.8115C7.05469 16.4405 4.875 14.2376 4.875 11.3855C4.875 10.226 5.29688 8.97387 6 8.13909C5.69531 7.37388 5.74219 5.7507 6.09375 5.07824C7.03125 4.9623 8.29688 5.44925 9.04688 6.12171C9.9375 5.84345 10.875 5.70432 12.0234 5.70432C13.1719 5.70432 14.1094 5.84345 14.9531 6.09852C15.6797 5.44925 16.9688 4.9623 17.9062 5.07824C18.2344 5.70432 18.2812 7.3275 17.9766 8.1159C18.7266 8.99706 19.125 10.1797 19.125 11.3855C19.125 14.2376 16.9453 16.3941 13.8047 16.7883C14.6016 17.2985 15.1406 18.4115 15.1406 19.6869V22.0984C15.1406 22.7941 15.7266 23.1883 16.4297 22.91C20.6719 21.31 24 17.113 24 11.9188C24 5.3565 18.6094 0 11.9766 0C5.34375 0 0 5.3565 0 11.9188C0 17.0666 3.30469 21.3332 7.75781 22.9332C8.39062 23.1651 9 22.7477 9 22.1216V20.2666C8.67188 20.4057 8.25 20.4985 7.875 20.4985C6.32812 20.4985 5.41406 19.6637 4.75781 18.1101C4.5 17.484 4.21875 17.113 3.67969 17.0434C3.39844 17.0202 3.30469 16.9043 3.30469 16.7651C3.30469 16.4869 3.77344 16.2782 4.24219 16.2782C4.92188 16.2782 5.50781 16.6956 6.11719 17.5535C6.58594 18.226 7.07812 18.5275 7.66406 18.5275C8.25 18.5275 8.625 18.3188 9.16406 17.7854C9.5625 17.3912 9.86719 17.0434 10.1484 16.8115Z"/>
</svg>