<svg xmlns="http://www.w3.org/2000/svg" width="24" height="24" viewBox="0 0 24 24"><path d="M15.934 3.615c.289-.049.589.019.795.188 3.154 2.2 4.871 5.11 4.871 8.163 0 3.117-1.718 6.03-4.871 8.232a.97.97 0 0 1-.698.198 1.1 1.1 0 0 1-.69-.318l-6.877-6.852a1.3 1.3 0 0 1-.36-.783c0-.293.15-.574.356-.784a1.106 1.106 0 0 1 1.567-.004l6.192 6.165c2.047-1.676 3.161-3.72 3.161-5.854 0-2.31-1.384-4.582-3.896-6.348a1.104 1.104 0 0 1-.267-1.545c.17-.24.428-.405.717-.454zm-7.725 16.77a1.13 1.13 0 0 1-.829-.187c-3.116-2.202-4.837-5.115-4.837-8.232 0-3.052 1.717-5.962 4.837-8.163a1.11 1.11 0 0 1 1.421.12l6.878 6.85c.21.207.326.488.326.785.004.258-.112.573-.322.783a1.1 1.1 0 0 1-.784.327c-.293 0-.608-.117-.784-.323L7.924 6.176c-2.048 1.695-3.161 3.72-3.161 5.79 0 2.378 1.383 4.65 3.866 6.417.274.172.435.427.487.72.049.288-.018.588-.187.828s-.428.402-.72.454"/></svg>