<svg xmlns="http://www.w3.org/2000/svg" width="24" height="24" fill="currentColor" viewBox="0 -960 960 960"><path d="m480-400-80-80 80-80 80 80zm-85-228.08-83.84-83.84 117.61-117.62q10.85-10.84 24.31-16.07t26.92-5.23 26.92 5.23 24.31 16.07l117.61 117.62L565-628.08l-85-85zM248.08-311.16 130.46-428.77q-10.84-10.85-16.07-24.31T109.16-480t5.23-26.92 16.07-24.31l117.62-117.61L331.92-565l-85 85 85 85zm463.84 0L628.08-395l85-85-85-85 83.84-83.84 117.62 117.61q10.84 10.85 16.07 24.31t5.23 26.92-5.23 26.92-16.07 24.31zm-283.15 180.7L311.16-248.08 395-331.92l85 85 85-85 83.84 83.84-117.61 117.62q-10.85 10.84-24.31 16.07T480-109.16t-26.92-5.23-24.31-16.07"/></svg>