<svg xmlns="http://www.w3.org/2000/svg" width="24" height="24" fill="currentColor" viewBox="0 -960 960 960"><path d="M451.5-131.5Q440-143 440-160v-160q0-17 11.5-28.5T480-360t28.5 11.5T520-320v40h280q17 0 28.5 11.5T840-240t-11.5 28.5T800-200H520v40q0 17-11.5 28.5T480-120t-28.5-11.5M160-200q-17 0-28.5-11.5T120-240t11.5-28.5T160-280h160q17 0 28.5 11.5T360-240t-11.5 28.5T320-200zm131.5-171.5Q280-383 280-400v-40H160q-17 0-28.5-11.5T120-480t11.5-28.5T160-520h120v-40q0-17 11.5-28.5T320-600t28.5 11.5T360-560v160q0 17-11.5 28.5T320-360t-28.5-11.5M480-440q-17 0-28.5-11.5T440-480t11.5-28.5T480-520h320q17 0 28.5 11.5T840-480t-11.5 28.5T800-440zm131.5-171.5Q600-623 600-640v-160q0-17 11.5-28.5T640-840t28.5 11.5T680-800v40h120q17 0 28.5 11.5T840-720t-11.5 28.5T800-680H680v40q0 17-11.5 28.5T640-600t-28.5-11.5M160-680q-17 0-28.5-11.5T120-720t11.5-28.5T160-760h320q17 0 28.5 11.5T520-720t-11.5 28.5T480-680z"/></svg>