<svg width="533" height="516" viewBox="0 0 533 516" fill="none" xmlns="http://www.w3.org/2000/svg">
<path d="M137.282 1.22034C133.815 2.287 116.615 18.687 69.0154 66.0204C-2.05122 136.82 -0.984555 135.487 0.348779 151.22C0.748779 157.487 1.94878 161.087 5.01545 165.887C7.28211 169.487 36.8821 199.887 70.8821 233.754C127.682 290.42 133.149 295.354 138.882 296.954C154.615 301.087 170.082 295.62 177.949 282.954C181.549 277.22 183.5 275.6 183.5 266C183.5 256.933 181.415 254.154 178.749 249.62C176.882 246.687 161.682 230.287 144.749 213.22L114.082 182.287H229.549C357.015 182.287 357.549 182.287 379.815 190.687C417.282 204.954 446.482 235.22 459.149 273.22C463.949 287.62 467.149 311.087 466.215 326.287C463.282 375.887 428.349 422.42 380.749 440.287C358.749 448.554 367.282 448.02 222.615 448.82C100.482 449.62 89.6821 449.754 85.8155 451.887C69.0155 461.087 62.6154 481.354 71.0154 498.02C75.1488 505.754 82.7488 512.154 90.8821 514.42C94.3488 515.354 138.749 515.62 227.682 515.22C355.815 514.82 359.549 514.687 371.549 512.02C439.549 496.42 491.549 454.42 517.015 394.287C532.882 356.954 536.482 323.887 529.282 281.754C514.615 195.62 445.415 128.954 359.015 117.62C346.482 116.02 323.415 115.62 228.882 115.62H114.082L146.215 83.2204C182.215 46.9537 183.415 45.2204 182.349 29.7537C181.682 18.687 176.615 10.0204 167.415 4.28702C161.949 0.953684 159.282 0.286991 151.415 0.0203247C146.215 -0.113009 139.815 0.420337 137.282 1.22034Z" fill="black"/>
</svg>
