<svg width="512" height="512" viewBox="0 0 512 512" fill="none" xmlns="http://www.w3.org/2000/svg">
    <path
        d="M64 480H448C483.3 480 512 451.3 512 416V160C512 124.7 483.3 96 448 96H288C277.9 96 268.4 91.3 262.4 83.2L243.2 57.6C231.1 41.5 212.1 32 192 32H64C28.7 32 0 60.7 0 96V416C0 451.3 28.7 480 64 480Z"
        fill="black" />
    <path
        d="M199.45 231.45C190.7 240.2 184.4 250.45 180.55 261.35C177.6 269.7 168.45 274.05 160.15 271.1C151.85 268.15 147.45 259 150.4 250.7C155.8 235.35 164.6 221 176.8 208.8C220.4 165.2 290.95 165.05 334.7 208.3L355.5 187.5C358.95 184.05 364.1 183.05 368.6 184.9C373.1 186.75 376 191.15 376 196V260C376 266.65 370.65 272 364 272H359.8H300C295.15 272 290.75 269.1 288.9 264.6C287.05 260.1 288.05 254.95 291.5 251.5L312.05 230.95C280.75 200.2 230.5 200.35 199.4 231.45H199.45ZM136 316C136 309.35 141.35 304 148 304H151.8H152.15H212C216.85 304 221.25 306.9 223.1 311.4C224.95 315.9 223.95 321.05 220.5 324.5L199.95 345.05C231.25 375.8 281.5 375.65 312.6 344.55C321.35 335.8 327.65 325.55 331.5 314.65C334.45 306.3 343.6 301.95 351.9 304.9C360.2 307.85 364.6 317 361.65 325.3C356.25 340.6 347.45 354.95 335.2 367.2C291.6 410.8 221.05 410.95 177.3 367.7L156.5 388.5C153.05 391.95 147.9 392.95 143.4 391.1C138.9 389.25 136 384.85 136 380V320.2V319.85V316.05V316Z"
        fill="white" />
</svg>