<svg width="129" height="101" viewBox="0 0 129 101" fill="none" xmlns="http://www.w3.org/2000/svg">
    <path
        d="M128.979 75.3481C128.974 78.6764 129.019 81.8995 128.951 85.1202C128.865 89.1377 127.726 92.7875 124.902 95.7649C122.456 98.3443 119.379 99.6074 115.911 99.9802C114.723 100.108 113.521 100.161 112.326 100.162C80.5024 100.171 48.6791 100.175 16.8558 100.159C13.8431 100.158 10.8729 99.8284 8.17903 98.2726C3.9302 95.8188 1.84168 91.9794 1.22402 87.2325C1.05124 85.9046 1.00315 84.5523 1.00234 83.2112C0.988658 60.6201 0.982865 38.0291 0.999134 15.438C1.00188 11.6198 1.93366 8.0699 4.47011 5.10282C7.23334 1.87045 10.8654 0.481139 15.0031 0.223149C15.6006 0.185897 16.2005 0.174041 16.7993 0.173998C48.7988 0.171716 80.7983 0.173121 112.798 0.169922C115.571 0.169645 118.276 0.507776 120.833 1.66546C125.533 3.79373 127.929 7.62266 128.7 12.5857C128.921 14.0105 128.949 15.4761 128.95 16.9231C128.972 36.3627 128.972 55.8023 128.979 75.3481ZM65.8055 14.3747C50.968 14.3747 36.1306 14.3744 21.2931 14.3756C20.6235 14.3757 19.9523 14.3607 19.2847 14.4003C16.1633 14.5853 15.173 15.6402 15.1592 18.7637C15.1586 18.9053 15.1589 19.047 15.1589 19.1886C15.1589 39.7977 15.1588 60.4069 15.1597 81.016C15.1597 81.4762 15.1397 81.9395 15.1838 82.3961C15.3743 84.3704 16.3029 85.5116 17.9626 85.7345C18.9019 85.8607 19.8561 85.9295 20.8037 85.9298C50.2671 85.9396 79.7306 85.9395 109.194 85.9298C110.106 85.9295 111.024 85.8518 111.93 85.7382C113.289 85.5679 114.292 84.7021 114.54 83.3512C114.744 82.2465 114.837 81.1061 114.838 79.9814C114.855 60.0805 114.851 40.1796 114.846 20.2787C114.846 19.4652 114.813 18.6498 114.751 17.8386C114.607 15.9536 113.707 14.9122 111.878 14.5917C111.053 14.4472 110.204 14.3842 109.366 14.3835C94.9165 14.3714 80.4667 14.3747 65.8055 14.3747Z" />
    <path
        d="M64.0082 21.7078C78.4472 21.7077 92.7804 21.7077 107.18 21.7077C107.18 40.6914 107.18 59.5753 107.18 78.5136C79.0047 78.5136 50.8589 78.5136 22.6376 78.5136C22.6376 71.515 22.6376 64.4896 22.6376 57.3987C22.8465 57.3761 23.0808 57.3272 23.3147 57.329C28.7763 57.3704 34.2379 57.4355 39.6996 57.4518C41.2674 57.4564 41.9043 58.5727 42.495 59.6865C44.0178 62.5572 45.4614 65.4701 46.9495 68.3596C47.2238 68.8921 47.528 69.4146 47.8701 69.9053C49.6075 72.3966 52.135 72.348 53.587 69.682C55.665 65.8665 57.6205 61.983 59.5959 58.1117C61.3223 54.7283 63.0038 51.3217 64.8657 47.6048C65.6336 49.2414 66.3203 50.6198 66.9336 52.0305C68.1283 54.779 69.9483 56.8193 73.0088 57.3689C74.0678 57.5591 75.1758 57.5249 76.2604 57.5115C80.237 57.4623 84.2132 57.3782 88.1896 57.3087C88.7179 57.2994 89.2472 57.3165 89.7745 57.2904C91.9516 57.1826 93.0518 56.0646 93.1436 53.8841C93.231 51.8073 92.1091 50.3653 89.9867 50.2796C86.5395 50.1404 83.084 50.2032 79.6319 50.194C78.8573 50.1919 78.0827 50.2554 77.3078 50.2697C74.7305 50.317 73.7754 49.6205 72.6576 47.2602C71.48 44.7737 70.2275 42.3178 68.884 39.9185C68.307 38.888 67.4967 37.9531 66.6512 37.1193C65.438 35.923 64.3592 35.887 63.1313 37.0758C62.2075 37.9703 61.3329 39.0078 60.7417 40.1423C57.3811 46.592 54.1122 53.09 50.7436 59.7062C50.2947 58.9667 49.8409 58.2845 49.4524 57.5666C48.4441 55.7037 47.4624 53.8262 46.4743 51.9522C45.872 50.8099 44.9233 50.2563 43.6467 50.2545C37.0233 50.2453 30.3999 50.2375 23.7766 50.2292C23.393 50.2287 23.0094 50.2292 22.5442 50.2292C22.5442 40.7428 22.5442 31.3134 22.5442 21.7078C36.3135 21.7078 50.108 21.7078 64.0082 21.7078Z" />
</svg>