<svg xmlns="http://www.w3.org/2000/svg" width="24" height="24" fill="currentColor" viewBox="0 -960 960 960"><path d="M735-567q105-47 105-113T735-793t-255-47-255 47-105 113 105 113 255 47 255-47M582.5-428.5Q644-437 701-456t98-49.5 41-74.5v100q0 44-41 74.5T701-356t-118.5 27.5T480-320t-102.5-8.5T259-356t-98-49.5-41-74.5v-100q0 44 41 74.5t98 49.5 118.5 27.5T480-420t102.5-8.5m0 200Q644-237 701-256t98-49.5 41-74.5v100q0 44-41 74.5T701-156t-118.5 27.5T480-120t-102.5-8.5T259-156t-98-49.5-41-74.5v-100q0 44 41 74.5t98 49.5 118.5 27.5T480-220t102.5-8.5"/></svg>