<svg xmlns="http://www.w3.org/2000/svg" width="24" height="24" fill="currentColor" viewBox="0 0 512 512"><path fill-rule="evenodd" d="M64 480h384c35.3 0 64-28.7 64-64V160c0-35.3-28.7-64-64-64H288c-10.1 0-19.6-4.7-25.6-12.8l-19.2-25.6C231.1 41.5 212.1 32 192 32H64C28.7 32 0 60.7 0 96v320c0 35.3 28.7 64 64 64m72-164c0-6.65 5.35-12 12-12h64c4.85 0 9.25 2.9 11.1 7.4s.85 9.65-2.6 13.1l-20.55 20.55c31.3 30.75 81.55 30.6 112.65-.5 8.75-8.75 15.05-19 18.9-29.9 2.95-8.35 12.1-12.7 20.4-9.75s12.7 12.1 9.75 20.4c-5.4 15.3-14.2 29.65-26.45 41.9-43.6 43.6-114.15 43.75-157.9.5l-20.8 20.8c-3.45 3.45-8.6 4.45-13.1 2.6s-7.4-6.25-7.4-11.1zm44.55-54.65c3.85-10.9 10.15-21.15 18.9-29.9h-.05c31.1-31.1 81.35-31.25 112.65-.5L291.5 251.5c-3.45 3.45-4.45 8.6-2.6 13.1s6.25 7.4 11.1 7.4h64c6.65 0 12-5.35 12-12v-64c0-4.85-2.9-9.25-7.4-11.1s-9.65-.85-13.1 2.6l-20.8 20.8c-43.75-43.25-114.3-43.1-157.9.5-12.2 12.2-21 26.55-26.4 41.9-2.95 8.3 1.45 17.45 9.75 20.4s17.45-1.4 20.4-9.75" clip-rule="evenodd"/></svg>