<svg xmlns="http://www.w3.org/2000/svg" width="24" height="24" viewBox="0 0 24 24"><path d="M11.06 2C17.1 2 22 6.897 22 12.935c0 .52-.418.938-.938.938a.935.935 0 0 1-.937-.938c0-5.003-4.06-9.06-9.065-9.06a.935.935 0 0 1-.937-.938c0-.52.418-.937.937-.937m-.937 4.687c0-.52.418-.938.937-.938a7.19 7.19 0 0 1 7.19 7.186c0 .52-.419.938-.938.938a.935.935 0 0 1-.938-.938 5.313 5.313 0 0 0-5.314-5.311.935.935 0 0 1-.937-.937m-7.095.886c.343-.699 1.265-.777 1.816-.226l5.02 5.018 1.251-1.25a1.252 1.252 0 0 1 1.77 1.77l-1.25 1.25 5.02 5.018c.551.55.469 1.468-.226 1.816A9.96 9.96 0 0 1 12.002 22C6.477 22 2 17.524 2 12.002a9.94 9.94 0 0 1 1.031-4.425z"/></svg>