<svg xmlns="http://www.w3.org/2000/svg" width="128" height="128" viewBox="0 0 128 128"><defs><linearGradient id="application_x_firmware_k" x1="37" x2="37" y1="249" y2="254" gradientTransform="rotate(-90 -25 153)" gradientUnits="userSpaceOnUse"><stop offset="0" stop-color="#d5d1cc"/><stop offset=".183" stop-color="#f6f5f4"/><stop offset=".395" stop-color="#fff"/><stop offset=".784" stop-color="#d7d3ce"/><stop offset="1" stop-color="#c8c2bb"/></linearGradient><linearGradient id="application_x_firmware_j" x1="37" x2="37" y1="249" y2="254" gradientTransform="matrix(0 -1 -1 0 303 88)" gradientUnits="userSpaceOnUse"><stop offset="0" stop-color="#d5d1cc"/><stop offset=".183" stop-color="#f6f5f4"/><stop offset=".395" stop-color="#fff"/><stop offset=".784" stop-color="#d7d3ce"/><stop offset="1" stop-color="#c8c2bb"/></linearGradient><linearGradient id="application_x_firmware_i" x1="37" x2="37" y1="249" y2="254" gradientTransform="rotate(-90 -49.5 137.5)" gradientUnits="userSpaceOnUse"><stop offset="0" stop-color="#d5d1cc"/><stop offset=".183" stop-color="#f6f5f4"/><stop offset=".395" stop-color="#fff"/><stop offset=".784" stop-color="#d7d3ce"/><stop offset="1" stop-color="#c8c2bb"/></linearGradient><linearGradient id="application_x_firmware_h" x1="17" x2="18.608" y1="253" y2="259" gradientTransform="matrix(0 -1 .33333 0 -38.667 120)" gradientUnits="userSpaceOnUse"><stop offset="0" stop-color="#f9f06b"/><stop offset=".512" stop-color="#fcf7ac"/><stop offset="1" stop-color="#f9f06b"/></linearGradient><linearGradient id="application_x_firmware_g" x1="17" x2="18.608" y1="253" y2="259" gradientTransform="rotate(-90 -42 162)" gradientUnits="userSpaceOnUse"><stop offset="0" stop-color="#f9f06b"/><stop offset=".512" stop-color="#fcf7ac"/><stop offset="1" stop-color="#f9f06b"/></linearGradient><linearGradient id="application_x_firmware_f" x1="17" x2="18.608" y1="253" y2="259" gradientTransform="matrix(0 -1 .33333 0 -26.667 120)" gradientUnits="userSpaceOnUse"><stop offset="0" stop-color="#f9f06b"/><stop offset=".512" stop-color="#fcf7ac"/><stop offset="1" stop-color="#f9f06b"/></linearGradient><linearGradient id="application_x_firmware_e" x1="17" x2="18.608" y1="253" y2="259" gradientTransform="matrix(0 -1 .33333 0 -14.667 128)" gradientUnits="userSpaceOnUse"><stop offset="0" stop-color="#f9f06b"/><stop offset=".512" stop-color="#fcf7ac"/><stop offset="1" stop-color="#f9f06b"/></linearGradient><linearGradient id="application_x_firmware_d" x1="17" x2="18.608" y1="253" y2="259" gradientTransform="rotate(-90 -26 154)" gradientUnits="userSpaceOnUse"><stop offset="0" stop-color="#f9f06b"/><stop offset=".512" stop-color="#fcf7ac"/><stop offset="1" stop-color="#f9f06b"/></linearGradient><linearGradient id="application_x_firmware_c" x1="37" x2="37" y1="249" y2="254" gradientTransform="rotate(-90 -48.75 156.75)" gradientUnits="userSpaceOnUse"><stop offset="0" stop-color="#d5d1cc"/><stop offset=".183" stop-color="#f6f5f4"/><stop offset=".395" stop-color="#fff"/><stop offset=".784" stop-color="#d7d3ce"/><stop offset="1" stop-color="#c8c2bb"/></linearGradient><linearGradient id="application_x_firmware_b" x1="94.021" x2="94.021" y1="194.219" y2="234.219" gradientTransform="matrix(.25 0 0 .2496 -292.505 55.398)" gradientUnits="userSpaceOnUse"><stop offset="0" stop-color="#f9f06b"/><stop offset=".512" stop-color="#fcf7ac"/><stop offset="1" stop-color="#f9f06b"/></linearGradient><clipPath id="application_x_firmware_a" clipPathUnits="userSpaceOnUse"><path d="M-275 100h86v16h-86zm0 0"/></clipPath></defs><path d="M28.027 8C23.582 8 20 11.563 20 15.988V20a8 8 0 0 1 0 16v76.012c0 4.425 3.582 7.988 8.027 7.988h71.946c4.445 0 8.027-3.563 8.027-7.988V37.908L77.979 8z" style="fill:#2ec27e"/><path fill="none" stroke="#f9f06b" stroke-width="2" d="M102.867 107H91l-6-6v-5l-5-5H67.874m33.124 6h-8L83 87H71.864"/><path d="M-272 100.879c-1.66 0-3 1.336-3 2.996V114h6v-10.125c0-1.66-1.34-2.996-3-2.996m10 0c-1.66 0-3 1.336-3 2.996V114h6v-10.125c0-1.66-1.34-2.996-3-2.996m10 0c-1.66 0-3 1.336-3 2.996V114h6v-10.125c0-1.66-1.34-2.996-3-2.996m10 0c-1.66 0-3 1.336-3 2.996V114h6v-10.125c0-1.66-1.34-2.996-3-2.996m10 0c-1.66 0-3 1.336-3 2.996V114h6v-10.125c0-1.66-1.34-2.996-3-2.996m10 0c-1.66 0-3 1.336-3 2.996V114h6v-10.125c0-1.66-1.34-2.996-3-2.996m10 0c-1.66 0-3 1.336-3 2.996V114h6v-10.125c0-1.66-1.34-2.996-3-2.996" clip-path="url(#application_x_firmware_a)" style="fill:url(#application_x_firmware_b)" transform="rotate(-90 -85.5 -79.5)"/><path fill="none" stroke="#f9f06b" stroke-width="2" d="M98 67h-5l-8 8H72m26 2h-7l-2 2H72m26 8h-9l-4-4H72"/><path fill="#3d3846" d="M48.013 95V71a3 3 0 0 1 3-3H69a3 3 0 0 1 3 3v24a3 3 0 0 1-3 3H51.013a3 3 0 0 1-3-3"/><path fill="none" stroke="#f9f06b" stroke-width="2" d="M33 85V74l3-3h12"/><path fill="none" stroke="#f9f06b" stroke-width="2" d="M48 75H37l-4 4m15 0H38l-5 5m15-1h-7l-2 2v11m9-9h-8m8 4h-8"/><path fill="url(#application_x_firmware_c)" d="M42.996 91c0 .555.445 1 1 1H48v-2h-4.004c-.555 0-1 .445-1 1m0-4c0 .555.445 1 1 1H48v-2h-4.004c-.555 0-1 .445-1 1m0-4c0 .555.445 1 1 1H48v-2h-4.004c-.555 0-1 .445-1 1m0-4c0 .555.445 1 1 1H48v-2h-4.004c-.555 0-1 .445-1 1m0-4c0 .555.445 1 1 1H48v-2h-4.004c-.555 0-1 .445-1 1m0-4c0 .555.445 1 1 1H48v-2h-4.004c-.555 0-1 .445-1 1m0 0" style="fill:url(#application_x_firmware_c)"/><path fill="none" stroke="#f9f06b" stroke-width="2" d="M72 71h7l14-14h4m-24-6c2.667 0 2.667 4 0 4s-2.667-4 0-4zm0-8c2.667 0 2.667 4 0 4s-2.667-4 0-4z"/><path d="M66.895 32.717c2.667 0 2.667 4 0 4s-2.667-4 0-4z" style="fill:none;stroke:#f9f06b;stroke-width:2"/><path fill="none" stroke="#f9f06b" stroke-width="2" d="M75 53h2l6-6h15M33 85c2.667 0 2.667 4 0 4s-2.667-4 0-4zm6 11c2.667 0 2.667 4 0 4s-2.667-4 0-4z"/><path d="m74.87 44.183 1.733-1 .732-2.732-4-6.928-2.732-.732-1.732 1" style="fill:none;stroke:#f9f06b;stroke-width:2"/><path fill="url(#application_x_firmware_d)" d="M74 116v-8h6v8zm0 0" style="fill:url(#application_x_firmware_d)"/><path fill="url(#application_x_firmware_e)" d="M70 116v-8h2v8zm0 0" style="fill:url(#application_x_firmware_e)"/><path fill="url(#application_x_firmware_f)" d="M58 108v-8h2v8zm0 0" style="fill:url(#application_x_firmware_f)"/><path fill="url(#application_x_firmware_g)" d="M50 108v-8h6v8zm0 0" style="fill:url(#application_x_firmware_g)"/><path fill="url(#application_x_firmware_h)" d="M46 108v-8h2v8zm0 0" style="fill:url(#application_x_firmware_h)"/><path fill="none" stroke="#f9f06b" stroke-width="2" d="M48.996 33a2 2 0 1 1 4 0 1.999 1.999 0 1 1-4 0zm-12 0a2 2 0 1 1 4 0 1.999 1.999 0 1 1-4 0zm0 8a2 2 0 1 1 4 0 1.999 1.999 0 1 1-4 0zm0 0"/><path fill="none" stroke="#f9f06b" stroke-width="2" d="M50.996 31v-2l-2-2h-8l-2 2v2"/><path fill="#3d3846" d="M52 54V44a2 2 0 0 1 2-2h8a2 2 0 0 1 2 2v10a2 2 0 0 1-2 2h-8a2 2 0 0 1-2-2"/><path fill="url(#application_x_firmware_i)" d="M63 52h3c.555 0 1-.445 1-1s-.445-1-1-1h-3zm0-4h3c.555 0 1-.445 1-1s-.445-1-1-1h-3zm0-4h3c.555 0 1-.445 1-1s-.445-1-1-1h-3zm0 0" style="fill:url(#application_x_firmware_i)"/><path fill="url(#application_x_firmware_j)" d="M53 52h-3c-.555 0-1-.445-1-1s.445-1 1-1h3zm0-4h-3c-.555 0-1-.445-1-1s.445-1 1-1h3zm0-4h-3c-.555 0-1-.445-1-1s.445-1 1-1h3zm0 0" style="fill:url(#application_x_firmware_j)"/><path fill="#5e5c64" d="M52 52V42a2 2 0 0 1 2-2h8a2 2 0 0 1 2 2v10a2 2 0 0 1-2 2h-8a2 2 0 0 1-2-2m0 0"/><path fill="#77767b" d="M54 52v-8h2v8zm4 0v-4h2v4zm0 0"/><path fill="#986a44" d="M32 60h-8v-4h8zm0 0"/><path fill="#b5835a" d="M32 60h-8v-2h8zm0 0"/><path fill="#f6f5f4" d="M32 60h-2v-4h2zm-6 0h-2v-4h2zm0 0"/><path fill="#986a44" d="M32 48h-8v-4h8zm0 0"/><path fill="#b5835a" d="M32 48h-8v-2h8zm0 0"/><path fill="#f6f5f4" d="M32 48h-2v-4h2zm-6 0h-2v-4h2zm0 0"/><path fill="#986a44" d="M32 54h-8v-4h8zm0 0"/><path fill="#b5835a" d="M32 54h-8v-2h8zm0 0"/><path fill="#f6f5f4" d="M32 54h-2v-4h2zm-6 0h-2v-4h2zm0 0"/><path fill="url(#application_x_firmware_k)" d="M71 92h4c.555 0 1-.445 1-1s-.445-1-1-1h-4zm0-4h4c.555 0 1-.445 1-1s-.445-1-1-1h-4zm0-4h4c.555 0 1-.445 1-1s-.445-1-1-1h-4zm0-4h4c.555 0 1-.445 1-1s-.445-1-1-1h-4zm0-4h4c.555 0 1-.445 1-1s-.445-1-1-1h-4zm0-4h4c.555 0 1-.445 1-1s-.445-1-1-1h-4zm0 0" style="fill:url(#application_x_firmware_k)"/><path fill="#5e5c64" d="M48 93V69a3 3 0 0 1 3-3h18a3 3 0 0 1 3 3v24a3 3 0 0 1-3 3H51a3 3 0 0 1-3-3m0 0"/><path fill="#77767b" d="M54 92V77h2v15zm4 0v-8h4v8zm0-9V72h4v11zm0 0"/><path d="M77.978 8v22c0 4.432 3.61 7.923 8.043 7.923l22-.005z" style="display:inline;vector-effect:none;fill:#26a269;fill-opacity:1;stroke:none;stroke-width:.125;stroke-linecap:butt;stroke-linejoin:round;stroke-miterlimit:4;stroke-dasharray:none;stroke-dashoffset:0;stroke-opacity:1"/></svg>