<svg xmlns="http://www.w3.org/2000/svg" xmlns:xlink="http://www.w3.org/1999/xlink" width="128" height="128" viewBox="0 0 128 128"><defs><linearGradient xlink:href="#application_loc_xml_a" id="application_loc_xml_e" x1="320.5" x2="415.5" y1="-68" y2="-68" gradientTransform="translate(-60.968 -22.82)scale(.25263)" gradientUnits="userSpaceOnUse"/><linearGradient id="application_loc_xml_a"><stop offset="0" style="stop-color:#a51d2d;stop-opacity:1"/><stop offset="1" style="stop-color:#ce1921;stop-opacity:1"/></linearGradient><linearGradient xlink:href="#application_loc_xml_b" id="application_loc_xml_f" x1="336" x2="336" y1="62" y2="-180" gradientTransform="matrix(-.25 0 0 .25 124 49)" gradientUnits="userSpaceOnUse"/><linearGradient id="application_loc_xml_b"><stop offset="0" style="stop-color:#d81d25;stop-opacity:1"/><stop offset="1" style="stop-color:#f66151;stop-opacity:1"/></linearGradient><clipPath id="application_loc_xml_d" clipPathUnits="userSpaceOnUse"><path d="M-103.832 63.1v16l16 16-16 16v48c0 4.432-3.568 8-8 8h-72c-4.432 0-8-3.568-8-8v-48l16-16-16-16v-16c0-4.432 3.568-8 8-8h72c4.432 0 8.55 3.602 8 8" style="display:inline;opacity:1;vector-effect:none;fill:none;fill-opacity:1;stroke:#000;stroke-width:1;stroke-linecap:round;stroke-linejoin:round;stroke-miterlimit:4;stroke-dasharray:none;stroke-dashoffset:0;stroke-opacity:1;marker:none;marker-start:none;marker-mid:none;marker-end:none;paint-order:normal"/></clipPath><clipPath id="application_loc_xml_c" clipPathUnits="userSpaceOnUse"><path d="M-103.832 63.1v16l16 16-16 16v48c0 4.432-3.568 8-8 8h-72c-4.432 0-8-3.568-8-8v-48l16-16-16-16v-16c0-4.432 3.568-8 8-8h72c4.432 0 8.55 3.602 8 8" style="display:inline;opacity:1;vector-effect:none;fill:none;fill-opacity:1;stroke:#000;stroke-width:1;stroke-linecap:round;stroke-linejoin:round;stroke-miterlimit:4;stroke-dasharray:none;stroke-dashoffset:0;stroke-opacity:1;marker:none;marker-start:none;marker-mid:none;marker-end:none;paint-order:normal"/></clipPath></defs><path d="M27.978 8h50l30.043 29.918.001 74.06c0 4.432-3.612 8.022-8.044 8.022h-72c-4.432 0-8-3.568-8-8V16c0-4.432 3.568-8 8-8" style="display:inline;fill:#cdab8f;fill-opacity:1;stroke:none;stroke-width:.125;stroke-linejoin:round;stroke-miterlimit:4;stroke-dasharray:none;stroke-opacity:1"/><path d="M27.978 120a7.98 7.98 0 0 1-7.998-7.96V96h63.97v24Z" style="fill:#55a7eb;fill-opacity:1;stroke-width:3.55588"/><path d="M-103.834 85.148h-63.97l-.016 26.082v31.739c0 1.894 1.98 4.236 4.488 4.236h59.5V111.1z" clip-path="url(#application_loc_xml_c)" style="display:inline;fill:#2ec27e;fill-opacity:1;stroke:none;stroke-width:.25px;stroke-linecap:butt;stroke-linejoin:miter;stroke-opacity:1" transform="rotate(180 -41.927 87.615)"/><path d="M-103.86 147.074h-59.5c-2.507 0-4.487-2.343-4.487-4.237V111.1l.015-26.082h63.971V79.1h-63.971l-.015-24h-8.025v87.737c0 6.606 5.512 11.991 12.512 12.263h59.5z" clip-path="url(#application_loc_xml_d)" style="color:#000;font-style:normal;font-variant:normal;font-weight:400;font-stretch:normal;font-size:medium;line-height:normal;font-family:sans-serif;font-variant-ligatures:normal;font-variant-position:normal;font-variant-caps:normal;font-variant-numeric:normal;font-variant-alternates:normal;font-feature-settings:normal;text-indent:0;text-align:start;text-decoration:none;text-decoration-line:none;text-decoration-style:solid;text-decoration-color:#000;letter-spacing:normal;word-spacing:normal;text-transform:none;writing-mode:lr-tb;direction:ltr;text-orientation:mixed;dominant-baseline:auto;baseline-shift:baseline;text-anchor:start;white-space:normal;shape-padding:0;clip-rule:nonzero;display:inline;overflow:visible;visibility:visible;isolation:auto;mix-blend-mode:normal;color-interpolation:sRGB;color-interpolation-filters:linearRGB;solid-color:#000;solid-opacity:1;vector-effect:none;fill:#fff;fill-opacity:1;fill-rule:nonzero;stroke:none;stroke-width:8.025;stroke-linecap:butt;stroke-linejoin:miter;stroke-miterlimit:4;stroke-dasharray:none;stroke-dashoffset:0;stroke-opacity:1;color-rendering:auto;image-rendering:auto;shape-rendering:auto;text-rendering:auto" transform="rotate(180 -41.94 87.55)"/><path d="M77.978 8v22c0 4.432 3.61 7.923 8.043 7.923l22-.005z" style="display:inline;vector-effect:none;fill:#b5835a;fill-opacity:1;stroke:none;stroke-width:.125;stroke-linecap:butt;stroke-linejoin:round;stroke-miterlimit:4;stroke-dasharray:none;stroke-dashoffset:0;stroke-opacity:1"/><circle cx="32" cy="-40" r="12" style="display:inline;fill:url(#application_loc_xml_e);fill-opacity:1;stroke:none;stroke-width:.252632;stroke-linejoin:round;stroke-miterlimit:4;stroke-dasharray:1.01053,.505263;stroke-dashoffset:0;stroke-opacity:1" transform="rotate(90)"/><path d="M40 6a27.9 27.9 0 0 1 19.799 8.201c10.934 10.935 10.934 28.663 0 39.598l-19.8 19.8s-13.82-13.823-19.798-19.8c-10.935-10.935-10.935-28.663 0-39.598A27.9 27.9 0 0 1 40 6m0 18a10 10 0 0 0-10 10 10 10 0 0 0 10 10 10 10 0 0 0 10-10 10 10 0 0 0-10-10" style="display:inline;vector-effect:none;fill:#a51d2d;fill-opacity:1;stroke:none;stroke-width:14;stroke-linecap:butt;stroke-linejoin:miter;stroke-miterlimit:4;stroke-dasharray:none;stroke-dashoffset:0;stroke-opacity:1;marker:none;marker-start:none;marker-mid:none;marker-end:none;paint-order:normal"/><path d="M40 4a27.9 27.9 0 0 1 19.799 8.201c10.934 10.935 10.934 28.663 0 39.598l-19.8 19.8s-13.82-13.823-19.798-19.8c-10.935-10.935-10.935-28.663 0-39.598A27.9 27.9 0 0 1 40 4m0 18a10 10 0 0 0-10 10 10 10 0 0 0 10 10 10 10 0 0 0 10-10 10 10 0 0 0-10-10" style="display:inline;vector-effect:none;fill:url(#application_loc_xml_f);fill-opacity:1;stroke:none;stroke-width:14;stroke-linecap:butt;stroke-linejoin:miter;stroke-miterlimit:4;stroke-dasharray:none;stroke-dashoffset:0;stroke-opacity:1;marker:none;marker-start:none;marker-mid:none;marker-end:none;paint-order:normal"/></svg>