<svg xmlns="http://www.w3.org/2000/svg" width="128" height="128" viewBox="0 0 128 128"><defs><linearGradient id="application_pgp_signature_f" x1="110" x2="110" y1="182" y2="174" gradientTransform="rotate(-45 -128.457 -341.824)scale(1 1.16667)" gradientUnits="userSpaceOnUse"><stop offset="0" stop-color="#9a9996"/><stop offset=".533" stop-color="#deddda"/><stop offset="1" stop-color="#f6f5f4"/></linearGradient><linearGradient id="application_pgp_signature_e" x1="128.817" x2="158.518" y1="-97.698" y2="-127.399" gradientTransform="matrix(.04854 -.23068 .23068 -.04854 411.157 -54.07)" gradientUnits="userSpaceOnUse"><stop offset="0" stop-color="#d0bb8e"/><stop offset="1" stop-color="#fff"/></linearGradient><linearGradient id="application_pgp_signature_b" x1="115" x2="115" y1="183" y2="174" gradientTransform="rotate(-45 -117.657 -315.75)scale(1.2 1.16667)" gradientUnits="userSpaceOnUse"><stop offset="0" stop-color="#e01b24"/><stop offset="1" stop-color="#f66151"/></linearGradient></defs><linearGradient id="application_pgp_signature_a" x1="72" x2="96" y1="68" y2="68" gradientTransform="rotate(90 88 56)" gradientUnits="userSpaceOnUse"><stop offset="0" stop-color="#404ce6"/><stop offset="1" stop-color="#c061cb"/></linearGradient><linearGradient id="application_pgp_signature_c" x1="68.849" x2="95.258" y1="84" y2="84" gradientUnits="userSpaceOnUse"><stop offset="0" stop-color="#33d1c6"/><stop offset="1" stop-color="#1c25d8"/></linearGradient><g style="display:inline"><path d="M124.828 857.328h200L445 977l.005 296.24c0 17.728-14.449 32.088-32.177 32.088h-288c-17.728 0-32-14.272-32-32v-384c0-17.728 14.272-32 32-32" style="display:inline;fill:#d3e3f9;fill-opacity:1;stroke:none;stroke-width:.5;stroke-linejoin:round;stroke-miterlimit:4;stroke-dasharray:none;stroke-opacity:1" transform="matrix(.25 0 0 .25 -3.23 -206.332)"/><path d="M324.828 857.328v88c0 17.728 14.443 31.694 32.17 31.694L445 977Z" style="display:inline;vector-effect:none;fill:#99c1f1;fill-opacity:1;stroke:none;stroke-width:.5;stroke-linecap:butt;stroke-linejoin:round;stroke-miterlimit:4;stroke-dasharray:none;stroke-dashoffset:0;stroke-opacity:1" transform="matrix(.25 0 0 .25 -3.23 -206.332)"/></g><g style="display:inline;fill:#1a5fb4;stroke:#1c71d8;stroke-width:.962543"><path stroke="none" d="M85.809 230v12.617h2.382V230ZM87 230v12.617M79.62 230v12.617h4.76V230Zm2.38 0v12.617M75.809 230v12.617h2.382V230ZM77 230v12.617M71.809 230v12.617h2.382V230ZM73 230v12.617M67.809 230v12.617h2.382V230ZM69 230v12.617M59.428 230v12.617h7.144V230ZM63 230v12.617M49.809 230v12.617h2.382V230ZM51 230v12.617M53.62 230v12.617h4.76V230Zm2.38 0v12.617M43.62 230v12.617h4.76V230Zm2.38 0v12.617M39.809 230v12.617h2.382V230ZM41 230v12.617M35.809 230v12.617h2.382V230ZM37 230v12.617M29.62 230v12.617h4.76V230Zm2.38 0v12.617M25.809 230v12.617h2.382V230ZM27 230v12.617" style="color:#000;fill:#1a5fb4;fill-rule:evenodd;stroke:none;stroke-width:.962543;-inkscape-stroke:none" transform="matrix(.97182 0 0 1.11065 8.606 -175.45)"/></g><g style="display:inline;fill:#99c1f1;stroke-width:1.27273"><path d="m22.216 254 1.197 5.068-3.9-3.279-1.453 2.592 5.01 1.658-5.044 1.59 1.434 2.64 3.955-3.304-1.2 5.035h3.411l-1.102-4.959 3.834 3.314 1.477-2.619-4.979-1.685 5.118-1.426-1.453-2.62-4.034 3.085 1.137-5.09Zm16 0 1.197 5.068-3.9-3.279-1.453 2.592 5.01 1.658-5.044 1.59 1.434 2.64 3.955-3.304-1.2 5.035h3.411l-1.102-4.959 3.834 3.314 1.477-2.619-4.979-1.685 5.118-1.426-1.453-2.62-4.034 3.085 1.137-5.09Zm16 0 1.197 5.068-3.9-3.279-1.453 2.592 5.01 1.658-5.044 1.59 1.434 2.64 3.955-3.304-1.2 5.035h3.411l-1.102-4.959 3.834 3.314 1.477-2.619-4.979-1.685 5.118-1.426-1.453-2.62-4.034 3.085 1.137-5.09Zm16 0 1.197 5.068-3.9-3.279-1.453 2.592 5.01 1.658-5.044 1.59 1.434 2.64 3.955-3.304-1.2 5.035h3.411l-1.102-4.959 3.834 3.314 1.477-2.619-4.979-1.685 5.118-1.426-1.453-2.62-4.034 3.085 1.137-5.09Zm16 0 1.197 5.068-3.9-3.279-1.453 2.592 5.01 1.658-5.044 1.59 1.434 2.64 3.955-3.304-1.2 5.035h3.411l-1.102-4.959 3.834 3.314 1.477-2.619-4.979-1.685 5.118-1.426-1.453-2.62-4.034 3.085 1.137-5.09Z" style="font-style:normal;font-variant:normal;font-weight:800;font-stretch:normal;font-size:medium;line-height:1000%;font-family:Cantarell;-inkscape-font-specification:&quot;Cantarell Ultra-Bold&quot;;letter-spacing:2px;word-spacing:0;fill:#99c1f1;fill-opacity:1;stroke:none;stroke-width:.942799px;stroke-linecap:butt;stroke-linejoin:miter;stroke-opacity:1" transform="translate(20 -101.044)scale(.78571)"/></g><path fill="url(#application_pgp_signature_a)" d="m425.17-128.256 2.828-2.828a4.003 4.003 0 0 1 5.66 0l4.242 4.242a4.003 4.003 0 0 1 0 5.66l-2.828 2.829a4.003 4.003 0 0 1-5.66 0l-4.243-4.243a4.003 4.003 0 0 1 0-5.66m0 0" style="fill:url(#application_pgp_signature_b)" transform="rotate(-165.03 185.226 81.508)scale(.80607 -.80607)"/><path fill="url(#application_pgp_signature_c)" d="m389.42-77.654-4.95-4.95 1.102-6.05 9.898 9.898zm0 0" style="fill:url(#application_pgp_signature_e)" transform="rotate(-165.03 185.226 81.508)scale(.80607 -.80607)"/><path fill="#424048" d="m60.519 68.659.402-4.942-4.885 2.824zm0 0"/><path fill="#5e5c64" d="m52.669 63.776 6.141-3.55L37.847 23.96l-6.141 3.55zm0 0"/><path fill="#77767b" d="m58.532 60.39 2.792-1.617-20.977-36.289-2.78 1.636zm0 0"/><path fill="#3d3846" d="m54.345 62.81-2.791 1.613-20.977-36.289 2.803-1.594zm0 0"/><path fill="url(#d)" d="m422.341-125.428 2.828-2.828 9.903 9.903-2.832 2.828zm0 0" style="fill:url(#application_pgp_signature_f)" transform="rotate(-165.03 185.226 81.508)scale(.80607 -.80607)"/></svg>