<svg xmlns="http://www.w3.org/2000/svg" width="128" height="128" viewBox="0 0 128 128"><path d="M27.978 8h50l30.043 29.918.001 74.06c0 4.432-3.612 8.022-8.044 8.022h-72c-4.432 0-8-3.568-8-8V16c0-4.432 3.568-8 8-8" style="display:inline;fill:#0073a1;fill-opacity:1;stroke:none;stroke-width:.125;stroke-linejoin:round;stroke-miterlimit:4;stroke-dasharray:none;stroke-opacity:1"/><path d="M77.978 8v22c0 4.432 3.61 7.923 8.043 7.923l22-.005z" style="display:inline;vector-effect:none;fill:#fff;fill-opacity:.30000001;stroke:none;stroke-width:.125;stroke-linecap:butt;stroke-linejoin:round;stroke-miterlimit:4;stroke-dasharray:none;stroke-dashoffset:0;stroke-opacity:1"/><g style="fill:#fff"><path d="M-307.81 67.134c0-1.599-1.284-2.898-2.872-2.898s-2.871 1.3-2.871 2.898 1.283 2.897 2.871 2.897 2.872-1.3 2.872-2.897m-29.884 0c0 1.598 1.284 2.897 2.872 2.897s2.871-1.3 2.871-2.897c0-1.599-1.283-2.898-2.871-2.898s-2.872 1.3-2.872 2.898m5.784 18.856-.04.16.025.163c.038.233.119.623.253 1.119.224.822.523 1.645.908 2.419 1.675 3.364 4.406 4.74 8.184 2.837h-.533c3.775 1.9 6.545.53 8.293-2.825a13.4 13.4 0 0 0 .96-2.417c.145-.495.234-.885.276-1.118l.03-.17-.042-.168-2.855-11.2-1.245.394 2.855 11.2-.012-.338c-.032.18-.109.516-.237.953a12 12 0 0 1-.849 2.14c-1.44 2.766-3.532 3.8-6.64 2.236l-.267-.135-.267.135c-3.105 1.563-5.147.534-6.52-2.223a12 12 0 0 1-.8-2.139 10 10 0 0 1-.218-.952l-.014.322 2.855-11.199-1.245-.393z" style="fill:#fff;fill-rule:evenodd;stroke:none;stroke-width:1.55807" transform="translate(454.585 -17.015)scale(1.21017)"/><path d="M-315.266 71.165c-1.03-.116-2.097.52-3.273 1.718-.689.7-1.407 1.592-2.143 2.63a43 43 0 0 0-1.828 2.825 38 38 0 0 0-.74 1.29l1.355-.027-.217-.357q-.26-.421-.586-.925a46 46 0 0 0-1.966-2.808c-.692-.908-1.365-1.703-2.01-2.356-1.339-1.355-2.51-2.076-3.602-1.953l.174 1.549c.458-.052 1.298.465 2.32 1.5.592.6 1.224 1.345 1.878 2.204a44 44 0 0 1 1.9 2.712c.36.555.625.986.769 1.228l.7 1.183.655-1.21c.131-.243.375-.674.708-1.232a42 42 0 0 1 1.762-2.721c.692-.977 1.36-1.807 1.982-2.44.866-.883 1.58-1.308 1.988-1.262zm5.206-12.182a15 15 0 0 0 1.092-.083c.81-.085 1.62-.22 2.384-.416 1.589-.408 2.78-1.022 3.421-1.959.9-1.316 2.556-1.098 3.13.182.91 2.027.606 7.416-1.02 8.952l-.202.19a26 26 0 0 1-2.904 2.306c-.593.408-1.05.692-1.304.837l.773 1.353c.076-.044.212-.124.399-.24a28 28 0 0 0 4.092-3.11l.217-.203c2.182-2.062 2.525-8.151 1.371-10.723-1.058-2.357-4.23-2.776-5.838-.423-.373.546-1.268 1.007-2.522 1.328a15 15 0 0 1-2.162.377c-.444.047-.786.069-.975.075z" style="fill:#fff;fill-rule:evenodd;stroke:none;stroke-width:1.55807" transform="translate(454.585 -17.015)scale(1.21017)"/><path d="M-322.887 51.997c-.15.034-.42.1-.798.2-.625.166-1.32.366-2.068.6-2.139.673-4.278 1.495-6.28 2.475-5.062 2.477-8.423 5.528-9.231 9.277a10.3 10.3 0 0 0-.251 1.904c-.092 2.213.434 4.55 1.363 6.87.298.743.618 1.431.938 2.048.194.374.346.644.438.794l-.111-.346a230 230 0 0 0 .231 2.717 201 201 0 0 0 .627 5.974c.304 2.497.622 4.573.95 6.095.377 2.876 10.063 9.392 14.439 9.392 4.361 0 13.837-6.503 14.225-9.455.318-1.459.635-3.535.94-6.032a229 229 0 0 0 .859-8.69l-.112.345c.091-.15.244-.42.438-.794.32-.617.64-1.305.938-2.05.929-2.318 1.455-4.655 1.363-6.867q-.04-.993-.254-1.918c-.804-3.735-4.15-6.785-9.19-9.262-1.994-.98-4.124-1.803-6.254-2.476a47 47 0 0 0-2.06-.6c-.375-.1-.646-.167-.794-.2zm.345 1.52h-.346c.131.03.384.092.741.187.6.159 1.27.352 1.99.58 2.061.65 4.12 1.446 6.037 2.388 4.652 2.287 7.676 5.043 8.357 8.204a9 9 0 0 1 .218 1.642c.08 1.96-.4 4.092-1.254 6.224a22 22 0 0 1-.874 1.912c-.177.34-.313.58-.386.701l-.097.16-.014.186a226 226 0 0 1-.852 8.62c-.3 2.455-.61 4.49-.927 5.955-.286 2.151-9.046 8.163-12.691 8.163-3.664 0-12.632-6.033-12.905-8.1-.327-1.528-.638-3.563-.937-6.018a200 200 0 0 1-.623-5.927 230 230 0 0 1-.229-2.693l-.014-.186-.097-.16c-.074-.12-.21-.36-.386-.7a22 22 0 0 1-.874-1.913c-.855-2.131-1.335-4.265-1.254-6.224q.036-.85.215-1.629c.684-3.173 3.722-5.93 8.396-8.218 1.925-.941 3.993-1.736 6.062-2.387a45 45 0 0 1 2-.58c.358-.095.612-.157.744-.187" style="fill:#fff;fill-rule:evenodd;stroke:none;stroke-width:1.55807" transform="translate(454.585 -17.015)scale(1.21017)"/><path d="M-323.051 58.884c-4.503 0-7.916 5.625-7.916 12.484 0 5.906 2.886 10.009 7.903 13.09l.424.261.424-.26c4.88-2.997 7.68-7.149 7.68-13.104 0-6.807-3.575-12.504-8.104-12.504l-.478.036zm.067 1.474.41-.033c3.387.003 6.48 4.932 6.48 11.03 0 5.41-2.503 9.122-6.97 11.864h.848c-4.61-2.831-7.193-6.503-7.193-11.851 0-6.151 2.946-11.007 6.358-11.007zm-17.116 8.509a17 17 0 0 1-1.313-.804 23 23 0 0 1-2.934-2.306l-.104-.098c-1.626-1.536-1.93-6.925-1.02-8.952.571-1.274 2.227-1.484 3.13-.163.632.925 1.785 1.541 3.309 1.955.746.203 1.539.343 2.33.434.475.054.847.08 1.067.088l.056-1.557c-.182-.007-.515-.03-.946-.08a14 14 0 0 1-2.1-.389c-1.197-.325-2.057-.784-2.43-1.33-1.61-2.353-4.78-1.952-5.838.404-1.154 2.572-.81 8.66 1.371 10.723l.113.105a24.5 24.5 0 0 0 4.17 3.114c.19.113.33.19.409.232z" style="fill:#fff;fill-rule:evenodd;stroke:none;stroke-width:1.55807" transform="translate(454.585 -17.015)scale(1.21017)"/><path d="M15.974 27.271h1v-6.243h-1z" style="fill:#fff;fill-rule:evenodd;stroke:none;stroke-width:1" transform="translate(32.933 44.777)scale(1.88553)"/></g></svg>