<svg xmlns="http://www.w3.org/2000/svg" xmlns:xlink="http://www.w3.org/1999/xlink" width="128" height="128" viewBox="0 0 128 128"><defs><linearGradient xlink:href="#application_x_ipynb_json_a" id="application_x_ipynb_json_e" x1="92.999" x2="100.999" y1="71" y2="71" gradientTransform="translate(0 10)" gradientUnits="userSpaceOnUse"/><linearGradient id="application_x_ipynb_json_a" x1="92.999" x2="100.999" y1="71" y2="71" gradientUnits="userSpaceOnUse"><stop offset="0" stop-color="#deddda"/><stop offset=".52" stop-color="#fff"/><stop offset="1" stop-color="#bdbdbd"/></linearGradient><linearGradient id="application_x_ipynb_json_f" x1="34" x2="34" y1="278" y2="272" gradientTransform="matrix(1.33333 0 0 1 -10.667 -163)" gradientUnits="userSpaceOnUse"><stop offset="0" stop-color="#c061cb" style="stop-color:#9e9e9e;stop-opacity:1"/><stop offset="1" stop-color="#9141ac" style="stop-color:#616262;stop-opacity:1"/></linearGradient><linearGradient xlink:href="#application_x_ipynb_json_b" id="application_x_ipynb_json_k" x1="25.638" x2="98.496" y1="273" y2="273" gradientTransform="matrix(.9804 0 0 1 4.824 -148)"/><linearGradient id="application_x_ipynb_json_b" gradientUnits="userSpaceOnUse"><stop offset="0" stop-opacity="0"/><stop offset=".2"/><stop offset=".8" stop-opacity=".949"/><stop offset="1" stop-opacity="0"/></linearGradient><clipPath id="application_x_ipynb_json_h"><path d="M0 0h192v152H0z"/></clipPath><filter id="application_x_ipynb_json_c" width="1" height="1" x="0" y="0"><feColorMatrix in="SourceGraphic" values="0 0 0 0 1 0 0 0 0 1 0 0 0 0 1 0 0 0 1 0"/></filter><mask id="application_x_ipynb_json_i"><g filter="url(#g)" style="filter:url(#application_x_ipynb_json_c)"><path fill-opacity=".1" d="M0 0h128v128H0z"/></g></mask></defs><linearGradient id="application_x_ipynb_json_d" x1="36" x2="60" y1="68" y2="68" gradientUnits="userSpaceOnUse"><stop offset="0" stop-color="#ed336c"/><stop offset="1" stop-color="#ffa348"/></linearGradient><path fill="#ff7800" d="M24 20v100h72c4.434 0 8-3.566 8-8V28c0-4.434-3.566-8-8-8z" style="fill:#aa4909;fill-opacity:1"/><path fill="url(#application_x_ipynb_json_d)" d="M26 118h70c6 0 6-6 6-6V92.05L26 92zm0 0" style="fill:url(#application_x_ipynb_json_e)"/><path fill="url(#t)" d="M32 109h16v15l-8-5-8 5zm0 0" style="fill:url(#application_x_ipynb_json_f)"/><path fill="#ff7800" d="M26 12v100h70c4.434 0 8-3.566 8-8V20c0-4.434-3.566-8-8-8z" style="fill:#000;fill-opacity:1"/><path fill="#ff7800" d="M24 10v100h72c4.434 0 8-3.566 8-8V18c0-4.434-3.566-8-8-8z" style="fill:#aa4909;fill-opacity:1"/><path fill="#ff7800" d="M25 8v100h71c4.434 0 8-3.566 8-8V16c0-4.434-3.566-8-8-8z" style="fill:#f37726;fill-opacity:1"/><path d="M65.472 48.226c7.298 0 13.712 2.62 17.028 6.487a18.155 18.155 0 0 0-34.056 0c3.317-3.876 9.698-6.487 17.028-6.487m0 25.151c-7.297 0-13.711-2.62-17.028-6.487a18.155 18.155 0 0 0 34.056 0c-3.308 3.868-9.698 6.487-17.028 6.487" style="mix-blend-mode:normal;fill:#fff;stroke-width:.373768" transform="translate(0 -3.813)"/><path d="M81.53 41.625a2.745 2.745 0 0 1-1.55 2.643 2.749 2.749 0 1 1-1.313-5.222 2.716 2.716 0 0 1 2.862 2.579" style="mix-blend-mode:normal;fill:#fff;fill-opacity:.46;stroke-width:.373768" transform="translate(0 -3.813)"/><path d="M55.45 80.907a3.463 3.463 0 1 1-3.609-3.244 3.44 3.44 0 0 1 2.476.874 3.43 3.43 0 0 1 1.133 2.37" style="mix-blend-mode:normal;fill:#fff;fill-opacity:.62;stroke-width:.373768" transform="translate(0 -3.813)"/><path d="M48.55 46.6a1.995 1.995 0 1 1 1.938-2.075A2.02 2.02 0 0 1 48.55 46.6" style="mix-blend-mode:normal;fill:#fff;fill-opacity:.38;stroke-width:.373768" transform="translate(0 -3.813)"/><path d="M24 8h2v100h-2z" style="stroke-width:6;fill:#793306;fill-opacity:1"/><g clip-path="url(#application_x_ipynb_json_h)" mask="url(#application_x_ipynb_json_i)" transform="matrix(0 -1.4 1 0 -94 149.943)"><path fill="url(#j)" d="M29.96 124h71.428v2H29.959Z" style="fill:url(#application_x_ipynb_json_k)"/></g></svg>