<svg xmlns="http://www.w3.org/2000/svg" width="128" height="128" viewBox="0 0 128 128"><path d="M27.978 8h50l30.043 29.918.001 74.06c0 4.432-3.612 8.022-8.044 8.022h-72c-4.432 0-8-3.568-8-8V16c0-4.432 3.568-8 8-8" style="display:inline;fill:#f6f5f4;fill-opacity:1;stroke:none;stroke-width:.125;stroke-linejoin:round;stroke-miterlimit:4;stroke-dasharray:none;stroke-opacity:1"/><path fill="#99c1f1" d="m99.403 39.109-19.31 3.085v19.543h19.31zm0 0" style="stroke-width:.275432"/><path fill="#deddda" d="M77.978 16.48h-10.76v23.248l32.185-5.145z" style="stroke-width:.275432"/><path fill="#ffbe6f" d="M62.927 16.48h-34.33v29.417l34.33-5.484Zm0 0" style="stroke-width:.275432"/><path fill="#f68276" d="M99.403 93.417 28.597 82.103v29.416h70.806zm0 0" style="fill:#f66151;fill-opacity:1;stroke-width:.275432"/><path fill="#deddda" d="m75.8 42.879-47.203 7.544v27.154l47.204 7.544zm23.603 23.384h-19.31v19.543l19.31 3.085zm0 0" style="stroke-width:.275432"/><path d="M77.978 8v22c0 4.432 3.61 7.923 8.043 7.923l22-.005z" style="display:inline;vector-effect:none;fill:#ed333b;fill-opacity:1;stroke:none;stroke-width:.125;stroke-linecap:butt;stroke-linejoin:round;stroke-miterlimit:4;stroke-dasharray:none;stroke-dashoffset:0;stroke-opacity:1"/></svg>