<svg xmlns="http://www.w3.org/2000/svg" width="128" height="128" viewBox="0 0 128 128"><g style="display:inline"><path d="M124.828 857.328h200L445 977l.005 296.24c0 17.728-14.449 32.088-32.177 32.088h-288c-17.728 0-32-14.272-32-32v-384c0-17.728 14.272-32 32-32" style="display:inline;fill:#f6f5f4;fill-opacity:1;stroke:none;stroke-width:.5;stroke-linejoin:round;stroke-miterlimit:4;stroke-dasharray:none;stroke-opacity:1" transform="matrix(.25 0 0 .25 -3.23 -206.332)"/><path d="M324.828 857.328v88c0 17.728 14.443 31.694 32.17 31.694L445 977Z" style="display:inline;vector-effect:none;fill:#deddda;fill-opacity:1;stroke:none;stroke-width:.5;stroke-linecap:butt;stroke-linejoin:round;stroke-miterlimit:4;stroke-dasharray:none;stroke-dashoffset:0;stroke-opacity:1" transform="matrix(.25 0 0 .25 -3.23 -206.332)"/></g><path fill="#26a269" d="M42.571 52.573A8.553 8.553 0 0 0 34 61.145V95.43a8.553 8.553 0 0 0 8.571 8.57H85.43A8.553 8.553 0 0 0 94 95.432V52.573h-8.571l4.285 8.572-4.285 8.571h-8.572l4.286-8.571-4.286-8.572h-8.571l4.285 8.572-4.285 8.571h-8.572L64 61.145l-4.286-8.572h-8.571l4.286 8.572-4.286 8.571H42.57l4.286-8.571z" style="fill:#241f31;fill-opacity:1;stroke-width:9.33333;marker:none"/><path d="m63.588 77.341.032 20.605h1.616V77.34Z" style="fill:#e14c39;stroke-width:1.07692"/><path d="M60.291 80.638v1.236h1.649v-1.236zm-1.648 2.473v1.236h3.297V83.11zm-3.297 2.472v1.236h6.594v-1.236zm-1.648 2.473v1.236h8.242v-1.236zm1.648 2.472v1.236h6.594v-1.236zm3.297 2.473v1.236h3.297V93Z" style="fill:#83b9f5;fill-rule:evenodd;stroke-width:1.07692"/><path d="m67.709 76.93-.001-.41-3.296.41-3.296-.412v.411l1.648 2.473 1.648 2.472 1.648-2.472z" style="fill:#d33520;fill-opacity:1;stroke-width:1.07692"/><path d="M67.709 76.517h-6.594l1.649 2.473 1.648 2.472 1.648-2.472z" style="fill:#ff6161;stroke-width:1.07692"/><path d="M67.526 82.864c-.304.016-.63.283-.63.579l-.011 8.73c0 .395.58.738.912.504l6.255-4.38c.334-.232.333-.774 0-1.007l-6.243-4.35a.45.45 0 0 0-.283-.076" style="fill:#3a7cca;stroke-width:1.07692"/></svg>