<svg xmlns="http://www.w3.org/2000/svg" xmlns:xlink="http://www.w3.org/1999/xlink" width="128" height="128" viewBox="0 0 128 128"><defs><linearGradient id="application_epub_zip_c" gradientUnits="userSpaceOnUse"><stop offset="0" stop-color="#613583" style="stop-color:#60553e;stop-opacity:1"/><stop offset="1" stop-color="#1a5fb4" style="stop-color:#958460;stop-opacity:1"/></linearGradient><linearGradient id="application_epub_zip_r" x1="34" x2="34" y1="278" y2="272" gradientTransform="matrix(1.51222 0 0 1.0965 155.194 -190.663)" gradientUnits="userSpaceOnUse"><stop offset="0" stop-color="#c061cb"/><stop offset="1" stop-color="#9141ac"/></linearGradient><linearGradient xlink:href="#application_epub_zip_a" id="application_epub_zip_q" x1="42" x2="93" y1="273" y2="273" gradientTransform="matrix(.62745 0 0 1 35.647 -144)"/><linearGradient id="application_epub_zip_a" gradientUnits="userSpaceOnUse"><stop offset="0" stop-opacity="0"/><stop offset=".2"/><stop offset=".8" stop-opacity=".949"/><stop offset="1" stop-opacity="0"/></linearGradient><linearGradient xlink:href="#application_epub_zip_a" id="application_epub_zip_v" x1="42" x2="93" y1="273" y2="273" gradientTransform="matrix(.9804 0 0 1 4.824 -148)"/><linearGradient id="application_epub_zip_m" x1="20" x2="96" y1="66" y2="66" gradientTransform="matrix(1.13417 0 0 1.0965 -126.794 -13.93)" gradientUnits="userSpaceOnUse"><stop offset="0" stop-color="#613583"/><stop offset=".023" stop-color="#c061cb"/><stop offset=".091" stop-color="#9141ac"/><stop offset="1" stop-color="#3584e4"/></linearGradient><linearGradient xlink:href="#application_epub_zip_b" id="application_epub_zip_k" x1="20" x2="96" y1="92" y2="92" gradientTransform="matrix(1.13417 0 0 1.0965 158.219 -13.03)"/><linearGradient id="application_epub_zip_b" gradientUnits="userSpaceOnUse"><stop offset="0" stop-color="#613583"/><stop offset="1" stop-color="#1a5fb4"/></linearGradient><linearGradient xlink:href="#application_epub_zip_a" id="application_epub_zip_w" x1="42" x2="93" y1="273" y2="273" gradientTransform="matrix(.9804 0 0 1 4.824 -148)"/><linearGradient id="application_epub_zip_s" x1="34" x2="34" y1="278" y2="272" gradientTransform="matrix(1.33333 0 0 1 -13.393 -161.998)" gradientUnits="userSpaceOnUse"><stop offset="0" stop-color="#c061cb"/><stop offset="1" stop-color="#9141ac"/></linearGradient><linearGradient id="application_epub_zip_n" x1="20" x2="96" y1="66" y2="66" gradientTransform="matrix(1.15847 0 0 1.12 -3.191 -14.4)" gradientUnits="userSpaceOnUse"><stop offset="0" stop-color="#613583" style="stop-color:#9d8c68;stop-opacity:1"/><stop offset=".023" stop-color="#c061cb" style="stop-color:#c5bba5;stop-opacity:1"/><stop offset=".091" stop-color="#9141ac" style="stop-color:#9d8c68;stop-opacity:1"/><stop offset="1" stop-color="#3584e4" style="stop-color:#c0b59e;stop-opacity:1"/></linearGradient><linearGradient xlink:href="#application_epub_zip_c" id="application_epub_zip_l" x1="20" x2="96" y1="92" y2="92" gradientTransform="matrix(1.15847 0 0 1.12 -3.191 -14.4)"/><linearGradient id="application_epub_zip_j" x1="100" x2="108" y1="83" y2="83" gradientTransform="matrix(1.15847 0 0 1.12 -3.191 -14.4)" gradientUnits="userSpaceOnUse"><stop offset="0" stop-color="#f6f5f4"/><stop offset=".5" stop-color="#f6f5f4"/><stop offset="1" stop-color="#c0bfbc"/></linearGradient><linearGradient xlink:href="#application_epub_zip_c" id="application_epub_zip_h" x1="20" x2="96" y1="94.063" y2="94.063" gradientTransform="matrix(1.15847 0 0 1.12 -3.191 -14.4)"/><filter id="application_epub_zip_d" width="1" height="1" x="0" y="0"><feColorMatrix in="SourceGraphic" values="0 0 0 0 1 0 0 0 0 1 0 0 0 0 1 0 0 0 1 0"/></filter><filter id="application_epub_zip_e" width="1" height="1" x="0" y="0"><feColorMatrix in="SourceGraphic" values="0 0 0 0 1 0 0 0 0 1 0 0 0 0 1 0 0 0 1 0"/></filter><filter id="application_epub_zip_f" width="1" height="1" x="0" y="0"><feColorMatrix in="SourceGraphic" values="0 0 0 0 1 0 0 0 0 1 0 0 0 0 1 0 0 0 1 0"/></filter><clipPath id="application_epub_zip_o"><path d="M0 0h192v152H0z"/></clipPath><clipPath id="application_epub_zip_t"><path d="M0 0h192v152H0z"/></clipPath><mask id="application_epub_zip_p"><g filter="url(#application_epub_zip_d)" style="filter:url(#application_epub_zip_e)"><path fill-opacity=".1" d="M0 0h128v128H0z"/></g></mask><mask id="application_epub_zip_u"><g filter="url(#application_epub_zip_d)" style="filter:url(#application_epub_zip_f)"><path fill-opacity=".1" d="M0 0h128v128H0z"/></g></mask></defs><linearGradient id="application_epub_zip_g" x1="72" x2="96" y1="68" y2="68" gradientTransform="rotate(90 88 56)" gradientUnits="userSpaceOnUse"><stop offset="0" stop-color="#404ce6"/><stop offset="1" stop-color="#c061cb"/></linearGradient><linearGradient id="application_epub_zip_i" x1="68.849" x2="95.258" y1="84" y2="84" gradientUnits="userSpaceOnUse"><stop offset="0" stop-color="#33d1c6"/><stop offset="1" stop-color="#1c25d8"/></linearGradient><path fill="url(#application_epub_zip_g)" d="M29.246 61.9h69.508c5.118 0 9.268 4.012 9.268 8.96v40.18c0 4.948-4.15 8.96-9.268 8.96H29.246c-5.118 0-9.268-4.012-9.268-8.96V70.86c0-4.948 4.15-8.96 9.268-8.96m0 0" style="fill:url(#application_epub_zip_h);fill-opacity:1;stroke-width:1.13907"/><path fill="url(#application_epub_zip_i)" d="M31.563 39.36v78.4l66.974-.04c5.136-.003 9.267-3.995 9.267-8.96V48.28c0-4.966-4.131-8.963-9.267-8.96z" style="fill:url(#application_epub_zip_j);stroke-width:1.13907"/><path fill="url(#application_epub_zip_k)" d="M19.978 72.96v31.36h78.776c5.136 0 9.268-3.994 9.268-8.96V81.92c0-4.966-4.132-8.96-9.268-8.96zm0 0" style="fill:url(#application_epub_zip_l);stroke-width:1.13907"/><path fill="url(#application_epub_zip_m)" d="M19.978 16.96v94.08c0-4.966 4.132-8.96 9.268-8.96h69.508c5.136 0 9.268-3.994 9.268-8.96V16.96c0-4.966-4.132-8.96-9.268-8.96H29.246c-5.118 0-9.268 4.012-9.268 8.96m0 0" style="fill:url(#application_epub_zip_n);stroke-width:1.13907"/><path fill="#f6f5f4" d="M29.246 104.32h4.634c3.837 0 6.95 3.01 6.95 6.72s-3.113 6.72-6.95 6.72h-4.634c-3.838 0-6.951-3.01-6.951-6.72s3.113-6.72 6.95-6.72m0 0" style="stroke-width:1.13907"/><g clip-path="url(#application_epub_zip_o)" mask="url(#application_epub_zip_p)" transform="matrix(1.15847 0 0 1.12 -12.46 -32.32)"><path fill="url(#application_epub_zip_q)" d="M62 128h32v2H62Zm0 0" style="fill:url(#application_epub_zip_q)"/></g><path fill="url(#application_epub_zip_r)" d="M29.274 110.002h16v15l-8-5-8 5zm0 0" style="fill:url(#application_epub_zip_s)"/><g clip-path="url(#application_epub_zip_t)" mask="url(#application_epub_zip_u)" transform="matrix(1.4 0 0 1 -35.126 -15.998)"><path fill="url(#application_epub_zip_v)" d="M46 124h50v2H46Zm0 0" style="fill:url(#application_epub_zip_w)"/></g><path d="m56.202 29.904 19.597-.008c1.108 0 2 .892 2 2s-.892 2-2 2l-19.597.008c-1.108 0-2-.892-2-2s.892-2 2-2m-.204 59.297 20.004-.008c1.108 0 2 .892 2 2s-.892 2-2 2l-20.004.008c-1.108 0-2-.892-2-2s.892-2 2-2M46.83 37.815l38.34.019c1.108 0 2 .892 2 2s-.892 2-2 2l-38.34-.019c-1.108 0-2-.892-2-2s.892-2 2-2" style="display:inline;fill:#000;fill-opacity:.2;stroke-width:2;stroke-linecap:round;paint-order:markers stroke fill;enable-background:new;stop-color:#000"/></svg>