<svg xmlns="http://www.w3.org/2000/svg" width="128" height="128" viewBox="0 0 128 128"><path fill="#f6f5f4" d="M16 28h96c4.434 0 8 3.567 8 7.994v50.03L90 116H16c-4.434 0-8-3.564-8-7.994V35.994A7.98 7.98 0 0 1 16 28m0 0" style="stroke-width:.999601"/><path fill="none" stroke="#3584e4" stroke-linecap="round" stroke-width="3.998" d="M48.71 97.98h34.58c5.913 0 10.71-4.79 10.71-10.703v-34.55c0-5.91-4.797-10.703-10.71-10.703H48.71c-5.913 0-10.71 4.793-10.71 10.702v34.55c0 5.914 4.797 10.703 10.71 10.703zm0 0"/><path fill="#deddda" d="M120 86.149H98a7.98 7.98 0 0 0-8 7.993V116Zm0 0" style="stroke-width:.999601"/><g fill="none"><path stroke="#99c1f1" stroke-dasharray="2, 2" stroke-width="2" d="M83 46v51M49 46v51" transform="matrix(1 0 0 .9992 0 .093)"/><path stroke="#3584e4" stroke-dasharray="16, 16" stroke-dashoffset="17.6" stroke-width="16" d="M31.637-181.28h140.375c23.094 0 41.812 18.718 41.812 41.812v12.5c0 23.11-18.718 41.828-41.812 41.828H31.637c-23.094 0-41.813-18.719-41.813-41.828v-12.5c0-23.094 18.72-41.812 41.813-41.812zm0 0" transform="matrix(.25 0 0 -.2498 40.544 20.756)"/><path stroke="#99c1f1" stroke-dasharray="2, 2" stroke-dashoffset="2.2" stroke-width="2" d="M91.941 77.688a8.2 8.2 0 0 0-6.144-2.758H46.203a8.17 8.17 0 0 0-6.254 2.886" transform="matrix(1 0 0 .9992 0 .093)"/></g></svg>