<svg xmlns="http://www.w3.org/2000/svg" xml:space="preserve" width="128" height="128" viewBox="0 0 128 128"><path d="M27.978 8h50l30.043 29.918.001 74.06c0 4.432-3.612 8.022-8.044 8.022h-72c-4.432 0-8-3.568-8-8V16c0-4.432 3.568-8 8-8" style="display:inline;fill:#2a7bb1;fill-opacity:1;stroke:none;stroke-width:.125;stroke-linejoin:round;stroke-miterlimit:4;stroke-dasharray:none;stroke-opacity:1"/><path d="M77.978 8v22c0 4.432 3.61 7.923 8.043 7.923l22-.005z" style="display:inline;vector-effect:none;fill:#000;fill-opacity:.200017;stroke:none;stroke-width:.125;stroke-linecap:butt;stroke-linejoin:round;stroke-miterlimit:4;stroke-dasharray:none;stroke-dashoffset:0;stroke-opacity:1"/><path d="M73.288 44c-3.525.012-2.802 1.991-3.398 2.57-3.753 8.476-11.614 20.44-12.723 22.579-3.121 4.325-9.731 25.672-12.375 34.81l.19.01.072-.2h-.002c.045-.137.31-.82.369-.993.894-2.733 3.03-8.54 5.377-14.545.093-.238.17-.415.264-.652.026-.068.034-.096.06-.164a680 680 0 0 1 3.51-8.996c.477-1.19.876-2.164 1.168-2.838q.218-.507.353-.778c.045-.09.081-.158.117-.214a1 1 0 0 1 .057-.075.949 2.726 30.602 0 1 .8-2.38.949 2.726 30.602 0 1 1.964-1.868.949 2.726 30.602 0 1 .23.059.949 2.726 30.602 0 1-.613 2.865.949 2.726 30.602 0 1-1.707 1.785l-.022.03c-.15.201-.453.771-.828 1.574a94 94 0 0 0-1.35 3.07c-.956 2.263-2.12 5.173-3.283 8.133-2.565 6.696-5.331 14.025-6.048 16.21l.18.009c-.251-.234 12.32-18.873 27.687-21.404.047-20.093 9.286-27.485 9.87-28.743-1.234-6.675-4.86-9.195-8.132-9.726A14 14 0 0 0 73.288 44" style="font-size:12px;fill:#fff;fill-rule:evenodd;stroke:none;stroke-width:5.63506"/></svg>