<svg xmlns="http://www.w3.org/2000/svg" xmlns:xlink="http://www.w3.org/1999/xlink" width="128" height="128" viewBox="0 0 128 128"><defs><linearGradient xlink:href="#application_vnd_snap_a" id="application_vnd_snap_d" x1="17" x2="111" y1="39" y2="39" gradientUnits="userSpaceOnUse"/><linearGradient id="application_vnd_snap_a"><stop offset="0" style="stop-color:#6bb28e;stop-opacity:1"/><stop offset=".05" style="stop-color:#93c8ad;stop-opacity:1"/><stop offset=".09" style="stop-color:#78ba99;stop-opacity:1"/><stop offset=".91" style="stop-color:#78ba99;stop-opacity:1"/><stop offset=".95" style="stop-color:#93c8ad;stop-opacity:1"/><stop offset="1" style="stop-color:#6bb28f;stop-opacity:1"/></linearGradient><linearGradient xlink:href="#application_vnd_snap_b" id="application_vnd_snap_c" x1="20" x2="108" y1="64" y2="64" gradientUnits="userSpaceOnUse"/><linearGradient id="application_vnd_snap_b"><stop offset="0" style="stop-color:#4b916e;stop-opacity:1"/><stop offset=".05" style="stop-color:#93c8ad;stop-opacity:1"/><stop offset=".09" style="stop-color:#61ae87;stop-opacity:1"/><stop offset=".91" style="stop-color:#61ae87;stop-opacity:1"/><stop offset=".95" style="stop-color:#93c8ad;stop-opacity:1"/><stop offset="1" style="stop-color:#4b916e;stop-opacity:1"/></linearGradient></defs><path d="M27.996 8A7.98 7.98 0 0 0 20 16v96c0 4.434 3.565 8 7.996 8h71.965c4.431 0 8.039-3.59 8.039-8.023V15.922C108 11.488 104.392 8 99.961 8l-21.985.004L77.972 8Z" style="fill:url(#application_vnd_snap_c);fill-opacity:1;stroke:none;stroke-width:.999756"/><path fill="#cdab8f" d="M25.543 16h76.914c4.72 0 8.543 3.17 8.543 7.078v31.844c0 3.909-3.824 7.078-8.543 7.078H25.543C20.823 62 17 58.83 17 54.922V23.078C17 19.17 20.824 16 25.543 16m0 0" style="fill:url(#application_vnd_snap_d);fill-opacity:1;stroke-width:.995887"/><path fill="#cdab8f" d="M25.543 8h76.914c4.72 0 8.543 3.17 8.543 7.078v31.844c0 3.909-3.824 7.078-8.543 7.078H25.543C20.823 54 17 50.83 17 46.922V15.078C17 11.17 20.824 8 25.543 8m0 0" style="fill:#93c8ad;fill-opacity:1;stroke-width:.995887"/><path d="M66.841 78.105 38.881 68l27.96 27.786Zm-6.627 12.428L46.632 116l19.543-19.548Zm7.572-11.68V94.85l11.081-11.077Z" style="fill:#fff;fill-opacity:1;stroke-width:.456404"/><path d="m89.118 87.306-4.582-9.201H68.425Z" style="fill:#fa6441;fill-opacity:1;stroke-width:.456404"/><path d="M60 21v4h4v-2h4v-2h-4zm4 4v2h-4v4h4v-2h4v-4zm0 6v2h-4v4h4v-2h4v-4zm0 6v2h-4v4h4v-2h4v-4zm0 6v2h-4v4h4v-2h4v-4zm0 6v2h-4v4h4v-2h4v-4zm0 6v2h-4v4h4v-2h4v-4zm0 6v1h4v-1z" style="fill:#fff;fill-opacity:1;stroke:none;stroke-width:.125;stroke-linecap:butt;stroke-linejoin:miter;stroke-miterlimit:4;stroke-dasharray:none;stroke-dashoffset:0;stroke-opacity:1;marker:none;paint-order:normal"/><path d="M60 12c-2.216 0-4 1.784-4 4v10c0 2.216 1.784 4 4 4v8c0 1.108.892 2 2 2h4c1.108 0 2-.892 2-2v-8c2.216 0 4-1.784 4-4V16c0-2.216-1.784-4-4-4Zm2 22h4v4h-4z" style="display:inline;opacity:.1;fill:#000;fill-opacity:1;stroke:none;stroke-width:.499999;stroke-linecap:round;stroke-linejoin:round;stroke-miterlimit:4;stroke-dasharray:none;stroke-dashoffset:0;stroke-opacity:1"/><path d="M60 23v4h4v-2h4v-2h-4zm4 4v2h-4v4h4v-2h4v-4zm0 6v2h-4v4h4v-2h4v-4zm0 6v2h-4v4h4v-2h4v-4zm0 6v2h-4v4h4v-2h4v-4zm0 6v2h-4v4h4v-2h4v-4zm0 6v2h-4v3h4v-1h4v-4z" style="fill:#60ae88;fill-opacity:1;stroke:none;stroke-width:.125;stroke-linecap:butt;stroke-linejoin:miter;stroke-miterlimit:4;stroke-dasharray:none;stroke-dashoffset:0;stroke-opacity:1;marker:none;paint-order:normal"/><path d="M62 18c-1.108 0-2 .892-2 2v16c0 1.108.892 2 2 2h4c1.108 0 2-.892 2-2V20c0-1.108-.892-2-2-2zm0 14h4v4h-4z" style="vector-effect:none;fill:#396f55;fill-opacity:1;stroke:none;stroke-width:.499999;stroke-linecap:round;stroke-linejoin:round;stroke-miterlimit:4;stroke-dasharray:none;stroke-dashoffset:0;stroke-opacity:1"/><rect width="16" height="18" x="56" y="10" rx="2.503" ry="2.503" style="display:inline;vector-effect:none;fill:#396f55;fill-opacity:1;stroke:none;stroke-width:.499999;stroke-linecap:round;stroke-linejoin:round;stroke-miterlimit:4;stroke-dasharray:none;stroke-dashoffset:0;stroke-opacity:1"/><rect width="16" height="18" x="56" y="8" rx="2.945" ry="2.945" style="display:inline;vector-effect:none;fill:#60ae88;fill-opacity:1;stroke:none;stroke-width:1.99999;stroke-linecap:butt;stroke-linejoin:round;stroke-miterlimit:4;stroke-dasharray:none;stroke-dashoffset:0;stroke-opacity:1"/><path d="M62 14c-1.108 0-2 .892-2 2v18c0 1.108.892 2 2 2h4c1.108 0 2-.892 2-2V16c0-1.108-.892-2-2-2zm0 16h4v4h-4z" style="fill:#fff;fill-opacity:1;stroke:none;stroke-width:.499999;stroke-linecap:round;stroke-linejoin:round;stroke-miterlimit:4;stroke-dasharray:none;stroke-dashoffset:0;stroke-opacity:1"/><rect width="4" height="10" x="62" y="-20" rx="2" ry="2" style="display:inline;fill:#396f55;fill-opacity:1;stroke:none;stroke-width:.125;stroke-linecap:butt;stroke-linejoin:miter;stroke-miterlimit:4;stroke-dasharray:none;stroke-dashoffset:0;stroke-opacity:1;marker:none;paint-order:normal" transform="scale(1 -1)"/><rect width="4" height="8" x="62" y="-18" rx="2" ry="2" style="display:inline;fill:#60ae88;fill-opacity:1;stroke:none;stroke-width:.125;stroke-linecap:butt;stroke-linejoin:miter;stroke-miterlimit:4;stroke-dasharray:none;stroke-dashoffset:0;stroke-opacity:1;marker:none;paint-order:normal" transform="scale(1 -1)"/><path d="M60 54h8v8h-8z" style="fill:#0b0705;fill-opacity:.2;stroke:none"/></svg>