<svg xmlns="http://www.w3.org/2000/svg" xml:space="preserve" width="128" height="128" viewBox="0 0 128 128"><path d="M27.975 8H77.95l30.028 29.918v74.06c0 4.432-3.61 8.022-8.04 8.022H27.975a7.98 7.98 0 0 1-7.996-8V16c0-4.432 3.566-8 7.996-8" style="display:inline;fill:#f6f5f4;fill-opacity:1;stroke:none;stroke-width:.124969;stroke-linejoin:round;stroke-miterlimit:4;stroke-dasharray:none;stroke-opacity:1"/><path d="M77.979 8v22c0 4.432 3.61 7.923 8.042 7.923l22-.005z" style="display:inline;vector-effect:none;fill:#deddda;fill-opacity:1;stroke:none;stroke-width:.125;stroke-linecap:butt;stroke-linejoin:round;stroke-miterlimit:4;stroke-dasharray:none;stroke-dashoffset:0;stroke-opacity:1"/><path d="M61.973 91.628c-4.01 0-6.56-2.433-6.56-5.518 0-13.204 34.72-15.847 34.72-29.869 0-8.554-9.908-12.24-22.557-12.24-7.694 0-16.393 1.424-24.473 3.972V64.7C55.01 56.028 68.238 52.316 76.76 52.316c5.358 0 8.994 1.495 8.994 4.173 0 11.036-47.888 9.288-47.888 33.134 0 9.14 6.286 14.377 15.128 14.377 13.375 0 23.492-12.997 31.06-28.842l1.534.551c-3.987 9.682-12.235 20.299-13.842 27.124h17.22V67.526h-3.977c-5.773 12.543-14.232 24.102-23.016 24.102" style="clip-rule:evenodd;display:inline;fill:#adaba3;fill-rule:nonzero;stroke-width:.38509;stroke-linejoin:round;stroke-miterlimit:2;fill-opacity:1"/><path d="M27.979 8c-4.432 0-8 3.568-8 8v94.666L63.979 8z" style="display:inline;fill:#000;fill-opacity:.0341939;stroke:none;stroke-width:1px;stroke-linecap:butt;stroke-linejoin:miter;stroke-opacity:1"/><path d="m107.979 110.771-.002-72.853L77.934 8h-14Z" style="display:inline;fill:#fff;fill-opacity:.45554;stroke:none;stroke-width:1px;stroke-linecap:butt;stroke-linejoin:miter;stroke-opacity:1"/></svg>