<svg xmlns="http://www.w3.org/2000/svg" xml:space="preserve" width="128" height="128" viewBox="0 0 128 128"><path d="M27.978 8h50l30.043 29.918.001 74.06c0 4.432-3.612 8.022-8.044 8.022h-72c-4.432 0-8-3.568-8-8V16c0-4.432 3.568-8 8-8" style="display:inline;fill:#d10;fill-opacity:1;stroke:none;stroke-width:.125;stroke-linejoin:round;stroke-miterlimit:4;stroke-dasharray:none;stroke-opacity:1"/><path d="M77.978 8v22c0 4.432 3.61 7.923 8.043 7.923l22-.005z" style="display:inline;vector-effect:none;fill:#fff;fill-opacity:.40000001;stroke:none;stroke-width:.125;stroke-linecap:butt;stroke-linejoin:round;stroke-miterlimit:4;stroke-dasharray:none;stroke-dashoffset:0;stroke-opacity:1"/><path d="M64 44a30 30 0 0 0-30 30 30 30 0 0 0 30 30 30 30 0 0 0 30-30 30 30 0 0 0-30-30m-.102 2.983A27.006 27.006 0 0 1 91.005 74a26.99 26.99 0 0 1-12.677 22.892l-9.262-11.54 7.672.845s3.684.38 4.524 0c.768-.304 4.912-6.137 4.912-6.137s-11.894-7.52-15.96-11.662c.465-6.982-.534-16.267-.534-16.19-2.994 2.989-3.375 3.453-6.37 6.215-1.303-4.22-1.917-5.68-3.22-9.9-3.917 3.22-6.906 8.674-9.055 15.043a26 26 0 0 0-1.367 1.648c-.292.387-.584.78-.863 1.184a37 37 0 0 0-1.662 2.59 56 56 0 0 0-1.1 1.959C43.549 75.632 41.5 81 39.727 85.834a27.006 27.006 0 0 1 24.172-38.852m-4.273 5.148c1.077 3.22 2.77 9.9 3.918 13.12 5.065 5.065 12.738 11.357 17.875 13.964.536.31 1.225 2.46 1.225 2.46l-2.07 2.605-22.096-2.225q-.741-.062-1.483-.06c-1.535.021-3.065.17-4.576.441 1.071-2.685 3.375-4.834 3.375-4.834s-2.15-1.303-3.764-1.53c.465-1.077 1.69-2.458 2-2.84-.619.227-5.065 2.22-5.529 3.911 1.259.31 2.492.72 3.686 1.227a11.65 11.65 0 0 0-2.84 6.523s7.06-1.077 12.357-.387a.56.56 0 0 0 .303.078l2.762.077 8.775 14.607.07.113c-.012.006-.017.012-.023.012-16.548 5.982-28.507-5.03-31.06-8.88a1 1 0 0 0 .025-.1c2.297-9.715 5.13-21.341 9.707-24.776 2.38-4.149 3.071-10.285 7.363-13.506m8.75 4.375c.155 3.834.078 5.828-.154 10.512-1.15-1.155-3.453-2.613-3.453-2.613S64.31 61.72 64 60.727c2.071-2 2.38-2.304 4.375-4.22m-3.887 16.2a6 6 0 0 0-.945.062q-.376.976-.613 1.994c1.226-.149 2.53.311 3.988 1.156 1.38-.386 1.535-.464 2.916-.845-1.547-1.14-3.208-2.34-5.346-2.367" style="fill:#fff;fill-rule:evenodd;stroke-width:.30303"/><path fill="#fff" d="M64.762 64.427s-.458-2.685-.768-3.679c2.072-2 2.381-2.303 4.375-4.22.155 3.833.078 5.827-.154 10.512-1.15-1.155-3.453-2.613-3.453-2.613m-8.976 13.196s-2.149-1.303-3.762-1.53c.464-1.077 1.69-2.458 2-2.839-.619.226-5.065 2.22-5.53 3.91q1.892.466 3.685 1.227a11.65 11.65 0 0 0-2.84 6.524s7.06-1.077 12.358-.387a.56.56 0 0 0 .303.077l2.762.078 8.774 14.607.071.113q-.017.01-.023.012c-16.548 5.982-28.506-5.03-31.06-8.881a1 1 0 0 0 .024-.101c2.297-9.715 5.13-21.34 9.708-24.774 2.381-4.149 3.072-10.286 7.363-13.506 1.078 3.22 2.768 9.899 3.917 13.119C68.6 70.338 76.274 76.629 81.41 79.236c.536.31 1.226 2.459 1.226 2.459l-2.071 2.607-22.096-2.226q-.741-.061-1.482-.06a28 28 0 0 0-4.577.44c1.071-2.684 3.375-4.833 3.375-4.833m7.137-2.839c1.226-.149 2.53.31 3.988 1.155 1.38-.387 1.536-.465 2.917-.846-1.768-1.303-3.685-2.684-6.292-2.303q-.375.976-.613 1.994" style="fill-rule:evenodd;stroke:none;stroke-width:.30303;opacity:.6"/></svg>