<svg xmlns="http://www.w3.org/2000/svg" xmlns:xlink="http://www.w3.org/1999/xlink" width="128" height="128" viewBox="0 0 128 128"><defs><linearGradient xlink:href="#application_vnd_leocad_a" id="application_vnd_leocad_d" x1="42" x2="86" y1="31.5" y2="31.5" gradientTransform="translate(29.714 38.634)scale(.53571)" gradientUnits="userSpaceOnUse"/><linearGradient id="application_vnd_leocad_a"><stop offset="0" style="stop-color:#971211;stop-opacity:1"/><stop offset=".418" style="stop-color:#e9423f;stop-opacity:1"/><stop offset=".808" style="stop-color:#971311;stop-opacity:1"/><stop offset="1" style="stop-color:#e72a27;stop-opacity:1"/></linearGradient><linearGradient xlink:href="#application_vnd_leocad_b" id="application_vnd_leocad_c" x1="20" x2="108" y1="64" y2="64" gradientTransform="translate(29.714 38.634)scale(.53571)" gradientUnits="userSpaceOnUse"/><linearGradient id="application_vnd_leocad_b" x1="48" x2="464" y1="44" y2="44" gradientTransform="matrix(.21154 0 0 .25 -143.435 37.95)" gradientUnits="userSpaceOnUse"><stop offset="0" stop-color="#986a44" style="stop-color:#981311;stop-opacity:1"/><stop offset=".045" stop-color="#cdab8f" style="stop-color:#e9423e;stop-opacity:1"/><stop offset=".091" stop-color="#b5835a" style="stop-color:#971311;stop-opacity:1"/><stop offset=".909" stop-color="#b5835a" style="stop-color:#971311;stop-opacity:1"/><stop offset=".955" stop-color="#cdab8f" style="stop-color:#e9433f;stop-opacity:1"/><stop offset="1" stop-color="#986a44" style="stop-color:#971311;stop-opacity:1"/></linearGradient></defs><g style="display:inline"><path d="M124.828 857.328h200L445 977l.005 296.24c0 17.728-14.449 32.088-32.177 32.088h-288c-17.728 0-32-14.272-32-32v-384c0-17.728 14.272-32 32-32" style="display:inline;fill:#f6f5f4;fill-opacity:1;stroke:none;stroke-width:.5;stroke-linejoin:round;stroke-miterlimit:4;stroke-dasharray:none;stroke-opacity:1" transform="matrix(.24987 0 0 .25 -3.195 -206.332)"/><path d="M324.828 857.328v88c0 17.728 14.443 31.694 32.17 31.694L445 977Z" style="display:inline;vector-effect:none;fill:#deddda;fill-opacity:1;stroke:none;stroke-width:.5;stroke-linecap:butt;stroke-linejoin:round;stroke-miterlimit:4;stroke-dasharray:none;stroke-dashoffset:0;stroke-opacity:1" transform="matrix(.24987 0 0 .25 -3.195 -206.332)"/></g><path d="M87.571 47.209V98.63c0 2.376-2.102 4.29-4.714 4.29H45.143c-2.612 0-4.714-1.914-4.714-4.29V47.21c0-2.377 2.102-4.29 4.714-4.29h37.714c2.612 0 4.714 1.913 4.714 4.29" style="display:inline;vector-effect:none;fill:url(#application_vnd_leocad_c);stroke-width:.00635057px;marker:none;marker-start:none;marker-mid:none;marker-end:none"/><path fill="#cdab8f" d="M44.713 42.92h38.574c2.367 0 4.284 1.697 4.284 3.791v17.06c0 2.093-1.917 3.791-4.284 3.791H44.713c-2.367 0-4.284-1.698-4.284-3.792V46.711c0-2.094 1.917-3.792 4.284-3.792m0 0" style="display:inline;fill:#c61715;fill-opacity:1;stroke-width:.516201"/><path d="M75.786 55.509c0 3.402-5.277 6.16-11.786 6.16-6.51 0-11.786-2.758-11.786-6.16V49.08c0-2.91 6.534.268 11.786.268 5.194 0 11.786-3.168 11.786-.268z" style="display:inline;fill:url(#application_vnd_leocad_d);stroke-width:2.74791;stroke-linecap:round;stroke-linejoin:round"/><path d="M75.786 49.08A11.786 6.16 0 0 1 64 55.24a11.786 6.16 0 0 1-11.786-6.16A11.786 6.16 0 0 1 64 42.92a11.786 6.16 0 0 1 11.786 6.16" style="display:inline;fill:#e72825;stroke-width:2.74791;stroke-linecap:round;stroke-linejoin:round"/></svg>