<svg xmlns="http://www.w3.org/2000/svg" xml:space="preserve" width="128" height="128" viewBox="0 0 128 128"><path d="M27.978 8h50l30.043 29.918.001 74.06c0 4.432-3.612 8.022-8.044 8.022h-72c-4.432 0-8-3.568-8-8V16c0-4.432 3.568-8 8-8" style="display:inline;fill:#d10;fill-opacity:1;stroke:none;stroke-width:.125;stroke-linejoin:round;stroke-miterlimit:4;stroke-dasharray:none;stroke-opacity:1"/><path d="M77.978 8v22c0 4.432 3.61 7.923 8.043 7.923l22-.005z" style="display:inline;vector-effect:none;fill:#fff;fill-opacity:.40000001;stroke:none;stroke-width:.125;stroke-linecap:butt;stroke-linejoin:round;stroke-miterlimit:4;stroke-dasharray:none;stroke-dashoffset:0;stroke-opacity:1"/><path d="M55.793 70.004c.37-2.449 2.558-6.513 4.606-8.561 1.855-1.855 5.514-3.903 6.975-3.904 2.966 0 7.517 3.322 9.408 6.869.995 1.867 2.152 5.422 2.152 6.612 0 .267-.934-.38-2.076-1.437s-3.13-2.44-4.42-3.076c-2.13-1.049-2.63-1.154-5.478-1.154-2.79 0-3.358.114-5.183 1.038-1.128.57-2.988 1.96-4.133 3.088l-2.083 2.05z" style="opacity:.7;fill:#fff;stroke-width:.260468"/><path d="M59.66 78.585c-2.115-.932-3.994-3.544-3.994-5.55 0-.98 3.456-4.692 5.215-5.601l1.093-.566-.982 1.674c-1.3 2.213-1.366 5.147-.164 7.26.828 1.458 2.264 2.556 3.4 2.599.586.022.582.05-.054.323-1.045.449-3.34.378-4.514-.14m7.35.945c1.299-2.213 1.365-5.147.164-7.262-.829-1.457-2.265-2.554-3.4-2.597-1.21-.046.62-.62 2.061-.646 3.184-.06 6.5 3.025 6.5 6.045 0 .946-3.497 4.68-5.215 5.568l-1.093.565z" style="opacity:.7;fill:#fff;stroke-width:.260468"/><path d="M57.826 89.79c-3.93-1.51-7.724-6.38-8.92-11.45-.287-1.221-.525-2.322-.528-2.446-.003-.123 1.074.855 2.392 2.174 1.668 1.667 3.122 2.739 4.776 3.52 2.126 1.002 2.708 1.121 5.503 1.125 2.786.004 3.348-.108 5.176-1.033 1.128-.57 2.987-1.96 4.133-3.088l2.082-2.05-.231 1.525c-.371 2.448-2.558 6.512-4.606 8.56-1.924 1.924-5.553 3.917-7.075 3.886-.478-.01-1.694-.335-2.702-.722" style="opacity:.7;fill:#fff;stroke-width:.260468"/><path d="M51.99 90.364c-3.284-.715-6.932-2.733-9.346-5.17-7.037-7.107-7.954-19.355-2.186-29.218 2.084-3.564 6.74-8.063 10.01-9.672 2.702-1.33 6.424-2.293 8.9-2.303 3.412-.015 9.373 1.713 13.638 3.952l1.539.808-2.06.243c-6.592.78-13.252 3.494-17.061 6.953-6.74 6.12-9.274 15.445-6.54 24.057 1.424 4.481 4.568 8.291 8.262 10.011l1.819.847-2.431-.024c-1.337-.013-3.382-.231-4.543-.484" style="fill:#fff;stroke-width:.260468"/><path d="M64.348 103.56c-2.398-.478-6.79-2.097-9.377-3.456l-1.563-.82 1.737-.235c10.486-1.42 18.67-6.97 22.365-15.17 4.46-9.9 1.553-21.708-6.313-25.64l-2.098-1.047 2.226.006c14.769.04 23.673 14.36 18.529 29.8-1.333 4-3.345 7.143-6.73 10.51-5.504 5.476-11.683 7.468-18.776 6.052" style="fill:#fff;stroke-width:.260468"/></svg>