<svg xmlns="http://www.w3.org/2000/svg" width="128" height="128" viewBox="0 0 128 128"><path d="M27.978 8h50l30.043 29.918.001 74.06c0 4.432-3.612 8.022-8.044 8.022h-72c-4.432 0-8-3.568-8-8V16c0-4.432 3.568-8 8-8" style="display:inline;fill:#1facf5;fill-opacity:1;stroke:none;stroke-width:.125;stroke-linejoin:round;stroke-miterlimit:4;stroke-dasharray:none;stroke-opacity:1"/><path d="M77.978 8v22c0 4.432 3.61 7.923 8.043 7.923l22-.005z" style="display:inline;vector-effect:none;fill:#000;fill-opacity:.2;stroke:none;stroke-width:.125;stroke-linecap:butt;stroke-linejoin:round;stroke-miterlimit:4;stroke-dasharray:none;stroke-dashoffset:0;stroke-opacity:1"/><path d="M63.926 43.998a1.92 1.92 0 0 0-1.922 1.916v1.717a7.78 7.78 0 0 0-5.871 7.576 7.79 7.79 0 0 0 3.115 6.24c.202.239.326.539.326.875a2 2 0 0 1-.013.287l-8.432 17.877h-3.494c-.57 0-1.035.46-1.035 1.03v.005c0 .57.465 1.03 1.035 1.03h2.52l-6.512 13.806a2.26 2.26 0 0 0 .435 2.54l-2.512 5.101 3.97-4.299a2.296 2.296 0 0 0 2.655-1.236L55.7 82.55h6.6v1.365c0 .87.708 1.574 1.584 1.574h.086a1.58 1.58 0 0 0 1.586-1.574V82.55h6.752l7.507 15.912a2.28 2.28 0 0 0 2.65 1.236l3.97 4.3-2.506-5.103a2.27 2.27 0 0 0 .435-2.539L77.853 82.55h2.36c.576 0 1.034-.46 1.034-1.03 0-.569-.458-1.029-1.033-1.035h-3.336L68.445 62.61c-.012-.091-.011-.189-.011-.287 0-.33.122-.636.318-.875a7.79 7.79 0 0 0 3.121-6.24c0-3.691-2.566-6.778-6.023-7.605v-1.688c0-1.06-.859-1.916-1.924-1.916m1.869 7.076a4.5 4.5 0 0 1 2.73 4.133c0 2.486-2.021 4.5-4.52 4.5a4.5 4.5 0 0 1-4.517-4.5 4.49 4.49 0 0 1 2.588-4.066c.227.802.966 1.39 1.85 1.39a1.92 1.92 0 0 0 1.869-1.457m-1.826 14.934h.074c.245 0 .459.115.594.287l6.695 14.191h-5.777v-1.658c0-.875-.71-1.58-1.586-1.58h-.086c-.876 0-1.584.71-1.584 1.58v1.658h-5.625l6.695-14.191a.76.76 0 0 1 .6-.287" style="fill:#fff;stroke-width:.0612245"/></svg>