<svg xmlns="http://www.w3.org/2000/svg" xml:space="preserve" width="128" height="128" viewBox="0 0 128 128"><g style="display:inline"><path d="M124.828 857.328h200L445 977l.005 296.24c0 17.728-14.449 32.088-32.177 32.088h-288c-17.728 0-32-14.272-32-32v-384c0-17.728 14.272-32 32-32" style="display:inline;fill:#f6f5f4;fill-opacity:1;stroke:none;stroke-width:.5;stroke-linejoin:round;stroke-miterlimit:4;stroke-dasharray:none;stroke-opacity:1" transform="matrix(.25 0 0 .25 -3.23 -206.332)"/><path d="M324.828 857.328v88c0 17.728 14.443 31.694 32.17 31.694L445 977Z" style="display:inline;vector-effect:none;fill:#deddda;fill-opacity:1;stroke:none;stroke-width:.5;stroke-linecap:butt;stroke-linejoin:round;stroke-miterlimit:4;stroke-dasharray:none;stroke-dashoffset:0;stroke-opacity:1" transform="matrix(.25 0 0 .25 -3.23 -206.332)"/></g><path d="m33.978 35.99 35.99.02c1.108 0 2 .891 2 2 0 1.107-.892 2-2 2l-35.99-.02c-1.108 0-2-.891-2-2 0-1.107.892-2 2-2m0-8 35.99.02c1.108 0 2 .891 2 2 0 1.107-.892 2-2 2l-35.99-.02c-1.108 0-2-.891-2-2 0-1.107.892-2 2-2" style="display:inline;fill:#deddda;stroke-width:2;stroke-linecap:round;paint-order:markers stroke fill;stop-color:#000"/><rect width="64" height="4" x="31.978" y="52" rx="2" ry="2" style="display:inline;fill:#deddda;fill-opacity:1;stroke-width:2;stroke-linecap:round;paint-order:markers stroke fill;stop-color:#000"/><rect width="64" height="4" x="31.978" y="44" rx="2" ry="2" style="display:inline;fill:#deddda;fill-opacity:1;stroke-width:2;stroke-linecap:round;paint-order:markers stroke fill;stop-color:#000"/><path d="m64.554 84.004 29.424-.008c1.108 0 2 .892 2 2s-.892 2-2 2l-29.424.008c-1.108 0-2-.892-2-2s.892-2 2-2m0 8 29.424-.008c1.108 0 2 .892 2 2s-.892 2-2 2l-29.424.008c-1.108 0-2-.892-2-2s.892-2 2-2m0 8 29.424-.008c1.108 0 2 .892 2 2s-.892 2-2 2l-29.424.008c-1.108 0-2-.892-2-2s.892-2 2-2" style="display:inline;fill:#deddda;stroke-width:2;stroke-linecap:round;paint-order:markers stroke fill;stop-color:#000"/><path d="M43.325 63.475v3.242H31.978v3.242h25.936v-3.242H46.567v-3.242zm1.62 9.726c-5.37 0-9.725 4.354-9.725 9.726s4.354 9.726 9.726 9.726c5.371 0 9.726-4.354 9.726-9.726s-4.355-9.726-9.726-9.726m0 3.242a6.484 6.484 0 1 1 .001 12.968 6.484 6.484 0 0 1 0-12.968M31.979 95.895V104h25.936v-3.242H35.22v-4.863zm12.968 0a1.621 1.621 0 1 0 0 3.242 1.621 1.621 0 0 0 0-3.242" style="fill:#6eb1f8;stroke-width:3.74354"/><path d="m64.554 60.004 29.424-.008c1.108 0 2 .892 2 2s-.892 2-2 2l-29.424.008c-1.108 0-2-.892-2-2s.892-2 2-2m0 8 29.424-.008c1.108 0 2 .892 2 2s-.892 2-2 2l-29.424.008c-1.108 0-2-.892-2-2s.892-2 2-2m0 8 29.424-.008c1.108 0 2 .892 2 2s-.892 2-2 2l-29.424.008c-1.108 0-2-.892-2-2s.892-2 2-2" style="display:inline;fill:#deddda;stroke-width:2;stroke-linecap:round;paint-order:markers stroke fill;stop-color:#000"/></svg>