<svg xmlns="http://www.w3.org/2000/svg" width="128" height="128" viewBox="0 0 128 128"><path d="M27.978 8h50l30.043 29.918.001 74.06c0 4.432-3.612 8.022-8.044 8.022h-72c-4.432 0-8-3.568-8-8V16c0-4.432 3.568-8 8-8" style="font-variation-settings:normal;display:inline;vector-effect:none;fill:#5382a1;fill-opacity:1;stroke:none;stroke-width:6.51672;stroke-linecap:butt;stroke-linejoin:miter;stroke-miterlimit:4;stroke-dasharray:none;stroke-dashoffset:0;stroke-opacity:1;marker:none;marker-start:none;marker-mid:none;marker-end:none;paint-order:normal;stop-color:#000"/><g style="opacity:.4"><path d="M82.305 105.64s-1.657 1.017 1.181 1.36c3.438.413 5.195.354 8.983-.4 0 0 .998.657 2.39 1.226-8.495 3.835-19.225-.222-12.554-2.186m-1.038-5.004s-1.86 1.45.98 1.76c3.674.399 6.574.431 11.594-.587 0 0 .693.742 1.784 1.147-10.269 3.165-21.705.249-14.359-2.32z" style="fill:#fff;fill-opacity:1;stroke-width:.762623" transform="translate(-73.499 -77.158)scale(1.5625)"/><path d="M90.016 92.145c2.094 2.54-.55 4.823-.55 4.823s5.315-2.89 2.875-6.51c-2.28-3.375-4.028-5.052 5.434-10.834 0 0-14.853 3.908-7.76 12.52z" style="fill:#f8981d;fill-opacity:1;stroke-width:.762623" transform="translate(-73.499 -77.158)scale(1.5625)"/><path d="M101.25 109.342s1.227 1.066-1.35 1.89c-4.903 1.564-20.406 2.036-24.713.062-1.547-.71 1.356-1.693 2.269-1.901.952-.217 1.495-.178 1.495-.178-1.721-1.277-11.127 2.509-4.777 3.595 17.318 2.957 31.568-1.332 27.076-3.468M83.103 95.45s-7.886 1.974-2.793 2.69c2.151.304 6.437.234 10.432-.119 3.263-.288 6.539-.906 6.539-.906s-1.15.52-1.983 1.119c-8.009 2.22-23.478 1.186-19.023-1.083 3.765-1.92 6.827-1.701 6.827-1.701zm14.146 8.33c8.14-4.456 4.376-8.739 1.749-8.162-.643.141-.931.264-.931.264s.24-.395.695-.565c5.198-1.925 9.194 5.677-1.676 8.688 0 0 .125-.12.163-.226z" style="fill:#fff;fill-opacity:1;stroke-width:.762623" transform="translate(-73.499 -77.158)scale(1.5625)"/><path d="M92.341 70.287s4.508 4.752-4.276 12.057c-7.044 5.862-1.606 9.203-.002 13.023-4.113-3.91-7.129-7.35-5.106-10.553 2.971-4.7 11.203-6.98 9.385-14.527z" style="fill:#f8981d;fill-opacity:1;stroke-width:.762623" transform="translate(-73.499 -77.158)scale(1.5625)"/><path d="M83.903 115.858c7.812.527 19.813-.292 20.096-4.188 0 0-.546 1.477-6.457 2.649-6.669 1.322-14.896 1.168-19.773.32 0 0 .999.871 6.134 1.22z" style="fill:#fff;fill-opacity:1;stroke-width:.762623" transform="translate(-73.499 -77.158)scale(1.5625)"/></g><g style="display:inline;fill:#c0bfbc;stroke-width:.25"><path d="M60 178v4h4v-2h4v-2h-4zm4 4v2h-4v4h4v-2h4v-4zm0 6v2h-4v4h4v-2h4v-4zm0 6v2h-4v4h4v-2h4v-4zm0 6v2h-4v4h4v-2h4v-4zm0 6v2h-4v4h4v-2h4v-4zm0 6v2h-4v4h4v-2h4v-4zm0 6v2h-4v4h4v-2h4v-4zm0 6v2h-4v4h4v-2h4v-4zm0 6v2h-4v4h4v-2h4v-4z" style="opacity:1;fill:#fff;fill-opacity:1;stroke:none;stroke-width:.125;stroke-linecap:butt;stroke-linejoin:miter;stroke-miterlimit:4;stroke-dasharray:none;stroke-dashoffset:0;stroke-opacity:1;marker:none;paint-order:normal" transform="translate(0 -118)"/></g><path d="M60 51c-2.216 0-4 1.784-4 4v10c0 2.216 1.784 4 4 4v8c0 1.108.892 2 2 2h4c1.108 0 2-.892 2-2v-8c2.216 0 4-1.784 4-4V55c0-2.216-1.784-4-4-4zm2 22h4v4h-4z" style="display:inline;opacity:.1;fill:#000;fill-opacity:1;stroke:none;stroke-width:.5;stroke-linecap:round;stroke-linejoin:round;stroke-miterlimit:4;stroke-dasharray:none;stroke-dashoffset:0;stroke-opacity:1"/><path d="M60 62v4h4v-2h4v-2h-4zm4 4v2h-4v4h4v-2h4v-4zm0 6v2h-4v4h4v-2h4v-4zm0 6v2h-4v4h4v-2h4v-4zm0 6v2h-4v4h4v-2h4v-4zm0 6v2h-4v4h4v-2h4v-4zm0 6v2h-4v4h4v-2h4v-4zm0 6v2h-4v4h4v-2h4v-4zm0 6v2h-4v4h4v-2h4v-4zm0 6v2h-4v4h4v-2h4v-4z" style="fill:#426780;fill-opacity:1;stroke:none;stroke-width:.125;stroke-linecap:butt;stroke-linejoin:miter;stroke-miterlimit:4;stroke-dasharray:none;stroke-dashoffset:0;stroke-opacity:1;marker:none;paint-order:normal"/><path d="M62 57c-1.108 0-2 .892-2 2v16c0 1.108.892 2 2 2h4c1.108 0 2-.892 2-2V59c0-1.108-.892-2-2-2zm0 14h4v4h-4z" style="vector-effect:none;fill:#314c5e;fill-opacity:1;stroke:none;stroke-width:.5;stroke-linecap:round;stroke-linejoin:round;stroke-miterlimit:4;stroke-dasharray:none;stroke-dashoffset:0;stroke-opacity:1"/><rect width="16" height="18" x="56" y="49" rx="2.503" ry="2.503" style="display:inline;vector-effect:none;fill:#314c5e;fill-opacity:1;stroke:none;stroke-width:.5;stroke-linecap:round;stroke-linejoin:round;stroke-miterlimit:4;stroke-dasharray:none;stroke-dashoffset:0;stroke-opacity:1"/><rect width="16" height="18" x="56" y="47" rx="2.945" ry="2.945" style="display:inline;vector-effect:none;fill:#426780;fill-opacity:1;stroke:none;stroke-width:2;stroke-linecap:butt;stroke-linejoin:round;stroke-miterlimit:4;stroke-dasharray:none;stroke-dashoffset:0;stroke-opacity:1"/><path d="M62 53c-1.108 0-2 .892-2 2v18c0 1.108.892 2 2 2h4c1.108 0 2-.892 2-2V55c0-1.108-.892-2-2-2zm0 16h4v4h-4z" style="fill:#fff;fill-opacity:1;stroke:none;stroke-width:.5;stroke-linecap:round;stroke-linejoin:round;stroke-miterlimit:4;stroke-dasharray:none;stroke-dashoffset:0;stroke-opacity:1"/><rect width="4" height="10" x="62" y="-59" rx="2" ry="2" style="display:inline;fill:#314c5e;fill-opacity:1;stroke:none;stroke-width:.125;stroke-linecap:butt;stroke-linejoin:miter;stroke-miterlimit:4;stroke-dasharray:none;stroke-dashoffset:0;stroke-opacity:1;marker:none;paint-order:normal" transform="scale(1 -1)"/><rect width="4" height="8" x="62" y="-57" rx="2" ry="2" style="display:inline;fill:#426780;fill-opacity:1;stroke:none;stroke-width:.125;stroke-linecap:butt;stroke-linejoin:miter;stroke-miterlimit:4;stroke-dasharray:none;stroke-dashoffset:0;stroke-opacity:1;marker:none;paint-order:normal" transform="scale(1 -1)"/><path d="M77.978 8v22c0 4.432 3.61 7.923 8.043 7.923l22-.005z" style="font-variation-settings:normal;display:inline;vector-effect:none;fill:#fff;fill-opacity:.30000001;stroke:none;stroke-width:6.51672;stroke-linecap:butt;stroke-linejoin:miter;stroke-miterlimit:4;stroke-dasharray:none;stroke-dashoffset:0;stroke-opacity:1;marker:none;marker-start:none;marker-mid:none;marker-end:none;paint-order:normal;stop-color:#000"/></svg>