<svg xmlns="http://www.w3.org/2000/svg" width="128" height="128" viewBox="0 0 128 128"><path d="M27.978 8h50l30.043 29.918.001 74.06c0 4.432-3.612 8.022-8.044 8.022h-72c-4.432 0-8-3.568-8-8V16c0-4.432 3.568-8 8-8" style="display:inline;fill:#666;fill-opacity:1;stroke:none;stroke-width:.125;stroke-linejoin:round;stroke-miterlimit:4;stroke-dasharray:none;stroke-opacity:1"/><path d="M77.978 8v22c0 4.432 3.61 7.923 8.043 7.923l22-.005z" style="display:inline;vector-effect:none;fill:#9a9996;fill-opacity:1;stroke:none;stroke-width:.125;stroke-linecap:butt;stroke-linejoin:round;stroke-miterlimit:4;stroke-dasharray:none;stroke-dashoffset:0;stroke-opacity:1"/><g aria-label="01001111 01100011 01110100 01101111" style="font-size:16px;line-height:1.25;font-family:&quot;Source Code Pro&quot;;-inkscape-font-specification:&quot;Source Code Pro&quot;;fill:#fff;fill-opacity:.8"><path d="M-131.042 42.125q-1.136 0-1.952-.624-.816-.64-1.264-1.824t-.448-2.88q0-2.576.976-3.92.992-1.344 2.688-1.344 1.712 0 2.688 1.344t.976 3.92q0 1.696-.448 2.88-.432 1.184-1.264 1.824-.816.624-1.952.624m0-1.056q.72 0 1.264-.448.544-.464.848-1.408.32-.96.32-2.416 0-1.472-.32-2.4-.304-.928-.848-1.36-.544-.448-1.264-.448-.704 0-1.264.448-.544.432-.864 1.36-.304.928-.304 2.4 0 1.456.304 2.416.32.944.864 1.408.56.448 1.264.448m0-3.312q-.4 0-.704-.288-.288-.288-.288-.784t.288-.768q.304-.288.704-.288.416 0 .704.288.288.272.288.768t-.288.784-.704.288m6.352 4.176v-1.088h2.944v-7.52h-2.288v-.848q.608-.08 1.072-.192t.848-.24q.384-.144.704-.32h.976v9.12h2.672v1.088zm12.848.192q-1.136 0-1.952-.624-.816-.64-1.264-1.824t-.448-2.88q0-2.576.976-3.92.992-1.344 2.688-1.344 1.712 0 2.688 1.344t.976 3.92q0 1.696-.448 2.88-.432 1.184-1.264 1.824-.816.624-1.952.624m0-1.056q.72 0 1.264-.448.544-.464.848-1.408.32-.96.32-2.416 0-1.472-.32-2.4-.304-.928-.848-1.36-.544-.448-1.264-.448-.704 0-1.264.448-.544.432-.864 1.36-.304.928-.304 2.4 0 1.456.304 2.416.32.944.864 1.408.56.448 1.264.448m0-3.312q-.4 0-.704-.288-.288-.288-.288-.784t.288-.768q.304-.288.704-.288.416 0 .704.288.288.272.288.768t-.288.784-.704.288m9.6 4.368q-1.136 0-1.952-.624-.816-.64-1.264-1.824t-.448-2.88q0-2.576.976-3.92.992-1.344 2.688-1.344 1.712 0 2.688 1.344t.976 3.92q0 1.696-.448 2.88-.432 1.184-1.264 1.824-.816.624-1.952.624m0-1.056q.72 0 1.264-.448.544-.464.848-1.408.32-.96.32-2.416 0-1.472-.32-2.4-.304-.928-.848-1.36-.544-.448-1.264-.448-.704 0-1.264.448-.544.432-.864 1.36-.304.928-.304 2.4 0 1.456.304 2.416.32.944.864 1.408.56.448 1.264.448m0-3.312q-.4 0-.704-.288-.288-.288-.288-.784t.288-.768q.304-.288.704-.288.416 0 .704.288.288.272.288.768t-.288.784-.704.288m6.352 4.176v-1.088h2.944v-7.52h-2.288v-.848q.608-.08 1.072-.192t.848-.24q.384-.144.704-.32h.976v9.12h2.672v1.088zm9.6 0v-1.088h2.944v-7.52h-2.288v-.848q.608-.08 1.072-.192t.848-.24q.384-.144.704-.32h.976v9.12h2.672v1.088zm9.6 0v-1.088h2.944v-7.52h-2.288v-.848q.608-.08 1.072-.192t.848-.24q.384-.144.704-.32h.976v9.12h2.672v1.088zm9.6 0v-1.088h2.944v-7.52h-2.288v-.848q.608-.08 1.072-.192t.848-.24q.384-.144.704-.32h.976v9.12h2.672v1.088zm-63.952 20.192q-1.136 0-1.952-.624-.816-.64-1.264-1.824t-.448-2.88q0-2.576.976-3.92.992-1.344 2.688-1.344 1.712 0 2.688 1.344t.976 3.92q0 1.696-.448 2.88-.432 1.184-1.264 1.824-.816.624-1.952.624m0-1.056q.72 0 1.264-.448.544-.464.848-1.408.32-.96.32-2.416 0-1.472-.32-2.4-.304-.928-.848-1.36-.544-.448-1.264-.448-.704 0-1.264.448-.544.432-.864 1.36-.304.928-.304 2.4 0 1.456.304 2.416.32.944.864 1.408.56.448 1.264.448m0-3.312q-.4 0-.704-.288-.288-.288-.288-.784t.288-.768q.304-.288.704-.288.416 0 .704.288.288.272.288.768t-.288.784-.704.288m6.352 4.176v-1.088h2.944v-7.52h-2.288v-.848q.608-.08 1.072-.192t.848-.24q.384-.144.704-.32h.976v9.12h2.672v1.088zm9.6 0v-1.088h2.944v-7.52h-2.288v-.848q.608-.08 1.072-.192t.848-.24q.384-.144.704-.32h.976v9.12h2.672v1.088zm12.848.192q-1.136 0-1.952-.624-.816-.64-1.264-1.824t-.448-2.88q0-2.576.976-3.92.992-1.344 2.688-1.344 1.712 0 2.688 1.344t.976 3.92q0 1.696-.448 2.88-.432 1.184-1.264 1.824-.816.624-1.952.624m0-1.056q.72 0 1.264-.448.544-.464.848-1.408.32-.96.32-2.416 0-1.472-.32-2.4-.304-.928-.848-1.36-.544-.448-1.264-.448-.704 0-1.264.448-.544.432-.864 1.36-.304.928-.304 2.4 0 1.456.304 2.416.32.944.864 1.408.56.448 1.264.448m0-3.312q-.4 0-.704-.288-.288-.288-.288-.784t.288-.768q.304-.288.704-.288.416 0 .704.288.288.272.288.768t-.288.784-.704.288m9.6 4.368q-1.136 0-1.952-.624-.816-.64-1.264-1.824t-.448-2.88q0-2.576.976-3.92.992-1.344 2.688-1.344 1.712 0 2.688 1.344t.976 3.92q0 1.696-.448 2.88-.432 1.184-1.264 1.824-.816.624-1.952.624m0-1.056q.72 0 1.264-.448.544-.464.848-1.408.32-.96.32-2.416 0-1.472-.32-2.4-.304-.928-.848-1.36-.544-.448-1.264-.448-.704 0-1.264.448-.544.432-.864 1.36-.304.928-.304 2.4 0 1.456.304 2.416.32.944.864 1.408.56.448 1.264.448m0-3.312q-.4 0-.704-.288-.288-.288-.288-.784t.288-.768q.304-.288.704-.288.416 0 .704.288.288.272.288.768t-.288.784-.704.288m9.6 4.368q-1.136 0-1.952-.624-.816-.64-1.264-1.824t-.448-2.88q0-2.576.976-3.92.992-1.344 2.688-1.344 1.712 0 2.688 1.344t.976 3.92q0 1.696-.448 2.88-.432 1.184-1.264 1.824-.816.624-1.952.624m0-1.056q.72 0 1.264-.448.544-.464.848-1.408.32-.96.32-2.416 0-1.472-.32-2.4-.304-.928-.848-1.36-.544-.448-1.264-.448-.704 0-1.264.448-.544.432-.864 1.36-.304.928-.304 2.4 0 1.456.304 2.416.32.944.864 1.408.56.448 1.264.448m0-3.312q-.4 0-.704-.288-.288-.288-.288-.784t.288-.768q.304-.288.704-.288.416 0 .704.288.288.272.288.768t-.288.784-.704.288m6.352 4.176v-1.088h2.944v-7.52h-2.288v-.848q.608-.08 1.072-.192t.848-.24q.384-.144.704-.32h.976v9.12h2.672v1.088zm9.6 0v-1.088h2.944v-7.52h-2.288v-.848q.608-.08 1.072-.192t.848-.24q.384-.144.704-.32h.976v9.12h2.672v1.088zm-63.952 20.192q-1.136 0-1.952-.624-.816-.64-1.264-1.824t-.448-2.88q0-2.576.976-3.92.992-1.344 2.688-1.344 1.712 0 2.688 1.344t.976 3.92q0 1.696-.448 2.88-.432 1.184-1.264 1.824-.816.624-1.952.624m0-1.056q.72 0 1.264-.448.544-.464.848-1.408.32-.96.32-2.416 0-1.472-.32-2.4-.304-.928-.848-1.36-.544-.448-1.264-.448-.704 0-1.264.448-.544.432-.864 1.36-.304.928-.304 2.4 0 1.456.304 2.416.32.944.864 1.408.56.448 1.264.448m0-3.312q-.4 0-.704-.288-.288-.288-.288-.784t.288-.768q.304-.288.704-.288.416 0 .704.288.288.272.288.768t-.288.784-.704.288m6.352 4.176v-1.088h2.944v-7.52h-2.288v-.848q.608-.08 1.072-.192t.848-.24q.384-.144.704-.32h.976v9.12h2.672v1.088zm9.6 0v-1.088h2.944v-7.52h-2.288v-.848q.608-.08 1.072-.192t.848-.24q.384-.144.704-.32h.976v9.12h2.672v1.088zm9.6 0v-1.088h2.944v-7.52h-2.288v-.848q.608-.08 1.072-.192t.848-.24q.384-.144.704-.32h.976v9.12h2.672v1.088zm12.848.192q-1.136 0-1.952-.624-.816-.64-1.264-1.824t-.448-2.88q0-2.576.976-3.92.992-1.344 2.688-1.344 1.712 0 2.688 1.344t.976 3.92q0 1.696-.448 2.88-.432 1.184-1.264 1.824-.816.624-1.952.624m0-1.056q.72 0 1.264-.448.544-.464.848-1.408.32-.96.32-2.416 0-1.472-.32-2.4-.304-.928-.848-1.36-.544-.448-1.264-.448-.704 0-1.264.448-.544.432-.864 1.36-.304.928-.304 2.4 0 1.456.304 2.416.32.944.864 1.408.56.448 1.264.448m0-3.312q-.4 0-.704-.288-.288-.288-.288-.784t.288-.768q.304-.288.704-.288.416 0 .704.288.288.272.288.768t-.288.784-.704.288m6.352 4.176v-1.088h2.944v-7.52h-2.288v-.848q.608-.08 1.072-.192t.848-.24q.384-.144.704-.32h.976v9.12h2.672v1.088zm12.848.192q-1.136 0-1.952-.624-.816-.64-1.264-1.824t-.448-2.88q0-2.576.976-3.92.992-1.344 2.688-1.344 1.712 0 2.688 1.344t.976 3.92q0 1.696-.448 2.88-.432 1.184-1.264 1.824-.816.624-1.952.624m0-1.056q.72 0 1.264-.448.544-.464.848-1.408.32-.96.32-2.416 0-1.472-.32-2.4-.304-.928-.848-1.36-.544-.448-1.264-.448-.704 0-1.264.448-.544.432-.864 1.36-.304.928-.304 2.4 0 1.456.304 2.416.32.944.864 1.408.56.448 1.264.448m0-3.312q-.4 0-.704-.288-.288-.288-.288-.784t.288-.768q.304-.288.704-.288.416 0 .704.288.288.272.288.768t-.288.784-.704.288m9.6 4.368q-1.136 0-1.952-.624-.816-.64-1.264-1.824t-.448-2.88q0-2.576.976-3.92.992-1.344 2.688-1.344 1.712 0 2.688 1.344t.976 3.92q0 1.696-.448 2.88-.432 1.184-1.264 1.824-.816.624-1.952.624m0-1.056q.72 0 1.264-.448.544-.464.848-1.408.32-.96.32-2.416 0-1.472-.32-2.4-.304-.928-.848-1.36-.544-.448-1.264-.448-.704 0-1.264.448-.544.432-.864 1.36-.304.928-.304 2.4 0 1.456.304 2.416.32.944.864 1.408.56.448 1.264.448m0-3.312q-.4 0-.704-.288-.288-.288-.288-.784t.288-.768q.304-.288.704-.288.416 0 .704.288.288.272.288.768t-.288.784-.704.288m-67.2 24.368q-1.136 0-1.952-.624-.816-.64-1.264-1.824t-.448-2.88q0-2.576.976-3.92.992-1.344 2.688-1.344 1.712 0 2.688 1.344t.976 3.92q0 1.696-.448 2.88-.432 1.184-1.264 1.824-.816.624-1.952.624m0-1.056q.72 0 1.264-.448.544-.464.848-1.408.32-.96.32-2.416 0-1.472-.32-2.4-.304-.928-.848-1.36-.544-.448-1.264-.448-.704 0-1.264.448-.544.432-.864 1.36-.304.928-.304 2.4 0 1.456.304 2.416.32.944.864 1.408.56.448 1.264.448m0-3.312q-.4 0-.704-.288-.288-.288-.288-.784t.288-.768q.304-.288.704-.288.416 0 .704.288.288.272.288.768t-.288.784-.704.288m6.352 4.176v-1.088h2.944v-7.52h-2.288v-.848q.608-.08 1.072-.192t.848-.24q.384-.144.704-.32h.976v9.12h2.672v1.088zm9.6 0v-1.088h2.944v-7.52h-2.288v-.848q.608-.08 1.072-.192t.848-.24q.384-.144.704-.32h.976v9.12h2.672v1.088zm12.848.192q-1.136 0-1.952-.624-.816-.64-1.264-1.824t-.448-2.88q0-2.576.976-3.92.992-1.344 2.688-1.344 1.712 0 2.688 1.344t.976 3.92q0 1.696-.448 2.88-.432 1.184-1.264 1.824-.816.624-1.952.624m0-1.056q.72 0 1.264-.448.544-.464.848-1.408.32-.96.32-2.416 0-1.472-.32-2.4-.304-.928-.848-1.36-.544-.448-1.264-.448-.704 0-1.264.448-.544.432-.864 1.36-.304.928-.304 2.4 0 1.456.304 2.416.32.944.864 1.408.56.448 1.264.448m0-3.312q-.4 0-.704-.288-.288-.288-.288-.784t.288-.768q.304-.288.704-.288.416 0 .704.288.288.272.288.768t-.288.784-.704.288m6.352 4.176v-1.088h2.944v-7.52h-2.288v-.848q.608-.08 1.072-.192t.848-.24q.384-.144.704-.32h.976v9.12h2.672v1.088zm9.6 0v-1.088h2.944v-7.52h-2.288v-.848q.608-.08 1.072-.192t.848-.24q.384-.144.704-.32h.976v9.12h2.672v1.088zm9.6 0v-1.088h2.944v-7.52h-2.288v-.848q.608-.08 1.072-.192t.848-.24q.384-.144.704-.32h.976v9.12h2.672v1.088zm9.6 0v-1.088h2.944v-7.52h-2.288v-.848q.608-.08 1.072-.192t.848-.24q.384-.144.704-.32h.976v9.12h2.672v1.088z" style="fill:#fff;fill-opacity:.8" transform="matrix(.91221 0 0 .90662 152.88 13.079)"/></g></svg>