<svg xmlns="http://www.w3.org/2000/svg" xmlns:xlink="http://www.w3.org/1999/xlink" width="128" height="128" viewBox="0 0 128 128"><defs><linearGradient id="application_mbox_h" x1="18" x2="110" y1="24" y2="24" gradientTransform="translate(8 3.857)" gradientUnits="userSpaceOnUse"><stop offset="0" stop-color="#cc920a" style="stop-color:#1c71d8;stop-opacity:1"/><stop offset=".043" stop-color="#e5a50a" style="stop-color:#1e77e1;stop-opacity:1"/><stop offset=".955" stop-color="#e5a50a" style="stop-color:#1e77e1;stop-opacity:1"/><stop offset="1" stop-color="#cc920a" style="stop-color:#1c71d8;stop-opacity:1"/></linearGradient><linearGradient id="application_mbox_f" x1="12" x2="116" y1="124" y2="124" gradientTransform="translate(8 3.857)" gradientUnits="userSpaceOnUse"><stop offset="0" stop-color="#ce9508" style="stop-color:#1c71d8;stop-opacity:1"/><stop offset=".038" stop-color="#f5c211" style="stop-color:#99c1f1;stop-opacity:1"/><stop offset=".077" stop-color="#e5a50a" style="stop-color:#1c71d8;stop-opacity:1"/><stop offset=".921" stop-color="#e5a50a" style="stop-color:#1c71d8;stop-opacity:1"/><stop offset=".962" stop-color="#f5c211" style="stop-color:#99c1f1;stop-opacity:1"/><stop offset="1" stop-color="#ce9708" style="stop-color:#1c71d8;stop-opacity:1"/></linearGradient><linearGradient id="application_mbox_a" x1="28.534" x2="115.425" y1="64.799" y2="64.799" gradientUnits="userSpaceOnUse"><stop offset="0" stop-opacity=".35"/><stop offset=".5"/><stop offset="1" stop-opacity=".35"/></linearGradient><linearGradient xlink:href="#application_mbox_a" id="application_mbox_q" x1="28.534" x2="115.425" y1="64.799" y2="64.799" gradientUnits="userSpaceOnUse"/><clipPath id="application_mbox_i"><path d="M0 0h192v152H0z"/></clipPath><clipPath id="application_mbox_k" clipPathUnits="userSpaceOnUse"><path d="M0 0h192v152H0z"/></clipPath><clipPath id="application_mbox_m" clipPathUnits="userSpaceOnUse"><path d="M0 0h192v152H0z"/></clipPath><clipPath id="application_mbox_o" clipPathUnits="userSpaceOnUse"><path d="M0 0h192v152H0z"/></clipPath><mask id="application_mbox_j"><g filter="url(#application_mbox_b)" style="filter:url(#application_mbox_c)"><path fill-opacity=".3" d="M0 0h128v128H0z"/></g></mask><mask id="application_mbox_l" maskUnits="userSpaceOnUse"><g filter="url(#application_mbox_b)" style="filter:url(#application_mbox_d)"><path fill-opacity=".1" d="M0 0h128v128H0z"/></g></mask><mask id="application_mbox_n" maskUnits="userSpaceOnUse"><g filter="url(#application_mbox_b)" style="filter:url(#application_mbox_d)"><path fill-opacity=".14" d="M0 0h128v128H0z"/></g></mask><mask id="application_mbox_p" maskUnits="userSpaceOnUse"><g filter="url(#application_mbox_b)" style="filter:url(#application_mbox_d)"><path fill-opacity=".3" d="M0 0h128v128H0z"/></g></mask><filter id="application_mbox_c" width="1" height="1" x="0" y="0"><feColorMatrix in="SourceGraphic" values="0 0 0 0 1 0 0 0 0 1 0 0 0 0 1 0 0 0 1 0"/></filter><filter id="application_mbox_d" width="1" height="1" x="0" y="0"><feColorMatrix in="SourceGraphic" values="0 0 0 0 1 0 0 0 0 1 0 0 0 0 1 0 0 0 1 0"/></filter></defs><linearGradient id="application_mbox_e" x1="36" x2="60" y1="68" y2="68" gradientUnits="userSpaceOnUse"><stop offset="0" stop-color="#ed336c"/><stop offset="1" stop-color="#ffa348"/></linearGradient><linearGradient id="application_mbox_g" x1="72" x2="96" y1="68" y2="68" gradientTransform="rotate(90 88 56)" gradientUnits="userSpaceOnUse"><stop offset="0" stop-color="#404ce6"/><stop offset="1" stop-color="#c061cb"/></linearGradient><linearGradient id="application_mbox_b" x1="68.849" x2="95.258" y1="84" y2="84" gradientUnits="userSpaceOnUse"><stop offset="0" stop-color="#33d1c6"/><stop offset="1" stop-color="#1c25d8"/></linearGradient><path d="M27.996 7.857h49.975L108 37.775l.001 74.06c0 4.432-3.61 8.022-8.04 8.022H27.996a7.98 7.98 0 0 1-7.996-8v-96c0-4.432 3.566-8 7.996-8" style="display:inline;fill:#62a0ea;fill-opacity:1;stroke:none;stroke-width:.124969;stroke-linejoin:round;stroke-miterlimit:4;stroke-dasharray:none;stroke-opacity:1;enable-background:new"/><path fill="url(#application_mbox_e)" d="M28 7.857h72a8 8 0 0 1 8 8v96a8 8 0 0 1-8 8H28a8 8 0 0 1-8-8v-96a8 8 0 0 1 8-8" style="fill:url(#application_mbox_f)"/><path fill="#f6d32d" d="M28 7.857h72a8 8 0 0 1 8 8v68a8 8 0 0 1-8 8H28a8 8 0 0 1-8-8v-68a8 8 0 0 1 8-8" style="fill:#62a0ea;fill-opacity:1"/><path fill="url(#application_mbox_g)" d="M28 13.857h72a2 2 0 0 1 2 2v68c0 1.106-.895 2-2 2H28c-1.105 0-2-.894-2-2v-68a2 2 0 0 1 2-2" style="fill:url(#application_mbox_h)"/><path fill="#c18b08" d="M28 37.857h72a2 2 0 0 1 2 2v44c0 1.106-.895 2-2 2H28c-1.105 0-2-.894-2-2v-44a2 2 0 0 1 2-2" style="fill:#1966c2;fill-opacity:1"/><path fill="#f6d32d" d="M46 98.857v7c0 2.215 1.785 4 4 4h28c2.215 0 4-1.785 4-4v-7c0 2.215-1.785 4-4 4H50c-2.215 0-4-1.785-4-4" style="fill:#62a0ea;fill-opacity:1"/><path fill="#c0bfbc" d="M82 95.857v4c0 2.215-1.785 4-4 4H50c-2.215 0-4-1.785-4-4v-4z"/><g clip-path="url(#application_mbox_i)" mask="url(#application_mbox_j)" transform="translate(-204 -33)"><path fill="#241f31" d="M172.492 27h7c.832 0 1.5.445 1.5 1s-.668 1-1.5 1h-7c-.832 0-1.5-.445-1.5-1s.668-1 1.5-1m0 0"/></g><path d="M46 85.861v-.004H30.906zm53.938-.004H82v.012l17.938.004z" style="stroke-width:.968999"/><path d="m97.777 23.918-66.87.037c-.82 0-1.558.18-2.087.469-.483.4-.797.996-.797 1.672l-.003 11.761-.02 48h18v10h36v-10h17.938V26.02a2.175 2.175 0 0 0-2.16-2.102" style="fill:#fff;stroke-width:.968999"/><path d="m28.46 44.676 43.17 34.887 43.61-34.887-43.61 37.066Zm0 0" clip-path="url(#application_mbox_k)" mask="url(#application_mbox_l)" transform="matrix(0 -.70407 1.33362 0 -30.758 105.588)"/><path fill="#f7f8f9" d="M28.823 84.322c0 .328.198.63.531.88L75.35 55.157l-45.765-30.2c-.47.272-.76.635-.76 1.03zm0 0" style="stroke-width:.968999"/><path d="M28.023 96.046 28.001 96v2h.022z" clip-path="url(#application_mbox_m)" mask="url(#application_mbox_n)" transform="matrix(0 -.70407 1.33362 0 -30.758 105.588)"/><path d="M116 96 96.198 82.4l-13.504-9.275C79.628 70.27 61.55 68.84 57.55 68.84s-8 1.43-11.063 4.285L28.023 86.13V98h84.989c1.658-.03 2.988-.746 2.988-1.629z" clip-path="url(#application_mbox_m)" mask="url(#application_mbox_n)" transform="matrix(0 -.70407 1.33362 0 -30.758 105.588)"/><path d="M99.21 24.475 81.8 37.857l-12.368 9.508c-3.808 2.16-5.715 14.887-5.715 17.703 0 2.817 1.907 5.633 5.715 7.79l17.343 13h13.176l-.013-2.745V26.02a2.16 2.16 0 0 0-.727-1.545" style="fill:#fff;stroke-width:.968999"/><path d="M115.944 46.549c-.029-.665-.36-1.507-.36-1.507l-19.386-.367H28.023v12.88h-3.762l3.762 3.01L47 78.84c5.715 5.785 29.583 5.785 35.298 0l13.9-13.134Z" clip-path="url(#application_mbox_o)" mask="url(#application_mbox_p)" style="fill:url(#application_mbox_q)" transform="matrix(0 -.70407 1.33362 0 -30.758 105.588)"/><path d="M29.365 24.854c-.338.25-.543.555-.543.888v60.115H47.23l25.311-13.36c7.621-4.025 7.621-20.829 0-24.852L54 37.857z" style="stroke-width:.968999;fill:#fff;fill-opacity:1"/><path d="M46 96.857h36v1H46Zm0 2h36v1H46Zm.13 2q.139.535.407 1h34.926q.269-.465.406-1zm1.227 2c.705.62 1.627 1 2.643 1h28c1.016 0 1.938-.38 2.643-1z" style="opacity:.2;fill:#000;stroke-width:1.2"/></svg>