<svg xmlns="http://www.w3.org/2000/svg" xmlns:xlink="http://www.w3.org/1999/xlink" width="128" height="128" viewBox="0 0 128 128"><defs><linearGradient xlink:href="#application_vnd_flatpak_a" id="application_vnd_flatpak_d" x1="17" x2="111" y1="39" y2="39" gradientUnits="userSpaceOnUse"/><linearGradient id="application_vnd_flatpak_a"><stop offset="0" style="stop-color:#458cd8;stop-opacity:1"/><stop offset=".05" style="stop-color:#79abe2;stop-opacity:1"/><stop offset=".09" style="stop-color:#5797db;stop-opacity:1"/><stop offset=".91" style="stop-color:#5797db;stop-opacity:1"/><stop offset=".95" style="stop-color:#79abe2;stop-opacity:1"/><stop offset="1" style="stop-color:#458cd8;stop-opacity:1"/></linearGradient><linearGradient xlink:href="#application_vnd_flatpak_b" id="application_vnd_flatpak_c" x1="20" x2="108" y1="64" y2="64" gradientUnits="userSpaceOnUse"/><linearGradient id="application_vnd_flatpak_b"><stop offset="0" style="stop-color:#276cb6;stop-opacity:1"/><stop offset=".05" style="stop-color:#79abe2;stop-opacity:1"/><stop offset=".09" style="stop-color:#3a85d5;stop-opacity:1"/><stop offset=".91" style="stop-color:#3a85d5;stop-opacity:1"/><stop offset=".95" style="stop-color:#79abe2;stop-opacity:1"/><stop offset="1" style="stop-color:#276ab5;stop-opacity:1"/></linearGradient></defs><path d="M27.996 8A7.98 7.98 0 0 0 20 16v96c0 4.434 3.565 8 7.996 8h71.965c4.431 0 8.039-3.59 8.039-8.023V15.922C108 11.488 104.392 8 99.961 8l-21.985.004L77.972 8Z" style="fill:url(#application_vnd_flatpak_c);fill-opacity:1;stroke:none;stroke-width:.999756"/><path fill="#cdab8f" d="M25.543 16h76.914c4.72 0 8.543 3.17 8.543 7.078v31.844c0 3.909-3.824 7.078-8.543 7.078H25.543C20.823 62 17 58.83 17 54.922V23.078C17 19.17 20.824 16 25.543 16m0 0" style="fill:url(#application_vnd_flatpak_d);fill-opacity:1;stroke-width:.995887"/><path fill="#cdab8f" d="M25.543 8h76.914c4.72 0 8.543 3.17 8.543 7.078v31.844c0 3.909-3.824 7.078-8.543 7.078H25.543C20.823 54 17 50.83 17 46.922V15.078C17 11.17 20.824 8 25.543 8m0 0" style="fill:#79ace3;fill-opacity:1;stroke-width:.995887"/><path d="M64 68a6.43 6.43 0 0 0-3.22.864l-15.206 8.78a6.43 6.43 0 0 0-3.22 5.576v17.56a6.43 6.43 0 0 0 3.22 5.576l15.206 8.78a6.43 6.43 0 0 0 6.44 0l15.206-8.78a6.43 6.43 0 0 0 3.22-5.577V83.22a6.43 6.43 0 0 0-3.22-5.577l-15.206-8.78A6.44 6.44 0 0 0 64 68m0 4.716c.299 0 .597.077.863.23l15.206 8.78c.662.425.624.62.624.62l-16.746 9.672v19.258a1.7 1.7 0 0 1-.81-.223l-15.206-8.78a1.73 1.73 0 0 1-.863-1.494V83.22c0-.292.08-.573.216-.823l16.663 9.621V72.716Z" style="opacity:1;mix-blend-mode:normal;fill:#fff;fill-opacity:1;fill-rule:nonzero;stroke:none;stroke-width:.14733px;stroke-linecap:butt;stroke-linejoin:miter;stroke-opacity:1"/><path d="M60 21v4h4v-2h4v-2h-4zm4 4v2h-4v4h4v-2h4v-4zm0 6v2h-4v4h4v-2h4v-4zm0 6v2h-4v4h4v-2h4v-4zm0 6v2h-4v4h4v-2h4v-4zm0 6v2h-4v4h4v-2h4v-4zm0 6v2h-4v4h4v-2h4v-4zm0 6v1h4v-1z" style="fill:#fff;fill-opacity:1;stroke:none;stroke-width:.125;stroke-linecap:butt;stroke-linejoin:miter;stroke-miterlimit:4;stroke-dasharray:none;stroke-dashoffset:0;stroke-opacity:1;marker:none;paint-order:normal"/><path d="M60 12c-2.216 0-4 1.784-4 4v10c0 2.216 1.784 4 4 4v8c0 1.108.892 2 2 2h4c1.108 0 2-.892 2-2v-8c2.216 0 4-1.784 4-4V16c0-2.216-1.784-4-4-4zm2 22h4v4h-4z" style="display:inline;opacity:.1;fill:#000;fill-opacity:1;stroke:none;stroke-width:.5;stroke-linecap:round;stroke-linejoin:round;stroke-miterlimit:4;stroke-dasharray:none;stroke-dashoffset:0;stroke-opacity:1"/><path d="M60 23v4h4v-2h4v-2h-4zm4 4v2h-4v4h4v-2h4v-4zm0 6v2h-4v4h4v-2h4v-4zm0 6v2h-4v4h4v-2h4v-4zm0 6v2h-4v4h4v-2h4v-4zm0 6v2h-4v4h4v-2h4v-4zm0 6v2h-4v3h4v-1h4v-4z" style="fill:#2a76c6;fill-opacity:1;stroke:none;stroke-width:.125;stroke-linecap:butt;stroke-linejoin:miter;stroke-miterlimit:4;stroke-dasharray:none;stroke-dashoffset:0;stroke-opacity:1;marker:none;paint-order:normal"/><path d="M62 18c-1.108 0-2 .892-2 2v16c0 1.108.892 2 2 2h4c1.108 0 2-.892 2-2V20c0-1.108-.892-2-2-2zm0 14h4v4h-4z" style="vector-effect:none;fill:#215d9c;fill-opacity:1;stroke:none;stroke-width:.5;stroke-linecap:round;stroke-linejoin:round;stroke-miterlimit:4;stroke-dasharray:none;stroke-dashoffset:0;stroke-opacity:1"/><rect width="16" height="18" x="56" y="10" rx="2.503" ry="2.503" style="display:inline;vector-effect:none;fill:#215d9c;fill-opacity:1;stroke:none;stroke-width:.5;stroke-linecap:round;stroke-linejoin:round;stroke-miterlimit:4;stroke-dasharray:none;stroke-dashoffset:0;stroke-opacity:1"/><rect width="16" height="18" x="56" y="8" rx="2.945" ry="2.945" style="display:inline;vector-effect:none;fill:#2a76c6;fill-opacity:1;stroke:none;stroke-width:2;stroke-linecap:butt;stroke-linejoin:round;stroke-miterlimit:4;stroke-dasharray:none;stroke-dashoffset:0;stroke-opacity:1"/><path d="M62 14c-1.108 0-2 .892-2 2v18c0 1.108.892 2 2 2h4c1.108 0 2-.892 2-2V16c0-1.108-.892-2-2-2zm0 16h4v4h-4z" style="fill:#fff;fill-opacity:1;stroke:none;stroke-width:.5;stroke-linecap:round;stroke-linejoin:round;stroke-miterlimit:4;stroke-dasharray:none;stroke-dashoffset:0;stroke-opacity:1"/><rect width="4" height="10" x="62" y="-20" rx="2" ry="2" style="display:inline;fill:#215d9c;fill-opacity:1;stroke:none;stroke-width:.125;stroke-linecap:butt;stroke-linejoin:miter;stroke-miterlimit:4;stroke-dasharray:none;stroke-dashoffset:0;stroke-opacity:1;marker:none;paint-order:normal" transform="scale(1 -1)"/><rect width="4" height="8" x="62" y="-18" rx="2" ry="2" style="display:inline;fill:#2a76c6;fill-opacity:1;stroke:none;stroke-width:.125;stroke-linecap:butt;stroke-linejoin:miter;stroke-miterlimit:4;stroke-dasharray:none;stroke-dashoffset:0;stroke-opacity:1;marker:none;paint-order:normal" transform="scale(1 -1)"/><path d="M60 54h8v8h-8z" style="fill:#0b0705;fill-opacity:.2;stroke:none"/></svg>