<svg xmlns="http://www.w3.org/2000/svg" width="128" height="128" viewBox="0 0 128 128"><path d="M27.978 8h50l30.043 29.918.001 74.06c0 4.432-3.612 8.022-8.044 8.022h-72c-4.432 0-8-3.568-8-8V16c0-4.432 3.568-8 8-8" style="display:inline;fill:#eb7b04;fill-opacity:1;stroke:none;stroke-width:.125;stroke-linejoin:round;stroke-miterlimit:4;stroke-dasharray:none;stroke-opacity:1"/><path d="M77.978 8v22c0 4.432 3.61 7.923 8.043 7.923l22-.005z" style="display:inline;vector-effect:none;fill:#000;fill-opacity:.200017;stroke:none;stroke-width:.125;stroke-linecap:butt;stroke-linejoin:round;stroke-miterlimit:4;stroke-dasharray:none;stroke-dashoffset:0;stroke-opacity:1"/><path d="M76.29 66.322a2.56 2.56 0 0 0-1.81.75 2.56 2.56 0 0 0 0 3.622l12.278 12.278-12.278 12.28a2.56 2.56 0 0 0 0 3.62 2.56 2.56 0 0 0 3.62 0l15.9-15.9-15.9-15.9a2.56 2.56 0 0 0-1.81-.75m-24.58 0a2.56 2.56 0 0 0-1.81.75L34 82.972l15.9 15.9a2.56 2.56 0 0 0 3.62 0 2.56 2.56 0 0 0 0-3.62l-12.278-12.28L53.52 70.694a2.56 2.56 0 0 0 0-3.622 2.56 2.56 0 0 0-1.81-.75m17.901-4.293a2.56 2.56 0 0 0-3.135 1.81l-9.897 36.94a2.56 2.56 0 0 0 1.81 3.136 2.56 2.56 0 0 0 3.135-1.81l9.9-36.941a2.56 2.56 0 0 0-1.813-3.135" style="color:#000;fill:#fff;stroke:none;stroke-width:5.12075;stroke-linecap:round;-inkscape-stroke:none"/></svg>