<svg xmlns="http://www.w3.org/2000/svg" xmlns:xlink="http://www.w3.org/1999/xlink" width="128" height="128" viewBox="0 0 128 128"><defs><linearGradient xlink:href="#application_pkix_cert_a" id="application_pkix_cert_c" x1="56" x2="56" y1="230" y2="254" gradientUnits="userSpaceOnUse"/><linearGradient id="application_pkix_cert_a"><stop offset="0" style="stop-color:#113e74;stop-opacity:1"/><stop offset=".161" style="stop-color:#1a5fb4;stop-opacity:1"/><stop offset=".271" style="stop-color:#76aaeb;stop-opacity:1"/><stop offset=".396" style="stop-color:#154a8d;stop-opacity:1"/><stop offset="1" style="stop-color:#1a5fb4;stop-opacity:1"/></linearGradient><linearGradient id="application_pkix_cert_b"><stop offset="0" style="stop-color:#f58b8f;stop-opacity:1"/><stop offset="1" style="stop-color:#ed333b;stop-opacity:1"/></linearGradient><radialGradient xlink:href="#application_pkix_cert_b" id="application_pkix_cert_d" cx="32.041" cy="21.086" r="25.203" fx="32.041" fy="21.086" gradientTransform="matrix(1.36607 0 0 .99257 -11.73 .238)" gradientUnits="userSpaceOnUse"/></defs><g style="display:inline"><path d="M124.828 857.328h200L445 977l.005 296.24c0 17.728-14.449 32.088-32.177 32.088h-288c-17.728 0-32-14.272-32-32v-384c0-17.728 14.272-32 32-32" style="display:inline;fill:#d3e3f9;fill-opacity:1;stroke:none;stroke-width:.5;stroke-linejoin:round;stroke-miterlimit:4;stroke-dasharray:none;stroke-opacity:1" transform="matrix(.25 0 0 .25 -3.23 -206.332)"/><path d="M324.828 857.328v88c0 17.728 14.443 31.694 32.17 31.694L445 977Z" style="display:inline;vector-effect:none;fill:#99c1f1;fill-opacity:1;stroke:none;stroke-width:.5;stroke-linecap:butt;stroke-linejoin:round;stroke-miterlimit:4;stroke-dasharray:none;stroke-dashoffset:0;stroke-opacity:1" transform="matrix(.25 0 0 .25 -3.23 -206.332)"/></g><g style="display:inline;fill:#1a5fb4;stroke:#1c71d8;stroke-width:.962543"><path stroke="none" d="M85.809 230v12.617h2.382V230ZM87 230v12.617M79.62 230v12.617h4.76V230Zm2.38 0v12.617M75.809 230v12.617h2.382V230ZM77 230v12.617M71.809 230v12.617h2.382V230ZM73 230v12.617M67.809 230v12.617h2.382V230ZM69 230v12.617M59.428 230v12.617h7.144V230ZM63 230v12.617M49.809 230v12.617h2.382V230ZM51 230v12.617M53.62 230v12.617h4.76V230Zm2.38 0v12.617M43.62 230v12.617h4.76V230Zm2.38 0v12.617M39.809 230v12.617h2.382V230ZM41 230v12.617M35.809 230v12.617h2.382V230ZM37 230v12.617M29.62 230v12.617h4.76V230Zm2.38 0v12.617M25.809 230v12.617h2.382V230ZM27 230v12.617" style="color:#000;fill:#1a5fb4;fill-rule:evenodd;stroke:none;stroke-width:.962543;-inkscape-stroke:none" transform="matrix(.97182 0 0 1.11065 8.606 -175.45)"/></g><g style="display:inline;fill:#99c1f1;stroke-width:1.27273"><path d="m22.216 254 1.197 5.068-3.9-3.279-1.453 2.592 5.01 1.658-5.044 1.59 1.434 2.64 3.955-3.304-1.2 5.035h3.411l-1.102-4.959 3.834 3.314 1.477-2.619-4.979-1.685 5.118-1.426-1.453-2.62-4.034 3.085 1.137-5.09Zm16 0 1.197 5.068-3.9-3.279-1.453 2.592 5.01 1.658-5.044 1.59 1.434 2.64 3.955-3.304-1.2 5.035h3.411l-1.102-4.959 3.834 3.314 1.477-2.619-4.979-1.685 5.118-1.426-1.453-2.62-4.034 3.085 1.137-5.09Zm16 0 1.197 5.068-3.9-3.279-1.453 2.592 5.01 1.658-5.044 1.59 1.434 2.64 3.955-3.304-1.2 5.035h3.411l-1.102-4.959 3.834 3.314 1.477-2.619-4.979-1.685 5.118-1.426-1.453-2.62-4.034 3.085 1.137-5.09Zm16 0 1.197 5.068-3.9-3.279-1.453 2.592 5.01 1.658-5.044 1.59 1.434 2.64 3.955-3.304-1.2 5.035h3.411l-1.102-4.959 3.834 3.314 1.477-2.619-4.979-1.685 5.118-1.426-1.453-2.62-4.034 3.085 1.137-5.09Zm16 0 1.197 5.068-3.9-3.279-1.453 2.592 5.01 1.658-5.044 1.59 1.434 2.64 3.955-3.304-1.2 5.035h3.411l-1.102-4.959 3.834 3.314 1.477-2.619-4.979-1.685 5.118-1.426-1.453-2.62-4.034 3.085 1.137-5.09Z" style="font-style:normal;font-variant:normal;font-weight:800;font-stretch:normal;font-size:medium;line-height:1000%;font-family:Cantarell;-inkscape-font-specification:&quot;Cantarell Ultra-Bold&quot;;letter-spacing:2px;word-spacing:0;fill:#99c1f1;fill-opacity:1;stroke:none;stroke-width:.942799px;stroke-linecap:butt;stroke-linejoin:miter;stroke-opacity:1" transform="translate(20 -101.044)scale(.78571)"/></g><g style="display:inline" transform="translate(-2.022 -178)"><path d="M40 212h16v20a4 4 45 0 0 4 4 4 4 45 0 1 4 4v14.155l-8-6-8 6V240a4 4 45 0 0-4-4 4 4 45 0 1-4-4z" style="fill:url(#application_pkix_cert_c);fill-opacity:1;stroke-width:2;stroke-linecap:round;stroke-linejoin:round;paint-order:markers stroke fill;stop-color:#000"/><path d="M50.415 49.472c-1.972 2.019-5.398 1.266-7.878 2.613-2.288 1.243-3.342 4.436-5.909 4.874-2.781.475-5.111-2.148-7.909-2.516-2.582-.34-5.31 1.624-7.645.47-2.53-1.251-2.873-4.743-4.92-6.685-1.889-1.792-5.251-1.807-6.461-4.114-1.311-2.498.463-5.524-.051-8.299-.475-2.56-3.186-4.55-2.81-7.126.408-2.792 3.623-4.197 4.837-6.744 1.121-2.351.097-5.554 1.916-7.417 1.972-2.019 5.398-1.266 7.878-2.613 2.288-1.243 3.342-4.436 5.909-4.874 2.781-.475 5.111 2.148 7.909 2.516 2.582.34 5.31-1.624 7.645-.47 2.53 1.251 2.873 4.743 4.92 6.685 1.889 1.792 5.251 1.807 6.461 4.114 1.311 2.498-.463 5.524.051 8.299.475 2.56 3.186 4.55 2.81 7.126-.408 2.792-3.623 4.197-4.837 6.744-1.121 2.351-.097 5.554-1.916 7.417" style="fill:url(#application_pkix_cert_d);fill-opacity:1;stroke:none;stroke-width:2.64844;stroke-linecap:round;stroke-linejoin:round;paint-order:markers stroke fill;stop-color:#000" transform="translate(23.804 188.016)scale(.75516)"/><rect width="28" height="28" x="34" y="199.293" rx="20" ry="20" style="fill:#a9141b;fill-opacity:1;stroke:none;stroke-width:2;stroke-linecap:round;stroke-linejoin:round;paint-order:markers stroke fill;stop-color:#000"/><rect width="28" height="28" x="34" y="198" rx="20" ry="20" style="fill:#e01b24;fill-opacity:1;stroke:none;stroke-width:2;stroke-linecap:round;stroke-linejoin:round;paint-order:markers stroke fill;stop-color:#000"/></g></svg>