<svg xmlns="http://www.w3.org/2000/svg" width="128" height="128" viewBox="0 0 128 128"><defs><linearGradient id="application_x_xopp_a" x1="156.012" x2="153.584" y1="227.933" y2="228.014" gradientTransform="matrix(1.7465 .86387 -.332 .6989 -100.537 -239.128)" gradientUnits="userSpaceOnUse"><stop offset="0" stop-color="#e5a50a"/><stop offset="1" stop-color="#f6d32d"/></linearGradient></defs><path d="M27.978 8h50l30.043 29.918v74.06c0 4.432-3.611 8.022-8.043 8.022h-72c-4.432 0-8-3.568-8-8V16c0-4.432 3.568-8 8-8" style="display:inline;fill:#f6f5f4;fill-opacity:1;stroke:none;stroke-width:.125;stroke-linejoin:round;stroke-miterlimit:4;stroke-dasharray:none;stroke-opacity:1"/><path d="M77.978 8v22c0 4.432 3.61 7.923 8.042 7.923l22-.005z" style="display:inline;vector-effect:none;fill:#deddda;fill-opacity:1;stroke:none;stroke-width:.125;stroke-linecap:butt;stroke-linejoin:round;stroke-miterlimit:4;stroke-dasharray:none;stroke-dashoffset:0;stroke-opacity:1"/><path fill="#3d3846" d="M65.757 67.042c-2.686 0-3.89 1.018-7.502 6.67l-5.096 8.06-2.41-8.245c-1.483-5.187-3.52-6.485-5.927-6.485-2.687 0-5.93 2.315-10.1 7.04-.463.371.371 1.206.743.743 2.5-2.595 4.63-3.799 6.205-3.799 1.297 0 3.152.646 4.632 5.557l3.15 10.563-6.485 9.634c-1.48 2.13-2.872 2.779-4.076 2.779-1.852 0-2.037-1.853-4.17-1.853-1.48 0-2.5.926-2.686 2.224-.369 2.5 2.224 4.63 4.633 4.63 2.78 0 3.984-1.112 7.505-6.762l5.742-9.077 2.967 10.003c1.389 4.819 3.15 5.836 5.556 5.836 2.686 0 5.93-2.406 10.097-7.04.466-.462-.277-1.203-.74-.834-2.5 2.595-4.538 3.799-6.113 3.799-1.39 0-3.058-.372-4.356-4.725l-3.704-12.507 5.836-8.523c1.483-2.037 2.872-2.778 4.076-2.778 1.852 0 2.038 1.852 4.17 1.852 1.48 0 2.5-.926 2.686-2.223.37-2.41-2.223-4.539-4.633-4.539m0 0" style="stroke-width:.999997"/><g fill-rule="evenodd" style="stroke-width:1.45107"><path fill="#77767b" d="M80.324 92.418c-.617 1.309-1.797 2.023-2.633 1.594-.84-.43-1.015-1.84-.402-3.153.617-1.308 1.797-2.023 2.633-1.593.84.43 1.02 1.84.402 3.152m0 0" style="stroke-width:1.45107" transform="translate(13.608 33.971)scale(.68915)"/><path fill="url(#application_x_xopp_a)" d="M77.477 90.914c-1.61-.785.253-9.11-.082-14.453l13.156 6.777c-4.32 3.04-8.774 9.957-10.227 9.18" style="fill:url(#application_x_xopp_a);stroke-width:1.45107" transform="translate(13.608 33.971)scale(.68915)"/><path fill="#ffbe6f" d="M110.348 15.094c-1.79-.918-3.703-.656-4.29.586l-17.28 36.695L78.48 74.242l-1.054 2.246-.04 3.66 8.544 4.387 4.633-1.305 1.054-2.246 10.297-21.867 17.281-36.695c.586-1.242-.386-2.985-2.175-3.902zm0 0" style="stroke-width:1.45107" transform="translate(13.608 33.971)scale(.68915)"/><path fill="#ff7800" d="M111.633 15.781 93.305 54.7 83.008 76.566l-2.453 5.211 4.254 2.184 3.632-1.82 2.121 1.09 1.055-2.247 10.297-21.867 17.281-36.695c.586-1.242-.074-2.73-1.25-3.332zm0 0" style="stroke-width:1.45107" transform="translate(13.608 33.971)scale(.68915)"/><path fill="#e66100" d="m86.941 78.582-2.457 5.211 3.29 1.687 2.788-2.25 1.055-2.246 27.578-58.562c.758-1.61.457-2.55-2.226-3.93l-1.364-.699" style="stroke-width:1.45107" transform="translate(13.608 33.971)scale(.68915)"/><path fill="#3d3846" d="M110.348 15.094c-1.79-.918-3.703-.656-4.29.586l13.137 6.742c1.043-1.95-.386-2.985-2.175-3.902zm0 0" style="stroke-width:1.45107" transform="translate(13.608 33.971)scale(.68915)"/></g></svg>