<svg xmlns="http://www.w3.org/2000/svg" xml:space="preserve" width="128" height="128" viewBox="0 0 128 128"><path d="M27.979 8c-4.432 0-8 3.568-8 8v96c0 4.432 3.568 8 8 8h72c4.432 0 8.043-3.59 8.042-8.021V37.918L77.98 8h-3.84v.477c0 5.601-4.54 10.142-10.141 10.142-5.602 0-10.14-4.542-10.14-10.142V8z" style="display:inline;fill:#654ff0;fill-opacity:1;stroke:none;stroke-width:.125;stroke-linejoin:round;stroke-miterlimit:4;stroke-dasharray:none;stroke-opacity:1"/><path d="M77.978 8v22c0 4.432 3.61 7.923 8.043 7.923l22-.005z" style="display:inline;vector-effect:none;fill:#fff;fill-opacity:.30000001;stroke:none;stroke-width:.125;stroke-linecap:butt;stroke-linejoin:round;stroke-miterlimit:4;stroke-dasharray:none;stroke-dashoffset:0;stroke-opacity:1"/><path fill="#fff" d="M40 72.68h5.862l4.002 21.315h.073l4.81-21.315h5.483l4.345 21.576h.085l4.562-21.576h5.75L67.5 104h-5.817l-4.309-21.315h-.112l-4.612 21.314h-5.926zm41.58 0h9.242L100 104h-6.047l-1.996-6.97H81.429l-1.54 6.97h-5.89zm3.52 7.72-2.557 11.49H90.5L87.564 80.4Z" style="stroke-width:.144533"/></svg>