<svg xmlns="http://www.w3.org/2000/svg" width="128" height="128" viewBox="0 0 128 128"><path d="M28.068 8.28h49.875l29.968 29.843.001 73.875c0 4.42-3.603 8.002-8.024 8.002h-71.82a7.963 7.963 0 0 1-7.98-7.98V16.26a7.96 7.96 0 0 1 7.98-7.98" style="font-variation-settings:normal;display:inline;vector-effect:none;fill:#478cbf;fill-opacity:1;stroke:none;stroke-width:6.50045;stroke-linecap:butt;stroke-linejoin:miter;stroke-miterlimit:4;stroke-dasharray:none;stroke-dashoffset:0;stroke-opacity:1;marker:none;marker-start:none;marker-mid:none;marker-end:none;paint-order:normal;stop-color:#000"/><path d="M77.943 8v21.945c0 4.421 3.602 7.904 8.023 7.904l21.945-.006z" style="font-variation-settings:normal;display:inline;vector-effect:none;fill:#fff;fill-opacity:.30000001;stroke:none;stroke-width:6.50045;stroke-linecap:butt;stroke-linejoin:miter;stroke-miterlimit:4;stroke-dasharray:none;stroke-dashoffset:0;stroke-opacity:1;marker:none;marker-start:none;marker-mid:none;marker-end:none;paint-order:normal;stop-color:#000"/><path d="M-1778.385-1097.562c-42.392 9.424-84.327 22.544-123.642 42.333.899 34.716 3.141 67.98 7.691 101.768-15.268 9.782-31.315 18.178-45.576 29.629-14.49 11.147-29.288 21.812-42.408 34.85-26.212-17.338-53.957-33.63-82.537-48.012-30.808 33.155-59.612 68.942-83.143 108.986 17.704 28.639 36.185 55.482 56.14 80.957h.56v245.765c.449.005.898.022 1.343.063l150.67 14.528a16.22 16.22 0 0 1 14.627 15.023l4.646 66.51 131.43 9.379 9.055-61.387a16.22 16.22 0 0 1 16.05-13.857h158.961a16.22 16.22 0 0 1 16.047 13.857l9.055 61.387 131.434-9.38 4.642-66.509a16.23 16.23 0 0 1 14.627-15.023l150.611-14.528c.446-.041.89-.058 1.34-.062v-19.61l.062-.021v-226.135h.557c19.96-25.475 38.43-52.318 56.142-80.957-23.522-40.044-52.345-75.831-83.152-108.986-28.572 14.382-56.325 30.674-82.537 48.012-13.116-13.038-27.89-23.703-42.4-34.85-14.257-11.451-30.326-19.847-45.565-29.629 4.537-33.788 6.783-67.052 7.686-101.768-39.32-19.789-81.252-32.91-123.664-42.333-16.934 28.46-32.418 59.279-45.905 89.408-15.992-2.673-32.06-3.662-48.148-3.854v-.025c-.112 0-.217.025-.313.025-.1 0-.204-.025-.304-.025v.025c-16.118.192-32.173 1.181-48.17 3.854-13.479-30.13-28.954-60.949-45.912-89.409zm-119.199 359.523c50.151 0 90.799 40.62 90.799 90.754 0 50.167-40.648 90.806-90.799 90.806-50.126 0-90.787-40.639-90.787-90.806 0-50.135 40.661-90.754 90.787-90.754m427.178 0c50.122 0 90.779 40.62 90.779 90.754 0 50.168-40.657 90.806-90.78 90.806-50.159 0-90.806-40.638-90.806-90.806 0-50.135 40.647-90.754 90.807-90.754m-213.6 53.11c16.143 0 29.254 11.907 29.254 26.56v83.59c0 14.665-13.111 26.562-29.254 26.562-16.142 0-29.226-11.897-29.226-26.562v-83.59c0-14.653 13.084-26.56 29.226-26.56" style="fill:#fff;fill-opacity:1;fill-rule:nonzero;stroke:none;stroke-width:1.33333" transform="translate(179.458 119.249)scale(.06856)"/><path d="m-1411.929-455.714-4.666 66.864c-.562 8.059-6.972 14.473-15.031 15.052l-160.49 11.451q-.586.043-1.17.042c-7.975 0-14.856-5.853-16.034-13.862l-9.203-62.414h-130.952l-9.203 62.414c-1.237 8.4-8.746 14.44-17.204 13.82l-160.49-11.451c-8.059-.579-14.469-6.993-15.031-15.052l-4.666-66.864-135.48-13.062c.061 14.56.249 30.511.249 33.688 0 143.085 181.51 211.86 407.024 212.65h.554c225.514-.79 406.962-69.565 406.962-212.65 0-3.235.195-19.12.262-33.688z" style="fill:#fff;fill-opacity:1;fill-rule:nonzero;stroke:none;stroke-width:1.33333" transform="translate(179.458 119.249)scale(.06856)"/><path d="M-1828.633-641.9c0 33.276-26.97 60.245-60.27 60.245-33.285 0-60.271-26.97-60.271-60.245 0-33.276 26.986-60.27 60.27-60.27 33.301 0 60.27 26.994 60.27 60.27m289.274 0c0 33.276 26.962 60.245 60.238 60.245 33.309 0 60.27-26.97 60.27-60.245 0-33.276-26.961-60.27-60.27-60.27-33.276 0-60.237 26.994-60.237 60.27" style="fill:#fff;fill-opacity:.5;fill-rule:nonzero;stroke:none;stroke-width:1.33333" transform="translate(179.458 119.249)scale(.06856)"/></svg>