<svg xmlns="http://www.w3.org/2000/svg" xmlns:xlink="http://www.w3.org/1999/xlink" width="128" height="128" viewBox="0 0 128 128"><defs><linearGradient xlink:href="#application_pgp_encrypted_a" id="application_pgp_encrypted_f" x1="58" x2="88" y1="202" y2="202" gradientTransform="translate(196.672 -132.244)" gradientUnits="userSpaceOnUse"/><linearGradient id="application_pgp_encrypted_a"><stop offset="0" style="stop-color:#77767b;stop-opacity:1"/><stop offset=".733" style="stop-color:#9a9996;stop-opacity:1"/><stop offset=".833" style="stop-color:#f6f5f4;stop-opacity:1"/><stop offset=".933" style="stop-color:#adacaa;stop-opacity:1"/><stop offset="1" style="stop-color:#77767b;stop-opacity:1"/></linearGradient><linearGradient id="application_pgp_encrypted_d"><stop offset="0" style="stop-color:#c0bfbc;stop-opacity:1"/><stop offset=".874" style="stop-color:#deddda;stop-opacity:1"/><stop offset=".917" style="stop-color:#b1b0ad;stop-opacity:1"/><stop offset="1" style="stop-color:#77767b;stop-opacity:1"/></linearGradient><linearGradient xlink:href="#application_pgp_encrypted_b" id="application_pgp_encrypted_h" x1="-131.247" x2="-147.811" y1="188.451" y2="250.271" gradientUnits="userSpaceOnUse"/><linearGradient id="application_pgp_encrypted_b"><stop offset="0" style="stop-color:#241f31;stop-opacity:1"/><stop offset="1" style="stop-color:#3d3846;stop-opacity:1"/></linearGradient><linearGradient xlink:href="#application_pgp_encrypted_c" id="application_pgp_encrypted_j" x1="175.59" x2="175.59" y1="822.553" y2="881.22" gradientTransform="translate(208.784 -124.577)scale(.27273)" gradientUnits="userSpaceOnUse"/><linearGradient id="application_pgp_encrypted_c" x1="147.31" x2="185.85" y1="830.88" y2="869.42" gradientTransform="translate(351.45 336.28)" gradientUnits="userSpaceOnUse"><stop offset="0" style="stop-color:#f2f2f2;stop-opacity:1"/><stop offset="1" style="stop-color:gray;stop-opacity:.8"/></linearGradient><radialGradient xlink:href="#application_pgp_encrypted_d" id="application_pgp_encrypted_g" cx="-85.993" cy="248.083" r="46" fx="-85.993" fy="248.083" gradientTransform="translate(346.404 -151.114)scale(1.04348)" gradientUnits="userSpaceOnUse"/><radialGradient xlink:href="#application_pgp_encrypted_a" id="application_pgp_encrypted_k" cx="64" cy="210.775" r="36" fx="64" fy="210.775" gradientTransform="matrix(.76735 .00554 -.00541 .75 208.702 -95.678)" gradientUnits="userSpaceOnUse"/><filter id="application_pgp_encrypted_i" width="1.12" height="1.12" x="-.06" y="-.06" style="color-interpolation-filters:sRGB"><feGaussianBlur stdDeviation="1.2"/></filter></defs><g style="display:inline;enable-background:new"><path d="M124.828 857.328h200L445 977l.005 296.24c0 17.728-14.449 32.088-32.177 32.088h-288c-17.728 0-32-14.272-32-32v-384c0-17.728 14.272-32 32-32" style="display:inline;fill:#62a0ea;fill-opacity:1;stroke:none;stroke-width:.5;stroke-linejoin:round;stroke-miterlimit:4;stroke-dasharray:none;stroke-opacity:1;enable-background:new" transform="matrix(.25 0 0 .25 -3.23 -206.475)"/><path d="M324.828 857.328v88c0 17.728 14.443 31.694 32.17 31.694L445 977Z" style="display:inline;vector-effect:none;fill:#99c1f1;fill-opacity:1;stroke:none;stroke-width:.5;stroke-linecap:butt;stroke-linejoin:round;stroke-miterlimit:4;stroke-dasharray:none;stroke-dashoffset:0;stroke-opacity:1;enable-background:new" transform="matrix(.25 0 0 .25 -3.23 -206.475)"/></g><g style="display:inline;fill:#1a5fb4;stroke:#1c71d8;stroke-width:.962543;enable-background:new"><path stroke="none" d="M105.809 230v12.617h2.382V230Zm1.191 0v12.617M101.809 230v12.617h2.382V230Zm1.191 0v12.617M89.428 230v12.617h7.144V230ZM93 230v12.617M97.809 230v12.617h2.382V230ZM99 230v12.617M85.809 230v12.617h2.382V230ZM87 230v12.617M79.62 230v12.617h4.76V230Zm2.38 0v12.617M75.809 230v12.617h2.382V230ZM77 230v12.617M71.809 230v12.617h2.382V230ZM73 230v12.617M67.809 230v12.617h2.382V230ZM69 230v12.617M59.428 230v12.617h7.144V230ZM63 230v12.617M49.809 230v12.617h2.382V230ZM51 230v12.617M53.62 230v12.617h4.76V230Zm2.38 0v12.617M43.62 230v12.617h4.76V230Zm2.38 0v12.617M39.809 230v12.617h2.382V230ZM41 230v12.617M35.809 230v12.617h2.382V230ZM37 230v12.617M29.62 230v12.617h4.76V230Zm2.38 0v12.617M25.809 230v12.617h2.382V230ZM27 230v12.617" style="color:#000;fill:#1c71d8;fill-rule:evenodd;stroke:none;stroke-width:.962543;-inkscape-stroke:none" transform="matrix(.97182 0 0 1.11065 -1.164 -169.592)"/></g><g style="display:inline;fill:#99c1f1;stroke-width:1.27273;enable-background:new"><path d="m22.216 254 1.197 5.068-3.9-3.279-1.453 2.592 5.01 1.658-5.044 1.59 1.434 2.64 3.955-3.304-1.2 5.035h3.411l-1.102-4.959 3.834 3.314 1.477-2.619-4.979-1.685 5.118-1.426-1.453-2.62-4.034 3.085 1.137-5.09Zm16 0 1.197 5.068-3.9-3.279-1.453 2.592 5.01 1.658-5.044 1.59 1.434 2.64 3.955-3.304-1.2 5.035h3.411l-1.102-4.959 3.834 3.314 1.477-2.619-4.979-1.685 5.118-1.426-1.453-2.62-4.034 3.085 1.137-5.09Zm16 0 1.197 5.068-3.9-3.279-1.453 2.592 5.01 1.658-5.044 1.59 1.434 2.64 3.955-3.304-1.2 5.035h3.411l-1.102-4.959 3.834 3.314 1.477-2.619-4.979-1.685 5.118-1.426-1.453-2.62-4.034 3.085 1.137-5.09Zm16 0 1.197 5.068-3.9-3.279-1.453 2.592 5.01 1.658-5.044 1.59 1.434 2.64 3.955-3.304-1.2 5.035h3.411l-1.102-4.959 3.834 3.314 1.477-2.619-4.979-1.685 5.118-1.426-1.453-2.62-4.034 3.085 1.137-5.09Zm16 0 1.197 5.068-3.9-3.279-1.453 2.592 5.01 1.658-5.044 1.59 1.434 2.64 3.955-3.304-1.2 5.035h3.411l-1.102-4.959 3.834 3.314 1.477-2.619-4.979-1.685 5.118-1.426-1.453-2.62-4.034 3.085 1.137-5.09Zm16 0 1.197 5.068-3.9-3.279-1.453 2.592 5.01 1.658-5.044 1.59 1.434 2.64 3.955-3.304-1.2 5.035h3.411l-1.102-4.959 3.834 3.314 1.477-2.619-4.979-1.685 5.118-1.426-1.453-2.62-4.034 3.085 1.137-5.09Z" style="font-style:normal;font-variant:normal;font-weight:800;font-stretch:normal;font-size:medium;line-height:1000%;font-family:Cantarell;-inkscape-font-specification:&quot;Cantarell Ultra-Bold&quot;;letter-spacing:2px;word-spacing:0;fill:#99c1f1;fill-opacity:1;stroke:none;stroke-width:.942799px;stroke-linecap:butt;stroke-linejoin:miter;stroke-opacity:1" transform="translate(13.692 -95.187)scale(.78571)"/></g><path d="M19.978 62h88v15.857h-88z" style="display:inline;fill:#241f31;fill-opacity:1;stroke:none;stroke-width:.25;stroke-linecap:butt;stroke-linejoin:miter;stroke-miterlimit:4;stroke-dasharray:none;stroke-dashoffset:0;stroke-opacity:1;marker:none;marker-start:none;marker-mid:none;marker-end:none;paint-order:normal;enable-background:new"/><g style="stroke-width:.985499" transform="matrix(.49894 0 0 .49914 -78.198 -2.586)"><use xlink:href="#application_pgp_encrypted_e" width="100%" height="100%" style="display:inline;stroke-width:.985499;enable-background:new" transform="matrix(-1 0 0 1 513.344 0)"/><path id="application_pgp_encrypted_e" d="M276.672 63.756h8v16h-8z" style="display:inline;vector-effect:none;fill:url(#application_pgp_encrypted_f);fill-opacity:1;stroke:none;stroke-width:.985499;stroke-linecap:round;stroke-linejoin:round;stroke-miterlimit:4;stroke-dasharray:none;stroke-dashoffset:0;stroke-opacity:.673228;enable-background:new"/><circle cx="256.672" cy="111.756" r="46" style="display:inline;vector-effect:none;fill:#5e5c64;fill-opacity:1;stroke:none;stroke-width:1.971;stroke-linecap:butt;stroke-linejoin:round;stroke-miterlimit:4;stroke-dasharray:none;stroke-dashoffset:0;stroke-opacity:1;enable-background:new"/><circle cx="256.672" cy="109.756" r="46" style="display:inline;vector-effect:none;fill:url(#application_pgp_encrypted_g);fill-opacity:1;stroke:none;stroke-width:1.971;stroke-linecap:butt;stroke-linejoin:round;stroke-miterlimit:4;stroke-dasharray:none;stroke-dashoffset:0;stroke-opacity:1;enable-background:new"/><circle cx="256.672" cy="109.756" r="42" style="display:inline;vector-effect:none;fill:#f6f5f4;fill-opacity:1;stroke:none;stroke-width:1.971;stroke-linecap:butt;stroke-linejoin:round;stroke-miterlimit:4;stroke-dasharray:none;stroke-dashoffset:0;stroke-opacity:1;enable-background:new"/><circle cx="109.756" cy="-256.672" r="38" style="display:inline;vector-effect:none;fill:#241f31;fill-opacity:1;stroke:none;stroke-width:2.20288;stroke-linecap:butt;stroke-linejoin:round;stroke-miterlimit:4;stroke-dasharray:none;stroke-dashoffset:0;stroke-opacity:1;enable-background:new" transform="rotate(90)"/><g style="display:inline;stroke-width:.985499;enable-background:new" transform="matrix(1 0 0 -1 342.672 359.755)"><circle cx="-147.774" cy="219.223" r="36" style="display:inline;opacity:1;vector-effect:none;fill:url(#application_pgp_encrypted_h);fill-opacity:1;stroke:none;stroke-width:2.3652;stroke-linecap:butt;stroke-linejoin:round;stroke-miterlimit:4;stroke-dasharray:none;stroke-dashoffset:0;stroke-opacity:1;enable-background:new" transform="rotate(-15)"/></g><g style="display:inline;stroke-width:.985499;enable-background:new"><path d="m527.04 1123.5-24 48h48z" style="fill:#1a1a1a;fill-opacity:.4;fill-rule:evenodd;stroke-width:.985499;filter:url(#application_pgp_encrypted_i);enable-background:new" transform="translate(124.946 -192.027)scale(.24993)"/><path d="m64 231-6 12h12z" style="fill:#ed333b;fill-rule:evenodd;stroke:none;stroke-width:.246308px;enable-background:new" transform="translate(192.672 -143.244)"/><path d="M63.998 231.003 58 243h5.998z" style="fill:#fff;fill-opacity:.373444;fill-rule:evenodd;stroke-width:.246308;enable-background:new" transform="translate(192.672 -143.244)"/></g><circle cx="256.672" cy="111.756" r="12" style="display:inline;opacity:.2;fill:#000;stroke-width:0;enable-background:new"/><circle cx="256.672" cy="109.756" r="12" style="display:inline;fill:url(#application_pgp_encrypted_j);stroke-width:0;enable-background:new"/><circle cx="256.672" cy="-108.756" r="11" style="display:inline;fill:#ccc;stroke-width:0;enable-background:new" transform="scale(1 -1)"/><g style="display:inline;stroke:#f6f5f4;stroke-width:.985499;enable-background:new"><path d="M64 216v6m0 56v6m34-34h-6m-56 0h-6m9.958-24.042 4.243 4.243m39.598 39.598 4.243 4.243m0-48.084-4.243 4.243m-39.598 39.598-4.243 4.243" style="fill:none;stroke:#f6f5f4;stroke-width:1.971;stroke-linecap:butt;stroke-linejoin:miter;stroke-miterlimit:4;stroke-dasharray:none;stroke-opacity:1" transform="matrix(1 0 0 -1 192.672 359.756)"/></g><g style="display:inline;opacity:.2;stroke:#fff;stroke-width:.985499;enable-background:new"><path d="m57.367 283.347.78-3.923m11.706-58.848.78-3.923m26.714 39.98-3.923-.78m-58.848-11.706-3.923-.78m5.077 25.523 3.326-2.223m49.888-33.334 3.326-2.222m-9.38 47.159-2.223-3.326m-33.334-49.888-2.222-3.326m5.878 59.682 1.53-3.696m22.961-55.432 1.531-3.696m18.401 44.423-3.696-1.53M36.284 238.52l-3.696-1.531m0 26.022 3.696-1.53m55.432-22.961 3.696-1.531m-18.401 44.423-1.53-3.696M52.52 222.284l-1.531-3.696M45.11 278.27l2.223-3.326m33.334-49.888 2.222-3.326m9.381 47.16-3.326-2.223m-49.888-33.334-3.326-2.222m-5.077 25.522 3.923-.78m58.848-11.706 3.923-.78m-26.714 39.98-.78-3.923m-11.706-58.848-.78-3.923" style="fill:none;stroke:#fff;stroke-width:.985499;stroke-linecap:butt;stroke-linejoin:miter;stroke-miterlimit:4;stroke-dasharray:none;stroke-opacity:1" transform="translate(192.672 -140.244)"/></g><path d="M232.672 63.756a24 24 0 0 1 24-24 24 24 0 0 1 24 24" style="display:inline;fill:none;fill-opacity:1;stroke:url(#application_pgp_encrypted_k);stroke-width:7.88401;stroke-linecap:butt;stroke-linejoin:round;stroke-miterlimit:4;stroke-dasharray:none;stroke-dashoffset:0;stroke-opacity:1;enable-background:new"/></g></svg>