<svg xmlns="http://www.w3.org/2000/svg" xmlns:xlink="http://www.w3.org/1999/xlink" width="128" height="128" viewBox="0 0 128 128"><defs><linearGradient xlink:href="#application_x_rpm_a" id="application_x_rpm_d" x1="17" x2="111" y1="39" y2="39" gradientUnits="userSpaceOnUse"/><linearGradient id="application_x_rpm_a"><stop offset="0" style="stop-color:#e13c40;stop-opacity:1"/><stop offset=".05" style="stop-color:#e97274;stop-opacity:1"/><stop offset=".09" style="stop-color:#e34f51;stop-opacity:1"/><stop offset=".91" style="stop-color:#e34f51;stop-opacity:1"/><stop offset=".95" style="stop-color:#e97274;stop-opacity:1"/><stop offset="1" style="stop-color:#e13d41;stop-opacity:1"/></linearGradient><linearGradient xlink:href="#application_x_rpm_b" id="application_x_rpm_c" x1="20" x2="108" y1="64" y2="64" gradientUnits="userSpaceOnUse"/><linearGradient id="application_x_rpm_b"><stop offset="0" style="stop-color:#be1e20;stop-opacity:1"/><stop offset=".05" style="stop-color:#e97274;stop-opacity:1"/><stop offset=".09" style="stop-color:#d82224;stop-opacity:1"/><stop offset=".91" style="stop-color:#d82224;stop-opacity:1"/><stop offset=".95" style="stop-color:#e97375;stop-opacity:1"/><stop offset="1" style="stop-color:#bd1e20;stop-opacity:1"/></linearGradient></defs><path d="M27.996 8A7.98 7.98 0 0 0 20 16v96c0 4.434 3.565 8 7.996 8h71.965c4.431 0 8.039-3.59 8.039-8.023V15.922C108 11.488 104.392 8 99.961 8l-21.985.004L77.972 8Z" style="fill:url(#application_x_rpm_c);fill-opacity:1;stroke:none;stroke-width:.999756"/><path fill="#cdab8f" d="M25.543 16h76.914c4.72 0 8.543 3.17 8.543 7.078v31.844c0 3.909-3.824 7.078-8.543 7.078H25.543C20.823 62 17 58.83 17 54.922V23.078C17 19.17 20.824 16 25.543 16m0 0" style="fill:url(#application_x_rpm_d);fill-opacity:1;stroke-width:.995887"/><path fill="#cdab8f" d="M25.543 8h76.914c4.72 0 8.543 3.17 8.543 7.078v31.844c0 3.909-3.824 7.078-8.543 7.078H25.543C20.823 54 17 50.83 17 46.922V15.078C17 11.17 20.824 8 25.543 8m0 0" style="fill:#e97375;fill-opacity:1;stroke-width:.995887"/><path d="M73.861 84.914c.44-.612.889-1.217 1.337-1.824 4.103 1.202 8.065 3.1 11.302 5.927 1.323 1.184 2.52 2.525 3.439 4.05 1.088 1.795 1.778 3.851 1.852 5.957l-9.652-1.694c.396-1.26.399-2.63.128-3.916-.503-2.222-1.927-4.129-3.645-5.576a18 18 0 0 0-4.796-2.878z" style="fill:#ac1a1c;fill-opacity:1;stroke-width:.0973446"/><path d="M56.193 81.861a37 37 0 0 1 3.697-.39c.22-.053.447-.042.671-.05a69 69 0 0 1 5.27.025c3.167.224 6.32.75 9.375 1.628l-.013.017c-.448.606-.897 1.21-1.337 1.823-.131.024-.246-.059-.364-.1-2.318-.957-4.786-1.513-7.27-1.813-4.085-.419-8.268-.083-12.187 1.175-2.885.933-5.672 2.372-7.824 4.543-1.526 1.56-2.696 3.576-2.855 5.787-.148 1.053.104 2.104.327 3.127l-9.678 1.707c-.023-1.708.422-3.397 1.131-4.942 1.41-3.008 3.857-5.412 6.582-7.251a30 30 0 0 1 5.904-3.047 39 39 0 0 1 8.572-2.238zm5.802 11.921c.19-.309.523-.555.902-.509.43.011.76.365.848.766L94 99.42l-.101.507-30.245-5.303c-.241.42-.8.636-1.24.389-.305-.134-.409-.46-.546-.734l-1.863-.298.086-.524z" style="opacity:1;fill:#fff;fill-opacity:1;stroke-width:.0973446"/><path d="m47.822 108.471.017-7.53 3.202.006c3.376.006 4.136.055 5.633.36 3.67.748 6.107 2.508 6.585 4.756.485 2.279-1.32 4.36-4.968 5.731-1.313.494-3.093.88-4.508.98l-.607.043-.018 1.21-.018 1.21-.216.039c-.118.021-1.22.176-2.45.343s-2.332.322-2.452.343l-.217.038Zm5.842 2.905c.172-.04.613-.218.98-.394 1.38-.661 2.388-1.6 2.93-2.734.42-.875.45-1.697.1-2.634-.402-1.074-1.549-2.241-2.842-2.893-.425-.215-1.273-.478-1.538-.478h-.151v4.603c0 4.123.01 4.604.104 4.604.057 0 .244-.033.417-.074M34 106.813v-5.904h5.337v.142c0 .125.027.136.217.097 1.253-.257 3.141-.374 3.951-.243.282.045.716.152.966.237.528.18 1.469.586 1.468.635 0 .018-.248.18-.55.361-.301.18-.945.58-1.43.888l-.883.559-.25-.17c-.502-.341-1.04-.47-1.954-.47-.483 0-.982.037-1.184.09l-.35.09v9.592H34zm32.824-.004V100.9l10.455.03c10.61.03 10.932.037 12.285.285 1.013.185 1.61.41 1.926.728l.284.283v10.494h-5.337v-10.328l-.284-.122c-.248-.107-.527-.125-2.235-.146l-1.952-.024v10.62H76.63l-.034-10.357-.267-.103c-.212-.081-.669-.108-2.219-.129l-1.951-.026v10.62H66.82z" style="opacity:1;fill:#fff;fill-opacity:1;stroke-width:.0667099"/><path d="M60 21v4h4v-2h4v-2h-4zm4 4v2h-4v4h4v-2h4v-4zm0 6v2h-4v4h4v-2h4v-4zm0 6v2h-4v4h4v-2h4v-4zm0 6v2h-4v4h4v-2h4v-4zm0 6v2h-4v4h4v-2h4v-4zm0 6v2h-4v4h4v-2h4v-4zm0 6v1h4v-1z" style="fill:#fff;fill-opacity:1;stroke:none;stroke-width:.125;stroke-linecap:butt;stroke-linejoin:miter;stroke-miterlimit:4;stroke-dasharray:none;stroke-dashoffset:0;stroke-opacity:1;marker:none;paint-order:normal"/><path d="M60 12c-2.216 0-4 1.784-4 4v10c0 2.216 1.784 4 4 4v8c0 1.108.892 2 2 2h4c1.108 0 2-.892 2-2v-8c2.216 0 4-1.784 4-4V16c0-2.216-1.784-4-4-4zm2 22h4v4h-4z" style="display:inline;opacity:.1;fill:#000;fill-opacity:1;stroke:none;stroke-width:.5;stroke-linecap:round;stroke-linejoin:round;stroke-miterlimit:4;stroke-dasharray:none;stroke-dashoffset:0;stroke-opacity:1"/><path d="M60 23v4h4v-2h4v-2h-4zm4 4v2h-4v4h4v-2h4v-4zm0 6v2h-4v4h4v-2h4v-4zm0 6v2h-4v4h4v-2h4v-4zm0 6v2h-4v4h4v-2h4v-4zm0 6v2h-4v4h4v-2h4v-4zm0 6v2h-4v3h4v-1h4v-4z" style="fill:#ac1a1c;fill-opacity:1;stroke:none;stroke-width:.125;stroke-linecap:butt;stroke-linejoin:miter;stroke-miterlimit:4;stroke-dasharray:none;stroke-dashoffset:0;stroke-opacity:1;marker:none;paint-order:normal"/><path d="M62 18c-1.108 0-2 .892-2 2v16c0 1.108.892 2 2 2h4c1.108 0 2-.892 2-2V20c0-1.108-.892-2-2-2zm0 14h4v4h-4z" style="vector-effect:none;fill:#540d0e;fill-opacity:1;stroke:none;stroke-width:.5;stroke-linecap:round;stroke-linejoin:round;stroke-miterlimit:4;stroke-dasharray:none;stroke-dashoffset:0;stroke-opacity:1"/><rect width="16" height="18" x="56" y="10" rx="2.503" ry="2.503" style="display:inline;vector-effect:none;fill:#540d0e;fill-opacity:1;stroke:none;stroke-width:.5;stroke-linecap:round;stroke-linejoin:round;stroke-miterlimit:4;stroke-dasharray:none;stroke-dashoffset:0;stroke-opacity:1"/><rect width="16" height="18" x="56" y="8" rx="2.945" ry="2.945" style="display:inline;vector-effect:none;fill:#ac1a1c;fill-opacity:1;stroke:none;stroke-width:2;stroke-linecap:butt;stroke-linejoin:round;stroke-miterlimit:4;stroke-dasharray:none;stroke-dashoffset:0;stroke-opacity:1"/><path d="M62 14c-1.108 0-2 .892-2 2v18c0 1.108.892 2 2 2h4c1.108 0 2-.892 2-2V16c0-1.108-.892-2-2-2zm0 16h4v4h-4z" style="fill:#fff;fill-opacity:1;stroke:none;stroke-width:.5;stroke-linecap:round;stroke-linejoin:round;stroke-miterlimit:4;stroke-dasharray:none;stroke-dashoffset:0;stroke-opacity:1"/><rect width="4" height="10" x="62" y="-20" rx="2" ry="2" style="display:inline;fill:#540d0d;fill-opacity:1;stroke:none;stroke-width:.125;stroke-linecap:butt;stroke-linejoin:miter;stroke-miterlimit:4;stroke-dasharray:none;stroke-dashoffset:0;stroke-opacity:1;marker:none;paint-order:normal" transform="scale(1 -1)"/><rect width="4" height="8" x="62" y="-18" rx="2" ry="2" style="display:inline;fill:#ac1a1c;fill-opacity:1;stroke:none;stroke-width:.125;stroke-linecap:butt;stroke-linejoin:miter;stroke-miterlimit:4;stroke-dasharray:none;stroke-dashoffset:0;stroke-opacity:1;marker:none;paint-order:normal" transform="scale(1 -1)"/><path d="M60 54h8v8h-8z" style="fill:#0b0705;fill-opacity:.2;stroke:none"/></svg>