<svg xmlns="http://www.w3.org/2000/svg" width="128" height="128" viewBox="0 0 128 128"><path d="M27.978 8h50l30.043 29.918.001 74.06c0 4.432-3.612 8.022-8.044 8.022h-72c-4.432 0-8-3.568-8-8V16c0-4.432 3.568-8 8-8" style="display:inline;fill:#666;fill-opacity:1;stroke:none;stroke-width:.125;stroke-linejoin:round;stroke-miterlimit:4;stroke-dasharray:none;stroke-opacity:1"/><path d="M77.978 8v22c0 4.432 3.61 7.923 8.043 7.923l22-.005z" style="display:inline;vector-effect:none;fill:#9a9996;fill-opacity:1;stroke:none;stroke-width:.125;stroke-linecap:butt;stroke-linejoin:round;stroke-miterlimit:4;stroke-dasharray:none;stroke-dashoffset:0;stroke-opacity:1"/><g aria-label="!" style="font-size:91.6272px;font-family:FreeMono;-inkscape-font-specification:FreeMono;fill:#fff;stroke:#fff"><path stroke="none" d="m214.274 145.553-.068.002c-.345.018-.69.127-1.016.273s-.623.313-.849.582c-.531.63-.686 1.313-.741 2.101l-.762 10.956h-6.888c-.763 0-1.462.116-2.11.602-.33.246-.521.59-.687.952s-.288.716-.288 1.083c0 .364.111.73.272 1.1.161.372.355.726.683.982.65.505 1.364.619 2.13.619h6.512l-.661 9.522h-9.076c-.763 0-1.464.116-2.112.602-.329.246-.521.59-.687.952s-.288.714-.288 1.081c0 .364.111.732.272 1.103.161.37.355.726.683.98.65.506 1.365.622 2.132.622h8.693l-.103 1.536-.638 9.104c-.053.76.016 1.468.454 2.148.224.345.554.561.904.752s.692.338 1.058.364c.363.025.739-.059 1.12-.193.382-.135.75-.304 1.028-.614.55-.613.714-1.32.768-2.083l.632-9.105.132-1.91h9.518l-.102 1.537-.635 9.104c-.053.766.013 1.472.451 2.15.223.345.555.56.905.75.35.191.692.338 1.059.364.362.025.737-.059 1.118-.193.381-.135.75-.304 1.027-.614.55-.613.713-1.32.766-2.083l.635-9.105.133-1.91h6.818c.795 0 1.504-.104 2.17-.609.338-.255.532-.614.697-.988.165-.375.283-.74.283-1.107 0-.372-.13-.72-.3-1.085-.17-.366-.358-.714-.697-.962-.665-.485-1.363-.588-2.153-.588h-6.442l.665-9.522h9.006c.794 0 1.502-.105 2.169-.61.337-.255.531-.612.696-.986.166-.374.285-.738.285-1.105 0-.372-.13-.721-.3-1.087-.17-.367-.36-.713-.699-.96-.665-.485-1.36-.59-2.151-.59h-8.63l.74-10.58c.056-.793-.003-1.509-.46-2.21v-.002c-.231-.353-.575-.57-.936-.76s-.718-.334-1.084-.36c-.371-.026-.723.078-1.1.222s-.74.312-1.01.633c-.53.629-.68 1.31-.736 2.101l-.768 10.956h-9.522l.741-10.58c.055-.792 0-1.508-.457-2.21-.23-.354-.576-.571-.938-.762s-.716-.335-1.081-.36h-.008c-.039-.002-.101 0-.159.002zm37.989.784c-1.898 0-3.374 1.463-3.374 3.3 0 .37.071.692.071 1.147v.016l1.294 23.423c.039.73.165 1.32.486 1.778s.867.704 1.449.704c.598 0 1.163-.21 1.505-.666.342-.455.465-1.053.503-1.816v-.002l1.293-23.421v-.016c0-.266.017-.501.034-.69.018-.19.04-.302.04-.457 0-1.837-1.464-3.3-3.301-3.3m-36.447 18.468h9.52l-.66 9.522h-9.528l.6-8.55zm35.944 19.805c-2.4 0-4.307 1.807-4.307 4.092s1.908 4.09 4.307 4.09h.934c2.399 0 4.376-1.794 4.376-4.09 0-2.297-1.977-4.092-4.376-4.092z" style="color:#000;-inkscape-font-specification:FreeMono;stroke:none;-inkscape-stroke:none" transform="translate(-165.525 -91.427)scale(1.00955)"/></g></svg>