<svg xmlns="http://www.w3.org/2000/svg" width="128" height="128" viewBox="0 0 128 128"><path d="M27.978 8h50l30.043 29.918.001 74.06c0 4.432-3.612 8.022-8.044 8.022h-72c-4.432 0-8-3.568-8-8V16c0-4.432 3.568-8 8-8" style="display:inline;fill:#306998;fill-opacity:1;stroke:none;stroke-width:.125;stroke-linejoin:round;stroke-miterlimit:4;stroke-dasharray:none;stroke-opacity:1"/><g aria-label="01110000 01111001 01110100 01101000" style="font-size:14.6667px;line-height:1.25;font-family:&quot;Source Code Pro&quot;;-inkscape-font-specification:&quot;Source Code Pro&quot;;fill:#ffd43b;fill-opacity:.60000002"><path d="M33.192 53.35q-1.04 0-1.789-.572-.748-.587-1.159-1.672-.41-1.085-.41-2.64 0-2.361.894-3.593.91-1.232 2.464-1.232 1.57 0 2.464 1.232.895 1.232.895 3.593 0 1.555-.41 2.64-.397 1.085-1.16 1.672-.747.572-1.789.572m0-.968q.66 0 1.16-.41.498-.426.776-1.291.294-.88.294-2.215 0-1.35-.294-2.2-.278-.85-.777-1.247-.499-.41-1.159-.41-.645 0-1.158.41-.499.396-.792 1.247-.279.85-.279 2.2 0 1.335.279 2.215.293.865.792 1.29.513.411 1.158.411m0-3.036q-.366 0-.645-.264-.264-.264-.264-.719t.264-.704q.279-.264.645-.264.382 0 .646.264.264.25.264.704 0 .455-.264.72-.264.263-.646.263m5.823 3.828v-.997h2.699v-6.894h-2.098v-.777q.558-.073.983-.176t.777-.22q.352-.132.646-.293h.894v8.36h2.45v.997zm8.8 0v-.997h2.699v-6.894h-2.097v-.777q.557-.073.982-.176.426-.103.778-.22.352-.132.645-.293h.895v8.36h2.449v.997zm8.8 0v-.997h2.699v-6.894h-2.097v-.777q.557-.073.982-.176.426-.103.778-.22.352-.132.645-.293h.895v8.36h2.449v.997zm11.778.176q-1.042 0-1.79-.572-.748-.587-1.158-1.672-.411-1.085-.411-2.64 0-2.361.895-3.593.909-1.232 2.464-1.232 1.569 0 2.464 1.232.894 1.232.894 3.593 0 1.555-.41 2.64-.396 1.085-1.16 1.672-.747.572-1.788.572m0-.968q.66 0 1.158-.41.499-.426.778-1.291.293-.88.293-2.215 0-1.35-.293-2.2-.28-.85-.778-1.247-.498-.41-1.158-.41-.646 0-1.16.41-.498.396-.791 1.247-.279.85-.279 2.2 0 1.335.279 2.215.293.865.792 1.29.513.411 1.159.411m0-3.036q-.367 0-.646-.264-.264-.264-.264-.719t.264-.704q.279-.264.646-.264.38 0 .645.264.264.25.264.704 0 .455-.264.72-.264.263-.645.263m8.8 4.004q-1.042 0-1.79-.572-.748-.587-1.158-1.672-.411-1.085-.411-2.64 0-2.361.895-3.593.909-1.232 2.464-1.232 1.569 0 2.464 1.232.894 1.232.894 3.593 0 1.555-.41 2.64-.396 1.085-1.16 1.672-.747.572-1.788.572m0-.968q.66 0 1.158-.41.499-.426.778-1.291.293-.88.293-2.215 0-1.35-.293-2.2-.28-.85-.778-1.247-.498-.41-1.158-.41-.646 0-1.16.41-.498.396-.791 1.247-.279.85-.279 2.2 0 1.335.279 2.215.293.865.792 1.29.513.411 1.159.411m0-3.036q-.367 0-.646-.264-.264-.264-.264-.719t.264-.704q.279-.264.646-.264.38 0 .645.264.264.25.264.704 0 .455-.264.72-.264.263-.645.263m8.8 4.004q-1.042 0-1.79-.572-.748-.587-1.158-1.672-.411-1.085-.411-2.64 0-2.361.895-3.593.909-1.232 2.464-1.232 1.569 0 2.464 1.232.894 1.232.894 3.593 0 1.555-.41 2.64-.396 1.085-1.16 1.672-.747.572-1.788.572m0-.968q.66 0 1.158-.41.499-.426.778-1.291.293-.88.293-2.215 0-1.35-.293-2.2-.28-.85-.778-1.247-.498-.41-1.158-.41-.646 0-1.16.41-.498.396-.791 1.247-.279.85-.279 2.2 0 1.335.279 2.215.293.865.792 1.29.513.411 1.159.411m0-3.036q-.367 0-.646-.264-.264-.264-.264-.719t.264-.704q.279-.264.646-.264.38 0 .645.264.264.25.264.704 0 .455-.264.72-.264.263-.645.263m8.8 4.004q-1.042 0-1.79-.572-.748-.587-1.158-1.672-.411-1.085-.411-2.64 0-2.361.895-3.593.909-1.232 2.464-1.232 1.569 0 2.464 1.232.894 1.232.894 3.593 0 1.555-.41 2.64-.396 1.085-1.159 1.672-.748.572-1.79.572m0-.968q.66 0 1.158-.41.499-.426.778-1.291.293-.88.293-2.215 0-1.35-.293-2.2-.279-.85-.778-1.247-.498-.41-1.158-.41-.646 0-1.159.41-.499.396-.792 1.247-.279.85-.279 2.2 0 1.335.279 2.215.293.865.792 1.29.513.411 1.159.411m0-3.036q-.367 0-.646-.264-.264-.264-.264-.719t.264-.704q.279-.264.646-.264.381 0 .645.264.264.25.264.704 0 .455-.264.72-.264.263-.645.263m-61.6 22.337q-1.04 0-1.789-.572-.748-.586-1.159-1.672-.41-1.085-.41-2.64 0-2.36.894-3.593.91-1.232 2.464-1.232 1.57 0 2.464 1.232.895 1.232.895 3.593 0 1.555-.41 2.64-.397 1.086-1.16 1.672-.747.572-1.789.572m0-.968q.66 0 1.16-.41.498-.426.776-1.29.294-.88.294-2.216 0-1.349-.294-2.2-.278-.85-.777-1.246-.499-.41-1.159-.41-.645 0-1.158.41-.499.396-.792 1.246-.279.851-.279 2.2 0 1.335.279 2.215.293.865.792 1.29.513.411 1.158.411m0-3.036q-.366 0-.645-.264-.264-.264-.264-.718 0-.455.264-.704.279-.264.645-.264.382 0 .646.264.264.25.264.704t-.264.718-.646.264m5.823 3.828v-.997h2.699v-6.893h-2.098v-.778q.558-.073.983-.176.425-.102.777-.22.352-.132.646-.293h.894v8.36h2.45v.997zm8.8 0v-.997h2.699v-6.893h-2.097v-.778q.557-.073.982-.176.426-.102.778-.22.352-.132.645-.293h.895v8.36h2.449v.997zm8.8 0v-.997h2.699v-6.893h-2.097v-.778q.557-.073.982-.176.426-.102.778-.22.352-.132.645-.293h.895v8.36h2.449v.997zm8.8 0v-.997h2.699v-6.893h-2.097v-.778q.557-.073.982-.176.426-.102.778-.22.352-.132.645-.293h.895v8.36h2.449v.997zm11.778.176q-1.042 0-1.79-.572-.748-.586-1.158-1.672-.411-1.085-.411-2.64 0-2.36.895-3.593.909-1.232 2.464-1.232 1.569 0 2.464 1.232.894 1.232.894 3.593 0 1.555-.41 2.64-.396 1.086-1.16 1.672-.747.572-1.788.572m0-.968q.66 0 1.158-.41.499-.426.778-1.29.293-.88.293-2.216 0-1.349-.293-2.2-.28-.85-.778-1.246-.498-.41-1.158-.41-.646 0-1.16.41-.498.396-.791 1.246-.279.851-.279 2.2 0 1.335.279 2.215.293.865.792 1.29.513.411 1.159.411m0-3.036q-.367 0-.646-.264-.264-.264-.264-.718 0-.455.264-.704.279-.264.646-.264.38 0 .645.264.264.25.264.704t-.264.718-.645.264m8.8 4.004q-1.042 0-1.79-.572-.748-.586-1.158-1.672-.411-1.085-.411-2.64 0-2.36.895-3.593.909-1.232 2.464-1.232 1.569 0 2.464 1.232.894 1.232.894 3.593 0 1.555-.41 2.64-.396 1.086-1.16 1.672-.747.572-1.788.572m0-.968q.66 0 1.158-.41.499-.426.778-1.29.293-.88.293-2.216 0-1.349-.293-2.2-.28-.85-.778-1.246-.498-.41-1.158-.41-.646 0-1.16.41-.498.396-.791 1.246-.279.851-.279 2.2 0 1.335.279 2.215.293.865.792 1.29.513.411 1.159.411m0-3.036q-.367 0-.646-.264-.264-.264-.264-.718 0-.455.264-.704.279-.264.646-.264.38 0 .645.264.264.25.264.704t-.264.718-.645.264m5.822 3.828v-.997h2.699v-6.893h-2.097v-.778q.557-.073.982-.176.426-.102.778-.22.352-.132.645-.293h.895v8.36h2.449v.997zm-58.623 18.51q-1.04 0-1.789-.572-.748-.587-1.159-1.672-.41-1.085-.41-2.64 0-2.361.894-3.593.91-1.233 2.464-1.233 1.57 0 2.464 1.233.895 1.232.895 3.593 0 1.555-.41 2.64-.397 1.085-1.16 1.672-.747.572-1.789.572m0-.968q.66 0 1.16-.41.498-.426.776-1.291.294-.88.294-2.215 0-1.35-.294-2.2-.278-.85-.777-1.247-.499-.41-1.159-.41-.645 0-1.158.41-.499.396-.792 1.247-.279.85-.279 2.2 0 1.335.279 2.215.293.865.792 1.29.513.41 1.158.41m0-3.036q-.366 0-.645-.264-.264-.264-.264-.719t.264-.704q.279-.264.645-.264.382 0 .646.264.264.25.264.704 0 .455-.264.719t-.646.264m5.823 3.828v-.996h2.699V81.95h-2.098v-.777q.558-.073.983-.176t.777-.22q.352-.132.646-.294h.894v8.36h2.45v.998zm8.8 0v-.996h2.699V81.95h-2.097v-.777q.557-.073.982-.176.426-.103.778-.22.352-.132.645-.294h.895v8.36h2.449v.998zm8.8 0v-.996h2.699V81.95h-2.097v-.777q.557-.073.982-.176.426-.103.778-.22.352-.132.645-.294h.895v8.36h2.449v.998zm11.778.177q-1.042 0-1.79-.572-.748-.587-1.158-1.672-.411-1.085-.411-2.64 0-2.361.895-3.593.909-1.233 2.464-1.233 1.569 0 2.464 1.233.894 1.232.894 3.593 0 1.555-.41 2.64-.396 1.085-1.16 1.672-.747.572-1.788.572m0-.968q.66 0 1.158-.41.499-.426.778-1.291.293-.88.293-2.215 0-1.35-.293-2.2-.28-.85-.778-1.247-.498-.41-1.158-.41-.646 0-1.16.41-.498.396-.791 1.247-.279.85-.279 2.2 0 1.335.279 2.215.293.865.792 1.29.513.41 1.159.41m0-3.036q-.367 0-.646-.264-.264-.264-.264-.719t.264-.704q.279-.264.646-.264.38 0 .645.264.264.25.264.704 0 .455-.264.719t-.645.264m5.822 3.828v-.996h2.699V81.95h-2.097v-.777q.557-.073.982-.176.426-.103.778-.22.352-.132.645-.294h.895v8.36h2.449v.998zm11.778.177q-1.042 0-1.79-.572-.748-.587-1.158-1.672-.411-1.085-.411-2.64 0-2.361.895-3.593.909-1.233 2.464-1.233 1.569 0 2.464 1.233.894 1.232.894 3.593 0 1.555-.41 2.64-.396 1.085-1.16 1.672-.747.572-1.788.572m0-.968q.66 0 1.158-.41.499-.426.778-1.291.293-.88.293-2.215 0-1.35-.293-2.2-.28-.85-.778-1.247-.498-.41-1.158-.41-.646 0-1.16.41-.498.396-.791 1.247-.279.85-.279 2.2 0 1.335.279 2.215.293.865.792 1.29.513.41 1.159.41m0-3.036q-.367 0-.646-.264-.264-.264-.264-.719t.264-.704q.279-.264.646-.264.38 0 .645.264.264.25.264.704 0 .455-.264.719t-.645.264m8.8 4.005q-1.042 0-1.79-.572-.748-.587-1.158-1.672-.411-1.085-.411-2.64 0-2.361.895-3.593.909-1.233 2.464-1.233 1.569 0 2.464 1.233.894 1.232.894 3.593 0 1.555-.41 2.64-.396 1.085-1.159 1.672-.748.572-1.79.572m0-.968q.66 0 1.158-.41.499-.426.778-1.291.293-.88.293-2.215 0-1.35-.293-2.2-.279-.85-.778-1.247-.498-.41-1.158-.41-.646 0-1.159.41-.499.396-.792 1.247-.279.85-.279 2.2 0 1.335.279 2.215.293.865.792 1.29.513.41 1.159.41m0-3.036q-.367 0-.646-.264-.264-.264-.264-.719t.264-.704q.279-.264.646-.264.381 0 .645.264.264.25.264.704 0 .455-.264.719t-.645.264m-61.6 22.338q-1.04 0-1.789-.572-.748-.586-1.159-1.672-.41-1.085-.41-2.64 0-2.361.894-3.593.91-1.232 2.464-1.232 1.57 0 2.464 1.232.895 1.232.895 3.593 0 1.555-.41 2.64-.397 1.086-1.16 1.672-.747.572-1.789.572m0-.968q.66 0 1.16-.41.498-.426.776-1.291.294-.88.294-2.215 0-1.35-.294-2.2-.278-.85-.777-1.246-.499-.411-1.159-.411-.645 0-1.158.41-.499.397-.792 1.247-.279.85-.279 2.2 0 1.335.279 2.215.293.865.792 1.29.513.411 1.158.411m0-3.036q-.366 0-.645-.264-.264-.264-.264-.718 0-.455.264-.704.279-.264.645-.264.382 0 .646.264.264.249.264.704t-.264.718-.646.264m5.823 3.828v-.997h2.699v-6.893h-2.098v-.778q.558-.073.983-.176.425-.102.777-.22.352-.132.646-.293h.894v8.36h2.45v.997zm8.8 0v-.997h2.699v-6.893h-2.097v-.778q.557-.073.982-.176.426-.102.778-.22.352-.132.645-.293h.895v8.36h2.449v.997zm11.778.176q-1.042 0-1.79-.572-.748-.586-1.158-1.672-.411-1.085-.411-2.64 0-2.361.895-3.593.909-1.232 2.464-1.232 1.569 0 2.464 1.232.894 1.232.894 3.593 0 1.555-.41 2.64-.396 1.086-1.16 1.672-.747.572-1.788.572m0-.968q.66 0 1.158-.41.499-.426.778-1.291.293-.88.293-2.215 0-1.35-.293-2.2-.28-.85-.778-1.246-.498-.411-1.158-.411-.646 0-1.16.41-.498.397-.791 1.247-.279.85-.279 2.2 0 1.335.279 2.215.293.865.792 1.29.513.411 1.159.411m0-3.036q-.367 0-.646-.264-.264-.264-.264-.718 0-.455.264-.704.279-.264.646-.264.38 0 .645.264.264.249.264.704t-.264.718-.645.264m5.822 3.828v-.997h2.699v-6.893h-2.097v-.778q.557-.073.982-.176.426-.102.778-.22.352-.132.645-.293h.895v8.36h2.449v.997zm11.778.176q-1.042 0-1.79-.572-.748-.586-1.158-1.672-.411-1.085-.411-2.64 0-2.361.895-3.593.909-1.232 2.464-1.232 1.569 0 2.464 1.232.894 1.232.894 3.593 0 1.555-.41 2.64-.396 1.086-1.16 1.672-.747.572-1.788.572m0-.968q.66 0 1.158-.41.499-.426.778-1.291.293-.88.293-2.215 0-1.35-.293-2.2-.28-.85-.778-1.246-.498-.411-1.158-.411-.646 0-1.16.41-.498.397-.791 1.247-.279.85-.279 2.2 0 1.335.279 2.215.293.865.792 1.29.513.411 1.159.411m0-3.036q-.367 0-.646-.264-.264-.264-.264-.718 0-.455.264-.704.279-.264.646-.264.38 0 .645.264.264.249.264.704t-.264.718-.645.264m8.8 4.004q-1.042 0-1.79-.572-.748-.586-1.158-1.672-.411-1.085-.411-2.64 0-2.361.895-3.593.909-1.232 2.464-1.232 1.569 0 2.464 1.232.894 1.232.894 3.593 0 1.555-.41 2.64-.396 1.086-1.16 1.672-.747.572-1.788.572m0-.968q.66 0 1.158-.41.499-.426.778-1.291.293-.88.293-2.215 0-1.35-.293-2.2-.28-.85-.778-1.246-.498-.411-1.158-.411-.646 0-1.16.41-.498.397-.791 1.247-.279.85-.279 2.2 0 1.335.279 2.215.293.865.792 1.29.513.411 1.159.411m0-3.036q-.367 0-.646-.264-.264-.264-.264-.718 0-.455.264-.704.279-.264.646-.264.38 0 .645.264.264.249.264.704t-.264.718-.645.264m8.8 4.004q-1.042 0-1.79-.572-.748-.586-1.158-1.672-.411-1.085-.411-2.64 0-2.361.895-3.593.909-1.232 2.464-1.232 1.569 0 2.464 1.232.894 1.232.894 3.593 0 1.555-.41 2.64-.396 1.086-1.159 1.672-.748.572-1.79.572m0-.968q.66 0 1.158-.41.499-.426.778-1.291.293-.88.293-2.215 0-1.35-.293-2.2-.279-.85-.778-1.246-.498-.411-1.158-.411-.646 0-1.159.41-.499.397-.792 1.247-.279.85-.279 2.2 0 1.335.279 2.215.293.865.792 1.29.513.411 1.159.411m0-3.036q-.367 0-.646-.264-.264-.264-.264-.718 0-.455.264-.704.279-.264.646-.264.381 0 .645.264.264.249.264.704t-.264.718-.645.264" style="fill:#ffd43b;fill-opacity:.60000002" transform="matrix(.99514 0 0 .98904 .311 -1.496)"/></g><g style="fill:#306998;fill-opacity:1;stroke:#fff;stroke-width:9.36575"><g style="fill:#306998;fill-opacity:1"><path stroke="none" d="M-99.602-266.528v16.59c0 6.584-5.862 12.316-12.068 12.316h-26.781c-10.008 0-18.088 8.383-18.088 18.309v25.53c0 4.991 2.368 9.309 5.58 12.224 3.212 2.914 7.174 4.714 11.188 5.894 9.118 2.681 18.485 3.173 29.406.004 3.785-1.096 7.731-2.744 11.013-5.617s5.772-7.292 5.772-12.504v-8.943h8.723c4.985 0 9.382-2.128 12.164-5.373 2.78-3.245 4.271-7.165 5.685-11.422l.002-.004c3.095-9.29 2.904-18.584.1-29.856v-.002c-1.065-4.288-2.633-8.375-5.528-11.668s-7.355-5.478-12.423-5.478zm9.366 9.365h5.379c2.733 0 4.014.732 5.39 2.297s2.61 4.274 3.47 7.742v.004c2.557 10.274 2.606 17.132.104 24.639l-.002.002v.002c-1.295 3.9-2.612 6.773-3.908 8.285-1.295 1.511-2.247 2.102-5.054 2.102h-44.87v12.771h13.383c-2.016 1.803-3.351 4.349-3.351 7.225 0 3.325 1.803 6.177 4.384 7.959-8.188 1.99-14.653 1.59-21.818-.516v.002c-3.074-.904-5.816-2.286-7.535-3.846s-2.51-3.011-2.51-5.287v-25.531c0-4.767 4.059-8.944 8.723-8.944h26.781c11.642 0 21.434-9.804 21.434-21.681zm-13.389 57.844h.68v.61c-.211-.228-.449-.403-.68-.61m-6.357 6.812c.221 0 .35.092.35.412 0 .34-.153.442-.35.442-.179 0-.348-.113-.348-.442 0-.309.145-.412.348-.412m15.062-69.338v11.906c0 9.23-7.825 17-16.75 17h-26.78c-7.337 0-13.407 6.279-13.407 13.625v25.531c0 7.267 6.319 11.54 13.406 13.625 8.488 2.496 16.626 2.947 26.781 0 6.75-1.954 13.407-5.887 13.407-13.625V-204h-26.782v-3.407h40.188c7.792 0 10.696-5.435 13.406-13.593 2.8-8.4 2.68-16.476 0-27.25-1.926-7.758-5.604-13.594-13.406-13.594zm-15.062 64.656c2.78 0 5.031 2.278 5.031 5.094 0 2.826-2.252 5.125-5.031 5.125-2.77 0-5.031-2.299-5.031-5.125 0-2.816 2.261-5.094 5.031-5.094m-15.678-97.995c-4.836.022-9.46.432-13.608 1.166-6.175 1.09-10.72 2.893-13.703 6.39-2.983 3.498-3.568 7.874-3.568 12.158v8.942h-5.38c-9.67 0-18.73 6.438-21.304 17.185-2.556 10.61-2.675 18.333 0 29.434 1.092 4.546 2.98 8.737 6.121 11.953s7.653 5.23 12.682 5.23h13.902v-16.931c0-6.149 5.654-11.975 12.067-11.975h26.781c10.026 0 18.09-8.338 18.09-18.306v-25.532c0-9.9-8.217-17.039-17.32-18.556-4.897-.815-9.924-1.18-14.76-1.158m.043 9.365c4.33-.02 8.863.313 13.178 1.031 5.449.908 9.494 4.686 9.494 9.318v25.532c0 5.005-3.84 8.941-8.725 8.941h-26.781c-11.773 0-21.432 9.789-21.432 21.34v7.566h-4.537c-2.763 0-4.423-.813-5.982-2.41-1.56-1.596-2.899-4.202-3.713-7.594l-.002-.002v-.002c-2.465-10.22-2.365-15.242 0-25.054v-.004l.002-.004c1.694-7.073 6.28-10.002 12.195-10.002h41.559v-12.772h-13.412c2.014-1.803 3.35-4.348 3.35-7.222 0-3.35-1.83-6.221-4.442-7.998 2.889-.379 5.965-.65 9.248-.664m-14.522 8.219c.179 0 .35.115.35.443 0 .31-.147.41-.35.41-.221 0-.347-.09-.347-.41 0-.34.15-.443.347-.443m-7.035 7.058c.21.227.446.402.676.608h-.676zm21.536-19.96c-4.584.022-8.961.413-12.813 1.094-11.346 2.005-13.406 6.2-13.406 13.938v10.219h26.812v3.406h-36.875c-7.792 0-14.615 4.684-16.75 13.594-2.461 10.213-2.57 16.586 0 27.25 1.906 7.937 6.458 13.593 14.25 13.593h9.22v-12.25c0-8.85 7.656-16.656 16.75-16.656h26.78c7.455 0 13.407-6.138 13.407-13.625v-25.531c0-7.266-6.13-12.725-13.407-13.938-4.606-.766-9.385-1.115-13.968-1.093m-14.5 8.22c2.77 0 5.031 2.298 5.031 5.124 0 2.817-2.262 5.094-5.031 5.094-2.78 0-5.032-2.277-5.032-5.094 0-2.826 2.252-5.125 5.032-5.125" style="color:#000;fill:#306998;fill-opacity:1;stroke:none;-inkscape-stroke:none" transform="translate(131.45 200.145)scale(.53976)"/></g></g><path d="M79.032 64.162c-2.474.011-4.837.222-6.916.59-6.124 1.082-7.236 3.346-7.236 7.523v5.515h14.472v1.839H59.45c-4.206 0-7.89 2.528-9.041 7.337-1.329 5.513-1.388 8.953 0 14.709 1.029 4.284 3.485 7.337 7.691 7.337h4.976V102.4c0-4.777 4.133-8.99 9.041-8.99h14.456c4.023 0 7.236-3.313 7.236-7.355v-13.78c0-3.922-3.31-6.868-7.236-7.523a45 45 0 0 0-7.54-.59m-7.827 4.436c1.495 0 2.716 1.24 2.716 2.766 0 1.52-1.22 2.75-2.716 2.75-1.5 0-2.715-1.23-2.715-2.75 0-1.526 1.215-2.766 2.715-2.766" style="fill:#fff;fill-opacity:1;stroke-width:.539759" transform="translate(-15.39 -20.826)"/><path d="M95.612 79.629v6.426c0 4.983-4.224 9.176-9.04 9.176H72.116c-3.96 0-7.236 3.39-7.236 7.355v13.78c0 3.922 3.41 6.23 7.236 7.354 4.581 1.347 8.974 1.59 14.456 0 3.643-1.055 7.236-3.178 7.236-7.354v-5.515H79.352v-1.839h21.692c4.206 0 5.773-2.934 7.236-7.337 1.51-4.534 1.447-8.893 0-14.709-1.04-4.187-3.025-7.337-7.236-7.337zm-8.13 34.899c1.5 0 2.716 1.229 2.716 2.749 0 1.526-1.215 2.766-2.716 2.766-1.495 0-2.715-1.24-2.715-2.766 0-1.52 1.22-2.75 2.715-2.75" style="fill:#fff;fill-opacity:1;stroke-width:.539759" transform="translate(-15.39 -20.826)"/><path d="M77.978 8v22c0 4.432 3.61 7.923 8.043 7.923l22-.005z" style="display:inline;vector-effect:none;fill:#ffd43b;fill-opacity:1;stroke:none;stroke-width:.125;stroke-linecap:butt;stroke-linejoin:round;stroke-miterlimit:4;stroke-dasharray:none;stroke-dashoffset:0;stroke-opacity:1"/></svg>