<svg xmlns="http://www.w3.org/2000/svg" xml:space="preserve" width="128" height="128" viewBox="0 0 128 128"><path d="M27.978 8h50l30.043 29.918.001 74.06c0 4.432-3.612 8.022-8.044 8.022h-72c-4.432 0-8-3.568-8-8V16c0-4.432 3.568-8 8-8" style="display:inline;fill:#cc2131;fill-opacity:1;stroke:none;stroke-width:.125;stroke-linejoin:round;stroke-miterlimit:4;stroke-dasharray:none;stroke-opacity:1"/><path d="M77.978 8v22c0 4.432 3.61 7.923 8.043 7.923l22-.005z" style="display:inline;vector-effect:none;fill:#fff;fill-opacity:.30000001;stroke:none;stroke-width:.125;stroke-linecap:butt;stroke-linejoin:round;stroke-miterlimit:4;stroke-dasharray:none;stroke-dashoffset:0;stroke-opacity:1"/><path d="M40.174 102.878c-2.75-.504-4.94-2.132-5.332-5.388C34.28 92.326 34 86.938 34 81.38c0-5.556.28-10.945.842-16.052.393-2.919 2.582-5.108 5.332-5.388 3.873-.393 7.858-.674 11.955-.898l7.297-8.363c-.057 0 1.683-.337 3.255.056L37.255 81.1c5.5-2.695 21.61 1.515 21.61 11.337 0 10.496-11.058 11.675-18.691 10.44m12.572.898c3.705.168 7.41.224 11.226.224 8.362 0 16.333-.392 23.798-1.122 2.75-.28 4.995-2.526 5.332-5.388.618-5.164.898-10.552.898-16.109 0-5.556-.28-10.945-.898-16.052-.337-2.919-2.582-5.108-5.332-5.388a187 187 0 0 0-10.048-.786S63.411 90.923 62.007 94.178c-2.132 4.827-5.051 8.363-9.26 9.598M68.63 48.659c1.627.45 2.47.842 3.537 1.628L52.24 74.085c5.445 3.648 11.114 12.684 8.027 20.093 1.515-9.99-8.532-17.511-14.481-18.466Z" style="fill:#fff;stroke-width:.779543"/></svg>