<svg xmlns="http://www.w3.org/2000/svg" xml:space="preserve" width="128" height="128" viewBox="0 0 128 128"><path d="M27.978 8h50l30.043 29.918v74.06c0 4.432-3.611 8.022-8.043 8.022h-72c-4.432 0-8-3.568-8-8V16c0-4.432 3.568-8 8-8" style="display:inline;fill:#3e2723;fill-opacity:1;stroke:none;stroke-width:.125;stroke-linejoin:round;stroke-miterlimit:4;stroke-dasharray:none;stroke-opacity:1"/><path d="M77.978 8v22c0 4.432 3.61 7.923 8.042 7.923l22-.005z" style="display:inline;vector-effect:none;fill:#fff;fill-opacity:.30000001;stroke:none;stroke-width:.125;stroke-linecap:butt;stroke-linejoin:round;stroke-miterlimit:4;stroke-dasharray:none;stroke-dashoffset:0;stroke-opacity:1"/><path d="M36 43.998v5.255h24v-5.255zm0 10.949v5.255h12v-5.255zm0 10.949v5.255h24v-5.255zm12 10.949V82.1h6v-5.255zM36 87.794v5.255h12v-5.255zm0 10.948v5.255h12v-5.255z" style="fill:#e9dec3;stroke-width:1.87172"/><path d="M66 43.998v5.255h12v-5.255zM54 54.947v5.255h38v-5.255zm12 10.949v5.255h12v-5.255zm-6 10.949V82.1h24v-5.255zm-6 10.949v5.255h38v-5.255zm0 10.948v5.255h30v-5.255z" style="fill:#e0ae52;stroke-width:1.87172"/></svg>