<svg xmlns="http://www.w3.org/2000/svg" xml:space="preserve" width="128" height="128" viewBox="0 0 128 128"><defs><linearGradient id="application_x_cd_image_b" x1="22" x2="128" y1="67" y2="67" gradientTransform="translate(27.611 37.33)scale(.55556)" gradientUnits="userSpaceOnUse"><stop offset="0" stop-color="#5c596d"/><stop offset=".811" stop-color="#b3b2c0"/><stop offset="1" stop-color="#838289"/></linearGradient><linearGradient id="application_x_cd_image_h" x1="38" x2="120" y1="102" y2="20" gradientTransform="translate(27.611 37.33)scale(.55556)" gradientUnits="userSpaceOnUse"><stop offset="0" stop-color="#a3b6d1"/><stop offset=".195" stop-color="#a9c5f0"/><stop offset=".451" stop-color="#dbdeff"/><stop offset=".707" stop-color="#b7c5ef"/><stop offset="1" stop-color="#8fb2dd"/></linearGradient><linearGradient id="application_x_cd_image_j" x1="3" x2="47" y1="70" y2="70" gradientTransform="translate(27.611 37.33)scale(.55556)" gradientUnits="userSpaceOnUse"><stop offset="0" stop-color="#9a3800"/><stop offset=".091" stop-color="#ed5300"/><stop offset=".182" stop-color="#c64600"/><stop offset=".818" stop-color="#c64600"/><stop offset=".909" stop-color="#ed5300"/><stop offset="1" stop-color="#9a3800"/></linearGradient><linearGradient id="application_x_cd_image_k" x1="20" x2="44" y1="123" y2="123" gradientTransform="matrix(.69444 0 0 .67901 19.278 14.366)" gradientUnits="userSpaceOnUse"><stop offset="0" stop-color="#adadaa"/><stop offset=".083" stop-color="#d7d6d5"/><stop offset=".167" stop-color="#afafab"/><stop offset=".655" stop-color="#b8b8b4"/><stop offset=".939" stop-color="#a3a29f"/><stop offset="1" stop-color="#8d8b88"/></linearGradient><linearGradient id="application_x_cd_image_l" x1="19.5" x2="44.5" y1="128" y2="128" gradientTransform="matrix(.69444 0 0 .625 19.278 21.496)" gradientUnits="userSpaceOnUse"><stop offset="0" stop-color="#e0e0e0"/><stop offset="1" stop-color="#d1ccc5"/></linearGradient><linearGradient id="application_x_cd_image_m" x1="19.5" x2="44.5" y1="128" y2="128" gradientTransform="matrix(.64815 0 0 .48611 20.76 39.274)" gradientUnits="userSpaceOnUse"><stop offset="0" stop-color="#545251"/><stop offset=".471" stop-color="#7d7c7a"/><stop offset="1" stop-color="#908e8d"/></linearGradient><linearGradient id="application_x_cd_image_n" x1="3" x2="47" y1="91" y2="91" gradientTransform="translate(27.611 37.33)scale(.55556)" gradientUnits="userSpaceOnUse"><stop offset="0" stop-color="#ff8500" stop-opacity=".153"/><stop offset=".186" stop-color="#ff7c00" stop-opacity=".341"/><stop offset="1" stop-color="#ffa200" stop-opacity=".137"/></linearGradient></defs><linearGradient id="application_x_cd_image_a" x1="36" x2="60" y1="68" y2="68" gradientUnits="userSpaceOnUse"><stop offset="0" stop-color="#ed336c"/><stop offset="1" stop-color="#ffa348"/></linearGradient><linearGradient id="application_x_cd_image_c" x1="72" x2="96" y1="68" y2="68" gradientTransform="rotate(90 88 56)" gradientUnits="userSpaceOnUse"><stop offset="0" stop-color="#404ce6"/><stop offset="1" stop-color="#c061cb"/></linearGradient><linearGradient id="application_x_cd_image_i" x1="68.849" x2="95.258" y1="84" y2="84" gradientUnits="userSpaceOnUse"><stop offset="0" stop-color="#33d1c6"/><stop offset="1" stop-color="#1c25d8"/></linearGradient><path d="M27.978 8h50l30.043 29.918.001 74.06c0 4.432-3.612 8.022-8.044 8.022h-72c-4.432 0-8-3.568-8-8V16c0-4.432 3.568-8 8-8" style="font-variation-settings:normal;display:inline;vector-effect:none;fill:#c64600;fill-opacity:1;stroke:none;stroke-width:6.51672;stroke-linecap:butt;stroke-linejoin:miter;stroke-miterlimit:4;stroke-dasharray:none;stroke-dashoffset:0;stroke-opacity:1;marker:none;marker-start:none;marker-mid:none;marker-end:none;paint-order:normal;stop-color:#000"/><path d="M77.978 8v22c0 4.432 3.61 7.923 8.042 7.923l22-.005z" style="font-variation-settings:normal;display:inline;vector-effect:none;fill:#e66100;fill-opacity:1;stroke:none;stroke-width:6.51672;stroke-linecap:butt;stroke-linejoin:miter;stroke-miterlimit:4;stroke-dasharray:none;stroke-dashoffset:0;stroke-opacity:1;marker:none;marker-start:none;marker-mid:none;marker-end:none;paint-order:normal;stop-color:#000"/><path fill="url(#application_x_cd_image_a)" d="M69.278 45.107c-16.261 0-29.445 13.184-29.445 29.444 0 16.261 13.184 29.445 29.445 29.445 16.26 0 29.444-13.184 29.444-29.445 0-16.26-13.183-29.444-29.444-29.444m0 25.556a3.89 3.89 0 0 1 3.889 3.888 3.89 3.89 0 0 1-3.89 3.89 3.89 3.89 0 0 1-3.888-3.89 3.89 3.89 0 0 1 3.889-3.888m0 0" style="fill:url(#application_x_cd_image_b);stroke-width:.555556"/><path fill="#d1d4db" d="M69.278 43.996c-16.261 0-29.445 13.183-29.445 29.444s13.184 29.445 29.445 29.445c16.26 0 29.444-13.184 29.444-29.445 0-16.26-13.183-29.444-29.444-29.444m0 25.519a3.926 3.926 0 0 1 0 7.851 4 4 0 0 1-.289-.056 3.9 3.9 0 0 1-2.62-1.292 4 4 0 0 1-.563-.844 3.9 3.9 0 0 1-.397-1.445 4 4 0 0 1-.057-.289q.023-.145.056-.288a3.9 3.9 0 0 1 1.292-2.62c.254-.223.54-.414.844-.564q.247-.123.503-.208a4 4 0 0 1 .942-.189q.143-.033.289-.056m0 0" style="stroke-width:.555556"/><path fill="url(#application_x_cd_image_c)" d="M69.278 45.107c-15.65 0-28.334 12.684-28.334 28.333 0 15.65 12.685 28.334 28.334 28.334S97.61 89.089 97.61 73.44 84.927 45.107 69.278 45.107m0 24.444q.248 0 .495.033l.023.004q.241.03.478.094.013.002.026.008.238.064.467.159.226.092.438.215l.028.017a4 4 0 0 1 .421.284 3.6 3.6 0 0 1 .699.699l.01.009.005.008q.148.192.27.404l.017.028q.121.213.217.439.092.229.158.466l.007.028q.061.235.095.476l.002.024q.033.247.033.494c-.003.495-.1.986-.287 1.443l-.026.074a3.9 3.9 0 0 1-.8 1.194l-.066.065c-.345.338-.75.61-1.193.8l-.074.027a3.9 3.9 0 0 1-1.443.286 3.8 3.8 0 0 1-1.443-.288l-.074-.026a3.9 3.9 0 0 1-1.194-.8l-.065-.064a3.9 3.9 0 0 1-.8-1.196l-.025-.072a3.8 3.8 0 0 1-.288-1.443c.002-.494.1-.985.286-1.443q.014-.035.026-.074c.191-.442.463-.848.801-1.193l.065-.065c.345-.339.751-.61 1.194-.801l.074-.026a3.9 3.9 0 0 1 1.443-.287m0 0" style="fill:url(#application_x_cd_image_h);stroke-width:.555556"/><path fill="#757c9b" d="M69.278 63.996a9.443 9.443 0 0 0-9.445 9.444 9.443 9.443 0 0 0 9.445 9.445 9.443 9.443 0 0 0 9.444-9.445 9.443 9.443 0 0 0-9.444-9.444m0 5.555a3.89 3.89 0 0 1 3.889 3.89 3.89 3.89 0 0 1-3.89 3.888 3.89 3.89 0 0 1-3.888-3.889 3.89 3.89 0 0 1 3.889-3.889m0 0" style="stroke-width:.555556"/><path fill-opacity=".129" d="M53.714 52.153a29.45 29.45 0 0 0-13.325 24.62c.017 2.27.3 4.53.835 6.737a29.5 29.5 0 0 0 9.67 14.034 4.43 4.43 0 0 0 2.828-4.132V52.301c0-.05-.006-.098-.008-.148m0 0" style="stroke-width:.555556"/><path fill="url(#application_x_cd_image_i)" d="M33.722 55.107h15.556a4.445 4.445 0 0 1 4.444 4.444v33.334a4.445 4.445 0 0 1-4.444 4.444H33.722a4.445 4.445 0 0 1-4.444-4.444V59.55a4.445 4.445 0 0 1 4.444-4.444m0 0" style="fill:url(#application_x_cd_image_j);stroke-width:.555556"/><path fill="#d8dae5" d="M69.278 65.107a8.333 8.333 0 0 0-8.334 8.333 8.333 8.333 0 0 0 8.334 8.334 8.333 8.333 0 0 0 8.333-8.334 8.333 8.333 0 0 0-8.333-8.333m0 4.444q.125 0 .252.01.03 0 .058.003.095.009.189.02l.082.01.22.042q.027.007.056.01l.21.055.042.011a4 4 0 0 1 .29.1l.185.076.05.024a4 4 0 0 1 .208.104q.036.019.072.041.076.043.152.091.03.017.06.037a3.4 3.4 0 0 1 .389.291l.054.046q.092.08.18.169a3 3 0 0 1 .217.236q.072.083.14.172.002.005.008.01 0 .002.002.003.071.097.139.202l.04.06.09.155q.02.032.04.071l.006.009q.052.097.097.197.014.027.024.052.04.091.076.185l.024.067a3 3 0 0 1 .087.265q.03.102.054.208.004.029.011.057.022.11.041.221l.002.009q.003.035.01.073l.019.19.004.056q.009.126.009.251a3.8 3.8 0 0 1-.107.862 4 4 0 0 1-.156.514l-.059.16q-.135.317-.32.6l-.07.093a4 4 0 0 1-.5.58q-.211.202-.446.369l-.094.069q-.285.186-.599.319-.082.032-.16.06a4.4 4.4 0 0 1-.695.196 4 4 0 0 1-.683.067 3.8 3.8 0 0 1-.862-.106 4 4 0 0 1-.514-.156l-.16-.059a4 4 0 0 1-.6-.321q-.048-.034-.093-.07a4 4 0 0 1-.58-.499 4 4 0 0 1-.368-.447l-.07-.093a4 4 0 0 1-.319-.599l-.06-.16a4.4 4.4 0 0 1-.196-.695 4 4 0 0 1-.067-.684 3.8 3.8 0 0 1 .106-.863q.062-.26.156-.515l.061-.16q.135-.313.32-.6l.069-.092a4 4 0 0 1 .948-.947q.044-.036.093-.07a4 4 0 0 1 .6-.32q.078-.03.16-.059a4.1 4.1 0 0 1 1.376-.262zm0 0" style="stroke-width:.555556"/><path fill="#ff7800" d="M33.722 45.107h15.556a4.445 4.445 0 0 1 4.444 4.444v35.556a4.445 4.445 0 0 1-4.444 4.444H33.722a4.445 4.445 0 0 1-4.444-4.444V49.551a4.445 4.445 0 0 1 4.444-4.444m0 0" style="stroke-width:.555556"/><path fill="url(#d)" d="M35.944 91.774h11.112c1.534 0 2.777 1.493 2.777 3.333v5.556c0 1.84-1.243 3.333-2.777 3.333H35.944c-1.534 0-2.777-1.493-2.777-3.333v-5.556c0-1.84 1.243-3.333 2.777-3.333m0 0" style="fill:url(#application_x_cd_image_k);stroke-width:.555556"/><path fill="url(#e)" d="M35.667 98.996h11.666a2.5 2.5 0 0 1 0 5H35.667a2.5 2.5 0 0 1 0-5m0 0" style="fill:url(#application_x_cd_image_l);stroke-width:.555556"/><path fill="url(#f)" d="M35.667 99.551h11.666a1.944 1.944 0 1 1 0 3.89H35.667a1.944 1.944 0 1 1 0-3.89m0 0" style="fill:url(#application_x_cd_image_m);stroke-width:.555556"/><path fill="#dd4e00" d="M42.051 58.44h-1.11l-2.223 4.445h1.667v5.555H37.05v-1.41a2.22 2.22 0 0 0-1.111-4.145 2.22 2.22 0 0 0-1.111 4.145v1.41c0 2.223 2.222 2.223 2.222 2.223h3.334v1.41a2.22 2.22 0 0 0 1.111 4.145 2.22 2.22 0 0 0 1.11-4.145v-1.41h3.334s2.222 0 2.222-2.223v-1.11s1.25-.21 1.111-1.112v-2.222c.14-1.25-1.11-1.111-1.11-1.111H45.94c-1.18 0-1.111 1.11-1.111 1.11v2.223c0 1.111 1.111 1.111 1.111 1.111v1.111h-3.333v-5.555h1.666zm0 0" style="stroke-width:.555556"/><path fill="url(#g)" d="M29.278 85.107v1.111a4.434 4.434 0 0 0 4.444 4.445h15.556a4.434 4.434 0 0 0 4.444-4.445v-1.111a4.434 4.434 0 0 1-4.444 4.444H33.722a4.434 4.434 0 0 1-4.444-4.444m0 0" style="fill:url(#application_x_cd_image_n);stroke-width:.555556"/><path fill-opacity=".078" d="M35.944 91.774c-1.538 0-2.777 1.486-2.777 3.333v1.111c0-1.847 1.239-3.333 2.777-3.333h11.112c1.538 0 2.777 1.486 2.777 3.333v-1.111c0-1.847-1.239-3.333-2.777-3.333zm0 0" style="stroke-width:.555556"/></svg>