<svg xmlns="http://www.w3.org/2000/svg" width="128" height="128" viewBox="0 0 128 128"><path d="M27.978 8h50l30.043 29.918.001 74.06c0 4.432-3.612 8.022-8.044 8.022h-72c-4.432 0-8-3.568-8-8V16c0-4.432 3.568-8 8-8" style="display:inline;fill:#ff9a00;fill-opacity:1;stroke:none;stroke-width:.125;stroke-linejoin:round;stroke-miterlimit:4;stroke-dasharray:none;stroke-opacity:1"/><path d="M77.978 8v22c0 4.432 3.61 7.923 8.043 7.923l22-.005z" style="display:inline;vector-effect:none;fill:#000;fill-opacity:.2;stroke:none;stroke-width:.125;stroke-linecap:butt;stroke-linejoin:round;stroke-miterlimit:4;stroke-dasharray:none;stroke-dashoffset:0;stroke-opacity:1"/><path fill="#ff9a00" d="M64.017 95.818H52.04l-2.447 7.567a.563.563 0 0 1-.612.45h-6.053c-.354 0-.45-.193-.354-.58L52.94 73.41c.097-.322.193-.676.322-1.063.129-.676.193-1.384.193-2.093-.032-.16.097-.321.258-.354h8.339c.257 0 .386.097.418.258l11.752 33.162c.097.354 0 .515-.322.515h-6.729c-.225.033-.45-.128-.515-.354zm-10.11-6.535h8.178a46 46 0 0 0-.74-2.319 97 97 0 0 1-.87-2.768c-.322-.999-.612-1.964-.934-2.963a70 70 0 0 1-.869-2.865c-.257-.902-.483-1.739-.708-2.511h-.065a40 40 0 0 1-1.094 4.153c-.483 1.545-.966 3.155-1.481 4.765a63 63 0 0 1-1.417 4.508m27.496-13.748c-1.063.032-2.093-.387-2.866-1.127a4.18 4.18 0 0 1-1.094-2.962 3.8 3.8 0 0 1 1.159-2.866 4.12 4.12 0 0 1 2.865-1.127c1.256 0 2.222.387 2.93 1.127a4.07 4.07 0 0 1 1.063 2.866 4.07 4.07 0 0 1-1.127 2.962c-.74.773-1.836 1.191-2.93 1.127m-3.606 27.946V78.69c0-.322.129-.45.418-.45h6.375c.29 0 .419.16.419.45v24.791c0 .354-.129.515-.419.515h-6.31c-.322 0-.483-.193-.483-.515" style="fill:#fff;fill-opacity:1;stroke-width:1"/></svg>