<svg xmlns="http://www.w3.org/2000/svg" xmlns:xlink="http://www.w3.org/1999/xlink" width="128" height="128" viewBox="0 0 128 128"><defs><radialGradient xlink:href="#application_x_audacity_project_a" id="application_x_audacity_project_x" cx="81.936" cy="33.185" r="57.276" fx="81.936" fy="33.185" gradientTransform="translate(131.407 150.236)scale(.25996)" gradientUnits="userSpaceOnUse"/><radialGradient xlink:href="#application_x_audacity_project_b" id="application_x_audacity_project_y" cx="76" cy="65.977" r="13.221" fx="76" fy="65.977" gradientTransform="matrix(1.04067 0 0 .92057 72.878 100.005)" gradientUnits="userSpaceOnUse"/><radialGradient xlink:href="#application_x_audacity_project_c" id="application_x_audacity_project_z" cx="134.309" cy="55.279" r="58.46" fx="134.309" fy="55.279" gradientTransform="matrix(.74482 .00293 -.00277 .7054 67.736 118.804)" gradientUnits="userSpaceOnUse"/><radialGradient xlink:href="#application_x_audacity_project_d" id="application_x_audacity_project_A" cx="183.525" cy="320.794" r="20.486" fx="183.525" fy="320.794" gradientTransform="matrix(1.2966 .0398 -.06245 2.03439 -37.086 -506.761)" gradientUnits="userSpaceOnUse"/><radialGradient xlink:href="#application_x_audacity_project_e" id="application_x_audacity_project_B" cx="197.719" cy="68.107" r="2.5" fx="197.719" fy="68.107" gradientTransform="matrix(37.75863 0 0 19.7392 -7268.898 -1304.003)" gradientUnits="userSpaceOnUse"/><radialGradient xlink:href="#application_x_audacity_project_e" id="application_x_audacity_project_D" cx="197.747" cy="69.253" r="2.5" fx="197.747" fy="69.253" gradientTransform="matrix(9.9903 0 0 5.22267 -1819.618 -199.092)" gradientUnits="userSpaceOnUse"/><radialGradient xlink:href="#application_x_audacity_project_a" id="application_x_audacity_project_q" cx="81.936" cy="33.185" r="57.276" fx="81.936" fy="33.185" gradientTransform="translate(131.407 150.236)scale(.25996)" gradientUnits="userSpaceOnUse"/><radialGradient xlink:href="#application_x_audacity_project_b" id="application_x_audacity_project_r" cx="76" cy="65.977" r="13.221" fx="76" fy="65.977" gradientTransform="matrix(1.04067 0 0 .92057 72.878 100.005)" gradientUnits="userSpaceOnUse"/><radialGradient xlink:href="#application_x_audacity_project_c" id="application_x_audacity_project_s" cx="134.309" cy="55.279" r="58.46" fx="134.309" fy="55.279" gradientTransform="matrix(.74482 .00293 -.00277 .7054 67.736 118.804)" gradientUnits="userSpaceOnUse"/><radialGradient xlink:href="#application_x_audacity_project_d" id="application_x_audacity_project_t" cx="183.525" cy="320.794" r="20.486" fx="183.525" fy="320.794" gradientTransform="matrix(1.2966 .0398 -.06245 2.03439 -37.086 -506.761)" gradientUnits="userSpaceOnUse"/><radialGradient xlink:href="#application_x_audacity_project_e" id="application_x_audacity_project_u" cx="197.719" cy="68.107" r="2.5" fx="197.719" fy="68.107" gradientTransform="matrix(37.75863 0 0 19.7392 -7268.898 -1304.003)" gradientUnits="userSpaceOnUse"/><radialGradient xlink:href="#application_x_audacity_project_e" id="application_x_audacity_project_w" cx="197.747" cy="69.253" r="2.5" fx="197.747" fy="69.253" gradientTransform="matrix(9.9903 0 0 5.22267 -1819.618 -199.092)" gradientUnits="userSpaceOnUse"/><radialGradient xlink:href="#application_x_audacity_project_f" id="application_x_audacity_project_p" cx="282.138" cy="-218.921" r="128.519" fx="282.138" fy="-218.921" gradientTransform="matrix(.2998 .00987 -.00507 .15403 -231.504 89.353)" gradientUnits="userSpaceOnUse"/><radialGradient xlink:href="#application_x_audacity_project_g" id="application_x_audacity_project_o" cx="281.386" cy="-269.137" r="144.518" fx="281.386" fy="-269.137" gradientTransform="matrix(.27244 0 0 .09945 -222.675 78.622)" gradientUnits="userSpaceOnUse"/><linearGradient id="application_x_audacity_project_a"><stop offset="0" style="stop-color:#0000ed;stop-opacity:1"/><stop offset="1" style="stop-color:#00c;stop-opacity:.94901961"/></linearGradient><linearGradient id="application_x_audacity_project_b"><stop offset="0" style="stop-color:#3d3846;stop-opacity:0"/><stop offset="1" style="stop-color:#3d3846;stop-opacity:.25210086"/></linearGradient><linearGradient id="application_x_audacity_project_c"><stop offset="0" style="stop-color:#8383ff;stop-opacity:1"/><stop offset=".649" style="stop-color:#0000ed;stop-opacity:1"/><stop offset="1" style="stop-color:#8484ff;stop-opacity:1"/></linearGradient><linearGradient id="application_x_audacity_project_d"><stop offset="0" style="stop-color:#4848ff;stop-opacity:1"/><stop offset=".311" style="stop-color:#11f;stop-opacity:1"/><stop offset=".688" style="stop-color:#000086;stop-opacity:1"/><stop offset="1" style="stop-color:#6060ff;stop-opacity:1"/></linearGradient><linearGradient id="application_x_audacity_project_e"><stop offset="0" style="stop-color:#fff;stop-opacity:1"/><stop offset="1" style="stop-color:#fff;stop-opacity:0"/></linearGradient><linearGradient id="application_x_audacity_project_f"><stop offset="0" style="stop-color:#000093;stop-opacity:1"/><stop offset="1" style="stop-color:#0000ed;stop-opacity:.96078432"/></linearGradient><linearGradient id="application_x_audacity_project_g"><stop offset="0" style="stop-color:#0c0cff;stop-opacity:1"/><stop offset="1" style="stop-color:#0000ed;stop-opacity:.98431373"/></linearGradient><linearGradient xlink:href="#application_x_audacity_project_h" id="application_x_audacity_project_n" x1="137.616" x2="426.655" y1="-138.586" y2="-138.586" gradientTransform="translate(-222.675 102.197)scale(.27244)" gradientUnits="userSpaceOnUse"/><linearGradient id="application_x_audacity_project_h"><stop offset="0" style="stop-color:#0000d4;stop-opacity:1"/><stop offset=".078" style="stop-color:#0000d5;stop-opacity:1"/><stop offset=".104" style="stop-color:#3838ff;stop-opacity:1"/><stop offset=".12" style="stop-color:#0000d7;stop-opacity:1"/><stop offset=".285" style="stop-color:#000086;stop-opacity:1"/><stop offset=".5" style="stop-color:#0000b2;stop-opacity:1"/><stop offset=".762" style="stop-color:#0000fd;stop-opacity:1"/><stop offset=".874" style="stop-color:#0000d6;stop-opacity:1"/><stop offset=".905" style="stop-color:#2e2eff;stop-opacity:1"/><stop offset=".949" style="stop-color:#0000d6;stop-opacity:1"/><stop offset="1" style="stop-color:#0000d5;stop-opacity:1"/></linearGradient><linearGradient xlink:href="#application_x_audacity_project_h" id="application_x_audacity_project_m" x1="137.616" x2="426.655" y1="-138.586" y2="-138.586" gradientTransform="translate(-222.865 101.88)scale(.27244)" gradientUnits="userSpaceOnUse"/><linearGradient xlink:href="#application_x_audacity_project_i" id="application_x_audacity_project_j" x1="225.798" x2="225.83" y1="161.371" y2="213.586" gradientTransform="matrix(.93985 0 0 .80947 -356.8 -34.172)" gradientUnits="userSpaceOnUse" spreadMethod="pad"/><linearGradient id="application_x_audacity_project_i"><stop offset="0" style="stop-color:#f3e517;stop-opacity:1"/><stop offset="1" style="stop-color:#ff7901;stop-opacity:1"/></linearGradient><linearGradient xlink:href="#application_x_audacity_project_h" id="application_x_audacity_project_l" x1="137.616" x2="426.655" y1="-138.586" y2="-138.586" gradientTransform="translate(-222.675 102.197)scale(.27244)" gradientUnits="userSpaceOnUse"/><filter id="application_x_audacity_project_C" width="3.936" height="1.116" x="-1.468" y="-.058" style="color-interpolation-filters:sRGB"><feGaussianBlur stdDeviation="3.059"/></filter><filter id="application_x_audacity_project_v" width="3.936" height="1.116" x="-1.468" y="-.058" style="color-interpolation-filters:sRGB"><feGaussianBlur stdDeviation="3.059"/></filter><filter id="application_x_audacity_project_k" width="inf" height="1" x="-inf" y="0" style="color-interpolation-filters:sRGB"><feComposite in2="SourceGraphic" k2="1.004" operator="arithmetic" result="composite1"/><feColorMatrix in="composite1" result="colormatrix1" type="saturate" values="0"/><feFlood flood-color="#2196f3" flood-opacity=".8" result="flood1"/><feBlend in="flood1" in2="colormatrix1" mode="darken" result="blend1"/><feBlend in2="blend1" mode="multiply" result="blend2"/><feColorMatrix in="blend2" result="colormatrix2" type="saturate" values="1"/><feComposite in="colormatrix2" in2="SourceGraphic" operator="in" result="composite2"/></filter></defs><path d="M27.978 8h50l30.043 29.918.001 74.06c0 4.432-3.612 8.022-8.044 8.022h-72c-4.432 0-8-3.568-8-8V16c0-4.432 3.568-8 8-8" style="display:inline;fill:#f6f5f4;fill-opacity:1;stroke:none;stroke-width:.125;stroke-linejoin:round;stroke-miterlimit:4;stroke-dasharray:none;stroke-opacity:1;enable-background:new"/><path d="M77.978 8v22c0 4.432 3.61 7.923 8.043 7.923l22-.005z" style="display:inline;vector-effect:none;fill:#deddda;fill-opacity:1;stroke:none;stroke-width:.125;stroke-linecap:butt;stroke-linejoin:round;stroke-miterlimit:4;stroke-dasharray:none;stroke-dashoffset:0;stroke-opacity:1;enable-background:new"/><path d="M-143.818 100.66c-2.317 6.377-4.658 12.163-6.817 18.581-.799-5.71-1.606-11.323-2.365-16.686-3.185 5.829-6.327 12.212-9.325 18.153l-5.058-3.494-3.207.202.237 2.762c2.377 1.8 7.205 5.291 9.654 7.017 1.759-3.342 3.516-6.852 5.214-10.218.77 7.023 1.482 14.436 2.507 21.434 2.792-7.324 5.598-14.774 8.035-22.017 1.473 8.503 3.256 16.947 5.269 25.364a416 416 0 0 0 5.444-21.654 540 540 0 0 1 3.363 11.458c3.373-3.205 8.056-7.495 11.444-10.852l-.224-2.762-3.208.193-5.675 5.328c-2.127-6.963-4.294-13.726-6.46-20.493-1.453 6.314-2.863 12.634-4.28 18.953-1.637-7.52-2.763-14.02-4.548-21.27z" style="color:#000;opacity:.9216;fill:#ca6000;fill-opacity:1;stroke:#cb6100;stroke-width:6.1056;stroke-linecap:round;stroke-linejoin:miter;stroke-miterlimit:34;stroke-dasharray:none;stroke-opacity:1;paint-order:stroke fill markers" transform="translate(142.14 25.486)scale(.53571)"/><path d="M-144.597 97.384c-2.318 6.378-4.659 12.164-6.818 18.582-.798-5.71-1.605-11.323-2.364-16.686-3.186 5.829-6.327 12.212-9.325 18.153l-5.058-3.494-3.207.202.237 2.762c2.377 1.8 7.205 5.291 9.654 7.017 1.759-3.342 3.516-6.852 5.214-10.218.77 7.023 1.75 14.024 2.774 21.022a572 572 0 0 0 7.768-21.605c1.473 8.503 3.256 16.947 5.269 25.364a416 416 0 0 0 5.444-21.654 540 540 0 0 1 3.363 11.458c3.373-3.204 8.056-7.495 11.444-10.852l-.224-2.762-3.209.193-5.675 5.328c-2.127-6.963-4.294-13.726-6.46-20.493-1.452 6.314-2.863 12.634-4.28 18.953-1.636-7.52-2.762-14.02-4.547-21.27z" style="color:#000;opacity:.9216;fill:#ff0101;fill-opacity:1;stroke:url(#application_x_audacity_project_j);stroke-width:6.1056;stroke-linecap:round;stroke-linejoin:miter;stroke-miterlimit:34;stroke-dasharray:none;stroke-opacity:1;paint-order:stroke fill markers" transform="translate(142.14 25.486)scale(.53571)"/><path d="M429.257-35.675V39.28" style="display:inline;fill:none;fill-opacity:1;stroke:#70727b;stroke-width:10;stroke-linecap:butt;stroke-linejoin:bevel;stroke-miterlimit:4;stroke-dasharray:none;stroke-dashoffset:0;stroke-opacity:1;marker:none;marker-start:none;marker-mid:none;marker-end:none;paint-order:normal;filter:url(#application_x_audacity_project_k);enable-background:new" transform="translate(25.58 79.537)scale(.13597)"/><path d="M-145.81 50.13c-14.468 0-28.1 5.154-36.56 16.312-1.805 2.385-2.797 8.197.894 10.328l3.035 1.68a2.25 2.25 0 0 0 3.076-.825c6.1-10.566 17.03-18.194 29.555-18.194s23.455 7.628 29.556 18.194a2.25 2.25 0 0 0 3.075.825l2.862-1.457c4.337-2.504 2.331-8.346 1.204-10.298-8.443-11.317-22.133-16.565-36.697-16.565" style="color:#000;font-style:normal;font-variant:normal;font-weight:400;font-stretch:normal;font-size:medium;line-height:normal;font-family:sans-serif;font-variant-ligatures:normal;font-variant-position:normal;font-variant-caps:normal;font-variant-numeric:normal;font-variant-alternates:normal;font-feature-settings:normal;text-indent:0;text-align:start;text-decoration:none;text-decoration-line:none;text-decoration-style:solid;text-decoration-color:#000;letter-spacing:normal;word-spacing:normal;text-transform:none;writing-mode:lr-tb;direction:ltr;text-orientation:mixed;dominant-baseline:auto;baseline-shift:baseline;text-anchor:start;white-space:normal;shape-padding:0;clip-rule:nonzero;display:inline;overflow:visible;visibility:visible;isolation:auto;mix-blend-mode:normal;color-interpolation:sRGB;color-interpolation-filters:linearRGB;solid-color:#000;solid-opacity:1;fill:url(#application_x_audacity_project_l);fill-opacity:1;fill-rule:nonzero;stroke:none;stroke-width:5.07621;stroke-linecap:butt;stroke-linejoin:bevel;stroke-miterlimit:4;stroke-dasharray:none;stroke-dashoffset:0;stroke-opacity:1;marker:none;paint-order:normal;color-rendering:auto;image-rendering:auto;shape-rendering:auto;text-rendering:auto;enable-background:accumulate" transform="translate(142.14 25.486)scale(.53571)"/><path d="M-183.196 92.02a37.33 37.33 0 0 1 37.33-37.33 37.33 37.33 0 0 1 37.33 37.33" style="display:inline;fill:none;fill-opacity:1;stroke:#000086;stroke-width:2.5381;stroke-linecap:butt;stroke-linejoin:bevel;stroke-miterlimit:4;stroke-dasharray:none;stroke-dashoffset:0;stroke-opacity:1;marker:none;marker-start:none;marker-mid:none;marker-end:none;paint-order:normal;enable-background:new" transform="translate(142.14 25.486)scale(.53571)"/><path d="M-108.525 91.841v19.024" style="display:inline;fill:none;fill-opacity:1;stroke:#000084;stroke-width:2.5381;stroke-linecap:butt;stroke-linejoin:bevel;stroke-miterlimit:4;stroke-dasharray:none;stroke-dashoffset:0;stroke-opacity:1;marker:none;marker-start:none;marker-mid:none;marker-end:none;paint-order:normal;enable-background:new" transform="translate(142.14 25.486)scale(.53571)"/><path d="M-183.209 91.841v19.024" style="display:inline;fill:none;fill-opacity:1;stroke:#000086;stroke-width:2.5381;stroke-linecap:butt;stroke-linejoin:bevel;stroke-miterlimit:4;stroke-dasharray:none;stroke-dashoffset:0;stroke-opacity:1;marker:none;marker-start:none;marker-mid:none;marker-end:none;paint-order:normal;enable-background:new" transform="translate(142.14 25.486)scale(.53571)"/><path d="M-118.41 69.08a39.2 39.2 0 0 1 5.336 8.39c.682-.61 1.594-1.103 2.51-1.299a41.6 41.6 0 0 0-4.268-7.092z" style="color:#000;font-style:normal;font-variant:normal;font-weight:400;font-stretch:normal;font-size:medium;line-height:normal;font-family:sans-serif;font-variant-ligatures:normal;font-variant-position:normal;font-variant-caps:normal;font-variant-numeric:normal;font-variant-alternates:normal;font-feature-settings:normal;text-indent:0;text-align:start;text-decoration:none;text-decoration-line:none;text-decoration-style:solid;text-decoration-color:#000;letter-spacing:normal;word-spacing:normal;text-transform:none;writing-mode:lr-tb;direction:ltr;text-orientation:mixed;dominant-baseline:auto;baseline-shift:baseline;text-anchor:start;white-space:normal;shape-padding:0;clip-rule:nonzero;display:inline;overflow:visible;visibility:visible;isolation:auto;mix-blend-mode:normal;color-interpolation:sRGB;color-interpolation-filters:linearRGB;solid-color:#000;solid-opacity:1;fill:url(#application_x_audacity_project_m);fill-opacity:1;fill-rule:nonzero;stroke:none;stroke-width:5.07621;stroke-linecap:butt;stroke-linejoin:bevel;stroke-miterlimit:4;stroke-dasharray:none;stroke-dashoffset:0;stroke-opacity:1;marker:none;paint-order:normal;color-rendering:auto;image-rendering:auto;shape-rendering:auto;text-rendering:auto;enable-background:accumulate" transform="translate(142.14 25.486)scale(.53571)"/><path d="M-173.087 68.677a40.5 40.5 0 0 0-5.52 8.679c-.705-.63-1.648-1.14-2.596-1.343a43 43 0 0 1 4.415-7.336z" style="color:#000;font-style:normal;font-variant:normal;font-weight:400;font-stretch:normal;font-size:medium;line-height:normal;font-family:sans-serif;font-variant-ligatures:normal;font-variant-position:normal;font-variant-caps:normal;font-variant-numeric:normal;font-variant-alternates:normal;font-feature-settings:normal;text-indent:0;text-align:start;text-decoration:none;text-decoration-line:none;text-decoration-style:solid;text-decoration-color:#000;letter-spacing:normal;word-spacing:normal;text-transform:none;writing-mode:lr-tb;direction:ltr;text-orientation:mixed;dominant-baseline:auto;baseline-shift:baseline;text-anchor:start;white-space:normal;shape-padding:0;clip-rule:nonzero;display:inline;overflow:visible;visibility:visible;isolation:auto;mix-blend-mode:normal;color-interpolation:sRGB;color-interpolation-filters:linearRGB;solid-color:#000;solid-opacity:1;fill:url(#application_x_audacity_project_n);fill-opacity:1;fill-rule:nonzero;stroke:none;stroke-width:5.07621;stroke-linecap:butt;stroke-linejoin:bevel;stroke-miterlimit:4;stroke-dasharray:none;stroke-dashoffset:0;stroke-opacity:1;marker:none;paint-order:normal;color-rendering:auto;image-rendering:auto;shape-rendering:auto;text-rendering:auto;enable-background:accumulate" transform="translate(142.14 25.486)scale(.53571)"/><path d="M-145.81 47.565a45.13 45.13 0 0 0-36.085 18.043s-4.051 6.559.981 9.464l1.606.928a2.313 2.313 0 0 0 3.158-.846 35.01 35.01 0 0 1 30.34-17.517 35.01 35.01 0 0 1 30.34 17.517 2.31 2.31 0 0 0 3.158.846l1.653-.955c4.813-2.604.925-9.45.925-9.45a45.13 45.13 0 0 0-36.076-18.03" style="color:#000;font-style:normal;font-variant:normal;font-weight:400;font-stretch:normal;font-size:medium;line-height:normal;font-family:sans-serif;font-variant-ligatures:normal;font-variant-position:normal;font-variant-caps:normal;font-variant-numeric:normal;font-variant-alternates:normal;font-feature-settings:normal;text-indent:0;text-align:start;text-decoration:none;text-decoration-line:none;text-decoration-style:solid;text-decoration-color:#000;letter-spacing:normal;word-spacing:normal;text-transform:none;writing-mode:lr-tb;direction:ltr;text-orientation:mixed;dominant-baseline:auto;baseline-shift:baseline;text-anchor:start;white-space:normal;shape-padding:0;clip-rule:nonzero;display:inline;overflow:visible;visibility:visible;isolation:auto;mix-blend-mode:normal;color-interpolation:sRGB;color-interpolation-filters:linearRGB;solid-color:#000;solid-opacity:1;fill:url(#application_x_audacity_project_o);fill-opacity:1;fill-rule:nonzero;stroke:none;stroke-width:5.07621;stroke-linecap:butt;stroke-linejoin:bevel;stroke-miterlimit:4;stroke-dasharray:none;stroke-dashoffset:0;stroke-opacity:1;marker:none;paint-order:normal;color-rendering:auto;image-rendering:auto;shape-rendering:auto;text-rendering:auto;enable-background:accumulate" transform="translate(142.14 25.486)scale(.53571)"/><path d="M-145.81 53.603c-17.014 0-27.684 8.77-34.874 21.224q-.08.144-.139.298l1.515.875a2.313 2.313 0 0 0 3.158-.846 35.01 35.01 0 0 1 30.34-17.517 35.01 35.01 0 0 1 30.34 17.517 2.31 2.31 0 0 0 3.158.846l1.516-.876a2 2 0 0 0-.14-.297c-7.19-12.453-17.86-21.224-34.874-21.224" style="color:#000;font-style:normal;font-variant:normal;font-weight:400;font-stretch:normal;font-size:medium;line-height:normal;font-family:sans-serif;font-variant-ligatures:normal;font-variant-position:normal;font-variant-caps:normal;font-variant-numeric:normal;font-variant-alternates:normal;font-feature-settings:normal;text-indent:0;text-align:start;text-decoration:none;text-decoration-line:none;text-decoration-style:solid;text-decoration-color:#000;letter-spacing:normal;word-spacing:normal;text-transform:none;writing-mode:lr-tb;direction:ltr;text-orientation:mixed;dominant-baseline:auto;baseline-shift:baseline;text-anchor:start;white-space:normal;shape-padding:0;clip-rule:nonzero;display:inline;overflow:visible;visibility:visible;isolation:auto;mix-blend-mode:normal;color-interpolation:sRGB;color-interpolation-filters:linearRGB;solid-color:#000;solid-opacity:1;fill:url(#application_x_audacity_project_p);fill-opacity:1;fill-rule:nonzero;stroke:none;stroke-width:5.07621;stroke-linecap:butt;stroke-linejoin:bevel;stroke-miterlimit:4;stroke-dasharray:none;stroke-dashoffset:0;stroke-opacity:1;marker:none;paint-order:normal;color-rendering:auto;image-rendering:auto;shape-rendering:auto;text-rendering:auto;enable-background:accumulate" transform="translate(142.14 25.486)scale(.53571)"/><g transform="translate(-42.128 4.546)scale(.5139)"><circle cx="163.291" cy="164.683" r="15.154" style="opacity:.96;fill:url(#application_x_audacity_project_q);fill-opacity:1;stroke:none;stroke-width:.264583;stroke-linecap:butt;stroke-linejoin:bevel;stroke-miterlimit:4;stroke-dasharray:none;stroke-dashoffset:0;stroke-opacity:1;marker:none;marker-start:none;marker-mid:none;marker-end:none;paint-order:normal"/><path d="M154.622 152.276a15 15 0 0 0-.51.364.5.5 0 0 0-.027.164.53.53 0 0 0 .53.53.53.53 0 0 0 .528-.53.53.53 0 0 0-.521-.528m-1.066 1.057a.53.53 0 0 0-.53.53.53.53 0 0 0 .53.529.53.53 0 0 0 .529-.53.53.53 0 0 0-.53-.529m-1.059 1.059a.53.53 0 0 0-.529.529.53.53 0 0 0 .53.53.53.53 0 0 0 .529-.53.53.53 0 0 0-.53-.53m2.117 0a.53.53 0 0 0-.53.529.53.53 0 0 0 .53.53.53.53 0 0 0 .53-.53.53.53 0 0 0-.53-.53m-3.175 1.058a.5.5 0 0 0-.16.026 15 15 0 0 0-.368.483l-.001.02a.53.53 0 0 0 .53.53.53.53 0 0 0 .528-.53.53.53 0 0 0-.529-.529m2.117 0a.53.53 0 0 0-.53.53.53.53 0 0 0 .53.528.53.53 0 0 0 .529-.529.53.53 0 0 0-.53-.529m-1.059 1.058a.53.53 0 0 0-.529.53.53.53 0 0 0 .53.529.53.53 0 0 0 .529-.53.53.53 0 0 0-.53-.529m2.117 0a.53.53 0 0 0-.53.53.53.53 0 0 0 .53.529.53.53 0 0 0 .53-.53.53.53 0 0 0-.53-.529m-4.08.024a15 15 0 0 0-.534.873.53.53 0 0 0 .38.162.53.53 0 0 0 .53-.53.53.53 0 0 0-.375-.505m.905 1.035a.53.53 0 0 0-.53.529.53.53 0 0 0 .53.53.53.53 0 0 0 .53-.53.53.53 0 0 0-.53-.53m2.117 0a.53.53 0 0 0-.53.529.53.53 0 0 0 .53.53.53.53 0 0 0 .529-.53.53.53 0 0 0-.53-.53m-3.77.276a15 15 0 0 0-.374.774.53.53 0 0 0 .44-.521.53.53 0 0 0-.065-.253m.595.782a.53.53 0 0 0-.53.53.53.53 0 0 0 .53.528.53.53 0 0 0 .529-.529.53.53 0 0 0-.53-.529m2.116 0a.53.53 0 0 0-.529.53.53.53 0 0 0 .53.528.53.53 0 0 0 .529-.529.53.53 0 0 0-.53-.529m2.117 0a.53.53 0 0 0-.53.53.53.53 0 0 0 .53.528.53.53 0 0 0 .53-.529.53.53 0 0 0-.53-.529m-5.292 1.058a.53.53 0 0 0-.376.158 15 15 0 0 0-.15.428.53.53 0 0 0 .526.473.53.53 0 0 0 .53-.53.53.53 0 0 0-.53-.529m2.117 0a.53.53 0 0 0-.53.53.53.53 0 0 0 .53.529.53.53 0 0 0 .53-.53.53.53 0 0 0-.53-.529m2.117 0a.53.53 0 0 0-.53.53.53.53 0 0 0 .53.529.53.53 0 0 0 .529-.53.53.53 0 0 0-.53-.529m-3.175 1.059a.53.53 0 0 0-.53.529.53.53 0 0 0 .53.53.53.53 0 0 0 .529-.53.53.53 0 0 0-.53-.53m2.116 0a.53.53 0 0 0-.529.529.53.53 0 0 0 .53.53.53.53 0 0 0 .529-.53.53.53 0 0 0-.53-.53m2.117 0a.53.53 0 0 0-.53.529.53.53 0 0 0 .53.53.53.53 0 0 0 .53-.53.53.53 0 0 0-.53-.53m-5.977.154a15 15 0 0 0-.214.879.53.53 0 0 0 .37-.504.53.53 0 0 0-.156-.375m.685.904a.53.53 0 0 0-.529.53.53.53 0 0 0 .53.528.53.53 0 0 0 .529-.529.53.53 0 0 0-.53-.529m2.117 0a.53.53 0 0 0-.53.53.53.53 0 0 0 .53.528.53.53 0 0 0 .53-.529.53.53 0 0 0-.53-.529m2.117 0a.53.53 0 0 0-.53.53.53.53 0 0 0 .53.528.53.53 0 0 0 .529-.529.53.53 0 0 0-.53-.529m-5.297 1.058a15 15 0 0 0-.084 1.051 1 1 0 0 0 .09.008.53.53 0 0 0 .528-.53.53.53 0 0 0-.529-.528zm2.122 0a.53.53 0 0 0-.53.53.53.53 0 0 0 .53.529.53.53 0 0 0 .529-.53.53.53 0 0 0-.53-.529m2.116 0a.53.53 0 0 0-.529.53.53.53 0 0 0 .53.529.53.53 0 0 0 .529-.53.53.53 0 0 0-.53-.529m2.117 0a.53.53 0 0 0-.53.53.53.53 0 0 0 .53.529.53.53 0 0 0 .53-.53.53.53 0 0 0-.53-.529m-5.292 1.059a.53.53 0 0 0-.529.529.53.53 0 0 0 .53.53.53.53 0 0 0 .529-.53.53.53 0 0 0-.53-.53m2.117 0a.53.53 0 0 0-.53.529.53.53 0 0 0 .53.53.53.53 0 0 0 .53-.53.53.53 0 0 0-.53-.53m2.117 0a.53.53 0 0 0-.53.529.53.53 0 0 0 .53.53.53.53 0 0 0 .529-.53.53.53 0 0 0-.53-.53m-5.292 1.058a.5.5 0 0 0-.117.014 15 15 0 0 0 .061 1.041l.056.003a.53.53 0 0 0 .53-.529.53.53 0 0 0-.53-.529m2.117 0a.53.53 0 0 0-.53.53.53.53 0 0 0 .53.528.53.53 0 0 0 .529-.529.53.53 0 0 0-.53-.529m2.116 0a.53.53 0 0 0-.529.53.53.53 0 0 0 .53.528.53.53 0 0 0 .529-.529.53.53 0 0 0-.53-.529m2.117 0a.53.53 0 0 0-.53.53.53.53 0 0 0 .53.528.53.53 0 0 0 .53-.529.53.53 0 0 0-.53-.529m-5.292 1.058a.53.53 0 0 0-.529.53.53.53 0 0 0 .53.529.53.53 0 0 0 .529-.53.53.53 0 0 0-.53-.529m2.117 0a.53.53 0 0 0-.53.53.53.53 0 0 0 .53.529.53.53 0 0 0 .53-.53.53.53 0 0 0-.53-.529m2.117 0a.53.53 0 0 0-.53.53.53.53 0 0 0 .53.529.53.53 0 0 0 .529-.53.53.53 0 0 0-.53-.529m-3.175 1.059a.53.53 0 0 0-.53.529.53.53 0 0 0 .53.53.53.53 0 0 0 .529-.53.53.53 0 0 0-.53-.53m2.116 0a.53.53 0 0 0-.529.529.53.53 0 0 0 .53.53.53.53 0 0 0 .529-.53.53.53 0 0 0-.53-.53m2.117 0a.53.53 0 0 0-.53.529.53.53 0 0 0 .53.53.53.53 0 0 0 .53-.53.53.53 0 0 0-.53-.53m-6.277.006a15 15 0 0 0 .203.974.53.53 0 0 0 .253-.45.53.53 0 0 0-.456-.524m.985 1.052a.53.53 0 0 0-.529.53.53.53 0 0 0 .53.529.53.53 0 0 0 .529-.53.53.53 0 0 0-.53-.529m2.117 0a.53.53 0 0 0-.53.53.53.53 0 0 0 .53.529.53.53 0 0 0 .53-.53.53.53 0 0 0-.53-.529m2.117 0a.53.53 0 0 0-.53.53.53.53 0 0 0 .53.529.53.53 0 0 0 .529-.53.53.53 0 0 0-.53-.529m-3.175 1.059a.53.53 0 0 0-.53.529.53.53 0 0 0 .53.53.53.53 0 0 0 .529-.53.53.53 0 0 0-.53-.53m2.116 0a.53.53 0 0 0-.529.529.53.53 0 0 0 .53.53.53.53 0 0 0 .529-.53.53.53 0 0 0-.53-.53m2.117 0a.53.53 0 0 0-.53.529.53.53 0 0 0 .53.53.53.53 0 0 0 .53-.53.53.53 0 0 0-.53-.53m-5.292 1.058a.5.5 0 0 0-.11.012 15 15 0 0 0 .424.943.53.53 0 0 0 .216-.426.53.53 0 0 0-.53-.529m2.117 0a.53.53 0 0 0-.53.53.53.53 0 0 0 .53.528.53.53 0 0 0 .53-.529.53.53 0 0 0-.53-.529m2.117 0a.53.53 0 0 0-.53.53.53.53 0 0 0 .53.528.53.53 0 0 0 .529-.529.53.53 0 0 0-.53-.529m-3.175 1.058a.53.53 0 0 0-.509.384 15 15 0 0 0 .378.658.5.5 0 0 0 .13.017.53.53 0 0 0 .53-.53.53.53 0 0 0-.53-.529m2.116 0a.53.53 0 0 0-.529.53.53.53 0 0 0 .53.529.53.53 0 0 0 .529-.53.53.53 0 0 0-.53-.529m2.117 0a.53.53 0 0 0-.53.53.53.53 0 0 0 .53.529.53.53 0 0 0 .53-.53.53.53 0 0 0-.53-.529m-3.175 1.059a.53.53 0 0 0-.53.529.53.53 0 0 0 .53.53.53.53 0 0 0 .53-.53.53.53 0 0 0-.53-.53m2.117 0a.53.53 0 0 0-.53.529.53.53 0 0 0 .53.53.53.53 0 0 0 .529-.53.53.53 0 0 0-.53-.53m-1.059 1.058a.53.53 0 0 0-.529.53.53.53 0 0 0 .53.528.53.53 0 0 0 .529-.529.53.53 0 0 0-.53-.529m2.117 0a.53.53 0 0 0-.53.53.53.53 0 0 0 .53.528.53.53 0 0 0 .53-.529.53.53 0 0 0-.53-.529m-1.058 1.058a.53.53 0 0 0-.53.53.53.53 0 0 0 .53.529.53.53 0 0 0 .529-.53.53.53 0 0 0-.53-.529m1.058 1.059a.53.53 0 0 0-.53.529.53.53 0 0 0 .53.53.53.53 0 0 0 .53-.53.53.53 0 0 0-.53-.53" style="display:inline;opacity:.96;fill:url(#application_x_audacity_project_r);fill-opacity:1;stroke:none;stroke-width:5.29167;stroke-linecap:butt;stroke-linejoin:bevel;stroke-miterlimit:4;stroke-dasharray:none;stroke-dashoffset:0;stroke-opacity:1;marker:none;marker-start:none;marker-mid:none;marker-end:none;paint-order:normal;enable-background:new"/><path d="M169.932 139.956a23.95 23.95 0 0 0-12.851 3.77 4.97 4.97 0 0 0-2.285 4.18v33.248c0 1.688.857 3.26 2.275 4.175a23.95 23.95 0 0 0 12.852 3.798h.015c5.46-.006 9.774-1.962 13.986-5.435a4.97 4.97 0 0 0 1.807-3.834V149.22a4.97 4.97 0 0 0-1.809-3.835c-4.213-3.47-8.527-5.424-13.986-5.429z" style="opacity:.96;fill:url(#application_x_audacity_project_s);fill-opacity:1;stroke:none;stroke-width:.264583;stroke-linecap:butt;stroke-linejoin:bevel;stroke-miterlimit:4;stroke-dasharray:none;stroke-dashoffset:0;stroke-opacity:1;marker:none;marker-start:none;marker-mid:none;marker-end:none;paint-order:normal"/><path d="M174.89 140.556v47.97c3.275-.825 6.179-2.48 9.034-4.834a4.97 4.97 0 0 0 1.807-3.834V149.22a4.97 4.97 0 0 0-1.809-3.835c-2.855-2.352-5.758-4.005-9.032-4.83" style="opacity:.96;fill:url(#application_x_audacity_project_t);fill-opacity:1;stroke:none;stroke-width:.264583;stroke-linecap:butt;stroke-linejoin:bevel;stroke-miterlimit:4;stroke-dasharray:none;stroke-dashoffset:0;stroke-opacity:1;marker:none;marker-start:none;marker-mid:none;marker-end:none;paint-order:normal"/><path d="M196.963 5.215A2.5 2.5 0 0 0 194.5 7.75v121.5a2.5 2.5 0 1 0 5 0V7.75a2.5 2.5 0 0 0-2.537-2.535" style="color:#000;font-style:normal;font-variant:normal;font-weight:400;font-stretch:normal;font-size:medium;line-height:normal;font-family:sans-serif;font-variant-ligatures:normal;font-variant-position:normal;font-variant-caps:normal;font-variant-numeric:normal;font-variant-alternates:normal;font-feature-settings:normal;text-indent:0;text-align:start;text-decoration:none;text-decoration-line:none;text-decoration-style:solid;text-decoration-color:#000;letter-spacing:normal;word-spacing:normal;text-transform:none;writing-mode:lr-tb;direction:ltr;text-orientation:mixed;dominant-baseline:auto;baseline-shift:baseline;text-anchor:start;white-space:normal;shape-padding:0;clip-rule:nonzero;display:inline;overflow:visible;visibility:visible;opacity:.44352;isolation:auto;mix-blend-mode:normal;color-interpolation:sRGB;color-interpolation-filters:linearRGB;solid-color:#000;solid-opacity:1;fill:url(#application_x_audacity_project_u);fill-opacity:.987395;fill-rule:nonzero;stroke:none;stroke-width:5;stroke-linecap:round;stroke-linejoin:bevel;stroke-miterlimit:4;stroke-dasharray:none;stroke-dashoffset:0;stroke-opacity:1;marker:none;paint-order:normal;filter:url(#application_x_audacity_project_v);color-rendering:auto;image-rendering:auto;shape-rendering:auto;text-rendering:auto;enable-background:accumulate" transform="translate(131.86 145.925)scale(.26458)"/><path d="M155.734 147.976v32.147" style="opacity:.17952;fill:none;fill-opacity:.252101;stroke:url(#application_x_audacity_project_w);stroke-width:1.32292;stroke-linecap:round;stroke-linejoin:bevel;stroke-miterlimit:4;stroke-dasharray:none;stroke-dashoffset:0;stroke-opacity:.987395;marker:none;marker-start:none;marker-mid:none;marker-end:none;paint-order:normal"/></g><g transform="matrix(-.5139 0 0 .5139 170.128 4.546)"><circle cx="163.291" cy="164.683" r="15.154" style="opacity:.96;fill:url(#application_x_audacity_project_x);fill-opacity:1;stroke:none;stroke-width:.264583;stroke-linecap:butt;stroke-linejoin:bevel;stroke-miterlimit:4;stroke-dasharray:none;stroke-dashoffset:0;stroke-opacity:1;marker:none;marker-start:none;marker-mid:none;marker-end:none;paint-order:normal"/><path d="M154.622 152.276a15 15 0 0 0-.51.364.5.5 0 0 0-.027.164.53.53 0 0 0 .53.53.53.53 0 0 0 .528-.53.53.53 0 0 0-.521-.528m-1.066 1.057a.53.53 0 0 0-.53.53.53.53 0 0 0 .53.529.53.53 0 0 0 .529-.53.53.53 0 0 0-.53-.529m-1.059 1.059a.53.53 0 0 0-.529.529.53.53 0 0 0 .53.53.53.53 0 0 0 .529-.53.53.53 0 0 0-.53-.53m2.117 0a.53.53 0 0 0-.53.529.53.53 0 0 0 .53.53.53.53 0 0 0 .53-.53.53.53 0 0 0-.53-.53m-3.175 1.058a.5.5 0 0 0-.16.026 15 15 0 0 0-.368.483l-.001.02a.53.53 0 0 0 .53.53.53.53 0 0 0 .528-.53.53.53 0 0 0-.529-.529m2.117 0a.53.53 0 0 0-.53.53.53.53 0 0 0 .53.528.53.53 0 0 0 .529-.529.53.53 0 0 0-.53-.529m-1.059 1.058a.53.53 0 0 0-.529.53.53.53 0 0 0 .53.529.53.53 0 0 0 .529-.53.53.53 0 0 0-.53-.529m2.117 0a.53.53 0 0 0-.53.53.53.53 0 0 0 .53.529.53.53 0 0 0 .53-.53.53.53 0 0 0-.53-.529m-4.08.024a15 15 0 0 0-.534.873.53.53 0 0 0 .38.162.53.53 0 0 0 .53-.53.53.53 0 0 0-.375-.505m.905 1.035a.53.53 0 0 0-.53.529.53.53 0 0 0 .53.53.53.53 0 0 0 .53-.53.53.53 0 0 0-.53-.53m2.117 0a.53.53 0 0 0-.53.529.53.53 0 0 0 .53.53.53.53 0 0 0 .529-.53.53.53 0 0 0-.53-.53m-3.77.276a15 15 0 0 0-.374.774.53.53 0 0 0 .44-.521.53.53 0 0 0-.065-.253m.595.782a.53.53 0 0 0-.53.53.53.53 0 0 0 .53.528.53.53 0 0 0 .529-.529.53.53 0 0 0-.53-.529m2.116 0a.53.53 0 0 0-.529.53.53.53 0 0 0 .53.528.53.53 0 0 0 .529-.529.53.53 0 0 0-.53-.529m2.117 0a.53.53 0 0 0-.53.53.53.53 0 0 0 .53.528.53.53 0 0 0 .53-.529.53.53 0 0 0-.53-.529m-5.292 1.058a.53.53 0 0 0-.376.158 15 15 0 0 0-.15.428.53.53 0 0 0 .526.473.53.53 0 0 0 .53-.53.53.53 0 0 0-.53-.529m2.117 0a.53.53 0 0 0-.53.53.53.53 0 0 0 .53.529.53.53 0 0 0 .53-.53.53.53 0 0 0-.53-.529m2.117 0a.53.53 0 0 0-.53.53.53.53 0 0 0 .53.529.53.53 0 0 0 .529-.53.53.53 0 0 0-.53-.529m-3.175 1.059a.53.53 0 0 0-.53.529.53.53 0 0 0 .53.53.53.53 0 0 0 .529-.53.53.53 0 0 0-.53-.53m2.116 0a.53.53 0 0 0-.529.529.53.53 0 0 0 .53.53.53.53 0 0 0 .529-.53.53.53 0 0 0-.53-.53m2.117 0a.53.53 0 0 0-.53.529.53.53 0 0 0 .53.53.53.53 0 0 0 .53-.53.53.53 0 0 0-.53-.53m-5.977.154a15 15 0 0 0-.214.879.53.53 0 0 0 .37-.504.53.53 0 0 0-.156-.375m.685.904a.53.53 0 0 0-.529.53.53.53 0 0 0 .53.528.53.53 0 0 0 .529-.529.53.53 0 0 0-.53-.529m2.117 0a.53.53 0 0 0-.53.53.53.53 0 0 0 .53.528.53.53 0 0 0 .53-.529.53.53 0 0 0-.53-.529m2.117 0a.53.53 0 0 0-.53.53.53.53 0 0 0 .53.528.53.53 0 0 0 .529-.529.53.53 0 0 0-.53-.529m-5.297 1.058a15 15 0 0 0-.084 1.051 1 1 0 0 0 .09.008.53.53 0 0 0 .528-.53.53.53 0 0 0-.529-.528zm2.122 0a.53.53 0 0 0-.53.53.53.53 0 0 0 .53.529.53.53 0 0 0 .529-.53.53.53 0 0 0-.53-.529m2.116 0a.53.53 0 0 0-.529.53.53.53 0 0 0 .53.529.53.53 0 0 0 .529-.53.53.53 0 0 0-.53-.529m2.117 0a.53.53 0 0 0-.53.53.53.53 0 0 0 .53.529.53.53 0 0 0 .53-.53.53.53 0 0 0-.53-.529m-5.292 1.059a.53.53 0 0 0-.529.529.53.53 0 0 0 .53.53.53.53 0 0 0 .529-.53.53.53 0 0 0-.53-.53m2.117 0a.53.53 0 0 0-.53.529.53.53 0 0 0 .53.53.53.53 0 0 0 .53-.53.53.53 0 0 0-.53-.53m2.117 0a.53.53 0 0 0-.53.529.53.53 0 0 0 .53.53.53.53 0 0 0 .529-.53.53.53 0 0 0-.53-.53m-5.292 1.058a.5.5 0 0 0-.117.014 15 15 0 0 0 .061 1.041l.056.003a.53.53 0 0 0 .53-.529.53.53 0 0 0-.53-.529m2.117 0a.53.53 0 0 0-.53.53.53.53 0 0 0 .53.528.53.53 0 0 0 .529-.529.53.53 0 0 0-.53-.529m2.116 0a.53.53 0 0 0-.529.53.53.53 0 0 0 .53.528.53.53 0 0 0 .529-.529.53.53 0 0 0-.53-.529m2.117 0a.53.53 0 0 0-.53.53.53.53 0 0 0 .53.528.53.53 0 0 0 .53-.529.53.53 0 0 0-.53-.529m-5.292 1.058a.53.53 0 0 0-.529.53.53.53 0 0 0 .53.529.53.53 0 0 0 .529-.53.53.53 0 0 0-.53-.529m2.117 0a.53.53 0 0 0-.53.53.53.53 0 0 0 .53.529.53.53 0 0 0 .53-.53.53.53 0 0 0-.53-.529m2.117 0a.53.53 0 0 0-.53.53.53.53 0 0 0 .53.529.53.53 0 0 0 .529-.53.53.53 0 0 0-.53-.529m-3.175 1.059a.53.53 0 0 0-.53.529.53.53 0 0 0 .53.53.53.53 0 0 0 .529-.53.53.53 0 0 0-.53-.53m2.116 0a.53.53 0 0 0-.529.529.53.53 0 0 0 .53.53.53.53 0 0 0 .529-.53.53.53 0 0 0-.53-.53m2.117 0a.53.53 0 0 0-.53.529.53.53 0 0 0 .53.53.53.53 0 0 0 .53-.53.53.53 0 0 0-.53-.53m-6.277.006a15 15 0 0 0 .203.974.53.53 0 0 0 .253-.45.53.53 0 0 0-.456-.524m.985 1.052a.53.53 0 0 0-.529.53.53.53 0 0 0 .53.529.53.53 0 0 0 .529-.53.53.53 0 0 0-.53-.529m2.117 0a.53.53 0 0 0-.53.53.53.53 0 0 0 .53.529.53.53 0 0 0 .53-.53.53.53 0 0 0-.53-.529m2.117 0a.53.53 0 0 0-.53.53.53.53 0 0 0 .53.529.53.53 0 0 0 .529-.53.53.53 0 0 0-.53-.529m-3.175 1.059a.53.53 0 0 0-.53.529.53.53 0 0 0 .53.53.53.53 0 0 0 .529-.53.53.53 0 0 0-.53-.53m2.116 0a.53.53 0 0 0-.529.529.53.53 0 0 0 .53.53.53.53 0 0 0 .529-.53.53.53 0 0 0-.53-.53m2.117 0a.53.53 0 0 0-.53.529.53.53 0 0 0 .53.53.53.53 0 0 0 .53-.53.53.53 0 0 0-.53-.53m-5.292 1.058a.5.5 0 0 0-.11.012 15 15 0 0 0 .424.943.53.53 0 0 0 .216-.426.53.53 0 0 0-.53-.529m2.117 0a.53.53 0 0 0-.53.53.53.53 0 0 0 .53.528.53.53 0 0 0 .53-.529.53.53 0 0 0-.53-.529m2.117 0a.53.53 0 0 0-.53.53.53.53 0 0 0 .53.528.53.53 0 0 0 .529-.529.53.53 0 0 0-.53-.529m-3.175 1.058a.53.53 0 0 0-.509.384 15 15 0 0 0 .378.658.5.5 0 0 0 .13.017.53.53 0 0 0 .53-.53.53.53 0 0 0-.53-.529m2.116 0a.53.53 0 0 0-.529.53.53.53 0 0 0 .53.529.53.53 0 0 0 .529-.53.53.53 0 0 0-.53-.529m2.117 0a.53.53 0 0 0-.53.53.53.53 0 0 0 .53.529.53.53 0 0 0 .53-.53.53.53 0 0 0-.53-.529m-3.175 1.059a.53.53 0 0 0-.53.529.53.53 0 0 0 .53.53.53.53 0 0 0 .53-.53.53.53 0 0 0-.53-.53m2.117 0a.53.53 0 0 0-.53.529.53.53 0 0 0 .53.53.53.53 0 0 0 .529-.53.53.53 0 0 0-.53-.53m-1.059 1.058a.53.53 0 0 0-.529.53.53.53 0 0 0 .53.528.53.53 0 0 0 .529-.529.53.53 0 0 0-.53-.529m2.117 0a.53.53 0 0 0-.53.53.53.53 0 0 0 .53.528.53.53 0 0 0 .53-.529.53.53 0 0 0-.53-.529m-1.058 1.058a.53.53 0 0 0-.53.53.53.53 0 0 0 .53.529.53.53 0 0 0 .529-.53.53.53 0 0 0-.53-.529m1.058 1.059a.53.53 0 0 0-.53.529.53.53 0 0 0 .53.53.53.53 0 0 0 .53-.53.53.53 0 0 0-.53-.53" style="display:inline;opacity:.96;fill:url(#application_x_audacity_project_y);fill-opacity:1;stroke:none;stroke-width:5.29167;stroke-linecap:butt;stroke-linejoin:bevel;stroke-miterlimit:4;stroke-dasharray:none;stroke-dashoffset:0;stroke-opacity:1;marker:none;marker-start:none;marker-mid:none;marker-end:none;paint-order:normal;enable-background:new"/><path d="M169.932 139.956a23.95 23.95 0 0 0-12.851 3.77 4.97 4.97 0 0 0-2.285 4.18v33.248c0 1.688.857 3.26 2.275 4.175a23.95 23.95 0 0 0 12.852 3.798h.015c5.46-.006 9.774-1.962 13.986-5.435a4.97 4.97 0 0 0 1.807-3.834V149.22a4.97 4.97 0 0 0-1.809-3.835c-4.213-3.47-8.527-5.424-13.986-5.429z" style="opacity:.96;fill:url(#application_x_audacity_project_z);fill-opacity:1;stroke:none;stroke-width:.264583;stroke-linecap:butt;stroke-linejoin:bevel;stroke-miterlimit:4;stroke-dasharray:none;stroke-dashoffset:0;stroke-opacity:1;marker:none;marker-start:none;marker-mid:none;marker-end:none;paint-order:normal"/><path d="M174.89 140.556v47.97c3.275-.825 6.179-2.48 9.034-4.834a4.97 4.97 0 0 0 1.807-3.834V149.22a4.97 4.97 0 0 0-1.809-3.835c-2.855-2.352-5.758-4.005-9.032-4.83" style="opacity:.96;fill:url(#application_x_audacity_project_A);fill-opacity:1;stroke:none;stroke-width:.264583;stroke-linecap:butt;stroke-linejoin:bevel;stroke-miterlimit:4;stroke-dasharray:none;stroke-dashoffset:0;stroke-opacity:1;marker:none;marker-start:none;marker-mid:none;marker-end:none;paint-order:normal"/><path d="M196.963 5.215A2.5 2.5 0 0 0 194.5 7.75v121.5a2.5 2.5 0 1 0 5 0V7.75a2.5 2.5 0 0 0-2.537-2.535" style="color:#000;font-style:normal;font-variant:normal;font-weight:400;font-stretch:normal;font-size:medium;line-height:normal;font-family:sans-serif;font-variant-ligatures:normal;font-variant-position:normal;font-variant-caps:normal;font-variant-numeric:normal;font-variant-alternates:normal;font-feature-settings:normal;text-indent:0;text-align:start;text-decoration:none;text-decoration-line:none;text-decoration-style:solid;text-decoration-color:#000;letter-spacing:normal;word-spacing:normal;text-transform:none;writing-mode:lr-tb;direction:ltr;text-orientation:mixed;dominant-baseline:auto;baseline-shift:baseline;text-anchor:start;white-space:normal;shape-padding:0;clip-rule:nonzero;display:inline;overflow:visible;visibility:visible;opacity:.44352;isolation:auto;mix-blend-mode:normal;color-interpolation:sRGB;color-interpolation-filters:linearRGB;solid-color:#000;solid-opacity:1;fill:url(#application_x_audacity_project_B);fill-opacity:.987395;fill-rule:nonzero;stroke:none;stroke-width:5;stroke-linecap:round;stroke-linejoin:bevel;stroke-miterlimit:4;stroke-dasharray:none;stroke-dashoffset:0;stroke-opacity:1;marker:none;paint-order:normal;filter:url(#application_x_audacity_project_C);color-rendering:auto;image-rendering:auto;shape-rendering:auto;text-rendering:auto;enable-background:accumulate" transform="translate(131.86 145.925)scale(.26458)"/><path d="M155.734 147.976v32.147" style="opacity:.17952;fill:none;fill-opacity:.252101;stroke:url(#application_x_audacity_project_D);stroke-width:1.32292;stroke-linecap:round;stroke-linejoin:bevel;stroke-miterlimit:4;stroke-dasharray:none;stroke-dashoffset:0;stroke-opacity:.987395;marker:none;marker-start:none;marker-mid:none;marker-end:none;paint-order:normal"/></g></svg>