<?xml version="1.0" encoding="UTF-8" standalone="no"?>
<svg
   height="128px"
   viewBox="0 0 128 128"
   width="128px"
   version="1.1"
   id="application_x_cson_svg35"
   xml:space="preserve"
   xmlns="http://www.w3.org/2000/svg"
   xmlns:svg="http://www.w3.org/2000/svg"><defs
     id="application_x_cson_defs39" /><linearGradient
     id="application_x_cson_a"
     gradientUnits="userSpaceOnUse"
     x1="36"
     x2="60"
     y1="68"
     y2="68"><stop
       offset="0"
       stop-color="#ed336c"
       id="application_x_cson_stop2" /><stop
       offset="1"
       stop-color="#ffa348"
       id="application_x_cson_stop4" /></linearGradient><linearGradient
     id="application_x_cson_b"
     gradientTransform="matrix(0 1 -1 0 144 -32)"
     gradientUnits="userSpaceOnUse"
     x1="72"
     x2="96"
     y1="68"
     y2="68"><stop
       offset="0"
       stop-color="#404ce6"
       id="application_x_cson_stop7" /><stop
       offset="1"
       stop-color="#c061cb"
       id="application_x_cson_stop9" /></linearGradient><linearGradient
     id="application_x_cson_c"
     gradientUnits="userSpaceOnUse"
     x1="68.84919"
     x2="95.257637"
     y1="84"
     y2="84"><stop
       offset="0"
       stop-color="#33d1c6"
       id="application_x_cson_stop12" /><stop
       offset="1"
       stop-color="#1c25d8"
       id="application_x_cson_stop14" /></linearGradient><g
     id="application_x_cson_g27623"
     transform="translate(-42.84528,135.33545)"
     style="stroke-width:0.25" /><g
     style="stroke-width:2.62472"
     transform="matrix(0.0952482,0,0,0.0952482,498.72128,-49.974552)"
     id="application_x_cson_g27623-5" /><g
     id="application_x_cson_g1893"
     transform="matrix(0.0952482,0,0,0.0952482,-624.92113,-414.82765)"
     style="stroke-width:2.62472" /><g
     style="stroke-width:0.25"
     transform="matrix(0.2447541,0,0,0.2447541,-257.6935,146.47785)"
     id="application_x_cson_g1879" /><g
     transform="matrix(0.5,0,0,0.5,-638.4877,-382.02941)"
     id="application_x_cson_g15395"
     style="display:inline;fill:#c0bfbc;stroke-width:2;enable-background:new" /><g
     style="display:inline;fill:#deddda;stroke-width:2;enable-background:new"
     id="application_x_cson_g15401"
     transform="matrix(0.5,0,0,0.5,-638.4877,-381.02941)" /><g
     style="display:inline;fill:#c0bfbc;stroke-width:2;enable-background:new"
     id="application_x_cson_g15421"
     transform="matrix(0.5,0,0,0.5,-641.4877,-345.02941)" /><g
     transform="matrix(0.5,0,0,0.5,-641.4877,-344.02941)"
     id="application_x_cson_g15423"
     style="display:inline;fill:#deddda;stroke-width:2;enable-background:new" /><g
     id="application_x_cson_g4417"
     transform="matrix(0.2447541,0,0,0.2447541,-413.21244,146.47785)"
     style="stroke-width:0.25" /><g
     style="stroke-width:2.62472"
     transform="matrix(0.0952482,0,0,0.0952482,-597.94532,-105.8707)"
     id="application_x_cson_g4431" /><g
     aria-label="{}"
     id="application_x_cson_text6392"
     style="font-size:56px;line-height:1.25;font-family:Cantarell;-inkscape-font-specification:Cantarell;letter-spacing:-2px"
     transform="translate(-258.3226,94.213748)" /><text
     xml:space="preserve"
     style="font-size:56px;line-height:1.25;font-family:'Source Code Pro';-inkscape-font-specification:'Source Code Pro'"
     x="-223.57693"
     y="135.18233"
     id="application_x_cson_text18928"><tspan
       id="application_x_cson_tspan18926" /></text><path
     style="display:inline;fill:#3e2723;fill-opacity:1;stroke:none;stroke-width:0.125;stroke-linejoin:round;stroke-miterlimit:4;stroke-dasharray:none;stroke-opacity:1;enable-background:new"
     clip-path="none"
     d="m 27.977951,8.000005 h 50 l 30.042899,29.917895 0.001,74.06 c 7e-5,4.432 -3.6122,8.0221 -8.044199,8.0221 h -72 c -4.431997,0 -7.999997,-3.568 -7.999997,-8 V 16.000005 c 0,-4.432 3.568,-8 7.999997,-8 z"
     id="application_x_cson_rect2069" /><path
     style="display:inline;vector-effect:none;fill:#ffffff;fill-opacity:0.30000001;stroke:none;stroke-width:0.125;stroke-linecap:butt;stroke-linejoin:round;stroke-miterlimit:4;stroke-dasharray:none;stroke-dashoffset:0;stroke-opacity:1;enable-background:new"
     d="m 77.977951,8.000005 v 22.000003 c 0,4.431999 3.610528,7.923447 8.042528,7.923447 l 22.000371,-0.0056 z"
     id="application_x_cson_rect26812" /><path
     id="application_x_cson_path26"
     style="fill:#e9dec3;stroke-width:1.87172"
     d="m 35.999753,43.997935 v 5.255 h 23.999999 v -5.255 z m 0,10.948906 v 5.255 h 11.999999 v -5.255 z m 0,10.948906 v 5.255 h 23.999999 v -5.255 z m 11.999999,10.948905 v 5.255 h 6 v -5.255 z M 35.999753,87.793553 v 5.255 h 11.999999 v -5.255 z m 0,10.948906 v 5.255001 h 11.999999 v -5.255001 z" /><path
     id="application_x_cson_path27"
     style="fill:#e0ae52;stroke-width:1.87172"
     d="m 65.999752,43.997935 v 5.255 h 12 v -5.255 z m -12,10.948906 v 5.255 h 37.999999 v -5.255 z m 12,10.948906 v 5.255 h 12 v -5.255 z m -6,10.948905 v 5.255 h 24 v -5.255 z m -6,10.948901 v 5.255 h 37.999999 v -5.255 z m 0,10.948906 v 5.255001 h 30 v -5.255001 z" /></svg>
