<svg xmlns="http://www.w3.org/2000/svg" width="128" height="128" viewBox="0 0 128 128"><path d="M27.978 8h50l30.043 29.918.001 74.06c0 4.432-3.612 8.022-8.044 8.022h-72c-4.432 0-8-3.568-8-8V16c0-4.432 3.568-8 8-8" style="display:inline;fill:#666;fill-opacity:1;stroke:none;stroke-width:.125;stroke-linejoin:round;stroke-miterlimit:4;stroke-dasharray:none;stroke-opacity:1"/><g aria-label="01101100 01100001 01101110 01100111" style="font-size:14.6667px;line-height:1.25;font-family:&quot;Source Code Pro&quot;;-inkscape-font-specification:&quot;Source Code Pro&quot;;fill:#fff;fill-opacity:.2"><path d="M229.484 57.92c2.083 0 3.359-1.774 3.359-4.883 0-3.139-1.276-4.825-3.36-4.825-2.082 0-3.358 1.686-3.358 4.825 0 3.11 1.276 4.884 3.359 4.884m0-.967c-1.305 0-2.23-1.232-2.23-3.916 0-2.699.925-3.857 2.23-3.857s2.23 1.158 2.23 3.857c0 2.684-.925 3.916-2.23 3.916m0-3.036c.484 0 .91-.367.91-.983 0-.601-.426-.968-.91-.968s-.91.367-.91.968c0 .616.426.983.91.983m5.823 3.828h6.35v-.997h-2.45v-8.36h-.894c-.601.322-1.305.542-2.405.689v.777h2.097v6.894h-2.698zm8.8 0h6.35v-.997h-2.45v-8.36h-.894c-.601.322-1.305.542-2.405.689v.777h2.097v6.894h-2.698zm11.777.176c2.083 0 3.359-1.775 3.359-4.884 0-3.139-1.276-4.825-3.359-4.825s-3.359 1.686-3.359 4.825c0 3.11 1.276 4.884 3.359 4.884m0-.968c-1.305 0-2.23-1.232-2.23-3.916 0-2.699.925-3.857 2.23-3.857s2.23 1.158 2.23 3.857c0 2.684-.925 3.916-2.23 3.916m0-3.036c.484 0 .91-.367.91-.983 0-.601-.426-.968-.91-.968s-.91.367-.91.968c0 .616.426.983.91.983m5.823 3.828h6.35v-.997h-2.449v-8.36h-.895c-.601.322-1.305.542-2.405.689v.777h2.097v6.894h-2.698zm8.8 0h6.35v-.997h-2.449v-8.36h-.895c-.601.322-1.305.542-2.405.689v.777h2.097v6.894h-2.698zm11.777.176c2.083 0 3.359-1.775 3.359-4.884 0-3.139-1.276-4.825-3.359-4.825s-3.359 1.686-3.359 4.825c0 3.11 1.276 4.884 3.359 4.884m0-.968c-1.305 0-2.23-1.232-2.23-3.916 0-2.699.925-3.857 2.23-3.857s2.23 1.158 2.23 3.857c0 2.684-.925 3.916-2.23 3.916m0-3.036c.484 0 .91-.367.91-.983 0-.601-.426-.968-.91-.968s-.91.367-.91.968c0 .616.426.983.91.983m8.8 4.004c2.083 0 3.359-1.775 3.359-4.884 0-3.139-1.276-4.825-3.359-4.825s-3.359 1.686-3.359 4.825c0 3.11 1.276 4.884 3.36 4.884m0-.968c-1.305 0-2.23-1.232-2.23-3.916 0-2.699.925-3.857 2.23-3.857s2.23 1.158 2.23 3.857c0 2.684-.925 3.916-2.23 3.916m0-3.036c.484 0 .91-.367.91-.983 0-.601-.426-.968-.91-.968s-.91.367-.91.968c0 .616.426.983.91.983m-61.601 22.336c2.083 0 3.359-1.774 3.359-4.884 0-3.138-1.276-4.825-3.36-4.825-2.082 0-3.358 1.687-3.358 4.825 0 3.11 1.276 4.884 3.359 4.884m0-.968c-1.305 0-2.23-1.232-2.23-3.916 0-2.698.925-3.857 2.23-3.857s2.23 1.159 2.23 3.857c0 2.684-.925 3.916-2.23 3.916m0-3.036c.484 0 .91-.366.91-.982 0-.602-.426-.968-.91-.968s-.91.366-.91.968c0 .616.426.982.91.982m5.823 3.828h6.35v-.997h-2.45v-8.36h-.894c-.601.323-1.305.543-2.405.69v.777h2.097v6.893h-2.698zm8.8 0h6.35v-.997h-2.45v-8.36h-.894c-.601.323-1.305.543-2.405.69v.777h2.097v6.893h-2.698zm11.777.176c2.083 0 3.359-1.774 3.359-4.884 0-3.138-1.276-4.825-3.359-4.825s-3.359 1.687-3.359 4.825c0 3.11 1.276 4.884 3.359 4.884m0-.968c-1.305 0-2.23-1.232-2.23-3.916 0-2.698.925-3.857 2.23-3.857s2.23 1.159 2.23 3.857c0 2.684-.925 3.916-2.23 3.916m0-3.036c.484 0 .91-.366.91-.982 0-.602-.426-.968-.91-.968s-.91.366-.91.968c0 .616.426.982.91.982m8.8 4.004c2.083 0 3.359-1.774 3.359-4.884 0-3.138-1.276-4.825-3.359-4.825s-3.359 1.687-3.359 4.825c0 3.11 1.276 4.884 3.359 4.884m0-.968c-1.305 0-2.23-1.232-2.23-3.916 0-2.698.925-3.857 2.23-3.857s2.23 1.159 2.23 3.857c0 2.684-.925 3.916-2.23 3.916m0-3.036c.484 0 .91-.366.91-.982 0-.602-.426-.968-.91-.968s-.91.366-.91.968c0 .616.426.982.91.982m8.8 4.004c2.083 0 3.359-1.774 3.359-4.884 0-3.138-1.276-4.825-3.359-4.825s-3.359 1.687-3.359 4.825c0 3.11 1.276 4.884 3.359 4.884m0-.968c-1.305 0-2.23-1.232-2.23-3.916 0-2.698.925-3.857 2.23-3.857s2.23 1.159 2.23 3.857c0 2.684-.925 3.916-2.23 3.916m0-3.036c.484 0 .91-.366.91-.982 0-.602-.426-.968-.91-.968s-.91.366-.91.968c0 .616.426.982.91.982m8.8 4.004c2.083 0 3.359-1.774 3.359-4.884 0-3.138-1.276-4.825-3.359-4.825s-3.359 1.687-3.359 4.825c0 3.11 1.276 4.884 3.359 4.884m0-.968c-1.305 0-2.23-1.232-2.23-3.916 0-2.698.925-3.857 2.23-3.857s2.23 1.159 2.23 3.857c0 2.684-.925 3.916-2.23 3.916m0-3.036c.484 0 .91-.366.91-.982 0-.602-.426-.968-.91-.968s-.91.366-.91.968c0 .616.426.982.91.982m5.823 3.828h6.35v-.997h-2.449v-8.36h-.895c-.6.323-1.305.543-2.405.69v.777h2.097v6.893h-2.698zm-58.623 18.51c2.083 0 3.359-1.775 3.359-4.884 0-3.139-1.276-4.826-3.36-4.826-2.082 0-3.358 1.687-3.358 4.826 0 3.109 1.276 4.884 3.359 4.884m0-.968c-1.305 0-2.23-1.232-2.23-3.916 0-2.699.925-3.858 2.23-3.858s2.23 1.159 2.23 3.858c0 2.684-.925 3.916-2.23 3.916m0-3.036c.484 0 .91-.367.91-.983 0-.601-.426-.968-.91-.968s-.91.367-.91.968c0 .616.426.983.91.983m5.823 3.828h6.35v-.998h-2.45v-8.36h-.894c-.601.323-1.305.543-2.405.69v.777h2.097v6.893h-2.698zm8.8 0h6.35v-.998h-2.45v-8.36h-.894c-.601.323-1.305.543-2.405.69v.777h2.097v6.893h-2.698zm11.777.176c2.083 0 3.359-1.775 3.359-4.884 0-3.139-1.276-4.826-3.359-4.826s-3.359 1.687-3.359 4.826c0 3.109 1.276 4.884 3.359 4.884m0-.968c-1.305 0-2.23-1.232-2.23-3.916 0-2.699.925-3.858 2.23-3.858s2.23 1.159 2.23 3.858c0 2.684-.925 3.916-2.23 3.916m0-3.036c.484 0 .91-.367.91-.983 0-.601-.426-.968-.91-.968s-.91.367-.91.968c0 .616.426.983.91.983m5.823 3.828h6.35v-.998h-2.449v-8.36h-.895c-.601.323-1.305.543-2.405.69v.777h2.097v6.893h-2.698zm8.8 0h6.35v-.998h-2.449v-8.36h-.895c-.601.323-1.305.543-2.405.69v.777h2.097v6.893h-2.698zm8.8 0h6.35v-.998h-2.449v-8.36h-.895c-.601.323-1.305.543-2.405.69v.777h2.097v6.893h-2.698zm11.777.176c2.083 0 3.359-1.775 3.359-4.884 0-3.139-1.276-4.826-3.359-4.826s-3.359 1.687-3.359 4.826c0 3.109 1.276 4.884 3.36 4.884m0-.968c-1.305 0-2.23-1.232-2.23-3.916 0-2.699.925-3.858 2.23-3.858s2.23 1.159 2.23 3.858c0 2.684-.925 3.916-2.23 3.916m0-3.036c.484 0 .91-.367.91-.983 0-.601-.426-.968-.91-.968s-.91.367-.91.968c0 .616.426.983.91.983m-61.601 22.337c2.083 0 3.359-1.775 3.359-4.884 0-3.139-1.276-4.825-3.36-4.825-2.082 0-3.358 1.686-3.358 4.825 0 3.11 1.276 4.884 3.359 4.884m0-.968c-1.305 0-2.23-1.232-2.23-3.916 0-2.699.925-3.857 2.23-3.857s2.23 1.158 2.23 3.857c0 2.684-.925 3.916-2.23 3.916m0-3.036c.484 0 .91-.367.91-.983 0-.6-.426-.968-.91-.968s-.91.367-.91.968c0 .616.426.983.91.983m5.823 3.828h6.35v-.997h-2.45v-8.36h-.894c-.601.322-1.305.542-2.405.689v.777h2.097v6.894h-2.698zm8.8 0h6.35v-.997h-2.45v-8.36h-.894c-.601.322-1.305.542-2.405.689v.777h2.097v6.894h-2.698zm11.777.176c2.083 0 3.359-1.775 3.359-4.884 0-3.139-1.276-4.825-3.359-4.825s-3.359 1.686-3.359 4.825c0 3.11 1.276 4.884 3.359 4.884m0-.968c-1.305 0-2.23-1.232-2.23-3.916 0-2.699.925-3.857 2.23-3.857s2.23 1.158 2.23 3.857c0 2.684-.925 3.916-2.23 3.916m0-3.036c.484 0 .91-.367.91-.983 0-.6-.426-.968-.91-.968s-.91.367-.91.968c0 .616.426.983.91.983m8.8 4.004c2.083 0 3.359-1.775 3.359-4.884 0-3.139-1.276-4.825-3.359-4.825s-3.359 1.686-3.359 4.825c0 3.11 1.276 4.884 3.359 4.884m0-.968c-1.305 0-2.23-1.232-2.23-3.916 0-2.699.925-3.857 2.23-3.857s2.23 1.158 2.23 3.857c0 2.684-.925 3.916-2.23 3.916m0-3.036c.484 0 .91-.367.91-.983 0-.6-.426-.968-.91-.968s-.91.367-.91.968c0 .616.426.983.91.983m5.823 3.828h6.35v-.997h-2.449v-8.36h-.895c-.601.322-1.305.542-2.405.689v.777h2.097v6.894h-2.698zm8.8 0h6.35v-.997h-2.449v-8.36h-.895c-.601.322-1.305.542-2.405.689v.777h2.097v6.894h-2.698zm8.8 0h6.35v-.997h-2.449v-8.36h-.895c-.6.322-1.305.542-2.405.689v.777h2.097v6.894h-2.698z" style="fill:#fff;fill-opacity:.2" transform="translate(-196.291 -7.254)"/></g><path fill="#c057ea" d="M80.04 56.448a.3.3 0 0 0-.093.016c-.632.214-1.392.442-2.392.714a.29.29 0 0 0-.213.278v3.787a.29.29 0 0 0 .29.288.28.28 0 0 0 .236-.125l.999-1.438a.44.44 0 0 1 .29-.182h.031c.144 0 .23.032.303.09l1.527 1.212c.052.04.115.063.179.063q.065 0 .125-.029a.29.29 0 0 0 .163-.26V57.29c0-.11.04-.213.115-.292a.29.29 0 0 0 .036-.34.285.285 0 0 0-.312-.137q-.202.045-.434.046a3 3 0 0 1-.777-.109.3.3 0 0 0-.073-.01m-2.408 6.635a.29.29 0 0 0-.29.288v1.582a.29.29 0 0 0 .206.276c1.572.475 2.728 1.12 3.433 1.916a.29.29 0 0 0 .318.08.29.29 0 0 0 .186-.27v-3.637a.288.288 0 0 0-.339-.282c-.212.038-.43.047-.641.047zm7.728-3.618a.29.29 0 0 0-.288.288v12.798c0 .159.13.288.288.288h3.412a.29.29 0 0 0 .288-.288V59.753a.29.29 0 0 0-.288-.288zM74.24 77.933a.43.43 0 0 1-.432-.431v-7.15a.29.29 0 0 0-.288-.289.29.29 0 0 0-.234.12 21.4 21.4 0 0 1-3.414 3.672.434.434 0 0 1-.598-.036l-.308-.332a.44.44 0 0 1-.114-.306c.002-.083-.048-1.497.003-1.568 1.676-2.373 3.154-4.419 4.025-8.177a.29.29 0 0 0-.281-.353h-3.034a.43.43 0 0 1-.419-.327l-.124-1.092c-.007-.027-.016-1.128-.017-1.156-.005-.103.144.54.209.457.082-.105.093.155.228.164l4.366.29c.158.01 0 .158 0 0v-3.027a.3.3 0 0 0-.104-.222.3.3 0 0 0-.238-.062c-1.275.235-2.55.248-3.827.396h-.008c-.237 0-.4-.122-.456-.302l-.251-.743a.44.44 0 0 1-.01-.217c.01-.044.042-.906.064-.945.05-.087.208.598.312.563 3.05-1.041 6.985-2.324 8.983-3.767a.43.43 0 0 1 .525.013c.959.68 2.568.9 2.876 2.04l.205.421a.43.43 0 0 1 .035.642 1 1 0 0 1-.148.122.288.288 0 0 0 .159.527.4.4 0 0 1 .163.036l2.612.916 4.071.023c.09 0 .177-.043.232-.115l1.014-.97a.43.43 0 0 1 .601-.09l3.154.946.003 1.582a.43.43 0 0 1-.073.24c-.155.234-.44.432-.846.59a.29.29 0 0 0-.186.267v15.475c0 .554-1.358 1.175-3.178 1.175a.43.43 0 0 1-.433-.43v-1.744a.29.29 0 0 0-.288-.288H85.36a.29.29 0 0 0-.288.288v1.153c0 .318-.535 1.509-3.155 1.509a.43.43 0 0 1-.432-.432v-6.321a.288.288 0 0 0-.463-.227c-.29.22-.636.336-1.004.336-.471 0-.932-.211-1.333-.613a.43.43 0 0 1-.122-.246c-.078-.553-.312-1.21-.678-1.897a.29.29 0 0 0-.324-.146.29.29 0 0 0-.219.28v8.578c-.084.622-1.307 1.2-2.614 1.2z" style="fill:#585858;fill-opacity:1;fill-rule:evenodd;stroke:none;stroke-width:.981132"/><path d="M77.978 8v22c0 4.432 3.61 7.923 8.043 7.923l22-.005z" style="display:inline;vector-effect:none;fill:#9a9996;fill-opacity:1;stroke:none;stroke-width:.125;stroke-linecap:butt;stroke-linejoin:round;stroke-miterlimit:4;stroke-dasharray:none;stroke-dashoffset:0;stroke-opacity:1"/><path d="M49.907 102.072h-9.141l-1.64 4.677h-5.124L34 105.117l8.675-21.564h5.558l8.466 21.564-.028 1.632h-5.157zm-1.373-3.978-3.18-9.068-3.182 9.068z" style="font-style:normal;font-variant:normal;font-weight:700;font-stretch:normal;font-size:40px;line-height:0%;font-family:FreeSans;-inkscape-font-specification:&quot;FreeSans Bold&quot;;text-align:center;text-anchor:middle;fill:#585858;fill-opacity:1;stroke:none;stroke-width:1.10453"/><path d="M49.911 100.44h-9.14l-1.641 4.677h-5.123l8.672-23.196h5.558l8.438 23.196h-5.157zm-1.373-3.978-3.18-9.068-3.181 9.068z" style="font-style:normal;font-variant:normal;font-weight:700;font-stretch:normal;font-size:40px;line-height:0%;font-family:FreeSans;-inkscape-font-specification:&quot;FreeSans Bold&quot;;text-align:center;text-anchor:middle;fill:#deddda;fill-opacity:1;stroke:none;stroke-width:1.10453"/><path d="m55.41 63.661 1.291 3.944 8.994-9.91v-2.397l-13.072-4.15.042 2.29.721 3.756C41.942 62.96 37.368 72.28 37.368 72.706v2.397l7.265 1.199c1.643-6.947 5.68-10.46 10.778-12.64" style="display:inline;fill:#585858;fill-opacity:1;stroke:none;stroke-width:.999997;stroke-linecap:round;stroke-linejoin:round;stroke-miterlimit:4;stroke-dasharray:none;stroke-opacity:1"/><path d="m55.41 61.264 1.291 3.944 8.994-9.91-13.072-4.15.763 3.65c-12.897 6.498-14.243 12.188-16.018 17.908l6.964 1.232c1.644-6.947 5.981-10.493 11.079-12.674" style="display:inline;fill:#33d17a;fill-opacity:1;stroke:none;stroke-width:.999997;stroke-linecap:round;stroke-linejoin:round;stroke-miterlimit:4;stroke-dasharray:none;stroke-opacity:1"/><path d="m71.79 96.37-1.29-3.943-9.72 7.636.007 2.274 13.115 4.487-.071-2.66-.419-1.23C86.31 96.436 88.66 87.787 89.077 85.73l.012-3.079-6.22 1.047c-1.644 6.947-5.982 10.493-11.08 12.674Z" style="display:inline;fill:#585858;fill-opacity:1;stroke:none;stroke-width:.999997;stroke-linecap:round;stroke-linejoin:round;stroke-miterlimit:4;stroke-dasharray:none;stroke-opacity:1"/><path d="m71.055 94.107-1.29-3.943-8.994 9.91 13.072 4.149-.763-3.648c12.897-6.499 14.243-12.19 16.018-17.91l-6.964-1.232c-1.643 6.948-5.981 10.494-11.079 12.674" style="display:inline;fill:#33d17a;fill-opacity:1;stroke:none;stroke-width:.999997;stroke-linecap:round;stroke-linejoin:round;stroke-miterlimit:4;stroke-dasharray:none;stroke-opacity:1"/><path fill="#c057ea" d="M80.03 54.816a.3.3 0 0 0-.092.016c-.633.215-1.392.442-2.392.714a.29.29 0 0 0-.214.278v3.787a.29.29 0 0 0 .29.288.28.28 0 0 0 .236-.125l.999-1.438a.44.44 0 0 1 .291-.182h.03c.144 0 .23.032.303.09l1.527 1.212c.052.04.116.063.179.063q.065 0 .125-.029a.29.29 0 0 0 .163-.26v-3.572c0-.11.04-.213.116-.292.085-.094.1-.23.036-.34a.285.285 0 0 0-.313-.137q-.202.046-.434.047a3 3 0 0 1-.777-.11.3.3 0 0 0-.073-.01m-2.408 6.635a.29.29 0 0 0-.29.288v1.582a.29.29 0 0 0 .206.276c1.572.476 2.728 1.12 3.433 1.916a.29.29 0 0 0 .318.08.29.29 0 0 0 .186-.27v-3.637a.288.288 0 0 0-.339-.282 3.6 3.6 0 0 1-.64.047zm7.728-3.618a.29.29 0 0 0-.288.288v13.054c0 .159.13.288.288.288h3.412c.159 0 .288-.13.288-.288V58.121a.29.29 0 0 0-.288-.288zM74.231 76.301a.43.43 0 0 1-.432-.431v-7.15a.29.29 0 0 0-.288-.288.29.29 0 0 0-.234.12 21.4 21.4 0 0 1-3.413 3.671.434.434 0 0 1-.598-.036l-.309-.332a.434.434 0 0 1-.034-.543c1.675-2.372 3.078-5.75 3.948-9.508a.29.29 0 0 0-.281-.353h-3.033a.43.43 0 0 1-.42-.327l-.128-.514a.43.43 0 0 1 .42-.535h4.082a.29.29 0 0 0 .288-.288V56.76a.3.3 0 0 0-.104-.222.3.3 0 0 0-.238-.062 61 61 0 0 1-3.902.586h-.008c-.236 0-.399-.122-.455-.302l-.104-.334a.43.43 0 0 1 .274-.534c3.05-1.041 7.005-2.987 9.002-4.431a.43.43 0 0 1 .525.013l3.081 2.461a.43.43 0 0 1 .035.642 1 1 0 0 1-.147.123.288.288 0 0 0 .159.527.4.4 0 0 1 .162.035l2.713 1.172 4.071.023c.09 0 .177-.043.232-.115l.914-1.225a.43.43 0 0 1 .6-.09l2.98 2.18a.43.43 0 0 1 .104.588c-.155.233-.44.431-.846.588a.29.29 0 0 0-.186.268v15.475c0 .555-1.358 1.175-3.178 1.175a.43.43 0 0 1-.433-.43v-1.744a.29.29 0 0 0-.288-.288H85.35a.29.29 0 0 0-.288.288v1.153c0 .319-.535 1.509-3.155 1.509a.43.43 0 0 1-.432-.432v-6.32a.288.288 0 0 0-.463-.228c-.29.22-.636.336-1.004.336-.471 0-.932-.211-1.333-.613a.43.43 0 0 1-.122-.246c-.078-.553-.312-1.21-.678-1.897a.29.29 0 0 0-.324-.146.29.29 0 0 0-.219.28V75.1c-.084.622-1.307 1.2-2.614 1.2z" style="fill:#deddda;fill-opacity:1;fill-rule:evenodd;stroke:none;stroke-width:.981132"/></svg>