<svg xmlns="http://www.w3.org/2000/svg" xmlns:xlink="http://www.w3.org/1999/xlink" width="128" height="128" viewBox="0 0 128 128"><defs><linearGradient id="application_pdf_a" x1="32.026" x2="50.261" y1="-252" y2="-236.686" gradientTransform="matrix(2.5902 0 0 1.55096 -232.932 417.072)" gradientUnits="userSpaceOnUse"><stop offset="0" stop-color="#e66100"/><stop offset="1" stop-color="#ed333b"/></linearGradient><linearGradient xlink:href="#application_pdf_a" id="application_pdf_b" x1="32.026" x2="50.261" y1="-252" y2="-236.686" gradientTransform="matrix(2.5902 0 0 1.55096 -62.976 398.252)" gradientUnits="userSpaceOnUse"/><clipPath id="application_pdf_c"><path d="M47 83h50v21H47Zm0 0"/></clipPath><clipPath id="application_pdf_d"><path d="M96.367 93.516c0 5.316-4.312 9.625-9.629 9.625a9.624 9.624 0 0 1-9.625-9.625c0-5.317 4.309-9.63 9.625-9.63 5.317 0 9.63 4.313 9.63 9.63m-30 0c0 5.316-4.312 9.625-9.629 9.625a9.624 9.624 0 0 1-9.625-9.625c0-5.317 4.309-9.63 9.625-9.63 5.317 0 9.63 4.313 9.63 9.63m0 0"/></clipPath></defs><path d="M27.974 8h49.975l30.028 29.918v74.06c0 4.432-3.61 8.022-8.04 8.022H27.975a7.98 7.98 0 0 1-7.996-8V16c0-4.432 3.566-8 7.996-8" style="display:inline;fill:#f8f6f4;fill-opacity:1;stroke:none;stroke-width:.124969;stroke-linejoin:round;stroke-miterlimit:4;stroke-dasharray:none;stroke-opacity:1" transform="translate(.022)"/><path fill="url(#application_pdf_a)" d="M27.978 8h49.97l26.158 26.062 3.87 3.856.002 22.082h-88V14.875c0-3.797 3.582-6.875 8-6.875" style="fill:url(#application_pdf_b)" transform="translate(.022)"/><path d="M77.949 8v22c0 4.432 3.609 7.923 8.038 7.923l21.99-.005z" style="display:inline;vector-effect:none;fill:#deddda;fill-opacity:1;stroke:none;stroke-width:.124969;stroke-linecap:butt;stroke-linejoin:round;stroke-miterlimit:4;stroke-dasharray:none;stroke-dashoffset:0;stroke-opacity:1" transform="translate(.022)"/><path fill="#fff" fill-opacity=".796" d="M34.972 36.18h32c1.66 0 3 1.343 3 3 0 1.656-1.34 3-3 3h-32a3 3 0 0 1 0-6m0 0"/><path fill="#faa197" d="M33.972 48.18h13.996c1.106 0 2 .894 2 2s-.894 2-2 2H33.972c-1.101 0-2-.895-2-2 0-1.106.899-2 2-2m0 0"/><path d="M33.95 106.18h60c1.106 0 2 .894 2 2s-.894 2-2 2h-60a1.999 1.999 0 1 1 0-4m0-30h60c1.106 0 2 .894 2 2s-.894 2-2 2h-60a1.999 1.999 0 1 1 0-4m0 10h60c1.106 0 2 .894 2 2s-.894 2-2 2h-60a1.999 1.999 0 1 1 0-4m0 10h60c1.106 0 2 .894 2 2s-.894 2-2 2h-60a1.999 1.999 0 1 1 0-4m0-30h60c1.106 0 2 .894 2 2s-.894 2-2 2h-60a1.999 1.999 0 1 1 0-4m0 0" style="fill:#c0bfbc" transform="translate(.022)"/><path fill-opacity=".071" d="M50.074 100.105h43.898c4.418 0 8 1.743 8 3.895s-3.582 3.895-8 3.895H50.074c-4.418 0-8-1.743-8-3.895s3.582-3.895 8-3.895m0 0"/><path fill="none" stroke="#000" stroke-width="2" d="m42.972 98.18-13.09-20.942a3.715 3.715 0 0 1 1.09-5.058 3.606 3.606 0 0 1 5 1l2 3"/><g clip-path="url(#application_pdf_c)" transform="translate(-.028 .18)"><g clip-path="url(#application_pdf_d)"><path fill="#f6f5f4" d="M44.715 81.797h53.012v22.332H44.715Zm0 0"/><path fill="#c0bfbc" d="M49.02 83.383c.28.312.89.726 1.62 1.23 1.169.688 2.669 1.121 4.25 1.332 1.555.125 2.938.106 3.868-.261 2.043-1.067 3.949-1.954 5.082-2.637l15.652-.781c1.246.73 3.238 1.445 5.52 2.308 1.273.336 2.761.383 4.277.207 1.473-.242 2.754-.578 3.563-1.129.402-.324.753-.566.878-.687.09-.086.832.293 1.836.754 1.008.46 1.704 1.191 1.36 1.633-.473.601-1.203 1.191-2.016 1.734-1.387.867-3.183 1.383-5.113 1.664-1.969.238-3.953.164-5.754-.297-2.336-.758-4.465-1.621-5.93-2.738l-12.629.472c-1.261 1.239-3.304 2.344-5.492 3.301-1.601.559-3.55.633-5.57.43-2.067-.258-4.063-.856-5.746-1.82-1.11-.684-2.098-1.422-2.75-2.203-.414-.5.195-1.344 1.172-1.872.972-.53 1.746-.84 1.922-.64m-5.415 4.394c.93 1.137 2.204 2.118 3.598 2.934 2.067 1.172 4.434 1.89 6.867 2.187 2.371.262 4.746.145 6.848-.558 2.3-.871 4.445-2.145 5.797-3.797l10.363-.242c1.633 1.41 3.863 2.379 6.238 3.062 2.2.555 4.551.653 6.864.36 2.27-.305 4.453-.953 6.273-2.067 1.121-.699 2.137-1.55 2.867-2.52.477-.628 1.618-.96 2.606-.503 1 .453 1.445 1.742.59 2.89-1.079 1.45-2.473 2.653-4.008 3.567-2.395 1.43-5.094 2.254-7.817 2.601-2.77.356-5.617.235-8.343-.445-2.426-.582-4.797-1.695-6.649-3.496l-7.344-.066c-1.476 2.207-3.753 3.703-6.203 4.46-2.77.895-5.715 1.067-8.554.727-2.914-.344-5.782-1.226-8.356-2.672-1.781-.996-3.43-2.3-4.734-3.91-.824-1.02-.543-2.398.433-2.926.961-.523 2.13-.238 2.664.414m-6.19 5.024a19.4 19.4 0 0 0 5.866 4.883 26.3 26.3 0 0 0 9.848 3.156c3.309.422 6.82.195 10.258-.89 2.597-.65 5.011-2.364 6.613-5.126l4.32.375c2.075 2.192 4.578 3.446 7.059 3.926 3.254.805 6.594.957 9.82.535 3.18-.387 6.395-1.39 9.367-3.14a16.95 16.95 0 0 0 5.145-4.614c.984-1.34 2.492-2.398 3.484-1.945l1.145.523c1 .457 1.012 2.586-.43 4.555-1.883 2.574-4.152 4.586-6.64 5.992-3.73 2.168-7.625 3.41-11.399 3.844-3.828.512-7.816.32-11.77-.648-2.546-.344-5.23-1.79-7.593-4.493l-.348-.78c-1.765 3.491-4.36 5.5-7.152 6-4.317 1.331-8.574 1.636-12.496 1.112a31.5 31.5 0 0 1-11.813-3.8c-2.668-1.407-5.187-3.461-7.355-6.164-1.426-1.782-1.516-3.793-.547-4.317l1.11-.601c.96-.524 2.5.367 3.507 1.617m0 0"/></g></g><path d="M101.972 70.18v27h-2v-27c0-.551-.449-1-1-1s-1 .449-1 1v5h-2v-5a3 3 0 0 1 6 0m0 0"/><path fill="#241f31" d="M56.972 106.828a12.95 12.95 0 0 1-9.359-4h-5.64v-6h2.355c-.23-.96-.356-1.965-.356-3 0-7.152 5.844-13 13-13 7.668 0 12.414 6.094 12.942 12.008.097 1.098.91 1.992 2.012 1.992h.093c1.102 0 1.914-.894 2.012-1.992.527-5.914 5.273-12.008 12.941-12.008 7.157 0 13 5.848 13 13 0 1.035-.125 2.04-.355 3h2.355v6h-5.64a12.95 12.95 0 0 1-18.719 0H66.332a12.95 12.95 0 0 1-9.36 4m0-4c4.997 0 9-4.004 9-9 0-4.992-4.003-9-9-9a8.97 8.97 0 0 0-9 9c0 4.996 4.004 9 9 9m30 0c4.997 0 9-4.004 9-9 0-4.992-4.003-9-9-9a8.97 8.97 0 0 0-9 9c0 4.996 4.004 9 9 9m0 0"/></svg>