<svg xmlns="http://www.w3.org/2000/svg" xmlns:xlink="http://www.w3.org/1999/xlink" xml:space="preserve" width="128" height="128" viewBox="0 0 128 128"><defs><linearGradient xlink:href="#application_x_iso9600_appimage_a" id="application_x_iso9600_appimage_d" x1="17" x2="111" y1="39" y2="39" gradientUnits="userSpaceOnUse"/><linearGradient id="application_x_iso9600_appimage_a"><stop offset="0" style="stop-color:#6998b4;stop-opacity:1"/><stop offset=".05" style="stop-color:#93b5c8;stop-opacity:1"/><stop offset=".09" style="stop-color:#77a2bb;stop-opacity:1"/><stop offset=".91" style="stop-color:#77a2bb;stop-opacity:1"/><stop offset=".95" style="stop-color:#93b5c8;stop-opacity:1"/><stop offset="1" style="stop-color:#6998b4;stop-opacity:1"/></linearGradient><linearGradient xlink:href="#application_x_iso9600_appimage_b" id="application_x_iso9600_appimage_c" x1="20" x2="108" y1="64" y2="64" gradientUnits="userSpaceOnUse"/><linearGradient id="application_x_iso9600_appimage_b"><stop offset="0" style="stop-color:#4a7892;stop-opacity:1"/><stop offset=".05" style="stop-color:#93b5c8;stop-opacity:1"/><stop offset=".09" style="stop-color:#6091af;stop-opacity:1"/><stop offset=".91" style="stop-color:#6092af;stop-opacity:1"/><stop offset=".95" style="stop-color:#93b5c8;stop-opacity:1"/><stop offset="1" style="stop-color:#4a7892;stop-opacity:1"/></linearGradient></defs><path d="M27.996 8A7.98 7.98 0 0 0 20 16v96c0 4.434 3.565 8 7.996 8h71.965c4.431 0 8.039-3.59 8.039-8.023V15.922C108 11.488 104.392 8 99.961 8l-21.985.004L77.972 8Z" style="fill:url(#application_x_iso9600_appimage_c);fill-opacity:1;stroke:none;stroke-width:.999756"/><path fill="#cdab8f" d="M25.543 16h76.914c4.72 0 8.543 3.17 8.543 7.078v31.844c0 3.909-3.824 7.078-8.543 7.078H25.543C20.823 62 17 58.83 17 54.922V23.078C17 19.17 20.824 16 25.543 16m0 0" style="fill:url(#application_x_iso9600_appimage_d);fill-opacity:1;stroke-width:.995887"/><path fill="#cdab8f" d="M25.543 8h76.914c4.72 0 8.543 3.17 8.543 7.078v31.844c0 3.909-3.824 7.078-8.543 7.078H25.543C20.823 54 17 50.83 17 46.922V15.078C17 11.17 20.824 8 25.543 8m0 0" style="fill:#92b4c9;fill-opacity:1;stroke-width:.995887"/><path d="M60 21v4h4v-2h4v-2h-4zm4 4v2h-4v4h4v-2h4v-4zm0 6v2h-4v4h4v-2h4v-4zm0 6v2h-4v4h4v-2h4v-4zm0 6v2h-4v4h4v-2h4v-4zm0 6v2h-4v4h4v-2h4v-4zm0 6v2h-4v4h4v-2h4v-4zm0 6v1h4v-1z" style="fill:#fff;fill-opacity:1;stroke:none;stroke-width:.125;stroke-linecap:butt;stroke-linejoin:miter;stroke-miterlimit:4;stroke-dasharray:none;stroke-dashoffset:0;stroke-opacity:1;marker:none;paint-order:normal"/><path d="M60 12c-2.216 0-4 1.784-4 4v10c0 2.216 1.784 4 4 4v8c0 1.108.892 2 2 2h4c1.108 0 2-.892 2-2v-8c2.216 0 4-1.784 4-4V16c0-2.216-1.784-4-4-4zm2 22h4v4h-4Z" style="display:inline;opacity:.1;fill:#000;fill-opacity:1;stroke:none;stroke-width:.5;stroke-linecap:round;stroke-linejoin:round;stroke-miterlimit:4;stroke-dasharray:none;stroke-dashoffset:0;stroke-opacity:1"/><path d="M60 23v4h4v-2h4v-2h-4zm4 4v2h-4v4h4v-2h4v-4zm0 6v2h-4v4h4v-2h4v-4zm0 6v2h-4v4h4v-2h4v-4zm0 6v2h-4v4h4v-2h4v-4zm0 6v2h-4v4h4v-2h4v-4zm0 6v2h-4v3h4v-1h4v-4z" style="fill:#46728b;fill-opacity:1;stroke:none;stroke-width:.125;stroke-linecap:butt;stroke-linejoin:miter;stroke-miterlimit:4;stroke-dasharray:none;stroke-dashoffset:0;stroke-opacity:1;marker:none;paint-order:normal"/><path d="M62 18c-1.108 0-2 .892-2 2v16c0 1.108.892 2 2 2h4c1.108 0 2-.892 2-2V20c0-1.108-.892-2-2-2zm0 14h4v4h-4Z" style="vector-effect:none;fill:#355669;fill-opacity:1;stroke:none;stroke-width:.5;stroke-linecap:round;stroke-linejoin:round;stroke-miterlimit:4;stroke-dasharray:none;stroke-dashoffset:0;stroke-opacity:1"/><rect width="16" height="18" x="56" y="10" rx="2.503" ry="2.503" style="display:inline;vector-effect:none;fill:#355669;fill-opacity:1;stroke:none;stroke-width:.5;stroke-linecap:round;stroke-linejoin:round;stroke-miterlimit:4;stroke-dasharray:none;stroke-dashoffset:0;stroke-opacity:1"/><rect width="16" height="18" x="56" y="8" rx="2.945" ry="2.945" style="display:inline;vector-effect:none;fill:#46728b;fill-opacity:1;stroke:none;stroke-width:2;stroke-linecap:butt;stroke-linejoin:round;stroke-miterlimit:4;stroke-dasharray:none;stroke-dashoffset:0;stroke-opacity:1"/><path d="M62 14c-1.108 0-2 .892-2 2v18c0 1.108.892 2 2 2h4c1.108 0 2-.892 2-2V16c0-1.108-.892-2-2-2zm0 16h4v4h-4Z" style="fill:#fff;fill-opacity:1;stroke:none;stroke-width:.5;stroke-linecap:round;stroke-linejoin:round;stroke-miterlimit:4;stroke-dasharray:none;stroke-dashoffset:0;stroke-opacity:1"/><rect width="4" height="10" x="62" y="-20" rx="2" ry="2" style="display:inline;fill:#355669;fill-opacity:1;stroke:none;stroke-width:.125;stroke-linecap:butt;stroke-linejoin:miter;stroke-miterlimit:4;stroke-dasharray:none;stroke-dashoffset:0;stroke-opacity:1;marker:none;paint-order:normal" transform="scale(1 -1)"/><rect width="4" height="8" x="62" y="-18" rx="2" ry="2" style="display:inline;fill:#46728b;fill-opacity:1;stroke:none;stroke-width:.125;stroke-linecap:butt;stroke-linejoin:miter;stroke-miterlimit:4;stroke-dasharray:none;stroke-dashoffset:0;stroke-opacity:1;marker:none;paint-order:normal" transform="scale(1 -1)"/><path d="M60 54h8v8h-8z" style="fill:#0b0705;fill-opacity:.2;stroke:none"/><path d="M62.36 89c-.26 0-.422.442-.422.984v3.422a9.4 9.4 0 0 0-2.907 1.219l-2.437-2.437c-.383-.384-.801-.559-.985-.376l-2.297 2.297c-.183.184-.008.602.376.985l2.437 2.437a9.4 9.4 0 0 0-1.219 2.906h-3.422c-.542 0-.984.163-.984.422v3.282c0 .259.442.421.984.421h3.422a9.4 9.4 0 0 0 1.219 2.907l-2.437 2.437c-.384.383-.559.801-.376.985l2.297 2.296c.184.184.602.008.985-.374l2.437-2.438a9.4 9.4 0 0 0 2.907 1.219v3.422c0 .542.162.984.421.984h3.282c.259 0 .421-.442.421-.984v-3.422a9.4 9.4 0 0 0 2.907-1.219l2.437 2.438c.383.383.801.558.985.374l2.296-2.296c.184-.184.009-.602-.374-.985l-2.438-2.437a9.4 9.4 0 0 0 1.219-2.906h3.422c.542 0 .984-.163.984-.422v-3.282c0-.259-.442-.421-.984-.421h-3.422a9.4 9.4 0 0 0-1.219-2.907l2.438-2.437c.383-.383.558-.801.374-.985l-2.296-2.296c-.184-.184-.602-.009-.985.374l-2.437 2.438a9.4 9.4 0 0 0-2.906-1.219v-3.422c0-.542-.163-.984-.422-.984zM64 98.328a4.186 4.186 0 0 1 4.172 4.172A4.186 4.186 0 0 1 64 106.672a4.186 4.186 0 0 1-4.172-4.172A4.186 4.186 0 0 1 64 98.328M59.5 68v9h-4.781L64 87.5 73.281 77H68.5v-9z" style="display:inline;overflow:visible;visibility:visible;fill:#fff;fill-opacity:1;fill-rule:nonzero;stroke:none;stroke-width:1.50269;marker:none"/></svg>