<svg xmlns="http://www.w3.org/2000/svg" width="128" height="128" viewBox="0 0 128 128"><path d="M27.978 8h50l30.043 29.918.001 74.06c0 4.432-3.612 8.022-8.044 8.022h-72c-4.432 0-8-3.568-8-8V16c0-4.432 3.568-8 8-8" style="display:inline;fill:#f6f5f4;fill-opacity:1;stroke:none;stroke-width:.125;stroke-linejoin:round;stroke-miterlimit:4;stroke-dasharray:none;stroke-opacity:1"/><path d="M77.978 8v22c0 4.432 3.61 7.923 8.043 7.923l22-.005z" style="display:inline;vector-effect:none;fill:#deddda;fill-opacity:1;stroke:none;stroke-width:.125;stroke-linecap:butt;stroke-linejoin:round;stroke-miterlimit:4;stroke-dasharray:none;stroke-dashoffset:0;stroke-opacity:1"/><path d="M45.25 53.149c-6.168 0-11.25 5.082-11.25 11.25v22.5c0 6.168 5.082 11.25 11.25 11.25H49v11.25l11.25-11.25h22.5c6.168 0 11.25-5.082 11.25-11.25v-22.5c0-6.168-5.082-11.25-11.25-11.25z" style="fill:#987706;fill-opacity:1;stroke-width:1"/><path d="M45.25 51.149c-6.168 0-11.25 5.082-11.25 11.25v22.5c0 6.168 5.082 11.25 11.25 11.25H49v11.25l11.25-11.25h22.5c6.168 0 11.25-5.082 11.25-11.25v-22.5c0-6.168-5.082-11.25-11.25-11.25z" style="fill:#f5c211;fill-opacity:1;stroke-width:1"/><path d="M41.965 77.711a1.56 1.56 0 0 0-1.562 1.563 1.56 1.56 0 0 0 1.562 1.562h44.07a1.56 1.56 0 0 0 1.562-1.562 1.56 1.56 0 0 0-1.562-1.563zm0 5.459a1.56 1.56 0 0 0-1.562 1.563 1.56 1.56 0 0 0 1.562 1.562h44.07a1.56 1.56 0 0 0 1.562-1.562 1.56 1.56 0 0 0-1.562-1.563zm6.125 5.459a1.56 1.56 0 0 0-1.562 1.562 1.56 1.56 0 0 0 1.563 1.563h31.818a1.56 1.56 0 0 0 1.563-1.563 1.56 1.56 0 0 0-1.563-1.562z" style="fill:#2e3434;fill-opacity:1;stroke-width:1"/></svg>