<svg xmlns="http://www.w3.org/2000/svg" width="128" height="128" viewBox="0 0 128 128"><path d="M27.978 8h50l30.043 29.918.001 74.06c0 4.432-3.612 8.022-8.044 8.022h-72c-4.432 0-8-3.568-8-8V16c0-4.432 3.568-8 8-8" style="display:inline;fill:#9c4221;fill-opacity:1;stroke:none;stroke-width:.125;stroke-linejoin:round;stroke-miterlimit:4;stroke-dasharray:none;stroke-opacity:1"/><path d="M77.978 8v22c0 4.432 3.61 7.923 8.043 7.923l22-.005z" style="display:inline;vector-effect:none;fill:#fff;fill-opacity:.30000001;stroke:none;stroke-width:.125;stroke-linecap:butt;stroke-linejoin:round;stroke-miterlimit:4;stroke-dasharray:none;stroke-dashoffset:0;stroke-opacity:1"/><path d="M28.6 30.5h75.1v37.3H69v262.7h34.7V368H28.6Z" class="st1" style="fill:#fff;fill-opacity:.5" transform="translate(28.91 38.496)scale(.17799)"/><path d="M276.4 101.5v39.1h-60.1v181.9H174V140.6h-60.4v-39.1z" style="fill:#fff" transform="translate(28.91 38.496)scale(.17799)"/><path d="M365.7 368h-75.1v-37.3h34.7V68h-34.7V30.5h75.1z" class="st1" style="fill:#fff;fill-opacity:.5" transform="translate(28.91 38.496)scale(.17799)"/></svg>