<svg xmlns="http://www.w3.org/2000/svg" xml:space="preserve" width="128" height="128" viewBox="0 0 128 128"><path d="M27.978 8h50l30.043 29.918.001 74.06c0 4.432-3.612 8.022-8.044 8.022h-72c-4.432 0-8-3.568-8-8V16c0-4.432 3.568-8 8-8" style="display:inline;fill:#d10;fill-opacity:1;stroke:none;stroke-width:.125;stroke-linejoin:round;stroke-miterlimit:4;stroke-dasharray:none;stroke-opacity:1"/><path d="M77.978 8v22c0 4.432 3.61 7.923 8.043 7.923l22-.005z" style="display:inline;vector-effect:none;fill:#fff;fill-opacity:.40000001;stroke:none;stroke-width:.125;stroke-linecap:butt;stroke-linejoin:round;stroke-miterlimit:4;stroke-dasharray:none;stroke-dashoffset:0;stroke-opacity:1"/><path fill="#fff" d="M74 58.783s-3.913 2.609-10 2.609-9.565-2.609-9.565-2.609.87 4.348-.435 10c-1.304 3.478-3.043 6.087-5.652 8.261 0 0 5.217.87 9.13 3.478C61.391 83.566 64 88.783 64 88.783s2.174-5.217 6.087-7.826c3.913-3.043 9.565-3.478 9.565-3.478S75.74 72.696 74 68.783c-1.74-4.348 0-10 0-10m-5.652 19.13C65.739 79.654 64 82.697 64 82.697l-4.348-4.782L54 75.74s2.174-3.044 3.043-6.087c.87-1.74.87-3.913.87-6.087 0 0 3.044 1.304 6.087 1.304 2.609 0 6.087-1.304 6.087-1.304s-.87 3.478.435 6.521C71.392 72.697 74 75.74 74 75.74zm12.174-11.739c-.87-3.043 2.174-19.565 2.174-19.565s-11.305 7.826-19.13 7.826c-7.827 0-18.262-7.826-18.262-7.826s3.479 11.74 1.305 19.565C44.869 73.566 34 82.261 34 82.261s13.913.435 19.13 4.348C58.783 90.087 64 104 64 104s6.957-15.217 10-17.39c3.043-2.175 20-4.783 20-4.783S81.826 69.653 80.522 66.174M72.26 84C66.609 87.48 64 96.174 64 96.174s-4.348-9.565-8.696-12.608-13.913-3.913-13.913-3.913 7.392-6.087 9.13-12.174c1.74-5.652-.434-14.348-.434-14.348s7.826 4.783 13.478 4.783c6.087 0 14.348-4.783 14.348-4.783s-2.609 9.13-.435 14.348c1.74 5.652 9.13 12.174 9.13 12.174s-8.695.434-14.347 4.347" style="stroke-width:.999996"/></svg>