<svg xmlns="http://www.w3.org/2000/svg" width="128" height="128" viewBox="0 0 128 128"><path d="M27.978 8h50l30.043 29.918.001 74.06c0 4.432-3.612 8.022-8.044 8.022h-72c-4.432 0-8-3.568-8-8V16c0-4.432 3.568-8 8-8" style="display:inline;fill:#787cb5;fill-opacity:1;stroke:none;stroke-width:.125;stroke-linejoin:round;stroke-miterlimit:4;stroke-dasharray:none;stroke-opacity:1"/><path d="M77.978 8v22c0 4.432 3.61 7.923 8.043 7.923l22-.005z" style="display:inline;vector-effect:none;fill:#fff;fill-opacity:.30000001;stroke:none;stroke-width:.125;stroke-linecap:butt;stroke-linejoin:round;stroke-miterlimit:4;stroke-dasharray:none;stroke-dashoffset:0;stroke-opacity:1"/><path d="M44.101 93.642c1.845 0 3.222-.34 4.093-1.01.862-.664 1.458-1.814 1.77-3.419.29-1.499.18-2.546-.33-3.11-.52-.578-1.647-.87-3.347-.87H43.34l-1.634 8.41zm-9.642 10.36a.458.458 0 0 1-.45-.547l4.33-22.286a.46.46 0 0 1 .451-.37h9.335c2.934 0 5.118.796 6.49 2.367 1.38 1.58 1.807 3.788 1.267 6.563-.22 1.13-.597 2.18-1.122 3.12a10.5 10.5 0 0 1-2.066 2.59c-1.012.946-2.157 1.633-3.4 2.037-1.224.398-2.795.6-4.671.6h-3.78l-1.08 5.554a.46.46 0 0 1-.45.371zm32.554-5.926a.458.458 0 0 1-.45-.546l1.916-9.86c.182-.938.137-1.611-.127-1.896-.161-.173-.646-.465-2.08-.465H62.8l-2.41 12.396a.46.46 0 0 1-.45.371h-4.816a.458.458 0 0 1-.45-.546l4.331-22.285a.46.46 0 0 1 .45-.372h4.817a.46.46 0 0 1 .45.547l-1.045 5.378h3.734c2.845 0 4.774.502 5.897 1.534 1.146 1.052 1.503 2.735 1.063 5.002l-2.016 10.371a.46.46 0 0 1-.45.371zm14.979-4.434c1.845 0 3.222-.34 4.094-1.01.862-.664 1.457-1.814 1.77-3.419.29-1.499.18-2.546-.33-3.11-.521-.578-1.647-.87-3.348-.87H81.23l-1.634 8.41zm-9.642 10.36a.458.458 0 0 1-.45-.547l4.331-22.286a.46.46 0 0 1 .45-.37h9.336c2.934 0 5.117.796 6.49 2.367 1.38 1.58 1.806 3.788 1.267 6.563-.22 1.13-.598 2.18-1.123 3.12a10.5 10.5 0 0 1-2.066 2.59c-1.011.946-2.156 1.633-3.4 2.037-1.223.398-2.795.6-4.67.6h-3.78l-1.08 5.554a.46.46 0 0 1-.45.371z" style="fill:#fff;fill-opacity:1;fill-rule:nonzero;stroke:none;stroke-width:.152902"/></svg>