<svg xmlns="http://www.w3.org/2000/svg" xml:space="preserve" width="128" height="128" viewBox="0 0 128 128"><path d="M27.978 8h50l30.043 29.918.001 74.06c0 4.432-3.612 8.022-8.044 8.022h-72c-4.432 0-8-3.568-8-8V16c0-4.432 3.568-8 8-8" style="display:inline;fill:#000076;fill-opacity:1;stroke:none;stroke-width:.125;stroke-linejoin:round;stroke-miterlimit:4;stroke-dasharray:none;stroke-opacity:1"/><path d="M77.978 8v22c0 4.432 3.61 7.923 8.043 7.923l22-.005z" style="display:inline;vector-effect:none;fill:#19f3ff;fill-opacity:1;stroke:none;stroke-width:.125;stroke-linecap:butt;stroke-linejoin:round;stroke-miterlimit:4;stroke-dasharray:none;stroke-dashoffset:0;stroke-opacity:1"/><path d="M77.043 68.783H62.695L50.956 79.218h14.348zm7.174 14.326c0-1.33-.13-2.63-.38-3.891H67.888a13.45 13.45 0 0 1 3.286 8.845c0 7.361-5.84 13.329-13.043 13.329-2.904 0-5.586-.97-7.753-2.609a6.522 6.522 0 1 0-4.945-2.185c4.034 4.528 10.06 7.402 16.793 7.402 12.146 0 21.991-9.353 21.991-20.891M45.951 68.783a18.3 18.3 0 0 1-.864-5.574C45.087 52.6 54.139 44 65.307 44c6.447 0 12.19 2.867 15.892 7.332a6.522 6.522 0 1 1-4.659-2.113 12.77 12.77 0 0 0-7.756-2.61c-7.083 0-12.824 5.742-12.824 12.825a12.8 12.8 0 0 0 4.046 9.35z" style="fill:#19f3ff;fill-opacity:1;stroke-width:1.90051"/></svg>