<svg xmlns="http://www.w3.org/2000/svg" xmlns:xlink="http://www.w3.org/1999/xlink" xml:space="preserve" width="128" height="128" viewBox="0 0 128 128"><defs><linearGradient xlink:href="#application_x_spectrum_a" id="application_x_spectrum_b" x1="8" x2="120" y1="264" y2="264" gradientTransform="translate(0 -160)" gradientUnits="userSpaceOnUse"/><linearGradient id="application_x_spectrum_a" x1="9.197" x2="119.482" y1="112.655" y2="112.655" gradientTransform="translate(-147 5)" gradientUnits="userSpaceOnUse"><stop offset="0" stop-color="#5e5c64" style="stop-color:#606060;stop-opacity:1"/><stop offset=".038" stop-color="#77767b" style="stop-color:#797979;stop-opacity:1"/><stop offset=".073" stop-color="#3d3846" style="stop-color:#333;stop-opacity:1"/><stop offset=".929" stop-color="#241f31" style="stop-color:#000;stop-opacity:1"/><stop offset=".971" stop-color="#5e5c64" style="stop-color:#606060;stop-opacity:1"/><stop offset="1" stop-color="#5e5c64" style="stop-color:#606060;stop-opacity:1"/></linearGradient><clipPath id="application_x_spectrum_c" clipPathUnits="userSpaceOnUse"><path d="M208 4h96v48h-96z" style="opacity:1;fill:#949390;fill-opacity:1;stroke:none;stroke-width:15.99999905;stroke-linecap:round;stroke-linejoin:round;stroke-miterlimit:4;stroke-dasharray:none;stroke-dashoffset:11.19999981;stroke-opacity:1"/></clipPath></defs><rect width="112" height="24" x="8" y="92" rx="8" ry="8" style="display:inline;fill:url(#application_x_spectrum_b);fill-opacity:1;stroke:none;stroke-width:.25;stroke-linejoin:round;stroke-miterlimit:4;stroke-dasharray:1,.5;stroke-dashoffset:0;stroke-opacity:1"/><rect width="112" height="84" x="8" y="28" rx="8" ry="8.842" style="display:inline;fill:#36343d;fill-opacity:1;stroke:none;stroke-width:.262829;stroke-linejoin:round;stroke-miterlimit:4;stroke-dasharray:1.05131,.525657;stroke-dashoffset:0;stroke-opacity:1"/><path d="M36 110h56l-4-10H40Z" style="display:inline;fill:#202023;fill-opacity:1;stroke:#202023;stroke-width:8;stroke-linecap:round;stroke-linejoin:round;stroke-opacity:1"/><path d="M24 36h80l8 8v52H16V44Z" style="display:inline;fill:#9a9996;fill-opacity:1;stroke:none;stroke-width:.25;stroke-linejoin:round;stroke-miterlimit:4;stroke-dasharray:1,.5;stroke-dashoffset:0;stroke-opacity:1"/><g style="display:inline" transform="translate(0 -164)"><path d="M16 216h96v32H16z" style="display:inline;opacity:1;fill:#424048;fill-opacity:1;stroke:none;stroke-width:1.06904;stroke-linecap:butt;stroke-linejoin:round;stroke-miterlimit:4;stroke-dasharray:none;stroke-dashoffset:0;stroke-opacity:1"/><circle cx="40" cy="232" r="6" style="display:inline;opacity:1;fill:#f6f5f4;fill-opacity:1;stroke:none;stroke-width:.25;stroke-linejoin:round;stroke-miterlimit:4;stroke-dasharray:1,.5;stroke-dashoffset:0;stroke-opacity:1"/><circle cx="88" cy="232" r="6" style="display:inline;opacity:1;fill:#f6f5f4;fill-opacity:1;stroke:none;stroke-width:.25;stroke-linejoin:round;stroke-miterlimit:4;stroke-dasharray:1,.5;stroke-dashoffset:0;stroke-opacity:1"/><path d="M52 226h24v12H52z" style="display:inline;opacity:1;fill:#949390;fill-opacity:1;stroke:none;stroke-width:4;stroke-linecap:round;stroke-linejoin:round;stroke-miterlimit:4;stroke-dasharray:none;stroke-dashoffset:11.2;stroke-opacity:1"/><path d="M272 28c0 61.856-50.144 112-112 112S48 89.856 48 28 98.144-84 160-84 272-33.856 272 28" clip-path="url(#application_x_spectrum_c)" style="display:inline;opacity:.5;fill:#424048;fill-opacity:1;stroke:none;stroke-width:1;stroke-linejoin:round;stroke-miterlimit:4;stroke-dasharray:4,2;stroke-dashoffset:0;stroke-opacity:1" transform="matrix(.25 0 0 .25 0 225)"/></g><path d="m40.502 39.375 2.696 4.314-2.696 4.313h2.157l1.617-2.589 1.618 2.589h2.157l-2.696-4.313 2.696-4.314h-2.157l-1.618 2.589-1.617-2.589Zm-8.627 0h7.549v1.078l-4.853 5.931h4.853v1.618h-7.549v-1.078l4.853-5.931h-4.853Z" style="fill:#202023;stroke-width:.53919;fill-opacity:1"/><path d="m93.064 101.889-1.35-3.375a4 4 0 0 0-2.04-2.098L76.139 110h8.802z" style="fill:#f24c3d;stroke-width:.852459;opacity:.7"/><path d="m112 82.98 8-7.988v-9.01l-8 8.03zM90.088 96l-.414.416a4 4 0 0 1 2.04 2.098l1.35 3.375L98.961 96z" style="fill:#f24c3d;stroke-width:.852459"/><path d="M90.088 96h8.873L112 82.98v-8.968z" style="fill:#f24c3d;stroke-width:.852459;opacity:.6"/><path d="m95.484 107.936-2.502-6.254L84.664 110h8.746z" style="fill:#e6df15;stroke-width:.852459;opacity:.7"/><path d="m112 91.486 8-7.968v-8.854l-8 8zM98.664 96l-5.682 5.682 2.502 6.254L107.467 96z" style="fill:#e6df15;stroke-width:.852459"/><path d="M98.664 96h8.803L112 91.486v-8.822z" style="fill:#e6df15;stroke-width:.852459;opacity:.6"/><path d="M95.293 112.268a4 4 0 0 0 .422-3.754l-.317-.79-4.552 4.544z" style="fill:#66dd23;stroke-width:.852459;opacity:.7"/><path d="m107.148 96-11.75 11.725.317.789a4 4 0 0 1-.422 3.754h4.31L120 91.9v-8.724l-8 7.982V96z" style="fill:#66dd23;stroke-width:.852459"/><path d="M107.148 96H112v-4.842z" style="fill:#66dd23;stroke-width:.852459;opacity:.6"/><path d="M99.315 112.559h8.525L120 100.196v-8.502z" style="fill:#24f0ff;stroke-width:.852459"/><path d="M76.145 109.992h8.797V116h-8.797Z" style="fill:#ba1c0e;stroke-width:.814846;stroke-miterlimit:.5;paint-order:stroke fill markers"/><path d="M84.673 109.992h8.737V116h-8.737z" style="fill:#817c0d;stroke-width:.814846;stroke-miterlimit:.5;paint-order:stroke fill markers"/><path d="M93.125 109.992H96V112h4.025v4h-6.9z" style="fill:#3c8515;stroke-width:.814846;stroke-miterlimit:.5;paint-order:stroke fill markers"/><path d="M99.87 112h8.52v4h-8.52z" style="fill:#00b2bf;stroke-width:.814846;stroke-miterlimit:.5;paint-order:stroke fill markers"/><path d="M32 110h64v6H32z" style="display:inline;fill:#111113;fill-opacity:1;stroke:none;stroke-width:1;stroke-linecap:butt;stroke-linejoin:round;stroke-miterlimit:4;stroke-dasharray:none;stroke-dashoffset:0;stroke-opacity:1;opacity:.8"/><path d="m38.668 63.017.115 3.079-2.603-1.659-1.227 2.172 2.724 1.42-2.725 1.42 1.232 2.147 2.6-1.656-.116 3.077h2.463l-.118-3.077 2.602 1.656 1.232-2.146-2.727-1.422 2.723-1.42-1.227-2.17-2.603 1.658.118-3.08zm48.101.012.115 3.078-2.603-1.658-1.227 2.172 2.724 1.42-2.726 1.42 1.233 2.147 2.599-1.656-.115 3.077h2.462l-.117-3.077 2.601 1.656 1.233-2.147-2.728-1.422 2.724-1.418-1.227-2.172-2.603 1.658.117-3.078z" style="-inkscape-font-specification:Inter;fill:#313131;stroke-width:.909091"/></svg>