<svg xmlns="http://www.w3.org/2000/svg" width="128" height="128" viewBox="0 0 128 128"><path d="M27.978 8h50l30.043 29.918.001 74.06c0 4.432-3.612 8.022-8.044 8.022h-72c-4.432 0-8-3.568-8-8V16c0-4.432 3.568-8 8-8" style="display:inline;fill:#8f00ff;fill-opacity:1;stroke:none;stroke-width:.125;stroke-linejoin:round;stroke-miterlimit:4;stroke-dasharray:none;stroke-opacity:1"/><path d="M77.978 8v22c0 4.432 3.61 7.923 8.043 7.923l22-.005z" style="display:inline;vector-effect:none;fill:#fff;fill-opacity:.40000001;stroke:none;stroke-width:.125;stroke-linecap:butt;stroke-linejoin:round;stroke-miterlimit:4;stroke-dasharray:none;stroke-dashoffset:0;stroke-opacity:1"/><path d="M63.218 43.213c-16.416 0-29.738 13.446-29.738 30 0 16.553 13.322 30 29.738 30 16.415 0 29.737-13.447 29.737-30s-13.322-30-29.737-30m-.889 3.576c1.3-.04 2.605.025 3.919.184 5.942.724 11.006 3.19 15.25 7.422 3.897 3.887 6.305 8.561 7.282 14.032a25.8 25.8 0 0 1 .361 6.069c-.247 4.188-1.413 8.089-3.526 11.707l-.006.01-.002.004h-.001c.01-.018.003-.011-.008 0-7.477.017-14.947.07-22.418-.006-3.513-.037-6.018-2.453-6.543-5.662-.604-3.69 1.907-7.167 5.626-7.715 1.524-.221 2.889.073 4.251.818 1.22.675 2.776.288 3.439-.917.65-1.182.183-2.665-.99-3.372l-.002-.002c-5.749-3.46-13.558-.945-16.273 5.226-2.536 5.777-.335 12.286 5.201 15.253h.002c1.537.819 3.21 1.271 4.984 1.271h.002c6.357-.005 12.713 0 19.07 0-.048.053-.106.122-.155.173l-.004.004-.002.002c-.858.917-1.816 1.332-3.056 1.328H63.149c-2.969 0-5.578-.903-7.916-2.725-2.948-2.295-4.637-5.277-5.045-9v-.001a13.16 13.16 0 0 1 7.806-13.558c1.947-.855 3.979-1.18 6.11-1.07h.003c.521.026 1.085.133 1.68.244l.002.002c1.375.256 2.744-.584 3.026-1.95v-.002c.27-1.301-.62-2.596-1.97-2.878a17.5 17.5 0 0 0-5.049-.318h-.002c-3.215.256-6.197 1.275-8.837 3.158-4.124 2.932-6.73 6.983-7.53 12.04-1.54 9.781 4.902 18.968 14.537 20.713 1.078.196 2.18.293 3.263.305h.002c2.937.025 5.869.012 8.802.007-1.432.547-2.899.982-4.428 1.205-1.587.232-3.173.422-4.701.383H62.9c-5.37-.125-9.916-2.09-13.689-5.97-2.82-2.903-4.603-6.339-5.245-10.33-1.045-6.54.652-12.18 5.152-17.021q4.265-4.583 10.416-5.715v.002c1.122-.207 2.295-.3 3.482-.364h.002c.7-.04 1.35-.261 1.84-.696a2.38 2.38 0 0 0 .78-1.795c-.008-1.398-1.231-2.516-2.702-2.478-2.649.06-5.286.432-7.816 1.382-7.616 2.86-12.792 8.278-15.31 16.08-.95 2.937-1.223 5.971-.978 8.999.03.382.142.72.198 1.094-.768-1.99-1.376-4.03-1.61-6.18-.804-7.326.98-13.853 5.544-19.61v-.002c4.018-5.034 9.19-8.11 15.489-9.346a24 24 0 0 1 3.876-.434" style="color:#000;fill:#fff;stroke-width:1.53848;-inkscape-stroke:none" transform="translate(.782 .788)"/></svg>