<svg xmlns="http://www.w3.org/2000/svg" xmlns:xlink="http://www.w3.org/1999/xlink" width="128" height="128" viewBox="0 0 128 128"><defs><linearGradient xlink:href="#application_x_theme_a" id="application_x_theme_g" x1="46" x2="46" y1="232" y2="228" gradientTransform="rotate(-45 -231.245 31.1)scale(-.45676 1.15392)"/><linearGradient id="application_x_theme_a" gradientUnits="userSpaceOnUse"><stop offset="0" stop-color="#9a9996"/><stop offset=".5" stop-color="#fff"/><stop offset="1" stop-color="#c0bfbc"/></linearGradient><linearGradient xlink:href="#application_x_theme_a" id="application_x_theme_i" x1="46" x2="46" y1="232" y2="228" gradientTransform="rotate(135 61.452 193.826)scale(-.91352 1.15392)"/><linearGradient xlink:href="#application_x_theme_a" id="application_x_theme_k" x1="46" x2="46" y1="232" y2="228" gradientTransform="rotate(45 282.076 308.428)scale(-.62504 1.15392)"/><linearGradient xlink:href="#application_x_theme_a" id="application_x_theme_m" x1="46" x2="46" y1="232" y2="228" gradientTransform="rotate(45 244.559 286.06)scale(-.37286 1.15392)"/><linearGradient id="application_x_theme_o" x1="82" x2="82" y1="47" y2="65" gradientTransform="rotate(-45 93.14 136.895)scale(1.15392 1.19666)" gradientUnits="userSpaceOnUse"><stop offset="0" stop-color="#1c71d8"/><stop offset=".5" stop-color="#3584e4"/><stop offset="1" stop-color="#1a5fb4"/></linearGradient><linearGradient id="application_x_theme_q" x1="82" x2="82" y1="47" y2="65" gradientTransform="rotate(-45 86.217 120.18)scale(1.15392 1.19666)" gradientUnits="userSpaceOnUse"><stop offset="0" stop-color="#2ec27e"/><stop offset=".5" stop-color="#33d17a"/><stop offset="1" stop-color="#26a269"/></linearGradient><linearGradient id="application_x_theme_s" x1="82" x2="82" y1="47" y2="65" gradientTransform="rotate(-45 72.37 86.75)scale(1.15392 1.19666)" gradientUnits="userSpaceOnUse"><stop offset="0" stop-color="#c01c28"/><stop offset=".5" stop-color="#e01b24"/><stop offset="1" stop-color="#a51d2d"/></linearGradient><linearGradient id="application_x_theme_u" x1="82" x2="82" y1="47" y2="65" gradientTransform="rotate(-45 79.294 103.465)scale(1.15392 1.19666)" gradientUnits="userSpaceOnUse"><stop offset="0" stop-color="#f5c211"/><stop offset=".5" stop-color="#f6d32d"/><stop offset="1" stop-color="#e5a50a"/></linearGradient><linearGradient id="application_x_theme_w" x1="483.447" x2="497.447" y1="288.671" y2="288.671" gradientTransform="rotate(-45 44.295 451.284)scale(.65938 .81202)" gradientUnits="userSpaceOnUse"><stop offset="0" stop-color="#865e3c"/><stop offset=".5" stop-color="#b5835a"/><stop offset="1" stop-color="#865e3c"/></linearGradient><linearGradient id="application_x_theme_b" x1="82" x2="82" y1="47" y2="65" gradientTransform="rotate(-45 -309.523 204.599)scale(1.5 1.55556)" gradientUnits="userSpaceOnUse"><stop offset="0" stop-color="#1c71d8"/><stop offset=".5" stop-color="#3584e4"/><stop offset="1" stop-color="#1a5fb4"/></linearGradient><linearGradient id="application_x_theme_c" x1="82" x2="82" y1="47" y2="65" gradientTransform="rotate(-45 -318.523 182.871)scale(1.5 1.55556)" gradientUnits="userSpaceOnUse"><stop offset="0" stop-color="#2ec27e"/><stop offset=".5" stop-color="#33d17a"/><stop offset="1" stop-color="#26a269"/></linearGradient><linearGradient id="application_x_theme_d" x1="82" x2="82" y1="47" y2="65" gradientTransform="rotate(-45 -336.523 139.415)scale(1.5 1.55556)" gradientUnits="userSpaceOnUse"><stop offset="0" stop-color="#c01c28"/><stop offset=".5" stop-color="#e01b24"/><stop offset="1" stop-color="#a51d2d"/></linearGradient><linearGradient id="application_x_theme_e" x1="82" x2="82" y1="47" y2="65" gradientTransform="rotate(-45 -327.523 161.143)scale(1.5 1.55556)" gradientUnits="userSpaceOnUse"><stop offset="0" stop-color="#f5c211"/><stop offset=".5" stop-color="#f6d32d"/><stop offset="1" stop-color="#e5a50a"/></linearGradient><linearGradient id="application_x_theme_f" x1="483.447" x2="497.447" y1="288.671" y2="288.671" gradientTransform="rotate(-45 -373.018 613.279)scale(.85714 1.05555)" gradientUnits="userSpaceOnUse"><stop offset="0" stop-color="#865e3c"/><stop offset=".5" stop-color="#b5835a"/><stop offset="1" stop-color="#865e3c"/></linearGradient><linearGradient xlink:href="#application_x_theme_a" id="application_x_theme_h" x1="46" x2="46" y1="232" y2="228" gradientTransform="rotate(135 -11.208 -85.263)scale(.41387 -1.04556)"/><linearGradient xlink:href="#application_x_theme_a" id="application_x_theme_j" x1="46" x2="46" y1="232" y2="228" gradientTransform="rotate(135 56.145 177.15)scale(-.82773 1.04556)"/><linearGradient xlink:href="#application_x_theme_a" id="application_x_theme_l" x1="46" x2="46" y1="232" y2="228" gradientTransform="rotate(45 253.77 282.862)scale(-.56634 1.04556)"/><linearGradient xlink:href="#application_x_theme_a" id="application_x_theme_n" x1="46" x2="46" y1="232" y2="228" gradientTransform="rotate(45 219.777 262.595)scale(-.33785 1.04556)"/><linearGradient xlink:href="#application_x_theme_b" id="application_x_theme_p" x1="82" x2="82" y1="47" y2="65" gradientTransform="rotate(-45 88.08 122.918)scale(1.04556 1.08428)" gradientUnits="userSpaceOnUse"/><linearGradient xlink:href="#application_x_theme_c" id="application_x_theme_r" x1="82" x2="82" y1="47" y2="65" gradientTransform="rotate(-45 81.808 107.773)scale(1.04556 1.08428)" gradientUnits="userSpaceOnUse"/><linearGradient xlink:href="#application_x_theme_d" id="application_x_theme_t" x1="82" x2="82" y1="47" y2="65" gradientTransform="rotate(-45 69.26 77.483)scale(1.04556 1.08428)" gradientUnits="userSpaceOnUse"/><linearGradient xlink:href="#application_x_theme_e" id="application_x_theme_v" x1="82" x2="82" y1="47" y2="65" gradientTransform="rotate(-45 75.534 92.628)scale(1.04556 1.08428)" gradientUnits="userSpaceOnUse"/><linearGradient xlink:href="#application_x_theme_f" id="application_x_theme_x" x1="483.447" x2="497.447" y1="288.671" y2="288.671" gradientTransform="rotate(-45 43.822 407.783)scale(.59746 .73576)" gradientUnits="userSpaceOnUse"/></defs><path d="M27.978 8h50l30.043 29.918v74.06c0 4.432-3.611 8.022-8.043 8.022h-72c-4.432 0-8-3.568-8-8V16c0-4.432 3.568-8 8-8" style="display:inline;fill:#f6f5f4;fill-opacity:1;stroke:none;stroke-width:.125;stroke-linejoin:round;stroke-miterlimit:4;stroke-dasharray:none;stroke-opacity:1"/><path d="M77.978 8v22c0 4.432 3.61 7.923 8.042 7.923l22-.005z" style="display:inline;vector-effect:none;fill:#deddda;fill-opacity:1;stroke:none;stroke-width:.125;stroke-linecap:butt;stroke-linejoin:round;stroke-miterlimit:4;stroke-dasharray:none;stroke-dashoffset:0;stroke-opacity:1"/><path fill="url(#application_x_theme_g)" d="m75.464 44.614-5.914 5.917a2.09 2.09 0 1 0 2.957 2.957l5.914-5.914a2.094 2.094 0 0 0 0-2.96 2.09 2.09 0 0 0-2.957 0m0 0" style="display:inline;fill:url(#application_x_theme_h);stroke-width:.697037"/><path fill="url(#application_x_theme_i)" d="m67.58 79.118 21.193-21.195a2.095 2.095 0 0 0 0-2.957 2.094 2.094 0 0 0-2.96 0l-21.19 21.195a2.09 2.09 0 1 0 2.956 2.957m0 0" style="display:inline;fill:url(#application_x_theme_j);stroke-width:.697037"/><path fill="url(#application_x_theme_k)" d="M76.943 44.002v5.05l7.395 7.393h5.048c0-.534-.204-1.07-.613-1.479l-10.352-10.35a2.08 2.08 0 0 0-1.478-.614m0 0" style="display:inline;fill:url(#application_x_theme_l);stroke-width:.697037"/><path fill="url(#application_x_theme_m)" d="M69.058 77.639h-5.051c0 .534.204 1.07.615 1.479l6.9 6.9c.82.819 2.137.819 2.957 0 .82-.82.82-2.138 0-2.958zm0 0" style="display:inline;fill:url(#application_x_theme_n);stroke-width:.697037"/><path d="M27.979 8a8 8 0 0 0-1.618.162 8 8 0 0 0-2.863 1.201 7.98 7.98 0 0 0-3.264 4.612L60.098 53.84l8.873-8.871L32.002 8Z" style="opacity:.7;fill:#e01b24;fill-opacity:1;stroke-width:.538797;stroke-linecap:square;stroke-linejoin:round;stroke-miterlimit:1.5;paint-order:stroke fill markers"/><path d="M20.234 13.975A8 8 0 0 0 19.978 16v15.463l31.25 31.25 8.87-8.873z" style="opacity:.7;fill:#f6d32d;fill-opacity:1;stroke-width:.538797;stroke-linecap:square;stroke-linejoin:round;stroke-miterlimit:1.5;paint-order:stroke fill markers"/><path d="M19.974 31.459v17.744l22.381 22.382 8.873-8.873z" style="opacity:.7;fill:#33d17a;fill-opacity:1;stroke-width:.538797;stroke-linecap:square;stroke-linejoin:round;stroke-miterlimit:1.5;paint-order:stroke fill markers"/><path d="M19.974 49.203v17.745l13.509 13.509 8.872-8.873z" style="opacity:.7;fill:#3584e4;fill-opacity:1;stroke-width:.538797;stroke-linecap:square;stroke-linejoin:round;stroke-miterlimit:1.5;paint-order:stroke fill markers"/><path fill="url(#application_x_theme_o)" d="m34.061 75.175 2.96-2.957 2.957-2.96 13.8 13.802-5.915 5.914a4.17 4.17 0 0 1-5.914 0l-7.888-7.885a4.176 4.176 0 0 1 0-5.914m0 0" style="display:inline;fill:url(#application_x_theme_p);stroke-width:.697037"/><path fill="url(#application_x_theme_q)" d="m39.978 69.258 8.871-8.87 13.802 13.801-8.874 8.871zm0 0" style="display:inline;fill:url(#application_x_theme_r);stroke-width:.697037"/><path fill="url(#application_x_theme_s)" d="m60.677 48.56 2.96-2.957a4.17 4.17 0 0 1 5.913 0l7.886 7.885a4.17 4.17 0 0 1 0 5.914l-5.914 5.914-13.802-13.8Zm0 0" style="display:inline;fill:url(#application_x_theme_t);stroke-width:.697037"/><path fill="url(#application_x_theme_u)" d="m48.849 60.387 8.87-8.87 13.803 13.799-8.871 8.873zm0 0" style="display:inline;fill:url(#application_x_theme_v);stroke-width:.697037"/><path fill="url(#application_x_theme_w)" d="M72.507 84.046a4.18 4.18 0 0 1 5.914 0l12.817 12.813a4.184 4.184 0 0 1-5.917 5.917L72.507 89.96a4.18 4.18 0 0 1 0-5.914m0 0" style="display:inline;fill:url(#application_x_theme_x);stroke-width:.697037"/><path d="m81.871 96.366 2.957-2.957a.697.697 0 1 1 .986.986l-2.957 2.96a.7.7 0 0 1-.986 0 .7.7 0 0 1 0-.989m1.971 1.974 2.957-2.96a.697.697 0 1 1 .986.986l-2.957 2.96a.697.697 0 1 1-.986-.986m1.972 1.972 2.957-2.957a.697.697 0 1 1 .988.986l-2.96 2.956a.697.697 0 1 1-.985-.985m0 0" style="fill:#865e3c;stroke-width:.697037"/></svg>