<svg xmlns="http://www.w3.org/2000/svg" xmlns:xlink="http://www.w3.org/1999/xlink" width="128" height="128" viewBox="0 0 128 128"><defs><linearGradient xlink:href="#application_pgp_keys_a" id="application_pgp_keys_d" x1="142" x2="198" y1="268" y2="268" gradientUnits="userSpaceOnUse"/><linearGradient id="application_pgp_keys_a"><stop offset="0" style="stop-color:#77767b;stop-opacity:1"/><stop offset=".176" style="stop-color:#c0bfbc;stop-opacity:1"/><stop offset=".409" style="stop-color:#77767b;stop-opacity:1"/><stop offset="1" style="stop-color:#3d3846;stop-opacity:1"/></linearGradient><linearGradient xlink:href="#application_pgp_keys_b" id="application_pgp_keys_e" x1="78.692" x2="67.122" y1="238.308" y2="249.878" gradientTransform="translate(55.1 .071)" gradientUnits="userSpaceOnUse"/><linearGradient id="application_pgp_keys_b"><stop offset="0" style="stop-color:#f6f5f4;stop-opacity:1"/><stop offset=".257" style="stop-color:#fff;stop-opacity:1"/><stop offset=".6" style="stop-color:#c0bfbc;stop-opacity:1"/><stop offset=".703" style="stop-color:#f6f5f4;stop-opacity:1"/><stop offset="1" style="stop-color:#f6f5f4;stop-opacity:1"/></linearGradient><linearGradient xlink:href="#application_pgp_keys_c" id="application_pgp_keys_f" x1="88.508" x2="85.887" y1="67.68" y2="70.301" gradientTransform="translate(55.77 171.284)" gradientUnits="userSpaceOnUse"/><linearGradient id="application_pgp_keys_c"><stop offset="0" style="stop-color:#c0bfbc;stop-opacity:1"/><stop offset="1" style="stop-color:#f6f5f4;stop-opacity:1"/></linearGradient></defs><g style="display:inline"><path d="M124.828 857.328h200L445 977l.005 296.24c0 17.728-14.449 32.088-32.177 32.088h-288c-17.728 0-32-14.272-32-32v-384c0-17.728 14.272-32 32-32" style="display:inline;fill:#62a0ea;fill-opacity:1;stroke:none;stroke-width:.5;stroke-linejoin:round;stroke-miterlimit:4;stroke-dasharray:none;stroke-opacity:1" transform="matrix(.25 0 0 .25 -3.23 -206.475)"/><path d="M324.828 857.328v88c0 17.728 14.443 31.694 32.17 31.694L445 977Z" style="display:inline;vector-effect:none;fill:#99c1f1;fill-opacity:1;stroke:none;stroke-width:.5;stroke-linecap:butt;stroke-linejoin:round;stroke-miterlimit:4;stroke-dasharray:none;stroke-dashoffset:0;stroke-opacity:1" transform="matrix(.25 0 0 .25 -3.23 -206.475)"/></g><g style="display:inline;fill:#1a5fb4;stroke:#1c71d8;stroke-width:.962543"><path stroke="none" d="M105.809 230v12.617h2.382V230Zm1.191 0v12.617M101.809 230v12.617h2.382V230Zm1.191 0v12.617M89.428 230v12.617h7.144V230ZM93 230v12.617M97.809 230v12.617h2.382V230ZM99 230v12.617M85.809 230v12.617h2.382V230ZM87 230v12.617M79.62 230v12.617h4.76V230Zm2.38 0v12.617M75.809 230v12.617h2.382V230ZM77 230v12.617M71.809 230v12.617h2.382V230ZM73 230v12.617M67.809 230v12.617h2.382V230ZM69 230v12.617M59.428 230v12.617h7.144V230ZM63 230v12.617M49.809 230v12.617h2.382V230ZM51 230v12.617M53.62 230v12.617h4.76V230Zm2.38 0v12.617M43.62 230v12.617h4.76V230Zm2.38 0v12.617M39.809 230v12.617h2.382V230ZM41 230v12.617M35.809 230v12.617h2.382V230ZM37 230v12.617M29.62 230v12.617h4.76V230Zm2.38 0v12.617M25.809 230v12.617h2.382V230ZM27 230v12.617" style="color:#000;fill:#1c71d8;fill-rule:evenodd;stroke:none;stroke-width:.962543;-inkscape-stroke:none" transform="matrix(.97182 0 0 1.11065 -1.164 -169.592)"/></g><g style="display:inline;fill:#99c1f1;stroke-width:1.27273"><path d="m22.216 254 1.197 5.068-3.9-3.279-1.453 2.592 5.01 1.658-5.044 1.59 1.434 2.64 3.955-3.304-1.2 5.035h3.411l-1.102-4.959 3.834 3.314 1.477-2.619-4.979-1.685 5.118-1.426-1.453-2.62-4.034 3.085 1.137-5.09Zm16 0 1.197 5.068-3.9-3.279-1.453 2.592 5.01 1.658-5.044 1.59 1.434 2.64 3.955-3.304-1.2 5.035h3.411l-1.102-4.959 3.834 3.314 1.477-2.619-4.979-1.685 5.118-1.426-1.453-2.62-4.034 3.085 1.137-5.09Zm16 0 1.197 5.068-3.9-3.279-1.453 2.592 5.01 1.658-5.044 1.59 1.434 2.64 3.955-3.304-1.2 5.035h3.411l-1.102-4.959 3.834 3.314 1.477-2.619-4.979-1.685 5.118-1.426-1.453-2.62-4.034 3.085 1.137-5.09Zm16 0 1.197 5.068-3.9-3.279-1.453 2.592 5.01 1.658-5.044 1.59 1.434 2.64 3.955-3.304-1.2 5.035h3.411l-1.102-4.959 3.834 3.314 1.477-2.619-4.979-1.685 5.118-1.426-1.453-2.62-4.034 3.085 1.137-5.09Zm16 0 1.197 5.068-3.9-3.279-1.453 2.592 5.01 1.658-5.044 1.59 1.434 2.64 3.955-3.304-1.2 5.035h3.411l-1.102-4.959 3.834 3.314 1.477-2.619-4.979-1.685 5.118-1.426-1.453-2.62-4.034 3.085 1.137-5.09Zm16 0 1.197 5.068-3.9-3.279-1.453 2.592 5.01 1.658-5.044 1.59 1.434 2.64 3.955-3.304-1.2 5.035h3.411l-1.102-4.959 3.834 3.314 1.477-2.619-4.979-1.685 5.118-1.426-1.453-2.62-4.034 3.085 1.137-5.09Z" style="font-style:normal;font-variant:normal;font-weight:800;font-stretch:normal;font-size:medium;line-height:1000%;font-family:Cantarell;-inkscape-font-specification:&quot;Cantarell Ultra-Bold&quot;;letter-spacing:2px;word-spacing:0;fill:#99c1f1;fill-opacity:1;stroke:none;stroke-width:.942799px;stroke-linecap:butt;stroke-linejoin:miter;stroke-opacity:1" transform="translate(13.692 -95.187)scale(.78571)"/></g><path d="M19.978 62h88v15.857h-88z" style="display:inline;fill:#241f31;fill-opacity:1;stroke:none;stroke-width:.25;stroke-linecap:butt;stroke-linejoin:miter;stroke-miterlimit:4;stroke-dasharray:none;stroke-dashoffset:0;stroke-opacity:1;marker:none;marker-start:none;marker-mid:none;marker-end:none;paint-order:normal"/><g style="display:inline;stroke-width:1.80725"><path d="M170 296a28 28 0 0 1-28-28 28 28 0 0 1 28-28 28 28 0 0 1 28 28 28 28 0 0 1-28 28m.031-12a6.031 6 0 0 0 6.031-6 6.031 6 0 0 0-6.03-6 6.031 6 0 0 0-6.032 6 6.031 6 0 0 0 6.031 6" style="display:inline;opacity:1;vector-effect:none;fill:url(#application_pgp_keys_d);fill-opacity:1;stroke:none;stroke-width:.903625;stroke-linecap:butt;stroke-linejoin:miter;stroke-miterlimit:4;stroke-dasharray:none;stroke-dashoffset:0;stroke-opacity:1;marker:none;marker-start:none;marker-mid:none;marker-end:none;paint-order:normal" transform="translate(136.473 180.182)scale(-.55333)"/><g style="stroke-width:1.80725"><path d="m125.414 214.444-16.97 16.97 8.367 8.368 3.653-3.418 4.243 4.243h2.829v2.828l2.12 2.121h4.243v4.243h2.829v2.828h5.657v5.657h2.828v2.829h12.728l4.95-4.95v-4.243z" style="display:inline;opacity:1;vector-effect:none;fill:#77767b;fill-opacity:1;stroke:none;stroke-width:.903625;stroke-linecap:butt;stroke-linejoin:miter;stroke-miterlimit:4;stroke-dasharray:none;stroke-dashoffset:0;stroke-opacity:1;marker:none;marker-start:none;marker-mid:none;marker-end:none;paint-order:normal" transform="rotate(135 18.928 -43.594)scale(.55333 -.55333)"/><path d="M124 213.03 107.03 230l8.367 8.367 3.653-3.417 4.243 4.242h2.828v2.829l2.122 2.121h4.242v4.243h2.829v2.828h5.657v5.657h2.828v2.828h12.728l4.95-4.95v-4.242z" style="display:inline;opacity:1;vector-effect:none;fill:url(#application_pgp_keys_e);fill-opacity:1;stroke:none;stroke-width:.903625;stroke-linecap:butt;stroke-linejoin:miter;stroke-miterlimit:4;stroke-dasharray:none;stroke-dashoffset:0;stroke-opacity:1;marker:none;marker-start:none;marker-mid:none;marker-end:none;paint-order:normal" transform="rotate(135 18.928 -43.594)scale(.55333 -.55333)"/><path d="M125.748 221.265c-1.794.002-2.678 2.182-1.392 3.433l33.585 33.586 2.829-2.828-33.586-33.586a2 2 0 0 0-1.436-.605" style="display:inline;opacity:1;vector-effect:none;fill:url(#application_pgp_keys_f);fill-opacity:1;stroke:none;stroke-width:.903625;stroke-linecap:butt;stroke-linejoin:miter;stroke-miterlimit:4;stroke-dasharray:none;stroke-dashoffset:0;stroke-opacity:1;marker:none;marker-start:none;marker-mid:none;marker-end:none;paint-order:normal" transform="rotate(135 18.928 -43.594)scale(.55333 -.55333)"/></g><path d="M170 298a28 28 0 0 0 28-28 28 28 0 0 0-28-28 28 28 0 0 0-28 28 28 28 0 0 0 28 28m-.031-12a6.031 6 0 0 1-6.031-6 6.031 6 0 0 1 6.03-6 6.031 6 0 0 1 6.032 6 6.031 6 0 0 1-6.031 6" style="display:inline;opacity:1;vector-effect:none;fill:#f6f5f4;fill-opacity:1;stroke:none;stroke-width:.903625;stroke-linecap:butt;stroke-linejoin:miter;stroke-miterlimit:4;stroke-dasharray:none;stroke-dashoffset:0;stroke-opacity:1;marker:none;marker-start:none;marker-mid:none;marker-end:none;paint-order:normal" transform="translate(136.473 180.182)scale(-.55333)"/></g></svg>