<svg xmlns="http://www.w3.org/2000/svg" xmlns:xlink="http://www.w3.org/1999/xlink" width="128" height="128" viewBox="0 0 128 128"><linearGradient id="audio_x_generic_d" x1="50" x2="106" y1="30" y2="30" gradientUnits="userSpaceOnUse"><stop offset="0" stop-color="#1a6842"/><stop offset=".124" stop-color="#2dbd7d"/><stop offset=".268" stop-color="#26a269"/><stop offset=".79" stop-color="#26a269"/><stop offset=".864" stop-color="#26a269"/><stop offset="1" stop-color="#2dc47e"/></linearGradient><linearGradient id="audio_x_generic_a" gradientUnits="userSpaceOnUse"><stop offset="0" stop-color="#1a6842"/><stop offset=".124" stop-color="#2dbd7d"/><stop offset=".268" stop-color="#26a269"/><stop offset=".614" stop-color="#26a269"/><stop offset=".864" stop-color="#38f39d"/><stop offset="1" stop-color="#2dc47e"/></linearGradient><linearGradient xlink:href="#audio_x_generic_a" id="audio_x_generic_e" x1="115.819" x2="66" y1="92" y2="92"/><linearGradient id="audio_x_generic_b" gradientUnits="userSpaceOnUse"><stop offset="0" stop-color="#38ec8b"/><stop offset="1" stop-color="#33d17a"/></linearGradient><radialGradient xlink:href="#audio_x_generic_b" id="audio_x_generic_f" cx="356.208" cy="2453.478" r="25" gradientTransform="rotate(33.617 4116.007 897.834)scale(.87953 1)"/><linearGradient xlink:href="#audio_x_generic_a" id="audio_x_generic_g" x1="49.819" x2="0" y1="92" y2="92"/><radialGradient xlink:href="#audio_x_generic_b" id="audio_x_generic_h" cx="290.126" cy="2488.879" r="25" gradientTransform="rotate(33.617 4116.007 897.834)scale(.87953 1)"/><linearGradient id="audio_x_generic_c" gradientUnits="userSpaceOnUse"><stop offset="0" stop-color="#8ff0a4"/><stop offset="1" stop-color="#8ff0a4" stop-opacity="0"/></linearGradient><radialGradient xlink:href="#audio_x_generic_c" id="audio_x_generic_i" cx="312.657" cy="2706.579" r="14.806" gradientTransform="rotate(.917 147634.668 -18302.64)scale(1.05492 .90283)"/><radialGradient xlink:href="#audio_x_generic_c" id="audio_x_generic_j" cx="312.657" cy="2706.579" r="14.806" gradientTransform="rotate(.917 147669.242 -13958.89)scale(1.05492 .90283)"/><path fill="url(#audio_x_generic_d)" fill-rule="evenodd" d="M39.883 36.008V46H50v-4c0-5.523 4.477-10 10-10h30c5.523 0 10 4.477 10 10v4h16.117v-9.988c0-5.586-4.531-10.117-10.117-10.117h-6V26H50v-.105c-5.586 0-10.113 4.527-10.117 10.113m0 0"/><path fill="#33d17a" d="M33.883 36.082v41.059l13.926 12.828a1.32 1.32 0 0 0 1.421.234A1.31 1.31 0 0 0 50.016 89V38.012C50.016 32.484 54.5 28 60.03 28h30.094c5.438 0 9.848 4.41 9.848 9.848v39.297L115.918 92H116V35.914C116 22.707 105.293 12 92.086 12H57.969c-13.301 0-24.086 10.781-24.086 24.082m0 0"/><g fill-rule="evenodd"><path fill="url(#audio_x_generic_e)" d="M116 95c0 13.809-11.191 25-25 25s-25-11.191-25-25 11.191-25 25-25 25 11.191 25 25m0 0"/><path fill="url(#audio_x_generic_f)" d="M116 91c0 13.809-11.191 25-25 25s-25-11.191-25-25 11.191-25 25-25 25 11.191 25 25m0 0"/><path fill="url(#audio_x_generic_g)" d="M50 95c0 13.809-11.191 25-25 25S0 108.809 0 95s11.191-25 25-25 25 11.191 25 25m0 0"/><path fill="url(#audio_x_generic_h)" d="M50 91c0 13.809-11.191 25-25 25S0 104.809 0 91s11.191-25 25-25 25 11.191 25 25m0 0"/></g><path fill="url(#audio_x_generic_i)" d="M32.805 84.453c0 8.176-6.63 14.805-14.805 14.805S3.195 92.628 3.195 84.453 9.825 69.648 18 69.648s14.805 6.63 14.805 14.805m0 0"/><path fill="url(#audio_x_generic_j)" d="M102.34 84.453c0 8.176-6.63 14.805-14.809 14.805-8.176 0-14.804-6.63-14.804-14.805s6.628-14.805 14.804-14.805c8.18 0 14.809 6.63 14.809 14.805m0 0"/></svg>