<svg xmlns="http://www.w3.org/2000/svg" xml:space="preserve" width="128" height="128" viewBox="0 0 128 128"><path d="M27.978 8h50l30.043 29.918v74.06c0 4.432-3.611 8.022-8.043 8.022h-72c-4.432 0-8-3.568-8-8V16c0-4.432 3.568-8 8-8" style="display:inline;fill:#f6f5f4;fill-opacity:1;stroke:none;stroke-width:.125;stroke-linejoin:round;stroke-miterlimit:4;stroke-dasharray:none;stroke-opacity:1"/><path d="M77.978 8v22c0 4.432 3.61 7.923 8.042 7.923l22-.005z" style="display:inline;vector-effect:none;fill:#deddda;fill-opacity:1;stroke:none;stroke-width:.125;stroke-linecap:butt;stroke-linejoin:round;stroke-miterlimit:4;stroke-dasharray:none;stroke-dashoffset:0;stroke-opacity:1"/><path d="M45.238 103.393c-.11-.29-.202-8.524-.202-18.298 0-16.905-.03-17.772-.6-17.772-.33 0-2.156.524-4.058 1.164s-3.619 1.165-3.816 1.165c-.436 0-6.174-13.514-6.168-14.528.004-.648.971-1.044 9.59-3.916 5.272-1.758 9.876-3.155 10.23-3.105s3.3-1.033 6.545-2.405l5.9-2.496.005-2.55c.003-1.404.098-2.793.21-3.087.113-.294.996-.909 1.963-1.366 2.05-.97 2.823-2.235 2.823-4.625 0-2.809-1.702-4.84-4.054-4.84-2.378 0-3.707 1.155-4.221 3.668-.275 1.344-1.124 1.975-1.956 1.453-1.309-.82-.74-3.727 1.138-5.805 2.886-3.194 7.977-2.733 10.57.957.853 1.214 1.026 1.806 1.13 3.879.194 3.835-.915 6.12-3.647 7.514l-1.29.657.006 2.073.005 2.072 5.9 2.496c3.245 1.372 6.19 2.454 6.545 2.405s4.958 1.347 10.23 3.105c8.619 2.872 9.587 3.268 9.59 3.916.006 1.014-5.732 14.528-6.168 14.528-.197 0-1.915-.524-3.816-1.165-1.902-.64-3.728-1.164-4.058-1.164-.57 0-.6.867-.6 17.772 0 9.774-.091 18.009-.202 18.298-.18.471-2.145.526-18.762.526s-18.58-.055-18.762-.526m37.06-19.578V65.04l4.392 1.474c2.416.81 4.503 1.36 4.637 1.224s1.439-3.066 2.898-6.508c1.722-4.06 2.518-6.311 2.267-6.405-1.467-.552-17.391-5.8-17.597-5.8-.14 0-.26.336-.264.748-.013 1.337-1.188 3.378-2.794 4.853-2.799 2.57-6.76 3.862-11.837 3.862-5.078 0-9.038-1.292-11.837-3.862-1.606-1.475-2.781-3.516-2.794-4.853-.004-.412-.117-.748-.25-.748-.865 0-17.723 5.886-17.723 6.188 0 .454 4.94 12.173 5.28 12.525.133.137 2.218-.414 4.633-1.224l4.393-1.474v37.549h36.596zM69.49 57.117c2.483-.617 4.791-1.85 6.309-3.367 1.039-1.038 1.765-2.301 1.457-2.532-.063-.046-3.013-1.32-6.557-2.831-3.824-1.63-6.71-2.677-7.098-2.575-1.562.408-12.896 5.405-12.902 5.687-.015.747 1.615 2.565 3.287 3.666 3.961 2.609 9.872 3.353 15.504 1.952m-12.207-9.09c3.408-1.464 6.431-2.662 6.718-2.662s3.31 1.198 6.718 2.661 6.36 2.662 6.56 2.662.362-.425.362-.944c0-.909-.233-1.044-6.238-3.607l-6.238-2.664-.097-2.344-.097-2.345 1.533-.742c2.298-1.113 3.232-2.74 3.399-5.92.115-2.193.023-2.772-.638-4.038-.425-.813-1.34-1.929-2.033-2.48-1.037-.825-1.638-1.027-3.399-1.139-1.848-.118-2.34-.018-3.618.73-1.892 1.11-2.912 2.746-2.98 4.787-.05 1.47.001 1.576.772 1.576.693 0 .858-.196 1.024-1.219.544-3.344 3.451-4.98 6.276-3.53 1.854.953 2.686 2.454 2.686 4.849 0 2.558-1.187 4.494-3.001 4.892-1.585.348-1.95 1.083-2.058 4.136l-.098 2.787-6.238 2.663c-6.004 2.564-6.238 2.7-6.238 3.608 0 .52.164.944.364.944s3.151-1.198 6.56-2.662" style="fill:#a2abab;fill-opacity:1;stroke-width:.249522"/><path d="m-173.99-32.272 6.035-2.435 5.786-1.748 5.537-.811 6.222-.375 6.845.5 5.288 1.31 6.906 2.56 4.192 1.95 3.336 1.808 1.857 1.076s.552.224 1.781 1.395c0 0 1.508.993 2.3 2.038 0 0 1.669 1.338 2.329 2.31 0 0 1.417 1.11 2.398 2.774 0 0 2.46 2.82 3.55 4.88 0 0 .617.647 1.728 2.711l-2.429 1.49-3.013 1.434-4.576 1.457-3.916.86-4.465.773-3.344.11-4.201.089-4.356-.332-5.983-1.28-5.016-1.633-4.531-2.34-5.434-2.89-3.033-2.394-8.541-8.947-1.867-4.198z" style="fill:#af6d63;fill-opacity:1;stroke-width:.997166" transform="translate(104.848 79.498)scale(.26254)"/><path d="M-106.203-9.48c.28-1.233.39-2.782.585-4.013l-2.282 1.164z" style="fill:#1f67a3;fill-opacity:.996078;stroke-width:.997166" transform="translate(104.848 79.498)scale(.26254)"/><path d="M-105.618-13.493c2.187-13.793-1.132-27.32-14.738-36.696-5.153-3.55-10.662-5.969-16.614-7.824-6.087-1.898-13.405-3.222-20.206-2.952-7.68.305-15.218 2.443-22.484 5.133-.016 4.512.693 10.19 2.164 14.755.169-.032.464-.104.653-.14 14.771-3.05 28.956-2.356 43.356 4.868 4.891 2.454 6.041 3.206 11.467 7.38-.74-.458 1.068 1.136.327.699 1.783 1.44 3.523 2.955 5.127 4.554 2.658 2.65 4.872 5.598 6.937 8.676.605.9 1.729 2.711 1.729 2.711z" style="fill:#2093cd;fill-opacity:1;stroke-width:.997166" transform="translate(104.848 79.498)scale(.26254)"/><path d="M-179.65-55.836c-4.255 1.573-8.29 3.558-11.867 6.084l1.412 5.744 2.022 5.837.707-.23c.865-.347 2.132-.59 3.184-.971l1.634-.46 2.408-.628 2.654-.617-1.276-5.048-.758-5.895z" style="fill:#2068a4;fill-opacity:1;stroke-width:.997166" transform="translate(104.848 79.498)scale(.26254)"/><path d="M-191.517-49.752c-5.46 3.858-9.847 8.98-12.29 15.835l4.31-.06 3.751-.059 3.739-2.296 3.924-1.84-2.022-5.836z" style="fill:#606f6f;fill-opacity:1;stroke-width:.997166" transform="translate(104.848 79.498)scale(.26254)"/><path d="M-203.81-33.909a34 34 0 0 0-1.008 3.387 41 41 0 0 0-.62 3.053l.937.097 1.143-1.322 3.609-2.827 4.003-2.515z" style="fill:#888e53;fill-opacity:1;stroke-width:.997166" transform="translate(104.848 79.498)scale(.26254)"/><path d="m-188.083-38.171 2.582 5.587s-1.7-.39-2.629-.583c-.928-.193-1.326-.308-3.162-.523l-4.454-.346 1.87-1.148 1.87-1.148z" style="fill:#854a1b;fill-opacity:1;stroke-width:.997166" transform="translate(104.848 79.498)scale(.26254)"/><path d="m-195.746-34.036 2.338.148s2.109.155 3.748.377c1.71.269 4.159.927 4.159.927l1.046 2.03 2.012 2.972-1.6 1.447-2.112 1.854-3.619-1.114-3.575-.939-3.597-.63-2.188-.275-3.067-.076-2.3-.056 1.143-1.324 1.719-1.49s1.57-1.291 3.89-2.593z" style="fill:#a37114;fill-opacity:1;stroke-width:.997166" transform="translate(104.848 79.498)scale(.26254)"/><path d="m-182.443-27.582 3.453 4.284 5.766 6.226s-3.275-2.415-4.066-2.84l-2.854-1.534c-.952-.51-1.041-.516-2.36-1.268-.274-.156-1.484-.561-3.651-1.567z" style="fill:#ca853b;fill-opacity:1;stroke-width:.997166" transform="translate(104.848 79.498)scale(.26254)"/><path d="M-205.439-27.47c-1.52 9.28.154 18.883 3.753 27.991 0 0 1.21-3.253 1.84-4.882.524-1.358 1.255-2.79 1.904-4.129.744-1.53 1.613-2.988 2.548-4.403 1.175-1.776 2.509-3.454 3.835-5.11.924-1.155 1.884-2.258 2.852-3.364l2.552-2.915-1.804-.573-3.63-1.08-3.52-.797-4.024-.507-5.368-.133z" style="fill:#51b710;fill-opacity:1;stroke-width:.997166" transform="translate(104.848 79.498)scale(.26254)"/><path d="M-201.686.521c5.2 13.159 14.422 25.285 23.857 33.908 3.87 3.537 8.564 7.71 13.733 10.247l1.15-1.1 2.426-2.934 2.395-3.465.712-1.972c2.953-13.5 2.84-26.1-3.817-38.022l-1.112-1.886a50 50 0 0 0-1.904-2.842c-1.234-1.713-2.64-3.228-4.005-4.792l-3.126-3.111s-2.132-2.03-3.318-2.895c-.816-.596-2.595-1.569-2.595-1.569l-5.213-2.801-3.652-1.569a132 132 0 0 1-2.44 2.573c-2.005 2.286-2.746 3.116-3.957 4.659-1.011 1.289-2.953 4.08-2.953 4.08-2.713 4.415-2.856 5.36-3.394 6.449-1.1 2.229-1.082 2.28-1.51 3.416-.553 1.468-1.277 3.626-1.277 3.626" style="fill:#64c22e;fill-opacity:1;stroke-width:.997166" transform="translate(104.848 79.498)scale(.26254)"/><path d="M-164.096 44.676q.973.479 1.968.872l1.402-2.467 1.87-3.709.731-2.195-1.197 1.733-1.198 1.732-1.213 1.467-1.214 1.467z" style="fill:#5baf3d;fill-opacity:1;stroke-width:.997166" transform="translate(104.848 79.498)scale(.26254)"/><path d="m-107.9-12.329 1.697 2.848-2.256 1.753-5.763 2.649-5.28 1.633-5.367 1.104-5.896.706-6.115-.044-4.796-.486-5.28-.927-3.959-.97-4.135-1.237-1.592-3.403-2.194-3.79-1.561-2.235-1.8-2.257 2.604 2.03 1.825 1.106 1.913 1.018 2.125 1.13 2.265 1.17 2.266 1.17 4.465 1.454 3.542.82 2.992.64 4.356.33 5.873-.143 6.137-.828 4.94-1.186 3.023-.963 3.542-1.603z" style="fill:#b0655b;fill-opacity:1;stroke-width:.997166" transform="translate(104.848 79.498)scale(.26254)"/><path d="M-162.128 45.548c2.888 1.143 5.904 1.713 8.992 1.337 11.064-1.346 21.308-12.65 28.024-20.64 8.015-9.534 15.83-22.668 18.91-35.726l-2.256 1.754-4.41 2.025-3.994 1.44-5.323 1.367-4.249.74-4.33.519-3.058-.022-7.854-.507-7.26-1.412-6.114-1.723c.34.624.58 1.536.836 2.104.185.376.862 2.366 1.101 3.375.523 2.188 1.015 4.37 1.392 6.598.102.76.203 1.608.269 2.373 0 0-.034-.067.103 1.423.008 1.704.095 3.565.01 5.264-.73 6.079-1.852 10.461-3.984 16.392l-1.324 2.67c-.28.511-.47.85-.704 1.256l-.774 1.022-1.666 4.048-.935 1.856z" style="fill:#b86652;fill-opacity:1;stroke-width:.997166" transform="translate(104.848 79.498)scale(.26254)"/><path d="M-160.703-42.943c-9.049-.057-18.168 1.759-27.38 4.772 4.484 13.212 15.674 20.274 23.462 31.084 9.787 13.584 10.075 28.6 6.496 44.264l.774-1.022c8.749-15.039 7.886-34.065-1.485-48.648-4.489-6.984-11.553-12.078-14.879-19.822 4.804-1.63 9.318-3.493 14.37-4.308 14.738-2.376 27.358 2.412 39.664 10.03-3.253-4.537-9.18-7.435-14.071-9.89-8.924-4.476-17.902-6.404-26.951-6.46" style="fill:#fff;fill-opacity:1;stroke-width:.997166" transform="translate(104.848 79.498)scale(.26254)"/></svg>