<svg xmlns="http://www.w3.org/2000/svg" xml:space="preserve" width="128" height="128" viewBox="0 0 128 128"><path d="M27.978 8h50l30.043 29.918v74.06c0 4.432-3.611 8.022-8.043 8.022h-72c-4.432 0-8-3.568-8-8V16c0-4.432 3.568-8 8-8" style="display:inline;fill:#a2abab;fill-opacity:1;stroke:none;stroke-width:.125;stroke-linejoin:round;stroke-miterlimit:4;stroke-dasharray:none;stroke-opacity:1"/><path d="M77.978 8v22c0 4.432 3.61 7.923 8.042 7.923l22-.005z" style="display:inline;vector-effect:none;fill:#deddda;fill-opacity:1;stroke:none;stroke-width:.125;stroke-linecap:butt;stroke-linejoin:round;stroke-miterlimit:4;stroke-dasharray:none;stroke-dashoffset:0;stroke-opacity:1"/><path d="M63.1 44.938c-4.125.164-8.173 1.312-12.076 2.757-2.282.845-4.447 1.91-6.366 3.265-2.932 2.072-5.29 4.823-6.601 8.505q3.85-.056-.001.004a18 18 0 0 0-.541 1.818q-.2.816-.334 1.64c-.816 4.983.082 10.14 2.015 15.032 2.792 7.066 7.745 13.578 12.812 18.209 2.079 1.9 4.599 4.14 7.375 5.503q.523.256 1.057.47c1.551.613 3.17.918 4.83.717 5.94-.723 11.442-6.795 15.05-11.085 4.303-5.12 8.501-12.174 10.155-19.186-4.395 2.311-3.696 2.87 0 0 .15-.662.208-1.494.313-2.155 1.175-7.407-.608-14.672-7.915-19.707-2.767-1.907-5.725-3.205-8.922-4.202-3.269-1.02-7.2-1.73-10.852-1.585Z" style="fill:#fff;fill-opacity:1;stroke-width:.535518"/><path d="M63.068 43.939c-4.267.17-8.454 1.357-12.491 2.852-2.361.874-4.601 1.975-6.586 3.377-3.033 2.143-5.471 4.99-6.829 8.798l2.396-.034-2.397.038q-.321.904-.56 1.882a23 23 0 0 0-.345 1.696c-.844 5.154.085 10.49 2.085 15.55 2.888 7.31 8.012 14.046 13.254 18.837 2.15 1.965 4.757 4.284 7.629 5.693q.541.267 1.094.485c1.604.635 3.28.951 4.995.742 6.147-.747 11.838-7.028 15.569-11.467 4.452-5.296 8.795-12.593 10.506-19.847l-1.254.975-2.45 1.125 2.45-1.126 1.254-.974c.155-.685.216-1.545.324-2.23 1.215-7.662-.629-15.178-8.188-20.386-2.863-1.972-5.923-3.316-9.23-4.347-3.381-1.054-7.447-1.79-11.226-1.64zm-12.424 4.8.023.303-.017-.133zm.4 3.24q.035.193.072.384l-.045-.18zM61.11 53.95c5.027.03 10.014 1.102 14.972 3.59l.035.018.112.056.175.088c2.651 1.33 5.76 2.911 7.495 5.333-6.836-4.233-13.848-6.893-22.036-5.573-2.806.453-5.314 1.488-7.982 2.394q.221.514.48 1.002l.002.003.134.208.09.203c1.501 2.64 3.732 4.762 5.686 7.093l.002.002.004.004q.516.614.997 1.252l.002.002q.456.605.867 1.242.659 1.026 1.216 2.099l.003.007c.058.112.104.228.16.34.26.52.514 1.044.739 1.578.1.19.184.423.262.646.065.183.125.358.188.496l.001.002c.104.216.479 1.315.611 1.873l.001.003a27 27 0 0 1 .687 3.26c.024.136.062.266.085.402a27 27 0 0 1 .207 2.104v.007c.004.946.052 1.98.005 2.922-.012.093-.033.16-.045.252a25.2 25.2 0 0 1-2.043 8.445c-.051.145-.072.26-.126.409l-.735 1.483a38 38 0 0 1-.391.698l-.43.568c1.989-8.702 1.828-17.045-3.609-24.592-1.5-2.083-3.222-3.912-4.943-5.723l-.001-.001-.007-.008c-.907-.956-1.81-1.917-2.679-2.894l-.352-.381-.34-.421a37 37 0 0 1-1.117-1.385l-.462-.574-.385-.57a26 26 0 0 1-.425-.628l-.308-.453-.286-.555c-.667-1.143-1.276-2.34-1.73-3.677l.393-.127h.001c.226-.09.5-.168.788-.248q.49-.15.98-.292l.037-.012.018-.004.853-.24 1.338-.348 1.429-.333.026-.007.018-.004.018-.003c.073-.015.147-.034.22-.048q.069-.016.126-.026c.354-.073.701-.102 1.054-.167 2.649-.498 5.287-.809 7.913-.792zm-17.33 5.115.335.026c.092.011.112.02.191.027-.233-.023-.347-.038-.527-.054zm-4.267 1.17q-.07.046-.137.093l.041-.034zm9.142 4.807q.264.103.343.146.005.004.009.004l-.009-.004zm14.422 5.25 1.907 1.015-1.181-.627zm4.424 2.315 2.49.81-.009-.002zm19.627.07-1.68.534-.01.002zm-19.503 3.136.038.011-.017-.003zm3.998.781.058.012.029.003-.03-.002z" style="fill:#b0655b;fill-opacity:1;stroke-width:.553984"/></svg>