<svg xmlns="http://www.w3.org/2000/svg" width="128" height="128" viewBox="0 0 128 128"><g style="display:inline"><path d="M124.828 857.328h200L445 977l.005 296.24c0 17.728-14.449 32.088-32.177 32.088h-288c-17.728 0-32-14.272-32-32v-384c0-17.728 14.272-32 32-32" style="display:inline;fill:#f6f5f4;fill-opacity:1;stroke:none;stroke-width:.5;stroke-linejoin:round;stroke-miterlimit:4;stroke-dasharray:none;stroke-opacity:1" transform="matrix(.25 0 0 .25 -3.23 -206.332)"/><path d="M324.828 857.328v88c0 17.728 14.443 31.694 32.17 31.694L445 977Z" style="display:inline;vector-effect:none;fill:#deddda;fill-opacity:1;stroke:none;stroke-width:.5;stroke-linecap:butt;stroke-linejoin:round;stroke-miterlimit:4;stroke-dasharray:none;stroke-dashoffset:0;stroke-opacity:1" transform="matrix(.25 0 0 .25 -3.23 -206.332)"/></g><path d="m-173.99-32.272 6.035-2.435 5.786-1.748 5.537-.811 6.222-.375 6.845.5 5.288 1.31 6.906 2.56 4.192 1.95 3.336 1.808 1.857 1.076s.552.224 1.781 1.395c0 0 1.508.993 2.3 2.038 0 0 1.669 1.338 2.329 2.31 0 0 1.417 1.11 2.398 2.774 0 0 2.46 2.82 3.55 4.88 0 0 .617.647 1.728 2.711l-2.429 1.49-3.013 1.434-4.576 1.457-3.916.86-4.465.773-3.344.11-4.201.089-4.356-.332-5.983-1.28-5.016-1.633-4.531-2.34-5.434-2.89-3.033-2.394-8.541-8.947-1.867-4.198z" style="fill:#af6d63;fill-opacity:1;stroke-width:.997166" transform="translate(150.389 77.808)scale(.55556)"/><path d="M-106.203-9.48c.28-1.233.39-2.782.585-4.013l-2.282 1.164z" style="fill:#1f67a3;fill-opacity:.996078;stroke-width:.997166" transform="translate(150.389 77.808)scale(.55556)"/><path d="M-105.618-13.493c2.187-13.793-1.132-27.32-14.738-36.696-5.153-3.55-10.662-5.969-16.614-7.824-6.087-1.898-13.405-3.222-20.206-2.952-7.68.305-15.218 2.443-22.484 5.133-.016 4.512.693 10.19 2.164 14.755.169-.032.464-.104.653-.14 14.771-3.05 28.956-2.356 43.356 4.868 4.891 2.454 6.041 3.206 11.467 7.38-.74-.458 1.068 1.136.327.699 1.783 1.44 3.523 2.955 5.127 4.554 2.658 2.65 4.872 5.598 6.937 8.676.605.9 1.729 2.711 1.729 2.711z" style="fill:#2093cd;fill-opacity:1;stroke-width:.997166" transform="translate(150.389 77.808)scale(.55556)"/><path d="M-179.65-55.836c-4.255 1.573-8.29 3.558-11.867 6.084l1.412 5.744 2.022 5.837.707-.23c.865-.347 2.132-.59 3.184-.971l1.634-.46 2.408-.628 2.654-.617-1.276-5.048-.758-5.895z" style="fill:#2068a4;fill-opacity:1;stroke-width:.997166" transform="translate(150.389 77.808)scale(.55556)"/><path d="M-191.517-49.752c-5.46 3.858-9.847 8.98-12.29 15.835l4.31-.06 3.751-.059 3.739-2.296 3.924-1.84-2.022-5.836z" style="fill:#606f6f;fill-opacity:1;stroke-width:.997166" transform="translate(150.389 77.808)scale(.55556)"/><path d="M-203.81-33.909a34 34 0 0 0-1.008 3.387 41 41 0 0 0-.62 3.053l.937.097 1.143-1.322 3.609-2.827 4.003-2.515z" style="fill:#888e53;fill-opacity:1;stroke-width:.997166" transform="translate(150.389 77.808)scale(.55556)"/><path d="m-188.083-38.171 2.582 5.587s-1.7-.39-2.629-.583c-.928-.193-1.326-.308-3.162-.523l-4.454-.346 1.87-1.148 1.87-1.148z" style="fill:#854a1b;fill-opacity:1;stroke-width:.997166" transform="translate(150.389 77.808)scale(.55556)"/><path d="m-195.746-34.036 2.338.148s2.109.155 3.748.377c1.71.269 4.159.927 4.159.927l1.046 2.03 2.012 2.972-1.6 1.447-2.112 1.854-3.619-1.114-3.575-.939-3.597-.63-2.188-.275-3.067-.076-2.3-.056 1.143-1.324 1.719-1.49s1.57-1.291 3.89-2.593z" style="fill:#a37114;fill-opacity:1;stroke-width:.997166" transform="translate(150.389 77.808)scale(.55556)"/><path d="m-182.443-27.582 3.453 4.284 5.766 6.226s-3.275-2.415-4.066-2.84l-2.854-1.534c-.952-.51-1.041-.516-2.36-1.268-.274-.156-1.484-.561-3.651-1.567z" style="fill:#ca853b;fill-opacity:1;stroke-width:.997166" transform="translate(150.389 77.808)scale(.55556)"/><path d="M-205.439-27.47c-1.52 9.28.154 18.883 3.753 27.991 0 0 1.21-3.253 1.84-4.882.524-1.358 1.255-2.79 1.904-4.129.744-1.53 1.613-2.988 2.548-4.403 1.175-1.776 2.509-3.454 3.835-5.11.924-1.155 1.884-2.258 2.852-3.364l2.552-2.915-1.804-.573-3.63-1.08-3.52-.797-4.024-.507-5.368-.133z" style="fill:#51b710;fill-opacity:1;stroke-width:.997166" transform="translate(150.389 77.808)scale(.55556)"/><path d="M-201.686.521c5.2 13.159 14.422 25.285 23.857 33.908 3.87 3.537 8.564 7.71 13.733 10.247l1.15-1.1 2.426-2.934 2.395-3.465.712-1.972c2.953-13.5 2.84-26.1-3.817-38.022l-1.112-1.886a50 50 0 0 0-1.904-2.842c-1.234-1.713-2.64-3.228-4.005-4.792l-3.126-3.111s-2.132-2.03-3.318-2.895c-.816-.596-2.595-1.569-2.595-1.569l-5.213-2.801-3.652-1.569a132 132 0 0 1-2.44 2.573c-2.005 2.286-2.746 3.116-3.957 4.659-1.011 1.289-2.953 4.08-2.953 4.08-2.713 4.415-2.856 5.36-3.394 6.449-1.1 2.229-1.082 2.28-1.51 3.416-.553 1.468-1.277 3.626-1.277 3.626" style="fill:#64c22e;fill-opacity:1;stroke-width:.997166" transform="translate(150.389 77.808)scale(.55556)"/><path d="M-164.096 44.676q.973.479 1.968.872l1.402-2.467 1.87-3.709.731-2.195-1.197 1.733-1.198 1.732-1.213 1.467-1.214 1.467z" style="fill:#5baf3d;fill-opacity:1;stroke-width:.997166" transform="translate(150.389 77.808)scale(.55556)"/><path d="m-107.9-12.329 1.697 2.848-2.256 1.753-5.763 2.649-5.28 1.633-5.367 1.104-5.896.706-6.115-.044-4.796-.486-5.28-.927-3.959-.97-4.135-1.237-1.592-3.403-2.194-3.79-1.561-2.235-1.8-2.257 2.604 2.03 1.825 1.106 1.913 1.018 2.125 1.13 2.265 1.17 2.266 1.17 4.465 1.454 3.542.82 2.992.64 4.356.33 5.873-.143 6.137-.828 4.94-1.186 3.023-.963 3.542-1.603z" style="fill:#b0655b;fill-opacity:1;stroke-width:.997166" transform="translate(150.389 77.808)scale(.55556)"/><path d="M-162.128 45.548c2.888 1.143 5.904 1.713 8.992 1.337 11.064-1.346 21.308-12.65 28.024-20.64 8.015-9.534 15.83-22.668 18.91-35.726l-2.256 1.754-4.41 2.025-3.994 1.44-5.323 1.367-4.249.74-4.33.519-3.058-.022-7.854-.507-7.26-1.412-6.114-1.723c.34.624.58 1.536.836 2.104.185.376.862 2.366 1.101 3.375.523 2.188 1.015 4.37 1.392 6.598.102.76.203 1.608.269 2.373 0 0-.034-.067.103 1.423.008 1.704.095 3.565.01 5.264-.73 6.079-1.852 10.461-3.984 16.392l-1.324 2.67c-.28.511-.47.85-.704 1.256l-.774 1.022-1.666 4.048-.935 1.856z" style="fill:#b86652;fill-opacity:1;stroke-width:.997166" transform="translate(150.389 77.808)scale(.55556)"/><path d="M-160.703-42.943c-9.049-.057-18.168 1.759-27.38 4.772 4.484 13.212 15.674 20.274 23.462 31.084 9.787 13.584 10.075 28.6 6.496 44.264l.774-1.022c8.749-15.039 7.886-34.065-1.485-48.648-4.489-6.984-11.553-12.078-14.879-19.822 4.804-1.63 9.318-3.493 14.37-4.308 14.738-2.376 27.358 2.412 39.664 10.03-3.253-4.537-9.18-7.435-14.071-9.89-8.924-4.476-17.902-6.404-26.951-6.46" style="fill:#fff;fill-opacity:1;stroke-width:.997166" transform="translate(150.389 77.808)scale(.55556)"/></svg>