<svg xmlns="http://www.w3.org/2000/svg" xml:space="preserve" width="128" height="128" viewBox="0 0 128 128"><g style="display:inline"><path d="M124.828 857.328h200L445 977l.005 296.24c0 17.728-14.449 32.088-32.177 32.088h-288c-17.728 0-32-14.272-32-32v-384c0-17.728 14.272-32 32-32" style="display:inline;fill:#f6f5f4;fill-opacity:1;stroke:none;stroke-width:.5;stroke-linejoin:round;stroke-miterlimit:4;stroke-dasharray:none;stroke-opacity:1" transform="matrix(.25 0 0 .25 -3.23 -206.332)"/><path d="M324.828 857.328v88c0 17.728 14.443 31.694 32.17 31.694L445 977Z" style="display:inline;vector-effect:none;fill:#deddda;fill-opacity:1;stroke:none;stroke-width:.5;stroke-linecap:butt;stroke-linejoin:round;stroke-miterlimit:4;stroke-dasharray:none;stroke-dashoffset:0;stroke-opacity:1" transform="matrix(.25 0 0 .25 -3.23 -206.332)"/></g><path d="M57.094 103.247c-10.71-2.593-18.699-12.421-19.436-23.914l-.243-3.782H49.79l.293 2.805c.647 6.187 4.338 11.148 9.388 12.616 3.242.942 8.237.659 11.15-.633 6.179-2.74 9.03-10.294 6.186-16.393-2.1-4.503-7.812-8.762-12.453-9.285l-2.056-.232v3.957c0 2.175-.136 3.956-.303 3.956-.491 0-24.452-13.9-24.449-14.182.003-.258 24.043-14.24 24.483-14.24.128 0 .293 1.804.366 4.01l.132 4.012 3.808.315c12.506 1.037 21.66 8.967 23.752 20.577 1.176 6.524.276 12.38-2.804 18.241-2.98 5.67-9.192 10.525-15.606 12.196-3.358.875-10.923.862-14.584-.024" style="fill:#2068a4;fill-opacity:1;stroke-width:.343819"/></svg>