<svg xmlns="http://www.w3.org/2000/svg" xml:space="preserve" width="128" height="128" viewBox="0 0 128 128"><defs><filter id="com_fender_studio_application_x_fender_fenderstudio_a" width="452.076" height="182.684" x="23.962" y="154" color-interpolation-filters="sRGB" filterUnits="userSpaceOnUse"><feFlood flood-opacity="0" result="BackgroundImageFix"/><feColorMatrix in="SourceAlpha" result="hardAlpha" values="0 0 0 0 0 0 0 0 0 0 0 0 0 0 0 0 0 0 127 0"/><feOffset dy="12"/><feGaussianBlur stdDeviation="4.2"/><feColorMatrix values="0 0 0 0 0.0588235 0 0 0 0 0.0588235 0 0 0 0 0.0588235 0 0 0 0.75 0"/><feBlend in2="BackgroundImageFix" result="effect1_dropShadow_3_44"/><feBlend in="SourceGraphic" in2="effect1_dropShadow_3_44" result="shape"/></filter></defs><path d="M27.978 8h50l30.043 29.918v74.06c0 4.432-3.611 8.022-8.043 8.022h-72c-4.432 0-8-3.568-8-8V16c0-4.432 3.568-8 8-8" style="display:inline;fill:#19181a;fill-opacity:1;stroke:none;stroke-width:.125;stroke-linejoin:round;stroke-miterlimit:4;stroke-dasharray:none;stroke-opacity:1;enable-background:new"/><path d="M77.978 8v22c0 4.432 3.61 7.923 8.042 7.923l22-.005z" style="display:inline;vector-effect:none;fill:#0083ff;fill-opacity:1;stroke:none;stroke-width:.125;stroke-linecap:butt;stroke-linejoin:round;stroke-miterlimit:4;stroke-dasharray:none;stroke-dashoffset:0;stroke-opacity:1;enable-background:new"/><path fill="#0083ff" d="M-63.847 85.03c-.626-.563-1.165-.6-1.403-.6-.263 0-.588.037-.814.287a.75.75 0 0 0-.213.527c0 .2.063.35.188.463.2.188.489.263 1.052.476l.627.238c.363.138.814.325 1.14.639.488.463.613 1.064.613 1.553 0 .864-.3 1.616-.739 2.066-.739.777-1.816.852-2.367.852-.601 0-1.128-.087-1.654-.35-.426-.213-.914-.602-1.228-.915l1.003-1.378c.212.213.55.501.776.639.326.2.664.3 1.052.3.251 0 .602-.05.877-.288a.87.87 0 0 0 .301-.676.74.74 0 0 0-.288-.6c-.225-.189-.739-.377-.977-.464l-.689-.238c-.388-.138-.84-.314-1.165-.664-.438-.464-.5-1.052-.5-1.454 0-.738.225-1.365.726-1.878.588-.602 1.29-.764 2.066-.764.577 0 1.504.1 2.48.826zm6.764-.413v6.727h-1.929v-6.727h-1.816V82.99h5.561v1.628zm11.149 3.32c0 .802-.1 1.791-.927 2.643-.802.827-1.73.952-2.606.952s-1.803-.125-2.605-.952c-.827-.852-.927-1.842-.927-2.643v-4.948h1.929v4.898c0 .363.025.976.438 1.402.339.364.802.439 1.165.439s.827-.075 1.165-.439c.414-.426.438-1.04.438-1.402v-4.898h1.93zm5.724-4.948c1.102 0 2.267.163 3.295 1.152.739.714 1.202 1.692 1.202 2.994s-.45 2.267-1.14 2.956c-1.152 1.165-2.593 1.253-3.294 1.253h-2.706v-8.355zm-.714 6.727h.513c.401 0 1.278-.038 1.904-.564.451-.376.815-1.09.815-2.017s-.364-1.478-.69-1.804c-.626-.626-1.44-.713-2.029-.713h-.513zm9.871-6.727v8.355h-1.93V82.99zm10.523 1.027c.788.764 1.302 1.867 1.302 3.157 0 1.115-.4 2.254-1.303 3.131-.777.752-1.829 1.228-3.232 1.228-1.565 0-2.63-.626-3.256-1.228-.802-.751-1.303-1.878-1.303-3.106s.538-2.418 1.29-3.17c.564-.563 1.603-1.227 3.27-1.227 1.302 0 2.392.4 3.23 1.215zm-5.074 1.278c-.363.35-.74.965-.74 1.891 0 .765.251 1.379.765 1.88.539.513 1.14.689 1.791.689.852 0 1.454-.314 1.854-.714.326-.313.727-.902.727-1.867 0-.864-.35-1.503-.727-1.878-.413-.401-1.077-.714-1.841-.714s-1.378.263-1.829.714z" style="stroke-width:.171875" transform="translate(98.773 18.551)scale(.7722)"/><g fill="#fff" filter="url(#com_fender_studio_application_x_fender_fenderstudio_a)" style="fill:none" transform="translate(30.82 37.168)scale(.13272)"><path d="M460.051 264.536c-2.246-.272-8.521 7.614-13.598 1.994-4.215-4.667 6.209-14.12 7.795-17.766 3.529-8.116-8.338-8.702-13.052-14.866-3.041-4.053 4.852-16.505-5.028-19.798-3.226-1.074-13.203 4.928-9.655 22.155-4.534 17.042-35.626 47.559-43.659 34.838-1.675-2.652 1.841-7.808 9.755-9.455 13.052-2.72 12.027-10.798 5.801-11.602-9.791-1.27-12.509-1.27-24.178-4.001-4.602-.486-4.451-6.599.972-6.514 2.244-.091 7.786.639 19.76 1.087 10.339.386 13.84-6.149 14.466-11.829.259-2.391-2.074-3.024-5.104-2.33-9.591 1.956-11.991 2.461-21.69 2.374-11.577-.106-25.846 3.23-26.107 13.416-.259 10.118 12.974 12.385 19.851 14.322 1.905.452 2.629 1.994 1.361 2.992-2.94 2.348-9.57 5.446-10.359 10.977-1.122 7.838 6.004 13.978 15.044 13.789 12.035-.25 25.331-5.365 38.101-20.69 3.608-4.329 7.657-11.642 10.152-14.865.601-1.162 2.321-1.716 3.081-1.633 2.282.507 5.512 2.234 5.077 4.714-.663 3.792-10.984 15.611-4.111 22.73 4.221 4.372 14.855 7.545 23.327 1.383 7.931-5.767 5.136-11.04 1.994-11.422zm-173.501 9.247c-6.79-1.567 10.43-31.621 1.994-38.252-10.895-8.566-21.716 6.232-29.551 16.679-3.089 4.121-5.378 2.312-7.385-3.489-2.234-6.451-15.632-1.737-23.323 2.234-12.269 6.332-34.933 27.514-37.046 16.949-.365-1.824 2.593-5.893 8.109-7.899 6.468-2.353 13.779-4.449 13.779-8.341 0-3.009-1.824-5.121-3.761-5.015-9.026.501-19.511 2.888-31.525-.416-3.192-.788-3.905-6.908 4.204-6.007 2.147.238 6.926.917 25.1.923 9.438.002 12.152-7.045 10.702-12.177-.442-1.2-1.453-1.452-2.778-1.136-8.582 2.208-12.616 1.709-23.879 1.709-11.818 0-27.737 1.631-27.058 13.021.574 9.578 14.021 12.209 20.985 12.997 1.994-.181 2.629 1.722 1.179 2.72-3.143 3.183-6.767 7.586-7.251 11.149-1.051 7.708 2.907 14.698 12.691 14.322 14.878-.571 33.685-27.582 45.068-26.936.966 0 2.376.295 2.287 2.153-1.486 7.015-3.119 11.729-1.306 17.713 1.276 4.215 6.861 6.847 10.878 3.807 6.708-5.077 6.797-7.967 15.492-19.403 1.44-1.892 6.723-10.577 9.162-9.424 2.028.958 1.465 3.771 1.087 5.984-1.828 10.708-6.469 27.631 14.686 25.019 5.032-.62 9.081-4.013 5.257-7.614-2.31-2.176-4.894-.599-7.795-1.27z"/><path d="M183.213 215.043c1.393-7.457.017-7.432-3.674-6.36 0 0-19.328 6.063-23.7 7.267-3.971 1.095-3.846.59-3.081-2.357 0 0 .42-1.565 1.813-7.795 7.03-31.466 2.96-39.819-2.72-44.599-14.379-11.887-66.88 12.783-104.429 42.422-12.508 10.878-19.762 13.416-11.602 22.117 5.198 5.128 9.774 3.739 11.965 1.814 8.001-7.479 20.932-19.684 31.545-27.92 14.32-11.112 33.177-25.2 50.219-29.188 13.522-3.427 17.586.544 15.773 14.322-1.066 11.827-10.152 38.435-10.152 38.435s-13.961 6.245-18.129 7.797c-3.396 1.263-6.952 2.507-7.122 8.049-.365 8.165 5.451 5.043 7.933 3.905 2.682-1.231 8.413-4.153 10.61-5.064 3.463-1.435 3.4-.52 2.538 2.174-1.631 5.258-4.574 13.775-10.152 26.107-7.071 16.862-19.762 39.885-21.393 45.686.18 3.807 4.351 4.351 9.84 4.429 5.051-.388 7.383-3.885 7.383-3.885s6.571-14.099 16.674-38.966c7.339-18.061 12.127-32.984 14.146-39.715 1.276-4.238 1.465-3.954 6.527-5.621 7.181-1.996 10.42-2.841 15.04-4.077 9.999-2.467 12.855-2.046 14.15-8.975zm175.794 56.634c-3.562-2.79-5.96 2.688-11.903 1.924-12.689-1.631 1.535-38.492 8.884-61.459 6.268-19.588 13.205-33.655 19.159-49.533 3.831-10.214-8.41-9.712-12.855-6.748-4.289 2.858-20.012 51.788-26.578 76.95 0 0-1.414 5.279-3.295 17.333-.302 1.956-1.312 9.547-1.748 11.918-1.63 8.884-7.994 13.673-13.479 12.63-6.847-1.306-7.816-11.472-5.983-19.036 2.008-8.291 8.884-17.609 16.742-15.339 3.786.883 5.678.378 5.931-2.144.327-3.258-3.533-5.175-3.533-5.175-15.063-7.58-28.555 4.784-32.012 22.295-4.034 20.437 8.614 36.734 29.134 25.081 6.422-3.648 6.105 4.814 20.54 4.289 10.493-1.023 16.443-8.718 10.996-12.984zm104.542-45.95a10 10 0 0 1-.019-.592v-.582q-.001-.6-.436-1.233-.433-.63-1.369-.78.739-.117 1.153-.384.78-.503.779-1.567 0-1.499-1.234-2.011-.689-.286-2.17-.286h-2.781v7.947h1.401v-3.136h1.104q1.114 0 1.557.257.75.443.749 1.824v.631l.03.256a1 1 0 0 0 .021.09l.019.078h1.313l-.051-.097c-.032-.066-.058-.204-.068-.415zm-2.081-3.777q-.442.178-1.332.178h-1.261v-2.879h1.194q1.162 0 1.686.295.53.297.53 1.164.001.917-.817 1.242"/><path d="M465.521 217.177q-2.12-2.112-5.128-2.111-2.989 0-5.098 2.111-2.121 2.12-2.121 5.107c0 1.991.701 3.724 2.1 5.138q2.108 2.13 5.117 2.13t5.128-2.13 2.119-5.138q0-2.998-2.119-5.107zm-.72 9.547q-1.815 1.834-4.408 1.834-2.592 0-4.408-1.834-1.805-1.835-1.805-4.438c0-1.735.605-3.192 1.816-4.408q1.823-1.835 4.397-1.835c1.716 0 3.192.612 4.408 1.835q1.813 1.824 1.814 4.408c0 1.722-.606 3.215-1.814 4.438"/></g></svg>