<svg xmlns="http://www.w3.org/2000/svg" width="128" height="128" viewBox="0 0 128 128"><path d="M27.978 8h50l30.043 29.918.001 74.06c0 4.432-3.612 8.022-8.044 8.022h-72c-4.432 0-8-3.568-8-8V16c0-4.432 3.568-8 8-8" style="display:inline;fill:#ff7228;fill-opacity:1;stroke:none;stroke-width:.125;stroke-linejoin:round;stroke-miterlimit:4;stroke-dasharray:none;stroke-opacity:1"/><path d="M77.978 8v22c0 4.432 3.61 7.923 8.043 7.923l22-.005z" style="display:inline;vector-effect:none;fill:#000;fill-opacity:.2;stroke:none;stroke-width:.125;stroke-linecap:butt;stroke-linejoin:round;stroke-miterlimit:4;stroke-dasharray:none;stroke-dashoffset:0;stroke-opacity:1"/><path d="M-104.03 74.515a3.62 3.62 0 0 1-3.62-3.62 3.62 3.62 0 0 1 3.62-3.622 3.62 3.62 0 0 1 3.622 3.621 3.62 3.62 0 0 1-3.621 3.621m-.001-9.847a3.62 3.62 0 0 1-3.62-3.62 3.62 3.62 0 0 1 3.62-3.622 3.62 3.62 0 0 1 3.622 3.621c0 2.033-1.588 3.621-3.621 3.621m9.847 9.847a3.62 3.62 0 0 1-3.621-3.62 3.62 3.62 0 0 1 3.62-3.622 3.62 3.62 0 0 1 3.622 3.621 3.62 3.62 0 0 1-3.621 3.621m0-9.847a3.62 3.62 0 0 1-3.621-3.62 3.62 3.62 0 0 1 3.62-3.622 3.62 3.62 0 0 1 3.622 3.621c0 2.033-1.588 3.621-3.621 3.621m0-9.847a3.62 3.62 0 0 1-3.621-3.621 3.62 3.62 0 0 1 3.62-3.621A3.62 3.62 0 0 1-90.56 51.2c0 2.033-1.588 3.621-3.621 3.621m9.846 9.847a3.62 3.62 0 0 1-3.621-3.62 3.62 3.62 0 0 1 3.62-3.622 3.62 3.62 0 0 1 3.622 3.621 3.62 3.62 0 0 1-3.621 3.621m0-9.847a3.62 3.62 0 0 1-3.621-3.621 3.62 3.62 0 0 1 3.62-3.621 3.62 3.62 0 0 1 3.622 3.621 3.62 3.62 0 0 1-3.621 3.621m9.847 9.847a3.62 3.62 0 0 1-3.621-3.62 3.62 3.62 0 0 1 3.62-3.622 3.62 3.62 0 0 1 3.622 3.621c-.064 2.033-1.652 3.621-3.621 3.621m0-9.847A3.62 3.62 0 0 1-78.11 51.2a3.62 3.62 0 0 1 3.62-3.621 3.62 3.62 0 0 1 3.622 3.621c-.064 2.033-1.652 3.621-3.621 3.621m9.784 19.694a3.62 3.62 0 0 1-3.62-3.62 3.62 3.62 0 0 1 3.62-3.622 3.62 3.62 0 0 1 3.621 3.621 3.62 3.62 0 0 1-3.62 3.621m-.001-9.847a3.62 3.62 0 0 1-3.62-3.62 3.62 3.62 0 0 1 3.62-3.622 3.62 3.62 0 0 1 3.621 3.621c0 2.033-1.588 3.621-3.62 3.621m-.001-9.847a3.62 3.62 0 0 1-3.62-3.621 3.62 3.62 0 0 1 3.62-3.621 3.62 3.62 0 0 1 3.621 3.621c0 2.033-1.588 3.621-3.62 3.621m9.846 19.694a3.62 3.62 0 0 1-3.62-3.62 3.62 3.62 0 0 1 3.62-3.622 3.62 3.62 0 0 1 3.622 3.621c0 1.97-1.652 3.621-3.622 3.621m0-9.847a3.62 3.62 0 0 1-3.62-3.62 3.62 3.62 0 0 1 3.62-3.622 3.62 3.62 0 0 1 3.622 3.621 3.62 3.62 0 0 1-3.622 3.621" class="st1" style="fill:#fff;stroke-width:.635293" transform="translate(148.493 24.748)scale(1.06356)"/></svg>