<svg xmlns="http://www.w3.org/2000/svg" xml:space="preserve" width="128" height="128" viewBox="0 0 128 128"><path d="M27.978 8h50l30.043 29.918v74.06c0 4.432-3.611 8.022-8.043 8.022h-72c-4.432 0-8-3.568-8-8V16c0-4.432 3.568-8 8-8" style="display:inline;fill:#19181a;fill-opacity:1;stroke:none;stroke-width:.125;stroke-linejoin:round;stroke-miterlimit:4;stroke-dasharray:none;stroke-opacity:1"/><path d="M77.978 8v22c0 4.432 3.61 7.923 8.042 7.923l22-.005z" style="display:inline;vector-effect:none;fill:#0083ff;fill-opacity:1;stroke:none;stroke-width:.125;stroke-linecap:butt;stroke-linejoin:round;stroke-miterlimit:4;stroke-dasharray:none;stroke-dashoffset:0;stroke-opacity:1"/><path d="m93.794 80.07-14.62 8.442a.413.413 0 0 1-.62-.358V71.27c0-.318.345-.517.62-.358l14.62 8.442a.413.413 0 0 1 0 .716M76.668 66.385a2.26 2.26 0 0 1-1.575 1.043v25.586l4.8 1.991a.5.5 0 0 1 .683 0l.948.892a.528.528 0 0 1-.36.91H79.59a.52.52 0 0 1-.36-.154l-.133-.133a.53.53 0 0 1 0-.72l-4.06-1.69h-1.954l-6.412 2.504a2.7 2.7 0 0 1-.948.17h-.55V95.74l7-4.817.018-.02v1.1l-5.444 3.736 6.26-2.617v-25.75a2.05 2.05 0 0 1-1.366-.986s-7.418-1.062-7.418-1.972h19.863c0 .91-7.07 1.411-7.417 1.972M71.64 61.34a2.42 2.42 0 0 1 1.879-1.1v-2.097a.52.52 0 0 1 .518-.519h.013c.291 0 .53.24.53.53v2.049a2.5 2.5 0 0 1 2.086 1.138s7.418 1.062 7.418 1.971h-19.86c0-.91 7-1.33 7.416-1.972M54.801 75.392h14.926c.284 0 .518.235.518.519v.013c0 .29-.238.53-.53.53h-.531v5.214h.53v-.532c0-.291.24-.53.53-.53h.001l-.04.04c.292 0 .53.239.53.53v1.575a2.1 2.1 0 0 1-2.086 2.085h-5.216v12.86l4.8 1.99a.5.5 0 0 1 .682 0l.949.892a.529.529 0 0 1-.36.91h-1.575a.52.52 0 0 1-.36-.154l-.133-.133a.53.53 0 0 1 0-.721l-1.633-.68q.045.076.092.147l-2.564-1.056a1.03 1.03 0 0 1-1.067.57 1.03 1.03 0 0 1-1.067-.57l-2.564 1.056.092-.146-1.633.679a.53.53 0 0 1 0 .721l-.133.133a.52.52 0 0 1-.36.153h-1.575a.529.529 0 0 1-.36-.91l.949-.891a.5.5 0 0 1 .683 0l4.8-1.99v-12.86h-5.217a2.1 2.1 0 0 1-2.087-2.085v-1.575c0-.291.24-.53.53-.53h.001l-.04-.04c.291 0 .53.239.53.53v.532h.531v-5.215h-.532a.53.53 0 0 1-.53-.53v-.012c0-.284.235-.519.519-.519m14.914 7.338H54.814c.005.57.472 1.038 1.043 1.043h12.815a1.056 1.056 0 0 0 1.043-1.043M52.927 99.135a7 7 0 0 1-1.682 2.065 4.3 4.3 0 0 1-1.6.811 16.5 16.5 0 0 1-3.829.517c-.596.024-1.218.047-1.814.024.049.025.109.037.109.108a5 5 0 0 0-.74 0c0-.071.072-.095.12-.12-.203.013-.406 0-.597 0a28 28 0 0 1-3.128-.214 12 12 0 0 1-2.136-.49 4.1 4.1 0 0 1-1.098-.548 6.55 6.55 0 0 1-1.872-2.09 5.55 5.55 0 0 1-.657-2.804c.057-1.237.337-2.453.824-3.591.394-.991.86-1.933 1.325-2.9q.347-.7.621-1.431a5.1 5.1 0 0 0 .24-2.15 6 6 0 0 0-.537-1.897q-.334-.763-.561-1.563a7.4 7.4 0 0 1-.298-2.279 3 3 0 0 1 .38-1.357 2.5 2.5 0 0 1 1.495-1.112c.366-.096.747-.12 1.122-.072a.4.4 0 0 1-.107-.06l.012-.06h.071a.17.17 0 0 0 .108-.012l.024-.12a1.3 1.3 0 0 1-.274-.345.25.25 0 0 1 .18-.037q.365.037.716.143.087.026.143.096c-.107.06-.215.143-.322.203l-.084-.012-.012.131h.048c.06.036.12.072.12.144a.5.5 0 0 1-.132.012c.624.19 1.228.442 1.803.752a1.9 1.9 0 0 0 .859.262.57.57 0 0 0 .477-.31c.121-.164.072-.381.083-.56.036-.876.012-1.754.036-2.613.012-1.014.012-2.04.036-3.067 0-.906.012-1.825.036-2.732 0-.86 0-1.695.024-2.554l.036-2.399c.012-.918 0-1.837.036-2.756.012-.68.012-1.348.023-2.028.024-.93.024-1.885.036-2.828.024-.836.024-1.67.036-2.518a.9.9 0 0 0-.06-.465c-.142-.287-.438-.392-.632-.633a.66.66 0 0 1-.06-.632c.085-.274.156-.536.24-.81a1 1 0 0 1-.228-.108q-.09.19-.202.37a1.2 1.2 0 0 1-.43-.143c-.036-.012-.036-.06-.048-.096a1.08 1.08 0 0 1 .18-.847.46.46 0 0 1 .229-.205c.142.024.298.083.453.119-.012.155-.036.298-.06.442q.12.003.24.022c.1-.308.182-.607.276-.919a1.4 1.4 0 0 1-.227-.107 1.2 1.2 0 0 1-.203.37 2 2 0 0 1-.441-.155.5.5 0 0 1-.07-.288.98.98 0 0 1 .405-.86q.228.084.465.131-.006.218-.047.43.125-.003.25.012c.097-.334.204-.655.287-.978a1 1 0 0 0-.19-.096c-.084.107-.132.25-.215.358a1.6 1.6 0 0 1-.466-.154 1.02 1.02 0 0 1 .074-.834.66.66 0 0 1 .286-.286q.236.036.465.107c-.012.155-.036.298-.06.442q.115-.003.229.01c.096-.31.192-.642.286-.954-.047-.024-.095-.024-.12-.048a.3.3 0 0 1-.095-.071q-.075.201-.19.381a1.5 1.5 0 0 1-.43-.142c-.048-.024-.048-.072-.06-.108a1 1 0 0 1 .013-.49.96.96 0 0 1 .238-.429c.072-.047.12-.119.203-.107q.207.064.418.107a5 5 0 0 1-.06.442c.036-.012.084-.012.12-.024l.107.036c.096-.31.18-.631.275-.943a1 1 0 0 1-.203-.107 3 3 0 0 1-.203.37 2 2 0 0 1-.465-.155 1.01 1.01 0 0 1 .358-1.146c.167.047.322.083.478.119a5 5 0 0 1-.06.442c.048 0 .084-.012.132-.012q.05.001.095.024c.096-.31.178-.629.287-.954-.084-.036-.143-.072-.215-.096q-.091.19-.203.37a1.6 1.6 0 0 1-.465-.155 1.01 1.01 0 0 1 .346-1.134h.017c.141.035.276.077.42.11a4 4 0 0 1-.06.442c.037-.011.084-.011.12-.023.036.012.096.023.132.035a.95.95 0 0 1 .394-.417c.149-.068.313-.1.477-.095a1.3 1.3 0 0 1 .477.095c.383.167.678.487.812.883.126.36.1.757-.072 1.098-.167.357-.525.643-.56 1.061-.025.167.106.321.178.466.18.365.286.763.311 1.17a4.6 4.6 0 0 1-.346 1.873c-.179.465-.37.943-.513 1.42a7.1 7.1 0 0 0-.298 2.398c-.001.478 0 .978.011 1.468.025.764.023 1.53.036 2.303.024.74.024 1.48.024 2.22.024.954.013 1.897.036 2.851.014.702.012 1.42.024 2.124.036.728.024 1.457.036 2.184.012.824 0 1.647.024 2.459.024.906.012 1.801.048 2.696-.001.502.012.99.012 1.492.035.919.023 1.837.047 2.768 0 .454.012.895.012 1.348 0 .74.024 1.504.024 2.244.028.354.147.696.347.99.232.362.623.592 1.052.618.503-.004.986-.19 1.361-.525.162-.114.304-.256.418-.417a4.7 4.7 0 0 0 .728-1.396q.17-.605.466-1.157a1.07 1.07 0 0 1 .788-.525.95.95 0 0 1 .776.298c.42.47.672 1.065.717 1.694a6.7 6.7 0 0 1-.358 2.696c-.167.55-.383 1.074-.597 1.6a5.9 5.9 0 0 0-.48 2.216c.023.666.156 1.323.394 1.946.146.355.263.74.442 1.086a27 27 0 0 1 1.515 3.59 8.8 8.8 0 0 1 .465 3.567 5.8 5.8 0 0 1-.583 1.994m-9.226-54.948h-.031l-.033-.008z" style="clip-rule:evenodd;fill:#fff;fill-rule:evenodd;stroke-width:.103264;stroke-linejoin:round;stroke-miterlimit:2"/></svg>