<svg xmlns="http://www.w3.org/2000/svg" width="128" height="128" viewBox="0 0 128 128"><path fill="#f6f5f4" d="M28 8h50l30.043 29.918v74.059c0 4.433-3.61 8.023-8.043 8.023H28a7.98 7.98 0 0 1-8-8V16c0-4.434 3.566-8 8-8m0 0"/><path fill="#deddda" d="M78 8v22c0 4.434 3.61 7.922 8.043 7.922l22-.004zm0 0"/><path fill="#1a5fb4" d="M35.988 99.926v-2h60v2zm0 0"/><path fill="#3584e4" d="M63.707 55.621c-6.926 0-13.934 1.852-18.684 5.234l4.512 8.778c3.14-2.496 7.89-4.028 12.48-4.028 6.762 0 9.985 3.141 9.985 8.536h-9.984c-13.207 0-18.602 5.316-18.602 12.964 0 7.489 6.04 13.125 16.184 13.125 6.363 0 10.87-2.093 13.207-6.039v5.399h11.757V74.867c0-13.125-7.652-19.246-20.855-19.246m-.969 36.156c-4.425 0-7.086-2.093-7.086-5.234 0-2.898 1.852-5.074 7.73-5.074H72v4.43c-1.45 3.945-5.074 5.878-9.262 5.878m0 0"/><g fill="#1a5fb4"><path d="M89.988 49.926h2v56h-2zm-2.992 0 3.992-3.992 3.992 3.992zm0 0"/><path d="m86.996 103.934 3.992 3.992 3.992-3.992zm0 0"/></g></svg>