<svg xmlns="http://www.w3.org/2000/svg" xmlns:xlink="http://www.w3.org/1999/xlink" xml:space="preserve" width="128" height="128" viewBox="0 0 128 128"><defs><linearGradient id="image_vnd_djvu_a"><stop offset=".406" style="stop-color:#8f83af;stop-opacity:1"/><stop offset=".697" style="stop-color:#f1eff5;stop-opacity:1"/><stop offset=".879" style="stop-color:#8f83af;stop-opacity:1"/><stop offset="1" style="stop-color:#c7c1d7;stop-opacity:1"/></linearGradient><linearGradient xlink:href="#image_vnd_djvu_a" id="image_vnd_djvu_b" x1="10.592" x2="80.592" y1="45.996" y2="45.996" gradientUnits="userSpaceOnUse"/></defs><path d="M27.978 8h50l30.043 29.918.001 74.06c0 4.432-3.612 8.022-8.044 8.022h-72c-4.432 0-8-3.568-8-8V16c0-4.432 3.568-8 8-8" style="display:inline;fill:#714ba7;fill-opacity:1;stroke:none;stroke-width:.125;stroke-linejoin:round;stroke-miterlimit:4;stroke-dasharray:none;stroke-opacity:1"/><rect width="33.158" height="32.178" x="23.646" y="87.893" rx="4" ry="4.001" style="opacity:1;fill:#f89c12;fill-opacity:1;stroke-width:.706943" transform="matrix(.92765 -.37344 .35972 .93306 0 0)"/><path d="M20.613 12.863a19.5 19.5 0 0 0-4.234 3.205c-7.716 7.717-7.716 20.329 0 28.045l3.6 3.598.511.512 26.27 26.271c7.716 7.716 20.328 7.716 28.045 0 7.716-7.716 7.716-20.329 0-28.045L53.773 25.416c-5.135-5.135-13.564-5.135-18.699 0s-5.135 13.562 0 18.697L56.11 65.146a6.61 6.61 0 0 0 9.348 0v-2L39.75 39.44c-2.712-2.5-2.609-6.74 0-9.35a6.56 6.56 0 0 1 9.348 0L70.13 51.126a13.17 13.17 0 0 1 0 18.695 13.173 13.173 0 0 1-18.697 0L21.053 39.44c-.2-.2-.378-.414-.563-.624-.182-.206-.345-.422-.511-.636a13.12 13.12 0 0 1 0-16.18v-6c0-1.115.226-2.174.634-3.137" style="fill:url(#image_vnd_djvu_b);fill-opacity:1;stroke-width:.82626"/><path d="M77.978 8v22c0 4.432 3.61 7.923 8.043 7.923l22-.005z" style="display:inline;vector-effect:none;fill:#f89c12;fill-opacity:1;stroke:none;stroke-width:.125;stroke-linecap:butt;stroke-linejoin:round;stroke-miterlimit:4;stroke-dasharray:none;stroke-dashoffset:0;stroke-opacity:1"/><path d="M23.014 9.71a19.6 19.6 0 0 0-6.635 4.358c-7.716 7.717-7.716 20.329 0 28.045l3.6 3.598.511.512 26.27 26.271c7.716 7.716 20.328 7.716 28.045 0 7.716-7.716 7.716-20.329 0-28.045L53.773 23.416c-5.135-5.135-13.564-5.135-18.699 0s-5.135 13.562 0 18.697L56.11 63.146a6.61 6.61 0 0 0 9.348 0L39.75 37.44a6.563 6.563 0 0 1 0-9.35 6.56 6.56 0 0 1 9.348 0L70.13 49.126a13.17 13.17 0 0 1 0 18.695 13.173 13.173 0 0 1-18.697 0L21.053 37.44c-.2-.2-.378-.414-.563-.624-.182-.206-.345-.422-.511-.636a13.12 13.12 0 0 1 0-16.18v-4c0-2.269.938-4.307 2.445-5.76.098-.098.204-.189.308-.281.06-.052.118-.108.18-.158.035-.029.066-.062.102-.09" style="fill:#e3e0eb;fill-opacity:1;stroke-width:.82626"/></svg>