<svg xmlns="http://www.w3.org/2000/svg" width="128" height="128" viewBox="0 0 128 128"><linearGradient id="image_x_generic_a" x1="16.281" x2="93.491" y1="36.905" y2="96.538" gradientUnits="userSpaceOnUse"><stop offset="0" stop-color="#1a5fb4"/><stop offset=".116" stop-color="#813d9c"/><stop offset=".377" stop-color="#ed333b"/><stop offset=".667" stop-color="#ff7800"/><stop offset="1" stop-color="#f6d32d"/></linearGradient><path fill="#f6f5f4" d="M16 27.93h96c4.434 0 8 3.57 8 8V86l-30 30H16a7.98 7.98 0 0 1-8-8V35.93c0-4.43 3.566-8 8-8m0 0"/><path fill="#deddda" d="M120 86.125H98c-4.434 0-8 3.57-8 8V116zm0 0"/><path fill="url(#image_x_generic_a)" d="M16 36v72h74V94.125c0-4.434 3.566-8 8-8h14V36zm0 0"/></svg>