<svg xmlns="http://www.w3.org/2000/svg" xmlns:xlink="http://www.w3.org/1999/xlink" width="128" height="128" viewBox="0 0 128 128"><defs><radialGradient xlink:href="#oasis_text_a" id="oasis_text_c" cx="413.639" cy="226.773" r="192" fx="413.639" fy="226.773" gradientTransform="rotate(-60 14.009 111.098)scale(.46264 .28262)" gradientUnits="userSpaceOnUse"/><radialGradient xlink:href="#oasis_text_b" id="oasis_text_d" cx="521.89" cy="228.371" r="192" fx="521.89" fy="228.371" gradientTransform="matrix(0 .27843 -.28405 0 110.847 -251.311)" gradientUnits="userSpaceOnUse"/><linearGradient id="oasis_text_a"><stop offset="0" style="stop-color:#50db81;stop-opacity:1"/><stop offset="1" style="stop-color:#8ff0a4;stop-opacity:.00414938"/></linearGradient><linearGradient id="oasis_text_b"><stop offset="0" style="stop-color:#4a86cf;stop-opacity:1"/><stop offset="1" style="stop-color:#87bae1;stop-opacity:0"/></linearGradient></defs><g style="display:inline"><path d="M124.828 857.328h200L445 977l.005 296.24c0 17.728-14.449 32.088-32.177 32.088h-288c-17.728 0-32-14.272-32-32v-384c0-17.728 14.272-32 32-32" style="display:inline;fill:#f6f5f4;fill-opacity:1;stroke:none;stroke-width:.5;stroke-linejoin:round;stroke-miterlimit:4;stroke-dasharray:none;stroke-opacity:1" transform="matrix(.25 0 0 .25 -3.23 -206.332)"/><path d="M324.828 857.328v88c0 17.728 14.443 31.694 32.17 31.694L445 977Z" style="display:inline;vector-effect:none;fill:#deddda;fill-opacity:1;stroke:none;stroke-width:.5;stroke-linecap:butt;stroke-linejoin:round;stroke-miterlimit:4;stroke-dasharray:none;stroke-dashoffset:0;stroke-opacity:1" transform="matrix(.25 0 0 .25 -3.23 -206.332)"/></g><rect width="16" height="4" x="79.978" y="100" rx="2" ry="2" style="display:inline;fill:#deddda;fill-opacity:1;stroke-width:1;stroke-linecap:round;paint-order:markers stroke fill;stop-color:#000"/><rect width="16" height="4" x="79.978" y="92" rx="2" ry="2" style="display:inline;fill:#deddda;fill-opacity:1;stroke-width:1;stroke-linecap:round;paint-order:markers stroke fill;stop-color:#000"/><rect width="16" height="4" x="79.978" y="84" rx="2" ry="2" style="display:inline;fill:#deddda;fill-opacity:1;stroke-width:1;stroke-linecap:round;paint-order:markers stroke fill;stop-color:#000"/><rect width="16" height="4" x="79.978" y="76" rx="2" ry="2" style="display:inline;fill:#deddda;fill-opacity:1;stroke-width:1;stroke-linecap:round;paint-order:markers stroke fill;stop-color:#000"/><rect width="16" height="4" x="79.978" y="68" rx="2" ry="2" style="display:inline;fill:#deddda;fill-opacity:1;stroke-width:1;stroke-linecap:round;paint-order:markers stroke fill;stop-color:#000"/><rect width="16" height="4" x="79.978" y="60" rx="2" ry="2" style="display:inline;fill:#deddda;fill-opacity:1;stroke-width:1;stroke-linecap:round;paint-order:markers stroke fill;stop-color:#000"/><rect width="16" height="4" x="79.978" y="52" rx="2" ry="2" style="display:inline;fill:#deddda;fill-opacity:1;stroke-width:2;stroke-linecap:round;paint-order:markers stroke fill;stop-color:#000"/><rect width="64" height="4" x="31.978" y="44" rx="2" ry="2" style="display:inline;fill:#deddda;fill-opacity:1;stroke-width:2.52982;stroke-linecap:round;paint-order:markers stroke fill;stop-color:#000"/><rect width="40" height="4" x="31.978" y="36" rx="2" ry="1.325" style="display:inline;fill:#deddda;fill-opacity:1;stroke-width:2;stroke-linecap:round;paint-order:markers stroke fill;stop-color:#000"/><rect width="40" height="4" x="31.978" y="28" rx="2" ry="1.325" style="display:inline;fill:#deddda;fill-opacity:1;stroke-width:2;stroke-linecap:round;paint-order:markers stroke fill;stop-color:#000"/><rect width="42" height="50.035" x="31.978" y="-104" rx="4" ry="4" style="display:inline;vector-effect:none;fill:url(#oasis_text_c);fill-opacity:1;stroke:none;stroke-width:.125;stroke-linecap:butt;stroke-linejoin:miter;stroke-miterlimit:4;stroke-dasharray:none;stroke-dashoffset:0;stroke-opacity:1;marker:none;marker-start:none;marker-mid:none;marker-end:none;paint-order:normal" transform="scale(1 -1)"/><rect width="42" height="50.035" x="31.978" y="-104" rx="4" ry="4" style="display:inline;vector-effect:none;fill:url(#oasis_text_d);fill-opacity:1;stroke:none;stroke-width:.125;stroke-linecap:butt;stroke-linejoin:miter;stroke-miterlimit:4;stroke-dasharray:none;stroke-dashoffset:0;stroke-opacity:1;marker:none;marker-start:none;marker-mid:none;marker-end:none;paint-order:normal" transform="scale(1 -1)"/></svg>