<svg xmlns="http://www.w3.org/2000/svg" xmlns:xlink="http://www.w3.org/1999/xlink" width="128" height="128" viewBox="0 0 128 128"><defs><linearGradient xlink:href="#oasis_drawing_a" id="oasis_drawing_d" x1="953.275" x2="944.207" y1="350.856" y2="359.924" gradientUnits="userSpaceOnUse"/><linearGradient id="oasis_drawing_a"><stop offset="0" style="stop-color:#e9b96e;stop-opacity:1"/><stop offset="1" style="stop-color:#dc9321;stop-opacity:1"/></linearGradient><linearGradient xlink:href="#oasis_drawing_b" id="oasis_drawing_e" x1="418.838" x2="428.919" y1="227" y2="216.919" gradientUnits="userSpaceOnUse"/><linearGradient id="oasis_drawing_b"><stop offset="0" style="stop-color:#bcbcb4;stop-opacity:1"/><stop offset="1" style="stop-color:#eeeeec;stop-opacity:1"/></linearGradient><linearGradient id="oasis_drawing_c"><stop offset="0" style="stop-color:#505050;stop-opacity:1"/><stop offset="1" style="stop-color:#000;stop-opacity:1"/></linearGradient><radialGradient xlink:href="#oasis_drawing_c" id="oasis_drawing_f" cx="450.948" cy="225.395" r="40" fx="450.948" fy="225.395" gradientTransform="translate(-305.28 49.12)scale(1.64648)" gradientUnits="userSpaceOnUse"/></defs><g style="display:inline"><path d="M124.828 857.328h200L445 977l.005 296.24c0 17.728-14.449 32.088-32.177 32.088h-288c-17.728 0-32-14.272-32-32v-384c0-17.728 14.272-32 32-32" style="display:inline;fill:#f6f5f4;fill-opacity:1;stroke:none;stroke-width:.5;stroke-linejoin:round;stroke-miterlimit:4;stroke-dasharray:none;stroke-opacity:1" transform="matrix(.25 0 0 .25 -3.23 -206.332)"/><path d="M324.828 857.328v88c0 17.728 14.443 31.694 32.17 31.694L445 977Z" style="display:inline;vector-effect:none;fill:#deddda;fill-opacity:1;stroke:none;stroke-width:.5;stroke-linecap:butt;stroke-linejoin:round;stroke-miterlimit:4;stroke-dasharray:none;stroke-dashoffset:0;stroke-opacity:1" transform="matrix(.25 0 0 .25 -3.23 -206.332)"/></g><g style="display:inline;stroke-width:.165719" transform="translate(-89.051 2.925)scale(.37714)"><path d="m931.516 348.484 108 108c4.656 4.85 12.388 4.928 17.142.174s4.676-12.486-.174-17.142L964.97 348c-10.383-8.905-24.97-8-33.453.484" style="color:#000;font-style:normal;font-variant:normal;font-weight:400;font-stretch:normal;font-size:medium;line-height:normal;font-family:sans-serif;font-variant-ligatures:normal;font-variant-position:normal;font-variant-caps:normal;font-variant-numeric:normal;font-variant-alternates:normal;font-feature-settings:normal;text-indent:0;text-align:start;text-decoration:none;text-decoration-line:none;text-decoration-style:solid;text-decoration-color:#000;letter-spacing:normal;word-spacing:normal;text-transform:none;writing-mode:lr-tb;direction:ltr;text-orientation:mixed;dominant-baseline:auto;baseline-shift:baseline;text-anchor:start;white-space:normal;shape-padding:0;clip-rule:nonzero;display:inline;overflow:visible;visibility:visible;opacity:1;isolation:auto;mix-blend-mode:normal;color-interpolation:sRGB;color-interpolation-filters:linearRGB;solid-color:#000;solid-opacity:1;vector-effect:none;fill:url(#oasis_drawing_d);fill-opacity:1;fill-rule:nonzero;stroke:none;stroke-width:3.97725;stroke-linecap:round;stroke-linejoin:miter;stroke-miterlimit:4;stroke-dasharray:none;stroke-dashoffset:0;stroke-opacity:1;color-rendering:auto;image-rendering:auto;shape-rendering:auto;text-rendering:auto" transform="translate(-600 -212)"/><path d="M391.832 163.838a16.002 16.002 0 0 0-11.146 27.476l56 56a16.002 16.002 0 1 0 22.628-22.628l-56-56a16 16 0 0 0-11.482-4.848" style="color:#000;font-style:normal;font-variant:normal;font-weight:400;font-stretch:normal;font-size:medium;line-height:normal;font-family:sans-serif;font-variant-ligatures:normal;font-variant-position:normal;font-variant-caps:normal;font-variant-numeric:normal;font-variant-alternates:normal;font-feature-settings:normal;text-indent:0;text-align:start;text-decoration:none;text-decoration-line:none;text-decoration-style:solid;text-decoration-color:#000;letter-spacing:normal;word-spacing:normal;text-transform:none;writing-mode:lr-tb;direction:ltr;text-orientation:mixed;dominant-baseline:auto;baseline-shift:baseline;text-anchor:start;white-space:normal;shape-padding:0;clip-rule:nonzero;display:inline;overflow:visible;visibility:visible;opacity:1;isolation:auto;mix-blend-mode:normal;color-interpolation:sRGB;color-interpolation-filters:linearRGB;solid-color:#000;solid-opacity:1;vector-effect:none;fill:url(#oasis_drawing_e);fill-opacity:1;fill-rule:nonzero;stroke:none;stroke-width:5.303;stroke-linecap:round;stroke-linejoin:miter;stroke-miterlimit:4;stroke-dasharray:none;stroke-dashoffset:0;stroke-opacity:1;color-rendering:auto;image-rendering:auto;shape-rendering:auto;text-rendering:auto"/><path d="M440 400c-22.091 0-40 17.909-40 40s17.909 40 40 40h40v-40c0-22.091-17.909-40-40-40" style="opacity:1;vector-effect:none;fill:url(#oasis_drawing_f);fill-opacity:1;stroke:none;stroke-width:3.97725;stroke-linecap:round;stroke-linejoin:miter;stroke-miterlimit:4;stroke-dasharray:none;stroke-dashoffset:0;stroke-opacity:1;marker:none;marker-start:none;marker-mid:none;marker-end:none;paint-order:normal" transform="translate(0 -212)"/><circle cx="436" cy="-208.355" r="6.355" style="color:#000;display:inline;overflow:visible;visibility:visible;opacity:1;fill:#7a8599;fill-opacity:1;fill-rule:nonzero;stroke:none;stroke-width:1.18731;marker:none" transform="scale(1 -1)"/></g></svg>