<svg xmlns="http://www.w3.org/2000/svg" width="128" height="128" viewBox="0 0 128 128"><path d="M27.978 8h50l30.043 29.918.001 74.06c0 4.432-3.612 8.022-8.044 8.022h-72c-4.432 0-8-3.568-8-8V16c0-4.432 3.568-8 8-8" style="display:inline;fill:#f6f5f4;fill-opacity:1;stroke:none;stroke-width:.125;stroke-linejoin:round;stroke-miterlimit:4;stroke-dasharray:none;stroke-opacity:1"/><path d="M77.978 8v22c0 4.432 3.61 7.923 8.043 7.923l22-.005z" style="display:inline;vector-effect:none;fill:#deddda;fill-opacity:1;stroke:none;stroke-width:.125;stroke-linecap:butt;stroke-linejoin:round;stroke-miterlimit:4;stroke-dasharray:none;stroke-dashoffset:0;stroke-opacity:1"/><path d="M60.967 61.75 47.125 89.435 40.782 76.75h-4.907A1.875 1.875 0 0 0 34 78.625a1.875 1.875 0 0 0 1.875 1.875h2.593l8.657 17.314L63.282 65.5h28.842a1.875 1.875 0 0 0 1.875-1.875 1.875 1.875 0 0 0-1.875-1.875z" color="#000" style="fill:#d5d3cf;fill-opacity:1;fill-rule:evenodd;stroke-width:.999999;-inkscape-stroke:none"/><path d="M36.001 103h11c1.108 0 2 .554 2 1.242v1.266c0 .688-.892 1.242-2 1.242h-11c-1.108 0-2-.554-2-1.242v-1.266c0-.688.892-1.242 2-1.242m22.476 0h11c1.108 0 2 .554 2 1.242v1.266c0 .688-.892 1.242-2 1.242h-11c-1.108 0-2-.554-2-1.242v-1.266c0-.688.892-1.242 2-1.242m22.476 0h11c1.108 0 2 .554 2 1.242v1.266c0 .688-.892 1.242-2 1.242h-11c-1.108 0-2-.554-2-1.242v-1.266c0-.688.892-1.242 2-1.242" style="display:inline;fill:#d5d3cf;stroke-width:2;stroke-linecap:round;paint-order:markers stroke fill;stop-color:#000;fill-opacity:1"/><path d="M90.252 95.5h-10v-2.167h2.75l-4.708-6.458-4.709 6.458h2.792V95.5h-8.208v-2.167h2.875l5.958-8.208-6.583-9.084h-2.667v-2.166h9.667v2.166h-2.584l4.542 6.25 4.542-6.25h-2.917v-2.166h8.333v2.166H86.46l-5.791 8 6.75 9.292h2.833z" aria-label="x" style="font-size:48px;line-height:1.25;font-family:&quot;DejaVu Math TeX Gyre&quot;;-inkscape-font-specification:&quot;DejaVu Math TeX Gyre&quot;;fill:#dd2850;fill-opacity:1;stroke-width:1"/></svg>