<svg xmlns="http://www.w3.org/2000/svg" width="128" height="128" viewBox="0 0 128 128"><path d="M27.978 8h50l30.043 29.918.001 74.06c0 4.432-3.612 8.022-8.044 8.022h-72c-4.432 0-8-3.568-8-8V16c0-4.432 3.568-8 8-8" style="display:inline;fill:#666;fill-opacity:1;stroke:none;stroke-width:.125;stroke-linejoin:round;stroke-miterlimit:4;stroke-dasharray:none;stroke-opacity:1"/><path d="M77.978 8v22c0 4.432 3.61 7.923 8.043 7.923l22-.005z" style="display:inline;vector-effect:none;fill:#9a9996;fill-opacity:1;stroke:none;stroke-width:.125;stroke-linecap:butt;stroke-linejoin:round;stroke-miterlimit:4;stroke-dasharray:none;stroke-dashoffset:0;stroke-opacity:1"/><path d="M42.917 58.004A1.91 1.91 0 0 0 41 59.921v15.333c0 1.062.855 1.917 1.917 1.917H58.25a1.91 1.91 0 0 0 1.917-1.917v-3.04l-14.21-14.21Zm8.46 0 8.79 8.79v-6.873a1.91 1.91 0 0 0-1.917-1.917z" style="fill:#1a85d1;fill-rule:evenodd;stroke-width:7.66667;stroke-linecap:round;fill-opacity:1"/><path d="M42.917 84.838A1.91 1.91 0 0 0 41 86.754v15.334c0 1.061.855 1.916 1.917 1.916H58.25a1.91 1.91 0 0 0 1.917-1.917v-3.04l-14.21-14.21Zm8.46 0 8.79 8.79v-6.874a1.91 1.91 0 0 0-1.917-1.916z" style="fill:#e75729;fill-rule:evenodd;stroke-width:7.66667;stroke-linecap:round;fill-opacity:1"/><path d="M69.75 58.004a1.91 1.91 0 0 0-1.917 1.917v15.333c0 1.062.855 1.917 1.917 1.917h15.333A1.91 1.91 0 0 0 87 75.254v-3.04l-14.21-14.21Zm8.46 0 8.79 8.79v-6.873a1.91 1.91 0 0 0-1.917-1.917z" style="fill:#3cbc45;fill-rule:evenodd;stroke-width:7.66667;stroke-linecap:round;fill-opacity:1"/><path d="M69.75 84.838a1.91 1.91 0 0 0-1.917 1.916v15.334c0 1.061.855 1.916 1.917 1.916h15.333A1.91 1.91 0 0 0 87 102.087v-3.04l-14.21-14.21Zm8.46 0 8.79 8.79v-6.874a1.91 1.91 0 0 0-1.917-1.916z" style="fill:#e5b443;fill-rule:evenodd;stroke-width:7.66667;stroke-linecap:round;fill-opacity:1"/></svg>