<svg xmlns="http://www.w3.org/2000/svg" width="128" height="128" viewBox="0 0 128 128"><path d="M27.978 8h50l30.043 29.918.001 74.06c0 4.432-3.612 8.022-8.044 8.022h-72c-4.432 0-8-3.568-8-8V16c0-4.432 3.568-8 8-8" style="display:inline;fill:#f6f5f4;fill-opacity:1;stroke:none;stroke-width:.125;stroke-linejoin:round;stroke-miterlimit:4;stroke-dasharray:none;stroke-opacity:1"/><path d="M77.978 8v22c0 4.432 3.61 7.923 8.043 7.923l22-.005z" style="display:inline;vector-effect:none;fill:#deddda;fill-opacity:1;stroke:none;stroke-width:.125;stroke-linecap:butt;stroke-linejoin:round;stroke-miterlimit:4;stroke-dasharray:none;stroke-dashoffset:0;stroke-opacity:1"/><path d="M94 73.92a30 30 0 0 1-30 30 30 30 0 0 1-30-30 30 30 0 0 1 30-30 30 30 0 0 1 30 30" style="display:inline;fill:#a6a6a6;fill-opacity:1;stroke:none;stroke-width:.0056491px;stroke-linecap:butt;stroke-linejoin:miter;stroke-miterlimit:4;stroke-dasharray:none;stroke-dashoffset:0;stroke-opacity:1;marker:none;marker-start:none;marker-mid:none;marker-end:none;paint-order:normal"/><path d="M94 72.92a30 30 0 0 1-30 30 30 30 0 0 1-30-30 30 30 0 0 1 30-30 30 30 0 0 1 30 30" style="display:inline;fill:#8b8c8e;fill-opacity:1;stroke:none;stroke-width:.0056491px;stroke-linecap:butt;stroke-linejoin:miter;stroke-miterlimit:4;stroke-dasharray:none;stroke-dashoffset:0;stroke-opacity:1;marker:none;marker-start:none;marker-mid:none;marker-end:none;paint-order:normal"/><path d="M46.002 73.419a18 31.5 0 0 0 3.919 19.126 22 13.5 0 0 0-4.932 3.58 30 30 0 0 1-10.985-22.706z" style="display:inline;fill:#c5c5c5;fill-opacity:1;stroke:none;stroke-width:.0056491px;stroke-linecap:butt;stroke-linejoin:miter;stroke-miterlimit:4;stroke-dasharray:none;stroke-dashoffset:0;stroke-opacity:1;marker:none;marker-start:none;marker-mid:none;marker-end:none;paint-order:normal"/><path d="M64 73.42v29.5a30 30 0 0 1-6.689-.756 18 31.5 0 0 1-11.31-28.745z" style="display:inline;fill:#a6a6a6;fill-opacity:1;stroke:none;stroke-width:.00448383px;stroke-linecap:butt;stroke-linejoin:miter;stroke-miterlimit:4;stroke-dasharray:none;stroke-dashoffset:0;stroke-opacity:1;marker:none;marker-start:none;marker-mid:none;marker-end:none;paint-order:normal"/><path d="M64 89.42v13.5a30 30 0 0 1-6.689-.756 18 31.5 0 0 1-7.39-9.619A22 13.5 0 0 1 64 89.42" style="display:inline;fill:#8d8d8d;fill-opacity:1;stroke:none;stroke-width:.00324516px;stroke-linecap:butt;stroke-linejoin:miter;stroke-miterlimit:4;stroke-dasharray:none;stroke-dashoffset:0;stroke-opacity:1;marker:none;marker-start:none;marker-mid:none;marker-end:none;paint-order:normal"/><path d="M49.92 92.545a18 31.5 0 0 0 7.391 9.618 30 30 0 0 1-12.322-6.038 22 13.5 0 0 1 4.932-3.58" style="display:inline;fill:#a6a6a6;fill-opacity:1;stroke:none;stroke-width:.00324516px;stroke-linecap:butt;stroke-linejoin:miter;stroke-miterlimit:4;stroke-dasharray:none;stroke-dashoffset:0;stroke-opacity:1;marker:none;marker-start:none;marker-mid:none;marker-end:none;paint-order:normal"/><path d="M81.998 73.42a18 31.5 0 0 1-3.919 19.125 22 13.5 0 0 1 4.932 3.58A30 30 0 0 0 93.996 73.42z" style="display:inline;fill:#7a7a7a;fill-opacity:1;stroke:none;stroke-width:.0056491px;stroke-linecap:butt;stroke-linejoin:miter;stroke-miterlimit:4;stroke-dasharray:none;stroke-dashoffset:0;stroke-opacity:1;marker:none;marker-start:none;marker-mid:none;marker-end:none;paint-order:normal"/><path d="M64 73.42v29.5a30 30 0 0 0 6.688-.756 18 31.5 0 0 0 11.31-28.745z" style="display:inline;fill:#8c8c8c;fill-opacity:1;stroke:none;stroke-width:.00448383px;stroke-linecap:butt;stroke-linejoin:miter;stroke-miterlimit:4;stroke-dasharray:none;stroke-dashoffset:0;stroke-opacity:1;marker:none;marker-start:none;marker-mid:none;marker-end:none;paint-order:normal"/><path d="M64 89.42v13.5a30 30 0 0 0 6.688-.756 18 31.5 0 0 0 7.391-9.619 22 13.5 0 0 0-14.08-3.126" style="display:inline;fill:#7a7a7a;fill-opacity:1;stroke:none;stroke-width:.00324516px;stroke-linecap:butt;stroke-linejoin:miter;stroke-miterlimit:4;stroke-dasharray:none;stroke-dashoffset:0;stroke-opacity:1;marker:none;marker-start:none;marker-mid:none;marker-end:none;paint-order:normal"/><path d="M78.08 92.545a18 31.5 0 0 1-7.392 9.618 30 30 0 0 0 12.323-6.038 22 13.5 0 0 0-4.932-3.58" style="display:inline;fill:#676767;fill-opacity:1;stroke:none;stroke-width:.00324516px;stroke-linecap:butt;stroke-linejoin:miter;stroke-miterlimit:4;stroke-dasharray:none;stroke-dashoffset:0;stroke-opacity:1;marker:none;marker-start:none;marker-mid:none;marker-end:none;paint-order:normal"/><path d="M64 42.92a30 30 0 0 0-30 30 30 30 0 0 0 .004.5H64z" style="fill:#d6d6d6;fill-opacity:1;stroke:none;stroke-width:1;stroke-linecap:round;stroke-linejoin:round;stroke-opacity:0"/><path d="M57.313 43.674a30 30 0 0 0-12.325 6.038 22 13.5 0 0 0 4.933 3.581 18 31.5 0 0 1 7.392-9.619" style="fill:#e9e9e9;fill-opacity:1;stroke:none;stroke-width:1;stroke-linecap:round;stroke-linejoin:round;stroke-opacity:0"/><path d="M64 42.92a30 30 0 0 0-6.687.754A18 31.5 0 0 0 46 72.92a18 31.5 0 0 0 .002.5H64z" style="fill:#c5c5c5;fill-opacity:1;stroke:none;stroke-width:1.75224;stroke-linecap:round;stroke-linejoin:round;stroke-opacity:0"/><path d="M64 42.92a30 30 0 0 0-6.687.754 18 31.5 0 0 0-7.391 9.62A22 13.5 0 0 0 64 56.418Z" style="fill:#d6d6d6;fill-opacity:1;stroke:none;stroke-width:1.75224;stroke-linecap:round;stroke-linejoin:round;stroke-opacity:0"/><path d="M64 42.92a30 30 0 0 1 30 30 30 30 0 0 1-.004.5H64Z" style="fill:#8d8d8d;fill-opacity:1;stroke:none;stroke-width:1;stroke-linecap:round;stroke-linejoin:round;stroke-opacity:0"/><path d="M70.687 43.674a30 30 0 0 1 12.325 6.038 22 13.5 0 0 1-4.933 3.581 18 31.5 0 0 0-7.392-9.619" style="fill:#a6a6a6;fill-opacity:1;stroke:none;stroke-width:1;stroke-linecap:round;stroke-linejoin:round;stroke-opacity:0"/><path d="M64 42.92a30 30 0 0 1 6.687.754A18 31.5 0 0 1 82 72.92a18 31.5 0 0 1-.002.5H64z" style="fill:#a6a6a6;fill-opacity:1;stroke:none;stroke-width:1.75224;stroke-linecap:round;stroke-linejoin:round;stroke-opacity:0"/><path d="M64 42.92a30 30 0 0 1 6.687.754 18 31.5 0 0 1 7.391 9.62A22 13.5 0 0 1 64 56.418z" style="fill:#c5c5c5;fill-opacity:1;stroke:none;stroke-width:1.75224;stroke-linecap:round;stroke-linejoin:round;stroke-opacity:0"/><path d="M27.978 8c-4.432 0-8 3.568-8 8v94.666L63.978 8z" style="display:inline;fill:#000;fill-opacity:.0341939;stroke:none;stroke-width:1px;stroke-linecap:butt;stroke-linejoin:miter;stroke-opacity:1"/><path d="m108.022 110.771-.002-72.853L77.977 8h-14Z" style="display:inline;fill:#fff;fill-opacity:.45554;stroke:none;stroke-width:1px;stroke-linecap:butt;stroke-linejoin:miter;stroke-opacity:1"/></svg>