<svg xmlns="http://www.w3.org/2000/svg" width="128" height="128" viewBox="0 0 128 128"><path d="M27.978 8h50l30.043 29.918.001 74.06c0 4.432-3.612 8.022-8.044 8.022h-72c-4.432 0-8-3.568-8-8V16c0-4.432 3.568-8 8-8" style="display:inline;fill:#f6f5f4;fill-opacity:1;stroke:none;stroke-width:.125;stroke-linejoin:round;stroke-miterlimit:4;stroke-dasharray:none;stroke-opacity:1"/><path d="M77.978 8v22c0 4.432 3.61 7.923 8.043 7.923l22-.005z" style="display:inline;vector-effect:none;fill:#deddda;fill-opacity:1;stroke:none;stroke-width:.125;stroke-linecap:butt;stroke-linejoin:round;stroke-miterlimit:4;stroke-dasharray:none;stroke-dashoffset:0;stroke-opacity:1"/><path d="M27.978 8c-4.432 0-8 3.568-8 8v94.666L63.978 8z" style="display:inline;fill:#000;fill-opacity:.0341939;stroke:none;stroke-width:1px;stroke-linecap:butt;stroke-linejoin:miter;stroke-opacity:1"/><path d="m108.022 110.771-.002-72.853L77.977 8h-14Z" style="display:inline;fill:#fff;fill-opacity:.45554;stroke:none;stroke-width:1px;stroke-linecap:butt;stroke-linejoin:miter;stroke-opacity:1"/><path d="M42.917 57.92A1.91 1.91 0 0 0 41 59.835V75.17c0 1.062.855 1.917 1.917 1.917H58.25a1.91 1.91 0 0 0 1.917-1.917v-3.04l-14.21-14.21Zm8.46 0 8.79 8.79v-6.874a1.91 1.91 0 0 0-1.917-1.917zm-8.46 26.833A1.91 1.91 0 0 0 41 86.669v15.334c0 1.062.855 1.916 1.917 1.916H58.25a1.91 1.91 0 0 0 1.917-1.916v-3.04l-14.21-14.21Zm8.46 0 8.79 8.79v-6.874a1.91 1.91 0 0 0-1.917-1.916zM69.75 57.92a1.91 1.91 0 0 0-1.917 1.916V75.17c0 1.062.855 1.917 1.917 1.917h15.333A1.91 1.91 0 0 0 87 75.17v-3.04L72.79 57.92Zm8.46 0L87 66.71v-6.874a1.91 1.91 0 0 0-1.917-1.917zm-8.46 26.833a1.91 1.91 0 0 0-1.917 1.916v15.334c0 1.062.855 1.916 1.917 1.916h15.333A1.91 1.91 0 0 0 87 102.003v-3.04l-14.21-14.21Zm8.46 0 8.79 8.79v-6.874a1.91 1.91 0 0 0-1.917-1.916z" style="fill:#d5d3cf;fill-opacity:1;fill-rule:evenodd;stroke-width:7.66667;stroke-linecap:round"/></svg>