<?xml version="1.0" encoding="UTF-8" standalone="no"?>
<svg
   height="128px"
   viewBox="0 0 128 128"
   width="128px"
   version="1.1"
   id="oasis_web_template_svg35"
   xmlns="http://www.w3.org/2000/svg"
   xmlns:svg="http://www.w3.org/2000/svg">
  <defs
     id="oasis_web_template_defs39" />
  <linearGradient
     id="oasis_web_template_a"
     gradientUnits="userSpaceOnUse"
     x1="36"
     x2="60"
     y1="68"
     y2="68">
    <stop
       offset="0"
       stop-color="#ed336c"
       id="oasis_web_template_stop2" />
    <stop
       offset="1"
       stop-color="#ffa348"
       id="oasis_web_template_stop4" />
  </linearGradient>
  <linearGradient
     id="oasis_web_template_b"
     gradientTransform="matrix(0 1 -1 0 144 -32)"
     gradientUnits="userSpaceOnUse"
     x1="72"
     x2="96"
     y1="68"
     y2="68">
    <stop
       offset="0"
       stop-color="#404ce6"
       id="oasis_web_template_stop7" />
    <stop
       offset="1"
       stop-color="#c061cb"
       id="oasis_web_template_stop9" />
  </linearGradient>
  <linearGradient
     id="oasis_web_template_c"
     gradientUnits="userSpaceOnUse"
     x1="68.84919"
     x2="95.257637"
     y1="84"
     y2="84">
    <stop
       offset="0"
       stop-color="#33d1c6"
       id="oasis_web_template_stop12" />
    <stop
       offset="1"
       stop-color="#1c25d8"
       id="oasis_web_template_stop14" />
  </linearGradient>
  <path
     style="display:inline;fill:#f6f5f4;fill-opacity:1;stroke:none;stroke-width:0.125;stroke-linejoin:round;stroke-miterlimit:4;stroke-dasharray:none;stroke-opacity:1;enable-background:new"
     clip-path="none"
     d="m 27.978072,8.0000006 h 50.000002 l 30.042896,29.9178934 10e-4,74.060006 c 8e-5,4.432 -3.6122,8.0221 -8.044196,8.0221 H 27.978011 c -4.431999,0 -7.999999,-3.568 -7.999999,-8.00001 V 16 c 0,-4.431999 3.568,-7.9999994 7.999999,-7.9999994 z"
     id="oasis_web_template_path4411" />
  <g
     id="oasis_web_template_g27623"
     transform="translate(-42.84528,135.33545)"
     style="stroke-width:0.25" />
  <g
     style="stroke-width:2.62472"
     transform="matrix(0.0952482,0,0,0.0952482,498.72128,-49.974552)"
     id="oasis_web_template_g27623-5" />
  <g
     id="oasis_web_template_g1893"
     transform="matrix(0.0952482,0,0,0.0952482,-624.92113,-414.82765)"
     style="stroke-width:2.62472" />
  <g
     style="stroke-width:0.25"
     transform="matrix(0.2447541,0,0,0.2447541,-257.6935,146.47785)"
     id="oasis_web_template_g1879" />
  <g
     transform="matrix(0.5,0,0,0.5,-638.4877,-382.02941)"
     id="oasis_web_template_g15395"
     style="display:inline;fill:#c0bfbc;stroke-width:2;enable-background:new" />
  <g
     style="display:inline;fill:#deddda;stroke-width:2;enable-background:new"
     id="oasis_web_template_g15401"
     transform="matrix(0.5,0,0,0.5,-638.4877,-381.02941)" />
  <g
     style="display:inline;fill:#c0bfbc;stroke-width:2;enable-background:new"
     id="oasis_web_template_g15421"
     transform="matrix(0.5,0,0,0.5,-641.4877,-345.02941)" />
  <g
     transform="matrix(0.5,0,0,0.5,-641.4877,-344.02941)"
     id="oasis_web_template_g15423"
     style="display:inline;fill:#deddda;stroke-width:2;enable-background:new" />
  <g
     id="oasis_web_template_g4417"
     transform="matrix(0.2447541,0,0,0.2447541,-413.21244,146.47785)"
     style="stroke-width:0.25" />
  <g
     style="stroke-width:2.62472"
     transform="matrix(0.0952482,0,0,0.0952482,-597.94532,-105.8707)"
     id="oasis_web_template_g4431" />
  <g
     aria-label="{}"
     id="oasis_web_template_text6392"
     style="font-size:56px;line-height:1.25;font-family:Cantarell;-inkscape-font-specification:Cantarell;letter-spacing:-2px"
     transform="translate(-258.3226,94.213748)" />
  <text
     xml:space="preserve"
     style="font-size:56px;line-height:1.25;font-family:'Source Code Pro';-inkscape-font-specification:'Source Code Pro'"
     x="-223.57693"
     y="135.18233"
     id="oasis_web_template_text18928"><tspan
       id="oasis_web_template_tspan18926" /></text>
  <path
     style="display:inline;vector-effect:none;fill:#deddda;fill-opacity:1;stroke:none;stroke-width:0.125;stroke-linecap:butt;stroke-linejoin:round;stroke-miterlimit:4;stroke-dasharray:none;stroke-dashoffset:0;stroke-opacity:1;enable-background:new"
     d="M 77.978074,8.0000006 V 30.000002 c 0,4.432 3.610527,7.923448 8.042527,7.923448 l 22.000369,-0.0055 z"
     id="oasis_web_template_path4413" />
  <g
     id="oasis_web_template_g3">
    <path
       id="oasis_web_template_path3345"
       d="m 93.999895,73.9194 a 29.999997,29.999997 0 0 1 -29.999985,30 29.999997,29.999997 0 0 1 -30.000005,-30 A 29.999997,29.999997 0 0 1 63.99991,43.919405 29.999997,29.999997 0 0 1 93.999895,73.9194 Z"
       style="display:inline;fill:#a6a6a6;fill-opacity:1;stroke:none;stroke-width:0.0056491px;stroke-linecap:butt;stroke-linejoin:miter;stroke-miterlimit:4;stroke-dasharray:none;stroke-dashoffset:0;stroke-opacity:1;marker:none;marker-start:none;marker-mid:none;marker-end:none;paint-order:normal;enable-background:new" />
    <path
       style="display:inline;fill:#8b8c8e;fill-opacity:1;stroke:none;stroke-width:0.0056491px;stroke-linecap:butt;stroke-linejoin:miter;stroke-miterlimit:4;stroke-dasharray:none;stroke-dashoffset:0;stroke-opacity:1;marker:none;marker-start:none;marker-mid:none;marker-end:none;paint-order:normal;enable-background:new"
       d="m 93.999895,72.9194 a 29.999997,29.999997 0 0 1 -29.999985,30 29.999997,29.999997 0 0 1 -30.000005,-30 29.999997,29.999997 0 0 1 30.000005,-30 29.999997,29.999997 0 0 1 29.999985,30 z"
       id="oasis_web_template_path3347" />
    <path
       id="oasis_web_template_path3349"
       style="display:inline;fill:#c5c5c5;fill-opacity:1;stroke:none;stroke-width:0.0056491px;stroke-linecap:butt;stroke-linejoin:miter;stroke-miterlimit:4;stroke-dasharray:none;stroke-dashoffset:0;stroke-opacity:1;marker:none;marker-start:none;marker-mid:none;marker-end:none;paint-order:normal;enable-background:new"
       d="m 46.001774,73.41895 a 18,31.499997 0 0 0 3.918945,19.12598 22.000001,13.499997 0 0 0 -4.93164,3.58008 29.999997,29.999997 0 0 1 -10.985355,-22.70606 z" />
    <path
       d="m 63.999899,73.41939 v 29.5 a 29.999997,29.999997 0 0 1 -6.688475,-0.75586 18,31.499997 0 0 1 -11.30957,-28.74414 z"
       style="display:inline;fill:#a6a6a6;fill-opacity:1;stroke:none;stroke-width:0.00448383px;stroke-linecap:butt;stroke-linejoin:miter;stroke-miterlimit:4;stroke-dasharray:none;stroke-dashoffset:0;stroke-opacity:1;marker:none;marker-start:none;marker-mid:none;marker-end:none;paint-order:normal;enable-background:new"
       id="oasis_web_template_path3351" />
    <path
       d="m 63.999899,89.41939 v 13.5 a 29.999997,29.999997 0 0 1 -6.688475,-0.75586 18,31.499997 0 0 1 -7.390625,-9.618165 22.000001,13.499997 0 0 1 14.0791,-3.125975 z"
       style="display:inline;fill:#8d8d8d;fill-opacity:1;stroke:none;stroke-width:0.00324516px;stroke-linecap:butt;stroke-linejoin:miter;stroke-miterlimit:4;stroke-dasharray:none;stroke-dashoffset:0;stroke-opacity:1;marker:none;marker-start:none;marker-mid:none;marker-end:none;paint-order:normal;enable-background:new"
       id="oasis_web_template_path3353" />
    <path
       id="oasis_web_template_path3355"
       style="display:inline;fill:#a6a6a6;fill-opacity:1;stroke:none;stroke-width:0.00324516px;stroke-linecap:butt;stroke-linejoin:miter;stroke-miterlimit:4;stroke-dasharray:none;stroke-dashoffset:0;stroke-opacity:1;marker:none;marker-start:none;marker-mid:none;marker-end:none;paint-order:normal;enable-background:new"
       d="m 49.920719,92.54493 a 18,31.499997 0 0 0 7.390625,9.61816 29.999997,29.999997 0 0 1 -12.322265,-6.038085 22.000001,13.499997 0 0 1 4.93164,-3.580075 z" />
    <path
       d="m 81.997946,73.41939 a 18,31.499997 0 0 1 -3.918945,19.12598 22.000001,13.499997 0 0 1 4.93164,3.58008 29.999997,29.999997 0 0 0 10.985354,-22.70606 z"
       style="display:inline;fill:#7a7a7a;fill-opacity:1;stroke:none;stroke-width:0.0056491px;stroke-linecap:butt;stroke-linejoin:miter;stroke-miterlimit:4;stroke-dasharray:none;stroke-dashoffset:0;stroke-opacity:1;marker:none;marker-start:none;marker-mid:none;marker-end:none;paint-order:normal;enable-background:new"
       id="oasis_web_template_path3359" />
    <path
       id="oasis_web_template_path3361"
       style="display:inline;fill:#8c8c8c;fill-opacity:1;stroke:none;stroke-width:0.00448383px;stroke-linecap:butt;stroke-linejoin:miter;stroke-miterlimit:4;stroke-dasharray:none;stroke-dashoffset:0;stroke-opacity:1;marker:none;marker-start:none;marker-mid:none;marker-end:none;paint-order:normal;enable-background:new"
       d="m 63.999901,73.41939 v 29.5 a 29.999997,29.999997 0 0 0 6.688475,-0.75586 18,31.499997 0 0 0 11.30957,-28.74414 z" />
    <path
       id="oasis_web_template_path3363"
       style="display:inline;fill:#7a7a7a;fill-opacity:1;stroke:none;stroke-width:0.00324516px;stroke-linecap:butt;stroke-linejoin:miter;stroke-miterlimit:4;stroke-dasharray:none;stroke-dashoffset:0;stroke-opacity:1;marker:none;marker-start:none;marker-mid:none;marker-end:none;paint-order:normal;enable-background:new"
       d="m 63.999901,89.41939 v 13.5 a 29.999997,29.999997 0 0 0 6.688475,-0.75586 18,31.499997 0 0 0 7.390625,-9.618165 22.000001,13.499997 0 0 0 -14.0791,-3.125975 z" />
    <path
       d="m 78.079081,92.54493 a 18,31.499997 0 0 1 -7.390625,9.61816 29.999997,29.999997 0 0 0 12.322265,-6.038085 22.000001,13.499997 0 0 0 -4.93164,-3.580075 z"
       style="display:inline;fill:#676767;fill-opacity:1;stroke:none;stroke-width:0.00324516px;stroke-linecap:butt;stroke-linejoin:miter;stroke-miterlimit:4;stroke-dasharray:none;stroke-dashoffset:0;stroke-opacity:1;marker:none;marker-start:none;marker-mid:none;marker-end:none;paint-order:normal;enable-background:new"
       id="oasis_web_template_path3365" />
    <path
       d="m 63.9999,42.9194 a 29.999997,29.999997 0 0 0 -30,30 29.999997,29.999997 0 0 0 0.0039,0.5 h 29.9961 z"
       style="fill:#d6d6d6;fill-opacity:1;stroke:none;stroke-width:1;stroke-linecap:round;stroke-linejoin:round;stroke-opacity:0"
       id="oasis_web_template_path3369" />
    <path
       d="m 57.313377,43.674283 a 29.999997,29.999997 0 0 0 -12.325196,6.038086 22.000001,13.499997 0 0 0 4.932618,3.581055 18,31.499997 0 0 1 7.392578,-9.619141 z"
       style="fill:#e9e9e9;fill-opacity:1;stroke:none;stroke-width:1;stroke-linecap:round;stroke-linejoin:round;stroke-opacity:0"
       id="oasis_web_template_path3371" />
    <path
       d="M 63.9999,42.9194 A 29.999997,29.999997 0 0 0 57.313377,43.674283 18,31.499997 0 0 0 45.9999,72.9194 a 18,31.499997 0 0 0 0.002,0.5 h 17.998 z"
       style="fill:#c5c5c5;fill-opacity:1;stroke:none;stroke-width:1.75224;stroke-linecap:round;stroke-linejoin:round;stroke-opacity:0"
       id="oasis_web_template_path3373" />
    <path
       d="M 63.9999,42.9194 A 29.999997,29.999997 0 0 0 57.313377,43.674283 18,31.499997 0 0 0 49.921775,53.293424 22.000001,13.499997 0 0 0 63.9999,56.4194 Z"
       style="fill:#d6d6d6;fill-opacity:1;stroke:none;stroke-width:1.75224;stroke-linecap:round;stroke-linejoin:round;stroke-opacity:0"
       id="oasis_web_template_path3375" />
    <path
       id="oasis_web_template_path3379"
       style="fill:#8d8d8d;fill-opacity:1;stroke:none;stroke-width:1;stroke-linecap:round;stroke-linejoin:round;stroke-opacity:0"
       d="m 64.000076,42.919388 a 29.999997,29.999997 0 0 1 30,30 29.999997,29.999997 0 0 1 -0.0039,0.5 H 64.000081 Z" />
    <path
       id="oasis_web_template_path3381"
       style="fill:#a6a6a6;fill-opacity:1;stroke:none;stroke-width:1;stroke-linecap:round;stroke-linejoin:round;stroke-opacity:0"
       d="m 70.686599,43.674273 a 29.999997,29.999997 0 0 1 12.325196,6.038085 22.000001,13.499997 0 0 1 -4.932618,3.581055 18,31.499997 0 0 0 -7.392578,-9.61914 z" />
    <path
       id="oasis_web_template_path3383"
       style="fill:#a6a6a6;fill-opacity:1;stroke:none;stroke-width:1.75224;stroke-linecap:round;stroke-linejoin:round;stroke-opacity:0"
       d="m 64.000076,42.919388 a 29.999997,29.999997 0 0 1 6.686523,0.754885 18,31.499997 0 0 1 11.313477,29.245115 18,31.499997 0 0 1 -0.002,0.5 h -17.99805 z" />
    <path
       id="oasis_web_template_path3385"
       style="fill:#c5c5c5;fill-opacity:1;stroke:none;stroke-width:1.75224;stroke-linecap:round;stroke-linejoin:round;stroke-opacity:0"
       d="m 64.000076,42.919388 a 29.999997,29.999997 0 0 1 6.686523,0.754885 18,31.499997 0 0 1 7.391602,9.61914 22.000001,13.499997 0 0 1 -14.078125,3.125975 z" />
  </g>
  <path
     id="oasis_web_template_path1713"
     style="display:inline;fill:#000000;fill-opacity:0.0341939;stroke:none;stroke-width:1px;stroke-linecap:butt;stroke-linejoin:miter;stroke-opacity:1;enable-background:new"
     d="m 27.978012,8.0000006 c -4.432,0 -8,3.5680004 -8,8.0000004 v 94.666019 l 44,-102.6660194 z" />
  <path
     id="oasis_web_template_path1"
     style="display:inline;fill:#ffffff;fill-opacity:0.45554;stroke:none;stroke-width:1px;stroke-linecap:butt;stroke-linejoin:miter;stroke-opacity:1;enable-background:new"
     d="M 108.02197,110.77149 108.01997,37.917971 77.977003,8.0000006 H 63.977046 Z" />
</svg>
