<svg xmlns="http://www.w3.org/2000/svg" width="128" height="128" viewBox="0 0 128 128"><path d="M27.978 8h50l30.043 29.918.001 74.06c0 4.432-3.612 8.022-8.044 8.022h-72c-4.432 0-8-3.568-8-8V16c0-4.432 3.568-8 8-8" style="display:inline;fill:#f6f5f4;fill-opacity:1;stroke:none;stroke-width:.125;stroke-linejoin:round;stroke-miterlimit:4;stroke-dasharray:none;stroke-opacity:1"/><g style="display:inline;opacity:.3;stroke-width:.25"><path d="M1816 1852h8v120h-8zm40 0h8v120h-8zm64 0h8v120h-8zm64 88h8v32h-8zm64 0h8v32h-8z" style="display:inline;opacity:1;fill:#d5d3cf;fill-opacity:1;stroke:none;stroke-width:.25;stroke-linejoin:round;stroke-miterlimit:4;stroke-dasharray:none;stroke-opacity:1" transform="matrix(.25 0 0 .25 -420 -443)"/><path d="M1816 1964h240v8h-240zm0-24h240v8h-240zm0-24h112v8h-112zm0-24h112v8h-112zm0-24h112v8h-112zm0-24h112v8h-112zm0 320h240v8h-240zm0 24h240v8h-240zm0 24h240v8h-240z" style="display:inline;opacity:1;fill:#d5d3cf;fill-opacity:1;stroke:none;stroke-width:.25;stroke-linejoin:round;stroke-miterlimit:4;stroke-dasharray:none;stroke-opacity:1" transform="matrix(.25 0 0 .25 -420 -443)"/><path d="M1816 2164h8v56h-8zm40 0h8v56h-8zm64 0h8v56h-8zm64 0h8v56h-8zm64 0h8v56h-8z" style="display:inline;opacity:1;fill:#d5d3cf;fill-opacity:1;stroke:none;stroke-width:.25;stroke-linejoin:round;stroke-miterlimit:4;stroke-dasharray:none;stroke-opacity:1" transform="matrix(.25 0 0 .25 -420 -443)"/></g><g style="display:inline;fill:#deddda;fill-opacity:1;stroke-width:.25"><path d="M1816 2068h8v152h-8z" style="display:inline;opacity:1;fill:#deddda;fill-opacity:1;stroke:none;stroke-width:.25;stroke-linejoin:round;stroke-miterlimit:4;stroke-dasharray:none;stroke-opacity:1" transform="matrix(.25 0 0 .25 -420 -463)"/><path d="M2212-2056h8v240h-8z" style="display:inline;opacity:1;fill:#deddda;fill-opacity:1;stroke:none;stroke-width:.25;stroke-linejoin:round;stroke-miterlimit:4;stroke-dasharray:none;stroke-opacity:1" transform="matrix(0 .25 -.25 0 -420 -463)"/><path d="M1832 2124h24v80h-24zm32 32h24v48h-24zm32-64h24v112h-24zm32 16h24v96h-24zm32 40h24v56h-24zm32 24h24v32h-24zm32-40h24v72h-24z" style="display:inline;opacity:1;fill:#deddda;fill-opacity:1;stroke:none;stroke-width:.25;stroke-linejoin:round;stroke-miterlimit:4;stroke-dasharray:none;stroke-opacity:1" transform="matrix(.25 0 0 .25 -420 -463)"/></g><path d="m108.022 110.771-.002-72.853L77.977 8h-14Z" style="display:inline;fill:#fff;fill-opacity:.45554;stroke:none;stroke-width:1px;stroke-linecap:butt;stroke-linejoin:miter;stroke-opacity:1"/><path d="M77.978 8v22c0 4.432 3.61 7.923 8.043 7.923l22-.005z" style="display:inline;vector-effect:none;fill:#deddda;fill-opacity:1;stroke:none;stroke-width:.125;stroke-linecap:butt;stroke-linejoin:round;stroke-miterlimit:4;stroke-dasharray:none;stroke-dashoffset:0;stroke-opacity:1"/><path d="M27.978 8c-4.432 0-8 3.568-8 8v94.666L63.978 8z" style="display:inline;fill:#000;fill-opacity:.0341939;stroke:none;stroke-width:1px;stroke-linecap:butt;stroke-linejoin:miter;stroke-opacity:1"/></svg>