<svg xmlns="http://www.w3.org/2000/svg" xmlns:xlink="http://www.w3.org/1999/xlink" width="128" height="128" viewBox="0 0 128 128"><defs><linearGradient xlink:href="#oasis_presentation_a" id="oasis_presentation_e" x1="64" x2="64" y1="276" y2="284" gradientTransform="translate(0 -169)" gradientUnits="userSpaceOnUse"/><linearGradient id="oasis_presentation_a"><stop offset="0" style="stop-color:#414140;stop-opacity:1"/><stop offset="1" style="stop-color:#949390;stop-opacity:1"/></linearGradient><linearGradient xlink:href="#oasis_presentation_b" id="oasis_presentation_f" x1="-120.161" x2="246.161" y1="395" y2="395" gradientUnits="userSpaceOnUse"/><linearGradient id="oasis_presentation_b"><stop offset="0" style="stop-color:#c7c6c3;stop-opacity:1"/><stop offset=".024" style="stop-color:#e8e7e3;stop-opacity:1"/><stop offset=".069" style="stop-color:#cbcac7;stop-opacity:1"/><stop offset=".917" style="stop-color:#cbcac7;stop-opacity:1"/><stop offset=".96" style="stop-color:#eae8e4;stop-opacity:1"/><stop offset="1" style="stop-color:#acaba8;stop-opacity:1"/></linearGradient><linearGradient xlink:href="#oasis_presentation_c" id="oasis_presentation_g" x1="1376" x2="1376" y1="2692" y2="2932" gradientTransform="matrix(1.15 0 0 1.08108 -1519.4 -2800.027)" gradientUnits="userSpaceOnUse"/><linearGradient id="oasis_presentation_c"><stop offset="0" style="stop-color:#f6f5f4;stop-opacity:1"/><stop offset="1" style="stop-color:#fff;stop-opacity:1"/></linearGradient><linearGradient xlink:href="#oasis_presentation_d" id="oasis_presentation_h" x1="1449" x2="1449" y1="2596" y2="2652" gradientTransform="translate(-1313 -2561)" gradientUnits="userSpaceOnUse"/><linearGradient id="oasis_presentation_d"><stop offset="0" style="stop-color:#deddda;stop-opacity:1"/><stop offset="1" style="stop-color:#9a9996;stop-opacity:1"/></linearGradient></defs><path d="m83 117-14-14m-24 14 14-14" style="display:inline;fill:none;fill-opacity:1;stroke:url(#oasis_presentation_e);stroke-width:6;stroke-linecap:round;stroke-linejoin:miter;stroke-dasharray:none;stroke-opacity:1"/><g style="display:inline" transform="matrix(.25 0 0 .25 48.25 6.25)"><rect width="368" height="320" x="-121" y="83" rx="24" ry="24" style="display:inline;vector-effect:none;fill:url(#oasis_presentation_f);fill-opacity:1;stroke:none;stroke-width:.25;stroke-linecap:butt;stroke-linejoin:miter;stroke-miterlimit:4;stroke-dasharray:none;stroke-dashoffset:0;stroke-opacity:1;marker:none;marker-start:none;marker-mid:none;marker-end:none;paint-order:normal"/><rect width="368" height="320" x="-121" y="67" rx="24" ry="24" style="display:inline;vector-effect:none;fill:url(#oasis_presentation_g);fill-opacity:1;stroke:none;stroke-width:.25;stroke-linecap:butt;stroke-linejoin:miter;stroke-miterlimit:4;stroke-dasharray:none;stroke-dashoffset:0;stroke-opacity:1;marker:none;marker-start:none;marker-mid:none;marker-end:none;paint-order:normal"/><rect width="416" height="64" x="-145" y="35" rx="32" ry="32" style="display:inline;vector-effect:none;fill:url(#oasis_presentation_h);fill-opacity:1;stroke:none;stroke-width:.25;stroke-linecap:butt;stroke-linejoin:miter;stroke-miterlimit:4;stroke-dasharray:none;stroke-dashoffset:0;stroke-opacity:1;marker:none;marker-start:none;marker-mid:none;marker-end:none;paint-order:normal"/><path d="M86.543 266.984a72 72 0 0 1-36.789 55.058c-3.868 2.13-10.51 4.882-14.752 6.11a72 72 0 0 1-64.945-12.918c-3.45-2.758-8.533-7.842-11.29-11.29a72 72 0 0 1-12.92-64.946c1.229-4.242 3.98-10.884 6.111-14.752a72 72 0 0 1 55.058-36.789c4.39-.488 7.984 3.14 7.984 7.558V251a8 8 45 0 0 8 8h55.985c4.419 0 8.046 3.595 7.558 7.984z" style="display:inline;vector-effect:none;fill:#1a5fb4;fill-opacity:1;stroke:#204a87;stroke-width:.00726166px;stroke-linecap:butt;stroke-linejoin:miter;stroke-miterlimit:4;stroke-dasharray:none;stroke-dashoffset:0;stroke-opacity:1;marker:none;marker-start:none;marker-mid:none;marker-end:none;paint-order:normal"/><path d="M38.984 171.452c33.378 3.683 59.88 30.186 63.564 63.564.484 4.39-3.144 7.984-7.563 7.984H39a8 8 45 0 1-8-8v-55.985c0-4.419 3.595-8.047 7.984-7.563z" style="display:inline;vector-effect:none;fill:#26a269;fill-opacity:1;stroke:#204a87;stroke-width:.00726166px;stroke-linecap:butt;stroke-linejoin:miter;stroke-miterlimit:4;stroke-dasharray:none;stroke-dashoffset:0;stroke-opacity:1;marker:none;marker-start:none;marker-mid:none;marker-end:none;paint-order:normal"/><path d="M143 307h40a8 8 45 0 1 8 8 8 8 135 0 1-8 8h-40a8 8 45 0 1-8-8 8 8 135 0 1 8-8m0-40h40a8 8 45 0 1 8 8 8 8 135 0 1-8 8h-40a8 8 45 0 1-8-8 8 8 135 0 1 8-8m0-40h40a8 8 45 0 1 8 8 8 8 135 0 1-8 8h-40a8 8 45 0 1-8-8 8 8 135 0 1 8-8m0-40h40a8 8 45 0 1 8 8 8 8 135 0 1-8 8h-40a8 8 45 0 1-8-8 8 8 135 0 1 8-8m0-40h40a8 8 45 0 1 8 8 8 8 135 0 1-8 8h-40a8 8 45 0 1-8-8 8 8 135 0 1 8-8" style="display:inline;vector-effect:none;fill:#d5d3cf;fill-opacity:1;stroke:none;stroke-width:.5;stroke-linecap:butt;stroke-linejoin:miter;stroke-miterlimit:4;stroke-dasharray:none;stroke-dashoffset:0;stroke-opacity:1;marker:none;marker-start:none;marker-mid:none;marker-end:none;paint-order:normal"/><path d="M86.543 258.984a72 72 0 0 1-36.789 55.058c-3.868 2.13-10.51 4.882-14.752 6.11a72 72 0 0 1-64.945-12.918c-3.45-2.758-8.533-7.842-11.29-11.29a72 72 0 0 1-12.92-64.946c1.229-4.242 3.98-10.884 6.111-14.752a72 72 0 0 1 55.058-36.789c4.39-.488 7.984 3.14 7.984 7.558V243a8 8 45 0 0 8 8h55.985c4.419 0 8.046 3.595 7.558 7.984z" style="display:inline;vector-effect:none;fill:#4a86cf;fill-opacity:1;stroke:#204a87;stroke-width:.00726166px;stroke-linecap:butt;stroke-linejoin:miter;stroke-miterlimit:4;stroke-dasharray:none;stroke-dashoffset:0;stroke-opacity:1;marker:none;marker-start:none;marker-mid:none;marker-end:none;paint-order:normal"/><path d="M38.984 163.452c33.378 3.683 59.88 30.186 63.564 63.564.484 4.39-3.144 7.984-7.563 7.984H39a8 8 45 0 1-8-8v-55.985c0-4.419 3.595-8.047 7.984-7.563z" style="display:inline;vector-effect:none;fill:#50db81;fill-opacity:1;stroke:#204a87;stroke-width:.00726166px;stroke-linecap:butt;stroke-linejoin:miter;stroke-miterlimit:4;stroke-dasharray:none;stroke-dashoffset:0;stroke-opacity:1;marker:none;marker-start:none;marker-mid:none;marker-end:none;paint-order:normal"/></g><path d="M18 21h92" style="display:inline;fill:none;stroke:#deddda;stroke-width:4;stroke-linecap:round;stroke-linejoin:miter;stroke-dasharray:none;stroke-opacity:1"/></svg>