<svg xmlns="http://www.w3.org/2000/svg" xmlns:xlink="http://www.w3.org/1999/xlink" width="128" height="128" viewBox="0 0 128 128"><defs><radialGradient xlink:href="#oasis_text_template_a" id="oasis_text_template_b" cx="413.639" cy="226.773" r="192" fx="413.639" fy="226.773" gradientTransform="rotate(-60 14.02 111.079)scale(.46264 .28262)" gradientUnits="userSpaceOnUse"/><linearGradient id="oasis_text_template_a"><stop offset="0" style="stop-color:#50db81;stop-opacity:1"/><stop offset="1" style="stop-color:#8ff0a4;stop-opacity:.00414938"/></linearGradient></defs><path d="M27.978 8h50l30.043 29.918.001 74.06c0 4.432-3.612 8.022-8.044 8.022h-72c-4.432 0-8-3.568-8-8V16c0-4.432 3.568-8 8-8" style="display:inline;fill:#f6f5f4;fill-opacity:1;stroke:none;stroke-width:.125;stroke-linejoin:round;stroke-miterlimit:4;stroke-dasharray:none;stroke-opacity:1"/><rect width="16" height="4" x="80" y="100" rx="2" ry="2" style="display:inline;fill:#deddda;fill-opacity:1;stroke-width:1;stroke-linecap:round;paint-order:markers stroke fill;stop-color:#000"/><rect width="16" height="4" x="80" y="92" rx="2" ry="2" style="display:inline;fill:#deddda;fill-opacity:1;stroke-width:1;stroke-linecap:round;paint-order:markers stroke fill;stop-color:#000"/><rect width="16" height="4" x="80" y="84" rx="2" ry="2" style="display:inline;fill:#deddda;fill-opacity:1;stroke-width:1;stroke-linecap:round;paint-order:markers stroke fill;stop-color:#000"/><rect width="16" height="4" x="80" y="76" rx="2" ry="2" style="display:inline;fill:#deddda;fill-opacity:1;stroke-width:1;stroke-linecap:round;paint-order:markers stroke fill;stop-color:#000"/><rect width="16" height="4" x="80" y="68" rx="2" ry="2" style="display:inline;fill:#deddda;fill-opacity:1;stroke-width:1;stroke-linecap:round;paint-order:markers stroke fill;stop-color:#000"/><rect width="16" height="4" x="80" y="60" rx="2" ry="2" style="display:inline;fill:#deddda;fill-opacity:1;stroke-width:1;stroke-linecap:round;paint-order:markers stroke fill;stop-color:#000"/><rect width="16" height="4" x="80" y="52" rx="2" ry="2" style="display:inline;fill:#deddda;fill-opacity:1;stroke-width:2;stroke-linecap:round;paint-order:markers stroke fill;stop-color:#000"/><rect width="64" height="4" x="32" y="44" rx="2" ry="2" style="display:inline;fill:#deddda;fill-opacity:1;stroke-width:2.52982;stroke-linecap:round;paint-order:markers stroke fill;stop-color:#000"/><rect width="40" height="4" x="32" y="36" rx="2" ry="1.325" style="display:inline;fill:#deddda;fill-opacity:1;stroke-width:2;stroke-linecap:round;paint-order:markers stroke fill;stop-color:#000"/><rect width="40" height="4" x="32" y="28" rx="2" ry="1.325" style="display:inline;fill:#deddda;fill-opacity:1;stroke-width:2;stroke-linecap:round;paint-order:markers stroke fill;stop-color:#000"/><rect width="42" height="50.035" x="32" y="-104" rx="4" ry="4" style="display:inline;vector-effect:none;fill:url(#oasis_text_template_b);fill-opacity:1;stroke:none;stroke-width:.125;stroke-linecap:butt;stroke-linejoin:miter;stroke-miterlimit:4;stroke-dasharray:none;stroke-dashoffset:0;stroke-opacity:1;marker:none;marker-start:none;marker-mid:none;marker-end:none;paint-order:normal" transform="scale(1 -1)"/><rect width="42" height="50.035" x="32" y="-104" rx="4" ry="4" style="display:inline;vector-effect:none;fill:#deddda;fill-opacity:1;stroke:none;stroke-width:.125;stroke-linecap:butt;stroke-linejoin:miter;stroke-miterlimit:4;stroke-dasharray:none;stroke-dashoffset:0;stroke-opacity:1;marker:none;marker-start:none;marker-mid:none;marker-end:none;paint-order:normal" transform="scale(1 -1)"/><path d="m108.022 110.771-.002-72.853L77.977 8h-14Z" style="display:inline;fill:#fff;fill-opacity:.45554;stroke:none;stroke-width:1px;stroke-linecap:butt;stroke-linejoin:miter;stroke-opacity:1"/><path d="M77.978 8v22c0 4.432 3.61 7.923 8.043 7.923l22-.005z" style="display:inline;vector-effect:none;fill:#deddda;fill-opacity:1;stroke:none;stroke-width:.125;stroke-linecap:butt;stroke-linejoin:round;stroke-miterlimit:4;stroke-dasharray:none;stroke-dashoffset:0;stroke-opacity:1"/><path d="M27.978 8c-4.432 0-8 3.568-8 8v94.666L63.978 8z" style="display:inline;fill:#000;fill-opacity:.0341939;stroke:none;stroke-width:1px;stroke-linecap:butt;stroke-linejoin:miter;stroke-opacity:1"/></svg>