<svg xmlns="http://www.w3.org/2000/svg" width="128" height="128" viewBox="0 0 128 128"><path d="M27.978 8h50l30.043 29.918.001 74.06c0 4.432-3.612 8.022-8.044 8.022h-72c-4.432 0-8-3.568-8-8V16c0-4.432 3.568-8 8-8" style="display:inline;fill:#f6f5f4;fill-opacity:1;stroke:none;stroke-width:.125;stroke-linejoin:round;stroke-miterlimit:4;stroke-dasharray:none;stroke-opacity:1"/><path d="M77.978 8v22c0 4.432 3.61 7.923 8.043 7.923l22-.005z" style="display:inline;vector-effect:none;fill:#deddda;fill-opacity:1;stroke:none;stroke-width:.125;stroke-linecap:butt;stroke-linejoin:round;stroke-miterlimit:4;stroke-dasharray:none;stroke-dashoffset:0;stroke-opacity:1"/><ellipse cx="64" cy="91.902" rx="21.788" ry="12.57" style="display:inline;fill:#adaba3;fill-opacity:1;stroke-width:.131181;stroke-linejoin:bevel;stroke-miterlimit:3.3;paint-order:stroke fill markers"/><ellipse cx="64" cy="87.544" rx="21.788" ry="12.57" style="display:inline;fill:#deddda;fill-opacity:1;stroke-width:.131181;stroke-linejoin:bevel;stroke-miterlimit:3.3;paint-order:stroke fill markers"/><ellipse cx="64" cy="84.276" rx="21.788" ry="12.57" style="display:inline;fill:#fff;stroke-width:.131181;stroke-linejoin:bevel;stroke-miterlimit:3.3;paint-order:stroke fill markers"/><ellipse cx="64" cy="83.187" rx="21.788" ry="12.57" style="display:inline;fill:#adaba3;fill-opacity:1;stroke-width:.131181;stroke-linejoin:bevel;stroke-miterlimit:3.3;paint-order:stroke fill markers"/><ellipse cx="64" cy="78.829" rx="21.788" ry="12.57" style="display:inline;fill:#deddda;fill-opacity:1;stroke-width:.131181;stroke-linejoin:bevel;stroke-miterlimit:3.3;paint-order:stroke fill markers"/><ellipse cx="64" cy="75.561" rx="21.788" ry="12.57" style="display:inline;fill:#fff;stroke-width:.131181;stroke-linejoin:bevel;stroke-miterlimit:3.3;paint-order:stroke fill markers"/><ellipse cx="64" cy="74.472" rx="21.788" ry="12.57" style="display:inline;fill:#adaba3;fill-opacity:1;stroke-width:.131181;stroke-linejoin:bevel;stroke-miterlimit:3.3;paint-order:stroke fill markers"/><ellipse cx="64" cy="70.114" rx="21.788" ry="12.57" style="display:inline;fill:#deddda;fill-opacity:1;stroke-width:.131181;stroke-linejoin:bevel;stroke-miterlimit:3.3;paint-order:stroke fill markers"/><ellipse cx="64" cy="66.846" rx="21.788" ry="12.57" style="display:inline;fill:#fff;stroke-width:.131181;stroke-linejoin:bevel;stroke-miterlimit:3.3;paint-order:stroke fill markers"/><ellipse cx="64" cy="65.756" rx="21.788" ry="12.57" style="display:inline;fill:#adaba3;fill-opacity:1;stroke-width:.131181;stroke-linejoin:bevel;stroke-miterlimit:3.3;paint-order:stroke fill markers"/><ellipse cx="64" cy="61.399" rx="21.788" ry="12.57" style="display:inline;fill:#deddda;fill-opacity:1;stroke-width:.131181;stroke-linejoin:bevel;stroke-miterlimit:3.3;paint-order:stroke fill markers"/><ellipse cx="64" cy="58.131" rx="21.788" ry="12.57" style="display:inline;fill:#fff;stroke-width:.131181;stroke-linejoin:bevel;stroke-miterlimit:3.3;paint-order:stroke fill markers"/><ellipse cx="64" cy="57.041" rx="21.788" ry="12.57" style="display:inline;fill:#deddda;fill-opacity:1;stroke-width:.131181;stroke-linejoin:bevel;stroke-miterlimit:3.3;paint-order:stroke fill markers"/><path d="M27.978 8c-4.432 0-8 3.568-8 8v94.666L63.978 8z" style="display:inline;fill:#000;fill-opacity:.0341939;stroke:none;stroke-width:1px;stroke-linecap:butt;stroke-linejoin:miter;stroke-opacity:1"/><path d="m108.022 110.771-.002-72.853L77.977 8h-14Z" style="display:inline;fill:#fff;fill-opacity:.45554;stroke:none;stroke-width:1px;stroke-linecap:butt;stroke-linejoin:miter;stroke-opacity:1"/></svg>