<svg xmlns="http://www.w3.org/2000/svg" width="128" height="128" viewBox="0 0 128 128"><g style="display:inline"><path d="M124.828 857.328h200L445 977l.005 296.24c0 17.728-14.449 32.088-32.177 32.088h-288c-17.728 0-32-14.272-32-32v-384c0-17.728 14.272-32 32-32" style="display:inline;fill:#f6f5f4;fill-opacity:1;stroke:none;stroke-width:.5;stroke-linejoin:round;stroke-miterlimit:4;stroke-dasharray:none;stroke-opacity:1" transform="matrix(.25 0 0 .25 -3.23 -206.332)"/><path d="M324.828 857.328v88c0 17.728 14.443 31.694 32.17 31.694L445 977Z" style="display:inline;vector-effect:none;fill:#deddda;fill-opacity:1;stroke:none;stroke-width:.5;stroke-linecap:butt;stroke-linejoin:round;stroke-miterlimit:4;stroke-dasharray:none;stroke-dashoffset:0;stroke-opacity:1" transform="matrix(.25 0 0 .25 -3.23 -206.332)"/></g><g style="display:inline"><path d="M-144 221a60 60 0 0 1-60 60 60 60 0 0 1-60-60 60 60 0 0 1 60-60 60 60 0 0 1 60 60" style="display:inline;opacity:1;fill:#62a0ea;fill-opacity:1;stroke:none;stroke-width:.0112982px;stroke-linecap:butt;stroke-linejoin:miter;stroke-miterlimit:4;stroke-dasharray:none;stroke-dashoffset:0;stroke-opacity:1;marker:none;marker-start:none;marker-mid:none;marker-end:none;paint-order:normal" transform="matrix(.5 0 0 .5 166 -36.58)"/><path d="M-144 219a60 60 0 0 1-60 60 60 60 0 0 1-60-60 60 60 0 0 1 60-60 60 60 0 0 1 60 60" style="display:inline;opacity:1;fill:#3584e4;fill-opacity:1;stroke:none;stroke-width:.0112982px;stroke-linecap:butt;stroke-linejoin:miter;stroke-miterlimit:4;stroke-dasharray:none;stroke-dashoffset:0;stroke-opacity:1;marker:none;marker-start:none;marker-mid:none;marker-end:none;paint-order:normal" transform="matrix(.5 0 0 .5 166 -36.58)"/><path d="M20.004 220a36 63 0 0 0 7.838 38.251 44 27 0 0 0-9.864 7.16A60 60 0 0 1-3.992 220z" style="display:inline;fill:#99c1f1;fill-opacity:1;stroke:none;stroke-width:.0112982px;stroke-linecap:butt;stroke-linejoin:miter;stroke-miterlimit:4;stroke-dasharray:none;stroke-dashoffset:0;stroke-opacity:1;marker:none;marker-start:none;marker-mid:none;marker-end:none;paint-order:normal" transform="matrix(.5 0 0 .5 36 -36.58)"/><path d="M56 220v59a60 60 0 0 1-13.377-1.512A36 63 0 0 1 20.003 220z" style="display:inline;fill:#62a0ea;fill-opacity:1;stroke:none;stroke-width:.00896766px;stroke-linecap:butt;stroke-linejoin:miter;stroke-miterlimit:4;stroke-dasharray:none;stroke-dashoffset:0;stroke-opacity:1;marker:none;marker-start:none;marker-mid:none;marker-end:none;paint-order:normal" transform="matrix(.5 0 0 .5 36 -36.58)"/><path d="M56 252v27a60 60 0 0 1-13.377-1.512 36 63 0 0 1-14.781-19.236A44 27 0 0 1 56 252" style="display:inline;fill:#3584e4;fill-opacity:1;stroke:none;stroke-width:.00649031px;stroke-linecap:butt;stroke-linejoin:miter;stroke-miterlimit:4;stroke-dasharray:none;stroke-dashoffset:0;stroke-opacity:1;marker:none;marker-start:none;marker-mid:none;marker-end:none;paint-order:normal" transform="matrix(.5 0 0 .5 36 -36.58)"/><path d="M27.842 258.251a36 63 0 0 0 14.78 19.236 60 60 0 0 1-24.644-12.076 44 27 0 0 1 9.864-7.16" style="display:inline;fill:#62a0ea;fill-opacity:1;stroke:none;stroke-width:.00649031px;stroke-linecap:butt;stroke-linejoin:miter;stroke-miterlimit:4;stroke-dasharray:none;stroke-dashoffset:0;stroke-opacity:1;marker:none;marker-start:none;marker-mid:none;marker-end:none;paint-order:normal" transform="matrix(.5 0 0 .5 36 -36.58)"/><path d="M91.508 220a36 63 0 0 1-7.838 38.253 44 27 0 0 1 9.863 7.16 60 60 0 0 0 21.971-45.412z" style="display:inline;fill:#1c71d8;fill-opacity:1;stroke:none;stroke-width:.0112982px;stroke-linecap:butt;stroke-linejoin:miter;stroke-miterlimit:4;stroke-dasharray:none;stroke-dashoffset:0;stroke-opacity:1;marker:none;marker-start:none;marker-mid:none;marker-end:none;paint-order:normal" transform="matrix(.5 0 0 .5 36.244 -36.581)"/><path d="M55.512 220v59a60 60 0 0 0 13.377-1.51A36 63 0 0 0 91.508 220z" style="display:inline;fill:#3584e4;fill-opacity:1;stroke:none;stroke-width:.00896766px;stroke-linecap:butt;stroke-linejoin:miter;stroke-miterlimit:4;stroke-dasharray:none;stroke-dashoffset:0;stroke-opacity:1;marker:none;marker-start:none;marker-mid:none;marker-end:none;paint-order:normal" transform="matrix(.5 0 0 .5 36.244 -36.581)"/><path d="M55.512 252v27a60 60 0 0 0 13.377-1.51 36 63 0 0 0 14.781-19.237A44 27 0 0 0 55.512 252" style="display:inline;fill:#1c71d8;fill-opacity:1;stroke:none;stroke-width:.00649031px;stroke-linecap:butt;stroke-linejoin:miter;stroke-miterlimit:4;stroke-dasharray:none;stroke-dashoffset:0;stroke-opacity:1;marker:none;marker-start:none;marker-mid:none;marker-end:none;paint-order:normal" transform="matrix(.5 0 0 .5 36.244 -36.581)"/><path d="M83.67 258.252a36 63 0 0 1-14.781 19.236 60 60 0 0 0 24.644-12.076 44 27 0 0 0-9.863-7.16" style="display:inline;fill:#1a5fb4;fill-opacity:1;stroke:none;stroke-width:.00649031px;stroke-linecap:butt;stroke-linejoin:miter;stroke-miterlimit:4;stroke-dasharray:none;stroke-dashoffset:0;stroke-opacity:1;marker:none;marker-start:none;marker-mid:none;marker-end:none;paint-order:normal" transform="matrix(.5 0 0 .5 36.244 -36.581)"/><path d="M64 3A60 60 0 0 0 4 63a60 60 0 0 0 .008 1H64Z" style="opacity:1;fill:#b3d3f9;fill-opacity:1;stroke:none;stroke-width:2;stroke-linecap:round;stroke-linejoin:round;stroke-opacity:0" transform="matrix(.5 0 0 .5 32 41.42)"/><path d="M50.627 4.51a60 60 0 0 0-24.65 12.076 44 27 0 0 0 9.865 7.162A36 63 0 0 1 50.627 4.51" style="opacity:1;fill:#d7e8fc;fill-opacity:1;stroke:none;stroke-width:2;stroke-linecap:round;stroke-linejoin:round;stroke-opacity:0" transform="matrix(.5 0 0 .5 32 41.42)"/><path d="M64 3a60 60 0 0 0-13.373 1.51A36 63 0 0 0 28 63a36 63 0 0 0 .004 1H64Z" style="opacity:1;fill:#99c1f1;fill-opacity:1;stroke:none;stroke-width:3.50449;stroke-linecap:round;stroke-linejoin:round;stroke-opacity:0" transform="matrix(.5 0 0 .5 32 41.42)"/><path d="M64 3a60 60 0 0 0-13.373 1.51 36 63 0 0 0-14.783 19.238A44 27 0 0 0 64 30Z" style="opacity:1;fill:#b3d3f9;fill-opacity:1;stroke:none;stroke-width:3.50449;stroke-linecap:round;stroke-linejoin:round;stroke-opacity:0" transform="matrix(.5 0 0 .5 32 41.42)"/><path d="M-4 159a60 60 0 0 1 60 60 60 60 0 0 1-.008 1H-4z" style="fill:#3584e4;fill-opacity:1;stroke:none;stroke-width:2;stroke-linecap:round;stroke-linejoin:round;stroke-opacity:0" transform="matrix(.5 0 0 .5 66 -36.58)"/><path d="M9.373 160.51a60 60 0 0 1 24.65 12.076 44 27 0 0 1-9.865 7.162A36 63 0 0 0 9.373 160.51" style="fill:#62a0ea;fill-opacity:1;stroke:none;stroke-width:2;stroke-linecap:round;stroke-linejoin:round;stroke-opacity:0" transform="matrix(.5 0 0 .5 66 -36.58)"/><path d="M-4 159a60 60 0 0 1 13.373 1.51A36 63 0 0 1 32 219a36 63 0 0 1-.004 1H-4z" style="fill:#62a0ea;fill-opacity:1;stroke:none;stroke-width:3.50449;stroke-linecap:round;stroke-linejoin:round;stroke-opacity:0" transform="matrix(.5 0 0 .5 66 -36.58)"/><path d="M-4 159a60 60 0 0 1 13.373 1.51 36 63 0 0 1 14.783 19.238A44 27 0 0 1-4 186Z" style="fill:#99c1f1;fill-opacity:1;stroke:none;stroke-width:3.50449;stroke-linecap:round;stroke-linejoin:round;stroke-opacity:0" transform="matrix(.5 0 0 .5 66 -36.58)"/></g></svg>