<svg xmlns="http://www.w3.org/2000/svg" width="128" height="128" viewBox="0 0 128 128"><g style="display:inline"><path d="M124.828 857.328h200L445 977l.005 296.24c0 17.728-14.449 32.088-32.177 32.088h-288c-17.728 0-32-14.272-32-32v-384c0-17.728 14.272-32 32-32" style="display:inline;fill:#f6f5f4;fill-opacity:1;stroke:none;stroke-width:.5;stroke-linejoin:round;stroke-miterlimit:4;stroke-dasharray:none;stroke-opacity:1" transform="matrix(.25 0 0 .25 -3.23 -206.332)"/><path d="M324.828 857.328v88c0 17.728 14.443 31.694 32.17 31.694L445 977Z" style="display:inline;vector-effect:none;fill:#deddda;fill-opacity:1;stroke:none;stroke-width:.5;stroke-linecap:butt;stroke-linejoin:round;stroke-miterlimit:4;stroke-dasharray:none;stroke-dashoffset:0;stroke-opacity:1" transform="matrix(.25 0 0 .25 -3.23 -206.332)"/></g><g style="display:inline;opacity:.3;stroke-width:.25"><path d="M1816 1852h8v120h-8zm40 0h8v120h-8zm64 0h8v120h-8zm64 88h8v32h-8zm64 0h8v32h-8z" style="display:inline;opacity:1;fill:#d5d3cf;fill-opacity:1;stroke:none;stroke-width:.25;stroke-linejoin:round;stroke-miterlimit:4;stroke-dasharray:none;stroke-opacity:1" transform="matrix(.25 0 0 .25 -420.022 -443)"/><path d="M1816 1964h240v8h-240zm0-24h240v8h-240zm0-24h112v8h-112zm0-24h112v8h-112zm0-24h112v8h-112zm0-24h112v8h-112zm0 320h240v8h-240zm0 24h240v8h-240zm0 24h240v8h-240z" style="display:inline;opacity:1;fill:#d5d3cf;fill-opacity:1;stroke:none;stroke-width:.25;stroke-linejoin:round;stroke-miterlimit:4;stroke-dasharray:none;stroke-opacity:1" transform="matrix(.25 0 0 .25 -420.022 -443)"/><path d="M1816 2164h8v56h-8zm40 0h8v56h-8zm64 0h8v56h-8zm64 0h8v56h-8zm64 0h8v56h-8z" style="display:inline;opacity:1;fill:#d5d3cf;fill-opacity:1;stroke:none;stroke-width:.25;stroke-linejoin:round;stroke-miterlimit:4;stroke-dasharray:none;stroke-opacity:1" transform="matrix(.25 0 0 .25 -420.022 -443)"/></g><g style="display:inline;stroke-width:.25"><path d="M1816 2068h8v152h-8z" style="display:inline;opacity:1;fill:#d5d3cf;fill-opacity:1;stroke:none;stroke-width:.25;stroke-linejoin:round;stroke-miterlimit:4;stroke-dasharray:none;stroke-opacity:1" transform="matrix(.25 0 0 .25 -420.022 -463)"/><path d="M2212-2056h8v240h-8z" style="display:inline;opacity:1;fill:#d5d3cf;fill-opacity:1;stroke:none;stroke-width:.25;stroke-linejoin:round;stroke-miterlimit:4;stroke-dasharray:none;stroke-opacity:1" transform="matrix(0 .25 -.25 0 -420.022 -463)"/><path d="M1832 2124h24v80h-24z" style="display:inline;opacity:1;fill:#50db81;fill-opacity:1;stroke:none;stroke-width:.25;stroke-linejoin:round;stroke-miterlimit:4;stroke-dasharray:none;stroke-opacity:1" transform="matrix(.25 0 0 .25 -420.022 -463)"/><path d="M1864 2156h24v48h-24z" style="display:inline;opacity:1;fill:#8f5aa0;fill-opacity:1;stroke:none;stroke-width:.25;stroke-linejoin:round;stroke-miterlimit:4;stroke-dasharray:none;stroke-opacity:1" transform="matrix(.25 0 0 .25 -420.022 -463)"/><path d="M1896 2092h24v112h-24z" style="display:inline;opacity:1;fill:#fb8c14;fill-opacity:1;stroke:none;stroke-width:.25;stroke-linejoin:round;stroke-miterlimit:4;stroke-dasharray:none;stroke-opacity:1" transform="matrix(.25 0 0 .25 -420.022 -463)"/><path d="M1928 2108h24v96h-24z" style="display:inline;opacity:1;fill:#e01b24;fill-opacity:1;stroke:none;stroke-width:.25;stroke-linejoin:round;stroke-miterlimit:4;stroke-dasharray:none;stroke-opacity:1" transform="matrix(.25 0 0 .25 -420.022 -463)"/><path d="M1960 2148h24v56h-24z" style="display:inline;opacity:1;fill:#8f5aa0;fill-opacity:1;stroke:none;stroke-width:.25;stroke-linejoin:round;stroke-miterlimit:4;stroke-dasharray:none;stroke-opacity:1" transform="matrix(.25 0 0 .25 -420.022 -463)"/><path d="M1992 2172h24v32h-24z" style="display:inline;opacity:1;fill:#4a86cf;fill-opacity:1;stroke:none;stroke-width:.25;stroke-linejoin:round;stroke-miterlimit:4;stroke-dasharray:none;stroke-opacity:1" transform="matrix(.25 0 0 .25 -420.022 -463)"/><path d="M2024 2132h24v72h-24z" style="display:inline;opacity:1;fill:#f6d32d;fill-opacity:1;stroke:none;stroke-width:.25;stroke-linejoin:round;stroke-miterlimit:4;stroke-dasharray:none;stroke-opacity:1" transform="matrix(.25 0 0 .25 -420.022 -463)"/></g></svg>