<svg xmlns="http://www.w3.org/2000/svg" xmlns:xlink="http://www.w3.org/1999/xlink" xml:space="preserve" width="128" height="128" viewBox="0 0 128 128"><defs><linearGradient xlink:href="#org_rncbc_qtractor_application_x_qtractor_archive_a" id="org_rncbc_qtractor_application_x_qtractor_archive_y" x1="182.67" x2="226.58" y1="74.241" y2="192.07" gradientTransform="matrix(.45128 0 0 .51378 -117.947 57.813)" gradientUnits="userSpaceOnUse"/><linearGradient id="org_rncbc_qtractor_application_x_qtractor_archive_a"><stop offset="0" stop-color="#fff" stop-opacity="0"/><stop offset=".613" stop-color="#fff" stop-opacity=".021"/><stop offset="1" stop-color="#fff" stop-opacity=".531"/></linearGradient><linearGradient id="org_rncbc_qtractor_application_x_qtractor_archive_h"><stop offset="0" stop-color="#1d1100" stop-opacity=".667"/><stop offset=".527" stop-color="#4f340c" stop-opacity=".302"/><stop offset="1" stop-color="#3d3001" stop-opacity="0"/></linearGradient><linearGradient xlink:href="#org_rncbc_qtractor_application_x_qtractor_archive_b" id="org_rncbc_qtractor_application_x_qtractor_archive_w" x1="24.214" x2="23.556" y1="116.1" y2="104.7" gradientTransform="matrix(1.15388 0 0 .6425 -122.088 65.942)" gradientUnits="userSpaceOnUse"/><linearGradient id="org_rncbc_qtractor_application_x_qtractor_archive_b"><stop offset="0" stop-color="#6f6234"/><stop offset=".5" stop-color="#7f7655"/><stop offset="1" stop-color="#2d2711"/></linearGradient><linearGradient xlink:href="#org_rncbc_qtractor_application_x_qtractor_archive_c" id="org_rncbc_qtractor_application_x_qtractor_archive_u" x1="106.91" x2="291.1" y1="137.89" y2="-13.32" gradientTransform="matrix(.42076 0 0 .55104 -117.947 57.813)" gradientUnits="userSpaceOnUse"/><linearGradient id="org_rncbc_qtractor_application_x_qtractor_archive_c"><stop offset="0" stop-color="#ede1b9"/><stop offset=".5" stop-color="#7a7152"/><stop offset="1" stop-color="#927f39"/></linearGradient><linearGradient xlink:href="#org_rncbc_qtractor_application_x_qtractor_archive_d" id="org_rncbc_qtractor_application_x_qtractor_archive_t" x1="167.384" x2="423.516" y1="44.536" y2="288.533" gradientTransform="matrix(.4212 0 0 .55047 -117.947 57.813)" gradientUnits="userSpaceOnUse"/><linearGradient id="org_rncbc_qtractor_application_x_qtractor_archive_d"><stop offset="0" stop-color="#ede1b9"/><stop offset=".5" stop-color="#7a7152"/><stop offset="1" stop-color="#927f39" style="stop-color:#938039;stop-opacity:1"/></linearGradient><linearGradient id="org_rncbc_qtractor_application_x_qtractor_archive_i" x1="20" x2="20" y1="240.036" y2="222.194" gradientTransform="matrix(1 0 0 -1 201 314.91)" gradientUnits="userSpaceOnUse"><stop offset="0" stop-color="#f51111"/><stop offset=".044" stop-color="#f5c211"/><stop offset=".103" stop-color="#e5a50a"/><stop offset=".338" stop-color="#f9f06b"/><stop offset=".839" stop-color="#f5c211"/><stop offset="1" stop-color="#d1960a"/></linearGradient><linearGradient xlink:href="#org_rncbc_qtractor_application_x_qtractor_archive_e" id="org_rncbc_qtractor_application_x_qtractor_archive_p" x1="88.6" x2="113.8" y1="262.492" y2="262.492" gradientTransform="matrix(0 .36255 .34294 0 -176.867 107.369)" gradientUnits="userSpaceOnUse"/><linearGradient id="org_rncbc_qtractor_application_x_qtractor_archive_e" x1="88.6" x2="113.8" y1="262.492" y2="262.492" gradientTransform="matrix(0 .83333 -.78825 0 491.91 19.076)" gradientUnits="userSpaceOnUse"><stop offset=".044" stop-color="#f5c211" style="stop-color:#9c916a;stop-opacity:1"/><stop offset=".2" stop-color="#e5a50a" style="stop-color:#a3904d;stop-opacity:1"/><stop offset=".567" stop-color="#f9f06b" style="stop-color:#cec297;stop-opacity:1"/><stop offset=".843" stop-color="#f5c211" style="stop-color:#af9b55;stop-opacity:1"/><stop offset="1" stop-color="#d1960a" style="stop-color:#837a58;stop-opacity:1"/></linearGradient><linearGradient id="org_rncbc_qtractor_application_x_qtractor_archive_j" gradientUnits="userSpaceOnUse"><stop offset="0" stop-color="#f5c211" style="stop-color:#9b9069;stop-opacity:1"/><stop offset="0" stop-color="#e5a50a" style="stop-color:#a3904d;stop-opacity:1"/><stop offset=".327" stop-color="#f9f06b" style="stop-color:#cec396;stop-opacity:1"/><stop offset=".596" stop-color="#f5c211" style="stop-color:#af9b55;stop-opacity:1"/><stop offset="1" stop-color="#d1960a" style="stop-color:#847a58;stop-opacity:1"/></linearGradient><linearGradient id="org_rncbc_qtractor_application_x_qtractor_archive_m" x1="169.708" x2="248.62" y1="128.791" y2="128.791" gradientTransform="rotate(46.733 64.34 -190.73)scale(.95245)" gradientUnits="userSpaceOnUse"><stop offset="0" stop-opacity="0"/><stop offset=".5" stop-color="#fff" stop-opacity=".361"/><stop offset="1" stop-opacity="0"/></linearGradient><linearGradient xlink:href="#org_rncbc_qtractor_application_x_qtractor_archive_f" id="org_rncbc_qtractor_application_x_qtractor_archive_l" x1="12" x2="87.159" y1="66.044" y2="66.044" gradientTransform="translate(-121 57.67)" gradientUnits="userSpaceOnUse"/><linearGradient id="org_rncbc_qtractor_application_x_qtractor_archive_f" x1="12" x2="87.159" y1="66.044" y2="66.044" gradientUnits="userSpaceOnUse"><stop offset="0" stop-color="#00000f"/><stop offset=".1" stop-color="#707070"/><stop offset=".2" stop-color="#121212"/><stop offset=".8" stop-color="#121212"/><stop offset=".9" stop-color="#707070"/><stop offset="1"/></linearGradient><linearGradient xlink:href="#org_rncbc_qtractor_application_x_qtractor_archive_g" id="org_rncbc_qtractor_application_x_qtractor_archive_k" x1="9.105" x2="113.105" y1="170" y2="170" gradientTransform="translate(-122.105 -27)" gradientUnits="userSpaceOnUse"/><linearGradient id="org_rncbc_qtractor_application_x_qtractor_archive_g" x1="8" x2="120" y1="124" y2="124" gradientUnits="userSpaceOnUse"><stop offset="0" stop-color="#e5a50a" style="stop-color:#3f3a27;stop-opacity:1"/><stop offset=".036" stop-color="#f6d32d" style="stop-color:#9e9061;stop-opacity:1"/><stop offset=".071" stop-color="#e5a50a" style="stop-color:#3f3a27;stop-opacity:1"/><stop offset=".929" stop-color="#e5a50a" style="stop-color:#5e563a;stop-opacity:1"/><stop offset=".964" stop-color="#f6d32d" style="stop-color:#9e9161;stop-opacity:1"/><stop offset="1" stop-color="#e5a50a" style="stop-color:#3f3a27;stop-opacity:1"/></linearGradient><radialGradient xlink:href="#org_rncbc_qtractor_application_x_qtractor_archive_h" id="org_rncbc_qtractor_application_x_qtractor_archive_x" cx="104.16" cy="56.434" r="20.573" fx="86.443" fy="60.641" gradientTransform="matrix(.79573 0 0 .93173 -122.088 65.942)" gradientUnits="userSpaceOnUse"/><radialGradient xlink:href="#org_rncbc_qtractor_application_x_qtractor_archive_h" id="org_rncbc_qtractor_application_x_qtractor_archive_v" cx="198.31" cy="109.06" r="63.508" fx="143.62" fy="122.04" gradientTransform="matrix(.445 0 0 .52103 -117.947 57.813)" gradientUnits="userSpaceOnUse"/><radialGradient id="org_rncbc_qtractor_application_x_qtractor_archive_s" cx="68.302" cy="281.158" r="29.631" gradientTransform="rotate(208.774 -17.499 149.938)scale(.44226 .50343)" gradientUnits="userSpaceOnUse"><stop offset="0" stop-color="#f5c211" style="stop-color:#b09c56;stop-opacity:1"/><stop offset=".184" stop-color="#c98c04" style="stop-color:#7b7252;stop-opacity:1"/><stop offset=".541" stop-color="#f9f06b" stop-opacity="0" style="stop-color:#cec296;stop-opacity:0"/><stop offset="1" stop-color="#d1960a" stop-opacity="0" style="stop-color:#958446;stop-opacity:0"/></radialGradient><radialGradient id="org_rncbc_qtractor_application_x_qtractor_archive_r" cx="79.357" cy="260.5" r="23.5" gradientTransform="matrix(0 -.66647 .76444 0 -259.012 185.046)" gradientUnits="userSpaceOnUse"><stop offset=".044" stop-color="#f5c211" style="stop-color:#9c916a;stop-opacity:1"/><stop offset=".216" stop-color="#e5a50a" style="stop-color:#a3904c;stop-opacity:1"/><stop offset=".556" stop-color="#f9f06b" style="stop-color:#cec297;stop-opacity:1"/><stop offset=".778" stop-color="#f5c211" style="stop-color:#af9b55;stop-opacity:1"/><stop offset="1" stop-color="#d1960a" style="stop-color:#837a58;stop-opacity:1"/></radialGradient><radialGradient xlink:href="#org_rncbc_qtractor_application_x_qtractor_archive_i" id="org_rncbc_qtractor_application_x_qtractor_archive_q" cx="272" cy="81.173" r="14" gradientTransform="rotate(90 73.326 -69.972)scale(1.0255)" gradientUnits="userSpaceOnUse"><stop offset=".044" stop-color="#f5c211" style="stop-color:#9c916a;stop-opacity:1"/><stop offset=".327" stop-color="#e5a50a" style="stop-color:#a3904d;stop-opacity:1"/><stop offset=".636" stop-color="#f9f06b" style="stop-color:#cec297;stop-opacity:1"/><stop offset=".839" stop-color="#f5c211" style="stop-color:#af9b55;stop-opacity:1"/><stop offset="1" stop-color="#d1960a" style="stop-color:#837a58;stop-opacity:1"/></radialGradient><radialGradient xlink:href="#org_rncbc_qtractor_application_x_qtractor_archive_j" id="org_rncbc_qtractor_application_x_qtractor_archive_o" cx="99" cy="267.222" r="13" gradientTransform="matrix(0 .78854 .78836 0 -303.171 63.166)"/><radialGradient id="org_rncbc_qtractor_application_x_qtractor_archive_n" cx="68.302" cy="281.158" r="29.631" gradientTransform="rotate(204.951 -17.435 148.274)scale(.44042 .50343)" gradientUnits="userSpaceOnUse"><stop offset="0" stop-color="#f5c211" style="stop-color:#9c916a;stop-opacity:1"/><stop offset=".138" stop-color="#e5a50a" style="stop-color:#a3904c;stop-opacity:1"/><stop offset=".541" stop-color="#f9f06b" style="stop-color:#cec297;stop-opacity:1"/><stop offset=".817" stop-color="#f5c211" style="stop-color:#af9b55;stop-opacity:1"/><stop offset="1" stop-color="#d1960a" style="stop-color:#837a58;stop-opacity:1"/></radialGradient></defs><path d="M27.978 8h50l30.043 29.918.001 74.06c0 4.432-3.612 8.022-8.044 8.022h-72c-4.432 0-8-3.568-8-8V16c0-4.432 3.568-8 8-8" style="display:inline;fill:#d7e3f4;fill-opacity:1;stroke:none;stroke-width:.125;stroke-linejoin:round;stroke-miterlimit:4;stroke-dasharray:none;stroke-opacity:1"/><path d="M77.978 8v22c0 4.432 3.61 7.923 8.043 7.923l22-.005z" style="display:inline;vector-effect:none;fill:#000;fill-opacity:1;stroke:none;stroke-width:.125;stroke-linecap:butt;stroke-linejoin:round;stroke-miterlimit:4;stroke-dasharray:none;stroke-dashoffset:0;stroke-opacity:1;opacity:.2"/><g transform="translate(95.551 8.23)scale(.51724)"><rect width="104" height="84" x="-113" y="101" rx="8" ry="8" style="fill:url(#org_rncbc_qtractor_application_x_qtractor_archive_k);stroke-width:.2"/><rect width="104" height="84" x="-113" y="81" rx="8" ry="8" style="fill:#766b43;fill-opacity:1;stroke-width:.2"/><path fill="url(#org_rncbc_qtractor_application_x_qtractor_archive_f)" d="M-33.84 123.713c0 20.754-16.824 37.582-37.582 37.582-20.753 0-37.578-16.828-37.578-37.582s16.825-37.578 37.578-37.578c20.758 0 37.582 16.824 37.582 37.578m0 0" style="fill:url(#org_rncbc_qtractor_application_x_qtractor_archive_l)"/><path d="M-45.664 149.65c-15.113 14.223-38.894 13.504-53.12-1.609-14.227-15.113-13.505-38.894 1.609-53.121 15.109-14.223 38.894-13.504 53.12 1.61 14.223 15.113 13.504 38.894-1.609 53.12m0 0"/><path fill="url(#org_rncbc_qtractor_application_x_qtractor_archive_m)" d="M-45.664 149.65c-15.113 14.223-38.894 13.504-53.12-1.609-14.227-15.113-13.505-38.894 1.609-53.121 15.109-14.223 38.894-13.504 53.12 1.61 14.223 15.113 13.504 38.894-1.609 53.12m0 0" style="fill:url(#org_rncbc_qtractor_application_x_qtractor_archive_m)"/><path fill="#1a5fb4" d="M-59.867 123.236c0 6.383-5.172 11.555-11.555 11.555-6.378 0-11.554-5.172-11.554-11.555 0-6.378 5.176-11.554 11.554-11.554 6.383 0 11.555 5.176 11.555 11.554m0 0" style="fill:#a51d2d"/><path fill="#c0bfbc" d="M-70.18 123.236a1.243 1.243 0 1 1-2.483-.001 1.243 1.243 0 0 1 2.484.001m0 0" style="fill:#2d2711;fill-opacity:1"/><path d="M-72.965 84.736a37.6 37.6 0 0 0-24.21 10.184c-15.114 14.227-15.836 38.008-1.61 53.121s38.008 15.832 53.121 1.61c15.113-14.227 15.832-38.008 1.61-53.122a37.6 37.6 0 0 0-28.91-11.793m.075 1.832a35.74 35.74 0 0 1 27.5 11.215c13.53 14.375 12.847 37-1.528 50.532-14.379 13.53-37 12.847-50.53-1.528-13.536-14.375-12.849-37 1.526-50.531a35.73 35.73 0 0 1 23.032-9.688m0 0"/><path d="M-71.422 110.549c-7.003.004-12.683 5.684-12.683 12.687 0 7.008 5.68 12.688 12.683 12.688 7.008 0 12.688-5.68 12.688-12.688 0-7.003-5.68-12.683-12.688-12.687m0 1.137c6.383 0 11.555 5.172 11.555 11.55 0 6.383-5.172 11.555-11.555 11.555-6.378 0-11.55-5.172-11.55-11.555 0-6.378 5.172-11.55 11.55-11.55m0 0"/><path fill="url(#org_rncbc_qtractor_application_x_qtractor_archive_n)" d="M-59.875 116.494c-7.689 0-13.922 6.234-13.922 13.922v5.221c1.507 1.319 4.785 1.305 6.09 0 .005-2 .869-3.902 2.375-5.22a6.96 6.96 0 0 1 4.151-1.719v-.022h1.306c2.175-1.74 2.175-10.006 0-12.182" style="fill:url(#org_rncbc_qtractor_application_x_qtractor_archive_n);stroke-width:.43506"/><path fill="none" stroke="url(#ab)" stroke-linecap="round" stroke-width="4.351" d="M-93.84 137.328c-1.687.452-2.344 2.626-2.115 4.357a3.48 3.48 0 0 0 3.45 3.027" style="stroke:url(#org_rncbc_qtractor_application_x_qtractor_archive_o)"/><path fill="url(#ac)" d="M-92.505 142.537h12.617c1.116 1.74.782 3.183 0 4.35h-12.617c-.406-1.232-.833-2.9 0-4.35m0 0" style="fill:url(#org_rncbc_qtractor_application_x_qtractor_archive_p);stroke-width:.43506"/><path fill="url(#org_rncbc_qtractor_application_x_qtractor_archive_q)" d="M-79.888 142.537a6.96 6.96 0 0 0 6.09-6.9h6.091c0 6.728-5.453 11.25-12.181 11.25z" style="fill:url(#org_rncbc_qtractor_application_x_qtractor_archive_q);stroke-width:.43506"/><path fill="url(#org_rncbc_qtractor_application_x_qtractor_archive_r)" d="M-58.244 122.748c0-2.556-.544-5.166-1.631-6.254-7.682 0-13.909 6.222-13.92 13.902l6.979 1.854a6.98 6.98 0 0 1 5.635-3.552v-.022h1.306c1.087-.87 1.631-3.372 1.631-5.928m0 0" style="fill:url(#org_rncbc_qtractor_application_x_qtractor_archive_r);stroke-width:.43506"/><path fill="url(#org_rncbc_qtractor_application_x_qtractor_archive_s)" d="M-59.874 116.494c-7.69 0-13.922 6.234-13.922 13.922v5.221c1.506 1.319 4.786 1.305 6.091 0 .003-2 .869-3.902 2.373-5.22a6.97 6.97 0 0 1 4.153-1.719v-.022h1.305c2.176-1.74 2.176-10.006 0-12.182" style="fill:url(#org_rncbc_qtractor_application_x_qtractor_archive_s);stroke-width:.43506"/><path fill="url(#linearGradient2293)" d="M-46.385 70.48c20.095-7.19 37.741 13.233 45.093 30.879 7.352 18.135 6.372 45.257-11.763 54.406-19.116 9.15-40.193-8.823-48.035-29.899-7.843-20.586-4.902-48.688 14.705-55.387" style="fill:url(#org_rncbc_qtractor_application_x_qtractor_archive_t);fill-rule:evenodd;stroke:none"/><path fill="url(#linearGradient2287)" d="M-44.99 75.87c18.122-6.483 34.034 11.933 40.664 27.845 6.63 16.354 5.746 40.812-10.608 49.062-17.238 8.251-36.244-7.956-43.317-26.961-7.072-18.564-4.42-43.906 13.26-49.947" style="fill:url(#org_rncbc_qtractor_application_x_qtractor_archive_u);fill-rule:evenodd;stroke:none"/><path fill="url(#radialGradient3175)" d="M-50.975 86.245c-8.025 5.93-10.65 24.09-3.413 43.743 7.2 19.37 34.19 19.575 41.45 13.455 7.296-5.838 18.198-21.02 2.75-45.094-15.376-23.51-32.519-18.063-40.787-12.104" style="fill:url(#org_rncbc_qtractor_application_x_qtractor_archive_v);fill-rule:evenodd;stroke:none;stroke-width:.86104pt"/><path fill="url(#linearGradient2460)" d="M-89.877 135.677c0 1.308-2.45 4.266-4.93 4.266s-4.053-2.958-4.053-4.266 1.574-.474 4.053-.474 4.93-.834 4.93.474" style="fill:url(#org_rncbc_qtractor_application_x_qtractor_archive_w);fill-rule:evenodd;stroke:none;stroke-width:.86104pt"/><path fill="url(#radialGradient2286)" d="M-51.526 102.07c-4.649 3.436-6.169 13.956-1.977 25.34 4.171 11.22 19.805 11.339 24.01 7.793 4.227-3.382 10.542-12.177 1.594-26.121-8.907-13.618-18.837-10.463-23.627-7.011z" style="fill:url(#org_rncbc_qtractor_application_x_qtractor_archive_x);fill-rule:evenodd;stroke:none;stroke-width:.86104pt"/><path fill="url(#linearGradient2305)" d="M-29.892 124.311c11.462-14.924 9.935-34.525 19.755-20.083 9.127 14.441 7.66 37.806-2.045 45.546-11.784 10.513-28.998-5.66-36.738-13.863s7.566 2.835 19.028-11.6" style="fill:url(#org_rncbc_qtractor_application_x_qtractor_archive_y);fill-rule:evenodd;stroke:none;stroke-width:.86104pt"/></g><path d="M37.103 43.919h60v60h-60z" style="opacity:.6;fill:#d7e3f4;fill-opacity:1;stroke-width:.2"/><path fill="#fff" d="M60 60v4h4v-2h4v-2zm4 4v2h-4v4h4v-2h4v-4zm0 6v2h-4v4h4v-2h4v-4zm0 6v2h-4v4h4v-2h4v-4zm0 6v2h-4v4h4v-2h4v-4zm0 6v2h-4v4h4v-2h4v-4zm0 6v2h-4v4h4v-2h4v-4zm0 6v2h-4v4h4v-2h4v-4zm0 6v2h-4v4h4v-2h4v-4zm0 6v2h-4v4h4v-2h4v-4zm0 0"/><g clip-path="url(#c-4)" mask="url(#b-5)" transform="translate(-8 -16)"><path d="M68 67c-2.215 0-4 1.785-4 4v10c0 2.215 1.785 4 4 4v8c0 1.11.89 2 2 2h4c1.11 0 2-.89 2-2v-8c2.215 0 4-1.785 4-4V71c0-2.215-1.785-4-4-4zm2 22h4v4h-4zm0 0"/></g><path fill="#c0bfbc" d="M60 62v4h4v-2h4v-2zm4 4v2h-4v4h4v-2h4v-4zm0 6v2h-4v4h4v-2h4v-4zm0 6v2h-4v4h4v-2h4v-4zm0 6v2h-4v4h4v-2h4v-4zm0 6v2h-4v4h4v-2h4v-4zm0 6v2h-4v4h4v-2h4v-4zm0 6v2h-4v4h4v-2h4v-4zm0 6v2h-4v4h4v-2h4v-4zm0 6v2h-4v4h4v-2h4v-4zm0 0" style="fill:#435876;fill-opacity:1"/><path fill="#77767b" d="M62 57c-1.11 0-2 .89-2 2v16c0 1.11.89 2 2 2h4c1.11 0 2-.89 2-2V59c0-1.11-.89-2-2-2zm0 14h4v4h-4zm0 0" style="fill:#314054;fill-opacity:1"/><path fill="#77767b" d="M58.504 49h10.992A2.504 2.504 0 0 1 72 51.504v12.992A2.504 2.504 0 0 1 69.496 67H58.504A2.504 2.504 0 0 1 56 64.496V51.504A2.504 2.504 0 0 1 58.504 49m0 0" style="fill:#303f55;fill-opacity:1"/><path fill="#9a9996" d="M58.945 47h10.11A2.94 2.94 0 0 1 72 49.945v12.11A2.94 2.94 0 0 1 69.055 65h-10.11A2.94 2.94 0 0 1 56 62.055v-12.11A2.94 2.94 0 0 1 58.945 47m0 0" style="fill:#435876;fill-opacity:1"/><path fill="#fff" d="M62 53c-1.11 0-2 .89-2 2v18c0 1.11.89 2 2 2h4c1.11 0 2-.89 2-2V55c0-1.11-.89-2-2-2zm0 16h4v4h-4zm0 0"/><path fill="#77767b" d="M64 59a2 2 0 0 0 2-2v-6a1.999 1.999 0 1 0-4 0v6a2 2 0 0 0 2 2m0 0" style="fill:#303f55;fill-opacity:1"/><path fill="#9a9996" d="M64 57a2 2 0 0 0 2-2v-4a1.999 1.999 0 1 0-4 0v4a2 2 0 0 0 2 2m0 0" style="fill:#435876;fill-opacity:1"/></svg>