<svg xmlns="http://www.w3.org/2000/svg" xmlns:xlink="http://www.w3.org/1999/xlink" width="128" height="128" viewBox="0 0 128 128"><defs><linearGradient id="org_rncbc_qtractor_application_x_qtractor_template_h"><stop offset="0" stop-color="#1d1100" stop-opacity=".667" style="stop-color:#0f0f0f;stop-opacity:.66667002"/><stop offset=".527" stop-color="#4f340c" stop-opacity=".302" style="stop-color:#2e2e2e;stop-opacity:.30196002"/><stop offset="1" stop-color="#3d3001" stop-opacity="0" style="stop-color:#1f1f1f;stop-opacity:0"/></linearGradient><linearGradient xlink:href="#org_rncbc_qtractor_application_x_qtractor_template_a" id="org_rncbc_qtractor_application_x_qtractor_template_z" x1="182.67" x2="226.58" y1="74.241" y2="192.07" gradientTransform="matrix(.23342 0 0 .26575 34.544 38.133)" gradientUnits="userSpaceOnUse"/><linearGradient id="org_rncbc_qtractor_application_x_qtractor_template_a"><stop offset="0" stop-color="#fff" stop-opacity="0"/><stop offset=".613" stop-color="#fff" stop-opacity=".021"/><stop offset="1" stop-color="#fff" stop-opacity=".531"/></linearGradient><linearGradient id="org_rncbc_qtractor_application_x_qtractor_template_i"><stop offset="0" stop-color="#1d1100" stop-opacity=".667" style="stop-color:#0f0f0f;stop-opacity:.66667002"/><stop offset=".527" stop-color="#4f340c" stop-opacity=".302" style="stop-color:#2e2e2e;stop-opacity:.30196002"/><stop offset="1" stop-color="#3d3001" stop-opacity="0" style="stop-color:#1f1f1f;stop-opacity:0"/></linearGradient><linearGradient xlink:href="#org_rncbc_qtractor_application_x_qtractor_template_b" id="org_rncbc_qtractor_application_x_qtractor_template_x" x1="24.214" x2="23.556" y1="116.1" y2="104.7" gradientTransform="matrix(.59683 0 0 .33233 32.402 42.337)" gradientUnits="userSpaceOnUse"/><linearGradient id="org_rncbc_qtractor_application_x_qtractor_template_b"><stop offset="0" stop-color="#6f6234" style="stop-color:#525252;stop-opacity:1"/><stop offset=".5" stop-color="#7f7655" style="stop-color:#6a6a6a;stop-opacity:1"/><stop offset="1" stop-color="#2d2711" style="stop-color:#1f1f1f;stop-opacity:1"/></linearGradient><linearGradient xlink:href="#org_rncbc_qtractor_application_x_qtractor_template_c" id="org_rncbc_qtractor_application_x_qtractor_template_v" x1="106.91" x2="291.1" y1="137.89" y2="-13.32" gradientTransform="matrix(.21764 0 0 .28502 34.544 38.133)" gradientUnits="userSpaceOnUse"/><linearGradient id="org_rncbc_qtractor_application_x_qtractor_template_c"><stop offset="0" stop-color="#ede1b9" style="stop-color:#d3d3d3;stop-opacity:1"/><stop offset=".5" stop-color="#7a7152" style="stop-color:#666;stop-opacity:1"/><stop offset="1" stop-color="#927f39" style="stop-color:#666;stop-opacity:1"/></linearGradient><linearGradient xlink:href="#org_rncbc_qtractor_application_x_qtractor_template_d" id="org_rncbc_qtractor_application_x_qtractor_template_u" x1="167.384" x2="423.516" y1="44.536" y2="288.533" gradientTransform="matrix(.21786 0 0 .28473 34.544 38.133)" gradientUnits="userSpaceOnUse"/><linearGradient id="org_rncbc_qtractor_application_x_qtractor_template_d"><stop offset="0" stop-color="#ede1b9" style="stop-color:#d3d3d3;stop-opacity:1"/><stop offset=".5" stop-color="#7a7152" style="stop-color:#666;stop-opacity:1"/><stop offset="1" stop-color="#927f39" style="stop-color:#666;stop-opacity:1"/></linearGradient><linearGradient id="org_rncbc_qtractor_application_x_qtractor_template_j" x1="20" x2="20" y1="240.036" y2="222.194" gradientTransform="matrix(1 0 0 -1 201 314.91)" gradientUnits="userSpaceOnUse"><stop offset="0" stop-color="#f51111"/><stop offset=".044" stop-color="#f5c211"/><stop offset=".103" stop-color="#e5a50a"/><stop offset=".338" stop-color="#f9f06b"/><stop offset=".839" stop-color="#f5c211"/><stop offset="1" stop-color="#d1960a"/></linearGradient><linearGradient xlink:href="#org_rncbc_qtractor_application_x_qtractor_template_e" id="org_rncbc_qtractor_application_x_qtractor_template_q" x1="88.6" x2="113.8" y1="262.492" y2="262.492" gradientTransform="matrix(0 .18753 .17738 0 4.068 63.765)" gradientUnits="userSpaceOnUse"/><linearGradient id="org_rncbc_qtractor_application_x_qtractor_template_e" x1="88.6" x2="113.8" y1="262.492" y2="262.492" gradientTransform="matrix(0 .83333 -.78825 0 491.91 19.076)" gradientUnits="userSpaceOnUse"><stop offset=".044" stop-color="#f5c211" style="stop-color:#838383;stop-opacity:1"/><stop offset=".2" stop-color="#e5a50a" style="stop-color:#787878;stop-opacity:1"/><stop offset=".567" stop-color="#f9f06b" style="stop-color:#b3b3b3;stop-opacity:1"/><stop offset=".843" stop-color="#f5c211" style="stop-color:#828282;stop-opacity:1"/><stop offset="1" stop-color="#d1960a" style="stop-color:#6e6e6e;stop-opacity:1"/></linearGradient><linearGradient id="org_rncbc_qtractor_application_x_qtractor_template_k" gradientUnits="userSpaceOnUse"><stop offset="0" stop-color="#f5c211" style="stop-color:#828282;stop-opacity:1"/><stop offset="0" stop-color="#e5a50a" style="stop-color:#787878;stop-opacity:1"/><stop offset=".327" stop-color="#f9f06b" style="stop-color:#b2b2b2;stop-opacity:1"/><stop offset=".596" stop-color="#f5c211" style="stop-color:#828282;stop-opacity:1"/><stop offset="1" stop-color="#d1960a" style="stop-color:#6e6e6e;stop-opacity:1"/></linearGradient><linearGradient id="org_rncbc_qtractor_application_x_qtractor_template_n" x1="169.708" x2="248.62" y1="128.791" y2="128.791" gradientTransform="rotate(46.733 71.53 16.042)scale(.49264)" gradientUnits="userSpaceOnUse"><stop offset="0" stop-opacity="0" style="stop-color:#f3f3f3;stop-opacity:0"/><stop offset=".5" stop-color="#fff" stop-opacity=".361"/><stop offset="1" stop-opacity="0" style="stop-color:#fff;stop-opacity:0"/></linearGradient><linearGradient xlink:href="#org_rncbc_qtractor_application_x_qtractor_template_f" id="org_rncbc_qtractor_application_x_qtractor_template_m" x1="12" x2="87.159" y1="66.044" y2="66.044" gradientTransform="translate(32.965 38.06)scale(.51724)" gradientUnits="userSpaceOnUse"/><linearGradient id="org_rncbc_qtractor_application_x_qtractor_template_f" x1="12" x2="87.159" y1="66.044" y2="66.044" gradientUnits="userSpaceOnUse"><stop offset="0" stop-color="#00000f" style="stop-color:#00000f;stop-opacity:.60170668"/><stop offset=".1" stop-color="#707070"/><stop offset=".2" stop-color="#121212" style="stop-color:#121212;stop-opacity:.60487938"/><stop offset=".8" stop-color="#121212" style="stop-color:#121212;stop-opacity:.59872842"/><stop offset=".9" stop-color="#707070"/><stop offset="1" style="stop-color:#000;stop-opacity:.59977555"/></linearGradient><linearGradient xlink:href="#org_rncbc_qtractor_application_x_qtractor_template_g" id="org_rncbc_qtractor_application_x_qtractor_template_l" x1="9.105" x2="113.105" y1="170" y2="170" gradientTransform="translate(32.393 -5.736)scale(.51724)" gradientUnits="userSpaceOnUse"/><linearGradient id="org_rncbc_qtractor_application_x_qtractor_template_g" x1="8" x2="120" y1="124" y2="124" gradientUnits="userSpaceOnUse"><stop offset="0" stop-color="#e5a50a" style="stop-color:#333;stop-opacity:1"/><stop offset=".036" stop-color="#f6d32d" style="stop-color:gray;stop-opacity:1"/><stop offset=".071" stop-color="#e5a50a" style="stop-color:#333;stop-opacity:1"/><stop offset=".929" stop-color="#e5a50a" style="stop-color:#4c4c4c;stop-opacity:1"/><stop offset=".964" stop-color="#f6d32d" style="stop-color:gray;stop-opacity:1"/><stop offset="1" stop-color="#e5a50a" style="stop-color:#333;stop-opacity:1"/></linearGradient><radialGradient xlink:href="#org_rncbc_qtractor_application_x_qtractor_template_h" id="org_rncbc_qtractor_application_x_qtractor_template_y" cx="104.16" cy="56.434" r="20.573" fx="86.443" fy="60.641" gradientTransform="matrix(.41158 0 0 .48193 32.402 42.337)" gradientUnits="userSpaceOnUse"/><radialGradient xlink:href="#org_rncbc_qtractor_application_x_qtractor_template_i" id="org_rncbc_qtractor_application_x_qtractor_template_w" cx="198.31" cy="109.06" r="63.508" fx="143.62" fy="122.04" gradientTransform="matrix(.23017 0 0 .2695 34.544 38.133)" gradientUnits="userSpaceOnUse"/><radialGradient id="org_rncbc_qtractor_application_x_qtractor_template_t" cx="68.302" cy="281.158" r="29.631" gradientTransform="rotate(208.774 39.78 69.414)scale(.22875 .2604)" gradientUnits="userSpaceOnUse"><stop offset="0" stop-color="#f5c211" style="stop-color:#838383;stop-opacity:1"/><stop offset=".184" stop-color="#c98c04" style="stop-color:#676767;stop-opacity:1"/><stop offset=".541" stop-color="#f9f06b" stop-opacity="0" style="stop-color:#b2b2b2;stop-opacity:0"/><stop offset="1" stop-color="#d1960a" stop-opacity="0" style="stop-color:#6e6e6e;stop-opacity:0"/></radialGradient><radialGradient id="org_rncbc_qtractor_application_x_qtractor_template_s" cx="79.357" cy="260.5" r="23.5" gradientTransform="matrix(0 -.34473 .3954 0 -38.42 103.943)" gradientUnits="userSpaceOnUse"><stop offset=".044" stop-color="#f5c211" style="stop-color:#838383;stop-opacity:1"/><stop offset=".216" stop-color="#e5a50a" style="stop-color:#787878;stop-opacity:1"/><stop offset=".556" stop-color="#f9f06b" style="stop-color:#b3b3b3;stop-opacity:1"/><stop offset=".778" stop-color="#f5c211" style="stop-color:#828282;stop-opacity:1"/><stop offset="1" stop-color="#d1960a" style="stop-color:#6e6e6e;stop-opacity:1"/></radialGradient><radialGradient xlink:href="#org_rncbc_qtractor_application_x_qtractor_template_j" id="org_rncbc_qtractor_application_x_qtractor_template_r" cx="272" cy="81.173" r="14" gradientTransform="rotate(90 81.588 15.698)scale(.53043)" gradientUnits="userSpaceOnUse"><stop offset=".044" stop-color="#f5c211" style="stop-color:#838383;stop-opacity:1"/><stop offset=".327" stop-color="#e5a50a" style="stop-color:#787878;stop-opacity:1"/><stop offset=".636" stop-color="#f9f06b" style="stop-color:#b3b3b3;stop-opacity:1"/><stop offset=".839" stop-color="#f5c211" style="stop-color:#828282;stop-opacity:1"/><stop offset="1" stop-color="#d1960a" style="stop-color:#6e6e6e;stop-opacity:1"/></radialGradient><radialGradient xlink:href="#org_rncbc_qtractor_application_x_qtractor_template_k" id="org_rncbc_qtractor_application_x_qtractor_template_p" cx="99" cy="267.222" r="13" gradientTransform="matrix(0 .40787 .40777 0 -61.262 40.902)"/><radialGradient id="org_rncbc_qtractor_application_x_qtractor_template_o" cx="68.302" cy="281.158" r="29.631" gradientTransform="rotate(204.951 39.668 70.238)scale(.2278 .2604)" gradientUnits="userSpaceOnUse"><stop offset="0" stop-color="#f5c211" style="stop-color:#838383;stop-opacity:1"/><stop offset=".138" stop-color="#e5a50a" style="stop-color:#787878;stop-opacity:1"/><stop offset=".541" stop-color="#f9f06b" style="stop-color:#b3b3b3;stop-opacity:1"/><stop offset=".817" stop-color="#f5c211" style="stop-color:#828282;stop-opacity:1"/><stop offset="1" stop-color="#d1960a" style="stop-color:#6e6e6e;stop-opacity:1"/></radialGradient></defs><path d="M27.978 8h50l30.043 29.918.001 74.06c0 4.432-3.612 8.022-8.044 8.022h-72c-4.432 0-8-3.568-8-8V16c0-4.432 3.568-8 8-8" style="display:inline;fill:#f6f5f4;fill-opacity:1;stroke:none;stroke-width:.125;stroke-linejoin:round;stroke-miterlimit:4;stroke-dasharray:none;stroke-opacity:1"/><path d="M77.978 8v22c0 4.432 3.61 7.923 8.043 7.923l22-.005z" style="display:inline;vector-effect:none;fill:#deddda;fill-opacity:1;stroke:none;stroke-width:.125;stroke-linecap:butt;stroke-linejoin:round;stroke-miterlimit:4;stroke-dasharray:none;stroke-dashoffset:0;stroke-opacity:1"/><rect width="53.793" height="43.448" x="37.103" y="60.471" rx="4.138" ry="4.138" style="fill:url(#org_rncbc_qtractor_application_x_qtractor_template_l);stroke-width:.103448"/><rect width="53.793" height="43.448" x="37.103" y="50.126" rx="4.138" ry="4.138" style="fill:#5d5d5d;fill-opacity:1;stroke-width:.103448"/><path fill="url(#org_rncbc_qtractor_application_x_qtractor_template_f)" d="M78.048 72.22c0 10.734-8.702 19.438-19.439 19.438-10.735 0-19.437-8.704-19.437-19.439s8.702-19.437 19.437-19.437c10.737 0 19.44 8.702 19.44 19.437m0 0" style="fill:url(#org_rncbc_qtractor_application_x_qtractor_template_m);stroke-width:.517241"/><path d="M71.932 85.635c-7.817 7.357-20.118 6.985-27.476-.832s-6.985-20.118.832-27.477c7.815-7.356 20.118-6.984 27.477.833 7.356 7.817 6.984 20.118-.833 27.476m0 0" style="stroke-width:.517241;stroke:none"/><path fill="url(#org_rncbc_qtractor_application_x_qtractor_template_n)" d="M71.932 85.635c-7.817 7.357-20.118 6.985-27.476-.832s-6.985-20.118.832-27.477c7.815-7.356 20.118-6.984 27.477.833 7.356 7.817 6.984 20.118-.833 27.476m0 0" style="fill:url(#org_rncbc_qtractor_application_x_qtractor_template_n);stroke-width:.517241"/><path fill="#1a5fb4" d="M64.586 71.973a5.977 5.977 0 1 1-11.952 0 5.977 5.977 0 0 1 11.952 0m0 0" style="fill:#616161;stroke-width:.517241;fill-opacity:1"/><path fill="#c0bfbc" d="M59.252 71.973a.642.642 0 1 1-1.283.002.642.642 0 0 1 1.283-.002m0 0" style="fill:#2d2711;fill-opacity:1;stroke-width:.517241"/><path d="M57.811 52.059a19.44 19.44 0 0 0-12.523 5.267c-7.817 7.359-8.19 19.66-.832 27.477s19.659 8.189 27.476.832 8.19-19.659.833-27.476a19.45 19.45 0 0 0-14.954-6.1m.038.948a18.5 18.5 0 0 1 14.225 5.8c6.998 7.436 6.645 19.138-.79 26.137-7.438 7-19.138 6.646-26.137-.79-7.001-7.435-6.646-19.138.79-26.137a18.48 18.48 0 0 1 11.912-5.01m0 0" style="stroke-width:.517241;stroke:none"/><path d="M58.61 65.41a6.562 6.562 0 1 0 .002 13.127 6.562 6.562 0 0 0-.003-13.127m0 .588a5.975 5.975 0 1 1 .002 11.95 5.975 5.975 0 0 1-.003-11.95m0 0" style="stroke-width:.517241"/><path fill="url(#org_rncbc_qtractor_application_x_qtractor_template_o)" d="M64.581 68.485a7.2 7.2 0 0 0-7.2 7.201v2.7c.779.683 2.475.676 3.15 0a3.6 3.6 0 0 1 1.228-2.7 3.6 3.6 0 0 1 2.147-.888v-.012h.675c1.125-.9 1.125-5.175 0-6.3" style="fill:url(#org_rncbc_qtractor_application_x_qtractor_template_o);stroke-width:.225031"/><path fill="none" stroke="url(#ab)" stroke-linecap="round" stroke-width="2.25" d="M47.014 79.262c-.873.233-1.213 1.358-1.095 2.253a1.8 1.8 0 0 0 1.785 1.566" style="stroke:url(#org_rncbc_qtractor_application_x_qtractor_template_p)"/><path fill="url(#ac)" d="M47.704 81.956h6.526c.577.9.404 1.646 0 2.25h-6.526c-.21-.637-.43-1.5 0-2.25m0 0" style="fill:url(#org_rncbc_qtractor_application_x_qtractor_template_q);stroke-width:.225031"/><path fill="url(#org_rncbc_qtractor_application_x_qtractor_template_r)" d="M54.23 81.956a3.6 3.6 0 0 0 3.15-3.57h3.15c0 3.48-2.82 5.82-6.3 5.82z" style="fill:url(#org_rncbc_qtractor_application_x_qtractor_template_r);stroke-width:.225031"/><path fill="url(#org_rncbc_qtractor_application_x_qtractor_template_s)" d="M65.425 71.72c0-1.322-.281-2.672-.844-3.235a7.2 7.2 0 0 0-7.2 7.19l3.61.96a3.61 3.61 0 0 1 2.915-1.837v-.012h.675c.563-.45.844-1.744.844-3.066m0 0" style="fill:url(#org_rncbc_qtractor_application_x_qtractor_template_s);stroke-width:.225031"/><path fill="url(#org_rncbc_qtractor_application_x_qtractor_template_t)" d="M64.582 68.485a7.2 7.2 0 0 0-7.2 7.201v2.7c.778.683 2.474.676 3.15 0a3.605 3.605 0 0 1 3.375-3.59v-.01h.675c1.125-.9 1.125-5.175 0-6.3" style="fill:url(#org_rncbc_qtractor_application_x_qtractor_template_t);stroke-width:.225031"/><path fill="url(#linearGradient2293)" d="M71.559 44.685c10.394-3.719 19.521 6.845 23.324 15.972 3.803 9.38 3.296 23.409-6.085 28.141-9.887 4.732-20.789-4.564-24.845-15.465-4.057-10.648-2.535-25.184 7.606-28.648" style="fill:url(#org_rncbc_qtractor_application_x_qtractor_template_u);fill-rule:evenodd;stroke:none"/><path fill="url(#linearGradient2287)" d="M72.28 47.473c9.374-3.354 17.604 6.172 21.034 14.403 3.429 8.458 2.972 21.11-5.487 25.377-8.917 4.267-18.747-4.116-22.405-13.946-3.658-9.602-2.287-22.71 6.858-25.835" style="fill:url(#org_rncbc_qtractor_application_x_qtractor_template_v);fill-rule:evenodd;stroke:none"/><path fill="url(#radialGradient3175)" d="M69.185 52.84c-4.151 3.066-5.508 12.46-1.765 22.625 3.724 10.019 17.684 10.125 21.44 6.96 3.773-3.02 9.412-10.873 1.422-23.325-7.954-12.16-16.82-9.343-21.097-6.26" style="fill:url(#org_rncbc_qtractor_application_x_qtractor_template_w);fill-rule:evenodd;stroke:none;stroke-width:.445366pt"/><path fill="url(#linearGradient2460)" d="M49.063 78.408c0 .676-1.267 2.206-2.55 2.206s-2.096-1.53-2.096-2.206c0-.677.814-.246 2.096-.246s2.55-.431 2.55.246" style="fill:url(#org_rncbc_qtractor_application_x_qtractor_template_x);fill-rule:evenodd;stroke:none;stroke-width:.445366pt"/><path fill="url(#radialGradient2286)" d="M68.9 61.025c-2.405 1.777-3.19 7.218-1.023 13.106 2.158 5.804 10.244 5.865 12.42 4.031 2.186-1.749 5.452-6.298.824-13.51-4.607-7.044-9.744-5.413-12.221-3.627" style="fill:url(#org_rncbc_qtractor_application_x_qtractor_template_y);fill-rule:evenodd;stroke:none;stroke-width:.445366pt"/><path fill="url(#linearGradient2305)" d="M80.09 72.529c5.929-7.72 5.139-17.858 10.218-10.388 4.72 7.47 3.962 19.555-1.058 23.558-6.095 5.438-14.999-2.928-19.002-7.17-4.004-4.243 3.913 1.466 9.842-6" style="fill:url(#org_rncbc_qtractor_application_x_qtractor_template_z);fill-rule:evenodd;stroke:none;stroke-width:.445366pt"/><path d="M37.103 43.919h60v60h-60z" style="opacity:.3;fill:#f6f5f4;fill-opacity:1;stroke-width:.204323"/><path d="m108.022 110.771-.002-72.853L77.977 8h-14Z" style="display:inline;fill:#fff;fill-opacity:.45554;stroke:none;stroke-width:1px;stroke-linecap:butt;stroke-linejoin:miter;stroke-opacity:1"/><path d="M27.978 8c-4.432 0-8 3.568-8 8v94.666L63.978 8z" style="display:inline;fill:#000;fill-opacity:.0341939;stroke:none;stroke-width:1px;stroke-linecap:butt;stroke-linejoin:miter;stroke-opacity:1"/></svg>