<svg xmlns="http://www.w3.org/2000/svg" xmlns:xlink="http://www.w3.org/1999/xlink" xml:space="preserve" width="128" height="128" viewBox="0 0 128 128"><defs><linearGradient id="org_wireshark_Wireshark_mimetype_a"><stop offset="0" style="stop-color:#053090;stop-opacity:1"/><stop offset="1" style="stop-color:#157eea;stop-opacity:1"/></linearGradient><linearGradient xlink:href="#org_wireshark_Wireshark_mimetype_a" id="org_wireshark_Wireshark_mimetype_b" x1="12.427" x2="12.427" y1="20.803" y2="12.952" gradientTransform="matrix(5.83003 0 0 4.46295 -8.45 -49.806)" gradientUnits="userSpaceOnUse"/></defs><path d="M19.979 43.037V112c0 4.432 3.568 8 8 8h72c4.432 0 8.043-3.59 8.042-8.021V43.037z" style="display:inline;fill:#f6f5f4;fill-opacity:1;stroke:none;stroke-width:.125;stroke-linejoin:round;stroke-miterlimit:4;stroke-dasharray:none;stroke-opacity:1"/><path d="M27.979 8c-4.432 0-8 3.568-8 8v27.038h88.042v-5.12L77.979 8Z" style="opacity:1;fill:url(#org_wireshark_Wireshark_mimetype_b);stroke-width:5.10089"/><path d="M77.978 8v22c0 4.432 3.61 7.923 8.043 7.923l22-.005z" style="display:inline;vector-effect:none;fill:#fff;fill-opacity:.69999999;stroke:none;stroke-width:.125;stroke-linecap:butt;stroke-linejoin:round;stroke-miterlimit:4;stroke-dasharray:none;stroke-dashoffset:0;stroke-opacity:1"/><path d="M33.342 56.603q-1.036 0-1.78-.566-.745-.58-1.153-1.654T30 51.773q0-2.336.89-3.555Q31.795 47 33.342 47q1.562 0 2.452 1.218.89 1.219.89 3.554 0 1.538-.408 2.611-.394 1.074-1.153 1.654-.744.566-1.78.566m0-.957q.657 0 1.153-.407.497-.42.774-1.276.292-.87.292-2.19 0-1.335-.292-2.176-.277-.842-.774-1.233-.496-.407-1.153-.407-.642 0-1.153.407-.496.391-.788 1.233-.277.84-.277 2.175 0 1.32.277 2.19.292.857.788 1.277.511.407 1.153.407m0-3.003q-.365 0-.642-.261-.263-.261-.263-.711t.263-.696q.277-.261.642-.261.38 0 .643.26.262.247.262.697t-.262.71-.643.262m5.794 3.786v-.987h2.685v-6.817h-2.087v-.77q.555-.072.978-.173.423-.102.774-.218.35-.13.642-.29h.89v8.268h2.438v.987zm11.72.174q-1.036 0-1.78-.566-.745-.58-1.154-1.654t-.409-2.61q0-2.336.89-3.555Q49.31 47 50.858 47q1.562 0 2.452 1.218.89 1.219.89 3.554 0 1.538-.408 2.611-.395 1.074-1.154 1.654-.744.566-1.78.566m0-.957q.657 0 1.153-.407.496-.42.773-1.276.292-.87.292-2.19 0-1.335-.292-2.176-.277-.842-.773-1.233-.496-.407-1.153-.407-.642 0-1.153.407-.496.391-.788 1.233-.278.84-.278 2.175 0 1.32.278 2.19.292.857.788 1.277.51.407 1.153.407m0-3.003q-.365 0-.642-.261-.263-.261-.263-.711t.263-.696q.277-.261.642-.261.38 0 .642.26.263.247.263.697t-.263.71-.642.262m8.756 3.96q-1.036 0-1.78-.566-.745-.58-1.154-1.654t-.408-2.61q0-2.336.89-3.555Q58.067 47 59.614 47q1.562 0 2.452 1.218.89 1.219.89 3.554 0 1.538-.408 2.611-.394 1.074-1.153 1.654-.745.566-1.78.566m0-.957q.657 0 1.153-.407.496-.42.774-1.276.292-.87.292-2.19 0-1.335-.292-2.176-.278-.842-.774-1.233-.496-.407-1.153-.407-.642 0-1.153.407-.496.391-.788 1.233-.277.84-.277 2.175 0 1.32.277 2.19.292.857.788 1.277.51.407 1.153.407m0-3.003q-.365 0-.642-.261-.263-.261-.263-.711t.263-.696q.277-.261.642-.261.38 0 .642.26.263.247.263.697t-.263.71-.642.262m5.793 3.786v-.987h2.686v-6.817h-2.087v-.77q.554-.072.978-.173.423-.102.773-.218.35-.13.643-.29h.89v8.268h2.437v.987zm8.758 0v-.987h2.685v-6.817h-2.087v-.77q.555-.072.978-.173.423-.102.774-.218.35-.13.642-.29h.89v8.268h2.438v.987zm8.757 0v-.987h2.685v-6.817h-2.087v-.77q.555-.072.978-.173.424-.102.774-.218.35-.13.642-.29h.89v8.268h2.438v.987zm8.757 0v-.987h2.686v-6.817h-2.087v-.77q.554-.072.977-.173.424-.102.774-.218.35-.13.642-.29h.89v8.268H98v.987zM33.342 74.735q-1.036 0-1.78-.565-.745-.58-1.153-1.654T30 69.905q0-2.336.89-3.554.905-1.219 2.452-1.219 1.562 0 2.452 1.219.89 1.218.89 3.554 0 1.537-.408 2.61-.394 1.074-1.153 1.655-.744.565-1.78.565m0-.957q.657 0 1.153-.406.497-.421.774-1.277.292-.87.292-2.19 0-1.335-.292-2.176-.277-.841-.774-1.233-.496-.406-1.153-.406-.642 0-1.153.406-.496.392-.788 1.233-.277.841-.277 2.176 0 1.32.277 2.19.292.856.788 1.277.511.406 1.153.406m0-3.003q-.365 0-.642-.26-.263-.262-.263-.712t.263-.696q.277-.261.642-.261.38 0 .643.261.262.247.262.696 0 .45-.262.711-.263.261-.643.261m5.794 3.786v-.986h2.685v-6.818h-2.087v-.769q.555-.072.978-.174t.774-.217q.35-.131.642-.29h.89v8.268h2.438v.986zm8.757 0v-.986h2.686v-6.818h-2.088v-.769q.555-.072.978-.174.424-.101.774-.217.35-.131.642-.29h.89v8.268h2.438v.986zm11.72.174q-1.036 0-1.78-.565-.745-.58-1.154-1.654t-.408-2.611q0-2.336.89-3.554.905-1.219 2.452-1.219 1.562 0 2.452 1.219.89 1.218.89 3.554 0 1.537-.408 2.61-.394 1.074-1.153 1.655-.745.565-1.78.565m0-.957q.657 0 1.153-.406.496-.421.774-1.277.292-.87.292-2.19 0-1.335-.292-2.176-.278-.841-.774-1.233-.496-.406-1.153-.406-.642 0-1.153.406-.496.392-.788 1.233-.277.841-.277 2.176 0 1.32.277 2.19.292.856.788 1.277.51.406 1.153.406m0-3.003q-.365 0-.642-.26-.263-.262-.263-.712t.263-.696q.277-.261.642-.261.38 0 .642.261.263.247.263.696 0 .45-.263.711-.262.261-.642.261m8.756 3.96q-1.036 0-1.78-.565-.745-.58-1.153-1.654t-.409-2.611q0-2.336.89-3.554.905-1.219 2.452-1.219 1.562 0 2.452 1.219.89 1.218.89 3.554 0 1.537-.408 2.61-.394 1.074-1.153 1.655-.744.565-1.78.565m0-.957q.657 0 1.153-.406.497-.421.774-1.277.292-.87.292-2.19 0-1.335-.292-2.176-.277-.841-.774-1.233-.496-.406-1.153-.406-.642 0-1.153.406-.496.392-.788 1.233-.277.841-.277 2.176 0 1.32.277 2.19.292.856.788 1.277.511.406 1.153.406m0-3.003q-.365 0-.642-.26-.263-.262-.263-.712t.263-.696q.277-.261.642-.261.38 0 .643.261.262.247.262.696 0 .45-.262.711-.263.261-.643.261m8.757 3.96q-1.037 0-1.781-.565-.744-.58-1.153-1.654t-.409-2.611q0-2.336.89-3.554.905-1.219 2.453-1.219 1.561 0 2.452 1.219.89 1.218.89 3.554 0 1.537-.409 2.61-.394 1.074-1.153 1.655-.744.565-1.78.565m0-.957q.656 0 1.153-.406.496-.421.773-1.277.292-.87.292-2.19 0-1.335-.292-2.176-.277-.841-.773-1.233-.497-.406-1.153-.406-.643 0-1.153.406-.497.392-.789 1.233-.277.841-.277 2.176 0 1.32.277 2.19.292.856.789 1.277.51.406 1.153.406m0-3.003q-.365 0-.643-.26-.262-.262-.262-.712t.262-.696q.278-.261.643-.261.379 0 .642.261.262.247.262.696 0 .45-.262.711-.263.261-.642.261m5.794 3.786v-.986h2.685v-6.818h-2.087v-.769q.555-.072.978-.174.424-.101.774-.217.35-.131.642-.29h.89v8.268h2.438v.986zm8.757 0v-.986h2.686v-6.818h-2.087v-.769q.554-.072.977-.174.424-.101.774-.217.35-.131.642-.29h.89v8.268H98v.986zM33.342 92.868q-1.036 0-1.78-.566-.745-.58-1.153-1.654T30 88.038q0-2.336.89-3.555.905-1.218 2.452-1.218 1.562 0 2.452 1.218.89 1.219.89 3.554 0 1.538-.408 2.611-.394 1.074-1.153 1.654-.744.566-1.78.566m0-.958q.657 0 1.153-.406.497-.42.774-1.276.292-.87.292-2.19 0-1.335-.292-2.177-.277-.841-.774-1.233-.496-.406-1.153-.406-.642 0-1.153.406-.496.392-.788 1.233-.277.842-.277 2.176 0 1.32.277 2.19.292.856.788 1.277.511.406 1.153.406m0-3.002q-.365 0-.642-.262-.263-.26-.263-.71t.263-.697q.277-.26.642-.26.38 0 .643.26.262.247.262.697t-.262.71-.643.262m5.794 3.786v-.987h2.685V84.89h-2.087v-.768q.555-.073.978-.174.423-.102.774-.218.35-.13.642-.29h.89v8.268h2.438v.987zm8.757 0v-.987h2.686V84.89h-2.088v-.768q.555-.073.978-.174.424-.102.774-.218.35-.13.642-.29h.89v8.268h2.438v.987zm8.757 0v-.987h2.686V84.89H57.25v-.768q.554-.073.978-.174.423-.102.773-.218.35-.13.642-.29h.89v8.268h2.438v.987zm11.72.174q-1.036 0-1.78-.566-.745-.58-1.153-1.654t-.409-2.61q0-2.336.89-3.555.905-1.218 2.452-1.218 1.562 0 2.452 1.218.89 1.219.89 3.554 0 1.538-.408 2.611-.394 1.074-1.153 1.654-.744.566-1.78.566m0-.958q.657 0 1.153-.406.497-.42.774-1.276.292-.87.292-2.19 0-1.335-.292-2.177-.277-.841-.774-1.233-.496-.406-1.153-.406-.642 0-1.153.406-.496.392-.788 1.233-.277.842-.277 2.176 0 1.32.277 2.19.292.856.788 1.277.511.406 1.153.406m0-3.002q-.365 0-.642-.262-.263-.26-.263-.71t.263-.697q.277-.26.642-.26.38 0 .643.26.262.247.262.697t-.262.71-.643.262m5.794 3.786v-.987h2.685V84.89h-2.087v-.768q.555-.073.978-.174.423-.102.774-.218.35-.13.642-.29h.89v8.268h2.438v.987zm11.72.174q-1.036 0-1.78-.566-.745-.58-1.154-1.654t-.409-2.61q0-2.336.89-3.555.906-1.218 2.453-1.218 1.562 0 2.452 1.218.89 1.219.89 3.554 0 1.538-.409 2.611-.394 1.074-1.153 1.654-.744.566-1.78.566m0-.958q.657 0 1.153-.406.496-.42.773-1.276.292-.87.292-2.19 0-1.335-.292-2.177-.277-.841-.773-1.233-.496-.406-1.153-.406-.642 0-1.153.406-.496.392-.788 1.233-.278.842-.278 2.176 0 1.32.278 2.19.292.856.788 1.277.51.406 1.153.406m0-3.002q-.365 0-.642-.262-.263-.26-.263-.71t.263-.697q.277-.26.642-.26.38 0 .642.26.263.247.263.697t-.263.71-.642.262m8.757 3.96q-1.036 0-1.78-.566-.745-.58-1.154-1.654t-.408-2.61q0-2.336.89-3.555.905-1.218 2.452-1.218 1.562 0 2.452 1.218.89 1.219.89 3.554 0 1.538-.408 2.611-.394 1.074-1.153 1.654-.745.566-1.781.566m0-.958q.657 0 1.153-.406.496-.42.774-1.276.292-.87.292-2.19 0-1.335-.292-2.177-.278-.841-.774-1.233-.496-.406-1.153-.406-.642 0-1.153.406-.496.392-.788 1.233-.277.842-.277 2.176 0 1.32.277 2.19.292.856.788 1.277.51.406 1.153.406m0-3.002q-.365 0-.642-.262-.263-.26-.263-.71t.263-.697q.277-.26.642-.26.38 0 .642.26.263.247.263.697t-.263.71-.642.262M33.342 111q-1.036 0-1.78-.566-.745-.58-1.153-1.653Q30 107.707 30 106.17q0-2.336.89-3.554.905-1.219 2.452-1.219 1.562 0 2.452 1.219.89 1.218.89 3.554 0 1.537-.408 2.61-.394 1.074-1.153 1.654-.744.566-1.78.566m0-.957q.657 0 1.153-.407.497-.42.774-1.276.292-.87.292-2.19 0-1.335-.292-2.176-.277-.842-.774-1.233-.496-.407-1.153-.407-.642 0-1.153.407-.496.391-.788 1.233-.277.841-.277 2.176 0 1.32.277 2.19.292.856.788 1.276.511.407 1.153.407m0-3.003q-.365 0-.642-.261-.263-.261-.263-.711t.263-.696q.277-.261.642-.261.38 0 .643.26.262.247.262.697t-.262.71-.643.262m5.794 3.786v-.986h2.685v-6.818h-2.087v-.77q.555-.072.978-.173.423-.102.774-.218.35-.13.642-.29h.89v8.269h2.438v.986zm8.757 0v-.986h2.686v-6.818h-2.088v-.77q.555-.072.978-.173.424-.102.774-.218.35-.13.642-.29h.89v8.269h2.438v.986zm11.72.174q-1.036 0-1.78-.566-.745-.58-1.154-1.653-.408-1.074-.408-2.611 0-2.336.89-3.554.905-1.219 2.452-1.219 1.562 0 2.452 1.219.89 1.218.89 3.554 0 1.537-.408 2.61-.394 1.074-1.153 1.654-.745.566-1.78.566m0-.957q.657 0 1.153-.407.496-.42.774-1.276.292-.87.292-2.19 0-1.335-.292-2.176-.278-.842-.774-1.233-.496-.407-1.153-.407-.642 0-1.153.407-.496.391-.788 1.233-.277.841-.277 2.176 0 1.32.277 2.19.292.856.788 1.276.51.407 1.153.407m0-3.003q-.365 0-.642-.261-.263-.261-.263-.711t.263-.696q.277-.261.642-.261.38 0 .642.26.263.247.263.697t-.263.71-.642.262m5.793 3.786v-.986h2.686v-6.818h-2.087v-.77q.554-.072.978-.173.423-.102.773-.218.35-.13.643-.29h.89v8.269h2.437v.986zm8.758 0v-.986h2.685v-6.818h-2.087v-.77q.555-.072.978-.173.423-.102.774-.218.35-.13.642-.29h.89v8.269h2.438v.986zm8.757 0v-.986h2.685v-6.818h-2.087v-.77q.555-.072.978-.173.424-.102.774-.218.35-.13.642-.29h.89v8.269h2.438v.986zm8.757 0v-.986h2.686v-6.818h-2.087v-.77q.554-.072.977-.173.424-.102.774-.218.35-.13.642-.29h.89v8.269H98v.986z" style="font-size:16px;line-height:1.25;font-family:&quot;Source Code Pro&quot;;-inkscape-font-specification:&quot;Source Code Pro&quot;;fill:#b2b2b2;fill-opacity:1;stroke-width:.909411"/><path d="m57.51 43.922-26.91-.04a.603.603 0 0 1-.598-.651c.025-.288 2.754-28.905 27.97-29.304.208-.03.426.114.534.308a.6.6 0 0 1-.019.615c-7.4 11.585-1.178 26.528-.496 28.088a.6.6 0 0 1-.46.985h-.022z" style="fill:#f6f5f4;fill-opacity:1;stroke-width:5.00789;stroke-miterlimit:4;stroke-dasharray:none"/></svg>