<svg xmlns="http://www.w3.org/2000/svg" width="128" height="128" viewBox="0 0 128 128"><g style="display:inline"><path d="M124.828 857.328h200L445 977l.005 296.24c0 17.728-14.449 32.088-32.177 32.088h-288c-17.728 0-32-14.272-32-32v-384c0-17.728 14.272-32 32-32" style="display:inline;fill:#f6f5f4;fill-opacity:1;stroke:none;stroke-width:.5;stroke-linejoin:round;stroke-miterlimit:4;stroke-dasharray:none;stroke-opacity:1" transform="matrix(.24987 0 0 .25 -3.195 -206.332)"/><path d="M324.828 857.328v88c0 17.728 14.443 31.694 32.17 31.694L445 977Z" style="display:inline;vector-effect:none;fill:#deddda;fill-opacity:1;stroke:none;stroke-width:.5;stroke-linecap:butt;stroke-linejoin:round;stroke-miterlimit:4;stroke-dasharray:none;stroke-dashoffset:0;stroke-opacity:1" transform="matrix(.24987 0 0 .25 -3.195 -206.332)"/></g><path d="M93.92 86.5c-.462-2.028-3.816-7.873-10.675-13.06a68 68 0 0 0-3.326-2.374c1.37-5.867-5.756-12.943-12.71-9.611-4.992-4.697-10.558-6.614-15.678-6.536-13.556.19-24.014 14.314-12.765 27.792l.023.022q.26.309.529.619c.73.874 1.214 1.649 1.627 3.014l3.354 10.993h-1.187a1.984 1.984 0 0 0-1.983 1.983h4.502l7.566 3.577a1.977 1.977 0 0 0-.942-2.635l-1.983-.936h5.705a1.984 1.984 0 0 0-1.983-1.984h-5.17c-.903 0-1.706-.59-1.968-1.454L44.2 87.18c-.663-2.296.858-3.795 2.29-3.973 1.303-.162 1.96.68 2.574 2.719l2.362 7.744h-1.187a1.984 1.984 0 0 0-1.983 1.984h4.502l7.566 3.577a1.977 1.977 0 0 0-.942-2.635l-1.983-.937h4.184a10 10 0 0 0 1.56 2.012c3.9 3.9 10.235 3.9 14.136 0s3.9-10.235 0-14.135-10.236-3.9-14.136 0a10 10 0 0 0-2.446 10.14H55.96c-.902 0-1.704-.59-1.966-1.454L50.07 79.329l.669-.357c9.31-3.905 19.267 3.07 26.198-3.632l.044-.045c.858-.78 1.716-1.577 4.252.011 2.73 1.71 8.753 6.174 11.483 13.807.005 0 1.66-.59 1.203-2.613M74.765 69.59a1.922 1.922 0 0 0-3.844.045c0 .579.256 1.091.657 1.442a3.002 3.002 0 0 1 .563-5.95 3 3 0 0 1 2.624 4.463" class="st0" style="fill:#010101;stroke-width:.0557167"/></svg>