<svg xmlns="http://www.w3.org/2000/svg" width="128" height="128" viewBox="0 0 128 128"><filter id="package_x_generic_a" width="100%" height="100%" x="0%" y="0%"><feColorMatrix in="SourceGraphic" values="0 0 0 0 1 0 0 0 0 1 0 0 0 0 1 0 0 0 1 0"/></filter><mask id="package_x_generic_c"><g filter="url(#package_x_generic_a)"><path fill-opacity=".1" d="M0 0h128v128H0z"/></g></mask><clipPath id="package_x_generic_b"><path d="M0 0h192v152H0z"/></clipPath><path fill="#ded4ca" d="M28 8h50l30.043 29.918v74.059c0 4.433-3.61 8.023-8.043 8.023H28a7.98 7.98 0 0 1-8-8V16c0-4.434 3.566-8 8-8m0 0"/><path fill="#c9b8a7" d="M78 8v22c0 4.434 3.61 7.922 8.043 7.922l22-.004zm0 0"/><path fill="#fff" d="M60 60v4h4v-2h4v-2zm4 4v2h-4v4h4v-2h4v-4zm0 6v2h-4v4h4v-2h4v-4zm0 6v2h-4v4h4v-2h4v-4zm0 6v2h-4v4h4v-2h4v-4zm0 6v2h-4v4h4v-2h4v-4zm0 6v2h-4v4h4v-2h4v-4zm0 6v2h-4v4h4v-2h4v-4zm0 6v2h-4v4h4v-2h4v-4zm0 6v2h-4v4h4v-2h4v-4zm0 0"/><g clip-path="url(#package_x_generic_b)" mask="url(#package_x_generic_c)" transform="translate(-8 -16)"><path d="M68 67c-2.215 0-4 1.785-4 4v10c0 2.215 1.785 4 4 4v8c0 1.11.89 2 2 2h4c1.11 0 2-.89 2-2v-8c2.215 0 4-1.785 4-4V71c0-2.215-1.785-4-4-4zm2 22h4v4h-4zm0 0"/></g><path fill="#c0bfbc" d="M60 62v4h4v-2h4v-2zm4 4v2h-4v4h4v-2h4v-4zm0 6v2h-4v4h4v-2h4v-4zm0 6v2h-4v4h4v-2h4v-4zm0 6v2h-4v4h4v-2h4v-4zm0 6v2h-4v4h4v-2h4v-4zm0 6v2h-4v4h4v-2h4v-4zm0 6v2h-4v4h4v-2h4v-4zm0 6v2h-4v4h4v-2h4v-4zm0 6v2h-4v4h4v-2h4v-4zm0 0"/><path fill="#77767b" d="M62 57c-1.11 0-2 .89-2 2v16c0 1.11.89 2 2 2h4c1.11 0 2-.89 2-2V59c0-1.11-.89-2-2-2zm0 14h4v4h-4zm0 0"/><path fill="#77767b" d="M58.504 49h10.992A2.504 2.504 0 0 1 72 51.504v12.992A2.504 2.504 0 0 1 69.496 67H58.504A2.504 2.504 0 0 1 56 64.496V51.504A2.504 2.504 0 0 1 58.504 49m0 0"/><path fill="#9a9996" d="M58.945 47h10.11A2.94 2.94 0 0 1 72 49.945v12.11A2.94 2.94 0 0 1 69.055 65h-10.11A2.94 2.94 0 0 1 56 62.055v-12.11A2.94 2.94 0 0 1 58.945 47m0 0"/><path fill="#fff" d="M62 53c-1.11 0-2 .89-2 2v18c0 1.11.89 2 2 2h4c1.11 0 2-.89 2-2V55c0-1.11-.89-2-2-2zm0 16h4v4h-4zm0 0"/><path fill="#77767b" d="M64 59a2 2 0 0 0 2-2v-6a2 2 0 1 0-4 0v6a2 2 0 0 0 2 2m0 0"/><path fill="#9a9996" d="M64 57a2 2 0 0 0 2-2v-4a2 2 0 1 0-4 0v4a2 2 0 0 0 2 2m0 0"/></svg>