<svg xmlns="http://www.w3.org/2000/svg" xmlns:xlink="http://www.w3.org/1999/xlink" xml:space="preserve" width="128" height="128" viewBox="0 0 128 128"><defs><linearGradient id="text_x_emacs_lisp_a"><stop offset="0" style="stop-color:#8381c5;stop-opacity:1"/><stop offset=".566" style="stop-color:#7e55b3;stop-opacity:.99607843"/><stop offset="1" style="stop-color:#a52ecb;stop-opacity:.99215686"/></linearGradient><linearGradient xlink:href="#text_x_emacs_lisp_a" id="text_x_emacs_lisp_b" x1="22.862" x2="118.461" y1="25.019" y2="135.576" gradientUnits="userSpaceOnUse"/></defs><path d="M27.978 8h50l30.043 29.918.001 74.06c0 4.432-3.612 8.022-8.044 8.022h-72c-4.432 0-8-3.568-8-8V16c0-4.432 3.568-8 8-8" style="font-variation-settings:normal;display:inline;vector-effect:none;fill:url(#text_x_emacs_lisp_b);fill-opacity:1;stroke:none;stroke-width:6.51672;stroke-linecap:butt;stroke-linejoin:miter;stroke-miterlimit:4;stroke-dasharray:none;stroke-dashoffset:0;stroke-opacity:1;marker:none;marker-start:none;marker-mid:none;marker-end:none;paint-order:normal;stop-color:#000"/><path d="M77.978 8v22c0 4.432 3.61 7.923 8.042 7.923l22-.005z" style="font-variation-settings:normal;display:inline;vector-effect:none;fill:#fff;fill-opacity:.30000001;stroke:none;stroke-width:6.51672;stroke-linecap:butt;stroke-linejoin:miter;stroke-miterlimit:4;stroke-dasharray:none;stroke-dashoffset:0;stroke-opacity:1;marker:none;marker-start:none;marker-mid:none;marker-end:none;paint-order:normal;stop-color:#000"/><path d="M51.609 103.92s3.486.246 7.972-.149c1.816-.16 8.712-.837 13.868-1.968 0 0 6.287-1.345 9.65-2.585 3.52-1.297 5.434-2.397 6.296-3.957-.038-.32.265-1.453-1.357-2.133-4.15-1.74-8.961-1.426-18.483-1.628-10.558-.362-14.07-2.13-15.942-3.553-1.794-1.444-.892-5.44 6.796-8.958 3.873-1.874 19.054-5.332 19.054-5.332-5.113-2.528-14.647-6.97-16.606-7.93-1.72-.841-4.47-2.108-5.066-3.64-.676-1.472 1.596-2.74 2.866-3.103 4.088-1.18 9.86-1.912 15.112-1.994 2.64-.042 3.069-.212 3.069-.212 3.643-.604 6.04-3.096 5.042-7.044-.897-4.029-5.628-6.396-10.124-5.577-4.234.772-14.438 3.736-14.438 3.736 12.613-.109 14.724.102 15.667 1.42.557.778-.253 1.846-3.617 2.395-3.662.598-11.274 1.319-11.274 1.319-7.303.433-12.448.462-13.99 3.729-1.009 2.134 1.074 4.02 1.987 5.202 3.858 4.29 9.43 6.604 13.017 8.308 1.35.641 5.31 1.852 5.31 1.852-11.637-.64-20.03 2.933-24.955 7.047-5.569 5.151-3.105 11.291 8.304 15.072 6.74 2.233 10.081 3.283 20.134 2.378 5.92-.32 6.854-.13 6.913.356.083.684-6.576 2.383-8.395 2.908-4.625 1.334-16.75 4.028-16.81 4.04z" style="fill:#fff;fill-opacity:1;fill-rule:evenodd;stroke:#000;stroke-width:0;stroke-linecap:butt;stroke-linejoin:miter;stroke-miterlimit:4;stroke-dasharray:none;stroke-opacity:1"/></svg>