<svg xmlns="http://www.w3.org/2000/svg" xml:space="preserve" width="128" height="128" viewBox="0 0 128 128"><path d="M27.978 8h50l30.043 29.918v74.06c0 4.432-3.611 8.022-8.043 8.022h-72c-4.432 0-8-3.568-8-8V16c0-4.432 3.568-8 8-8" style="display:inline;fill:#3e2723;fill-opacity:1;stroke:none;stroke-width:.125;stroke-linejoin:round;stroke-miterlimit:4;stroke-dasharray:none;stroke-opacity:1"/><path d="M77.978 8v22c0 4.432 3.61 7.923 8.042 7.923l22-.005z" style="display:inline;vector-effect:none;fill:#fff;fill-opacity:.30000001;stroke:none;stroke-width:.125;stroke-linecap:butt;stroke-linejoin:round;stroke-miterlimit:4;stroke-dasharray:none;stroke-dashoffset:0;stroke-opacity:1"/><path d="M57.816 58.045c.054.328-.11.6-.655.873-.71-.382-2.238-.6-3.493-.49-1.365.108-2.51.545-2.347 1.473.218.927 1.528 1.473 3.875 1.255 5.73-.491 5.676-4.366 14.08-5.13 6.55-.6 10.206 1.419 10.698 3.875.382 1.91-1.201 3.765-5.95 4.147-4.202.383-6.658-.764-6.876-1.91-.109-.6.218-1.473 2.238-1.692.218.928 1.364 1.91 4.093 1.638 1.965-.164 3.602-.874 3.384-1.965-.219-1.146-2.292-1.801-5.567-1.528-6.658.6-8.296 4.257-13.972 4.748-4.038.382-7.313-1.092-7.75-3.275-.163-.818-.163-2.728 4.094-3.11 2.183-.164 3.93.218 4.148 1.091M36.53 80.858c-1.856 2.347-2.675 5.076-2.51 7.75.163 2.674 1.473 4.857 3.547 6.55 2.183 1.69 4.53 2.182 7.204 1.69 1.037-.163 2.183-.709 3.22-1.036-2.183 0-4.039-.71-5.894-2.183-2.02-1.474-3.384-3.548-3.712-6.058-.49-2.347 0-4.53 1.31-6.44 1.474-1.856 3.384-2.893 5.894-3.22 2.51-.164 4.694.491 6.877 2.02-.491-.71-1.2-1.201-1.856-1.856-2.183-1.474-4.53-2.183-7.422-1.474-2.62.546-4.803 1.91-6.658 4.257m29.253-12.607c-7.04 0-13.317-.71-17.847-1.692-4.857-1.2-7.422-2.51-7.422-4.202 0-.71.327-1.31 1.31-2.02-3.057 1.201-4.694 2.183-4.694 3.711.164 1.692 2.893 3.384 8.46 4.694 5.239 1.31 11.952 2.02 20.029 2.02 8.241 0 14.79-.71 20.03-2.02 5.566-1.31 8.24-3.056 8.24-4.694 0-1.2-1.2-2.346-3.383-3.22.491.328.873.874.873 1.474 0 1.692-2.51 3.056-7.586 4.202-4.694 1.037-10.697 1.747-18.01 1.747m20.084 4.693c-5.24 1.201-11.952 2.02-20.03 2.02-8.24 0-14.954-.873-20.193-2.02-4.694-1.2-7.204-2.51-8.077-3.874.873 5.894 2.892 11.46 5.566 16.372 2.02 3.057 4.04 5.731 6.058 8.624a21.2 21.2 0 0 1 1.856 5.075c1.31 1.856 3.22 3.056 5.567 3.711a22.7 22.7 0 0 0 8.95 1.31h.328c3.056.164 6.276-.327 9.223-1.31 2.183-.71 4.039-1.855 5.403-3.71h.164a20.6 20.6 0 0 1 1.692-5.076c2.02-2.893 4.039-5.567 6.058-8.624 2.674-4.857 4.53-10.424 5.567-16.372-1.092 1.528-3.602 2.837-8.132 3.874" style="fill:#fff;fill-opacity:1;stroke-width:.545765"/></svg>