<svg xmlns="http://www.w3.org/2000/svg" xml:space="preserve" width="128" height="128" viewBox="0 0 128 128"><path d="M27.978 8h50l30.043 29.918.001 74.06c0 4.432-3.612 8.022-8.044 8.022h-72c-4.432 0-8-3.568-8-8V16c0-4.432 3.568-8 8-8" style="display:inline;fill:#007481;fill-opacity:1;stroke:none;stroke-width:.125;stroke-linejoin:round;stroke-miterlimit:4;stroke-dasharray:none;stroke-opacity:1"/><path d="M77.978 8v22c0 4.432 3.61 7.923 8.043 7.923l22-.005z" style="display:inline;vector-effect:none;fill:#fff;fill-opacity:.2;stroke:none;stroke-width:.125;stroke-linecap:butt;stroke-linejoin:round;stroke-miterlimit:4;stroke-dasharray:none;stroke-dashoffset:0;stroke-opacity:1"/><path d="M80.18 91.092h2.953v-2.833H80.18v-3.073h-2.952v3.073h-2.953v2.833h2.953v3.072h2.952zm-26.807-2.833h-8.859v2.833h8.859zM94 89.675c0-7.914-6.61-14.292-14.764-14.292a14 14 0 0 0-2.241.12c-6.378.944-10.634 5.433-12.995 8.978-2.36-3.545-6.61-8.034-13.001-8.978a14 14 0 0 0-2.241-.12C40.617 75.383 34 81.761 34 89.675s6.617 14.323 14.764 14.323q1.123.014 2.235-.15c6.384-.945 10.634-5.434 12.995-8.972 2.36 3.538 6.617 8.027 12.994 8.971q1.117.15 2.242.12c8.033-.12 14.764-6.498 14.764-14.292zm-43.82 9.098a7 7 0 0 1-1.536.113c-5.313 0-9.683-4.13-9.683-9.21 0-5.082 4.37-9.212 9.803-9.212a6.7 6.7 0 0 1 1.536.12c6.025.825 9.683 6.73 10.867 9.091-1.303 2.361-4.961 8.153-10.987 9.098m16.559-9.098c1.259-2.36 4.822-8.266 10.848-9.091.503-.1 1.017-.14 1.53-.12 5.433 0 9.802 4.13 9.802 9.211 0 5.08-4.369 9.211-9.683 9.211a7 7 0 0 1-1.536-.113c-6.139-.945-9.803-6.737-10.961-9.098" style="fill:#fff;fill-opacity:1;stroke-width:.370775"/></svg>