<svg xmlns="http://www.w3.org/2000/svg" width="128" height="128" viewBox="0 0 128 128"><path d="M27.978 8h50l30.043 29.918.001 74.06c0 4.432-3.612 8.022-8.044 8.022h-72c-4.432 0-8-3.568-8-8V16c0-4.432 3.568-8 8-8" style="display:inline;fill:#a179dc;fill-opacity:1;stroke:none;stroke-width:.125;stroke-linejoin:round;stroke-miterlimit:4;stroke-dasharray:none;stroke-opacity:1"/><path d="M77.978 8v22c0 4.432 3.61 7.923 8.043 7.923l22-.005z" style="display:inline;vector-effect:none;fill:#390091;fill-opacity:1;stroke:none;stroke-width:.125;stroke-linecap:butt;stroke-linejoin:round;stroke-miterlimit:4;stroke-dasharray:none;stroke-dashoffset:0;stroke-opacity:1"/><g fill="#fff"><path d="M85.277 65.37v4.256h4.254V65.37h2.128v4.255h4.255v2.127h-4.255v4.255h4.255v2.127h-4.255v4.255H89.53v-4.255h-4.254v4.255h-2.128v-4.255h-4.255v-2.127h4.255v-4.255h-4.255v-2.127h4.255V65.37zm4.254 6.383h-4.254v4.255h4.254z"/><path d="M62.086 44.002c11.098 0 20.788 6.027 25.978 14.986l-.05-.086-13.058 7.518c-2.573-4.356-7.29-7.295-12.7-7.356h-.17c-8.25 0-14.938 6.687-14.938 14.938 0 2.698.719 5.227 1.97 7.411 2.575 4.495 7.416 7.527 12.968 7.527 5.588 0 10.456-3.07 13.018-7.614l-.063.11 13.038 7.553C82.946 97.872 73.39 103.88 62.421 104l-.335.002c-11.133 0-20.85-6.064-26.026-15.07a29.86 29.86 0 0 1-3.974-14.93c0-16.568 13.432-30 30-30"/></g></svg>