<svg xmlns="http://www.w3.org/2000/svg" xml:space="preserve" width="128" height="128" viewBox="0 0 128 128"><g style="display:inline"><path d="M124.828 857.328h200L445 977l.005 296.24c0 17.728-14.449 32.088-32.177 32.088h-288c-17.728 0-32-14.272-32-32v-384c0-17.728 14.272-32 32-32" style="display:inline;fill:#f6f5f4;fill-opacity:1;stroke:none;stroke-width:.5;stroke-linejoin:round;stroke-miterlimit:4;stroke-dasharray:none;stroke-opacity:1" transform="matrix(.25 0 0 .25 -3.23 -206.332)"/><path d="M324.828 857.328v88c0 17.728 14.443 31.694 32.17 31.694L445 977Z" style="display:inline;vector-effect:none;fill:#deddda;fill-opacity:1;stroke:none;stroke-width:.5;stroke-linecap:butt;stroke-linejoin:round;stroke-miterlimit:4;stroke-dasharray:none;stroke-dashoffset:0;stroke-opacity:1" transform="matrix(.25 0 0 .25 -3.23 -206.332)"/></g><path d="M-104.82 59.595a8.9 8.9 0 1 1 8.91-8.9 8.91 8.91 0 0 1-8.91 8.9" style="fill:#ca3c32" transform="translate(219.434 5.497)scale(1.65153)"/><path d="M-83.43 59.595a8.9 8.9 0 1 1 8.91-8.9 8.91 8.91 0 0 1-8.91 8.9" style="fill:#9259a3" transform="translate(219.434 5.497)scale(1.65153)"/><path d="M-94.12 41.065a8.9 8.9 0 1 1 8.9-8.9 8.89 8.89 0 0 1-8.9 8.9" style="fill:#399746" transform="translate(219.434 5.497)scale(1.65153)"/></svg>