<svg xmlns="http://www.w3.org/2000/svg" xml:space="preserve" width="128" height="128" viewBox="0 0 128 128"><g style="display:inline"><path d="M124.828 857.328h200L445 977l.005 296.24c0 17.728-14.449 32.088-32.177 32.088h-288c-17.728 0-32-14.272-32-32v-384c0-17.728 14.272-32 32-32" style="display:inline;fill:#f6f5f4;fill-opacity:1;stroke:none;stroke-width:.5;stroke-linejoin:round;stroke-miterlimit:4;stroke-dasharray:none;stroke-opacity:1" transform="matrix(.25 0 0 .25 -3.23 -206.332)"/><path d="M324.828 857.328v88c0 17.728 14.443 31.694 32.17 31.694L445 977Z" style="display:inline;vector-effect:none;fill:#deddda;fill-opacity:1;stroke:none;stroke-width:.5;stroke-linecap:butt;stroke-linejoin:round;stroke-miterlimit:4;stroke-dasharray:none;stroke-dashoffset:0;stroke-opacity:1" transform="matrix(.25 0 0 .25 -3.23 -206.332)"/></g><path d="m33.978 35.99 35.99.02c1.108 0 2 .891 2 2 0 1.107-.892 2-2 2l-35.99-.02c-1.108 0-2-.891-2-2 0-1.107.892-2 2-2m0-8 35.99.02c1.108 0 2 .891 2 2 0 1.107-.892 2-2 2l-35.99-.02c-1.108 0-2-.891-2-2 0-1.107.892-2 2-2" style="display:inline;fill:#deddda;stroke-width:2;stroke-linecap:round;paint-order:markers stroke fill;stop-color:#000"/><rect width="64" height="4" x="31.978" y="60" rx="2" ry="2" style="display:inline;fill:#deddda;fill-opacity:1;stroke-width:2;stroke-linecap:round;paint-order:markers stroke fill;stop-color:#000"/><rect width="64" height="4" x="31.978" y="52" rx="2" ry="2" style="display:inline;fill:#deddda;fill-opacity:1;stroke-width:2;stroke-linecap:round;paint-order:markers stroke fill;stop-color:#000"/><rect width="64" height="4" x="31.978" y="44" rx="2" ry="2" style="display:inline;fill:#deddda;fill-opacity:1;stroke-width:2;stroke-linecap:round;paint-order:markers stroke fill;stop-color:#000"/><path d="m70.554 84.004 23.424-.008c1.108 0 2 .892 2 2s-.892 2-2 2l-23.424.008c-1.108 0-2-.892-2-2s.892-2 2-2m0 8 23.424-.008c1.108 0 2 .892 2 2s-.892 2-2 2l-23.424.008c-1.108 0-2-.892-2-2s.892-2 2-2m0 8 23.424-.008c1.108 0 2 .892 2 2s-.892 2-2 2l-23.424.008c-1.108 0-2-.892-2-2s.892-2 2-2" style="display:inline;fill:#deddda;stroke-width:2;stroke-linecap:round;paint-order:markers stroke fill;stop-color:#000"/><path d="M53.14 103.25a16.3 16.3 0 0 0 9.248-7.5H48.836Zm-21.162-7.5v5.097a3.157 3.157 0 0 0 3.157 3.157h12.057l-4.737-8.255zm0-18.261 7.302 12.726h-7.302zm2.944-5.99L45.66 90.215h18.644q.185-1.207.186-2.467c0-8.978-7.278-16.256-16.256-16.256H35.135q-.107 0-.213.007" style="fill:#1f8197;fill-opacity:1;stroke-width:.209716"/><path d="m70.554 76.004 23.424-.008c1.108 0 2 .892 2 2s-.892 2-2 2l-23.424.008c-1.108 0-2-.892-2-2s.892-2 2-2m0-8 23.424-.008c1.108 0 2 .892 2 2s-.892 2-2 2l-23.424.008c-1.108 0-2-.892-2-2s.892-2 2-2" style="display:inline;fill:#deddda;stroke-width:2;stroke-linecap:round;paint-order:markers stroke fill;stop-color:#000"/></svg>