<svg xmlns="http://www.w3.org/2000/svg" xmlns:xlink="http://www.w3.org/1999/xlink" width="128" height="128" viewBox="0 0 128 128"><defs><linearGradient xlink:href="#text_x_makefile_a" id="text_x_makefile_c" x1="81" x2="81" y1="47" y2="65" gradientTransform="matrix(1.5 0 0 1.55556 -66 110.89)" gradientUnits="userSpaceOnUse"/><linearGradient id="text_x_makefile_a"><stop offset="0" style="stop-color:#c0bfbc;stop-opacity:1"/><stop offset=".5" style="stop-color:#deddda;stop-opacity:1"/><stop offset="1" style="stop-color:#9a9996;stop-opacity:1"/></linearGradient><linearGradient xlink:href="#text_x_makefile_a" id="text_x_makefile_d" x1="92" x2="104" y1="244" y2="244" gradientTransform="matrix(.83333 0 0 .82143 5.333 26.571)" gradientUnits="userSpaceOnUse"/><linearGradient xlink:href="#text_x_makefile_b" id="text_x_makefile_e" x1="92" x2="104" y1="244" y2="244" gradientTransform="matrix(1.5 0 0 .92857 -60 21.429)" gradientUnits="userSpaceOnUse"/><linearGradient id="text_x_makefile_b"><stop offset="0" style="stop-color:#ff7800;stop-opacity:1"/><stop offset=".25" style="stop-color:#ffa348;stop-opacity:1"/><stop offset=".75" style="stop-color:#ff7800;stop-opacity:1"/><stop offset="1" style="stop-color:#c64600;stop-opacity:1"/></linearGradient></defs><path d="M27.978 8h50l30.043 29.918.001 74.06c0 4.432-3.612 8.022-8.044 8.022h-72c-4.432 0-8-3.568-8-8V16c0-4.432 3.568-8 8-8" style="display:inline;fill:#666;fill-opacity:1;stroke:none;stroke-width:.125;stroke-linejoin:round;stroke-miterlimit:4;stroke-dasharray:none;stroke-opacity:1"/><path d="M77.978 8v22c0 4.432 3.61 7.923 8.043 7.923l22-.005z" style="display:inline;vector-effect:none;fill:#9a9996;fill-opacity:1;stroke:none;stroke-width:.125;stroke-linecap:butt;stroke-linejoin:round;stroke-miterlimit:4;stroke-dasharray:none;stroke-dashoffset:0;stroke-opacity:1"/><g style="display:inline" transform="rotate(45 76.05 247.69)scale(-.62819 .62819)"><path d="M123.5 205v-4l-2.285-.774.088 4.086z" style="fill:#9a9996;fill-opacity:1;stroke:none;stroke-width:1.5px;stroke-linecap:butt;stroke-linejoin:miter;stroke-opacity:1"/><path d="M63 190h18v16.001H63z" style="fill:#9a9996;fill-opacity:1;stroke:none;stroke-width:13.8567;stroke-linecap:round;stroke-dashoffset:26.4;stroke-opacity:1"/><rect width="18" height="28" x="48" y="184" rx="3" ry="3.111" style="fill:url(#text_x_makefile_c);fill-opacity:1;stroke:none;stroke-width:16.9706;stroke-linecap:round;stroke-dashoffset:26.4;stroke-opacity:1"/><rect width="30" height="24" x="72" y="186" rx="3" ry="3" style="fill:#9a9996;fill-opacity:1;stroke:none;stroke-width:17.8885;stroke-linecap:round;stroke-dashoffset:26.4;stroke-opacity:1"/><path d="M97.5 200c10.5 0 18.5 0 23 6.5l3-1.5c-2.5-10-10.5-15-21.5-15h-7.5z" style="fill:#9a9996;fill-opacity:1;stroke:none;stroke-width:1.5px;stroke-linecap:butt;stroke-linejoin:miter;stroke-opacity:1"/><path d="M97.5 196c10.555 0 18.5 0 23 6.5l3-1.5C121 191 109 186 98 186h-3.5z" style="fill:#c0bfbc;fill-opacity:1;stroke:none;stroke-width:1.5px;stroke-linecap:butt;stroke-linejoin:miter;stroke-opacity:1"/><rect width="30" height="16" x="72" y="186" rx="3" ry="2.909" style="fill:#c0bfbc;fill-opacity:1;stroke:none;stroke-width:17.6154;stroke-linecap:round;stroke-dashoffset:26.4;stroke-opacity:1"/><rect width="10" height="46" x="82" y="204" rx="5" ry="5" style="display:inline;fill:url(#text_x_makefile_d);fill-opacity:1;stroke-width:188.674;stroke-linecap:square;stroke-dashoffset:26.4"/><rect width="18" height="52" x="78" y="222" rx="6" ry="6" style="display:inline;fill:url(#text_x_makefile_e);fill-opacity:1;stroke-width:188.674;stroke-linecap:square;stroke-dashoffset:26.4"/><rect width="18" height="10.5" x="78" y="263.5" rx="5.25" ry="5.25" style="display:inline;fill:#c64600;fill-opacity:1;stroke-width:224.998;stroke-linecap:square;stroke-dashoffset:26.4"/><g style="fill:#8f3200;fill-opacity:1" transform="translate(0 4)"><rect width="8" height="2" x="83" y="246" rx="1" ry="1" style="opacity:.4;fill:#8f3200;fill-opacity:1;stroke-width:12;stroke-linecap:round;stroke-dashoffset:26.4"/><rect width="8" height="2" x="83" y="250" rx="1" ry="1" style="opacity:.4;fill:#8f3200;fill-opacity:1;stroke-width:12;stroke-linecap:round;stroke-dashoffset:26.4"/><rect width="8" height="2" x="83" y="254" rx="1" ry="1" style="opacity:.4;fill:#8f3200;fill-opacity:1;stroke-width:12;stroke-linecap:round;stroke-dashoffset:26.4"/></g></g></svg>