<svg xmlns="http://www.w3.org/2000/svg" xml:space="preserve" width="128" height="128" viewBox="0 0 128 128"><path d="M27.996 8h49.975L108 37.918l.001 74.06c0 4.432-3.61 8.022-8.04 8.022H27.996A7.98 7.98 0 0 1 20 112V16c0-4.432 3.566-8 7.996-8" style="display:inline;fill:#121212;fill-opacity:1;stroke:none;stroke-width:.124969;stroke-linejoin:round;stroke-miterlimit:4;stroke-dasharray:none;stroke-opacity:1"/><path d="M77.957 8v22c0 4.432 3.61 7.923 8.043 7.923l22-.005Z" style="display:inline;vector-effect:none;fill:#3d3846;fill-opacity:1;stroke:none;stroke-width:.125;stroke-linecap:butt;stroke-linejoin:round;stroke-miterlimit:4;stroke-dasharray:none;stroke-dashoffset:0;stroke-opacity:1"/><path d="m92.824 49.017-19.217 8.627H55.961l-7.451 8.629h17.93l-31.265 37.646 19.217-9.02h17.646l7.451-8.626H61.62ZM34 57.644v37.255h4.705l7.451-8.626h-3.529v-20h2.353l7.06-8.63zm55.295 0-7.451 9.02h3.529v19.609H83.02l-7.452 8.626H94V57.644Z" style="fill:#f7a41d;stroke-width:.392157"/></svg>