<?xml version="1.0" encoding="UTF-8" standalone="no"?>
<svg
   height="128px"
   viewBox="0 0 128 128"
   width="128px"
   version="1.1"
   id="text_x_cpphdr_svg35"
   xmlns="http://www.w3.org/2000/svg"
   xmlns:svg="http://www.w3.org/2000/svg">
  <defs
     id="text_x_cpphdr_defs39">
    <filter
       height="1.0214333"
       y="-0.010716652"
       width="1.0272651"
       x="-0.01363253"
       id="text_x_cpphdr_filter16020"
       style="color-interpolation-filters:sRGB">
      <feGaussianBlur
         id="text_x_cpphdr_feGaussianBlur16022"
         stdDeviation="2.0004419" />
    </filter>
  </defs>
  <linearGradient
     id="text_x_cpphdr_a"
     gradientUnits="userSpaceOnUse"
     x1="36"
     x2="60"
     y1="68"
     y2="68">
    <stop
       offset="0"
       stop-color="#ed336c"
       id="text_x_cpphdr_stop2" />
    <stop
       offset="1"
       stop-color="#ffa348"
       id="text_x_cpphdr_stop4" />
  </linearGradient>
  <linearGradient
     id="text_x_cpphdr_b"
     gradientTransform="matrix(0 1 -1 0 144 -32)"
     gradientUnits="userSpaceOnUse"
     x1="72"
     x2="96"
     y1="68"
     y2="68">
    <stop
       offset="0"
       stop-color="#404ce6"
       id="text_x_cpphdr_stop7" />
    <stop
       offset="1"
       stop-color="#c061cb"
       id="text_x_cpphdr_stop9" />
  </linearGradient>
  <linearGradient
     id="text_x_cpphdr_c"
     gradientUnits="userSpaceOnUse"
     x1="68.84919"
     x2="95.257637"
     y1="84"
     y2="84">
    <stop
       offset="0"
       stop-color="#33d1c6"
       id="text_x_cpphdr_stop12" />
    <stop
       offset="1"
       stop-color="#1c25d8"
       id="text_x_cpphdr_stop14" />
  </linearGradient>
  <path
     style="display:inline;fill:#649ad2;fill-opacity:1;stroke:none;stroke-width:0.125;stroke-linejoin:round;stroke-miterlimit:4;stroke-dasharray:none;stroke-opacity:1;enable-background:new"
     clip-path="none"
     d="m 27.978081,8.0000006 h 50.000002 l 30.042897,29.9178934 0.001,74.060006 c 8e-5,4.432 -3.6122,8.0221 -8.044197,8.0221 H 27.97802 c -4.431999,0 -7.999999,-3.568 -7.999999,-8.00001 V 16 c 0,-4.431999 3.568,-7.9999994 7.999999,-7.9999994 z"
     id="text_x_cpphdr_path4411" />
  <path
     style="display:inline;vector-effect:none;fill:#00589c;fill-opacity:1;stroke:none;stroke-width:0.125;stroke-linecap:butt;stroke-linejoin:round;stroke-miterlimit:4;stroke-dasharray:none;stroke-dashoffset:0;stroke-opacity:1;enable-background:new"
     d="M 77.978074,8.0000006 V 30.000002 c 0,4.432 3.610527,7.923448 8.042527,7.923448 l 22.000369,-0.0055 z"
     id="text_x_cpphdr_path4413" />
  <g
     aria-label="H"
     id="text_x_cpphdr_text12692"
     style="font-size:104.796px;font-family:FreeMono;-inkscape-font-specification:FreeMono;fill:#ffffff;stroke:#f9f9f9"
     transform="translate(185.03657,0.0045)">
    <g
       id="text_x_cpphdr_path13113" />
  </g>
  <path
     id="text_x_cpphdr_rect4337-3"
     style="fill:#ffffff;fill-rule:evenodd;stroke-width:3.35147;stroke-linecap:round;stroke-linejoin:round;stroke-miterlimit:10"
     d="m 34.000001,44.00238 v 22.5 15 22.5 h 15 v -22.5 h 30 v 22.5 h 15 v -22.5 -15 -22.5 h -15 v 22.5 h -30 v -22.5 z" />
  <g
     id="text_x_cpphdr_g1071-7-6"
     transform="matrix(0.29411765,0,0,0.29411765,2.704961,23.36267)"
     style="fill:#649ad2;fill-opacity:1">
    <polygon
       fill="#ffffff"
       points="232.334,177.841 232.334,189.175 243.666,189.175 243.666,177.841 255,177.841 255,166.508 243.666,166.508 243.666,155.175 232.334,155.175 232.334,166.508 221,166.508 221,177.841 "
       id="text_x_cpphdr_polygon1069-5-3"
       style="fill:#649ad2;fill-opacity:1" />
  </g>
  <g
     id="text_x_cpphdr_g1075-3-6"
     transform="matrix(0.29411765,0,0,0.29411765,2.704961,23.36267)"
     style="fill:#649ad2;fill-opacity:1">
    <polygon
       fill="#ffffff"
       points="274.834,177.841 274.834,189.175 286.166,189.175 286.166,177.841 297.5,177.841 297.5,166.508 286.166,166.508 286.166,155.175 274.834,155.175 274.834,166.508 263.5,166.508 263.5,177.841 "
       id="text_x_cpphdr_polygon1073-5-3"
       style="fill:#649ad2;fill-opacity:1" />
  </g>
</svg>
