<?xml version="1.0" encoding="UTF-8" standalone="no"?>
<svg
   height="128px"
   viewBox="0 0 128 128"
   width="128px"
   version="1.1"
   id="text_x_cpp_svg35"
   xmlns="http://www.w3.org/2000/svg"
   xmlns:svg="http://www.w3.org/2000/svg">
  <defs
     id="text_x_cpp_defs39" />
  <linearGradient
     id="text_x_cpp_a"
     gradientUnits="userSpaceOnUse"
     x1="36"
     x2="60"
     y1="68"
     y2="68">
    <stop
       offset="0"
       stop-color="#ed336c"
       id="text_x_cpp_stop2" />
    <stop
       offset="1"
       stop-color="#ffa348"
       id="text_x_cpp_stop4" />
  </linearGradient>
  <linearGradient
     id="text_x_cpp_b"
     gradientTransform="matrix(0 1 -1 0 144 -32)"
     gradientUnits="userSpaceOnUse"
     x1="72"
     x2="96"
     y1="68"
     y2="68">
    <stop
       offset="0"
       stop-color="#404ce6"
       id="text_x_cpp_stop7" />
    <stop
       offset="1"
       stop-color="#c061cb"
       id="text_x_cpp_stop9" />
  </linearGradient>
  <linearGradient
     id="text_x_cpp_c"
     gradientUnits="userSpaceOnUse"
     x1="68.84919"
     x2="95.257637"
     y1="84"
     y2="84">
    <stop
       offset="0"
       stop-color="#33d1c6"
       id="text_x_cpp_stop12" />
    <stop
       offset="1"
       stop-color="#1c25d8"
       id="text_x_cpp_stop14" />
  </linearGradient>
  <path
     style="display:inline;fill:#649ad2;fill-opacity:1;stroke:none;stroke-width:0.125;stroke-linejoin:round;stroke-miterlimit:4;stroke-dasharray:none;stroke-opacity:1;enable-background:new"
     clip-path="none"
     d="m 27.978072,8.0000006 h 50.000002 l 30.042896,29.9178934 10e-4,74.060006 c 8e-5,4.432 -3.6122,8.0221 -8.044196,8.0221 H 27.978011 c -4.431999,0 -7.999999,-3.568 -7.999999,-8.00001 V 16 c 0,-4.431999 3.568,-7.9999994 7.999999,-7.9999994 z"
     id="text_x_cpp_path4411" />
  <path
     style="display:inline;vector-effect:none;fill:#00589c;fill-opacity:1;stroke:none;stroke-width:0.125;stroke-linecap:butt;stroke-linejoin:round;stroke-miterlimit:4;stroke-dasharray:none;stroke-dashoffset:0;stroke-opacity:1;enable-background:new"
     d="M 77.978074,8.0000006 V 30.000002 c 0,4.432 3.610527,7.923448 8.042527,7.923448 l 22.000369,-0.0055 z"
     id="text_x_cpp_path4413" />
  <g
     aria-label="C"
     id="text_x_cpp_text10257"
     style="font-size:99.6622px;font-family:FreeMono;-inkscape-font-specification:FreeMono;fill:#ffffff;stroke:#ffffff"
     transform="translate(-8.9993356e-6,-7.4e-4)">
    <g
       id="text_x_cpp_path10784" />
  </g>
  <g
     id="text_x_cpp_g1067"
     transform="matrix(0.29411765,0,0,0.29411765,16.047817,23.361503)">
    <path
       fill="#ffffff"
       d="m 153,274.175 c -56.243,0 -102,-45.757 -102,-102 0,-56.243 45.757,-102 102,-102 36.292,0 70.139,19.53 88.331,50.968 l -44.143,25.544 C 188.083,130.951 171.15,121.175 153,121.175 c -28.122,0 -51,22.878 -51,51 0,28.121 22.878,51 51,51 18.152,0 35.085,-9.776 44.191,-25.515 l 44.143,25.543 c -18.192,31.441 -52.04,50.972 -88.334,50.972 z"
       id="text_x_cpp_path1065" />
  </g>
  <g
     id="text_x_cpp_g1071"
     transform="matrix(0.29411765,0,0,0.29411765,9.4521566,23.361503)">
    <polygon
       fill="#ffffff"
       points="243.666,189.175 243.666,177.841 255,177.841 255,166.508 243.666,166.508 243.666,155.175 232.334,155.175 232.334,166.508 221,166.508 221,177.841 232.334,177.841 232.334,189.175 "
       id="text_x_cpp_polygon1069" />
  </g>
  <g
     id="text_x_cpp_g1075"
     transform="matrix(0.29411765,0,0,0.29411765,9.4521566,23.361503)">
    <polygon
       fill="#ffffff"
       points="286.166,189.175 286.166,177.841 297.5,177.841 297.5,166.508 286.166,166.508 286.166,155.175 274.834,155.175 274.834,166.508 263.5,166.508 263.5,177.841 274.834,177.841 274.834,189.175 "
       id="text_x_cpp_polygon1073" />
  </g>
</svg>
