<svg xmlns="http://www.w3.org/2000/svg" width="128" height="128" viewBox="0 0 128 128"><path d="M27.978 8h50l30.043 29.918.001 74.06c0 4.432-3.612 8.022-8.044 8.022h-72c-4.432 0-8-3.568-8-8V16c0-4.432 3.568-8 8-8" style="display:inline;fill:#0000b2;fill-opacity:1;stroke:none;stroke-width:.125;stroke-linejoin:round;stroke-miterlimit:4;stroke-dasharray:none;stroke-opacity:1"/><path d="M77.978 8v22c0 4.432 3.61 7.923 8.043 7.923l22-.005z" style="display:inline;vector-effect:none;fill:#fff;fill-opacity:.30000001;stroke:none;stroke-width:.125;stroke-linecap:butt;stroke-linejoin:round;stroke-miterlimit:4;stroke-dasharray:none;stroke-dashoffset:0;stroke-opacity:1"/><path d="M473.51 111.583c-199.799 0-362.015 162.216-362.015 362.016s162.216 362.016 362.016 362.016 361.977-162.216 361.977-362.016-162.177-362.016-361.977-362.016m150.006 106.024c58.5 0 105.986 47.486 105.986 105.986s-47.486 106.025-105.986 106.025-106.024-47.525-106.024-106.025 47.524-105.986 106.024-105.986" style="fill:#fff" transform="matrix(.0634 0 0 .06339 33.985 44.31)"/><path fill="navy" d="M941.5 111.5c0-58.5-47.5-106-106-106s-106 47.5-106 106 47.5 106 106 106 106-47.4 106-106" style="fill:#fff" transform="matrix(.0634 0 0 .06339 33.985 44.31)"/><path fill="none" stroke="gray" stroke-dasharray="40.847" stroke-miterlimit="10" stroke-width="10.861" d="M890.6 261c33.5 65.8 51 138.6 51 212.5 0 258.4-209.7 468.1-468.1 468.1S5.4 731.9 5.4 473.5 215.1 5.4 473.5 5.4c83.1 0 164.6 22.1 236.2 63.9" style="stroke:#fff;stroke-width:10.8648;stroke-dasharray:40.861;stroke-dashoffset:0;stroke-opacity:.6" transform="matrix(.0634 0 0 .06339 33.985 44.31)"/></svg>