<svg xmlns="http://www.w3.org/2000/svg" width="128" height="128" viewBox="0 0 128 128"><path d="M27.978 8h50l30.043 29.918.001 74.06c0 4.432-3.612 8.022-8.044 8.022h-72c-4.432 0-8-3.568-8-8V16c0-4.432 3.568-8 8-8" style="display:inline;fill:#6492a5;fill-opacity:1;stroke:none;stroke-width:.125;stroke-linejoin:round;stroke-miterlimit:4;stroke-dasharray:none;stroke-opacity:1"/><path d="M77.978 8v22c0 4.432 3.61 7.923 8.043 7.923l22-.005z" style="display:inline;vector-effect:none;fill:navy;fill-opacity:1;stroke:none;stroke-width:.125;stroke-linecap:butt;stroke-linejoin:round;stroke-miterlimit:4;stroke-dasharray:none;stroke-dashoffset:0;stroke-opacity:1"/><path d="M48.732 44.122c-.547-.061-1.033-.122-1.336-.122-2.733 0-5.466 2.186-5.891 4.676-.364 2.247.668 3.583 3.461 4.434-1.7 1.457-2.793 3.279-3.157 5.283-.365 2.308.303 4.25 2.247 6.437-2.369 1.58-3.523 2.49-4.798 3.705-2.611 2.55-4.555 6.255-5.101 9.777-.85 4.798.91 9.23 4.25 11.053 1.823.971 4.07 1.336 7.774 1.336 1.093 0 2.43-.061 5.344-.183 2.369-.121 3.948 1.64 3.583 4.009-.364 2.307-2.308 4.008-4.554 4.008-.304 0-1.458-.122-2.612-.365-1.397-.182-1.882-.243-2.429-.243-1.518 0-2.733 1.033-2.976 2.55-.364 2.066 1.458 3.523 4.434 3.523 2.854 0 5.222-1.214 7.651-3.826 2.126-2.307 3.523-5.1 4.008-7.894.486-2.733-.182-4.859-1.882-6.316-1.215-1.093-2.55-1.397-5.284-1.397h-5.283c-2.611 0-4.615-.243-5.648-.729-2.368-1.154-3.704-4.008-3.158-7.166.73-4.311 3.948-7.955 9.535-10.87 1.579.607 2.793.79 4.676.79 4.797 0 7.895-1.276 8.259-3.402.243-1.396-1.215-2.186-3.887-2.186-2.368 0-4.676.668-9.23 2.55-2.308-1.882-2.915-3.096-2.612-5.04.304-1.882 1.761-3.704 4.312-5.404 3.036-.122 5.162-.486 6.984-1.337 2.186-1.032 3.826-2.55 4.008-3.947.243-1.154-.668-1.822-2.369-1.822-2.246 0-4.98 1.397-9.412 4.859-1.944-.061-3.037-1.215-2.733-2.794.182-1.336 1.397-2.247 3.643-2.854z" style="opacity:.4;fill:#fff;stroke-width:.506072"/><path d="M68.428 52.138h10.263c7.045 0 8.927 1.397 9.96 7.409h1.579l-.608-9.899h-30l13.24 21.437L58.59 90.518h32.186l3.28-10.93h-1.58c-1.943 4.858-3.765 5.89-10.81 5.89H65.453L78.266 68.11Z" style="opacity:.4;fill:#fff;stroke-width:.506072"/><path d="M77.367 60.656v22.008c0 4.033-.583 4.664-4.42 4.907h13.602c-3.546-.243-4.226-.923-4.226-4.372V61.628c0-3.45.631-4.081 4.226-4.373v-.923h-9.668L66.145 80.867 54.922 56.332h-9.62v.923c3.984.243 4.616.826 4.616 4.373v19.724c0 5.004-.68 5.928-4.713 6.22h11.417c-3.74-.195-4.566-1.313-4.566-6.22V61.773L64.25 88.494h.68z" style="fill:#fff;stroke-width:.506072"/></svg>