<svg xmlns="http://www.w3.org/2000/svg" xmlns:xlink="http://www.w3.org/1999/xlink" xml:space="preserve" width="128" height="128" viewBox="0 0 128 128"><defs><linearGradient xlink:href="#text_x_ruby_a" id="text_x_ruby_b" x1="174.074" x2="132.276" y1="215.549" y2="141.753" gradientUnits="userSpaceOnUse"/><linearGradient id="text_x_ruby_a" x1="174.074" x2="132.276" y1="215.549" y2="141.753" gradientUnits="userSpaceOnUse"><stop offset="0" style="stop-color:#fff;stop-opacity:.40000001"/><stop offset="0" style="stop-color:#fff;stop-opacity:.40000001"/><stop offset=".41" style="stop-color:#fff;stop-opacity:.60000002"/><stop offset=".99" style="stop-color:#fff;stop-opacity:.80000001"/><stop offset="1" style="stop-color:#fff;stop-opacity:1"/></linearGradient><linearGradient id="text_x_ruby_c" x1="194.895" x2="141.028" y1="153.558" y2="117.409" gradientUnits="userSpaceOnUse"><stop offset="0" style="stop-color:#fff;stop-opacity:1"/><stop offset="0" style="stop-color:#fff;stop-opacity:1"/><stop offset=".99" style="stop-color:#fff;stop-opacity:.89999998"/><stop offset="1" style="stop-color:#fff;stop-opacity:.89999998"/></linearGradient><linearGradient id="text_x_ruby_d" x1="151.795" x2="97.93" y1="217.785" y2="181.638" gradientUnits="userSpaceOnUse"><stop offset="0" style="stop-color:#fff;stop-opacity:1"/><stop offset="0" style="stop-color:#fff;stop-opacity:1"/><stop offset=".99" style="stop-color:#fff;stop-opacity:.80000001"/><stop offset="1" style="stop-color:#fff;stop-opacity:.80000001"/></linearGradient><linearGradient id="text_x_ruby_e" x1="38.696" x2="47.047" y1="127.391" y2="181.661" gradientUnits="userSpaceOnUse"><stop offset="0" style="stop-color:#fff;stop-opacity:0"/><stop offset="0" style="stop-color:#fff;stop-opacity:0"/><stop offset=".23" style="stop-color:#fff;stop-opacity:.60000002"/><stop offset=".46" style="stop-color:#fff;stop-opacity:.60000002"/><stop offset=".99" style="stop-color:#fff;stop-opacity:.80000001"/><stop offset="1" style="stop-color:#fff;stop-opacity:.80000001"/></linearGradient><linearGradient id="text_x_ruby_f" x1="96.133" x2="99.21" y1="76.715" y2="132.102" gradientUnits="userSpaceOnUse"><stop offset="0" style="stop-color:#fff;stop-opacity:0"/><stop offset="0" style="stop-color:#fff;stop-opacity:0"/><stop offset=".23" style="stop-color:#fff;stop-opacity:.60000002"/><stop offset=".56" style="stop-color:#fff;stop-opacity:.80000001"/><stop offset=".99" style="stop-color:#fff;stop-opacity:1"/><stop offset="1" style="stop-color:#fff;stop-opacity:1"/></linearGradient><linearGradient id="text_x_ruby_g" x1="147.103" x2="156.314" y1="25.521" y2="65.216" gradientUnits="userSpaceOnUse"><stop offset="0" style="stop-color:#fff;stop-opacity:0"/><stop offset="0" style="stop-color:#fff;stop-opacity:0"/><stop offset=".18" style="stop-color:#fff;stop-opacity:.60000002"/><stop offset=".4" style="stop-color:#fff;stop-opacity:.80000001"/><stop offset=".99" style="stop-color:#fff;stop-opacity:1"/><stop offset="1" style="stop-color:#fff;stop-opacity:1"/></linearGradient><linearGradient id="text_x_ruby_h" x1="118.976" x2="158.669" y1="11.541" y2="-8.305" gradientUnits="userSpaceOnUse"><stop offset="0" style="stop-color:#fff;stop-opacity:0"/><stop offset="0" style="stop-color:#fff;stop-opacity:0"/><stop offset=".54" style="stop-color:#fff;stop-opacity:.60000002"/><stop offset=".99" style="stop-color:#fff;stop-opacity:.80000001"/><stop offset="1" style="stop-color:#fff;stop-opacity:.80000001"/></linearGradient><linearGradient id="text_x_ruby_i" x1="3.903" x2="7.17" y1="113.555" y2="146.263" gradientUnits="userSpaceOnUse"><stop offset="0" style="stop-color:#fff;stop-opacity:0"/><stop offset="0" style="stop-color:#fff;stop-opacity:0"/><stop offset=".31" style="stop-color:#fff;stop-opacity:.40000001"/><stop offset=".99" style="stop-color:#fff;stop-opacity:.60000002"/><stop offset="1" style="stop-color:#fff;stop-opacity:.60000002"/></linearGradient><linearGradient id="text_x_ruby_j" x1="-18.556" x2="135.015" y1="155.105" y2="-2.809" gradientTransform="translate(-520.968 -41.776)" gradientUnits="userSpaceOnUse"><stop offset="0" style="stop-color:#fff;stop-opacity:.80000001"/><stop offset="0" style="stop-color:#fff;stop-opacity:.80000001"/><stop offset=".07" style="stop-color:#fff;stop-opacity:0"/><stop offset=".17" style="stop-color:#fff;stop-opacity:0"/><stop offset=".27" style="stop-color:#fff;stop-opacity:.60000002"/><stop offset=".33" style="stop-color:#fff;stop-opacity:1"/><stop offset=".46" style="stop-color:#fff;stop-opacity:.80000001"/><stop offset=".72" style="stop-color:#fff;stop-opacity:.80000001"/><stop offset=".99" style="stop-color:#fff;stop-opacity:.40000001"/><stop offset="1" style="stop-color:#fff;stop-opacity:.40000001"/></linearGradient><linearGradient id="text_x_ruby_k" x1="99.075" x2="52.818" y1="171.033" y2="159.617" gradientTransform="translate(-520.968 -41.776)" gradientUnits="userSpaceOnUse"><stop offset="0" style="stop-color:#fff;stop-opacity:1"/><stop offset="0" style="stop-color:#fff;stop-opacity:1"/><stop offset=".54" style="stop-color:#fff;stop-opacity:.80000001"/><stop offset=".99" style="stop-color:#fff;stop-opacity:.60000002"/><stop offset="1" style="stop-color:#fff;stop-opacity:.60000002"/></linearGradient><linearGradient id="text_x_ruby_l" x1="178.526" x2="137.433" y1="115.515" y2="78.684" gradientTransform="translate(-520.968 -41.776)" gradientUnits="userSpaceOnUse"><stop offset="0" style="stop-color:#fff;stop-opacity:1"/><stop offset="0" style="stop-color:#fff;stop-opacity:1"/><stop offset=".99" style="stop-color:#fff;stop-opacity:.80000001"/><stop offset="1" style="stop-color:#fff;stop-opacity:.80000001"/></linearGradient><linearGradient id="text_x_ruby_m" x1="193.624" x2="173.154" y1="47.937" y2="26.054" gradientTransform="translate(-520.968 -41.776)" gradientUnits="userSpaceOnUse"><stop offset="0" style="stop-color:#fff;stop-opacity:1"/><stop offset="0" style="stop-color:#fff;stop-opacity:1"/><stop offset=".99" style="stop-color:#fff;stop-opacity:.80000001"/><stop offset="1" style="stop-color:#fff;stop-opacity:.80000001"/></linearGradient><linearGradient id="text_x_ruby_p" x1="26.67" x2="9.989" y1="197.336" y2="140.742" gradientTransform="translate(-520.968 -41.776)" gradientUnits="userSpaceOnUse"><stop offset="0" style="stop-color:#fff;stop-opacity:1"/><stop offset="0" style="stop-color:#fff;stop-opacity:1"/><stop offset=".43" style="stop-color:#fff;stop-opacity:.80000001"/><stop offset=".99" style="stop-color:#fff;stop-opacity:.60000002"/><stop offset="1" style="stop-color:#fff;stop-opacity:.60000002"/></linearGradient><linearGradient id="text_x_ruby_q" x1="154.641" x2="192.039" y1="9.798" y2="26.306" gradientTransform="translate(-520.968 -41.776)" gradientUnits="userSpaceOnUse"><stop offset="0" style="stop-color:#fff;stop-opacity:.60000002"/><stop offset="0" style="stop-color:#fff;stop-opacity:.60000002"/><stop offset=".44" style="stop-color:#fff;stop-opacity:.80000001"/><stop offset=".99" style="stop-color:#fff;stop-opacity:1"/><stop offset="1" style="stop-color:#fff;stop-opacity:1"/></linearGradient><radialGradient id="text_x_ruby_n" cx="143.832" cy="79.388" r="50.358" gradientTransform="translate(-520.968 -41.776)" gradientUnits="userSpaceOnUse"><stop offset="0" style="stop-color:#fff;stop-opacity:.80000001"/><stop offset="0" style="stop-color:#fff;stop-opacity:.80000001"/><stop offset=".99" style="stop-color:#fff;stop-opacity:1"/><stop offset="1" style="stop-color:#fff;stop-opacity:1"/></radialGradient><radialGradient id="text_x_ruby_o" cx="74.092" cy="145.751" r="66.944" gradientTransform="translate(-520.968 -41.776)" gradientUnits="userSpaceOnUse"><stop offset="0" style="stop-color:#fff;stop-opacity:.80000001"/><stop offset="0" style="stop-color:#fff;stop-opacity:.80000001"/><stop offset=".99" style="stop-color:#fff;stop-opacity:1"/><stop offset="1" style="stop-color:#fff;stop-opacity:1"/></radialGradient></defs><path d="M27.978 8h50l30.043 29.918.001 74.06c0 4.432-3.612 8.022-8.044 8.022h-72c-4.432 0-8-3.568-8-8V16c0-4.432 3.568-8 8-8" style="display:inline;fill:#be1a0d;fill-opacity:1;stroke:none;stroke-width:.125;stroke-linejoin:round;stroke-miterlimit:4;stroke-dasharray:none;stroke-opacity:1"/><path d="M77.978 8v22c0 4.432 3.61 7.923 8.043 7.923l22-.005z" style="display:inline;vector-effect:none;fill:#fff;fill-opacity:.30000001;stroke:none;stroke-width:.125;stroke-linecap:butt;stroke-linejoin:round;stroke-miterlimit:4;stroke-dasharray:none;stroke-dashoffset:0;stroke-opacity:1"/><g clip-rule="evenodd"><path d="m40.38 197.58 146.469-9.939L198.13 39.95l-44.63 90.46z" style="fill:url(#text_x_ruby_b);fill-rule:evenodd" transform="translate(34 44.166)scale(.30283)"/><path d="m140.209 145.93 46.88 41.61-12.589-86.89z" style="fill:url(#text_x_ruby_c);fill-rule:evenodd" transform="translate(34 44.166)scale(.30283)"/><path d="m40.87 197.391 146.389-9.851-92.229-7.24z" style="fill:url(#text_x_ruby_d);fill-rule:evenodd" transform="translate(34 44.166)scale(.30283)"/><path d="M13.34 132.771 41 197.41l23.04-75.48z" style="fill:url(#text_x_ruby_e);fill-rule:evenodd" transform="translate(34 44.166)scale(.30283)"/><path d="m58.33 120.01 81.87 26.17L119 63.14z" style="fill:url(#text_x_ruby_f);fill-rule:evenodd" transform="translate(34 44.166)scale(.30283)"/><path d="m120 69.1 73.32-4.79-57.35-46.84z" style="fill:url(#text_x_ruby_g);fill-rule:evenodd" transform="translate(34 44.166)scale(.30283)"/><path d="m111.49.52 55.01.25-33.73 18.64z" style="fill:url(#text_x_ruby_h);fill-rule:evenodd" transform="translate(34 44.166)scale(.30283)"/><path d="M2.7 101.62 0 158.09l14.13-25.77z" style="fill:url(#text_x_ruby_i);fill-rule:evenodd" transform="translate(34 44.166)scale(.30283)"/><path d="m-519.028 58.874 11.5 32.62 49.97-11.211 57.05-53.02 16.1-51.139-25.351-17.9-43.1 16.13c-13.58 12.63-39.93 37.62-40.88 38.09-.94.48-17.4 31.59-25.29 46.43" style="fill:#fff;fill-rule:evenodd" transform="translate(191.766 56.817)scale(.30283)"/><path d="M-478.648.274c29.43-29.18 67.37-46.42 81.93-31.73 14.55 14.69-.88 50.39-30.31 79.56s-66.9 47.36-81.45 32.67c-14.56-14.68.4-51.33 29.83-80.5" style="fill:url(#text_x_ruby_j);fill-rule:evenodd" transform="translate(191.766 56.817)scale(.30283)"/><path d="m-479.968 155.604 22.86-75.72 75.92 24.39c-27.45 25.74-57.98 47.5-98.78 51.33" style="fill:url(#text_x_ruby_k);fill-rule:evenodd" transform="translate(191.766 56.817)scale(.30283)"/><path d="m-400.408 27.114 19.49 77.2c22.93-24.11 43.51-50.03 53.589-82.09z" style="fill:url(#text_x_ruby_l);fill-rule:evenodd" transform="translate(191.766 56.817)scale(.30283)"/><path d="M-327.528 22.614c7.8-23.54 9.6-57.31-27.181-63.58l-30.18 16.67z" style="fill:url(#text_x_ruby_m);fill-rule:evenodd" transform="translate(191.766 56.817)scale(.30283)"/><path d="M-520.968 115.974c1.08 38.851 29.11 39.43 41.05 39.771l-27.58-64.411z" style="fill:#fff;fill-rule:evenodd" transform="translate(191.766 56.817)scale(.30283)"/><path d="M-400.3 27.234c17.62 10.83 53.132 32.58 53.852 32.98 1.119.63 15.31-23.93 18.53-37.81z" style="fill:url(#text_x_ruby_n);fill-rule:evenodd" transform="translate(191.766 56.817)scale(.30283)"/><path d="m-457.138 79.884 30.56 58.96c18.07-9.8 32.22-21.74 45.18-34.53z" style="fill:url(#text_x_ruby_o);fill-rule:evenodd" transform="translate(191.766 56.817)scale(.30283)"/><path d="m-507.618 91.414-4.33 51.56c8.17 11.16 19.41 12.13 31.2 11.26-8.53-21.23-25.57-63.68-26.87-62.82" style="fill:url(#text_x_ruby_p);fill-rule:evenodd" transform="translate(191.766 56.817)scale(.30283)"/><path d="m-385.068-24.166 60.71 8.52c-3.24-13.73-13.19-22.59-30.15-25.36z" style="fill:url(#text_x_ruby_q);fill-rule:evenodd" transform="translate(191.766 56.817)scale(.30283)"/></g></svg>