<svg xmlns="http://www.w3.org/2000/svg" xml:space="preserve" width="128" height="128" viewBox="0 0 128 128"><path d="M27.978 8h50l30.043 29.918.001 74.06c0 4.432-3.612 8.022-8.044 8.022h-72c-4.432 0-8-3.568-8-8V16c0-4.432 3.568-8 8-8" style="display:inline;fill:#005ca5;fill-opacity:1;stroke:none;stroke-width:.125;stroke-linejoin:round;stroke-miterlimit:4;stroke-dasharray:none;stroke-opacity:1"/><path d="M77.978 8v22c0 4.432 3.61 7.923 8.043 7.923l22-.005z" style="display:inline;vector-effect:none;fill:#fff;fill-opacity:.2;stroke:none;stroke-width:.125;stroke-linecap:butt;stroke-linejoin:round;stroke-miterlimit:4;stroke-dasharray:none;stroke-dashoffset:0;stroke-opacity:1;opacity:1"/><path d="M79.593 50.47a11.14 11.14 0 0 0 4.421-6.317 11.6 11.6 0 0 1-.045 5.403c-.558 1.458-1.42 2.773-2.089 4.181a54.5 54.5 0 0 1 11.42-7.36c-1.207 3.728-4.561 5.982-7.026 8.843.476 1.025.701 2.477 2.004 2.778a12.6 12.6 0 0 0 6.262.388c2.284-.784 3.37-3.151 4.509-5.097v3.68a39 39 0 0 1-1.458 4.378c.501 1.37 1.024 2.735 1.458 4.126v2.384c-.536.922-1.107 1.819-1.66 2.728a13.3 13.3 0 0 0-2.676-2.91 10.1 10.1 0 0 0-4.637-.314 8.05 8.05 0 0 0 6.045 3.682c-.9.927-1.661 2.285-3.081 2.428-4.111.618-8.034-1.265-12.122-1.253-.706.05-1.77.06-1.966.932 0 1.841.544 3.64.476 5.48-.148 3.152-1.283 6.178-1.325 9.334a34.5 34.5 0 0 0 2.099 8.637c-1.31-.193-2.615-.416-3.913-.651-.25.52-.46 1.052-.651 1.588a11.3 11.3 0 0 0 2.853 2.993 147 147 0 0 0-.604 1.273l-1.435.345c-.328.62-.659 1.233-1.002 1.852a11.1 11.1 0 0 0-5.51.152 288 288 0 0 1-3.48-1.42 14.9 14.9 0 0 0 1.02-5.799c-.707-2.46-4.008-2.465-5.01-4.702a15.6 15.6 0 0 1-2.56-7.141c-2.062-1.085-3.645-3.058-6.012-3.507-.12 1.025-.208 2.054-.383 3.074a15.1 15.1 0 0 1-3.377 6.026c.098 1.058.198 2.11.3 3.17q1.302 1.214 2.588 2.439a24.4 24.4 0 0 1-3.572 1.786 28 28 0 0 1-4.226.193l-1.946-1.914a12.2 12.2 0 0 0 .286-6.533 60 60 0 0 0 1.19-3.058 13.94 13.94 0 0 1-7.54.516 12.83 12.83 0 0 1-8.241-10.846A9.67 9.67 0 0 1 32.5 68.25a16.1 16.1 0 0 0-.601 6.55 7.61 7.61 0 0 0 6.262 6.177 8.67 8.67 0 0 0 4.91-1.61 18.74 18.74 0 0 1 .909-10.353 13.84 13.84 0 0 1 8.983-6.664A10.6 10.6 0 0 0 58 58.43a26.7 26.7 0 0 1 3.83-3.332c-.571-.548-1.135-1.102-1.703-1.65a5.4 5.4 0 0 0 3.584-4.286c3.216-.752 6.39-1.656 9.569-2.533a9.5 9.5 0 0 0 3.544 1.518c.794.867 1.238 2.898 2.756 2.325M70.12 83.94c.105 1.924-.12 4.17 1.688 5.398 0-1.89-.115-3.775-.25-5.66z" style="fill:#fff;stroke-width:2.50491"/></svg>