<svg xmlns="http://www.w3.org/2000/svg" width="128" height="128" viewBox="0 0 128 128"><path d="M27.978 8h50l30.043 29.918.001 74.06c0 4.432-3.612 8.022-8.044 8.022h-72c-4.432 0-8-3.568-8-8V16c0-4.432 3.568-8 8-8" style="display:inline;fill:#abbbce;fill-opacity:1;stroke:none;stroke-width:.125;stroke-linejoin:round;stroke-miterlimit:4;stroke-dasharray:none;stroke-opacity:1"/><path d="M77.978 8v22c0 4.432 3.61 7.923 8.043 7.923l22-.005z" style="display:inline;vector-effect:none;fill:#000;fill-opacity:.2;stroke:none;stroke-width:.125;stroke-linecap:butt;stroke-linejoin:round;stroke-miterlimit:4;stroke-dasharray:none;stroke-dashoffset:0;stroke-opacity:1"/><g aria-label="C" style="font-weight:700;font-size:123.472px;font-family:&quot;Neue Haas Grotesk Text Pro&quot;;-inkscape-font-specification:&quot;Neue Haas Grotesk Text Pro Bold&quot;;fill:#fff;fill-opacity:1;stroke-width:.264583"><path d="M204.335 132.388c-2.346-22.842-17.533-36.3-44.697-36.3-24.818 0-44.327 17.903-44.327 46.672 0 28.892 17.78 46.92 47.167 46.92 23.46 0 39.881-13.83 42.474-36.795h-28.028c-1.111 8.52-5.556 15.063-14.94 15.063-14.817 0-17.533-11.73-17.533-24.2 0-17.163 6.173-25.93 16.421-25.93 9.137 0 14.94 5.31 15.805 14.57z" style="font-weight:900;font-family:&quot;Helvetica LT Std&quot;;-inkscape-font-specification:&quot;Helvetica LT Std Heavy&quot;;fill:#fff;fill-opacity:1" transform="translate(-38.657 -17.598)scale(.64108)"/></g></svg>