<svg xmlns="http://www.w3.org/2000/svg" width="128" height="128" viewBox="0 0 128 128"><path d="M27.978 8h50l30.043 29.918.001 74.06c0 4.432-3.612 8.022-8.044 8.022h-72c-4.432 0-8-3.568-8-8V16c0-4.432 3.568-8 8-8" style="display:inline;fill:#5382a1;fill-opacity:1;stroke:none;stroke-width:.125;stroke-linejoin:round;stroke-miterlimit:4;stroke-dasharray:none;stroke-opacity:1"/><path d="M77.978 8v22c0 4.432 3.61 7.923 8.043 7.923l22-.005z" style="display:inline;vector-effect:none;fill:#f8981d;fill-opacity:1;stroke:none;stroke-width:.125;stroke-linecap:butt;stroke-linejoin:round;stroke-miterlimit:4;stroke-dasharray:none;stroke-dashoffset:0;stroke-opacity:1"/><g style="fill:#fff"><path d="M-274.602 50.122a3.7 3.7 0 0 0-1.4.217c-.342.122-.52.401-.52.401s.213-.086.696-.187c1.97-.41 4.793 2.639-1.312 5.811a.5.5 0 0 1-.124.16c7.135-1.875 5.734-6.255 2.66-6.402m-13.548-.322c-.779.021-2.598.189-4.717 1.213-3.34 1.616 8.26 2.351 14.266.772.625-.426 1.487-.796 1.487-.796s-2.456.439-4.903.645c-2.995.251-6.213.3-7.825.085-3.82-.51 2.095-1.915 2.095-1.915s-.144-.01-.404-.003m-.974 4.225c-5.512 1.83 3.067 3.905 10.769 1.652a3.85 3.85 0 0 1-1.34-.817c-3.763.725-5.938.704-8.693.42-2.13-.221-.736-1.255-.736-1.255m.781 3.947c-5.003 1.398 3.042 4.287 9.412 1.556a11.6 11.6 0 0 1-1.788-.874c-2.842.538-4.162.578-6.74.283-2.129-.244-.884-.965-.884-.965" style="fill:#fff" transform="translate(587.793 -15.042)scale(1.84386)"/><path d="M-291.58 60.203c-2.15-.082-7.031 2.066-2.864 2.741 12.988 2.107 23.675-.95 20.306-2.47 0 0 .92.76-1.013 1.346-3.677 1.114-15.303 1.45-18.533.045-1.161-.505 1.016-1.207 1.7-1.354.715-.155 1.125-.124 1.125-.124-.161-.113-.413-.172-.72-.184" style="fill:#fff" transform="translate(587.793 -15.042)scale(1.84386)"/><path d="M-272.075 61.58s-.41 1.05-4.843 1.884c-5.002.942-11.171.833-14.83.23 0 0 .75.618 4.601.865 5.86.375 14.859-.206 15.072-2.98m-8.477-29.458c1.364 5.372-4.81 6.997-7.038 10.343-1.518 2.28.743 4.727 3.827 7.509-1.203-2.718-5.28-5.095.003-9.267 6.587-5.2 3.208-8.585 3.208-8.585" style="fill:#fff" transform="translate(587.793 -15.042)scale(1.84386)"/><path d="M-276.818 38.767s-11.138 2.784-5.817 8.914c1.57 1.807-.413 3.435-.413 3.435s3.986-2.059 2.156-4.635c-1.71-2.403-3.023-3.598 4.074-7.714" style="fill:#fff" transform="translate(587.793 -15.042)scale(1.84386)"/></g></svg>