<svg xmlns="http://www.w3.org/2000/svg" width="128" height="128" viewBox="0 0 128 128"><path d="M27.978 8h50l30.043 29.918.001 74.06c0 4.432-3.612 8.022-8.044 8.022h-72c-4.432 0-8-3.568-8-8V16c0-4.432 3.568-8 8-8" style="display:inline;fill:#a72145;fill-opacity:1;stroke:none;stroke-width:.125;stroke-linejoin:round;stroke-miterlimit:4;stroke-dasharray:none;stroke-opacity:1"/><path d="M77.978 8v22c0 4.432 3.61 7.923 8.043 7.923l22-.005z" style="display:inline;vector-effect:none;fill:#fff;fill-opacity:.30000001;stroke:none;stroke-width:.125;stroke-linecap:butt;stroke-linejoin:round;stroke-miterlimit:4;stroke-dasharray:none;stroke-dashoffset:0;stroke-opacity:1"/><path d="M42.53 61.037a1.714 1.714 0 0 0-1.748 1.18l-2.473 7.608a1.714 1.714 0 0 0 2.41 2.057l5.04-2.568a1.714 1.714 0 0 0 .749-2.306l-2.568-5.04a1.71 1.71 0 0 0-1.41-.931m-.114 4.16a1.7 1.7 0 0 1 .376.077 1.714 1.714 0 0 1 1.102 2.16 1.714 1.714 0 0 1-2.16 1.1 1.714 1.714 0 0 1-1.101-2.16 1.714 1.714 0 0 1 1.783-1.177m9.805 23.236a2 2 0 0 0-.244.02l-5.587.886a1.714 1.714 0 0 0-.74 3.08l6.472 4.702a1.714 1.714 0 0 0 2.701-1.655l-.885-5.587a1.714 1.714 0 0 0-1.717-1.446m-1.731 2.313a1.7 1.7 0 0 1 1.083.325 1.714 1.714 0 0 1 .38 2.395 1.714 1.714 0 0 1-2.394.38 1.714 1.714 0 0 1-.38-2.395 1.71 1.71 0 0 1 1.31-.705m25.29-2.313a1.714 1.714 0 0 0-1.716 1.446l-.885 5.587a1.714 1.714 0 0 0 2.7 1.655l6.472-4.703a1.714 1.714 0 0 0-.74-3.08l-5.586-.884a2 2 0 0 0-.245-.021m1.733 2.313a1.71 1.71 0 0 1 1.31.705 1.714 1.714 0 0 1-.38 2.395 1.714 1.714 0 0 1-2.394-.38 1.714 1.714 0 0 1 .379-2.395 1.7 1.7 0 0 1 1.085-.325m7.96-29.709a1.71 1.71 0 0 0-1.41.93l-2.568 5.04a1.714 1.714 0 0 0 .748 2.307l5.04 2.568a1.714 1.714 0 0 0 2.409-2.057l-2.472-7.608a1.71 1.71 0 0 0-1.496-1.179 2 2 0 0 0-.252 0m.112 4.16a1.714 1.714 0 0 1 1.784 1.177 1.714 1.714 0 0 1-1.1 2.16 1.714 1.714 0 0 1-2.16-1.1 1.714 1.714 0 0 1 1.1-2.16 1.7 1.7 0 0 1 .376-.077M60 48.253a1.714 1.714 0 0 0-1.212 2.926l4 4a1.714 1.714 0 0 0 2.424 0l4-4A1.714 1.714 0 0 0 68 48.253zm4 1.143a1.714 1.714 0 0 1 1.714 1.714A1.714 1.714 0 0 1 64 52.824a1.714 1.714 0 0 1-1.715-1.714A1.714 1.714 0 0 1 64 49.396m0-2.536c-14.96 0-27.142 12.183-27.142 27.142 0 14.96 12.182 27.143 27.142 27.143s27.142-12.183 27.142-27.143S78.96 46.86 64 46.86m0 2.527a1.714 1.714 0 0 1 1.714 1.714 1.7 1.7 0 0 1-.317.945c8.674.54 15.96 6.07 19.036 13.766a1.7 1.7 0 0 1 .775-.547 1.714 1.714 0 0 1 2.16 1.1 1.714 1.714 0 0 1-1.1 2.16 1.7 1.7 0 0 1-.948.014c.443 1.746.68 3.576.68 5.463a21.94 21.94 0 0 1-7.867 16.882 1.7 1.7 0 0 1 .69.558 1.714 1.714 0 0 1-.38 2.395 1.714 1.714 0 0 1-2.394-.38 1.7 1.7 0 0 1-.317-.826A21.94 21.94 0 0 1 64 96.001a21.94 21.94 0 0 1-11.738-3.373 1.7 1.7 0 0 1-.31.83 1.714 1.714 0 0 1-2.394.379 1.714 1.714 0 0 1-.38-2.395 1.7 1.7 0 0 1 .69-.558A21.94 21.94 0 0 1 42 74.002c0-1.88.236-3.704.677-5.445a1.7 1.7 0 0 1-.944-.031 1.714 1.714 0 0 1-1.1-2.16 1.714 1.714 0 0 1 2.159-1.101 1.7 1.7 0 0 1 .788.533c3.078-7.687 10.356-13.212 19.024-13.752a1.7 1.7 0 0 1-.318-.945A1.714 1.714 0 0 1 64 49.387m24.886 17.157a.86.86 0 0 0-.281.816l.669 3.363a.857.857 0 0 0 1.416.468l2.468-2.239a.857.857 0 0 0-.287-1.442l-3.136-1.124a.86.86 0 0 0-.849.158m1.696 1.967.366.131-.288.261zm-.467 2.045 2.467-2.24-3.136-1.123zm-3.162-8.724a.86.86 0 0 0-.117.856l1.312 3.167a.857.857 0 0 0 1.481.183l1.984-2.677A.857.857 0 0 0 91.05 62l-3.296-.49a.86.86 0 0 0-.8.321m2.046 1.6.385.057-.232.312zm-.06 2.096 1.984-2.677-3.296-.49zm-4.802-7.939a.86.86 0 0 0 .052.862l1.905 2.85a.857.857 0 0 0 1.488-.109l1.423-3.013a.857.857 0 0 0-.817-1.223l-3.328.162a.86.86 0 0 0-.723.471m2.319 1.169.388-.02-.166.352zm.35 2.067 1.424-3.012-3.328.162zm-6.258-6.85a.86.86 0 0 0 .22.836l2.424 2.424a.857.857 0 0 0 1.437-.398l.808-3.232a.857.857 0 0 0-1.04-1.04l-3.232.808a.86.86 0 0 0-.617.603m2.502.695.377-.095-.094.377zm.748 1.959.808-3.232-3.233.808zm-7.475-5.497a.86.86 0 0 0 .378.776l2.85 1.905a.857.857 0 0 0 1.333-.67l.162-3.329a.857.857 0 0 0-1.223-.817l-3.013 1.423a.86.86 0 0 0-.487.712m2.59.192.35-.166-.018.388zm1.115 1.776.162-3.328-3.013 1.424zm-8.404-3.933a.86.86 0 0 0 .522.688l3.168 1.312a.857.857 0 0 0 1.176-.918L76 46.953a.857.857 0 0 0-1.36-.563l-2.677 1.983a.86.86 0 0 0-.34.793m2.577-.316.313-.232.056.385zm1.44 1.524-.49-3.296-2.677 1.984zm-9.009-2.218a.86.86 0 0 0 .646.572l3.363.67a.857.857 0 0 0 .975-1.13l-1.124-3.137a.857.857 0 0 0-1.443-.287l-2.239 2.468a.86.86 0 0 0-.178.844m2.466-.813.261-.289.131.366zm1.71 1.214-1.124-3.137-2.238 2.468zm-9.269-.418a.86.86 0 0 0 .746.435h3.428a.857.857 0 0 0 .736-1.298l-1.715-2.857a.857.857 0 0 0-1.47 0l-1.715 2.857a.86.86 0 0 0-.01.863m2.26-1.279.2-.334.2.334zm1.914.857L64 44.86l-1.714 2.857zm-9.172 1.399a.86.86 0 0 0 .816.281l3.363-.669a.857.857 0 0 0 .468-1.416l-2.239-2.468a.857.857 0 0 0-1.443.287l-1.124 3.137a.86.86 0 0 0 .159.848m1.967-1.696.13-.366.262.289zm2.044.468-2.238-2.468-1.124 3.137zm-8.723 3.161a.86.86 0 0 0 .855.117l3.168-1.312a.857.857 0 0 0 .183-1.48l-2.677-1.984a.857.857 0 0 0-1.36.563l-.49 3.295a.86.86 0 0 0 .321.801m1.599-2.046.056-.385.313.232zm2.096.059-2.677-1.984-.49 3.296zm-7.94 4.802a.86.86 0 0 0 .863-.052l2.85-1.905a.857.857 0 0 0-.11-1.488l-3.012-1.423a.857.857 0 0 0-1.223.817l.162 3.328a.86.86 0 0 0 .47.723m1.17-2.319-.02-.388.352.166zm2.067-.35-3.01-1.425.162 3.328zm-6.85 6.258a.86.86 0 0 0 .835-.219l2.425-2.424a.857.857 0 0 0-.398-1.438l-3.232-.808a.857.857 0 0 0-1.04 1.04l.808 3.232a.86.86 0 0 0 .603.617m.694-2.502-.094-.377.377.095zm1.96-.747-3.233-.808.808 3.232zm-5.497 7.475a.86.86 0 0 0 .776-.378l1.905-2.851a.857.857 0 0 0-.67-1.333l-3.329-.162a.857.857 0 0 0-.817 1.223l1.423 3.013a.86.86 0 0 0 .712.488m.192-2.59-.166-.352.388.02zm1.776-1.115-3.328-.162 1.423 3.012zm-3.933 8.403a.86.86 0 0 0 .688-.522l1.312-3.167a.857.857 0 0 0-.918-1.177l-3.296.49a.857.857 0 0 0-.563 1.36l1.984 2.677a.86.86 0 0 0 .793.34m-.317-2.577-.232-.312.385-.057zm1.525-1.44-3.296.49 1.984 2.677zm-2.218 9.01a.86.86 0 0 0 .572-.647l.669-3.363a.857.857 0 0 0-1.13-.974L35.13 67.51a.857.857 0 0 0-.287 1.442l2.468 2.239a.86.86 0 0 0 .844.178m-.814-2.467-.288-.261.366-.13zm1.214-1.71-3.136 1.124 2.467 2.239zm-.417 9.27a.86.86 0 0 0 .435-.746v-3.429a.857.857 0 0 0-1.298-.735l-2.857 1.714a.857.857 0 0 0 0 1.47l2.857 1.715a.86.86 0 0 0 .863.01zm-1.28-2.26-.333-.2.334-.2zm.858-1.915-2.857 1.714 2.857 1.715zm1.398 9.172a.86.86 0 0 0 .282-.816l-.669-3.362a.857.857 0 0 0-1.416-.468l-2.468 2.238a.857.857 0 0 0 .287 1.443l3.136 1.124a.86.86 0 0 0 .848-.159m-1.695-1.967-.366-.13.288-.261zm.467-2.044-2.467 2.239 3.136 1.124zm3.162 8.723a.86.86 0 0 0 .117-.855l-1.312-3.168a.857.857 0 0 0-1.481-.182l-1.984 2.677a.857.857 0 0 0 .563 1.359l3.296.49a.86.86 0 0 0 .8-.32M39 84.574l-.385-.057.232-.312zm.06-2.097-1.984 2.678 3.296.49zm4.802 7.94a.86.86 0 0 0-.052-.862l-1.905-2.851a.857.857 0 0 0-1.488.11l-1.423 3.012a.857.857 0 0 0 .817 1.223l3.328-.162a.86.86 0 0 0 .723-.47m-2.319-1.17-.388.02.166-.351zm-.35-2.067-1.424 3.013 3.328-.162zm6.258 6.85a.86.86 0 0 0-.22-.835l-2.424-2.425a.857.857 0 0 0-1.437.398l-.808 3.233a.857.857 0 0 0 1.04 1.04l3.232-.808a.86.86 0 0 0 .617-.603m-2.502-.694-.377.095.094-.377zm-.748-1.96-.808 3.233 3.233-.808zm7.475 5.497a.86.86 0 0 0-.378-.776l-2.85-1.904a.857.857 0 0 0-1.333.67l-.162 3.328a.857.857 0 0 0 1.223.817l3.013-1.423a.86.86 0 0 0 .487-.712m-2.59-.192-.35.167.018-.389zm-1.115-1.776-.162 3.328 3.013-1.423zm8.404 3.933a.86.86 0 0 0-.522-.687l-3.168-1.312a.857.857 0 0 0-1.176.917l.49 3.296a.857.857 0 0 0 1.36.563l2.677-1.984a.86.86 0 0 0 .34-.793m-2.577.317-.313.232-.056-.385zm-1.44-1.524.49 3.295 2.677-1.983zm9.009 2.218a.86.86 0 0 0-.646-.573l-3.363-.669a.857.857 0 0 0-.975 1.13l1.124 3.136a.857.857 0 0 0 1.443.287l2.239-2.467a.86.86 0 0 0 .178-.844m-2.466.813-.261.288-.131-.366zm-1.71-1.214 1.124 3.137 2.238-2.468zm9.269.418a.86.86 0 0 0-.746-.436h-3.428a.857.857 0 0 0-.736 1.298l1.715 2.857a.857.857 0 0 0 1.47 0l1.715-2.857a.86.86 0 0 0 .01-.862m-2.26 1.279-.2.333-.2-.333zm-1.914-.858L64 103.145l1.714-2.858zm9.172-1.398a.86.86 0 0 0-.816-.282l-3.363.67a.857.857 0 0 0-.468 1.416l2.239 2.467a.857.857 0 0 0 1.443-.287l1.124-3.136a.86.86 0 0 0-.159-.848m-1.967 1.695-.13.366-.262-.288zm-2.044-.467 2.238 2.468 1.124-3.137zm8.723-3.161a.86.86 0 0 0-.855-.117l-3.168 1.312a.857.857 0 0 0-.183 1.48l2.677 1.984a.857.857 0 0 0 1.36-.563l.49-3.296a.86.86 0 0 0-.321-.8m-1.599 2.046-.056.385-.313-.232zm-2.096-.06 2.677 1.984.49-3.295zm7.94-4.802a.86.86 0 0 0-.863.053l-2.85 1.904a.857.857 0 0 0 .11 1.488l3.012 1.423a.857.857 0 0 0 1.223-.817l-.162-3.328a.86.86 0 0 0-.47-.723m-1.17 2.32.02.388-.352-.167zm-2.067.35 3.013 1.423-.162-3.328zm6.85-6.259a.86.86 0 0 0-.835.22l-2.425 2.424a.857.857 0 0 0 .398 1.438l3.232.808a.857.857 0 0 0 1.04-1.04l-.808-3.233a.86.86 0 0 0-.603-.617m-.694 2.503.094.377-.377-.095zm-1.96.747 3.233.808-.808-3.232zm5.497-7.475a.86.86 0 0 0-.776.378l-1.905 2.85a.857.857 0 0 0 .67 1.333l3.329.162a.857.857 0 0 0 .817-1.223l-1.423-3.012a.86.86 0 0 0-.712-.488m-.192 2.59.166.351-.388-.02zm-1.776 1.115 3.328.162-1.423-3.013zm3.933-8.404a.86.86 0 0 0-.688.522l-1.312 3.168a.857.857 0 0 0 .918 1.176l3.296-.49a.857.857 0 0 0 .563-1.36l-1.984-2.676a.86.86 0 0 0-.793-.34m.317 2.578.232.312-.385.057zm-1.525 1.44 3.296-.49-1.984-2.678zm2.218-9.01a.86.86 0 0 0-.572.647l-.669 3.362a.857.857 0 0 0 1.13.975l3.136-1.124a.857.857 0 0 0 .287-1.443l-2.468-2.238a.86.86 0 0 0-.844-.179m.814 2.467.288.26-.366.131zm-1.214 1.71 3.136-1.124-2.467-2.239zm.417-9.27a.86.86 0 0 0-.435.746v3.429a.857.857 0 0 0 1.298.735l2.857-1.714a.857.857 0 0 0 0-1.471l-2.857-1.714a.86.86 0 0 0-.863-.01zm1.28 2.26.333.2-.334.2zm2 .2-2.858-1.714v3.429zM44 59.145a.286.286 0 0 0-.285.286v6.286a.286.286 0 0 0 .285.285h5.429v14.286h-8.286a.286.286 0 0 0-.285.286v6.285a.286.286 0 0 0 .285.286H64a.286.286 0 0 0 .286-.286v-6.285a.286.286 0 0 0-.286-.286h-4.857v-4h5.428c1.49 0 2.333.606 2.938 1.564.604.957.927 2.285 1.212 3.638s.531 2.725 1.059 3.799 1.405 1.856 2.791 1.856h14.286a.286.286 0 0 0 .285-.286V76.002a.286.286 0 0 0-.285-.285h-3.429a.286.286 0 0 0-.286.285v1.143c0 1.09-.301 1.834-.738 2.318-.437.485-1.02.721-1.633.753-1.227.065-2.523-.713-2.777-1.984-.297-1.486-1.032-2.804-1.768-3.76a7.7 7.7 0 0 0-1.058-1.143c-.117-.1-.223-.168-.329-.238 1.895-1.12 3.161-2.462 3.756-3.909.644-1.57.587-3.221.03-4.709-1.116-2.974-4.213-5.328-7.768-5.328zm15.143 6.857h7.143c1.095 0 1.89.275 2.4.658s.742.866.742 1.342-.231.96-.742 1.343c-.51.383-1.305.657-2.4.657h-7.143z" style="color:#000;fill:#fff;stroke-width:.571417;stroke-linejoin:round;-inkscape-stroke:none"/></svg>