<svg xmlns="http://www.w3.org/2000/svg" width="128" height="128" viewBox="0 0 128 128"><path d="M27.978 8h50l30.043 29.918v74.06c0 4.432-3.611 8.022-8.043 8.022h-72c-4.432 0-8-3.568-8-8V16c0-4.432 3.568-8 8-8" style="display:inline;fill:#f6f5f4;fill-opacity:1;stroke:none;stroke-width:.125;stroke-linejoin:round;stroke-miterlimit:4;stroke-dasharray:none;stroke-opacity:1"/><path d="M77.978 8v22c0 4.432 3.61 7.923 8.042 7.923l22-.005z" style="display:inline;vector-effect:none;fill:#deddda;fill-opacity:1;stroke:none;stroke-width:.125;stroke-linecap:butt;stroke-linejoin:round;stroke-miterlimit:4;stroke-dasharray:none;stroke-dashoffset:0;stroke-opacity:1"/><rect width="58.868" height="34.045" x="34.566" y="69.954" rx="4.528" ry="4.528" style="display:inline;fill:#000;fill-opacity:1;stroke:none;stroke-width:.141509;stroke-linecap:butt;stroke-linejoin:miter;stroke-miterlimit:4;stroke-dasharray:none;stroke-dashoffset:0;stroke-opacity:1;marker:none;marker-start:none;marker-mid:none;marker-end:none;paint-order:normal"/><path d="M45.51 70.98v3.967h-9.812v24.06h9.814v3.966h43.394c1.881 0 3.396-1.63 3.396-3.655V74.947h-9.818V70.98z" style="display:inline;fill:#fff;fill-opacity:1;stroke:none;stroke-width:.146798;stroke-linecap:butt;stroke-linejoin:miter;stroke-miterlimit:4;stroke-dasharray:none;stroke-dashoffset:0;stroke-opacity:1;marker:none;marker-start:none;marker-mid:none;marker-end:none;paint-order:normal"/><path d="M107 94v5" style="display:inline;fill:none;stroke:#000;stroke-width:1;stroke-linejoin:round" transform="translate(-92.793 -51.464)scale(1.23052)"/><path d="M37.629 44a3.07 3.07 0 0 0-3.063 3.063v14.816a3.07 3.07 0 0 0 3.063 3.064h14.818a3.07 3.07 0 0 0 3.062-3.064V47.063a3.07 3.07 0 0 0-3.062-3.064z" style="baseline-shift:baseline;display:inline;overflow:visible;vector-effect:none;fill:#000;stroke-width:.602128;stop-color:#000"/><path d="M38.23 44.849a2.82 2.82 0 0 0-2.815 2.815v13.615a2.82 2.82 0 0 0 2.814 2.815h13.617a2.82 2.82 0 0 0 2.814-2.815V47.664a2.82 2.82 0 0 0-2.814-2.815z" style="baseline-shift:baseline;display:inline;overflow:visible;vector-effect:none;fill:#00fc04;fill-opacity:1;stroke-width:.553308;stop-color:#000"/><path d="M45.038 44.849c-5.307 0-9.623 4.315-9.623 9.622s4.316 9.623 9.623 9.623 9.622-4.317 9.622-9.623c0-5.307-4.316-9.622-9.622-9.622m0 1.374a8.237 8.237 0 0 1 8.248 8.248 8.24 8.24 0 0 1-8.248 8.248 8.24 8.24 0 0 1-8.248-8.248 8.237 8.237 0 0 1 8.248-8.248" style="baseline-shift:baseline;display:inline;overflow:visible;vector-effect:none;stroke-width:.632349;stop-color:#000"/><path d="M43.841 91.492v2.699h2.647q.946 0 1.343.37.409.358.409.947 0 .575-.41.946-.396.358-1.342.358H40.81q-.946 0-1.355-.358-.397-.37-.397-.96 0-.575.41-.933.409-.37 1.342-.37h.41V83.935h-.41q-.946 0-1.355-.358-.397-.37-.397-.96 0-.587.397-.945.41-.371 1.355-.371l6.036.013q2.66 0 4.207 1.457 1.56 1.445 1.56 3.53 0 1.15-.524 2.174-.397.767-1.33 1.521-.92.742-1.893 1.126-.959.37-2.544.37zm0-2.621h2.43q1.713 0 2.71-.767 1.01-.78 1.01-1.867 0-.921-.818-1.611-.805-.691-2.314-.691H43.84zm25.866-8.644V94.19h.448q.933 0 1.343.37.409.358.409.947 0 .575-.41.946-.396.358-1.342.358h-3.069v-.64q-.895.525-1.88.793-.972.269-2.02.269-2.954 0-4.757-1.7-1.803-1.714-1.803-4.259 0-2.66 1.892-4.54 1.893-1.88 4.617-1.88 1.023 0 2.007.32.985.307 1.944.934v-3.26h-.448q-.946 0-1.355-.359-.396-.37-.396-.946 0-.588.396-.947.41-.37 1.355-.37zm-2.621 11.125q0-1.624-1.138-2.75t-2.788-1.125q-1.637 0-2.775 1.125t-1.138 2.711q0 1.445 1.023 2.379 1.023.92 2.89.92 1.854 0 2.89-.92 1.036-.934 1.036-2.34" aria-label="Pd" style="font-weight:700;font-size:46.2667px;line-height:1;font-family:&quot;Courier New&quot;;-inkscape-font-specification:&quot;Courier New Bold&quot;;letter-spacing:4.62667px;display:inline;stroke-width:1.30943"/></svg>