<svg xmlns="http://www.w3.org/2000/svg" width="128" height="128" viewBox="0 0 128 128"><path d="M27.978 8h50l30.043 29.918.001 74.06c0 4.432-3.612 8.022-8.044 8.022h-72c-4.432 0-8-3.568-8-8V16c0-4.432 3.568-8 8-8" style="display:inline;fill:#726397;fill-opacity:1;stroke:none;stroke-width:.125;stroke-linejoin:round;stroke-miterlimit:4;stroke-dasharray:none;stroke-opacity:1"/><path d="M77.978 8v22c0 4.432 3.61 7.923 8.043 7.923l22-.005z" style="display:inline;vector-effect:none;fill:#fff;fill-opacity:.30000001;stroke:none;stroke-width:.125;stroke-linecap:butt;stroke-linejoin:round;stroke-miterlimit:4;stroke-dasharray:none;stroke-dashoffset:0;stroke-opacity:1"/><path fill="#fff" d="M57.46 103.996 56.17 49.35q-5.625 2.109-8.787 6.6-3.127 4.493-3.127 11.172 0 1.523.157 2.5.194.938.39 1.524.196.547.353.859.194.312.194.547-2.07 0-3.67-.39-1.603-.43-2.697-1.329-1.056-.896-1.642-2.382-.547-1.482-.547-3.67 0-2.657 1.132-5.235 1.171-2.576 3.164-4.883 2.03-2.303 4.727-4.256 2.736-1.954 5.82-3.36 3.124-1.445 6.484-2.225 3.399-.823 6.759-.823.898 0 1.64.039.78.039 1.56.117l.705 49.217L85.62 44.386h5.586L68.98 103.998H57.457Z" style="stroke-width:1.7647"/></svg>