<svg xmlns="http://www.w3.org/2000/svg" width="128" height="128" viewBox="0 0 128 128"><g style="display:inline"><path d="M124.828 857.328h200L445 977l.005 296.24c0 17.728-14.449 32.088-32.177 32.088h-288c-17.728 0-32-14.272-32-32v-384c0-17.728 14.272-32 32-32" style="display:inline;fill:#f6f5f4;fill-opacity:1;stroke:none;stroke-width:.5;stroke-linejoin:round;stroke-miterlimit:4;stroke-dasharray:none;stroke-opacity:1" transform="matrix(.25 0 0 .25 -3.23 -206.332)"/><path d="M324.828 857.328v88c0 17.728 14.443 31.694 32.17 31.694L445 977Z" style="display:inline;vector-effect:none;fill:#deddda;fill-opacity:1;stroke:none;stroke-width:.5;stroke-linecap:butt;stroke-linejoin:round;stroke-miterlimit:4;stroke-dasharray:none;stroke-dashoffset:0;stroke-opacity:1" transform="matrix(.25 0 0 .25 -3.23 -206.332)"/></g><path d="m33.978 35.99 35.99.02c1.108 0 2 .891 2 2 0 1.107-.892 2-2 2l-35.99-.02c-1.108 0-2-.891-2-2 0-1.107.892-2 2-2m0-8 35.99.02c1.108 0 2 .891 2 2 0 1.107-.892 2-2 2l-35.99-.02c-1.108 0-2-.891-2-2 0-1.107.892-2 2-2" style="display:inline;fill:#deddda;stroke-width:2;stroke-linecap:round;paint-order:markers stroke fill;stop-color:#000"/><rect width="64" height="4" x="31.978" y="76" rx="2" ry="2" style="display:inline;fill:#deddda;fill-opacity:1;stroke-width:2;stroke-linecap:round;paint-order:markers stroke fill;stop-color:#000"/><rect width="64" height="4" x="31.978" y="68" rx="2" ry="2" style="display:inline;fill:#deddda;fill-opacity:1;stroke-width:2;stroke-linecap:round;paint-order:markers stroke fill;stop-color:#000"/><rect width="64" height="4" x="31.978" y="60" rx="2" ry="2" style="display:inline;fill:#deddda;fill-opacity:1;stroke-width:2;stroke-linecap:round;paint-order:markers stroke fill;stop-color:#000"/><rect width="64" height="4" x="31.978" y="52" rx="2" ry="2" style="display:inline;fill:#deddda;fill-opacity:1;stroke-width:2;stroke-linecap:round;paint-order:markers stroke fill;stop-color:#000"/><rect width="64" height="4" x="31.978" y="44" rx="2" ry="2" style="display:inline;fill:#deddda;fill-opacity:1;stroke-width:2;stroke-linecap:round;paint-order:markers stroke fill;stop-color:#000"/><path d="M36.667 99.315v-10.63h3.126l3.126 3.908 3.126-3.907h3.126v10.629h-3.126v-6.096l-3.126 3.907-3.126-3.907v6.096zm19.538 0-4.689-5.158h3.126v-5.471h3.126v5.47h3.126zM34.322 83.996a2.357 2.357 0 0 0-2.344 2.345v15.318a2.357 2.357 0 0 0 2.344 2.345h27.823a2.36 2.36 0 0 0 2.345-2.345V86.34a2.36 2.36 0 0 0-2.345-2.345zm0 1.563h27.823c.446 0 .78.336.78.782v15.318a.763.763 0 0 1-.78.782H34.322a.763.763 0 0 1-.781-.782V86.34c0-.446.334-.782.78-.782" style="fill:#000;fill-opacity:.7;stroke-width:.156305"/><path d="m70.554 84.004 23.424-.008c1.108 0 2 .892 2 2s-.892 2-2 2l-23.424.008c-1.108 0-2-.892-2-2s.892-2 2-2m0 8 23.424-.008c1.108 0 2 .892 2 2s-.892 2-2 2l-23.424.008c-1.108 0-2-.892-2-2s.892-2 2-2m0 8 23.424-.008c1.108 0 2 .892 2 2s-.892 2-2 2l-23.424.008c-1.108 0-2-.892-2-2s.892-2 2-2" style="display:inline;fill:#deddda;stroke-width:2;stroke-linecap:round;paint-order:markers stroke fill;stop-color:#000"/></svg>