<svg xmlns="http://www.w3.org/2000/svg" width="128" height="128" viewBox="0 0 128 128"><path d="M27.978 8h50l30.043 29.918.001 74.06c0 4.432-3.612 8.022-8.044 8.022h-72c-4.432 0-8-3.568-8-8V16c0-4.432 3.568-8 8-8" style="display:inline;fill:#649ad2;fill-opacity:1;stroke:none;stroke-width:.125;stroke-linejoin:round;stroke-miterlimit:4;stroke-dasharray:none;stroke-opacity:1"/><path d="M77.978 8v22c0 4.432 3.61 7.923 8.043 7.923l22-.005z" style="display:inline;vector-effect:none;fill:#00589c;fill-opacity:1;stroke:none;stroke-width:.125;stroke-linecap:butt;stroke-linejoin:round;stroke-miterlimit:4;stroke-dasharray:none;stroke-dashoffset:0;stroke-opacity:1"/><path d="M34 44.002v60h15v-22.5h30v22.5h15v-60H79v22.5H49v-22.5z" style="fill:#fff;fill-rule:evenodd;stroke-width:3.35147;stroke-linecap:round;stroke-linejoin:round;stroke-miterlimit:10"/><path fill="#fff" d="M232.334 177.841v11.334h11.332v-11.334H255v-11.333h-11.334v-11.333h-11.332v11.333H221v11.333zm42.5 0v11.334h11.332v-11.334H297.5v-11.333h-11.334v-11.333h-11.332v11.333H263.5v11.333z" style="fill:#649ad2;fill-opacity:1" transform="translate(2.705 23.363)scale(.29412)"/></svg>