<svg xmlns="http://www.w3.org/2000/svg" width="128" height="128" viewBox="0 0 128 128"><path fill="#f6f5f4" d="M28 8h50l30.043 29.918v74.059c0 4.433-3.61 8.023-8.043 8.023H28a7.98 7.98 0 0 1-8-8V16c0-4.434 3.566-8 8-8m0 0"/><path fill="#deddda" d="M78 8v22c0 4.434 3.61 7.922 8.043 7.922l22-.004zm-44 92h60a2 2 0 1 1 0 4H34a2 2 0 1 1 0-4m0-8h60a2 2 0 1 1 0 4H34a2 2 0 1 1 0-4m0-8h60a2 2 0 1 1 0 4H34a2 2 0 1 1 0-4m0-8h60a2 2 0 1 1 0 4H34a2 2 0 1 1 0-4m0-8h60a2 2 0 1 1 0 4H34a2 2 0 1 1 0-4m0-8h60a2 2 0 1 1 0 4H34a2 2 0 1 1 0-4m0-8h60a2 2 0 1 1 0 4H34a2 2 0 1 1 0-4m0-8h36c1.105 0 2 .594 2 1.324v1.352c0 .73-.895 1.324-2 1.324H34c-1.105 0-2-.594-2-1.324v-1.352c0-.73.895-1.324 2-1.324m0-8h36c1.105 0 2 .594 2 1.324v1.352c0 .73-.895 1.324-2 1.324H34c-1.105 0-2-.594-2-1.324v-1.352c0-.73.895-1.324 2-1.324m0-8h36c1.105 0 2 .594 2 1.324v1.352c0 .73-.895 1.324-2 1.324H34c-1.105 0-2-.594-2-1.324v-1.352c0-.73.895-1.324 2-1.324m0 0"/></svg>