<svg xmlns="http://www.w3.org/2000/svg" xml:space="preserve" width="128" height="128" viewBox="0 0 128 128"><path d="M27.978 8h50l30.043 29.918.001 74.06c0 4.432-3.612 8.022-8.044 8.022h-72c-4.432 0-8-3.568-8-8V16c0-4.432 3.568-8 8-8" style="display:inline;fill:#63b132;fill-opacity:1;stroke:none;stroke-width:.125;stroke-linejoin:round;stroke-miterlimit:4;stroke-dasharray:none;stroke-opacity:1"/><path d="M77.978 8v22c0 4.432 3.61 7.923 8.043 7.923l22-.005z" style="display:inline;vector-effect:none;fill:#5881d8;fill-opacity:1;stroke:none;stroke-width:.125;stroke-linecap:butt;stroke-linejoin:round;stroke-miterlimit:4;stroke-dasharray:none;stroke-dashoffset:0;stroke-opacity:1"/><path d="M64 44c-16.541 0-30 13.46-30 30 0 16.543 13.459 30 30 30 16.542 0 30-13.457 30-30 0-16.541-13.458-30-30-30m.03 2.94c14.972 0 27.11 12.139 27.11 27.111 0 1.172-.084 2.324-.228 3.457-.737 2.934-2.066 4.892-3.652 6.229-2.433 2.046-5.68 2.708-8.682 2.707-.845.004-1.673-.05-2.45-.137a17.17 17.17 0 0 0 5.126-12.256h.002c-.001-9.513-7.714-17.223-17.227-17.225-2.466 0-4.81.523-6.931 1.457q-.399-.276-.826-.525c-1.19-.668-3.667-1.647-6.819-1.656-2.281-.02-4.896.558-7.457 2.162C46.916 51.41 54.95 46.94 64.03 46.94m0 12.775c7.916.016 14.322 6.421 14.335 14.336a14.34 14.34 0 0 1-5.869 11.557c-.528-.15-.909-.287-1.076-.37-.56-.242-1.384-1.068-2.133-2.218-1.14-1.717-2.186-4.072-2.92-5.975-.739-1.905-1.17-3.341-1.172-3.346l-.002-.005c-1.354-5.187-2.755-9.929-5.666-13.247a14.4 14.4 0 0 1 4.502-.732m-14.344 1.023a12.7 12.7 0 0 1 2.992.366c-3.598 3.156-5.873 7.785-5.873 12.947 0 9.514 7.712 17.225 17.224 17.225 2.75 0 5.345-.649 7.65-1.793 1.371.483 2.938.772 4.837 1.01.711.086 1.48.13 2.298.13 2.185-.007 4.736-.323 7.39-.984-4.906 6.968-13.005 11.523-22.175 11.523-14.972 0-27.11-12.138-27.11-27.111 0-.985-.049-1.817.16-2.916 2.22-7.553 7.553-10.349 12.607-10.397m6.105 1.596c.807.466 1.537 1.011 2.139 1.643 1.18 1.208 2.501 3.877 3.418 6.176.25.62.473 1.21.67 1.75-3.308 6.726-5.513 10.083-6.393 13.748a14.33 14.33 0 0 1-5.93-11.6 14.34 14.34 0 0 1 6.096-11.717m7.113 12.205c1.7 6.054 2.775 9.655 4.701 12.112.29.366.61.692.944.998a14.4 14.4 0 0 1-4.52.736 14.4 14.4 0 0 1-4.937-.879c-.032-.398-.053-.79-.053-1.162-.002-.941.096-1.79.254-2.475.44-1.922 1.648-4.924 2.736-7.39.308-.699.606-1.356.875-1.94" style="fill:#fff;stroke-width:.234373"/></svg>