<svg xmlns="http://www.w3.org/2000/svg" width="128" height="128" viewBox="0 0 128 128"><path d="M27.978 8h50l30.043 29.918.001 74.06c0 4.432-3.612 8.022-8.044 8.022h-72c-4.432 0-8-3.568-8-8V16c0-4.432 3.568-8 8-8" style="display:inline;fill:#30b9db;fill-opacity:1;stroke:none;stroke-width:.125;stroke-linejoin:round;stroke-miterlimit:4;stroke-dasharray:none;stroke-opacity:1"/><path d="M77.978 8v22c0 4.432 3.61 7.923 8.043 7.923l22-.005z" style="display:inline;vector-effect:none;fill:#378bba;fill-opacity:1;stroke:none;stroke-width:.125;stroke-linecap:butt;stroke-linejoin:round;stroke-miterlimit:4;stroke-dasharray:none;stroke-dashoffset:0;stroke-opacity:1"/><path d="M62.393 84.868 51.679 74.153 62.393 63.44Zm0 19.285-30-30 30-30v15l-15 15 15 15z" style="fill:#fff;fill-opacity:1;stroke:none;stroke-width:.267857px;stroke-linecap:butt;stroke-linejoin:miter;stroke-opacity:1;opacity:.7"/><path d="M64.536 44.153v15l15 15-15 15v15l31.071-30Z" style="fill:#fff;fill-opacity:1;stroke:none;stroke-width:.267857px;stroke-linecap:butt;stroke-linejoin:miter;stroke-opacity:1"/></svg>