<svg xmlns="http://www.w3.org/2000/svg" xmlns:xlink="http://www.w3.org/1999/xlink" width="128" height="128" viewBox="0 0 128 128"><linearGradient id="text_x_patch_b" x1="36" x2="60" y1="68" y2="68" gradientUnits="userSpaceOnUse"><stop offset="0" stop-color="#ed336c"/><stop offset="1" stop-color="#ffa348"/></linearGradient><linearGradient id="text_x_patch_c" x1="72" x2="96" y1="68" y2="68" gradientTransform="rotate(90 88 56)" gradientUnits="userSpaceOnUse"><stop offset="0" stop-color="#404ce6"/><stop offset="1" stop-color="#c061cb"/></linearGradient><linearGradient id="text_x_patch_a" x1="68.849" x2="95.258" y1="84" y2="84" gradientUnits="userSpaceOnUse"><stop offset="0" stop-color="#33d1c6"/><stop offset="1" stop-color="#1c25d8"/></linearGradient><path d="M27.978 8h50l30.043 29.918.001 74.06c0 4.432-3.612 8.022-8.044 8.022h-72c-4.432 0-8-3.568-8-8V16c0-4.432 3.568-8 8-8" style="display:inline;fill:#666;fill-opacity:1;stroke:none;stroke-width:.125;stroke-linejoin:round;stroke-miterlimit:4;stroke-dasharray:none;stroke-opacity:1"/><path d="M77.978 8v22c0 4.432 3.61 7.923 8.043 7.923l22-.005z" style="display:inline;vector-effect:none;fill:#9a9996;fill-opacity:1;stroke:none;stroke-width:.125;stroke-linecap:butt;stroke-linejoin:round;stroke-miterlimit:4;stroke-dasharray:none;stroke-dashoffset:0;stroke-opacity:1"/><use xlink:href="#text_x_patch_a" x="101.133" y="687.273" transform="translate(408.144 -279.67)scale(1.33333)"/><use xlink:href="#text_x_patch_b" x="122.059" y="687.273" transform="translate(408.144 -279.67)scale(1.33333)"/><use xlink:href="#text_x_patch_c" x="179.457" y="687.273" transform="translate(408.144 -279.67)scale(1.33333)"/><use xlink:href="#text_x_patch_b" x="199.738" y="687.273" transform="translate(408.144 -279.67)scale(1.33333)"/><use xlink:href="#text_x_patch_b" x="381.656" y="687.273" transform="translate(408.144 -279.67)scale(1.33333)"/><use xlink:href="#text_x_patch_a" x="571.238" y="687.273" transform="translate(408.144 -279.67)scale(1.33333)"/><use xlink:href="#text_x_patch_b" x="631.852" y="687.273" transform="translate(408.144 -279.67)scale(1.33333)"/><use xlink:href="#text_x_patch_c" x="197.5" y="729.695" transform="translate(408.144 -279.67)scale(1.33333)"/><use xlink:href="#text_x_patch_c" x="580.977" y="729.695" transform="translate(408.144 -279.67)scale(1.33333)"/><path d="M36.938 87.942 76.92 49.25c3.917-3.79 10.225-3.79 14.142 0s3.917 9.895 0 13.686L51.08 101.628c-3.917 3.791-10.225 3.791-14.142 0s-3.917-9.895 0-13.686" style="fill:#a88000;fill-opacity:1;stroke-width:.978466;stroke-linecap:round;stroke-linejoin:round;stroke-miterlimit:1.5;paint-order:stroke fill markers"/><path d="M36.938 86.007 76.92 47.315c3.917-3.791 10.225-3.791 14.142 0s3.917 9.895 0 13.686L51.08 99.693c-3.917 3.79-10.225 3.79-14.142 0s-3.917-9.895 0-13.686" style="fill:#dba600;stroke-width:.978466;stroke-linecap:round;stroke-linejoin:round;stroke-miterlimit:1.5;paint-order:stroke fill markers"/><path d="m51.08 49.25 39.982 38.692c3.917 3.791 3.917 9.895 0 13.686s-10.225 3.791-14.142 0L36.938 62.936c-3.917-3.79-3.917-9.895 0-13.686 3.917-3.79 10.225-3.79 14.142 0" style="fill:#a87f00;fill-opacity:1;stroke-width:.978466;stroke-linecap:round;stroke-linejoin:round;stroke-miterlimit:1.5;paint-order:stroke fill markers"/><path d="m51.08 47.315 39.982 38.692c3.917 3.79 3.917 9.895 0 13.686-3.917 3.79-10.225 3.79-14.142 0L36.938 61c-3.917-3.791-3.917-9.895 0-13.686s10.225-3.791 14.142 0" style="fill:#ffc510;stroke-width:.978466;stroke-linecap:round;stroke-linejoin:round;stroke-miterlimit:1.5;paint-order:stroke fill markers"/><path d="m62.232 62.213 13.435 13.001a2.83 2.83 0 0 1 0 4.106l-5.657 5.475a3.064 3.064 0 0 1-4.242 0L52.333 71.793a2.83 2.83 0 0 1 0-4.106l5.657-5.474a3.064 3.064 0 0 1 4.242 0" style="fill:#dba600;stroke-width:.983738;stroke-linecap:round;stroke-linejoin:round;stroke-miterlimit:1.5;paint-order:stroke fill markers"/><path d="M40.736 60.314a1.18 1.18 0 0 0 0 1.71 1.28 1.28 0 0 0 1.77.007 1.19 1.19 0 0 0-.006-1.717 1.284 1.284 0 0 0-1.763 0z" style="fill:#a88000;fill-opacity:1;stroke-width:.0821956"/><path d="M45.686 57.234a1.28 1.28 0 0 0-1.767 0 1.175 1.175 0 0 0 0 1.707c.49.473 1.284.48 1.774.007a1.195 1.195 0 0 0-.007-1.714" style="fill:#a88000;fill-opacity:1;stroke-width:.0821908"/><path d="M47.104 55.861c.49.473 1.282.48 1.771.007a1.185 1.185 0 0 0-.007-1.714 1.274 1.274 0 0 0-1.764 0 1.177 1.177 0 0 0 0 1.707" style="fill:#a88000;fill-opacity:1;stroke-width:.0821241"/><path d="M52.058 52.788a1.184 1.184 0 0 0-.008-1.713 1.273 1.273 0 0 0-1.763 0 1.177 1.177 0 0 0 0 1.706c.489.473 1.282.48 1.77.007z" style="fill:#a88000;fill-opacity:1;stroke-width:.0820983"/><path d="M40.734 55.526a1.273 1.273 0 0 0-1.763 0 1.176 1.176 0 0 0 0 1.706c.489.473 1.282.48 1.77.007a1.184 1.184 0 0 0-.007-1.713" style="fill:#a88000;fill-opacity:1;stroke-width:.0821003"/><path d="M43.918 52.445a1.273 1.273 0 0 0-1.763 0 1.176 1.176 0 0 0 0 1.706c.488.473 1.281.48 1.77.007a1.184 1.184 0 0 0-.007-1.713" style="fill:#a88000;fill-opacity:1;stroke-width:.0821009"/><path d="M47.108 51.078a1.184 1.184 0 0 0-.008-1.713 1.273 1.273 0 0 0-1.763 0 1.177 1.177 0 0 0 0 1.706c.49.473 1.282.48 1.77.007z" style="fill:#a88000;fill-opacity:1;stroke-width:.082098"/><path d="M38.97 50.737a1.273 1.273 0 0 0-1.764 0 1.176 1.176 0 0 0 0 1.707c.489.473 1.282.48 1.77.007a1.184 1.184 0 0 0-.006-1.714" style="fill:#a88000;fill-opacity:1;stroke-width:.0821009"/><path d="M42.161 49.371a1.186 1.186 0 0 0-.008-1.715 1.27 1.27 0 0 0-1.763 0 1.18 1.18 0 0 0 0 1.709 1.29 1.29 0 0 0 1.77.006z" style="fill:#a88000;fill-opacity:1;stroke-width:.0821427"/><path d="M87.264 60.232a1.18 1.18 0 0 1 0 1.71 1.28 1.28 0 0 1-1.77.008 1.19 1.19 0 0 1 .006-1.717 1.284 1.284 0 0 1 1.763 0z" style="fill:#a88000;fill-opacity:1;stroke-width:.0821956"/><path d="M82.314 57.153a1.28 1.28 0 0 1 1.767 0c.49.473.49 1.234 0 1.707s-1.284.48-1.774.007a1.195 1.195 0 0 1 .007-1.714" style="fill:#a88000;fill-opacity:1;stroke-width:.0821908"/><path d="M80.896 55.78a1.28 1.28 0 0 1-1.771.007 1.185 1.185 0 0 1 .007-1.714 1.274 1.274 0 0 1 1.764 0 1.177 1.177 0 0 1 0 1.707" style="fill:#a88000;fill-opacity:1;stroke-width:.0821241"/><path d="M75.942 52.707a1.184 1.184 0 0 1 .008-1.714 1.273 1.273 0 0 1 1.763 0 1.177 1.177 0 0 1 0 1.707 1.28 1.28 0 0 1-1.77.007z" style="fill:#a88000;fill-opacity:1;stroke-width:.0820983"/><path d="M87.266 55.444a1.273 1.273 0 0 1 1.763 0 1.176 1.176 0 0 1 0 1.707 1.28 1.28 0 0 1-1.77.007 1.184 1.184 0 0 1 .007-1.714" style="fill:#a88000;fill-opacity:1;stroke-width:.0821003"/><path d="M84.082 52.364a1.273 1.273 0 0 1 1.763 0 1.176 1.176 0 0 1 0 1.706 1.28 1.28 0 0 1-1.77.007 1.184 1.184 0 0 1 .007-1.713" style="fill:#a88000;fill-opacity:1;stroke-width:.0821009"/><path d="M80.892 50.997a1.184 1.184 0 0 1 .008-1.714 1.273 1.273 0 0 1 1.763 0 1.177 1.177 0 0 1 0 1.707 1.28 1.28 0 0 1-1.77.007z" style="fill:#a88000;fill-opacity:1;stroke-width:.082098"/><path d="M89.03 50.656a1.273 1.273 0 0 1 1.764 0 1.176 1.176 0 0 1 0 1.706 1.28 1.28 0 0 1-1.77.007 1.184 1.184 0 0 1 .006-1.713" style="fill:#a88000;fill-opacity:1;stroke-width:.0821009"/><path d="M85.839 49.29a1.186 1.186 0 0 1 .008-1.715 1.27 1.27 0 0 1 1.763 0 1.18 1.18 0 0 1 0 1.708 1.29 1.29 0 0 1-1.77.007z" style="fill:#a88000;fill-opacity:1;stroke-width:.0821427"/><path d="M87.264 86.775a1.18 1.18 0 0 0 0-1.71 1.28 1.28 0 0 0-1.77-.007 1.19 1.19 0 0 0 .006 1.717 1.284 1.284 0 0 0 1.763 0z" style="fill:#a88000;fill-opacity:1;stroke-width:.0821956"/><path d="M82.314 89.854c.49.473 1.278.473 1.767 0 .49-.473.49-1.233 0-1.706a1.287 1.287 0 0 0-1.774-.007 1.195 1.195 0 0 0 .007 1.713" style="fill:#a88000;fill-opacity:1;stroke-width:.0821908"/><path d="M80.896 91.228a1.28 1.28 0 0 0-1.771-.007 1.185 1.185 0 0 0 .007 1.713 1.274 1.274 0 0 0 1.764 0 1.177 1.177 0 0 0 0-1.706" style="fill:#a88000;fill-opacity:1;stroke-width:.0821241"/><path d="M75.942 94.3a1.184 1.184 0 0 0 .008 1.714 1.273 1.273 0 0 0 1.763 0 1.177 1.177 0 0 0 0-1.707 1.28 1.28 0 0 0-1.77-.006z" style="fill:#a88000;fill-opacity:1;stroke-width:.0820983"/><path d="M87.266 91.563a1.273 1.273 0 0 0 1.763 0 1.176 1.176 0 0 0 0-1.707 1.28 1.28 0 0 0-1.77-.006 1.184 1.184 0 0 0 .007 1.713" style="fill:#a88000;fill-opacity:1;stroke-width:.0821003"/><path d="M84.082 94.644a1.273 1.273 0 0 0 1.763 0 1.176 1.176 0 0 0 0-1.707 1.28 1.28 0 0 0-1.77-.007 1.184 1.184 0 0 0 .007 1.714" style="fill:#a88000;fill-opacity:1;stroke-width:.0821009"/><path d="M80.892 96.01a1.184 1.184 0 0 0 .008 1.714 1.273 1.273 0 0 0 1.763 0 1.177 1.177 0 0 0 0-1.706 1.28 1.28 0 0 0-1.77-.007z" style="fill:#a88000;fill-opacity:1;stroke-width:.082098"/><path d="M89.03 96.352a1.273 1.273 0 0 0 1.764 0 1.176 1.176 0 0 0 0-1.707 1.28 1.28 0 0 0-1.77-.007 1.184 1.184 0 0 0 .006 1.714" style="fill:#a88000;fill-opacity:1;stroke-width:.0821009"/><path d="M85.839 97.717a1.186 1.186 0 0 0 .008 1.716 1.27 1.27 0 0 0 1.763 0 1.18 1.18 0 0 0 0-1.709 1.29 1.29 0 0 0-1.77-.007z" style="fill:#a88000;fill-opacity:1;stroke-width:.0821427"/><path d="M40.736 86.775a1.18 1.18 0 0 1 0-1.71 1.28 1.28 0 0 1 1.77-.007 1.19 1.19 0 0 1-.006 1.717 1.284 1.284 0 0 1-1.763 0z" style="fill:#a88000;fill-opacity:1;stroke-width:.0821956"/><path d="M45.686 89.854a1.28 1.28 0 0 1-1.767 0 1.175 1.175 0 0 1 0-1.706 1.287 1.287 0 0 1 1.774-.007c.482.48.475 1.247-.007 1.713" style="fill:#a88000;fill-opacity:1;stroke-width:.0821908"/><path d="M47.104 91.228a1.28 1.28 0 0 1 1.771-.007c.489.473.482 1.24-.007 1.713a1.274 1.274 0 0 1-1.764 0 1.177 1.177 0 0 1 0-1.706" style="fill:#a88000;fill-opacity:1;stroke-width:.0821241"/><path d="M52.058 94.3a1.186 1.186 0 0 1-.008 1.714 1.273 1.273 0 0 1-1.763 0 1.177 1.177 0 0 1 0-1.707 1.28 1.28 0 0 1 1.77-.006z" style="fill:#a88000;fill-opacity:1;stroke-width:.0820983"/><path d="M40.734 91.563a1.273 1.273 0 0 1-1.763 0 1.176 1.176 0 0 1 0-1.707 1.28 1.28 0 0 1 1.77-.006c.49.472.482 1.24-.007 1.713" style="fill:#a88000;fill-opacity:1;stroke-width:.0821003"/><path d="M43.918 94.644a1.273 1.273 0 0 1-1.763 0 1.176 1.176 0 0 1 0-1.707 1.28 1.28 0 0 1 1.77-.007c.489.474.482 1.24-.007 1.714" style="fill:#a88000;fill-opacity:1;stroke-width:.0821009"/><path d="M47.108 96.01a1.184 1.184 0 0 1-.008 1.714 1.273 1.273 0 0 1-1.763 0 1.177 1.177 0 0 1 0-1.706 1.28 1.28 0 0 1 1.77-.007z" style="fill:#a88000;fill-opacity:1;stroke-width:.082098"/><path d="M38.97 96.352a1.273 1.273 0 0 1-1.764 0 1.176 1.176 0 0 1 0-1.707 1.28 1.28 0 0 1 1.77-.007c.49.473.482 1.24-.006 1.714" style="fill:#a88000;fill-opacity:1;stroke-width:.0821009"/><path d="M42.161 97.717a1.186 1.186 0 0 1-.008 1.716 1.27 1.27 0 0 1-1.763 0 1.18 1.18 0 0 1 0-1.709 1.29 1.29 0 0 1 1.77-.007z" style="fill:#a88000;fill-opacity:1;stroke-width:.0821427"/></svg>