<svg xmlns="http://www.w3.org/2000/svg" width="128" height="128" viewBox="0 0 128 128"><path d="M27.978 8h50l30.043 29.918v74.06c0 4.432-3.611 8.022-8.043 8.022h-72c-4.432 0-8-3.568-8-8V16c0-4.432 3.568-8 8-8" style="display:inline;fill:#1499c5;fill-opacity:1;stroke:none;stroke-width:.125;stroke-linejoin:round;stroke-miterlimit:4;stroke-dasharray:none;stroke-opacity:1"/><path d="M77.978 8v22c0 4.432 3.61 7.923 8.042 7.923l22-.005z" style="display:inline;vector-effect:none;fill:#ff7f2a;fill-opacity:1;stroke:none;stroke-width:.125;stroke-linecap:butt;stroke-linejoin:round;stroke-miterlimit:4;stroke-dasharray:none;stroke-dashoffset:0;stroke-opacity:1"/><path d="M44.517 51.944c-9.302 9.77-7.048 27.98 5.032 40.668 12.08 12.69 29.413 15.054 38.715 5.284 9.302-9.771 7.054-27.98-5.026-40.67-12.08-12.689-29.42-15.053-38.721-5.282m8.434 4.058c7.31-7.677 20.748-6.007 30.019 3.731s10.86 23.854 3.552 31.531c-7.31 7.678-20.751 6.011-30.022-3.727S45.643 63.68 52.95 56.002" style="opacity:.6;fill:#fff;fill-opacity:1;stroke:none;stroke-width:1.7601"/><path d="M79.819 54.765c-1.112 0-2.038.888-2.038 1.98v4.864c0 1.092.926 1.981 2.038 1.981h5.033c1.112 0 2.037-.89 2.037-1.981v-4.864c0-1.092-.925-1.98-2.037-1.98zM37.906 64.68c-2.147 0-3.906 1.695-3.906 3.787v11.456c0 2.092 1.76 3.785 3.906 3.785h11.851c2.147 0 3.906-1.693 3.906-3.785V68.467c0-2.092-1.76-3.786-3.906-3.786zm46.118 23.21c-1.434 0-2.62 1.14-2.62 2.545v6.92c0 1.405 1.186 2.545 2.62 2.545h7.16c1.435 0 2.622-1.14 2.622-2.544v-6.921c0-1.404-1.187-2.544-2.622-2.544z" style="fill:#fff;fill-opacity:1;stroke:none;stroke-width:.495769"/></svg>