<svg xmlns="http://www.w3.org/2000/svg" width="128" height="128" viewBox="0 0 128 128"><path d="M27.978 8h50l30.043 29.918.001 74.06c0 4.432-3.612 8.022-8.044 8.022h-72c-4.432 0-8-3.568-8-8V16c0-4.432 3.568-8 8-8" style="display:inline;fill:#4768e8;fill-opacity:1;stroke:none;stroke-width:.125;stroke-linejoin:round;stroke-miterlimit:4;stroke-dasharray:none;stroke-opacity:1"/><path d="M77.978 8v22c0 4.432 3.61 7.923 8.043 7.923l22-.005z" style="display:inline;vector-effect:none;fill:#000;fill-opacity:.2;stroke:none;stroke-width:.125;stroke-linecap:butt;stroke-linejoin:round;stroke-miterlimit:4;stroke-dasharray:none;stroke-dashoffset:0;stroke-opacity:1"/><path d="M78.58 57.06c-1.3 0-2.55 1.044-2.55 2.489 0 1.377 1.212 2.49 2.61 2.49.545 0 1.294.183 1.809.601.53.43.949 1.047.949 2.46v8.966c0 2.317.867 4.107 2.01 5.333.421.452.88.77 1.33 1.077-.459.293-.927.596-1.351 1.048-1.155 1.229-1.99 3.057-1.99 5.473v9.027c0 1.377-.41 1.975-.946 2.401-.52.413-1.286.599-1.87.599-1.379 0-2.551 1.119-2.551 2.49 0 1.394 1.223 2.49 2.55 2.49 2.424 0 4.462-.767 5.839-2.22 1.375-1.45 2.018-3.482 2.018-5.76v-9.027c0-1.53.67-2.381 1.697-3.054 1.015-.664 2.419-.982 3.315-.982.641 0 1.315-.171 1.826-.646.516-.479.725-1.16.725-1.782 0-.696-.261-1.377-.752-1.851-.489-.472-1.148-.7-1.799-.7-.908 0-2.313-.308-3.326-.953-1.028-.654-1.686-1.47-1.686-2.963V65.1c0-2.304-.639-4.348-2.014-5.809-1.377-1.462-3.419-2.23-5.842-2.23m-16.175 0c-2.424 0-4.466.768-5.843 2.23-1.375 1.46-2.014 3.505-2.014 5.81v8.966c0 1.494-.658 2.309-1.685 2.963-1.013.645-2.42.953-3.329.953-.65 0-1.308.228-1.796.7-.491.474-.755 1.154-.755 1.85 0 .623.212 1.305.728 1.783.51.475 1.182.646 1.823.646.897 0 2.303.318 3.317.982 1.028.673 1.697 1.524 1.697 3.054v9.027c0 2.278.643 4.31 2.018 5.76 1.377 1.453 3.415 2.22 5.839 2.22 1.328 0 2.55-1.096 2.55-2.49 0-1.371-1.172-2.49-2.55-2.49-.585 0-1.35-.186-1.87-.599-.537-.426-.947-1.024-.947-2.401v-9.027c0-2.416-.837-4.244-1.991-5.473-.425-.452-.892-.756-1.351-1.05.45-.307.91-.623 1.331-1.075 1.144-1.226 2.01-3.016 2.01-5.333V65.1c0-1.412.419-2.028.95-2.459.514-.418 1.263-.6 1.808-.6 1.398 0 2.61-1.114 2.61-2.491 0-1.445-1.25-2.489-2.55-2.489m-23.2 36.905c-2.856 0-5.205 2.165-5.205 4.96s2.332 5.022 5.205 5.022h.61c2.855 0 5.205-2.18 5.205-5.022 0-2.795-2.35-4.96-5.205-4.96z" style="color:#000;-inkscape-font-specification:FreeMono;fill:#fff;stroke-width:.547487;-inkscape-stroke:none"/></svg>