<svg xmlns="http://www.w3.org/2000/svg" width="128" height="128" viewBox="0 0 128 128"><path d="M27.978 8h50l30.043 29.918.001 74.06c0 4.432-3.612 8.022-8.044 8.022h-72c-4.432 0-8-3.568-8-8V16c0-4.432 3.568-8 8-8" style="display:inline;fill:#306998;fill-opacity:1;stroke:none;stroke-width:.125;stroke-linejoin:round;stroke-miterlimit:4;stroke-dasharray:none;stroke-opacity:1"/><path d="M77.978 8v22c0 4.432 3.61 7.923 8.043 7.923l22-.005z" style="display:inline;vector-effect:none;fill:#ffd43b;fill-opacity:1;stroke:none;stroke-width:.125;stroke-linecap:butt;stroke-linejoin:round;stroke-miterlimit:4;stroke-dasharray:none;stroke-dashoffset:0;stroke-opacity:1"/><path d="M63.643 43.34c-2.474.012-4.837.223-6.916.59-6.124 1.083-7.236 3.347-7.236 7.524v5.515h14.472v1.839H44.06c-4.206 0-7.89 2.528-9.041 7.337-1.329 5.513-1.388 8.953 0 14.709 1.029 4.284 3.485 7.337 7.691 7.337h4.976v-6.612c0-4.777 4.133-8.99 9.041-8.99h14.455c4.024 0 7.237-3.314 7.237-7.355v-13.78c0-3.922-3.31-6.869-7.237-7.523a45 45 0 0 0-7.54-.59m-7.827 4.437c1.495 0 2.716 1.24 2.716 2.766 0 1.52-1.22 2.75-2.716 2.75-1.5 0-2.715-1.23-2.715-2.75 0-1.526 1.215-2.766 2.715-2.766" style="fill:#fff;fill-opacity:1;stroke-width:.539756"/><path d="M80.223 58.808v6.426c0 4.983-4.224 9.176-9.04 9.176H56.726c-3.96 0-7.236 3.389-7.236 7.354v13.781c0 3.922 3.41 6.229 7.236 7.354 4.581 1.347 8.974 1.59 14.455 0 3.644-1.055 7.237-3.178 7.237-7.354v-5.516H63.963v-1.838h21.692c4.206 0 5.773-2.934 7.236-7.337 1.51-4.534 1.446-8.893 0-14.709-1.04-4.187-3.025-7.337-7.236-7.337zm-8.13 34.898c1.5 0 2.716 1.23 2.716 2.75 0 1.525-1.215 2.766-2.716 2.766-1.495 0-2.715-1.24-2.715-2.766 0-1.52 1.22-2.75 2.715-2.75" style="fill:#fff;fill-opacity:1;stroke-width:.539756"/></svg>