<svg xmlns="http://www.w3.org/2000/svg" xml:space="preserve" width="128" height="128" viewBox="0 0 128 128"><defs><linearGradient id="text_x_r_markdown_a" x1=".741" x2="590.863" y1="3.666" y2="593.787" gradientTransform="scale(1.22194 .81837)" gradientUnits="userSpaceOnUse" spreadMethod="pad"><stop offset="0" stop-color="#cbced0"/><stop offset="1" stop-color="#84838b"/></linearGradient><linearGradient id="text_x_r_markdown_b" x1="301.026" x2="703.068" y1="151.401" y2="553.442" gradientTransform="scale(.98995 1.01015)" gradientUnits="userSpaceOnUse" spreadMethod="pad"><stop offset="0" stop-color="#276dc3"/><stop offset=".5" stop-color="#276dc3" style="stop-color:#1e64b6;stop-opacity:1"/><stop offset="1" stop-color="#165caa"/></linearGradient></defs><g style="display:inline"><path d="M124.828 857.328h200L445 977l.005 296.24c0 17.728-14.449 32.088-32.177 32.088h-288c-17.728 0-32-14.272-32-32v-384c0-17.728 14.272-32 32-32" style="display:inline;fill:#f6f5f4;fill-opacity:1;stroke:none;stroke-width:.5;stroke-linejoin:round;stroke-miterlimit:4;stroke-dasharray:none;stroke-opacity:1" transform="matrix(.25 0 0 .25 -3.23 -206.332)"/><path d="M324.828 857.328v88c0 17.728 14.443 31.694 32.17 31.694L445 977Z" style="display:inline;vector-effect:none;fill:#deddda;fill-opacity:1;stroke:none;stroke-width:.5;stroke-linecap:butt;stroke-linejoin:round;stroke-miterlimit:4;stroke-dasharray:none;stroke-dashoffset:0;stroke-opacity:1" transform="matrix(.25 0 0 .25 -3.23 -206.332)"/></g><path d="m33.978 35.99 35.99.02c1.108 0 2 .891 2 2 0 1.107-.892 2-2 2l-35.99-.02c-1.108 0-2-.891-2-2 0-1.107.892-2 2-2m0-8 35.99.02c1.108 0 2 .891 2 2 0 1.107-.892 2-2 2l-35.99-.02c-1.108 0-2-.891-2-2 0-1.107.892-2 2-2" style="display:inline;fill:#deddda;stroke-width:2;stroke-linecap:round;paint-order:markers stroke fill;stop-color:#000"/><rect width="64" height="4" x="31.978" y="76" rx="2" ry="2" style="display:inline;fill:#deddda;fill-opacity:1;stroke-width:2;stroke-linecap:round;paint-order:markers stroke fill;stop-color:#000"/><rect width="64" height="4" x="31.978" y="68" rx="2" ry="2" style="display:inline;fill:#deddda;fill-opacity:1;stroke-width:2;stroke-linecap:round;paint-order:markers stroke fill;stop-color:#000"/><rect width="64" height="4" x="31.978" y="60" rx="2" ry="2" style="display:inline;fill:#deddda;fill-opacity:1;stroke-width:2;stroke-linecap:round;paint-order:markers stroke fill;stop-color:#000"/><rect width="64" height="4" x="31.978" y="52" rx="2" ry="2" style="display:inline;fill:#deddda;fill-opacity:1;stroke-width:2;stroke-linecap:round;paint-order:markers stroke fill;stop-color:#000"/><rect width="64" height="4" x="31.978" y="44" rx="2" ry="2" style="display:inline;fill:#deddda;fill-opacity:1;stroke-width:2;stroke-linecap:round;paint-order:markers stroke fill;stop-color:#000"/><path d="m64.554 84.004 29.424-.008c1.108 0 2 .892 2 2s-.892 2-2 2l-29.424.008c-1.108 0-2-.892-2-2s.892-2 2-2m0 8 29.424-.008c1.108 0 2 .892 2 2s-.892 2-2 2l-29.424.008c-1.108 0-2-.892-2-2s.892-2 2-2m0 8 29.424-.008c1.108 0 2 .892 2 2s-.892 2-2 2l-29.424.008c-1.108 0-2-.892-2-2s.892-2 2-2" style="display:inline;fill:#deddda;stroke-width:2;stroke-linecap:round;paint-order:markers stroke fill;stop-color:#000"/><g fill-rule="evenodd"><path fill="url(#text_x_r_markdown_a)" d="M361.453 485.937C162.329 485.937.906 377.828.906 244.469.906 111.109 162.329 3 361.453 3S722 111.109 722 244.469c0 133.359-161.422 241.468-360.547 241.468m55.188-388.531c-151.352 0-274.047 73.908-274.047 165.078s122.695 165.078 274.047 165.078c151.351 0 263.046-50.529 263.046-165.078 0-114.513-111.695-165.078-263.046-165.078" style="fill:url(#text_x_r_markdown_a)" transform="translate(31.945 83.892)scale(.03597)"/><path fill="url(#text_x_r_markdown_b)" d="M550 377s21.822 6.585 34.5 13c4.399 2.226 12.01 6.668 17.5 12.5 5.378 5.712 8 11.5 8 11.5l86 145-139 .062L492 437s-13.31-22.869-21.5-29.5c-6.832-5.531-9.745-7.5-16.5-7.5h-33.026L421 558.974l-123 .052V152.938h247S657.5 154.967 657.5 262 550 377 550 377m-53.5-135.976-74.463-.048-.037 69.05 74.5-.024s34.5-.107 34.5-35.125c0-35.722-34.5-33.853-34.5-33.853" style="fill:url(#text_x_r_markdown_b)" transform="translate(31.945 83.892)scale(.03597)"/></g></svg>