<svg xmlns="http://www.w3.org/2000/svg" xml:space="preserve" width="128" height="128" viewBox="0 0 128 128"><path d="M27.996 8h49.975L108 37.903l.001 74.023c0 4.43-3.61 8.018-8.04 8.018H27.996A7.98 7.98 0 0 1 20 111.948V15.996A7.98 7.98 0 0 1 27.996 8" style="display:inline;fill:#4dc9c0;fill-opacity:.898039;stroke:none;stroke-width:.124938;stroke-linejoin:round;stroke-miterlimit:4;stroke-dasharray:none;stroke-opacity:1"/><path d="M77.957 8v22c0 4.432 3.61 7.923 8.043 7.923l22-.005Z" style="display:inline;opacity:1;vector-effect:none;fill:#000;fill-opacity:.2;stroke:none;stroke-width:.125;stroke-linecap:butt;stroke-linejoin:round;stroke-miterlimit:4;stroke-dasharray:none;stroke-dashoffset:0;stroke-opacity:1"/><path d="M34 44v60h60L63.379 73.564 94 44Z" style="display:inline;fill:#000;fill-opacity:.2;stroke:none;stroke-width:.124938;stroke-linejoin:round;stroke-miterlimit:4;stroke-dasharray:none;stroke-opacity:1"/><path d="M84.175 59.953a9.5 9.5 0 0 0-6.656 2.557.93.93 0 0 0-.29.651.95.95 0 0 0 .269.66l1.185 1.225a.91.91 0 0 0 1.184.083 5.4 5.4 0 0 1 3.264-1.087 5.446 5.446 0 0 1 3.867 9.305C79.445 80.9 69.363 59.74 46.485 70.624a3.11 3.11 0 0 0-1.386 4.358l3.922 6.784a3.11 3.11 0 0 0 4.206 1.157l.097-.056-.077.056 1.74-.977a40 40 0 0 0 5.473-4.088.96.96 0 0 1 1.255 0 .89.89 0 0 1 .34.693.92.92 0 0 1-.299.692 41 41 0 0 1-5.771 4.282h-.056l-1.739.97a4.85 4.85 0 0 1-2.411.631 5 5 0 0 1-4.317-2.474l-3.707-6.409c-7.122 5.03-11.446 14.724-9.125 27.022a.915.915 0 0 0 .887.735h4.226a.9.9 0 0 0 .894-.79 6.187 6.187 0 0 1 12.277 0 .91.91 0 0 0 .902.79h4.115a.9.9 0 0 0 .894-.79 6.194 6.194 0 0 1 12.285 0 .9.9 0 0 0 .893.79h4.068a.9.9 0 0 0 .9-.888c.097-5.73 1.643-12.312 6.05-15.61 15.263-11.418 11.252-21.209 7.718-24.763a9.5 9.5 0 0 0-6.564-2.786m-9.978 16.764a1.8 1.8 0 0 1 .716.193 1.83 1.83 0 0 1 .257 3.109v-.007l-2.91-1.462a1.83 1.83 0 0 1 1.937-1.833" style="fill:#02303a;fill-opacity:1;stroke-width:.69287"/></svg>