<svg xmlns="http://www.w3.org/2000/svg" xml:space="preserve" width="128" height="128" viewBox="0 0 128 128"><path d="M27.978 8h50l30.043 29.918.001 74.06c0 4.432-3.612 8.022-8.044 8.022h-72c-4.432 0-8-3.568-8-8V16c0-4.432 3.568-8 8-8" style="display:inline;fill:#007acc;fill-opacity:1;stroke:none;stroke-width:.125;stroke-linejoin:round;stroke-miterlimit:4;stroke-dasharray:none;stroke-opacity:1"/><path d="M77.978 8v22c0 4.432 3.61 7.923 8.043 7.923l22-.005z" style="display:inline;vector-effect:none;fill:#fff;fill-opacity:.30000001;stroke:none;stroke-width:.125;stroke-linecap:butt;stroke-linejoin:round;stroke-miterlimit:4;stroke-dasharray:none;stroke-dashoffset:0;stroke-opacity:1"/><path d="M34 68.287v3.498h11.16v31.764h7.92V71.785h11.16v-3.434c0-1.932 0-3.498-.086-3.541 0-.065-6.803-.086-15.066-.086l-15.024.064v3.52zm50.157-3.585c2.19.516 3.863 1.503 5.366 3.07.794.858 1.974 2.36 2.06 2.747 0 .128-3.713 2.64-5.966 4.035-.086.064-.43-.3-.773-.859-1.116-1.588-2.254-2.275-4.035-2.404-2.575-.171-4.292 1.18-4.292 3.434 0 .687.128 1.073.386 1.631.58 1.18 1.653 1.89 4.98 3.349 6.137 2.64 8.799 4.378 10.408 6.867 1.825 2.79 2.232 7.169 1.01 10.453-1.374 3.584-4.723 6.009-9.509 6.803-1.502.258-4.936.215-6.546-.064-3.434-.644-6.717-2.361-8.735-4.572-.794-.858-2.318-3.155-2.232-3.305l.816-.515 3.22-1.867 2.424-1.417.558.751c.709 1.116 2.297 2.619 3.22 3.134 2.79 1.438 6.524 1.245 8.37-.43.794-.73 1.137-1.502 1.137-2.575 0-.987-.15-1.438-.643-2.189-.687-.944-2.06-1.717-5.924-3.434-4.443-1.889-6.331-3.09-8.091-4.936-1.009-1.116-1.932-2.855-2.361-4.293-.322-1.244-.43-4.292-.129-5.515.923-4.293 4.164-7.298 8.8-8.156 1.502-.3 5.043-.172 6.524.215z" class="st1" style="fill:#fff;stroke-width:.214622"/></svg>