<svg xmlns="http://www.w3.org/2000/svg" width="128" height="128" viewBox="0 0 128 128"><path d="M27.978 8h50l30.043 29.918.001 74.06c0 4.432-3.612 8.022-8.044 8.022h-72c-4.432 0-8-3.568-8-8V16c0-4.432 3.568-8 8-8" style="display:inline;fill:#fdc00a;fill-opacity:1;stroke:none;stroke-width:.125;stroke-linejoin:round;stroke-miterlimit:4;stroke-dasharray:none;stroke-opacity:1"/><path d="M77.978 8v22c0 4.432 3.61 7.923 8.043 7.923l22-.005z" style="display:inline;vector-effect:none;fill:#000;fill-opacity:.199089;stroke:none;stroke-width:.125;stroke-linecap:butt;stroke-linejoin:round;stroke-miterlimit:4;stroke-dasharray:none;stroke-dashoffset:0;stroke-opacity:1"/><path d="M80.166 57.395c-1.337 0-2.611 1.076-2.611 2.558 0 1.423 1.243 2.555 2.666 2.555.431 0 1.057.158 1.45.478.425.344.75.783.75 2v8.131c0 2.175.822 3.88 1.905 5.041.306.328.627.537.945.768-.324.224-.653.42-.962.75-1.098 1.168-1.887 2.91-1.887 5.17v8.185c0 1.185-.315 1.6-.744 1.942-.4.317-1.042.48-1.512.48-1.41 0-2.611 1.145-2.611 2.559 0 1.435 1.248 2.554 2.611 2.554 2.26 0 4.199-.72 5.512-2.105 1.31-1.384 1.912-3.308 1.912-5.43v-8.185c0-1.295.525-1.946 1.404-2.522.854-.559 2.097-.842 2.844-.842.634 0 1.324-.169 1.857-.664.542-.502.754-1.205.754-1.836 0-.705-.264-1.402-.773-1.894a2.64 2.64 0 0 0-1.838-.719c-.76 0-2.005-.275-2.858-.818-.878-.56-1.39-1.173-1.39-2.434v-8.13c0-2.146-.597-4.083-1.908-5.475-1.314-1.395-3.256-2.117-5.516-2.117m-16.02 6.034c-2.869 0-5.229 2.175-5.229 4.983s2.343 5.045 5.229 5.045h.613c2.869 0 5.229-2.19 5.229-5.045 0-2.808-2.36-4.983-5.229-4.983zm-.25 20.005c-2.868 0-5.228 2.174-5.228 4.982s2.343 5.045 5.229 5.045h.613q.407 0 .797-.059c-.452 3.369-1.958 5.404-5.883 7.186-.322.146-.912.895-.939 1.533-.025.591.282 1.227.776 1.553.532.35 1.738.294 1.862.248 6.157-2.295 8.891-6.592 8.891-13.158 0-1.065-.103-2.042-.308-2.912a4.83 4.83 0 0 0-1.225-2.692c-.874-1.101-2.132-1.726-3.695-1.726l-.102.003-.174-.003zm-15.17-26.04c-2.26 0-4.202.723-5.515 2.118-1.311 1.392-1.906 3.33-1.906 5.474v8.131c0 1.26-.514 1.874-1.393 2.434-.852.543-2.098.818-2.857.818a2.63 2.63 0 0 0-1.836.719c-.51.493-.774 1.19-.774 1.894 0 .63.21 1.333.752 1.836.533.495 1.224.664 1.858.664.747 0 1.99.283 2.843.842.88.576 1.407 1.227 1.407 2.522v8.185c0 2.122.599 4.046 1.91 5.43 1.313 1.386 3.251 2.105 5.512 2.105 1.363 0 2.61-1.119 2.61-2.554 0-1.414-1.2-2.559-2.61-2.559-.47 0-1.113-.163-1.512-.48-.43-.342-.744-.757-.744-1.942v-8.185c0-2.26-.79-4.002-1.887-5.17-.31-.33-.638-.526-.963-.75.319-.231.64-.44.945-.768 1.084-1.161 1.905-2.866 1.905-5.04v-8.132c0-1.217.326-1.656.75-2 .394-.32 1.02-.478 1.45-.478 1.423 0 2.667-1.132 2.667-2.555 0-1.482-1.274-2.558-2.611-2.558" style="color:#000;-inkscape-font-specification:FreeMono;fill:#fff;stroke-width:.9;stroke-linecap:round;stroke-linejoin:round;-inkscape-stroke:none" transform="translate(-.443 .07)scale(.99993)"/></svg>