<svg xmlns="http://www.w3.org/2000/svg" xml:space="preserve" width="128" height="128" viewBox="0 0 128 128"><path d="M27.978 8h50l30.043 29.918v74.06c0 4.432-3.611 8.022-8.043 8.022h-72c-4.432 0-8-3.568-8-8V16c0-4.432 3.568-8 8-8" style="display:inline;fill:#1e64b6;fill-opacity:1;stroke:none;stroke-width:.125;stroke-linejoin:round;stroke-miterlimit:4;stroke-dasharray:none;stroke-opacity:1"/><path d="M77.978 8v22c0 4.432 3.61 7.923 8.042 7.923l22-.005z" style="display:inline;vector-effect:none;fill:#fff;fill-opacity:.30000001;stroke:none;stroke-width:.125;stroke-linecap:butt;stroke-linejoin:round;stroke-miterlimit:4;stroke-dasharray:none;stroke-dashoffset:0;stroke-opacity:1;opacity:1"/><g style="fill:#fff;fill-opacity:1"><path fill="url(#linearGradient-1)" d="M149.333 149.333c-53.333 0-98.659-26.713-98.659-58.713S90.667 32 144 32c67.357 0 98.572 25.911 98.572 57.911s-34.407 59.422-93.239 59.422M128 0C58.667 0 0 37.333 0 85.333c0 45.334 58.312 82.969 127.646 82.969 69.333 0 128.354-34.969 128.354-82.969S197.333 0 128 0" style="fill:#fff;fill-opacity:1" transform="translate(34 58.777)scale(.23438)"/><path fill="#2165b6" d="M105.946 51.829v141.109h42.643v-54.875c10.661 0 17.011-2.328 23.986 10.452 10.661 18.292 23.987 44.423 23.987 44.423H247.2s-31.982-52.262-34.647-54.875c-4.915-5.227-10.661-5.227-18.656-7.84 15.991-2.613 30.899-9.248 36.082-23.464 4.531-13.065 3.998-29.685-5.714-40.83-8.411-8.819-17.042-14.1-38.364-14.1zm42.643 29.388h27.984c6.636 0 11.993 6.533 11.993 13.065 0 6.533-5.33 13.066-11.993 13.066h-27.984z" style="fill:#fff;fill-opacity:1" transform="translate(34 58.777)scale(.23438)"/></g></svg>