<svg xmlns="http://www.w3.org/2000/svg" width="128" height="128" viewBox="0 0 128 128"><path d="M27.978 8h50l30.043 29.918.001 74.06c0 4.432-3.612 8.022-8.044 8.022h-72c-4.432 0-8-3.568-8-8V16c0-4.432 3.568-8 8-8" style="display:inline;fill:#6038cc;fill-opacity:1;stroke:none;stroke-width:.125;stroke-linejoin:round;stroke-miterlimit:4;stroke-dasharray:none;stroke-opacity:1"/><path d="M77.978 8v22c0 4.432 3.61 7.923 8.043 7.923l22-.005z" style="display:inline;vector-effect:none;fill:#fff;fill-opacity:.30000001;stroke:none;stroke-width:.125;stroke-linecap:butt;stroke-linejoin:round;stroke-miterlimit:4;stroke-dasharray:none;stroke-dashoffset:0;stroke-opacity:1"/><path d="M64.238 44.79C45.646 55.288 34.106 74.957 34 96.32c19.453 10.606 42.292 10.243 59.994.11l.006-.15c-.025-21.25-11.365-40.877-29.76-51.491zm10.013 22.746c2.757 1.873 2.348 6.383 1.904 9.471-.565 3.402-3.825 8.995-8.062 12.645a4.83 4.83 0 0 1 .86 2.786c-2.626 1.327-5.23-.17-8.38-2.868s-6.55-8.106-7.678-13.663a4.54 4.54 0 0 1-2.903-.671c.23-3.116 3.537-4.968 6.468-6.061s10.482-1.46 15.806.432a4.53 4.53 0 0 1 1.985-2.068z" style="fill:#fff;fill-opacity:1;stroke:none;stroke-width:1.61118;stroke-miterlimit:4;stroke-dasharray:none;stroke-opacity:1"/></svg>