<svg xmlns="http://www.w3.org/2000/svg" width="128" height="128" viewBox="0 0 128 128"><g style="display:inline"><path d="M124.828 857.328h200L445 977l.005 296.24c0 17.728-14.449 32.088-32.177 32.088h-288c-17.728 0-32-14.272-32-32v-384c0-17.728 14.272-32 32-32" style="display:inline;fill:#f6f5f4;fill-opacity:1;stroke:none;stroke-width:.5;stroke-linejoin:round;stroke-miterlimit:4;stroke-dasharray:none;stroke-opacity:1" transform="matrix(.25 0 0 .25 -3.23 -206.332)"/><path d="M324.828 857.328v88c0 17.728 14.443 31.694 32.17 31.694L445 977Z" style="display:inline;vector-effect:none;fill:#deddda;fill-opacity:1;stroke:none;stroke-width:.5;stroke-linecap:butt;stroke-linejoin:round;stroke-miterlimit:4;stroke-dasharray:none;stroke-dashoffset:0;stroke-opacity:1" transform="matrix(.25 0 0 .25 -3.23 -206.332)"/></g><path d="m33.978 35.99 35.99.02c1.108 0 2 .891 2 2 0 1.107-.892 2-2 2l-35.99-.02c-1.108 0-2-.891-2-2 0-1.107.892-2 2-2m0-8 35.99.02c1.108 0 2 .891 2 2 0 1.107-.892 2-2 2l-35.99-.02c-1.108 0-2-.891-2-2 0-1.107.892-2 2-2" style="display:inline;fill:#deddda;stroke-width:2;stroke-linecap:round;paint-order:markers stroke fill;stop-color:#000"/><rect width="64" height="4" x="31.978" y="76" rx="2" ry="2" style="display:inline;fill:#deddda;fill-opacity:1;stroke-width:2;stroke-linecap:round;paint-order:markers stroke fill;stop-color:#000"/><rect width="64" height="4" x="31.978" y="68" rx="2" ry="2" style="display:inline;fill:#deddda;fill-opacity:1;stroke-width:2;stroke-linecap:round;paint-order:markers stroke fill;stop-color:#000"/><rect width="64" height="4" x="31.978" y="60" rx="2" ry="2" style="display:inline;fill:#deddda;fill-opacity:1;stroke-width:2;stroke-linecap:round;paint-order:markers stroke fill;stop-color:#000"/><rect width="64" height="4" x="31.978" y="52" rx="2" ry="2" style="display:inline;fill:#deddda;fill-opacity:1;stroke-width:2;stroke-linecap:round;paint-order:markers stroke fill;stop-color:#000"/><rect width="64" height="4" x="31.978" y="44" rx="2" ry="2" style="display:inline;fill:#deddda;fill-opacity:1;stroke-width:2;stroke-linecap:round;paint-order:markers stroke fill;stop-color:#000"/><path d="m75.619 84.004 18.359-.008c1.108 0 2 .892 2 2s-.892 2-2 2l-18.359.008c-1.108 0-2-.892-2-2s.892-2 2-2m0 8 18.359-.008c1.108 0 2 .892 2 2s-.892 2-2 2l-18.359.008c-1.108 0-2-.892-2-2s.892-2 2-2m0 8 18.359-.008c1.108 0 2 .892 2 2s-.892 2-2 2l-18.359.008c-1.108 0-2-.892-2-2s.892-2 2-2" style="display:inline;fill:#deddda;stroke-width:2;stroke-linecap:round;paint-order:markers stroke fill;stop-color:#000"/><path d="m64.344 90.518 3.03-4.422c.464-.707 1.215-1.415 3.183-1.437v-.663h-5.262v.663c.884.022 1.37.509 1.37 1.017 0 .221-.043.266-.198.509l-2.52 3.714-2.83-4.245c-.045-.066-.155-.243-.155-.331 0-.266.486-.642 1.415-.664v-.663c-.752.066-2.366.066-3.206.066-.685 0-2.056-.022-2.874-.066v.663h.42c1.216 0 1.636.155 2.056.774l4.046 6.124-3.604 5.328c-.31.442-.972 1.46-3.183 1.46v.685h5.262v-.686c-1.017-.022-1.393-.619-1.393-1.017 0-.199.066-.287.22-.53l3.118-4.62 3.493 5.26c.044.09.11.178.11.244 0 .265-.486.641-1.436.663v.686c.773-.067 2.387-.067 3.205-.067.929 0 1.946.022 2.874.067v-.686h-.42c-1.15 0-1.614-.11-2.078-.796zm-6.654 7.804h-.553c-.553 3.383-1.061 4.997-4.842 4.997h-2.918c-1.039 0-1.083-.155-1.083-.885v-5.88h1.968c2.144 0 2.387.707 2.387 2.586h.553v-5.836h-.553c0 1.879-.243 2.564-2.387 2.564h-1.968v-5.284c0-.73.044-.884 1.083-.884h2.83c3.383 0 3.957 1.216 4.311 4.289h.553l-.62-4.952h-12.38v.663h.509c1.702 0 1.746.243 1.746 1.039v11.54c0 .796-.044 1.04-1.746 1.04h-.509v.685h12.69zM45.84 84.13H32.376l-.398 4.952h.53c.31-3.56.642-4.29 3.98-4.29.398 0 .973 0 1.194.045.464.089.464.332.464.84v11.607c0 .752 0 1.061-2.321 1.061h-.885v.686c.907-.067 3.14-.067 4.157-.067s3.294 0 4.2.067v-.686h-.884c-2.321 0-2.321-.31-2.321-1.06v-11.61c0-.442 0-.751.398-.84.243-.044.84-.044 1.26-.044 3.316 0 3.648.73 3.957 4.289h.553z" style="fill:#000;fill-opacity:.7;stroke-width:2.21082"/></svg>