<svg xmlns="http://www.w3.org/2000/svg" width="128" height="128" viewBox="0 0 128 128"><path d="M27.978 8h50l30.043 29.918.001 74.06c0 4.432-3.612 8.022-8.044 8.022h-72c-4.432 0-8-3.568-8-8V16c0-4.432 3.568-8 8-8" style="display:inline;fill:#649ad2;fill-opacity:1;stroke:none;stroke-width:.125;stroke-linejoin:round;stroke-miterlimit:4;stroke-dasharray:none;stroke-opacity:1"/><path d="M77.978 8v22c0 4.432 3.61 7.923 8.043 7.923l22-.005z" style="display:inline;vector-effect:none;fill:#00589c;fill-opacity:1;stroke:none;stroke-width:.125;stroke-linecap:butt;stroke-linejoin:round;stroke-miterlimit:4;stroke-dasharray:none;stroke-dashoffset:0;stroke-opacity:1"/><path fill="#fff" d="M61.048 104.001c-16.542 0-30-13.458-30-30s13.458-30 30-30c10.674 0 20.629 5.744 25.98 14.99l-12.984 7.514A15.06 15.06 0 0 0 61.048 59c-8.271 0-15 6.729-15 15s6.729 15 15 15a15.06 15.06 0 0 0 12.997-7.504l12.983 7.512C81.678 98.256 71.723 104 61.048 104"/><path fill="#fff" d="M81.119 79.001v-3.333h3.333v-3.334H81.12v-3.333h-3.333v3.333h-3.334v3.334h3.334V79zm12.5 0v-3.333h3.333v-3.334H93.62v-3.333h-3.333v3.333h-3.334v3.334h3.334V79z"/></svg>