<svg xmlns="http://www.w3.org/2000/svg" xml:space="preserve" width="128" height="128" viewBox="0 0 128 128"><path d="M27.996 8h49.975L108 37.918l.001 74.06c0 4.432-3.61 8.022-8.04 8.022H27.996A7.98 7.98 0 0 1 20 112V16c0-4.432 3.566-8 7.996-8" style="display:inline;fill:#f6f5f4;fill-opacity:1;stroke:none;stroke-width:.124969;stroke-linejoin:round;stroke-miterlimit:4;stroke-dasharray:none;stroke-opacity:1"/><path d="M77.957 8v22c0 4.432 3.61 7.923 8.043 7.923l22-.005Z" style="display:inline;vector-effect:none;fill:#deddda;fill-opacity:1;stroke:none;stroke-width:.125;stroke-linecap:butt;stroke-linejoin:round;stroke-miterlimit:4;stroke-dasharray:none;stroke-dashoffset:0;stroke-opacity:1"/><path d="M68.654 55.645c9.837 10.81 3.136 19.2-3.02 31.447h5.033c2.773-4.425 4.95-9.447 6.95-14.645 1.956 4.655 3.876 9.344 5.126 14.645h5.032C84.057 74.22 79.67 65.361 73.686 55.645Zm-4.71-11.726c-1.466.003-2.899.223-4.33.436-.048.006-.095.006-.141.013-1.203.185-2.368.468-3.534.795-.672.18-1.334.379-1.996.608a30 30 0 0 0-2.514 1.013c-.952.432-1.87.943-2.783 1.485-.614.367-1.23.711-1.818 1.123-.21.146-.44.245-.647.398l-.01.004.002.002c-.012.01-.026.014-.039.023l.059.092c-1.172.869-2.346 1.737-3.39 2.78-11.724 11.704-11.739 30.705-.034 42.426 11.705 11.723 30.706 11.738 42.429.034 11.723-11.705 11.738-30.706.033-42.427a30 30 0 0 0-21.288-8.805m.285.756a29.2 29.2 0 0 1 20.469 8.582c11.415 11.433 11.4 29.946-.033 41.36-5.657 5.648-14.812 5.64-20.46-.015-5.648-5.656-5.639-14.812.018-20.459 5.959-5.949 5.965-15.612.015-21.57-4.079-4.085-10.031-5.361-15.398-3.687q.057-.036.115-.07a29 29 0 0 1 2.736-1.463 29 29 0 0 1 2.463-.993c.637-.227 1.288-.406 1.94-.59 1.153-.31 2.31-.614 3.484-.783.02-.003.04-.002.06-.006a31 31 0 0 1 4.59-.306M40.656 61.06h4.367c1.259 5.227 3.143 9.87 5.068 14.453l.303.72.281-.73c1.976-5.135 4.13-10.08 6.844-14.443h4.327c-2.995 5.897-6.093 10.953-7.293 15.873-1.193 4.89-.376 9.694 4.17 14.945h-4.23c-5.86-9.533-10.173-18.272-13.837-30.818" style="stroke-width:.125793"/></svg>