<svg xmlns="http://www.w3.org/2000/svg" xmlns:xlink="http://www.w3.org/1999/xlink" xml:space="preserve" width="128" height="128" viewBox="0 0 128 128"><defs><linearGradient id="text_x_ocaml_a" x1="-675.219" x2="-675.219" y1="-1.28" y2="142.965" gradientTransform="translate(314.919 20.747)scale(.53156)" gradientUnits="userSpaceOnUse"><stop offset="0" style="stop-color:#f29100"/><stop offset="1" style="stop-color:#ec670f"/></linearGradient><linearGradient xlink:href="#text_x_ocaml_a" id="text_x_ocaml_b" x1="64" x2="64" y1="20" y2="108" gradientUnits="userSpaceOnUse"/></defs><path d="M27.996 8h49.975L108 37.918l.001 74.06c0 4.432-3.61 8.022-8.04 8.022H27.996A7.98 7.98 0 0 1 20 112V16c0-4.432 3.566-8 7.996-8" style="display:inline;fill:url(#text_x_ocaml_b);fill-opacity:1;stroke:none;stroke-width:.124969;stroke-linejoin:round;stroke-miterlimit:4;stroke-dasharray:none;stroke-opacity:1"/><path d="M77.978 8v22c0 4.432 3.61 7.923 8.043 7.923l22-.005z" style="display:inline;vector-effect:none;fill:#000;fill-opacity:.2;stroke:none;stroke-width:.125;stroke-linecap:butt;stroke-linejoin:round;stroke-miterlimit:4;stroke-dasharray:none;stroke-dashoffset:0;stroke-opacity:1"/><path fill="#fff" d="M65.759 111.212c-.111-.757.105-1.51-.123-2.22-.195-.62-.643-.677-.937-1.181-.774-1.322-1.575-3.035-1.649-4.653-.067-1.454-.602-2.768-.675-4.209-.035-.695.047-1.412.022-2.1a6.6 6.6 0 0 0-.099-.989c-.017-.09-.076-.46-.104-.608l.181-.45c-.08-.156 1.543-.104 2.026-.1.822.01 1.594.052 2.413.091 1.673.083 3.198.062 4.828-.19 3.631-.56 5.3-2.043 6.155-2.66 3.334-2.404 4.862-6.335 4.862-6.335.55-1.227.548-3.418 1.727-4.399 1.39-1.158 3.724-1.075 5.32-1.785.933-.413 1.607-.64 2.561-.443.708.148 1.983.968 2.276-.183-.237-.153-.33-.432-.456-.587 1.316-.13.025-3.182-.495-3.791-.804-.941-2.145-1.372-3.572-1.75-1.694-.45-3.232-.968-4.827-.655-2.787.545-2.578-1.05-4.22-1.05-1.97 0-5.477.097-6.083 2.013-.282.895-.573.932-1.062 1.618-.418.588.073 1.107-.137 1.778-.217.69-.536 3.117-.868 3.965-.562 1.433-1.231 3.223-2.468 3.223-1.733.208-3.096.274-4.501-.236-.847-.307-2.265-.788-2.967-1.084-3.236-1.362-3.767-2.853-3.767-2.853-.347-.574-1.262-1.5-1.604-2.707-.377-1.33-1.012-2.44-1.27-3.131-.266-.717-.902-1.866-1.403-3.108-.64-1.59-1.541-2.776-2.2-3.365-1.009-.898-1.939-2.289-3.985-1.885-.365.072-1.694.132-2.713.987-.69.579-.908 1.774-1.548 2.783-.37.582-1.019 2.254-1.615 3.648-.413.966-.605 1.69-1.052 2.046-.349.279-.781.639-1.305.443a4 4 0 0 1-1.022-.602c-.473-.37-1.549-2.2-2.21-3.551-.572-1.173-1.794-2.925-2.5-3.874-1.018-1.365-1.615-1.711-3.118-1.711-3.225 0-3.469 1.806-4.888 4.432-.622 1.153-.85 2.984-2.1 4.418-.715.821-2.997 4.196-4.583 4.77v-.017l-.004.016v24.057l.004.034v-.151a8 8 0 0 1 .336-.884c.613-1.307 2.037-2.52 2.828-3.862.43-.732.92-1.448 1.205-2.216.245-.66.366-1.647.72-2.22.434-.704 1.113-.943 1.81-1.057 1.093-.18 2.02 1.57 3.418 2.215.596.274 3.339 1.245 4.162 1.444 1.356.324 2.86.595 4.237.873.738.149 1.442.235 2.202.312.68.068 3.231.153 3.39.337-1.297.662-2.057 2.518-2.544 3.831-.508 1.37-.862 2.893-1.475 4.232-.68 1.479-2.106 2.094-1.936 3.818.066.688.191 1.41.076 2.166-.122.797-.444 1.419-.678 2.2-.301 1.017-.66 4.305-1.124 5.271l2.837-.355.005-.002c.31-.737.595-3.847.696-4.143.53-1.56 1.234-2.843 2.317-4.05 1.056-1.174 1-2.69 1.617-4.059.668-1.488 1.566-2.678 2.413-4.077 1.532-2.53 2.542-5.723 5.797-6.373.348-.072 2.341 1.366 3.226 2.22 1.013.974 2.12 2.102 2.785 3.445 1.289 2.602 2.381 6.372 2.795 8.451.238 1.194.427 1.265 1.234 2.21.372.434 1.113 1.788 1.357 2.308.257.555.646 1.818.957 2.462.182.384.657 1.563 1.002 2.582l2.65-.083c.01.022.058-.006.07.014h.003l-.03-.066c-1.321-2.651-2.167-5.718-2.603-8.653" style="stroke-width:.531555"/></svg>