<svg xmlns="http://www.w3.org/2000/svg" width="128" height="128" viewBox="0 0 128 128"><linearGradient id="video_x_generic_a" x1="-841.547" x2="-493.708" y1="204" y2="-70" gradientTransform="matrix(.25946 0 0 .25 237.097 56)" gradientUnits="userSpaceOnUse"><stop offset="0" stop-color="#e01b24"/><stop offset=".394" stop-color="#e66100"/><stop offset="1" stop-color="#df97e0"/></linearGradient><path fill="#f6f5f4" d="M15.5 28h97c4.14 0 7.5 3.36 7.5 7.5v73c0 4.14-3.36 7.5-7.5 7.5h-97c-4.14 0-7.5-3.36-7.5-7.5v-73c0-4.14 3.36-7.5 7.5-7.5m0 0"/><path fill="url(#video_x_generic_a)" d="M19.777 36h88.446A3.78 3.78 0 0 1 112 39.777v64.446a3.78 3.78 0 0 1-3.777 3.777H19.777A3.78 3.78 0 0 1 16 104.223V39.777A3.78 3.78 0 0 1 19.777 36m0 0"/><path fill="#fff" d="M56 60v22h2.2c.382 0 .757-.098 1.093-.29l15.395-8.796c.687-.394 1.109-1.125 1.109-1.914s-.422-1.52-1.11-1.91l-15.394-8.8a2.2 2.2 0 0 0-1.05-.29h-.044zm0 0"/></svg>