<svg xmlns="http://www.w3.org/2000/svg" xml:space="preserve" width="128" height="128" viewBox="0 0 128 128"><path d="M27.978 8h50l30.043 29.918.001 74.06c0 4.432-3.612 8.022-8.044 8.022h-72c-4.432 0-8-3.568-8-8V16c0-4.432 3.568-8 8-8" style="display:inline;fill:#f96328;fill-opacity:1;stroke:none;stroke-width:.125;stroke-linejoin:round;stroke-miterlimit:4;stroke-dasharray:none;stroke-opacity:1"/><path d="M77.978 8v22c0 4.432 3.61 7.923 8.043 7.923l22-.005z" style="display:inline;fill:#000;fill-opacity:.203383;stroke:none;stroke-width:.125;stroke-linecap:butt;stroke-linejoin:round;stroke-miterlimit:4;stroke-dasharray:none;stroke-dashoffset:0;stroke-opacity:1"/><path fill="#00758a" d="M93.987 80.425H64.702l-4.796 16.543h-5.817a.314.314 0 0 1-.306-.23L43.286 59.8h7.308l3.865 13.61h7.296l-5.867-20.625H34l13.036 45.88a7.36 7.36 0 0 0 7.053 5.331h11.097l4.796-16.543h17.003v9.21a.31.31 0 0 1-.319.319H74.51l-2.04 7.014h14.196c1.964 0 3.8-.765 5.191-2.155A7.27 7.27 0 0 0 94 96.65V80.425Z" style="fill:#fff;fill-opacity:.8;stroke-width:.4"/><path fill="#f29111" d="M91.997 73.41h1.99V60.132a7.33 7.33 0 0 0-2.143-5.192 7.26 7.26 0 0 0-5.191-2.155H72.737L66.742 73.41ZM78.005 59.8h8.66a.306.306 0 0 1 .319.319v6.276H76.092l1.926-6.608z" style="fill:#fff;stroke-width:.4"/></svg>