<svg xmlns="http://www.w3.org/2000/svg" xml:space="preserve" width="128" height="128" viewBox="0 0 128 128"><path d="M28.014 7.842h50l30.042 29.918.001 74.06c0 4.432-3.612 8.022-8.044 8.022h-72c-4.432 0-8-3.568-8-8v-96c0-4.432 3.568-8 8-8" style="display:inline;fill:#faac28;fill-opacity:1;stroke:none;stroke-width:.125;stroke-linejoin:round;stroke-miterlimit:4;stroke-dasharray:none;stroke-opacity:1"/><path d="M77.978 8v22c0 4.432 3.61 7.923 8.043 7.923l22-.005z" style="display:inline;fill:#000;fill-opacity:.203383;stroke:none;stroke-width:.125;stroke-linecap:butt;stroke-linejoin:round;stroke-miterlimit:4;stroke-dasharray:none;stroke-dashoffset:0;stroke-opacity:1"/><path fill="#00758a" d="M94.023 80.542H64.737l-4.796 16.543h-5.816a.314.314 0 0 1-.306-.23L43.32 59.917h7.309l3.865 13.61h7.296L55.923 52.9H34.035l13.036 45.88a7.36 7.36 0 0 0 7.054 5.332h11.097l4.796-16.543H87.02v9.209c0 .09-.025.165-.089.23a.3.3 0 0 1-.23.089H74.546l-2.041 7.015H86.7a7.3 7.3 0 0 0 5.192-2.156 7.27 7.27 0 0 0 2.142-5.19V80.541Z" style="fill:#fff;fill-opacity:.8;stroke-width:.4"/><path fill="#f29111" d="M92.033 73.526h1.99V60.248a7.33 7.33 0 0 0-2.143-5.191 7.26 7.26 0 0 0-5.192-2.156H72.773l-5.995 20.625ZM78.04 59.916h8.661a.306.306 0 0 1 .319.319v6.276H76.127l1.926-6.607z" style="fill:#fff;stroke-width:.4"/></svg>