<svg xmlns="http://www.w3.org/2000/svg" width="128" height="128" viewBox="0 0 128 128"><radialGradient id="x_office_document_a" cx="413.639" cy="226.773" r="192" gradientTransform="rotate(60 14.02 -111.079)scale(.46264 -.28262)" gradientUnits="userSpaceOnUse"><stop offset="0" stop-color="#50db81"/><stop offset="1" stop-color="#8ff0a4" stop-opacity=".004"/></radialGradient><radialGradient id="x_office_document_b" cx="521.89" cy="228.371" r="192" gradientTransform="matrix(0 -.27843 -.28405 0 110.87 251.311)" gradientUnits="userSpaceOnUse"><stop offset="0" stop-color="#4a86cf"/><stop offset="1" stop-color="#87bae1" stop-opacity="0"/></radialGradient><path fill="#f6f5f4" d="M28 8h50l30.043 29.918v74.059c0 4.433-3.61 8.023-8.043 8.023H28a7.98 7.98 0 0 1-8-8V16c0-4.434 3.566-8 8-8m0 0"/><path fill="#deddda" d="M78 8v22c0 4.434 3.61 7.922 8.043 7.922l22-.004zm4 92h12a2 2 0 1 1 0 4H82a2 2 0 1 1 0-4m0-8h12a2 2 0 1 1 0 4H82a2 2 0 1 1 0-4m0-8h12a2 2 0 1 1 0 4H82a2 2 0 1 1 0-4m0-8h12a2 2 0 1 1 0 4H82a2 2 0 1 1 0-4m0-8h12a2 2 0 1 1 0 4H82a2 2 0 1 1 0-4m0-8h12a2 2 0 1 1 0 4H82a2 2 0 1 1 0-4m0-8h12a2 2 0 1 1 0 4H82a2 2 0 1 1 0-4m-48-8h60a2 2 0 1 1 0 4H34a2 2 0 1 1 0-4m0-8h36c1.105 0 2 .594 2 1.324v1.352c0 .73-.895 1.324-2 1.324H34c-1.105 0-2-.594-2-1.324v-1.352c0-.73.895-1.324 2-1.324m0-8h36c1.105 0 2 .594 2 1.324v1.352c0 .73-.895 1.324-2 1.324H34c-1.105 0-2-.594-2-1.324v-1.352c0-.73.895-1.324 2-1.324m0 0"/><path fill="url(#x_office_document_a)" d="M36 104h34c2.21 0 4-1.79 4-4V57.965a4 4 0 0 0-4-4H36a4 4 0 0 0-4 4V100c0 2.21 1.79 4 4 4m0 0"/><path fill="url(#x_office_document_b)" d="M36 104h34c2.21 0 4-1.79 4-4V57.965a4 4 0 0 0-4-4H36a4 4 0 0 0-4 4V100c0 2.21 1.79 4 4 4m0 0"/></svg>