<svg xmlns="http://www.w3.org/2000/svg" width="24" height="24" fill="currentColor" viewBox="0 -960 960 960"><path d="m480-428 116 116q10.5 10.5 26 10.5t26-10.5 10.5-26-10.5-26L532-480l116-116q10.5-10.5 10.5-26T648-648t-26-10.5-26 10.5L480-532 364-648q-10.5-10.5-26-10.5T312-648t-10.5 26 10.5 26l116 116-116 116q-10.5 10.5-10.5 26t10.5 26 26 10.5 26-10.5zm0 338q-81 0-152-30.75t-123.75-83.5T120.75-328 90-480t30.75-152 83.5-123.75T328-839.25 480-870t152 30.75 123.75 83.5T839.25-632 870-480t-30.75 152-83.5 123.75T632-120.75 480-90m0-75q131.5 0 223.25-91.75T795-480t-91.75-223.25T480-795t-223.25 91.75T165-480t91.75 223.25T480-165m0-315"/></svg>