<svg xmlns="http://www.w3.org/2000/svg" height="24px" viewBox="0 0 24 24" width="24px" fill="currentColor">
    <g transform="scale(0.04) translate(40, 60)">
        <path
            d="M256 0C204.698 0 158.925 23.7954 128.86 60.8594C128.911 60.8696 128.969 60.8794 129.02 60.8794C108.12 86.6786 94.7285 118.886 92.66 154.351C92.3426 159.998 87.687 164.196 81.84 163.96C76.1978 163.632 71.8821 158.787 72.22 153.129C73.7867 126.192 81.2123 100.956 93.06 78.4365C93.3262 77.842 93.4621 77.3103 93.8 76.6748C39.8966 91.8038 0 141.481 0 199.875C0 270.528 57.4157 328 128 328H419.84C470.661 328 512 286.621 512 235.75C512 216.388 505.757 197.863 494.8 182.498C490.018 193.763 482.924 204.051 473.78 212.527C471.804 214.352 469.308 215.25 466.82 215.25C464.065 215.25 461.317 214.15 459.3 211.967C455.46 207.805 455.703 201.327 459.86 197.473C473.674 184.681 481.28 167.331 481.28 148.625C481.28 110.198 452.944 78.3787 416.1 72.731C416.018 72.8437 416.022 72.9385 415.94 73.0513C429.518 96.903 438.08 124.029 439.78 153.149C440.108 158.807 435.792 163.642 430.16 163.98C429.945 163.99 429.745 164 429.54 164C424.164 164 419.647 159.793 419.34 154.351C417.579 124.082 407.482 96.2259 391.62 72.6509C389.111 68.9301 386.616 65.1754 383.82 61.6802C353.766 24.1344 307.681 0 256 0ZM256 41C323.758 41 378.88 96.1757 378.88 164C378.88 231.824 323.758 287 256 287C188.242 287 133.12 231.824 133.12 164C133.12 96.1757 188.242 41 256 41ZM256 61.5C199.537 61.5 153.6 107.482 153.6 164C153.6 220.518 199.537 266.5 256 266.5C312.463 266.5 358.4 220.518 358.4 164C358.4 107.482 312.463 61.5 256 61.5ZM220.16 102.5H271.36C296.765 102.5 317.44 123.195 317.44 148.625C317.44 174.055 296.765 194.75 271.36 194.75H235.52V220.375C235.52 228.862 228.639 235.75 220.16 235.75C211.681 235.75 204.8 228.862 204.8 220.375V117.875C204.8 109.388 211.681 102.5 220.16 102.5ZM235.52 133.25V164H271.36C279.828 164 286.72 157.102 286.72 148.625C286.72 140.148 279.828 133.25 271.36 133.25H235.52Z" />
    </g>
</svg>