<svg width="516" height="482" viewBox="0 0 516 482" xmlns="http://www.w3.org/2000/svg">
    <!-- I cannot found a azure symbol svg, so I create one based on azure logo. Its not perfect as fontawesome icons but its better than nothing. -->
    <path
        d="M345.268 0H192.145C197.338 0 201.161 1.485 205.242 4.455C209.323 7.425 212.662 11.509 214.146 16.335L360.317 449.216C361.43 452.928 361.801 456.641 361.059 460.354C360.317 464.066 358.833 467.779 356.236 470.749C354.01 473.719 351.042 475.946 347.704 477.802L344.365 479.287C341.026 480.772 333.687 481.515 328.493 481.515H496.262C499.972 481.515 503.682 480.772 507.021 479.287C510.36 477.802 513.328 475.204 515.554 472.234C517.78 469.264 519.635 465.551 520.377 461.839C521.119 458.126 520.748 454.413 519.635 450.701L373.464 18.934C371.98 14.108 368.641 10.024 364.56 7.054C360.479 4.084 355.656 1.856 345.268 0Z M150.832 3.455C154.913 0.485 159.736 0 164.93 0C170.124 0 173.946 1.6 178.027 4.57C182.108 7.54 184.447 11.624 185.931 16.45L247.145 196.508L215 300.031H145C140.8 300.031 136.9 301.631 133.8 304.431C130.7 307.231 127.9 311.131 127.2 314.731C126.5 318.331 126.1 325.231 127.9 328.631C129.88 333.482 129.504 331.778 131 334.568C132.251 336.901 134.112 339.579 137.3 342.631L184.5 386.031L159.736 462.696C158.252 467.522 155.284 471.606 151.203 474.576C147.122 477.546 142.299 479.031 137.105 479.031H19.501C15.791 479.031 12.081 478.288 8.74203 476.803C5.40303 474.947 2.43503 472.72 0.209033 469.75C-2.38797 466.78 -3.87197 463.067 -4.61397 459.355C-5.35597 455.642 -4.98497 451.93 -3.87197 448.217L142.299 15.335C143.783 10.509 146.751 6.425 150.832 3.455Z M151.198 315.771C152.998 314.671 154.998 315.071 157.198 315.071H294.598C294.598 315.071 337.198 441.271 338.598 445.671C339.998 450.071 340.598 453.071 340.598 456.171C340.198 459.871 338.998 462.371 336.798 465.371C334.598 468.371 331.998 470.271 328.698 472.171C325.398 474.071 321.698 474.971 318.298 474.971H313.398C309.298 474.971 305.498 473.471 302.398 470.671L148.798 332.971C147.198 331.471 146.098 329.571 145.398 327.271C144.698 325.071 144.998 322.871 145.698 320.671C146.398 318.471 147.698 316.871 151.198 315.771Z" />

</svg>