<svg width="500" height="281" viewBox="0 0 500 281" xmlns="http://www.w3.org/2000/svg">
    <path
        d="M20 0C9.60938 0 1.05469 8.35938 0 18.75V185.312C1.05469 238.398 43.8281 280.938 96.875 280.938C134.336 280.938 166.562 259.961 182.188 228.75C198.828 258.906 231.094 280.938 267.5 280.938C320.547 280.938 364.375 237.109 364.375 184.062C365.391 129.961 321.523 86.25 268.438 86.25C231.016 86.25 198.711 107.227 183.125 138.438C166.484 108.281 134.219 86.25 97.8125 86.25C75.9766 86.25 56.3281 93.75 39.6875 106.25V18.75C39.6875 8.35938 31.4453 0 20 0ZM477.812 85.625C472.891 86.1328 468.438 88.3203 465.312 92.5L422.5 149.688L378.75 93.75C372.5 85.4297 360.195 83.3594 351.875 90.625C343.555 96.875 341.25 109.18 347.5 117.5L397.5 184.062L347.5 249.688C341.25 258.008 343.555 270.352 351.875 276.562C360.195 282.812 372.5 281.758 378.75 273.438L421.562 216.25L464.062 273.438C470.312 281.758 482.93 283.828 491.25 276.562C500.586 270.352 501.445 259.062 496.25 249.688L446.562 183.125L496.25 116.562C502.5 108.242 500.508 95.625 492.188 89.375C488.047 86.25 482.734 85.1172 477.812 85.625ZM96.875 124.688C129.141 124.688 155 150.859 155 183.125C155 215.391 129.141 241.25 96.875 241.25C64.6484 241.25 38.75 215.391 38.75 183.125C38.75 150.859 64.6484 124.688 96.875 124.688ZM268.438 124.688C300.703 124.688 326.875 150.859 326.875 183.125C326.875 215.391 300.703 241.25 268.438 241.25C236.211 241.25 210.312 215.391 210.312 183.125C210.312 150.859 236.211 124.688 268.438 124.688Z" />
</svg>