<svg xmlns="http://www.w3.org/2000/svg" width="24" height="24" fill="currentColor" viewBox="0 0 24 24"><path d="M2.8 6.379c-.416 0-.758.334-.8.75v6.664c.042 2.123 1.753 3.825 3.876 3.825a3.79 3.79 0 0 0 3.413-2.088c.665 1.207 1.956 2.088 3.413 2.088 2.122 0 3.875-1.753 3.875-3.875a3.846 3.846 0 0 0-3.838-3.914c-1.497 0-2.79.84-3.413 2.088C8.66 10.711 7.37 9.83 5.913 9.83c-.873 0-1.66.3-2.325.8v-3.5c0-.416-.33-.75-.788-.75m18.316 3.425a.7.7 0 0 0-.5.275l-1.713 2.288-1.75-2.238a.74.74 0 0 0-1.076-.124c-.333.25-.425.742-.175 1.075l2 2.663-2 2.625c-.25.333-.157.827.175 1.075.333.25.825.208 1.075-.125l1.713-2.288 1.7 2.288c.25.333.755.416 1.088.125.374-.248.408-.7.2-1.075l-1.988-2.663 1.988-2.663c.25-.333.17-.838-.162-1.088a.82.82 0 0 0-.575-.15m-15.24 1.563A2.33 2.33 0 0 1 8.2 13.705a2.317 2.317 0 0 1-2.325 2.326 2.32 2.32 0 0 1-2.326-2.326 2.33 2.33 0 0 1 2.326-2.338m6.863 0a2.34 2.34 0 0 1 2.338 2.338 2.33 2.33 0 0 1-2.338 2.326 2.32 2.32 0 0 1-2.325-2.326 2.33 2.33 0 0 1 2.325-2.338"/></svg>