<svg xmlns="http://www.w3.org/2000/svg" width="24" height="24" fill="currentColor" viewBox="0 0 24 24"><path d="M19.669 5.018c-.008-.011-.015-.023-.03-.026A18 18 0 0 0 15.15 3.6a.1.1 0 0 0-.041.004q-.018.007-.03.03c-.207.371-.394.758-.559 1.148a16.7 16.7 0 0 0-5.04 0 12 12 0 0 0-.566-1.148.1.1 0 0 0-.03-.03q-.017-.009-.041-.007c-1.55.266-3.06.735-4.49 1.39a.1.1 0 0 0-.03.027C1.467 9.282.684 13.448 1.066 17.558q.001.015.008.03c.003.011.01.015.018.022a18.2 18.2 0 0 0 5.505 2.783q.023.006.042 0a.1.1 0 0 0 .033-.026 13 13 0 0 0 1.125-1.83.1.1 0 0 0 .008-.03q.001-.016-.004-.03-.005-.018-.015-.023-.01-.008-.026-.015a12 12 0 0 1-1.721-.821l-.027-.023c-.007-.007-.011-.022-.011-.033q-.002-.018.008-.034c.007-.011.01-.019.022-.026.116-.087.233-.177.341-.267.012-.007.023-.015.034-.015q.018-.001.038.004c3.607 1.646 7.515 1.646 11.08 0a.1.1 0 0 1 .038-.007q.02.002.034.015c.109.09.225.183.341.27q.011.01.023.026.009.016.007.034a.06.06 0 0 1-.011.033.1.1 0 0 1-.022.023q-.827.484-1.722.817-.012.005-.026.015a.1.1 0 0 0-.015.027q-.005.014-.004.03.001.014.008.03.495.956 1.125 1.83a.1.1 0 0 0 .034.026c.01.004.03.004.04 0a18.3 18.3 0 0 0 5.517-2.783.1.1 0 0 0 .019-.022.1.1 0 0 0 .007-.03c.462-4.755-.768-8.884-3.259-12.544zM8.344 15.057c-1.088 0-1.98-.998-1.98-2.22s.877-2.22 1.98-2.22c1.114 0 1.999 1.005 1.98 2.22 0 1.226-.878 2.22-1.98 2.22m7.327 0c-1.087 0-1.98-.998-1.98-2.22s.878-2.22 1.98-2.22c1.114 0 1.999 1.005 1.98 2.22 0 1.226-.87 2.22-1.98 2.22"/></svg>