<svg xmlns="http://www.w3.org/2000/svg" width="24" height="24" fill="currentColor" viewBox="0 0 24 24"><path fill-rule="evenodd" d="M12 2C6.478 2 2 6.478 2 12s4.478 10 10 10 10-4.477 10-10S17.523 2 12 2M6.673 5.092h6.235a1.22 1.22 0 1 1-.01 1.277H6v11.927c0 .014 0 .022-.002.035a8.8 8.8 0 0 0 2.072 1.46v-5.184l.002-.03q0-.015.005-.03l.006-.03.007-.031q.003-.016.008-.03l.011-.031q.008-.016.01-.029l.014-.028q.008-.012.013-.029l.015-.026.016-.026q.01-.01.017-.026.01-.011.017-.024l.02-.024q.01-.012.02-.021l.021-.022.024-.02.024-.02q.012-.01.024-.016.013-.012.026-.016l.026-.015.028-.013c.012-.002.018-.009.029-.013l.028-.013.03-.011.031-.009.03-.009.031-.006q.016-.004.03-.005.015 0 .031-.004l.03-.002h2.156a1.22 1.22 0 1 1-.01 1.28H9.346v4.948l-.007.085c.843.265 1.738.41 2.664.41a8.7 8.7 0 0 0 2.394-.332V13.78a1.22 1.22 0 1 1 1.277.02v6.114a8.7 8.7 0 0 0 1.646-1V12.73l.002-.03q0-.016.005-.03l.006-.031.006-.03q.004-.016.01-.031l.01-.03.01-.031.014-.029q.007-.012.013-.028l.015-.026.016-.026q.01-.013.017-.026c.004-.009.013-.015.017-.024l.02-.024a.1.1 0 0 1 .021-.022q.012-.009.022-.021l.024-.02.024-.02q.012-.01.026-.017.013-.01.026-.015l.026-.015a.1.1 0 0 1 .029-.013q.013-.008.028-.014t.028-.013q.016-.007.03-.01l.031-.01.03-.008.031-.007.03-.004q.016-.003.031-.002l.03-.002h2.781v-.122a8.68 8.68 0 0 0-2.129-5.71v2.747l-.002.032c0 .013-.002.02-.004.03l-.007.031-.006.03-.009.031-.01.03-.014.03-.013.03-.013.028c-.003.01-.011.017-.015.028l-.016.026q-.01.013-.017.026l-.02.024-.019.024a.1.1 0 0 1-.022.022.1.1 0 0 0-.021.022l-.024.02c-.01.005-.015.012-.024.019s-.015.013-.026.017q-.015.01-.026.015l-.029.015q-.013.008-.028.014l-.029.013-.03.013-.03.01-.031.01-.03.006-.03.006c-.012.002-.02.002-.033.005-.013.002-.02.002-.033.002H9.347v1.297a1.22 1.22 0 0 1-.628 2.268 1.22 1.22 0 0 1-1.217-1.224c0-.434.226-.817.568-1.032V8.972l.002-.03q0-.015.004-.031l.006-.03.007-.03.008-.031.011-.03q.009-.016.011-.03l.013-.028q.009-.012.013-.028l.016-.028.015-.026q.01-.014.017-.027.01-.011.017-.024l.02-.024q.01-.012.02-.021l.021-.022q.012-.012.024-.02l.024-.019q.012-.01.024-.017.013-.011.026-.015l.026-.016c.011-.004.017-.01.029-.013.01-.002.017-.009.028-.013l.028-.013q.016-.009.03-.011l.031-.009.03-.009.031-.006.03-.004.031-.002.03-.002h8.63v-3.21l.002-.06a8.65 8.65 0 0 0-5.323-1.817 8.7 8.7 0 0 0-5.329 1.816M3.275 12c0-1.78.533-3.435 1.447-4.812v9.626A8.7 8.7 0 0 1 3.275 12m17.337 1.397h-2.02v4.314a8.65 8.65 0 0 0 2.02-4.314" clip-rule="evenodd"/></svg>