<svg xmlns="http://www.w3.org/2000/svg" width="24" height="24" fill="currentColor" viewBox="0 0 24 24"><path d="M10.705 4.088C9.64 4.34 8.602 5.245 8.23 6.25c-.282.734-.282 1.76 0 2.504.433 1.166 1.68 2.101 2.968 2.232.443.05.594.11.715.292.14.22.14.261-.01.492-.131.201-.252.252-.594.252-.996 0-2.224-.553-3.029-1.358-1.237-1.226-1.62-3.057-1.016-4.776.08-.241.13-.452.11-.473-.07-.07-.875.372-1.539.835A7.04 7.04 0 0 0 3.29 9.709c-.16.463-.251 1.066-.312 2.082-.1 1.709-.18 2.06-.654 2.745-.422.623-.432 1.025-.02 1.337.383.281.715.16 1.157-.432.212-.272.413-.493.463-.493.04-.01.07 1.005.07 2.242 0 2.242 0 2.262.242 2.544l.242.282h2.959l.24-.282c.232-.271.242-.352.242-1.589v-1.297l.433.07c.543.101 1.71.101 2.264 0l.422-.07v1.297c0 1.237.01 1.318.242 1.59l.241.28h2.959l.241-.28c.242-.282.242-.293.242-2.645 0-1.298.03-2.353.06-2.353s.262.18.513.402c.252.221.685.482.976.593l.514.191.06.694c.12 1.639 1.5 2.705 3.049 2.353 1.399-.312 2.324-1.79 1.63-2.594-.201-.232-.322-.282-.714-.282-.483 0-.463-.02-1.077.744-.372.453-.916.171-.926-.483-.01-.432-.01-.432.503-.623.644-.241 1.45-.925 1.45-1.237 0-.271-.182-.462-.423-.462-.101 0-.473.2-.826.442-.503.342-.784.463-1.207.513-1.137.14-1.992-.15-2.707-.945-.422-.473-.432-.493-.211-.794.221-.322.503-.272 1.016.18.644.563 1.218.704 1.973.493l.372-.1v-2.283c0-2.524-.06-2.906-.604-3.931-.423-.795-1.399-1.71-2.244-2.112a6 6 0 0 0-1.439-.432c-.443-.06-.885-.192-.996-.282a3.53 3.53 0 0 0-2.999-.694m6.229 6.174c.151.231.151.272 0 .503-.1.15-.262.251-.413.251s-.312-.1-.412-.251c-.151-.231-.151-.272 0-.503.1-.15.261-.251.412-.251s.312.1.413.251"/></svg>