<svg width="512" height="410" viewBox="0 0 512 410" xmlns="http://www.w3.org/2000/svg">
    <path
        d="M222.858 2.25717C195.552 8.6925 169.02 31.8597 159.488 57.6011C152.276 76.3922 152.276 102.648 159.488 121.697C170.565 151.557 202.507 175.496 235.48 178.843C246.814 180.13 250.678 181.674 253.77 186.308C257.376 191.971 257.376 193.001 253.512 198.921C250.163 204.069 247.072 205.356 238.314 205.356C212.811 205.356 181.384 191.199 160.777 170.606C129.092 139.201 119.303 92.3518 134.759 48.3342C136.82 42.1562 138.108 36.7506 137.593 36.2357C135.789 34.4338 115.181 45.76 98.18 57.6011C68.2985 78.9664 44.857 110.628 33.0075 146.151C28.8859 157.992 26.5675 173.437 25.0219 199.436C22.4459 243.196 20.3851 252.206 8.27798 269.71C-2.54117 285.669 -2.79877 295.966 7.76278 303.946C17.5515 311.153 26.0523 308.064 37.3867 292.877C42.7962 285.927 47.9482 280.264 49.2362 280.264C50.2666 280.006 51.0394 306.005 51.0394 337.667C51.0394 395.07 51.0394 395.585 57.2218 402.792L63.4041 410H101.271H139.138L145.321 402.792C151.245 395.842 151.503 393.783 151.503 362.121V328.915L162.58 330.717C176.49 333.291 206.371 333.291 220.539 330.717L231.359 328.915V362.121C231.359 393.783 231.616 395.842 237.541 402.792L243.723 410H281.59H319.457L325.64 402.792C331.822 395.585 331.822 395.327 331.822 335.093C331.822 301.886 332.595 274.858 333.368 274.858C334.141 274.858 340.065 279.491 346.505 285.154C352.945 290.818 364.022 297.51 371.492 300.342L384.63 305.233L386.175 322.994C389.267 364.953 424.558 392.238 464.228 383.229C500.034 375.249 523.733 337.409 505.959 316.816C500.807 310.896 497.716 309.609 487.669 309.609C475.305 309.609 475.82 309.094 460.106 328.657C450.575 340.241 436.665 333.033 436.407 316.302C436.15 305.233 436.15 305.233 449.287 300.342C465.773 294.164 486.381 276.66 486.381 268.68C486.381 261.73 481.745 256.839 475.562 256.839C472.986 256.839 463.455 261.987 454.439 268.165C441.559 276.917 434.346 280.006 423.527 281.293C394.419 284.897 372.523 277.432 354.233 257.096C343.414 244.998 343.156 244.483 348.824 236.761C354.491 228.524 361.704 229.811 374.841 241.394C391.327 255.809 406.011 259.413 425.33 254.007L434.862 251.433V193.001C434.862 128.39 433.316 118.608 419.406 92.3519C408.587 72.0162 383.599 48.5916 361.961 38.2951C352.172 33.6616 336.974 29.0282 325.125 27.2263C313.79 25.6818 302.456 22.3354 299.622 20.0187C278.757 2.772 249.39 -3.92076 222.858 2.25717ZM382.311 160.309C386.175 166.229 386.175 167.259 382.311 173.18C379.735 177.041 375.614 179.615 371.75 179.615C367.886 179.615 363.764 177.041 361.188 173.18C357.324 167.259 357.324 166.229 361.188 160.309C363.764 156.448 367.886 153.874 371.75 153.874C375.614 153.874 379.735 156.448 382.311 160.309Z" />
</svg>