<svg xmlns="http://www.w3.org/2000/svg" width="24" height="24" fill="currentColor" viewBox="0 0 24 24"><path d="M12 2c0 1.222 1 2.222 2.222 2.222h4.445a1.117 1.117 0 0 1 1.11 1.11v4.443A2.23 2.23 0 0 0 22 11.997V4.222A2.226 2.226 0 0 0 19.778 2zM8.114 7.001c-.61 0-1.111.502-1.111 1.11v7.775c0 .609.502 1.112 1.11 1.112h7.777c.61 0 1.113-.503 1.113-1.112V8.112c0-.609-.504-1.111-1.113-1.111zM2 12.002v7.776C2 21.001 2.998 22 4.222 22H12c0-1.222-1-2.222-2.222-2.222H5.333a1.12 1.12 0 0 1-1.112-1.11v-4.443A2.23 2.23 0 0 0 2 12.002"/></svg>