<svg width="512" height="512" viewBox="0 0 512 512" xmlns="http://www.w3.org/2000/svg">
    <path
        d="M256 0C256 31.2924 281.587 56.8716 312.889 56.8716H426.667C434.2 56.9057 441.415 59.9126 446.742 65.238C452.069 70.5633 455.077 77.7762 455.111 85.3074V199.051C455.111 230.317 480.724 255.922 512 255.922V56.8716C512 25.5533 486.439 0 455.111 0H256ZM156.509 128.026C140.923 128.026 128.065 140.88 128.065 156.462V355.486C128.065 371.068 140.923 383.948 156.509 383.948H355.595C371.181 383.948 384.065 371.068 384.065 355.486V156.462C384.065 140.88 371.181 128.026 355.595 128.026H156.509ZM0 256.052V455.128C0 486.421 25.561 512 56.8889 512H256C256 480.708 230.387 455.128 199.111 455.128H85.3333C69.7473 455.128 56.8629 442.274 56.8629 426.693V312.949C56.8218 297.881 50.8194 283.441 40.1659 272.781C29.5124 262.121 15.0731 256.107 0 256.052Z" />
</svg>