<svg xmlns="http://www.w3.org/2000/svg" width="24" height="24" fill="currentColor" viewBox="0 0 24 24"><path d="M13.468 5.41a5.3 5.3 0 0 0-2.738.768 5.5 5.5 0 0 0-1.986 2.08 2.9 2.9 0 0 0-1.299-.308 2.93 2.93 0 0 0-1.923.73 3.07 3.07 0 0 0-1.007 1.834 4.1 4.1 0 0 0-1.829 1.549 4.28 4.28 0 0 0 .516 5.298 4.05 4.05 0 0 0 2.898 1.23q.258-.003.514-.039h11.393q.09.007.18.01.085-.003.171-.01h.273v-.02a3.78 3.78 0 0 0 2.404-1.291A4 4 0 0 0 22 14.63v-.008a4 4 0 0 0-.88-2.502 3.8 3.8 0 0 0-2.226-1.351 5.63 5.63 0 0 0-1.658-3.803 5.36 5.36 0 0 0-3.768-1.557"/></svg>