<svg xmlns="http://www.w3.org/2000/svg" height="24px" viewBox="0 0 350 396" width="24px" fill="currentColor">
    <path
        d="M0 378H350V396H0V378ZM14 344H337V369H14V344ZM12 60H333V95H12V60ZM331 50L341 39L172 0L4 39L14 50H172H331ZM58 204L57 153L54 106C54 104 54 104 52 104C42.7708 102.028 33.2292 102.028 24 104C23 104 22 104 22 106L20 153C18.7905 195.325 18.7905 237.675 20 280L22 323L23 331L38 334C44 333 49 333 54 331L55 323L57 280C57.9291 254.678 58.2626 229.338 58 204ZM146 204L144 153L142 106C142 104 141 104 140 104C130.771 102.028 121.229 102.028 112 104C110 104 110 104 110 106L107 153C105.791 195.325 105.791 237.675 107 280L109 323L110 331C115 333 121 333 126 334L142 331V323L144 280C145.261 254.686 145.928 229.345 146 204ZM247 204L246 153L243 106C243 104 243 104 241 104C231.771 102.028 222.229 102.028 213 104C212 104 211 104 211 106L209 153C207.791 195.325 207.791 237.675 209 280L211 323L212 331L227 334C232 333 238 333 243 331L244 323L246 280C246.926 254.678 247.26 229.338 247 204ZM332 204L331 153L329 106C329 104 328 104 327 104C317.449 101.883 307.551 101.883 298 104L297 106L294 153C292.793 195.325 292.793 237.675 294 280L296 323L297 331C302 333 307 333 313 334L328 331L329 323L331 280C331.928 254.678 332.261 229.338 332 204Z" />
</svg>