<svg xmlns="http://www.w3.org/2000/svg" width="24" height="24" fill="currentColor" viewBox="0 0 24 24"><path d="M3 21.09h18V22H3zm.72-1.716h16.611v1.262H3.72zM3.617 5.03h16.509v1.768H3.617zm16.406-.505.514-.555L11.846 2l-8.64 1.97.514.555zm-14.04 7.778L5.93 9.727l-.154-2.373c0-.101 0-.101-.103-.101-.474-.1-.965-.1-1.44 0-.051 0-.103 0-.103.1l-.1 2.375a110 110 0 0 0 0 6.414l.102 2.172.052.404.771.152c.309-.05.566-.05.823-.152l.052-.404.102-2.172q.072-1.917.052-3.838m4.526 0-.103-2.576-.103-2.373c0-.101-.052-.101-.103-.101-.475-.1-.965-.1-1.44 0-.103 0-.103 0-.103.1l-.154 2.374a110 110 0 0 0 0 6.414l.103 2.172.051.404c.257.101.566.101.823.152l.823-.152v-.404l.103-2.172q.097-1.917.103-3.838m5.194 0-.052-2.576-.154-2.373c0-.101 0-.101-.103-.101-.474-.1-.965-.1-1.44 0-.051 0-.103 0-.103.1l-.102 2.374a110 110 0 0 0 0 6.414l.102 2.172.052.404.771.152c.257-.05.566-.05.823-.152l.052-.404.102-2.172q.072-1.917.052-3.838m4.371 0-.051-2.576-.103-2.373c0-.101-.051-.101-.103-.101-.491-.107-1-.107-1.491 0l-.052.1-.154 2.374a110 110 0 0 0 0 6.414l.103 2.172.051.404c.257.101.515.101.823.152l.772-.152.051-.404.103-2.172q.072-1.917.051-3.838"/></svg>