<svg width="512" height="518" viewBox="0 0 512 518" xmlns="http://www.w3.org/2000/svg">
    <path
        d="M512 0V345.333C512 391.121 494.022 435.046 462.029 467.435C446.257 483.435 427.465 496.145 406.743 504.825C386.02 513.505 363.78 517.983 341.314 518H273.047V172.667C273.047 126.879 291.045 82.9537 323.038 50.5651C338.809 34.5645 357.601 21.8554 378.324 13.1752C399.046 4.49504 421.286 0.0166801 443.753 0H512ZM5.10101e-05 276.255H68.2865C113.56 276.255 156.95 294.451 188.962 326.84C221.043 359.377 239.004 403.249 238.953 448.941V518H170.687C148.22 517.983 125.98 513.505 105.257 504.825C84.5348 496.145 65.7426 483.435 49.9711 467.435C17.9164 434.882 -0.0349236 391.019 5.10101e-05 345.333V276.255Z" />
</svg>