<svg xmlns="http://www.w3.org/2000/svg" width="24" height="24" fill="currentColor" viewBox="0 0 24 24"><path d="M11.654 6.388c1.527 0 2.966.677 4.02 1.735v.003c0-.508.342-.892.814-.892h.12c.746 0 .895.703.895.925l.003 7.896c-.051.518.535.785.86.453 1.266-1.302 2.783-6.7-.788-9.824-3.33-2.917-7.799-2.435-10.175-.798-2.526 1.745-4.14 5.6-2.572 9.222 1.713 3.95 6.608 5.127 9.522 3.952 1.475-.595 2.155 1.396.622 2.048-2.31.985-8.75.885-11.757-4.323-2.032-3.518-1.925-9.707 3.466-12.913 4.12-2.454 9.557-1.774 12.835 1.648 3.425 3.58 3.227 10.28-.117 12.884-1.514 1.184-3.763.032-3.747-1.694l-.017-.562a5.63 5.63 0 0 1-3.984 1.657c-3.02 0-5.68-2.66-5.68-5.677 0-3.05 2.66-5.738 5.68-5.738zm3.8 5.521c-.115-2.21-1.756-3.541-3.738-3.541h-.075c-2.285 0-3.554 1.8-3.554 3.84 0 2.288 1.533 3.733 3.545 3.733 2.245 0 3.72-1.643 3.827-3.587z"/></svg>