<svg xmlns="http://www.w3.org/2000/svg" width="24" height="24" viewBox="0 0 24 24"><path d="M12 2C6.477 2 2 6.477 2 12s4.477 10 10 10 10-4.477 10-10S17.523 2 12 2m5.19 13.536a.31.31 0 0 1-.309.31h-1.306a.31.31 0 0 1-.31-.31v-4.023a.04.04 0 0 0-.066-.028l-2.767 2.767a.62.62 0 0 1-.87 0l-2.766-2.767a.04.04 0 0 0-.066.028v4.023a.31.31 0 0 1-.31.31H7.112a.31.31 0 0 1-.31-.31V8.464a.31.31 0 0 1 .31-.31h.897a.63.63 0 0 1 .437.182l3.442 3.443a.15.15 0 0 0 .108.045.15.15 0 0 0 .108-.045l3.442-3.443a.62.62 0 0 1 .438-.182h.896a.31.31 0 0 1 .31.31z"/></svg>