<svg xmlns="http://www.w3.org/2000/svg" height="24px" viewBox="0 0 24 24" width="24px" fill="currentColor">
    <g transform="scale(0.042) translate(28.5, 28.5)">
        <path
            d="M256 0C114.612 0 0 114.612 0 256C0 397.388 114.612 512 256 512C397.388 512 512 397.388 512 256C512 114.612 397.388 0 256 0ZM388.887 346.528C388.889 347.57 388.685 348.603 388.287 349.566C387.889 350.529 387.305 351.405 386.568 352.142C385.831 352.879 384.956 353.463 383.992 353.861C383.029 354.259 381.997 354.463 380.954 354.462H347.52C346.478 354.463 345.445 354.259 344.482 353.861C343.519 353.463 342.643 352.879 341.906 352.142C341.169 351.405 340.585 350.53 340.187 349.566C339.789 348.603 339.585 347.57 339.586 346.528V243.533C339.58 243.339 339.518 243.15 339.408 242.99C339.298 242.83 339.144 242.706 338.964 242.631C338.785 242.556 338.588 242.535 338.397 242.569C338.205 242.603 338.028 242.692 337.886 242.825L267.05 313.66C264.089 316.587 260.093 318.229 255.929 318.229C251.765 318.229 247.769 316.587 244.808 313.66L173.973 242.825C173.828 242.698 173.651 242.615 173.462 242.584C173.273 242.553 173.079 242.576 172.902 242.65C172.725 242.724 172.572 242.845 172.461 243.002C172.349 243.158 172.284 243.342 172.272 243.533V346.527C172.274 347.57 172.07 348.602 171.672 349.566C171.274 350.529 170.69 351.404 169.953 352.141C169.216 352.879 168.34 353.463 167.377 353.861C166.414 354.259 165.381 354.463 164.339 354.462H130.905C129.862 354.463 128.83 354.259 127.866 353.861C126.903 353.463 126.028 352.879 125.291 352.142C124.554 351.405 123.969 350.53 123.571 349.566C123.173 348.603 122.969 347.57 122.971 346.528V165.472C122.969 164.43 123.173 163.397 123.571 162.434C123.969 161.471 124.554 160.595 125.291 159.858C126.028 159.121 126.903 158.537 127.866 158.139C128.829 157.741 129.862 157.537 130.904 157.538H153.855C158.054 157.568 162.074 159.247 165.047 162.214L253.167 250.333C253.526 250.703 253.955 250.997 254.43 251.198C254.904 251.399 255.414 251.502 255.929 251.502C256.445 251.502 256.955 251.399 257.429 251.198C257.904 250.997 258.333 250.703 258.692 250.333L346.811 162.213C348.276 160.733 350.019 159.558 351.94 158.756C353.861 157.954 355.922 157.54 358.003 157.539H380.954C381.997 157.537 383.029 157.741 383.992 158.139C384.955 158.537 385.831 159.122 386.568 159.859C387.305 160.596 387.889 161.471 388.287 162.434C388.685 163.397 388.889 164.43 388.887 165.472V346.528Z" />
    </g>
</svg>