<svg xmlns="http://www.w3.org/2000/svg" width="24" height="24" fill="currentColor" viewBox="0 0 24 24"><path d="M12 5.594c-2.004 0-3.792.93-4.966 2.377h.006a6.37 6.37 0 0 0-1.42 3.652.4.4 0 1 1-.798-.048 7.1 7.1 0 0 1 .813-2.917c.01-.024.016-.044.03-.07C3.557 9.18 2 11.12 2 13.402a5.01 5.01 0 0 0 5 5.005h11.4c1.985 0 3.6-1.616 3.6-3.603 0-.757-.244-1.48-.672-2.08a3.4 3.4 0 0 1-.821 1.173.4.4 0 0 1-.566-.022.4.4 0 0 1 .022-.567c.54-.5.837-1.177.837-1.908a3.004 3.004 0 0 0-2.546-2.964l-.006.012a7.15 7.15 0 0 1 .93 3.13.4.4 0 0 1-.375.422h-.023a.4.4 0 0 1-.398-.377 6.36 6.36 0 0 0-1.083-3.191c-.098-.146-.196-.292-.305-.429A6.38 6.38 0 0 0 12 5.593m0 1.601c2.647 0 4.8 2.156 4.8 4.805a4.81 4.81 0 0 1-4.8 4.805A4.81 4.81 0 0 1 7.2 12 4.81 4.81 0 0 1 12 7.195m0 .801c-2.206 0-4 1.796-4 4.004a4.007 4.007 0 0 0 4 4.004c2.206 0 4-1.796 4-4.004a4.007 4.007 0 0 0-4-4.004m-1.4 1.602h2c.992 0 1.8.808 1.8 1.801 0 .994-.808 1.802-1.8 1.802h-1.4v1.001a.6.6 0 1 1-1.2 0v-4.004a.6.6 0 0 1 .6-.6m.6 1.2V12h1.4a.601.601 0 0 0 0-1.201z"/></svg>