<svg xmlns="http://www.w3.org/2000/svg" width="24" height="24" fill="currentColor" viewBox="0 0 24 24"><path fill-rule="evenodd" d="M10.292 6.154c.24-.03.443-.19.53-.415l.72-1.864a.22.22 0 0 0-.231-.296l-7.578.943c-.39.049-.723.302-.875.664l-.842 2.015 3.428-.433zm3.432 0a.66.66 0 0 1-.53-.415l-.72-1.864a.22.22 0 0 1 .231-.296l7.578.943c.39.049.723.302.875.664L22 7.201zM2 7.202h20v10.984a2.237 2.237 0 0 1-2.237 2.237H4.237A2.237 2.237 0 0 1 2 18.186zm6.445 3.436c.494 0 .894.4.894.895v1.778a.895.895 0 0 1-1.79 0v-1.778c0-.494.401-.895.895-.895m8.005.895a.895.895 0 1 0-1.79 0v1.778a.895.895 0 1 0 1.79 0zm-1.738 5.369a.563.563 0 0 1-.316.73l-.089-.223.09.224h-.003l-.004.002-.012.005a7 7 0 0 1-.742.235 6.7 6.7 0 0 1-1.674.24 6.6 6.6 0 0 1-1.665-.24 8 8 0 0 1-.733-.236l-.013-.005-.003-.002h-.002l.148-.37-.148.37a.563.563 0 0 1 .42-1.045h.002l.006.003.03.011.125.045c.11.038.269.09.46.141.388.104.887.202 1.373.202.487 0 .991-.098 1.385-.203a7 7 0 0 0 .627-.198l.006-.002h.001a.563.563 0 0 1 .731.316" clip-rule="evenodd"/></svg>