<svg xmlns="http://www.w3.org/2000/svg" height="24px" viewBox="0 0 475 600" width="24px" fill="currentColor">
    <path fill-rule="evenodd" clip-rule="evenodd"
        d="M0 455V445C0 425 5 405 12.5 387.5C20 370 32.5 352.5 45 337.5C60 322.5 75 312.5 95 305C112.5 297.5 132.5 292.5 152.5 292.5H267.5C292.5 292.5 315 282.5 332.5 265C350 247.5 360 222.5 360 200C360 177.5 350 152.5 332.5 135C315 117.5 290 107.5 267.5 107.5H107.5V200H0V0H277.5C330 0 380 20 417.5 57.5C455 95 475 145 475 197.5C475 250 455 300 417.5 337.5C380 375 330 395 277.5 395H200L152.5 392.5C92.5 392.5 40 415 0 455ZM110 460V600H0C0 540 37.5 487.5 90 465C97.5 462.5 102.5 460 110 460Z" />
</svg>