<svg xmlns="http://www.w3.org/2000/svg" width="24" height="24" fill="currentColor" viewBox="0 0 24 24"><path d="M4.083 17.167v-.334c0-.666.167-1.333.417-1.916.25-.584.667-1.167 1.083-1.667.5-.5 1-.833 1.667-1.083a4.9 4.9 0 0 1 1.917-.417H13c.833 0 1.583-.333 2.167-.917.583-.583.916-1.416.916-2.166s-.333-1.584-.916-2.167c-.584-.583-1.417-.917-2.167-.917H7.667v3.084H4.083V2h9.25c1.75 0 3.417.667 4.667 1.917a6.55 6.55 0 0 1 1.917 4.666c0 1.75-.667 3.417-1.917 4.667a6.55 6.55 0 0 1-4.667 1.917H10.75l-1.583-.084c-2 0-3.75.75-5.084 2.084m3.667.166V22H4.083c0-2 1.25-3.75 3-4.5.25-.083.417-.167.667-.167"/></svg>