<svg xmlns="http://www.w3.org/2000/svg" width="24" height="24" fill="currentColor" viewBox="0 0 24 24"><path d="M7.638 10.343c-.022.707.332 1.022.341 1.22a.25.25 0 0 1-.04.112.24.24 0 0 1-.088.081l-.4.281a.33.33 0 0 1-.175.06c-.013 0-.256.056-.64-.8a2.46 2.46 0 0 1-1.956.922c-.51.028-1.889-.288-1.817-1.757-.05-1.197 1.066-1.94 2.216-1.875.222 0 .675.013 1.469.197v-.487c.084-.829-.46-1.47-1.4-1.372-.075 0-.607-.016-1.432.315-.23.106-.259.088-.337.088-.231 0-.138-.672-.09-.757.162-.2 1.121-.575 2.059-.568a2.4 2.4 0 0 1 1.74.54 2.2 2.2 0 0 1 .553 1.638v2.166zm-2.7 1.013c1.013-.016 1.444-.625 1.541-.953.078-.316.066-.513.066-.856a5.4 5.4 0 0 0-1.238-.154c-.475-.034-1.337.175-1.303 1.01-.038.525.347.981.937.953zm5.341.722c-.247.022-.36-.153-.397-.325L8.326 6.606a1 1 0 0 1-.06-.269.14.14 0 0 1 .119-.163h.694c.275-.028.363.188.394.326l1.118 4.4 1.038-4.4c.016-.1.09-.347.4-.32h.538c.068-.005.347-.015.396.326l1.041 4.453 1.153-4.456c.016-.069.085-.357.397-.325h.616c.028-.003.193-.025.165.268-.012.057.107-.334-1.65 5.31-.034.172-.15.347-.396.325h-.585c-.34.037-.39-.303-.397-.334L12.27 7.462l-1.025 4.281c-.007.035-.053.372-.397.335h-.572zm8.547.175c-.184 0-1.06-.01-1.794-.385a.41.41 0 0 1-.244-.372v-.334c0-.265.194-.215.276-.184.312.128.515.222.9.3 1.146.234 1.65-.072 1.771-.14a.717.717 0 0 0 .166-1.091c-.328-.275-.484-.285-1.66-.657-.143-.04-1.365-.425-1.368-1.637-.019-.882.781-1.757 2.172-1.75.397 0 1.45.128 1.737.487a.37.37 0 0 1 .06.219v.316q0 .207-.153.209c-.241-.028-.67-.35-1.538-.338-.216-.012-1.247.029-1.2.782-.012.594.831.815.928.84 1.14.344 1.519.4 1.972.925.535.694.247 1.51.134 1.732-.596 1.172-2.137 1.075-2.165 1.075zm1.256 3.278c-2.187 1.616-5.365 2.475-8.078 2.475a14.67 14.67 0 0 1-9.916-3.772c-.203-.184-.025-.437.225-.297a19.9 19.9 0 0 0 9.904 2.628 19.7 19.7 0 0 0 7.55-1.547c.369-.156.681.244.315.513m.913-1.04c-.281-.36-1.853-.17-2.556-.085-.213.025-.247-.16-.057-.297 1.253-.881 3.31-.628 3.544-.331.235.297-.066 2.356-1.237 3.34-.182.154-.354.172-.272-.128.262-.665.856-2.14.575-2.5z"/></svg>