<svg xmlns="http://www.w3.org/2000/svg" width="24" height="24" fill="currentColor" viewBox="0 0 24 24"><path d="M14.57 13.14q-.24.001-.327.026V14.2c.068.015.151.02.265.02.42 0 .681-.212.681-.566 0-.322-.218-.514-.618-.514"/><path d="M12.806 8.439a1.14 1.14 0 0 0-1.61 0l-5.058 5.057a1.14 1.14 0 0 0 0 1.61l5.057 5.058a1.14 1.14 0 0 0 1.61 0l5.058-5.058a1.14 1.14 0 0 0 0-1.61zm-2.643 4.774H8.817v.8h1.257v.644H8.817v1.408h-.79v-3.501h2.136zm3.023.016h-.956v2.835h-.79V13.23h-.945v-.665h2.691zm2.47 1.23c-.27.25-.675.37-1.142.37-.104 0-.198-.006-.27-.022v1.257h-.785v-3.453a6.5 6.5 0 0 1 1.07-.073c.488 0 .842.094 1.075.285.224.172.37.463.37.806-.001.348-.11.639-.318.83"/><path d="M17.947 6.56a.38.38 0 0 1-.278-.155 4.4 4.4 0 0 0-3.852-1.814.38.38 0 0 1-.255-.077 4.87 4.87 0 0 0-2.984-1.012A4.9 4.9 0 0 0 6.12 6.366a.38.38 0 0 1-.295.216A4.375 4.375 0 0 0 2 10.917 4.38 4.38 0 0 0 5.11 15.1a2 2 0 0 1 .106-1.803 2.65 2.65 0 0 1-1.495-2.38A2.65 2.65 0 0 1 6.37 8.27q.11.002.219.012c.42.032.801-.24.904-.649a3.18 3.18 0 0 1 5.311-1.502.86.86 0 0 0 .776.227q.27-.056.544-.056a2.63 2.63 0 0 1 2.382 1.5c.157.325.5.519.86.482q.135-.014.266-.014a2.65 2.65 0 0 1 2.648 2.648 2.65 2.65 0 0 1-1.495 2.38 1.99 1.99 0 0 1 .106 1.802A4.375 4.375 0 0 0 22 10.918a4.374 4.374 0 0 0-4.053-4.358"/></svg>