<svg width="24" height="24" viewBox="0 0 24 24" fill="currentColor" xmlns="http://www.w3.org/2000/svg">
    <path
        d="M23.2327 18.832C23.2327 19.0968 23.0467 19.4229 22.8136 19.5542L16.9891 22.9145V9.94371L5.75915 3.46267L11.5837 0.101237C11.7133 0.0347026 11.857 0 12.0027 0C12.1485 0 12.2921 0.0347026 12.4218 0.101237L23.2327 6.34483V18.832ZM14.4943 11.387L6.80193 6.94446C6.67175 6.88028 6.52854 6.84689 6.3834 6.84689C6.23825 6.84689 6.09504 6.88028 5.96486 6.94446L0.767334 9.94808L8.87875 14.6313V24L14.0752 20.9964C14.1965 20.9159 14.2974 20.8084 14.3702 20.6824C14.4429 20.5563 14.4854 20.4151 14.4943 20.2698V11.387ZM0.768428 19.3157L6.37847 22.5567V16.0691L0.768428 19.3157Z" />
</svg>