<svg xmlns="http://www.w3.org/2000/svg" width="24" height="24" fill="currentColor" viewBox="0 0 24 24"><path d="M5.041 15.166a2.53 2.53 0 0 1-2.523 2.523A2.526 2.526 0 0 1 0 15.166a2.53 2.53 0 0 1 2.523-2.523h2.523v2.523zm1.27 0a2.53 2.53 0 0 1 2.523-2.523 2.53 2.53 0 0 1 2.523 2.523v6.31A2.53 2.53 0 0 1 8.834 24a2.53 2.53 0 0 1-2.523-2.523zM8.834 5.041A2.53 2.53 0 0 1 6.31 2.518 2.526 2.526 0 0 1 8.834 0a2.53 2.53 0 0 1 2.523 2.523v2.523H8.834zm0 1.27a2.53 2.53 0 0 1 2.523 2.523 2.53 2.53 0 0 1-2.523 2.523h-6.31A2.53 2.53 0 0 1 0 8.834 2.53 2.53 0 0 1 2.523 6.31zm10.125 2.523a2.53 2.53 0 0 1 2.523-2.523A2.526 2.526 0 0 1 24 8.834a2.53 2.53 0 0 1-2.523 2.523h-2.523V8.834zm-1.27 0a2.53 2.53 0 0 1-2.523 2.523 2.53 2.53 0 0 1-2.523-2.523v-6.31A2.53 2.53 0 0 1 15.166 0a2.53 2.53 0 0 1 2.523 2.523zm-2.523 10.125a2.53 2.53 0 0 1 2.523 2.523A2.526 2.526 0 0 1 15.166 24a2.53 2.53 0 0 1-2.523-2.523v-2.523h2.523zm0-1.27a2.53 2.53 0 0 1-2.523-2.523 2.53 2.53 0 0 1 2.523-2.523h6.31A2.53 2.53 0 0 1 24 15.166a2.53 2.53 0 0 1-2.523 2.523z"/></svg>