<svg xmlns="http://www.w3.org/2000/svg" height="24px" viewBox="0 0 512 327" width="24px" fill="currentColor">
    <path
        d="M256 0C397.385 0 512 115.016 512 256.897C512 280.986 508.695 304.301 502.517 326.412H453.69C461.287 304.651 465.418 281.258 465.418 256.897C465.418 140.834 371.658 46.7451 256 46.7451C140.342 46.7451 46.5819 140.834 46.5819 256.897C46.5819 264.866 47.024 272.732 47.885 280.471L338.121 280.47C357.194 280.47 372.656 264.955 372.656 245.814C372.656 227.358 358.279 212.271 340.16 211.217L337.662 211.159L317.513 211.168L314.605 191.161C310.379 162.093 285.395 140.235 255.799 140.235C229.233 140.235 206.102 157.888 198.752 183.072L193.849 199.875H171.068C153.325 199.875 138.942 214.309 138.942 232.114L138.983 233.726H92.3769L92.3607 232.114C92.3607 193.341 120.2 161.094 156.914 154.404L160.176 153.883L160.543 153.118C177.798 117.722 213.734 94.0394 254.38 93.4995L255.799 93.4901C301.212 93.4901 340.511 122.31 355.43 163.426L356.494 166.512L357.613 166.78C392.582 175.435 418.618 206.851 419.227 244.468L419.237 245.814C419.237 286.875 388.943 320.834 349.561 326.412H9.4824C3.30412 304.301 0 280.986 0 256.897C0 115.016 114.615 0 256 0Z" />
</svg>