<svg xmlns="http://www.w3.org/2000/svg" width="24" height="24" fill="currentColor" viewBox="0 0 24 24"><path d="M12 4.35c6.627 0 12 5.391 12 12.042 0 1.129-.155 2.222-.445 3.258h-2.288c.356-1.02.55-2.116.55-3.258 0-5.44-4.395-9.851-9.817-9.851-5.421 0-9.816 4.41-9.816 9.85q0 .561.06 1.106H15.85c.895 0 1.62-.728 1.62-1.625 0-.865-.675-1.572-1.524-1.622l-.117-.002h-.945l-.136-.938a2.79 2.79 0 0 0-2.756-2.387c-1.246 0-2.33.828-2.674 2.008l-.23.788H8.019c-.832 0-1.506.676-1.506 1.51l.002.077H4.33v-.076a3.7 3.7 0 0 1 3.025-3.643l.153-.024.017-.036a4.97 4.97 0 0 1 4.399-2.795h.067c2.128 0 3.97 1.35 4.67 3.278l.05.145.052.012a3.815 3.815 0 0 1 2.888 3.642v.063a3.81 3.81 0 0 1-3.265 3.778H.444A12 12 0 0 1 0 16.392C0 9.74 5.373 4.35 12 4.35"/></svg>