<svg xmlns="http://www.w3.org/2000/svg" width="24" height="24" fill="currentColor" viewBox="0 0 24 24"><path d="M12.941 6.164A2.189 2.189 0 0 0 12.004 2a2.189 2.189 0 0 0-.938 4.164v3.86a2 2 0 0 0-.312.183L7.625 8.418a2.19 2.19 0 0 0-4.078-1.262 2.186 2.186 0 0 0 .957 3.07v3.547a2.186 2.186 0 0 0-.957 3.07 2.186 2.186 0 0 0 4.074-1.261l1.973-1.129a3.4 3.4 0 0 1-.93-1.629l-1.973 1.133a2.5 2.5 0 0 0-.312-.184v-3.546q.166-.078.312-.184l3.13 1.789q-.008.082-.008.168a2.19 2.19 0 0 0 1.25 1.977v3.859A2.189 2.189 0 0 0 12 22a2.189 2.189 0 0 0 .936-4.164v-3.86q.165-.076.313-.183l3.129 1.789a2.186 2.186 0 0 0 4.074 1.262 2.186 2.186 0 0 0-.957-3.07v-3.547q.082-.036.156-.082a2.186 2.186 0 0 0 .801-2.989 2.183 2.183 0 0 0-4.066 1.262L14.41 9.547c.45.437.777 1 .93 1.629l1.976-1.133q.151.103.313.184v3.546c-.11.051-.215.114-.313.18l-3.128-1.789q.006-.082.007-.168a2.19 2.19 0 0 0-1.25-1.976V6.16z"/></svg>