<svg xmlns="http://www.w3.org/2000/svg" width="24" height="24" fill="none" viewBox="0 0 24 24"><path stroke="currentColor" d="M20.995 8.481c-.756-.833-2.72-1.308-4.05-1.391a8 8 0 0 1-1.748-.308 8 8 0 0 1-.768-.26c-1.118-.444-2.964-.87-4.955-.055-.063.027-.125.05-.183.08-.061.022-.123.053-.187.08-1.947.907-2.89 2.552-3.325 3.675a8 8 0 0 1-.33.74 8 8 0 0 1-.958 1.49c-.844 1.03-1.82 2.816-1.728 3.934"/><path stroke="currentColor" d="M21.123 8.679c.85 1.902-2.59 5.247-7.647 7.457s-9.985 2.514-10.669.547c-.486-1.397 2.75-5.126 7.807-7.336s9.935-1.954 10.51-.668Z"/><path stroke="currentColor" d="M7.648 14.856c-.356-.813 1.416-2.373 3.959-3.484 2.542-1.111 4.89-1.352 5.246-.538.355.813-1.417 2.372-3.96 3.484-2.541 1.111-4.89 1.352-5.245.538Z"/></svg>