<svg xmlns="http://www.w3.org/2000/svg" width="23" height="23" fill="none" viewBox="0 0 23 23"><path fill="url(#a)" d="M11.25 22.125c6.213 0 11.25-4.953 11.25-11.062C22.5 4.953 17.463 0 11.25 0S0 4.953 0 11.063s5.037 11.062 11.25 11.062"/><path fill="#70caf2" d="M17.254 11.279a4 4 0 0 0-1.713-1.6 4.4 4.4 0 0 1-.511 1.383l-.402.697a1.748 1.748 0 1 1-2.362 2.4l-.81-1.402h-1.308l-.654 1.132.811 1.401a4.012 4.012 0 1 0 6.949-4.011"/><path fill="#b4e3f9" d="M13.236 5.394a4.012 4.012 0 0 0-6.009 3.75c.455-.16.944-.248 1.453-.248h.804a1.747 1.747 0 1 1 3.259.846l-.808 1.402.653 1.133h1.308l.808-1.403a4.01 4.01 0 0 0-1.469-5.48"/><path fill="#3f79ad" d="m9.98 15.479-.403-.696a1.748 1.748 0 1 1-.897-3.245l1.619-.002.654-1.132-.654-1.133-1.62.002a4.012 4.012 0 1 0 2.241 7.34 4.4 4.4 0 0 1-.94-1.134"/><defs><linearGradient id="a" x1="11.239" x2="11.239" y1="0" y2="21.948" gradientUnits="userSpaceOnUse"><stop stop-color="#fff"/><stop offset="1" stop-color="#dbdbdb"/></linearGradient></defs></svg>