<svg xmlns="http://www.w3.org/2000/svg" width="12" height="12" viewBox="0 0 12 12"><path fill-rule="evenodd" d="M12 6A6 6 0 1 1 0 6a6 6 0 0 1 12 0M4.147 3.745a2.14 2.14 0 0 1 3.706 2.14l-.431.748h-.698l-.348-.604.43-.748A.932.932 0 1 0 5.07 4.83h-.43a2.3 2.3 0 0 0-.774.133c-.029-.411.06-.835.282-1.218m.97 4.224.216.372c.136.235.306.437.501.605A2.14 2.14 0 1 1 4.64 5.03h.864l.349.603-.349.604H4.64a.932.932 0 1 0 .478 1.731M8.3 5.248A2.14 2.14 0 1 1 5.506 8.24l-.432-.747.349-.604h.697l.432.747a.932.932 0 1 0 1.26-1.28l.214-.37a2.3 2.3 0 0 0 .273-.738" clip-rule="evenodd"/></svg>