<svg width="200" height="200" viewBox="0 0 200 200" fill="none" xmlns="http://www.w3.org/2000/svg">
<rect width="200" height="200" rx="34" fill="url(#paint0_linear_163_850)"/>
<path d="M100 192.188C151.777 192.188 193.75 150.914 193.75 100C193.75 49.0863 151.777 7.8125 100 7.8125C48.2233 7.8125 6.25 49.0863 6.25 100C6.25 150.914 48.2233 192.188 100 192.188Z" fill="url(#paint1_linear_163_850)"/>
<path d="M150.202 101.969C146.744 95.9788 141.712 91.4638 135.928 88.645C135.188 92.5957 133.788 96.4899 131.667 100.165L128.32 105.973C130.549 107.212 132.49 109.035 133.859 111.405C137.88 118.369 135.492 127.277 128.527 131.298C121.563 135.319 112.655 132.933 108.634 125.968L101.88 114.288H90.9816L85.5322 123.726L92.2907 135.404C101.525 151.396 121.972 156.875 137.965 147.642C153.956 138.409 159.435 117.961 150.202 101.969Z" fill="#70CAF2"/>
<path d="M116.716 52.9222C100.724 43.6899 80.2761 49.1691 71.0438 65.1598C67.5838 71.1501 66.1917 77.7659 66.6416 84.1842C70.4323 82.85 74.5053 82.1148 78.7491 82.1148L85.4511 82.1085C85.4088 79.5594 86.0187 76.9664 87.3857 74.5975C91.4085 67.6321 100.315 65.2445 107.28 69.2673C114.246 73.2885 116.632 82.1947 112.61 89.1601L105.874 100.849L111.322 110.288L122.221 110.287L128.954 98.5947C138.188 82.6039 132.709 62.1545 116.716 52.9222Z" fill="#B4E3F9"/>
<path d="M89.5787 136.969L86.2207 131.167C84.0337 132.479 81.4846 133.247 78.7489 133.247C70.7049 133.247 64.1848 126.727 64.1848 118.683C64.1848 110.641 70.7049 104.121 78.7489 104.121L92.2392 104.111L97.6901 94.6734L92.2392 85.2357L78.7473 85.2483C60.2811 85.2483 45.3125 100.218 45.3125 118.683C45.3125 137.149 60.2811 152.119 78.7473 152.119C85.6626 152.119 92.0855 150.019 97.4174 146.424C94.3666 143.807 91.6999 140.642 89.5787 136.969Z" fill="#3F79AD"/>
<defs>
<linearGradient id="paint0_linear_163_850" x1="100" y1="200" x2="100" y2="0" gradientUnits="userSpaceOnUse">
<stop stop-color="#3F79AD"/>
<stop offset="0.55" stop-color="#B4E3F9"/>
<stop offset="1" stop-color="#70CAF2"/>
</linearGradient>
<linearGradient id="paint1_linear_163_850" x1="99.9058" y1="7.81221" x2="99.9058" y2="190.713" gradientUnits="userSpaceOnUse">
<stop stop-color="white"/>
<stop offset="1" stop-color="#DBDBDB"/>
</linearGradient>
</defs>
</svg>
