<svg width="40" height="40" viewBox="0 0 40 40" xmlns="http://www.w3.org/2000/svg">
    <path fill-rule="evenodd" clip-rule="evenodd"
        d="M38.75 19.375C38.75 29.5578 30.3553 37.8125 20 37.8125C9.64466 37.8125 1.25 29.5578 1.25 19.375C1.25 9.19225 9.64466 0.9375 20 0.9375C30.3553 0.9375 38.75 9.19225 38.75 19.375ZM27.1274 17.0415C28.2841 17.6052 29.2906 18.5082 29.9823 19.7063C31.8287 22.9048 30.7329 26.9943 27.5347 28.8408C24.3363 30.6876 20.2467 29.5917 18.3999 26.3933L17.0482 24.0577L18.1381 22.1701H20.3179L21.6686 24.506C22.4729 25.8991 24.2544 26.3763 25.6472 25.5721C27.0403 24.7678 27.5178 22.9863 26.7136 21.5935C26.4398 21.1194 26.0517 20.7548 25.6058 20.5071L26.2752 19.3454C26.6995 18.6105 26.9794 17.8316 27.1274 17.0415ZM17.1728 25.5444L17.8444 26.7048C18.2686 27.4394 18.8019 28.0725 19.4121 28.5958C18.3457 29.3147 17.0611 29.7349 15.6781 29.7349C11.9849 29.7349 8.99113 26.7408 8.99113 23.0476C8.99113 19.3547 11.9849 16.3606 15.6781 16.3606L18.3765 16.3581L19.4667 18.2457L18.3765 20.1332L15.6784 20.1351C14.0696 20.1351 12.7656 21.4391 12.7656 23.0476C12.7656 24.6564 14.0696 25.9604 15.6784 25.9604C16.2255 25.9604 16.7354 25.8068 17.1728 25.5444ZM14.1422 12.3421C15.9886 9.14391 20.0782 8.04807 23.2767 9.89453C26.4751 11.741 27.571 15.8309 25.7242 19.029L24.3775 21.3674L22.1977 21.3678L21.1082 19.4799L22.4555 17.1421C23.2597 15.749 22.7825 13.9678 21.3894 13.1635C19.9963 12.359 18.2151 12.8365 17.4105 14.2296C17.1371 14.7034 17.0152 15.222 17.0236 15.7318L15.6832 15.733C14.8345 15.733 14.0199 15.8801 13.2617 16.1469C13.1717 14.8633 13.4502 13.5401 14.1422 12.3421Z" />
</svg>