<svg xmlns="http://www.w3.org/2000/svg" width="512" height="486" fill="none" viewBox="0 0 512 486"><path fill="#70caf2" d="M491.007 250.581c-16.189-28.041-39.747-49.176-66.819-62.371a170.4 170.4 0 0 1-19.947 53.924l-15.668 27.19c10.436 5.798 19.521 14.333 25.928 25.429 18.824 32.598 7.647 74.296-24.959 93.12-32.598 18.823-74.297 7.654-93.12-24.952l-31.615-54.673h-51.019l-25.509 44.179 31.637 54.666c43.225 74.861 138.943 100.51 213.805 57.285 74.854-43.217 100.503-138.935 57.286-213.797"/><path fill="#b4e3f9" d="M334.246 20.993C259.384-22.224 163.666 3.425 120.448 78.28c-16.196 28.041-22.713 59.01-20.606 89.054a170.4 170.4 0 0 1 56.676-9.687l31.373-.029c-.198-11.933 2.657-24.071 9.056-35.159 18.831-32.606 60.522-43.783 93.128-24.952 32.605 18.824 43.775 60.515 24.951 93.12l-31.534 54.717 25.502 44.186 51.018-.007 31.52-54.732c43.225-74.854 17.576-170.58-57.286-213.797"/><path fill="#3f79ad" d="m207.215 414.437-15.72-27.161c-10.237 6.143-22.17 9.739-34.976 9.739-37.654 0-68.176-30.522-68.176-68.176 0-37.648 30.522-68.169 68.176-68.169l63.15-.044 25.516-44.179-25.516-44.179-63.157.059C70.07 172.327 0 242.404 0 328.839c0 86.442 70.07 156.519 156.512 156.519 32.371 0 62.437-9.834 87.396-26.662-14.281-12.248-26.764-27.065-36.693-44.259"/></svg>