<svg width="40" height="40" viewBox="0 0 40 40" fill="none" xmlns="http://www.w3.org/2000/svg">
<path d="M20 37.8125C30.3553 37.8125 38.75 29.5578 38.75 19.375C38.75 9.19225 30.3553 0.9375 20 0.9375C9.64466 0.9375 1.25 9.19225 1.25 19.375C1.25 29.5578 9.64466 37.8125 20 37.8125Z" fill="white"/>
<path d="M30.0405 19.7688C29.3488 18.5708 28.3423 17.6678 27.1857 17.104C27.0377 17.8941 26.7577 18.673 26.3334 19.4079L25.664 20.5696C26.1099 20.8173 26.498 21.182 26.7718 21.656C27.576 23.0488 27.0985 24.8304 25.7054 25.6346C24.3126 26.4388 22.5311 25.9616 21.7268 24.5686L20.3761 22.2326H18.1963L17.1064 24.1202L18.4581 26.4558C20.3049 29.6542 24.3945 30.7501 27.5929 28.9033C30.7911 27.0568 31.8869 22.9673 30.0405 19.7688Z" fill="black"/>
<path d="M23.3429 9.95944C20.1444 8.11298 16.0548 9.20881 14.2084 12.407C13.5164 13.605 13.2379 14.9282 13.3279 16.2118C14.0861 15.945 14.9007 15.798 15.7494 15.798L17.0898 15.7967C17.0814 15.2869 17.2033 14.7683 17.4768 14.2945C18.2813 12.9014 20.0626 12.4239 21.4556 13.2285C22.8487 14.0327 23.3259 15.8139 22.5217 17.207L21.1744 19.5448L22.264 21.4327L24.4437 21.4324L25.7904 19.0939C27.6372 15.8958 26.5413 11.8059 23.3429 9.95944Z" fill="black"/>
<path d="M17.9157 26.7688L17.2441 25.6084C16.8067 25.8708 16.2969 26.0245 15.7498 26.0245C14.141 26.0245 12.837 24.7204 12.837 23.1116C12.837 21.5031 14.141 20.1991 15.7498 20.1991L18.4478 20.1972L19.538 18.3097L18.4478 16.4221L15.7495 16.4247C12.0562 16.4247 9.0625 19.4187 9.0625 23.1116C9.0625 26.8049 12.0562 29.7989 15.7495 29.7989C17.1325 29.7989 18.4171 29.3788 19.4835 28.6598C18.8733 28.1365 18.34 27.5034 17.9157 26.7688Z" fill="black"/>
</svg>
