<svg xmlns="http://www.w3.org/2000/svg" width="512" height="512" fill="none" viewBox="0 0 512 512"><path fill="url(#a)" d="M256 500c132.548 0 240-105.661 240-236S388.548 28 256 28 16 133.661 16 264s107.452 236 240 236"/><path fill="url(#b)" d="M256 484c132.548 0 240-105.661 240-236S388.548 12 256 12 16 117.661 16 248s107.452 236 240 236"/><path fill="#70caf2" d="M384.082 252.61c-8.853-15.333-21.734-26.891-36.538-34.106a93.2 93.2 0 0 1-10.908 29.488l-8.567 14.868c5.706 3.17 10.674 7.837 14.178 13.905 10.293 17.825 4.181 40.627-13.649 50.921-17.826 10.293-40.627 4.185-50.921-13.645l-17.288-29.896h-27.898l-13.949 24.158 17.3 29.893c23.636 40.936 75.978 54.962 116.915 31.325 40.932-23.632 54.958-75.974 31.325-116.911"/><path fill="#b4e3f9" d="M298.362 127.065c-40.937-23.633-93.279-9.607-116.911 31.325-8.857 15.334-12.421 32.269-11.269 48.698a93.2 93.2 0 0 1 30.993-5.297l17.155-.016c-.108-6.525 1.453-13.163 4.952-19.226 10.298-17.83 33.096-23.942 50.925-13.645 17.83 10.294 23.938 33.091 13.645 50.921l-17.244 29.921 13.945 24.162 27.898-.004 17.236-29.929c23.637-40.932 9.611-93.278-31.325-116.91"/><path fill="#3f79ad" d="m228.897 342.211-8.596-14.852c-5.598 3.359-12.123 5.326-19.126 5.326-20.591 0-37.281-16.69-37.281-37.281 0-20.587 16.69-37.277 37.281-37.277l34.532-.024 13.953-24.158-13.953-24.158-34.536.032c-47.269 0-85.586 38.32-85.586 85.585 0 47.269 38.317 85.589 85.586 85.589 17.701 0 34.143-5.377 47.791-14.579a93.2 93.2 0 0 1-20.065-24.203"/><defs><linearGradient id="a" x1="16" x2="496" y1="264" y2="264" gradientUnits="userSpaceOnUse"><stop stop-color="#3f79ad"/><stop offset=".413" stop-color="#ebf5ff"/><stop offset=".808" stop-color="#70caf2"/><stop offset="1" stop-color="#e4eff8"/></linearGradient><linearGradient id="b" x1="255.759" x2="255.759" y1="11.999" y2="480.226" gradientUnits="userSpaceOnUse"><stop stop-color="#fff"/><stop offset="1" stop-color="#dbdbdb"/></linearGradient></defs></svg>