<svg xmlns="http://www.w3.org/2000/svg" xmlns:xlink="http://www.w3.org/1999/xlink" width="128" height="128" viewBox="0 0 128 128"><defs><linearGradient xlink:href="#folder_go_a" id="folder_go_b" x1="2689.252" x2="2918.07" y1="-1106.803" y2="-1106.803" gradientUnits="userSpaceOnUse"/><linearGradient id="folder_go_a"><stop offset="0" style="stop-color:#62a0ea;stop-opacity:1"/><stop offset=".058" style="stop-color:#afd4ff;stop-opacity:1"/><stop offset=".122" style="stop-color:#62a0ea;stop-opacity:1"/><stop offset=".873" style="stop-color:#62a0ea;stop-opacity:1"/><stop offset=".956" style="stop-color:#c0d5ea;stop-opacity:1"/><stop offset="1" style="stop-color:#62a0ea;stop-opacity:1"/></linearGradient></defs><g style="display:inline;stroke-width:1.26428"><path d="M2711.206-1326.332a21.906 21.906 0 0 0-21.954 21.953v188.867a21.906 21.906 0 0 0 21.954 21.953h184.91a21.906 21.906 0 0 0 21.954-21.953v-158.255a26.343 26.343 45 0 0-26.344-26.343H2790.46a14.28 14.28 31.639 0 1-12.758-7.86l-3.308-6.57a21.43 21.43 31.639 0 0-19.137-11.792z" style="fill:#438de6;fill-opacity:1;stroke-width:8.79091;stroke-linecap:round;stop-color:#000" transform="matrix(.45451 0 0 .45552 -1210.292 616.157)"/><path d="M2808.014-1273.645a21.9 21.9 0 0 0-15.465 6.343c-5.003 4.955-11.848 11.22-18.993 11.22h-62.35a21.906 21.906 0 0 0-21.954 21.952v118.618a21.906 21.906 0 0 0 21.954 21.953h184.91a21.906 21.906 0 0 0 21.954-21.953v-136.18a21.906 21.906 0 0 0-21.955-21.953z" style="fill:url(#folder_go_b);fill-opacity:1;stroke-width:8.79091;stroke-linecap:round;stop-color:#000" transform="matrix(.45451 0 0 .45552 -1210.292 616.157)"/><path d="M2808.014-1282.426a21.9 21.9 0 0 0-15.465 6.343c-5.003 4.955-11.848 11.22-18.993 11.22h-62.35a21.906 21.906 0 0 0-21.954 21.952v122.887a21.906 21.906 0 0 0 21.954 21.953h184.91a21.906 21.906 0 0 0 21.954-21.953v-140.449a21.906 21.906 0 0 0-21.955-21.953z" style="fill:#a4caee;fill-opacity:1;stroke-width:8.79091;stroke-linecap:round;stop-color:#000" transform="matrix(.45451 0 0 .45552 -1210.292 616.157)"/></g><g style="fill:#438de6;fill-opacity:1"><path d="M121.438 116.829c-5.693-.125-10.884-1.752-15.263-5.505-3.69-3.19-6.005-7.256-6.756-12.073-1.126-7.068.813-13.324 5.067-18.89 4.566-6.006 10.07-9.134 17.515-10.447 6.38-1.126 12.385-.5 17.828 3.19 4.941 3.378 8.006 7.944 8.82 13.95 1.063 8.444-1.377 15.325-7.194 21.205-4.129 4.191-9.195 6.818-15.013 8.007-1.689.313-3.378.375-5.004.563m14.888-25.272c-.063-.813-.063-1.438-.188-2.064-1.126-6.193-6.818-9.696-12.761-8.32-5.817 1.314-9.57 5.005-10.947 10.885-1.126 4.879 1.251 9.82 5.755 11.822 3.44 1.502 6.88 1.314 10.196-.375 4.942-2.565 7.632-6.568 7.945-11.948m-35.593-9.32c-3.941 1-6.631 1.751-10.51 2.752-.938.25-1 .313-1.813-.625-.939-1.064-1.627-1.752-2.94-2.377-3.941-1.94-7.757-1.377-11.323.938-4.253 2.752-6.443 6.818-6.38 11.885.062 5.004 3.503 9.133 8.445 9.82 4.253.564 7.819-.937 10.634-4.128.563-.688 1.063-1.438 1.689-2.314H76.462c-1.314 0-1.627-.813-1.189-1.877.814-1.939 2.315-5.192 3.19-6.818.188-.375.626-1 1.564-1h22.77c-.125 1.688-.125 3.377-.375 5.066-.689 4.504-2.377 8.632-5.13 12.26-4.504 5.943-10.384 9.634-17.828 10.635-6.13.813-11.822-.376-16.826-4.129-4.63-3.503-7.257-8.132-7.945-13.887-.813-6.818 1.189-12.948 5.317-18.328 4.442-5.818 10.322-9.508 17.515-10.822 5.88-1.063 11.51-.375 16.577 3.065 3.315 2.19 5.692 5.192 7.256 8.82.375.563.125.876-.625 1.064" class="st0" style="fill:#438de6;fill-opacity:1;stroke-width:.625535" transform="translate(5.808 25.137)scale(.57218)"/></g></svg>