<svg xmlns="http://www.w3.org/2000/svg" xmlns:xlink="http://www.w3.org/1999/xlink" width="128" height="128" viewBox="0 0 128 128"><defs><linearGradient xlink:href="#folder_reaper_a" id="folder_reaper_b" x1="2689.252" x2="2918.07" y1="-1106.803" y2="-1106.803" gradientUnits="userSpaceOnUse"/><linearGradient id="folder_reaper_a"><stop offset="0" style="stop-color:#62a0ea;stop-opacity:1"/><stop offset=".058" style="stop-color:#afd4ff;stop-opacity:1"/><stop offset=".122" style="stop-color:#62a0ea;stop-opacity:1"/><stop offset=".873" style="stop-color:#62a0ea;stop-opacity:1"/><stop offset=".956" style="stop-color:#c0d5ea;stop-opacity:1"/><stop offset="1" style="stop-color:#62a0ea;stop-opacity:1"/></linearGradient></defs><g style="display:inline;stroke-width:1.26428"><path d="M2711.206-1326.332a21.906 21.906 0 0 0-21.954 21.953v188.867a21.906 21.906 0 0 0 21.954 21.953h184.91a21.906 21.906 0 0 0 21.954-21.953v-158.255a26.343 26.343 45 0 0-26.344-26.343H2790.46a14.28 14.28 31.639 0 1-12.758-7.86l-3.308-6.57a21.43 21.43 31.639 0 0-19.137-11.792z" style="fill:#438de6;fill-opacity:1;stroke-width:8.79091;stroke-linecap:round;stop-color:#000" transform="matrix(.45451 0 0 .45552 -1210.292 616.157)"/><path d="M2808.014-1273.645a21.9 21.9 0 0 0-15.465 6.343c-5.003 4.955-11.848 11.22-18.993 11.22h-62.35a21.906 21.906 0 0 0-21.954 21.952v118.618a21.906 21.906 0 0 0 21.954 21.953h184.91a21.906 21.906 0 0 0 21.954-21.953v-136.18a21.906 21.906 0 0 0-21.955-21.953z" style="fill:url(#folder_reaper_b);fill-opacity:1;stroke-width:8.79091;stroke-linecap:round;stop-color:#000" transform="matrix(.45451 0 0 .45552 -1210.292 616.157)"/><path d="M2808.014-1282.426a21.9 21.9 0 0 0-15.465 6.343c-5.003 4.955-11.848 11.22-18.993 11.22h-62.35a21.906 21.906 0 0 0-21.954 21.952v122.887a21.906 21.906 0 0 0 21.954 21.953h184.91a21.906 21.906 0 0 0 21.954-21.953v-140.449a21.906 21.906 0 0 0-21.955-21.953z" style="fill:#a4caee;fill-opacity:1;stroke-width:8.79091;stroke-linecap:round;stop-color:#000" transform="matrix(.45451 0 0 .45552 -1210.292 616.157)"/></g><path d="M63.503 59.995c-2.276.09-4.509.724-6.662 1.521-1.26.466-2.454 1.054-3.513 1.802-1.617 1.142-2.918 2.66-3.641 4.692l1.277-.018-1.278.02q-.171.483-.299 1.003-.11.45-.184.905c-.45 2.75.046 5.595 1.112 8.293 1.54 3.9 4.273 7.492 7.069 10.047 1.147 1.048 2.537 2.285 4.069 3.036q.289.141.583.259c.856.339 1.75.507 2.664.396 3.278-.4 6.314-3.749 8.304-6.116 2.374-2.825 4.69-6.716 5.603-10.585l-.669.52-1.306.6 1.306-.601.669-.52c.083-.364.115-.823.173-1.188.648-4.087-.336-8.095-4.367-10.873-1.527-1.052-3.16-1.768-4.923-2.318-1.803-.563-3.972-.955-5.987-.875m-6.626 2.56.012.162-.01-.071zm.213 1.728q.018.103.039.205l-.025-.096zm5.369 1.052c2.68.017 5.34.588 7.984 1.914l.02.01.06.03.093.046c1.414.71 3.072 1.553 3.998 2.845-3.646-2.258-7.386-3.676-11.753-2.972-1.497.24-2.834.793-4.257 1.276q.118.274.256.534v.002l.073.111.048.108v.001c.8 1.407 1.99 2.54 3.032 3.782l.001.001.002.003q.275.326.532.668.244.323.463.663.352.547.649 1.12l.002.003c.031.06.055.122.085.182.139.277.274.556.394.84.053.102.098.226.14.345.035.098.067.19.1.265.057.116.256.702.327 1v.001c.163.572.276 1.154.367 1.74.014.071.032.141.045.214a15 15 0 0 1 .11 1.122v.004c.002.504.028 1.055.002 1.558-.006.05-.018.086-.024.134a13.5 13.5 0 0 1-1.09 4.505c-.027.077-.038.138-.066.218l-.393.79c-.083.152-.14.253-.208.373l-.23.303c1.061-4.641.976-9.09-1.924-13.116-.8-1.11-1.719-2.086-2.637-3.052l-.004-.004a64 64 0 0 1-1.43-1.544l-.187-.203-.181-.224q-.307-.362-.596-.739l-.246-.306-.206-.304q-.116-.165-.227-.335l-.163-.242-.153-.295a10.7 10.7 0 0 1-.923-1.962l.21-.067c.12-.049.267-.09.42-.132a34 34 0 0 1 .523-.156l.02-.006.01-.002.455-.128.713-.186.763-.178.014-.003.01-.002.01-.002.117-.026.067-.013c.189-.04.374-.055.562-.09 1.413-.265 2.82-.43 4.22-.422zm-9.244 2.728.18.014.102.014c-.125-.012-.185-.02-.282-.028m-2.275.624-.073.05.022-.018zm4.876 2.564q.141.055.183.078l.004.002-.004-.002zm7.692 2.8 1.017.541-.63-.335zm2.36 1.234 1.327.433-.006-.002zm10.467.037-.896.286h-.006zm-10.402 1.673.02.006-.008-.002zm2.133.417.03.005.016.002-.016-.001z" style="fill:#438de6;fill-opacity:1;stroke-width:.295458"/></svg>