<svg xmlns="http://www.w3.org/2000/svg" xmlns:xlink="http://www.w3.org/1999/xlink" width="128" height="128" viewBox="0 0 128 128"><defs><linearGradient xlink:href="#folder_kicad_a" id="folder_kicad_b" x1="2689.252" x2="2918.07" y1="-1106.803" y2="-1106.803" gradientTransform="matrix(.45451 0 0 .45552 -1210.292 616.157)" gradientUnits="userSpaceOnUse"/><linearGradient id="folder_kicad_a"><stop offset="0" style="stop-color:#62a0ea;stop-opacity:1"/><stop offset=".058" style="stop-color:#afd4ff;stop-opacity:1"/><stop offset=".122" style="stop-color:#62a0ea;stop-opacity:1"/><stop offset=".873" style="stop-color:#62a0ea;stop-opacity:1"/><stop offset=".956" style="stop-color:#c0d5ea;stop-opacity:1"/><stop offset="1" style="stop-color:#62a0ea;stop-opacity:1"/></linearGradient></defs><path d="M21.978 11.984c-5.527 0-9.978 4.46-9.978 10v86.033c0 5.54 4.45 10 9.978 10h84.043c5.528 0 9.979-4.46 9.979-10V35.929a11.973 12 0 0 0-11.973-12H58a6.492 6.507 0 0 1-5.799-3.581l-1.503-2.993A9.738 9.76 0 0 0 42 11.984Z" style="fill:#438de6;fill-opacity:1;stroke-width:4;stroke-linecap:round;stop-color:#000"/><path d="M65.979 35.984a9.94 9.94 0 0 0-7.03 2.89c-2.273 2.256-5.384 5.11-8.632 5.11H21.978c-5.527 0-9.978 4.46-9.978 10v54.033c0 5.54 4.45 10 9.978 10h84.043c5.528 0 9.979-4.46 9.979-10V45.984c0-5.54-4.45-10-9.979-10z" style="fill:url(#folder_kicad_b);fill-opacity:1;stroke-width:4;stroke-linecap:round;stop-color:#000"/><path d="M65.979 31.984a9.94 9.94 0 0 0-7.03 2.89c-2.273 2.256-5.384 5.11-8.632 5.11H21.978c-5.527 0-9.978 4.46-9.978 10v55.978c0 5.54 4.45 10 9.978 10h84.043c5.528 0 9.979-4.46 9.979-10V41.984c0-5.54-4.45-10-9.979-10z" style="fill:#a4caee;fill-opacity:1;stroke-width:4;stroke-linecap:round;stop-color:#000"/><path d="M78.774 63.371c0 1.87-1.52 3.387-3.397 3.387a3.39 3.39 0 0 1-3.397-3.387c0-1.87 1.52-3.387 3.397-3.387a3.39 3.39 0 0 1 3.397 3.387m-.478 10.331v15.34q0 1.204.067 1.572.134.752.702 1.37h-7.353q.569-.618.702-1.37.066-.368.067-1.571V76.61q0-1.203-.067-1.554-.135-.735-.685-1.354zm-22.443 2.774 4.796-6.066q1.47-1.854 1.471-2.774 0-.334-.084-.534h8.373q-.954.534-2.39 2.255-.385.452-1.354 1.655l-6.283 7.82 7.503 10.328a28 28 0 0 0 1.738 2.105q.284.3.819.719h-8.59q.1-.385.1-.685 0-.92-1.27-2.657l-4.829-6.584v6.667q0 2.323.936 3.259h-7.854q.652-.652.836-1.487.1-.468.1-1.755V70.343q0-1.286-.1-1.754a3 3 0 0 0-.836-1.487h7.854q-.936.935-.936 3.241z" style="display:inline;fill:#438de6;fill-opacity:1;fill-rule:nonzero;stroke:none;stroke-width:.283324"/></svg>