<svg xmlns="http://www.w3.org/2000/svg" xmlns:xlink="http://www.w3.org/1999/xlink" width="128" height="128" viewBox="0 0 128 128"><defs><linearGradient xlink:href="#folder_gnome_a" id="folder_gnome_b" x1="2689.252" x2="2918.07" y1="-1106.803" y2="-1106.803" gradientTransform="matrix(.45451 0 0 .45552 -1210.292 616.157)" gradientUnits="userSpaceOnUse"/><linearGradient id="folder_gnome_a"><stop offset="0" style="stop-color:#62a0ea;stop-opacity:1"/><stop offset=".058" style="stop-color:#afd4ff;stop-opacity:1"/><stop offset=".122" style="stop-color:#62a0ea;stop-opacity:1"/><stop offset=".873" style="stop-color:#62a0ea;stop-opacity:1"/><stop offset=".956" style="stop-color:#c0d5ea;stop-opacity:1"/><stop offset="1" style="stop-color:#62a0ea;stop-opacity:1"/></linearGradient></defs><path d="M21.978 11.984c-5.527 0-9.978 4.46-9.978 10v86.033c0 5.54 4.45 10 9.978 10h84.043c5.528 0 9.979-4.46 9.979-10V35.929a11.973 12 0 0 0-11.973-12H58a6.492 6.507 0 0 1-5.799-3.581l-1.503-2.993A9.738 9.76 0 0 0 42 11.984Z" style="fill:#438de6;fill-opacity:1;stroke-width:4;stroke-linecap:round;stop-color:#000"/><path d="M65.979 35.984a9.94 9.94 0 0 0-7.03 2.89c-2.273 2.256-5.384 5.11-8.632 5.11H21.978c-5.527 0-9.978 4.46-9.978 10v54.033c0 5.54 4.45 10 9.978 10h84.043c5.528 0 9.979-4.46 9.979-10V45.984c0-5.54-4.45-10-9.979-10z" style="fill:url(#folder_gnome_b);fill-opacity:1;stroke-width:4;stroke-linecap:round;stop-color:#000"/><path d="M65.979 31.984a9.94 9.94 0 0 0-7.03 2.89c-2.273 2.256-5.384 5.11-8.632 5.11H21.978c-5.527 0-9.978 4.46-9.978 10v55.978c0 5.54 4.45 10 9.978 10h84.043c5.528 0 9.979-4.46 9.979-10V41.984c0-5.54-4.45-10-9.979-10z" style="fill:#a4caee;fill-opacity:1;stroke-width:4;stroke-linecap:round;stop-color:#000"/><path d="M74.269 59.984c-6.656 0-7.93 9.49-4.162 9.49 3.769 0 10.845-9.49 4.162-9.49m-10.303 1.159a3 3 0 0 0-.336.023c-3.734.486-2.426 6.981-.432 7.117 1.932.118 4.053-7.117.766-7.117zm-6.494 2.576a1.8 1.8 0 0 0-.649.15c-3.003 1.24-.457 6.358 1.234 6.032 1.552-.316 1.755-6.222-.58-6.168zm-4.785 4.033c-.262-.009-.546.078-.847.287-2.413 1.66.813 5.68 2.23 5.056 1.24-.546.449-5.273-1.383-5.355zm13.76 3.084c-5.165-.088-11.998 2.501-13.15 7.727-1.26 5.626 5.165 13.421 11.93 13.421 3.3 0 7.117-2.976 7.862-6.765.544-2.894-6.412-1.728-6.168.18.3 2.283-1.674 3.409-3.626 1.938-6.168-4.677 10.167-7.05 9.083-13.421-.336-1.993-2.84-3.003-5.952-3.057z" style="fill:#438de6;fill-opacity:1;stroke-width:.677822"/></svg>