<svg xmlns="http://www.w3.org/2000/svg" xmlns:xlink="http://www.w3.org/1999/xlink" xml:space="preserve" width="128" height="128" viewBox="0 0 128 128"><defs><linearGradient xlink:href="#folder_podman_a" id="folder_podman_b" x1="2689.252" x2="2918.07" y1="-1106.803" y2="-1106.803" gradientTransform="matrix(.45451 0 0 .45552 -1210.292 616.157)" gradientUnits="userSpaceOnUse"/><linearGradient id="folder_podman_a"><stop offset="0" style="stop-color:#62a0ea;stop-opacity:1"/><stop offset=".058" style="stop-color:#afd4ff;stop-opacity:1"/><stop offset=".122" style="stop-color:#62a0ea;stop-opacity:1"/><stop offset=".873" style="stop-color:#62a0ea;stop-opacity:1"/><stop offset=".956" style="stop-color:#c0d5ea;stop-opacity:1"/><stop offset="1" style="stop-color:#62a0ea;stop-opacity:1"/></linearGradient></defs><path d="M21.978 11.984c-5.527 0-9.978 4.46-9.978 10v86.033c0 5.54 4.45 10 9.978 10h84.043c5.528 0 9.979-4.46 9.979-10V35.929a11.973 12 0 0 0-11.973-12H58a6.492 6.507 0 0 1-5.799-3.581l-1.503-2.993A9.738 9.76 0 0 0 42 11.984Z" style="fill:#438de6;fill-opacity:1;stroke-width:4;stroke-linecap:round;stop-color:#000"/><path d="M65.979 35.984a9.94 9.94 0 0 0-7.03 2.89c-2.273 2.256-5.384 5.11-8.632 5.11H21.978c-5.527 0-9.978 4.46-9.978 10v54.033c0 5.54 4.45 10 9.978 10h84.043c5.528 0 9.979-4.46 9.979-10V45.984c0-5.54-4.45-10-9.979-10z" style="fill:url(#folder_podman_b);fill-opacity:1;stroke-width:4;stroke-linecap:round;stop-color:#000"/><path d="M65.979 31.984a9.94 9.94 0 0 0-7.03 2.89c-2.273 2.256-5.384 5.11-8.632 5.11H21.978c-5.527 0-9.978 4.46-9.978 10v55.978c0 5.54 4.45 10 9.978 10h84.043c5.528 0 9.979-4.46 9.979-10V41.984c0-5.54-4.45-10-9.979-10z" style="fill:#a4caee;fill-opacity:1;stroke-width:4;stroke-linecap:round;stop-color:#000"/><path d="M62.709 59.984c-.283 0-.538.037-.814.05-1.207.05-2.355.185-3.13.491-2.525.926-4.427 3.42-4.994 6.422v.004h-.003v.002c-.502 2.378-.633 4.394-.9 6.215-.113.76-.247 1.486-.44 2.195-1.21.814-2.086 2.206-2.389 3.813v.006c-.19.904-.3 1.728-.393 2.492h-3.853v.863h17.623c-.11.85-.182 1.63-.289 2.361l.144.02h-7.017v.865h24.158v-.865h-3.27l.14-.02c-.188-1.276-.282-2.698-.637-4.38a7 7 0 0 0-.436-1.444h5.998v-.865h-6.443c-.587-.957-1.403-1.716-2.366-2.154l-.093-.215a16 16 0 0 1-.51-2.25h4.947v-.865h-5.074c-.229-1.705-.376-3.586-.838-5.772v-.002c-.566-3.004-2.473-5.5-5-6.426l-.004-.004c-.795-.277-1.885-.41-3.015-.474h-.002v-.002h-.004a9 9 0 0 0-.985-.06h-.111m-4.99 3.592a2.15 2.15 0 0 1 1.603.623l.229.229-.453.463-.233-.229a1.53 1.53 0 0 0-1.119-.437c-.43.018-.862.245-1.125.588l-.197.255-.514-.394.197-.258a2.16 2.16 0 0 1 1.612-.84m10.67 0c.63.027 1.225.338 1.609.84l.197.258-.513.394-.198-.255a1.54 1.54 0 0 0-1.125-.588 1.54 1.54 0 0 0-1.12.437l-.23.229-.456-.463.23-.229a2.16 2.16 0 0 1 1.606-.623m-10.57 2.533c1.073 0 1.937.903 1.937 1.995 0 1.091-.864 1.992-1.938 1.992s-1.945-.901-1.945-1.992c0-1.092.872-1.995 1.945-1.995m10.466.002c1.073 0 1.942.901 1.942 1.993 0 1.091-.869 1.992-1.942 1.992s-1.943-.901-1.943-1.992c0-1.092.87-1.993 1.943-1.993m-11.012.692a.78.78 0 0 0-.562.244.84.84 0 0 0-.182.883l.002.002a.9.9 0 0 0 .133.234.8.8 0 0 0 .61.297.77.77 0 0 0 .564-.242h.002a.85.85 0 0 0 .234-.588.85.85 0 0 0-.33-.67q-.028-.023-.056-.041-.03-.018-.061-.033l-.06-.03-.067-.023c-.022-.007-.048-.01-.07-.016a1 1 0 0 0-.157-.017m10.467.002c-.439 0-.794.37-.795.828 0 .101.018.204.053.299a.795.795 0 0 0 .742.53c.44.003.8-.37.801-.83a.82.82 0 0 0-.64-.812 1 1 0 0 0-.16-.015m-4.595 1.158c1.69 0 3.037 1.294 3.037 2.88q0 .096-.008.19l4.488-.006.004.42-4.55.008q-.019.078-.042.152l4.588 1.24-.113.407-4.623-1.25a3 3 0 0 1-.184.338l2.828 1.644-.209.364-2.873-1.668a3.1 3.1 0 0 1-2.343 1.048c-.939 0-1.772-.4-2.327-1.027l-2.892 1.631-.21-.365 2.845-1.606a3 3 0 0 1-.192-.345l-4.633 1.22-.109-.408 4.592-1.209a3 3 0 0 1-.047-.19h-4.549v-.42h4.49a3 3 0 0 1-.006-.167c0-1.587 1.348-2.881 3.038-2.881m-.041 1.504a.95.935 0 0 0-.471.123 1 1 0 0 1-.295.055c-.275 0-.276.474-.367.712-.03.076.077.207.236.348a.95.935 0 0 0 .67.604l-.055.257c-.046.039-.214.185-.465.27a.7.7 0 0 1-.406.033c-.105-.027-.21-.12-.318-.26l.023-.171c.022-.16.052-.351.067-.409l-.51-.13c-.03.122-.055.3-.078.466s-.04.307-.04.307l-.011.096.05.08c.186.292.434.468.688.533s.5.025.705-.045c.267-.09.484-.238.604-.33.12.092.337.24.603.33.206.07.451.11.705.045s.5-.241.686-.533l.05-.08-.009-.096-.041-.307a5 5 0 0 0-.078-.467l-.51.131c.014.058.046.248.068.409.013.091.015.116.022.171-.107.14-.213.233-.318.26a.7.7 0 0 1-.407-.033c-.239-.081-.384-.212-.443-.26l-.014-.303a.95.935 0 0 0 .526-.488c.208-.171.364-.338.33-.428-.092-.238-.09-.712-.365-.712-.185 0-.36-.078-.538-.131a.95.935 0 0 0-.023-.008 1 1 0 0 0-.24-.04h-.012a.95.935 0 0 0-.018 0zm-10.268 7.535c.413-.018.82.14 1.113.432l.23.226-.454.463-.23-.228a.87.87 0 0 0-.632-.245.88.88 0 0 0-.634.329l-.198.255-.513-.394.199-.258c.268-.349.68-.561 1.119-.58m6.68 0q.075-.004.154 0c.438.019.85.231 1.117.58l.2.258-.514.394-.198-.255a.87.87 0 0 0-.632-.329.87.87 0 0 0-.63.245l-.23.228-.455-.463.229-.226c.257-.256.6-.41.959-.432m7.213 1.203h.001c.435-.018.853.145 1.163.453l.242.229-.469.468-.227-.228a.94.94 0 0 0-.681-.27.96.96 0 0 0-.695.356l-.2.256-.51-.385.198-.268a1.58 1.58 0 0 1 1.178-.61m7.304 0h.002c.461.02.892.245 1.174.611l.2.268-.51.385-.2-.256a.95.95 0 0 0-.693-.356.97.97 0 0 0-.695.27l-.227.228-.453-.468.224-.229c.31-.307.743-.47 1.178-.453M52.9 78.62c.751 0 1.36.628 1.36 1.387s-.609 1.389-1.36 1.389c-.75 0-1.357-.63-1.357-1.39 0-.758.607-1.386 1.357-1.386m6.704 0c.75 0 1.357.63 1.357 1.389 0 .758-.607 1.388-1.357 1.388a1.34 1.34 0 0 1-.948-.394 1.4 1.4 0 0 1-.412-.994c0-.759.609-1.389 1.36-1.389m2.51.455h2.075c-.194.455-.342.94-.437 1.444q-.125.599-.213 1.156h-1.01a28 28 0 0 0-.392-2.492l-.002-.002zm-9.557.104a.51.53 0 0 0-.508.527.51.53 0 0 0 .148.373.51.53 0 0 0 .36.158.51.53 0 0 0 .51-.53.51.53 0 0 0-.221-.435.51.53 0 0 0-.29-.093m6.7 0a.51.53 0 0 0-.507.527.51.53 0 0 0 .148.373.51.53 0 0 0 .36.158.51.53 0 0 0 .51-.53.51.53 0 0 0-.221-.435.51.53 0 0 0-.29-.093m7.544.758c.791 0 1.43.662 1.43 1.46 0 .799-.639 1.463-1.43 1.463-.792 0-1.434-.664-1.434-1.463 0-.798.642-1.46 1.434-1.46m7.16.001c.791 0 1.43.663 1.43 1.461 0 .799-.639 1.463-1.43 1.463-.422 0-.8-.187-1.063-.484a1.47 1.47 0 0 1-.37-.979c0-.798.642-1.46 1.433-1.46m-17.648.096c.991 0 1.779.732 1.824 1.64h-.963l.056-.064a.34.34 0 0 0 .053-.314c-.008-.02-.027-.14-.066-.268a.6.6 0 0 0-.108-.21.43.43 0 0 0-.304-.143.7.7 0 0 1-.17-.043c-.084-.028-.195-.072-.338-.072s-.25.044-.334.072a.7.7 0 0 1-.174.043.42.42 0 0 0-.3.142.6.6 0 0 0-.11.211c-.04.128-.059.247-.066.268a.34.34 0 0 0 .042.307q.03.043.063.072h-.93c.045-.909.833-1.64 1.825-1.64m10.113.48c-.3 0-.543.254-.543.567 0 .14.05.273.138.377.104.12.25.19.405.19.3 0 .543-.254.543-.567 0-.2-.098-.385-.262-.488a.53.53 0 0 0-.281-.078m7.16.005c-.3 0-.543.253-.543.566 0 .14.05.273.139.377.103.12.25.19.404.19.3 0 .543-.254.543-.567 0-.2-.098-.385-.262-.488a.53.53 0 0 0-.281-.078m-3.14.892c1.027 0 1.85.725 1.958 1.653l.332.083.334.084v.002l2.594.66-.113.41-2.516-.628-.32-.082-.315-.078q-.027.19-.091.367l.298.121.305.125 1.945.791h-1.162l-.974-.398-.307-.125-.303-.124c-.18.27-.43.494-.728.647H69.51a1.94 1.94 0 0 1-.71-.615l-.308.125-.303.123-.918.367H66.1l1.892-.76.299-.117.305-.123a1.8 1.8 0 0 1-.11-.443l-.322.086-.314.084-2.47.658-.097-.41 2.54-.694.327-.088.342-.091v-.002c.129-.907.942-1.608 1.953-1.608m.013.639c-.154 0-.275.039-.367.07s-.147.057-.186.057a.46.46 0 0 0-.324.158.6.6 0 0 0-.115.227c-.044.138-.058.256-.072.283-.003.005-.03.107-.03.113s.009.06.016.086c.014.052.021.081.043.113a.8.8 0 0 0 .129.17c.092.093.2.173.312.256.093.068.186.133.264.186a.8.8 0 0 1-.242.132.4.4 0 0 1-.233.028c-.047-.013-.104-.075-.158-.135a6 6 0 0 1 .057-.354l-.528-.134c-.048.192-.082.554-.082.554l-.01.1.051.074c.14.22.33.363.53.414.2.052.391.02.547-.033a1.6 1.6 0 0 0 .4-.205c.092.066.229.147.394.203a.95.95 0 0 0 .545.035.93.93 0 0 0 .54-.414l.05-.074-.008-.1s-.043-.362-.091-.554l-.522.134c.013.044.043.228.059.354-.054.06-.111.122-.158.135a.4.4 0 0 1-.233-.028.7.7 0 0 1-.24-.136c.076-.052.167-.116.258-.182.112-.083.234-.163.326-.256.043-.046.075-.105.113-.17.022-.032.044-.062.059-.113.005-.025 0-.08 0-.086l-.014-.113c-.007-.026-.03-.145-.074-.283a.7.7 0 0 0-.113-.227.46.46 0 0 0-.327-.158c-.036 0-.105-.026-.197-.057a1.1 1.1 0 0 0-.367-.07zm6.494 2.832.006.037h-.002zM50.785 88.02v.865h10.377v-.865zm9.785 3.101v.863h14.717v-.863z" style="baseline-shift:baseline;display:inline;overflow:visible;vector-effect:none;fill:#438de6;fill-rule:evenodd;stop-color:#000;stop-opacity:1;opacity:1"/></svg>