<svg xmlns="http://www.w3.org/2000/svg" xmlns:xlink="http://www.w3.org/1999/xlink" width="128" height="128" viewBox="0 0 128 128"><defs><linearGradient xlink:href="#folder_redhat_a" id="folder_redhat_b" x1="2689.252" x2="2918.07" y1="-1106.803" y2="-1106.803" gradientUnits="userSpaceOnUse"/><linearGradient id="folder_redhat_a"><stop offset="0" style="stop-color:#62a0ea;stop-opacity:1"/><stop offset=".058" style="stop-color:#afd4ff;stop-opacity:1"/><stop offset=".122" style="stop-color:#62a0ea;stop-opacity:1"/><stop offset=".873" style="stop-color:#62a0ea;stop-opacity:1"/><stop offset=".956" style="stop-color:#c0d5ea;stop-opacity:1"/><stop offset="1" style="stop-color:#62a0ea;stop-opacity:1"/></linearGradient></defs><g style="display:inline;stroke-width:1.26428"><path d="M2711.206-1326.332a21.906 21.906 0 0 0-21.954 21.953v188.867a21.906 21.906 0 0 0 21.954 21.953h184.91a21.906 21.906 0 0 0 21.954-21.953v-158.255a26.343 26.343 45 0 0-26.344-26.343H2790.46a14.28 14.28 31.639 0 1-12.758-7.86l-3.308-6.57a21.43 21.43 31.639 0 0-19.137-11.792z" style="fill:#438de6;fill-opacity:1;stroke-width:8.79091;stroke-linecap:round;stop-color:#000" transform="matrix(.45451 0 0 .45552 -1210.292 616.157)"/><path d="M2808.014-1273.645a21.9 21.9 0 0 0-15.465 6.343c-5.003 4.955-11.848 11.22-18.993 11.22h-62.35a21.906 21.906 0 0 0-21.954 21.952v118.618a21.906 21.906 0 0 0 21.954 21.953h184.91a21.906 21.906 0 0 0 21.954-21.953v-136.18a21.906 21.906 0 0 0-21.955-21.953z" style="fill:url(#folder_redhat_b);fill-opacity:1;stroke-width:8.79091;stroke-linecap:round;stop-color:#000" transform="matrix(.45451 0 0 .45552 -1210.292 616.157)"/><path d="M2808.014-1282.426a21.9 21.9 0 0 0-15.465 6.343c-5.003 4.955-11.848 11.22-18.993 11.22h-62.35a21.906 21.906 0 0 0-21.954 21.952v122.887a21.906 21.906 0 0 0 21.954 21.953h184.91a21.906 21.906 0 0 0 21.954-21.953v-140.449a21.906 21.906 0 0 0-21.955-21.953z" style="fill:#a4caee;fill-opacity:1;stroke-width:8.79091;stroke-linecap:round;stop-color:#000" transform="matrix(.45451 0 0 .45552 -1210.292 616.157)"/></g><path d="M64.408 59.985c-1.294 0-1.669 1.667-3.211 1.667-1.485 0-2.587-1.245-3.976-1.245-1.333 0-2.202.909-2.873 2.778 0 0-1.87 5.271-2.11 6.036v.013-.003a1.4 1.4 0 0 0-.048.422c0 .257.126.585.368.965q.18.286.448.605.266.32.613.665.349.345.772.706.425.363.921.733.498.371 1.064.743.567.371 1.199.735a26 26 0 0 0 2.768 1.381q.751.323 1.555.614a27.1 27.1 0 0 0 9.168 1.62c.485 0 1.008-.019 1.54-.066l.24-.024c1.382-.142 2.801-.488 3.777-1.238l.063-.05a3.5 3.5 0 0 0 .406-.384 3 3 0 0 0 .423-.606 3 3 0 0 0 .188-.444q.07-.207.11-.433l.01-.064q.041-.263.043-.555v-.018l.002-.094v-.032l-.002-.083v-.008a3 3 0 0 0-.069-.535l-1.655-7.19c-.382-1.583-.718-2.3-3.496-3.69-2.154-1.101-6.85-2.921-8.238-2.921M51.426 71.243c-3.738.186-8.576.853-8.576 5.124 0 6.996 16.576 15.618 29.7 15.618 10.062 0 12.6-4.551 12.6-8.145 0-2.826-2.445-6.035-6.851-7.95h-.005c.192.91.288 1.412.336 1.717s.048.413.048.533a3.9 3.9 0 0 1-.16 1.101 3.6 3.6 0 0 1-.458.968q-.15.225-.334.432-.183.207-.397.397a5 5 0 0 1-.459.362c-1.463 1.032-3.701 1.578-6.287 1.578-3.897.003-7.613-.852-10.735-2.134a27 27 0 0 1-1.51-.674q-.728-.353-1.4-.733a22 22 0 0 1-1.276-.781 19 19 0 0 1-1.145-.817c-2.148-1.659-3.428-3.458-3.428-4.967a4.1 4.1 0 0 1 .336-1.63z" style="fill:#438de6;fill-opacity:1;stroke-width:.222223"/></svg>