<svg xmlns="http://www.w3.org/2000/svg" xmlns:xlink="http://www.w3.org/1999/xlink" width="128" height="128" viewBox="0 0 128 128"><defs><linearGradient xlink:href="#folder_blender_a" id="folder_blender_b" x1="2689.252" x2="2918.07" y1="-1106.803" y2="-1106.803" gradientUnits="userSpaceOnUse"/><linearGradient id="folder_blender_a"><stop offset="0" style="stop-color:#62a0ea;stop-opacity:1"/><stop offset=".058" style="stop-color:#afd4ff;stop-opacity:1"/><stop offset=".122" style="stop-color:#62a0ea;stop-opacity:1"/><stop offset=".873" style="stop-color:#62a0ea;stop-opacity:1"/><stop offset=".956" style="stop-color:#c0d5ea;stop-opacity:1"/><stop offset="1" style="stop-color:#62a0ea;stop-opacity:1"/></linearGradient></defs><g style="display:inline;stroke-width:1.26428"><path d="M2711.206-1326.332a21.906 21.906 0 0 0-21.954 21.953v188.867a21.906 21.906 0 0 0 21.954 21.953h184.91a21.906 21.906 0 0 0 21.954-21.953v-158.255a26.343 26.343 45 0 0-26.344-26.343H2790.46a14.28 14.28 31.639 0 1-12.758-7.86l-3.308-6.57a21.43 21.43 31.639 0 0-19.137-11.792z" style="fill:#438de6;fill-opacity:1;stroke-width:8.79091;stroke-linecap:round;stop-color:#000" transform="matrix(.45451 0 0 .45552 -1210.292 616.157)"/><path d="M2808.014-1273.645a21.9 21.9 0 0 0-15.465 6.343c-5.003 4.955-11.848 11.22-18.993 11.22h-62.35a21.906 21.906 0 0 0-21.954 21.952v118.618a21.906 21.906 0 0 0 21.954 21.953h184.91a21.906 21.906 0 0 0 21.954-21.953v-136.18a21.906 21.906 0 0 0-21.955-21.953z" style="fill:url(#folder_blender_b);fill-opacity:1;stroke-width:8.79091;stroke-linecap:round;stop-color:#000" transform="matrix(.45451 0 0 .45552 -1210.292 616.157)"/><path d="M2808.014-1282.426a21.9 21.9 0 0 0-15.465 6.343c-5.003 4.955-11.848 11.22-18.993 11.22h-62.35a21.906 21.906 0 0 0-21.954 21.952v122.887a21.906 21.906 0 0 0 21.954 21.953h184.91a21.906 21.906 0 0 0 21.954-21.953v-140.449a21.906 21.906 0 0 0-21.955-21.953z" style="fill:#a4caee;fill-opacity:1;stroke-width:8.79091;stroke-linecap:round;stop-color:#000" transform="matrix(.45451 0 0 .45552 -1210.292 616.157)"/></g><path d="M85.066 80.632c.009.514.173 1.514.419 2.294a12.1 12.1 0 0 0 2.613 4.526 13.5 13.5 0 0 0 4.575 3.285 14.7 14.7 0 0 0 6.007 1.248 14.7 14.7 0 0 0 6.003-1.269 13.6 13.6 0 0 0 4.571-3.298 12.2 12.2 0 0 0 2.614-4.535c.26-.834.425-1.681.491-2.53a11.7 11.7 0 0 0-1.748-7.075 12.7 12.7 0 0 0-3.04-3.354l.002-.002-12.306-9.449-.032-.025c-.807-.62-2.165-.617-3.053.004-.897.628-1 1.667-.201 2.322l-.004.004 5.133 4.174-15.644.016h-.02c-1.294.002-2.537.85-2.783 1.922-.253 1.093.625 1.999 1.97 2.003l-.002.005 7.93-.015-14.15 10.86-.054.041c-1.335 1.022-1.767 2.722-.926 3.797.853 1.094 2.667 1.096 4.016.006l7.722-6.32s-.112.854-.103 1.366zm19.843 2.857c-1.591 1.621-3.819 2.54-6.23 2.545-2.413.004-4.64-.906-6.232-2.525a7.4 7.4 0 0 1-1.7-2.662 7.03 7.03 0 0 1 .462-5.776 7.7 7.7 0 0 1 1.892-2.25c1.547-1.261 3.516-1.943 5.575-1.946 2.062-.003 4.03.673 5.578 1.93a7.7 7.7 0 0 1 1.89 2.243c.475.857.769 1.802.856 2.8a6.9 6.9 0 0 1-.391 2.972 7.45 7.45 0 0 1-1.7 2.67m-11.374-5.518c.074-1.314.718-2.471 1.688-3.292.952-.806 2.233-1.299 3.631-1.299s2.678.493 3.63 1.299c.97.82 1.614 1.978 1.689 3.29.073 1.35-.47 2.605-1.421 3.534-.971.946-2.352 1.54-3.898 1.54s-2.929-.594-3.899-1.54c-.953-.93-1.494-2.183-1.42-3.532" style="clip-rule:evenodd;fill:#438de6;fill-opacity:1;fill-rule:nonzero;stroke-width:.694821;stroke-linejoin:round;stroke-miterlimit:2" transform="translate(-28.697)"/></svg>