<svg xmlns="http://www.w3.org/2000/svg" xmlns:xlink="http://www.w3.org/1999/xlink" width="128" height="128" viewBox="0 0 128 128"><defs><linearGradient xlink:href="#folder_opensuse_a" id="folder_opensuse_b" x1="2689.252" x2="2918.07" y1="-1106.803" y2="-1106.803" gradientUnits="userSpaceOnUse"/><linearGradient id="folder_opensuse_a"><stop offset="0" style="stop-color:#62a0ea;stop-opacity:1"/><stop offset=".058" style="stop-color:#afd4ff;stop-opacity:1"/><stop offset=".122" style="stop-color:#62a0ea;stop-opacity:1"/><stop offset=".873" style="stop-color:#62a0ea;stop-opacity:1"/><stop offset=".956" style="stop-color:#c0d5ea;stop-opacity:1"/><stop offset="1" style="stop-color:#62a0ea;stop-opacity:1"/></linearGradient></defs><g style="display:inline;stroke-width:1.26428"><path d="M2711.206-1326.332a21.906 21.906 0 0 0-21.954 21.953v188.867a21.906 21.906 0 0 0 21.954 21.953h184.91a21.906 21.906 0 0 0 21.954-21.953v-158.255a26.343 26.343 45 0 0-26.344-26.343H2790.46a14.28 14.28 31.639 0 1-12.758-7.86l-3.308-6.57a21.43 21.43 31.639 0 0-19.137-11.792z" style="fill:#438de6;fill-opacity:1;stroke-width:8.79091;stroke-linecap:round;stop-color:#000" transform="matrix(.45451 0 0 .45552 -1210.292 616.157)"/><path d="M2808.014-1273.645a21.9 21.9 0 0 0-15.465 6.343c-5.003 4.955-11.848 11.22-18.993 11.22h-62.35a21.906 21.906 0 0 0-21.954 21.952v118.618a21.906 21.906 0 0 0 21.954 21.953h184.91a21.906 21.906 0 0 0 21.954-21.953v-136.18a21.906 21.906 0 0 0-21.955-21.953z" style="fill:url(#folder_opensuse_b);fill-opacity:1;stroke-width:8.79091;stroke-linecap:round;stop-color:#000" transform="matrix(.45451 0 0 .45552 -1210.292 616.157)"/><path d="M2808.014-1282.426a21.9 21.9 0 0 0-15.465 6.343c-5.003 4.955-11.848 11.22-18.993 11.22h-62.35a21.906 21.906 0 0 0-21.954 21.952v122.887a21.906 21.906 0 0 0 21.954 21.953h184.91a21.906 21.906 0 0 0 21.954-21.953v-140.449a21.906 21.906 0 0 0-21.955-21.953z" style="fill:#a4caee;fill-opacity:1;stroke-width:8.79091;stroke-linecap:round;stop-color:#000" transform="matrix(.45451 0 0 .45552 -1210.292 616.157)"/></g><path d="M82.124 71.027a3.17 3.17 0 0 1 1.012-2.223 3.18 3.18 0 0 1 2.29-.856 3.204 3.204 0 0 1 3.08 3.304 3.18 3.18 0 0 1-1.011 2.222 3.16 3.16 0 0 1-2.292.857 3.2 3.2 0 0 1-3.077-3.304zm8.531 3.142c.145-.096.252-.175.296-.193l.049-.075c-.123-.771-1.272-4.51-2.14-5.409-.24-.245-.432-.486-.82-.713-3.146-1.833-10.604-2.939-10.954-2.99l-.06.017-.023.054-.034 1.719c-.762-.256-6.3-2.045-11.492-2.225-4.404-.155-10.816-.725-19.314 4.5l-.251.157c-3.998 2.493-6.758 5.569-8.201 9.141-.453 1.124-1.062 3.661-.458 6.048a9.3 9.3 0 0 0 1.397 3.03c1.476 2.121 3.953 3.528 6.621 3.766 3.765.337 6.617-1.355 7.632-4.522.697-2.185 0-5.392-2.674-7.028-2.174-1.332-4.513-1.03-5.87-.132-1.176.78-1.843 1.993-1.832 3.324.027 2.362 2.061 3.618 3.524 3.622a4.2 4.2 0 0 0 1.333-.231c.172-.052.333-.117.51-.227l.056-.033.035-.023-.01.007c.333-.227.534-.596.534-.993q.001-.162-.046-.328a1.2 1.2 0 0 0-1.377-.848l-.082.02-.112.034-.163.056c-.336.082-.589.09-.643.091-.171-.01-1.013-.263-1.013-1.185v-.013c0-.338.136-.576.21-.706.263-.41.98-.814 1.948-.73 1.272.11 2.19.763 2.797 1.993.563 1.144.416 2.551-.38 3.582-.791 1.021-2.199 1.455-4.072 1.254a5.58 5.58 0 0 1-4.378-2.988c-.875-1.653-.923-3.614-.124-5.12 1.912-3.608 5.522-3.57 7.502-3.228 2.93.508 6.263 3.21 7.445 6.33.19.498.288.892.373 1.253l.128.539 3.31 1.616.042.032.08-.007.014-.095c-.02-.074-.068-.143-.145-1.069-.063-.822-.19-3.072.942-4.187.44-.436 1.11-.825 1.64-.95 2.169-.529 4.712-.163 7.118 2.62 1.245 1.438 1.852 2.094 2.156 2.388l.106.095.126.094c.1.054 4.136 1.913 4.136 1.913l.083-.02.001-.086c-.027-.03-2.558-3.302-2.108-5.996.355-2.145 2.063-1.95 4.425-1.684.771.09 1.649.19 2.558.21 2.537.017 5.27-.451 6.955-1.188 1.09-.474 1.785-.79 2.221-1.186.157-.13.238-.34.323-.567l.06-.15c.07-.184.173-.571.219-.784.017-.093.03-.192-.038-.244l-.233.043c-.74.445-2.589 1.288-4.317 1.324-2.145.043-6.467-2.158-6.918-2.393l-.043-.05c-.106-.26-.755-1.792-.894-2.117 3.111 2.05 5.691 3.184 7.668 3.359 2.2.195 3.913-1.005 4.646-1.518m-4.891-2.847c-.546 0-.987-.295-.987-.657 0-.366.44-.66.987-.66s.988.294.988.66c0 .362-.443.657-.988.657m-.364-2.434a2.2 2.2 0 0 0-1.595.595 2.2 2.2 0 0 0-.705 1.55 2.235 2.235 0 0 0 2.147 2.307 2.23 2.23 0 0 0 1.6-.598 2.23 2.23 0 0 0-1.447-3.854" style="fill:#438de6;fill-opacity:1;stroke-width:.180164"/></svg>