<svg xmlns="http://www.w3.org/2000/svg" xmlns:xlink="http://www.w3.org/1999/xlink" width="128" height="128" viewBox="0 0 128 128"><defs><linearGradient xlink:href="#folder_codeberg_a" id="folder_codeberg_b" x1="2689.252" x2="2918.07" y1="-1106.803" y2="-1106.803" gradientTransform="matrix(.45451 0 0 .45552 -1210.292 616.157)" gradientUnits="userSpaceOnUse"/><linearGradient id="folder_codeberg_a"><stop offset="0" style="stop-color:#62a0ea;stop-opacity:1"/><stop offset=".058" style="stop-color:#afd4ff;stop-opacity:1"/><stop offset=".122" style="stop-color:#62a0ea;stop-opacity:1"/><stop offset=".873" style="stop-color:#62a0ea;stop-opacity:1"/><stop offset=".956" style="stop-color:#c0d5ea;stop-opacity:1"/><stop offset="1" style="stop-color:#62a0ea;stop-opacity:1"/></linearGradient></defs><path d="M21.978 11.984c-5.527 0-9.978 4.46-9.978 10v86.033c0 5.54 4.45 10 9.978 10h84.043c5.528 0 9.979-4.46 9.979-10V35.929a11.973 12 0 0 0-11.973-12H58a6.492 6.507 0 0 1-5.799-3.581l-1.503-2.993A9.738 9.76 0 0 0 42 11.984Z" style="fill:#438de6;fill-opacity:1;stroke-width:4;stroke-linecap:round;stop-color:#000"/><path d="M65.979 35.984a9.94 9.94 0 0 0-7.03 2.89c-2.273 2.256-5.384 5.11-8.632 5.11H21.978c-5.527 0-9.978 4.46-9.978 10v54.033c0 5.54 4.45 10 9.978 10h84.043c5.528 0 9.979-4.46 9.979-10V45.984c0-5.54-4.45-10-9.979-10z" style="fill:url(#folder_codeberg_b);fill-opacity:1;stroke-width:4;stroke-linecap:round;stop-color:#000"/><path d="M65.979 31.984a9.94 9.94 0 0 0-7.03 2.89c-2.273 2.256-5.384 5.11-8.632 5.11H21.978c-5.527 0-9.978 4.46-9.978 10v55.978c0 5.54 4.45 10 9.978 10h84.043c5.528 0 9.979-4.46 9.979-10V41.984c0-5.54-4.45-10-9.979-10z" style="fill:#a4caee;fill-opacity:1;stroke-width:4;stroke-linecap:round;stop-color:#000"/><path d="M63.998 59.984A15.966 15.966 0 0 0 48 75.986c0 3.005.847 5.953 2.444 8.501l13.338-17.246c.097-.123.335-.123.432 0l5.57 7.203h-3.99l.087.318h4.15l1.178 1.518h-4.9l.137.498h5.147l1.036 1.338h-5.81l.18.643h6.124l.926 1.193h-6.716l.22.785h7.1l.812 1.047h-7.622l.243.867h8.05l.75.969h-8.53l.244.867h8.956A16 16 0 0 0 80 75.986a15.97 15.97 0 0 0-16.002-16.002m4.872 25.472.244.867h7.1c.232-.273.471-.578.685-.867zm.514 1.836.24.867h4.75c.311-.265.648-.571.95-.867zm.51 1.836.244.863h1.604a25 25 0 0 0 1.388-.863z" style="fill:#438de6;fill-opacity:1;stroke:none;stroke-width:.499558;paint-order:markers fill stroke;stop-color:#000"/></svg>