<svg xmlns="http://www.w3.org/2000/svg" xmlns:xlink="http://www.w3.org/1999/xlink" width="128" height="128" viewBox="0 0 128 128"><defs><linearGradient xlink:href="#folder_google_drive_a" id="folder_google_drive_b" x1="2689.252" x2="2918.07" y1="-1106.803" y2="-1106.803" gradientUnits="userSpaceOnUse"/><linearGradient id="folder_google_drive_a"><stop offset="0" style="stop-color:#62a0ea;stop-opacity:1"/><stop offset=".058" style="stop-color:#afd4ff;stop-opacity:1"/><stop offset=".122" style="stop-color:#62a0ea;stop-opacity:1"/><stop offset=".873" style="stop-color:#62a0ea;stop-opacity:1"/><stop offset=".956" style="stop-color:#c0d5ea;stop-opacity:1"/><stop offset="1" style="stop-color:#62a0ea;stop-opacity:1"/></linearGradient></defs><g style="display:inline;stroke-width:1.26428"><path d="M2711.206-1326.332a21.906 21.906 0 0 0-21.954 21.953v188.867a21.906 21.906 0 0 0 21.954 21.953h184.91a21.906 21.906 0 0 0 21.954-21.953v-158.255a26.343 26.343 45 0 0-26.344-26.343H2790.46a14.28 14.28 31.639 0 1-12.758-7.86l-3.308-6.57a21.43 21.43 31.639 0 0-19.137-11.792z" style="fill:#438de6;fill-opacity:1;stroke-width:8.79091;stroke-linecap:round;stop-color:#000" transform="matrix(.45451 0 0 .45552 -1210.292 616.157)"/><path d="M2808.014-1273.645a21.9 21.9 0 0 0-15.465 6.343c-5.003 4.955-11.848 11.22-18.993 11.22h-62.35a21.906 21.906 0 0 0-21.954 21.952v118.618a21.906 21.906 0 0 0 21.954 21.953h184.91a21.906 21.906 0 0 0 21.954-21.953v-136.18a21.906 21.906 0 0 0-21.955-21.953z" style="fill:url(#folder_google_drive_b);fill-opacity:1;stroke-width:8.79091;stroke-linecap:round;stop-color:#000" transform="matrix(.45451 0 0 .45552 -1210.292 616.157)"/><path d="M2808.014-1282.426a21.9 21.9 0 0 0-15.465 6.343c-5.003 4.955-11.848 11.22-18.993 11.22h-62.35a21.906 21.906 0 0 0-21.954 21.952v122.887a21.906 21.906 0 0 0 21.954 21.953h184.91a21.906 21.906 0 0 0 21.954-21.953v-140.449a21.906 21.906 0 0 0-21.955-21.953z" style="fill:#a4caee;fill-opacity:1;stroke-width:8.79091;stroke-linecap:round;stop-color:#000" transform="matrix(.45451 0 0 .45552 -1210.292 616.157)"/></g><path fill="#0066da" d="m48.8 87.41 1.58 2.729c.328.574.8 1.025 1.353 1.354l5.641-9.765H46.092c0 .636.164 1.272.493 1.847z" style="fill:#438de6;fill-opacity:1;stroke-width:.410257"/><path fill="#00ac47" d="m64 70.241-5.641-9.764a3.7 3.7 0 0 0-1.354 1.354l-10.42 18.051a3.7 3.7 0 0 0-.493 1.846h11.282z" style="opacity:.6;fill:#438de6;fill-opacity:1;stroke-width:.410257"/><path fill="#ea4335" d="M76.267 91.493a3.7 3.7 0 0 0 1.354-1.354l.656-1.128 3.138-5.436a3.7 3.7 0 0 0 .493-1.847H70.625l2.4 4.718z" style="opacity:.9;fill:#438de6;fill-opacity:1;stroke-width:.410257"/><path fill="#00832d" d="m64 70.241 5.641-9.764a3.6 3.6 0 0 0-1.846-.492h-7.59a3.8 3.8 0 0 0-1.846.492z" style="opacity:.8;fill:#438de6;fill-opacity:1;stroke-width:.410257"/><path fill="#2684fc" d="M70.626 81.728H57.374l-5.64 9.765c.553.328 1.19.492 1.845.492h20.842a3.8 3.8 0 0 0 1.846-.492z" style="opacity:.8;fill:#438de6;fill-opacity:1;stroke-width:.410257"/><path fill="#ffba00" d="m76.205 70.857-5.21-9.026a3.7 3.7 0 0 0-1.354-1.354L64 70.241l6.626 11.487h11.261c0-.635-.164-1.271-.492-1.846z" style="opacity:.7;fill:#438de6;fill-opacity:1;stroke-width:.410257"/></svg>