<svg xmlns="http://www.w3.org/2000/svg" xmlns:xlink="http://www.w3.org/1999/xlink" width="128" height="128" viewBox="0 0 128 128"><defs><linearGradient xlink:href="#folder_onedrive_a" id="folder_onedrive_b" x1="2689.252" x2="2918.07" y1="-1106.803" y2="-1106.803" gradientUnits="userSpaceOnUse"/><linearGradient id="folder_onedrive_a"><stop offset="0" style="stop-color:#62a0ea;stop-opacity:1"/><stop offset=".058" style="stop-color:#afd4ff;stop-opacity:1"/><stop offset=".122" style="stop-color:#62a0ea;stop-opacity:1"/><stop offset=".873" style="stop-color:#62a0ea;stop-opacity:1"/><stop offset=".956" style="stop-color:#c0d5ea;stop-opacity:1"/><stop offset="1" style="stop-color:#62a0ea;stop-opacity:1"/></linearGradient></defs><g style="display:inline;stroke-width:1.26428"><path d="M2711.206-1326.332a21.906 21.906 0 0 0-21.954 21.953v188.867a21.906 21.906 0 0 0 21.954 21.953h184.91a21.906 21.906 0 0 0 21.954-21.953v-158.255a26.343 26.343 45 0 0-26.344-26.343H2790.46a14.28 14.28 31.639 0 1-12.758-7.86l-3.308-6.57a21.43 21.43 31.639 0 0-19.137-11.792z" style="fill:#438de6;fill-opacity:1;stroke-width:8.79091;stroke-linecap:round;stop-color:#000" transform="matrix(.45451 0 0 .45552 -1210.292 616.157)"/><path d="M2808.014-1273.645a21.9 21.9 0 0 0-15.465 6.343c-5.003 4.955-11.848 11.22-18.993 11.22h-62.35a21.906 21.906 0 0 0-21.954 21.952v118.618a21.906 21.906 0 0 0 21.954 21.953h184.91a21.906 21.906 0 0 0 21.954-21.953v-136.18a21.906 21.906 0 0 0-21.955-21.953z" style="fill:url(#folder_onedrive_b);fill-opacity:1;stroke-width:8.79091;stroke-linecap:round;stop-color:#000" transform="matrix(.45451 0 0 .45552 -1210.292 616.157)"/><path d="M2808.014-1282.426a21.9 21.9 0 0 0-15.465 6.343c-5.003 4.955-11.848 11.22-18.993 11.22h-62.35a21.906 21.906 0 0 0-21.954 21.952v122.887a21.906 21.906 0 0 0 21.954 21.953h184.91a21.906 21.906 0 0 0 21.954-21.953v-140.449a21.906 21.906 0 0 0-21.955-21.953z" style="fill:#a4caee;fill-opacity:1;stroke-width:8.79091;stroke-linecap:round;stop-color:#000" transform="matrix(.45451 0 0 .45552 -1210.292 616.157)"/></g><path fill="#0364b8" d="M60.202 71.428v-.001l6.718 4.023 4.003-1.684a6.5 6.5 0 0 1 2.577-.531q.222.001.439.016a10 10 0 0 0-18.041-3.014l.102-.002a7.96 7.96 0 0 1 4.202 1.193" style="opacity:.4;fill:#438de6;fill-opacity:1"/><path fill="#0078d4" d="M60.203 71.427A7.96 7.96 0 0 0 56 70.236l-.102.002a7.997 7.997 0 0 0-6.46 12.57l5.923-2.492 2.634-1.108 5.863-2.468 3.062-1.289z" style="opacity:.6;fill:#438de6;fill-opacity:1"/><path fill="#1490df" d="M73.939 73.251a7 7 0 0 0-.439-.016 6.5 6.5 0 0 0-2.577.532v-.001L66.92 75.45l1.161.696 3.805 2.279 1.66.994 5.677 3.4a6.5 6.5 0 0 0-5.284-9.568" style="opacity:.8;fill:#438de6;fill-opacity:1"/><path fill="#28a8ea" d="m73.546 79.42-1.66-.995-3.805-2.28-1.16-.695-3.063 1.29-5.863 2.467-2.634 1.108-5.924 2.493A7.99 7.99 0 0 0 56 86.235h17.5a6.5 6.5 0 0 0 5.723-3.416z" style="fill:#438de6;fill-opacity:1"/></svg>