<svg xmlns="http://www.w3.org/2000/svg" xmlns:xlink="http://www.w3.org/1999/xlink" width="128" height="128" viewBox="0 0 128 128"><defs><linearGradient xlink:href="#folder_python_a" id="folder_python_b" x1="2689.252" x2="2918.07" y1="-1106.803" y2="-1106.803" gradientUnits="userSpaceOnUse"/><linearGradient id="folder_python_a"><stop offset="0" style="stop-color:#62a0ea;stop-opacity:1"/><stop offset=".058" style="stop-color:#afd4ff;stop-opacity:1"/><stop offset=".122" style="stop-color:#62a0ea;stop-opacity:1"/><stop offset=".873" style="stop-color:#62a0ea;stop-opacity:1"/><stop offset=".956" style="stop-color:#c0d5ea;stop-opacity:1"/><stop offset="1" style="stop-color:#62a0ea;stop-opacity:1"/></linearGradient></defs><g style="display:inline;stroke-width:1.26428"><path d="M2711.206-1326.332a21.906 21.906 0 0 0-21.954 21.953v188.867a21.906 21.906 0 0 0 21.954 21.953h184.91a21.906 21.906 0 0 0 21.954-21.953v-158.255a26.343 26.343 45 0 0-26.344-26.343H2790.46a14.28 14.28 31.639 0 1-12.758-7.86l-3.308-6.57a21.43 21.43 31.639 0 0-19.137-11.792z" style="fill:#438de6;fill-opacity:1;stroke-width:8.79091;stroke-linecap:round;stop-color:#000" transform="matrix(.45451 0 0 .45552 -1210.292 616.157)"/><path d="M2808.014-1273.645a21.9 21.9 0 0 0-15.465 6.343c-5.003 4.955-11.848 11.22-18.993 11.22h-62.35a21.906 21.906 0 0 0-21.954 21.952v118.618a21.906 21.906 0 0 0 21.954 21.953h184.91a21.906 21.906 0 0 0 21.954-21.953v-136.18a21.906 21.906 0 0 0-21.955-21.953z" style="fill:url(#folder_python_b);fill-opacity:1;stroke-width:8.79091;stroke-linecap:round;stop-color:#000" transform="matrix(.45451 0 0 .45552 -1210.292 616.157)"/><path d="M2808.014-1282.426a21.9 21.9 0 0 0-15.465 6.343c-5.003 4.955-11.848 11.22-18.993 11.22h-62.35a21.906 21.906 0 0 0-21.954 21.952v122.887a21.906 21.906 0 0 0 21.954 21.953h184.91a21.906 21.906 0 0 0 21.954-21.953v-140.449a21.906 21.906 0 0 0-21.955-21.953z" style="fill:#a4caee;fill-opacity:1;stroke-width:8.79091;stroke-linecap:round;stop-color:#000" transform="matrix(.45451 0 0 .45552 -1210.292 616.157)"/></g><path d="M63.812 59.984a22 22 0 0 0-3.649.312c-3.23.57-3.817 1.765-3.817 3.968v2.91h7.635v.97h-10.5c-2.218 0-4.161 1.333-4.769 3.87-.7 2.908-.732 4.722 0 7.759.543 2.26 1.839 3.87 4.058 3.87h2.624v-3.488c0-2.52 2.18-4.742 4.77-4.742h7.625c2.122 0 3.817-1.748 3.817-3.88v-7.269c0-2.069-1.745-3.623-3.817-3.968a24 24 0 0 0-3.977-.312m-4.129 2.34c.789 0 1.433.655 1.433 1.46 0 .801-.644 1.45-1.433 1.45a1.44 1.44 0 0 1-1.433-1.45c0-.805.642-1.46 1.433-1.46" style="fill:#438de6;fill-opacity:1;stroke-width:.284725"/><path d="M72.558 68.143v3.39c0 2.629-2.228 4.84-4.77 4.84h-7.625c-2.088 0-3.817 1.788-3.817 3.88v7.27c0 2.068 1.8 3.285 3.817 3.879 2.417.71 4.734.839 7.626 0 1.922-.557 3.817-1.676 3.817-3.88v-2.909H63.98v-.97h11.442c2.219 0 3.045-1.547 3.817-3.87.797-2.392.763-4.691 0-7.76-.548-2.208-1.595-3.87-3.817-3.87zm-4.289 18.41a1.44 1.44 0 0 1 1.433 1.45c0 .805-.641 1.46-1.433 1.46-.788 0-1.432-.655-1.432-1.46 0-.802.644-1.45 1.432-1.45" style="fill:#438de6;fill-opacity:1;stroke-width:.284725"/></svg>