<svg xmlns="http://www.w3.org/2000/svg" xmlns:xlink="http://www.w3.org/1999/xlink" width="128" height="128" viewBox="0 0 128 128"><defs><linearGradient xlink:href="#folder_camera_a" id="folder_camera_b" x1="2689.252" x2="2918.07" y1="-1106.803" y2="-1106.803" gradientUnits="userSpaceOnUse"/><linearGradient id="folder_camera_a"><stop offset="0" style="stop-color:#62a0ea;stop-opacity:1"/><stop offset=".058" style="stop-color:#afd4ff;stop-opacity:1"/><stop offset=".122" style="stop-color:#62a0ea;stop-opacity:1"/><stop offset=".873" style="stop-color:#62a0ea;stop-opacity:1"/><stop offset=".956" style="stop-color:#c0d5ea;stop-opacity:1"/><stop offset="1" style="stop-color:#62a0ea;stop-opacity:1"/></linearGradient></defs><g style="display:inline;stroke-width:1.26428"><path d="M2711.206-1326.332a21.906 21.906 0 0 0-21.954 21.953v188.867a21.906 21.906 0 0 0 21.954 21.953h184.91a21.906 21.906 0 0 0 21.954-21.953v-158.255a26.343 26.343 45 0 0-26.344-26.343H2790.46a14.28 14.28 31.639 0 1-12.758-7.86l-3.308-6.57a21.43 21.43 31.639 0 0-19.137-11.792z" style="fill:#438de6;fill-opacity:1;stroke-width:8.79091;stroke-linecap:round;stop-color:#000" transform="matrix(.45451 0 0 .45552 -1210.292 616.157)"/><path d="M2808.014-1273.645a21.9 21.9 0 0 0-15.465 6.343c-5.003 4.955-11.848 11.22-18.993 11.22h-62.35a21.906 21.906 0 0 0-21.954 21.952v118.618a21.906 21.906 0 0 0 21.954 21.953h184.91a21.906 21.906 0 0 0 21.954-21.953v-136.18a21.906 21.906 0 0 0-21.955-21.953z" style="fill:url(#folder_camera_b);fill-opacity:1;stroke-width:8.79091;stroke-linecap:round;stop-color:#000" transform="matrix(.45451 0 0 .45552 -1210.292 616.157)"/><path d="M2808.014-1282.426a21.9 21.9 0 0 0-15.465 6.343c-5.003 4.955-11.848 11.22-18.993 11.22h-62.35a21.906 21.906 0 0 0-21.954 21.952v122.887a21.906 21.906 0 0 0 21.954 21.953h184.91a21.906 21.906 0 0 0 21.954-21.953v-140.449a21.906 21.906 0 0 0-21.955-21.953z" style="fill:#a4caee;fill-opacity:1;stroke-width:8.79091;stroke-linecap:round;stop-color:#000" transform="matrix(.45451 0 0 .45552 -1210.292 616.157)"/></g><path d="M64 68.518c-4.688 0-8.533 3.846-8.533 8.534 0 4.687 3.845 8.533 8.533 8.533s8.533-3.846 8.533-8.533c0-4.688-3.845-8.534-8.533-8.534m0 4.267a4.235 4.235 0 0 1 4.267 4.267A4.235 4.235 0 0 1 64 81.318a4.235 4.235 0 0 1-4.267-4.266A4.235 4.235 0 0 1 64 72.785m-3.2-12.8c-.566 0-1.108.225-1.508.625l-3.642 3.642h-2.317c-3.508 0-6.4 2.89-6.4 6.4v14.933c0 3.509 2.892 6.4 6.4 6.4h21.334c3.508 0 6.4-2.891 6.4-6.4V70.652c0-3.51-2.892-6.4-6.4-6.4H72.35l-3.642-3.642c-.4-.4-.942-.625-1.508-.625zm.883 4.267h4.634l3.641 3.641c.4.4.943.625 1.509.625h3.2c1.218 0 2.133.915 2.133 2.134v14.933c0 1.219-.915 2.133-2.133 2.133H53.333c-1.218 0-2.133-.914-2.133-2.133V70.652c0-1.22.915-2.134 2.133-2.134h3.2c.566 0 1.109-.225 1.509-.625z" style="fill:#438de6;fill-opacity:1;stroke-width:2.13333"/></svg>