<svg xmlns="http://www.w3.org/2000/svg" xmlns:xlink="http://www.w3.org/1999/xlink" width="128" height="128" viewBox="0 0 128 128"><defs><linearGradient xlink:href="#folder_android_a" id="folder_android_b" x1="2689.252" x2="2918.07" y1="-1106.803" y2="-1106.803" gradientUnits="userSpaceOnUse"/><linearGradient id="folder_android_a"><stop offset="0" style="stop-color:#62a0ea;stop-opacity:1"/><stop offset=".058" style="stop-color:#afd4ff;stop-opacity:1"/><stop offset=".122" style="stop-color:#62a0ea;stop-opacity:1"/><stop offset=".873" style="stop-color:#62a0ea;stop-opacity:1"/><stop offset=".956" style="stop-color:#c0d5ea;stop-opacity:1"/><stop offset="1" style="stop-color:#62a0ea;stop-opacity:1"/></linearGradient></defs><g style="display:inline;stroke-width:1.26428"><path d="M2711.206-1326.332a21.906 21.906 0 0 0-21.954 21.953v188.867a21.906 21.906 0 0 0 21.954 21.953h184.91a21.906 21.906 0 0 0 21.954-21.953v-158.255a26.343 26.343 45 0 0-26.344-26.343H2790.46a14.28 14.28 31.639 0 1-12.758-7.86l-3.308-6.57a21.43 21.43 31.639 0 0-19.137-11.792z" style="fill:#438de6;fill-opacity:1;stroke-width:8.79091;stroke-linecap:round;stop-color:#000" transform="matrix(.45451 0 0 .45552 -1210.292 616.157)"/><path d="M2808.014-1273.645a21.9 21.9 0 0 0-15.465 6.343c-5.003 4.955-11.848 11.22-18.993 11.22h-62.35a21.906 21.906 0 0 0-21.954 21.952v118.618a21.906 21.906 0 0 0 21.954 21.953h184.91a21.906 21.906 0 0 0 21.954-21.953v-136.18a21.906 21.906 0 0 0-21.955-21.953z" style="fill:url(#folder_android_b);fill-opacity:1;stroke-width:8.79091;stroke-linecap:round;stop-color:#000" transform="matrix(.45451 0 0 .45552 -1210.292 616.157)"/><path d="M2808.014-1282.426a21.9 21.9 0 0 0-15.465 6.343c-5.003 4.955-11.848 11.22-18.993 11.22h-62.35a21.906 21.906 0 0 0-21.954 21.952v122.887a21.906 21.906 0 0 0 21.954 21.953h184.91a21.906 21.906 0 0 0 21.954-21.953v-140.449a21.906 21.906 0 0 0-21.955-21.953z" style="fill:#a4caee;fill-opacity:1;stroke-width:8.79091;stroke-linecap:round;stop-color:#000" transform="matrix(.45451 0 0 .45552 -1210.292 616.157)"/></g><path d="M47.263 60.604a2.344 2.344 0 0 0-2.087 3.406l4.502 7.745.119-.014A27.16 27.16 0 0 0 37 91.985h54a27.16 27.16 0 0 0-12.802-20.247l.144.017 4.501-7.745a2.343 2.343 0 0 0-4.007-2.407l-4.81 7.977.023.038a27.2 27.2 0 0 0-10.058-1.952 27.2 27.2 0 0 0-10.012 1.938l.015-.024-4.811-7.977a2.34 2.34 0 0 0-1.92-1m4.852 18.799a2.404 3.04 37.533 0 1 1.998 2.82 2.404 3.04 37.533 0 1-3.183 2.82 2.404 3.04 37.533 0 1-1.998-2.82 2.404 3.04 37.533 0 1 3.183-2.82m23.818 0a3.04 2.404 52.467 0 1 3.183 2.82 3.04 2.404 52.467 0 1-1.998 2.82 3.04 2.404 52.467 0 1-3.183-2.82 3.04 2.404 52.467 0 1 1.998-2.82" style="fill:#438de6;fill-opacity:1;stroke-width:8.71953;stroke-linecap:round;stroke-linejoin:round;paint-order:stroke fill markers"/></svg>