<svg xmlns="http://www.w3.org/2000/svg" xmlns:xlink="http://www.w3.org/1999/xlink" xml:space="preserve" width="128" height="128" viewBox="0 0 128 128"><defs><linearGradient xlink:href="#folder_torrent_a" id="folder_torrent_b" x1="2689.252" x2="2918.07" y1="-1106.803" y2="-1106.803" gradientUnits="userSpaceOnUse"/><linearGradient id="folder_torrent_a"><stop offset="0" style="stop-color:#62a0ea;stop-opacity:1"/><stop offset=".058" style="stop-color:#afd4ff;stop-opacity:1"/><stop offset=".122" style="stop-color:#62a0ea;stop-opacity:1"/><stop offset=".873" style="stop-color:#62a0ea;stop-opacity:1"/><stop offset=".956" style="stop-color:#c0d5ea;stop-opacity:1"/><stop offset="1" style="stop-color:#62a0ea;stop-opacity:1"/></linearGradient></defs><g style="display:inline;stroke-width:1.26428"><path d="M2711.206-1326.332a21.906 21.906 0 0 0-21.954 21.953v188.867a21.906 21.906 0 0 0 21.954 21.953h184.91a21.906 21.906 0 0 0 21.954-21.953v-158.255a26.343 26.343 45 0 0-26.344-26.343H2790.46a14.28 14.28 31.639 0 1-12.758-7.86l-3.308-6.57a21.43 21.43 31.639 0 0-19.137-11.792z" style="fill:#438de6;fill-opacity:1;stroke-width:8.79091;stroke-linecap:round;stop-color:#000" transform="matrix(.45451 0 0 .45552 -1210.292 616.157)"/><path d="M2808.014-1273.645a21.9 21.9 0 0 0-15.465 6.343c-5.003 4.955-11.848 11.22-18.993 11.22h-62.35a21.906 21.906 0 0 0-21.954 21.952v118.618a21.906 21.906 0 0 0 21.954 21.953h184.91a21.906 21.906 0 0 0 21.954-21.953v-136.18a21.906 21.906 0 0 0-21.955-21.953z" style="fill:url(#folder_torrent_b);fill-opacity:1;stroke-width:8.79091;stroke-linecap:round;stop-color:#000" transform="matrix(.45451 0 0 .45552 -1210.292 616.157)"/><path d="M2808.014-1282.426a21.9 21.9 0 0 0-15.465 6.343c-5.003 4.955-11.848 11.22-18.993 11.22h-62.35a21.906 21.906 0 0 0-21.954 21.952v122.887a21.906 21.906 0 0 0 21.954 21.953h184.91a21.906 21.906 0 0 0 21.954-21.953v-140.449a21.906 21.906 0 0 0-21.955-21.953z" style="fill:#a4caee;fill-opacity:1;stroke-width:8.79091;stroke-linecap:round;stop-color:#000" transform="matrix(.45451 0 0 .45552 -1210.292 616.157)"/></g><path d="M64 59.985c-8.832 0-16 7.171-16 16 0 8.828 7.168 16 16 16s16-7.172 16-16c0-8.829-7.168-16-16-16m-.478 1.907q1.048-.03 2.108.098c3.198.386 5.922 1.702 8.206 3.959 2.096 2.073 3.392 4.566 3.917 7.483.194 1.072.259 2.156.195 3.237a13.74 13.74 0 0 1-1.897 6.244l-.003.005-.001.002h-.001c.005-.01.001-.006-.005 0-4.022.01-8.042.038-12.061-.003-1.89-.02-3.238-1.308-3.52-3.02a3.57 3.57 0 0 1 3.026-4.114c.82-.118 1.554.039 2.287.436.657.36 1.494.154 1.85-.489.35-.63.1-1.421-.532-1.798v-.001c-3.094-1.846-7.296-.504-8.756 2.787-1.365 3.08-.18 6.552 2.798 8.135h.001a5.7 5.7 0 0 0 2.682.678c3.42-.003 6.84 0 10.262 0-.027.028-.058.065-.084.092l-.002.002-.001.001c-.462.489-.978.71-1.645.709h-8.383c-1.597 0-3.001-.483-4.26-1.454-1.585-1.224-2.494-2.814-2.714-4.8-.348-3.124 1.385-6.005 4.2-7.231 1.048-.457 2.141-.63 3.288-.57h.001c.28.013.584.07.904.13h.001c.74.137 1.477-.311 1.628-1.04v-.001c.146-.694-.333-1.384-1.06-1.535a9.5 9.5 0 0 0-2.716-.17c-1.73.137-3.335.68-4.756 1.684-2.219 1.565-3.621 3.725-4.052 6.422-.828 5.217 2.638 10.116 7.822 11.047.58.104 1.173.156 1.756.163h.001c1.58.013 3.158.006 4.736.004-.77.291-1.56.523-2.383.642-.854.124-1.707.225-2.529.204-2.89-.066-5.336-1.114-7.366-3.184-1.518-1.548-2.477-3.38-2.822-5.51-.563-3.487.35-6.495 2.772-9.077q2.294-2.444 5.604-3.048v.001a15 15 0 0 1 1.874-.194c.377-.021.727-.14.99-.371a1.26 1.26 0 0 0 .42-.957c-.004-.746-.662-1.342-1.454-1.322-1.425.032-2.844.23-4.205.737-4.098 1.525-6.883 4.415-8.237 8.576-.511 1.566-.658 3.185-.527 4.8.017.203.077.383.107.583-.414-1.061-.74-2.15-.866-3.296-.433-3.907.527-7.388 2.982-10.459v-.001c2.162-2.685 4.945-4.325 8.334-4.985q1.037-.2 2.086-.23" style="color:#000;fill:#438de6;fill-opacity:1;stroke-width:.824138;-inkscape-stroke:none"/></svg>