<svg xmlns="http://www.w3.org/2000/svg" xmlns:xlink="http://www.w3.org/1999/xlink" width="128" height="128" viewBox="0 0 128 128"><defs><linearGradient xlink:href="#folder_arduino_a" id="folder_arduino_b" x1="2689.252" x2="2918.07" y1="-1106.803" y2="-1106.803" gradientUnits="userSpaceOnUse"/><linearGradient id="folder_arduino_a"><stop offset="0" style="stop-color:#62a0ea;stop-opacity:1"/><stop offset=".058" style="stop-color:#afd4ff;stop-opacity:1"/><stop offset=".122" style="stop-color:#62a0ea;stop-opacity:1"/><stop offset=".873" style="stop-color:#62a0ea;stop-opacity:1"/><stop offset=".956" style="stop-color:#c0d5ea;stop-opacity:1"/><stop offset="1" style="stop-color:#62a0ea;stop-opacity:1"/></linearGradient></defs><g style="display:inline;stroke-width:1.26428"><path d="M2711.206-1326.332a21.906 21.906 0 0 0-21.954 21.953v188.867a21.906 21.906 0 0 0 21.954 21.953h184.91a21.906 21.906 0 0 0 21.954-21.953v-158.255a26.343 26.343 45 0 0-26.344-26.343H2790.46a14.28 14.28 31.639 0 1-12.758-7.86l-3.308-6.57a21.43 21.43 31.639 0 0-19.137-11.792z" style="fill:#438de6;fill-opacity:1;stroke-width:8.79091;stroke-linecap:round;stop-color:#000" transform="matrix(.45451 0 0 .45552 -1210.292 616.157)"/><path d="M2808.014-1273.645a21.9 21.9 0 0 0-15.465 6.343c-5.003 4.955-11.848 11.22-18.993 11.22h-62.35a21.906 21.906 0 0 0-21.954 21.952v118.618a21.906 21.906 0 0 0 21.954 21.953h184.91a21.906 21.906 0 0 0 21.954-21.953v-136.18a21.906 21.906 0 0 0-21.955-21.953z" style="fill:url(#folder_arduino_b);fill-opacity:1;stroke-width:8.79091;stroke-linecap:round;stop-color:#000" transform="matrix(.45451 0 0 .45552 -1210.292 616.157)"/><path d="M2808.014-1282.426a21.9 21.9 0 0 0-15.465 6.343c-5.003 4.955-11.848 11.22-18.993 11.22h-62.35a21.906 21.906 0 0 0-21.954 21.952v122.887a21.906 21.906 0 0 0 21.954 21.953h184.91a21.906 21.906 0 0 0 21.954-21.953v-140.449a21.906 21.906 0 0 0-21.955-21.953z" style="fill:#a4caee;fill-opacity:1;stroke-width:8.79091;stroke-linecap:round;stop-color:#000" transform="matrix(.45451 0 0 .45552 -1210.292 616.157)"/></g><path d="M78.562 80.338h2.658v-2.55h-2.658v-2.765h-2.657v2.765h-2.657v2.55h2.657v2.765h2.657zm-24.127-2.55h-7.972v2.55h7.972zM91 79.063C91 71.94 85.05 66.2 77.712 66.2a13 13 0 0 0-2.017.108c-5.74.85-9.57 4.89-11.695 8.08-2.125-3.19-5.95-7.23-11.7-8.08a12.6 12.6 0 0 0-2.018-.108C42.955 66.2 37 71.94 37 79.063s5.955 12.89 13.288 12.89a13 13 0 0 0 2.011-.135c5.746-.85 9.57-4.89 11.695-8.075 2.125 3.185 5.956 7.225 11.696 8.075q1.004.134 2.017.108c7.23-.108 13.287-5.848 13.287-12.863zm-39.438 8.188a6.3 6.3 0 0 1-1.382.102c-4.782 0-8.715-3.717-8.715-8.29s3.933-8.29 8.823-8.29a6 6 0 0 1 1.382.108c5.423.742 8.715 6.057 9.78 8.182-1.173 2.125-4.465 7.338-9.888 8.188m14.903-8.188c1.133-2.125 4.34-7.44 9.763-8.182.453-.09.915-.126 1.377-.108 4.89 0 8.822 3.717 8.822 8.29s-3.932 8.29-8.715 8.29a6.3 6.3 0 0 1-1.382-.102c-5.525-.85-8.822-6.063-9.865-8.188" style="fill:#438de6;fill-opacity:1;stroke-width:.333698"/></svg>