<svg xmlns="http://www.w3.org/2000/svg" xmlns:xlink="http://www.w3.org/1999/xlink" width="128" height="128" viewBox="0 0 128 128"><defs><linearGradient xlink:href="#folder_bitwig_a" id="folder_bitwig_b" x1="2689.252" x2="2918.07" y1="-1106.803" y2="-1106.803" gradientUnits="userSpaceOnUse"/><linearGradient id="folder_bitwig_a"><stop offset="0" style="stop-color:#62a0ea;stop-opacity:1"/><stop offset=".058" style="stop-color:#afd4ff;stop-opacity:1"/><stop offset=".122" style="stop-color:#62a0ea;stop-opacity:1"/><stop offset=".873" style="stop-color:#62a0ea;stop-opacity:1"/><stop offset=".956" style="stop-color:#c0d5ea;stop-opacity:1"/><stop offset="1" style="stop-color:#62a0ea;stop-opacity:1"/></linearGradient></defs><g style="display:inline;stroke-width:1.26428"><path d="M2711.206-1326.332a21.906 21.906 0 0 0-21.954 21.953v188.867a21.906 21.906 0 0 0 21.954 21.953h184.91a21.906 21.906 0 0 0 21.954-21.953v-158.255a26.343 26.343 45 0 0-26.344-26.343H2790.46a14.28 14.28 31.639 0 1-12.758-7.86l-3.308-6.57a21.43 21.43 31.639 0 0-19.137-11.792z" style="fill:#438de6;fill-opacity:1;stroke-width:8.79091;stroke-linecap:round;stop-color:#000" transform="matrix(.45451 0 0 .45552 -1210.292 616.157)"/><path d="M2808.014-1273.645a21.9 21.9 0 0 0-15.465 6.343c-5.003 4.955-11.848 11.22-18.993 11.22h-62.35a21.906 21.906 0 0 0-21.954 21.952v118.618a21.906 21.906 0 0 0 21.954 21.953h184.91a21.906 21.906 0 0 0 21.954-21.953v-136.18a21.906 21.906 0 0 0-21.955-21.953z" style="fill:url(#folder_bitwig_b);fill-opacity:1;stroke-width:8.79091;stroke-linecap:round;stop-color:#000" transform="matrix(.45451 0 0 .45552 -1210.292 616.157)"/><path d="M2808.014-1282.426a21.9 21.9 0 0 0-15.465 6.343c-5.003 4.955-11.848 11.22-18.993 11.22h-62.35a21.906 21.906 0 0 0-21.954 21.952v122.887a21.906 21.906 0 0 0 21.954 21.953h184.91a21.906 21.906 0 0 0 21.954-21.953v-140.449a21.906 21.906 0 0 0-21.955-21.953z" style="fill:#a4caee;fill-opacity:1;stroke-width:8.79091;stroke-linecap:round;stop-color:#000" transform="matrix(.45451 0 0 .45552 -1210.292 616.157)"/></g><path d="M-54.858 64.668a3.62 3.62 0 0 1-3.62-3.62 3.62 3.62 0 0 1 3.62-3.622 3.62 3.62 0 0 1 3.622 3.621 3.62 3.62 0 0 1-3.622 3.621m0 9.847a3.62 3.62 0 0 1-3.62-3.62 3.62 3.62 0 0 1 3.62-3.622 3.62 3.62 0 0 1 3.622 3.621c0 1.97-1.652 3.621-3.622 3.621m-9.847-19.694a3.62 3.62 0 0 1-3.62-3.621 3.62 3.62 0 0 1 3.62-3.621 3.62 3.62 0 0 1 3.621 3.621c0 2.033-1.588 3.621-3.62 3.621m0 9.847a3.62 3.62 0 0 1-3.62-3.62 3.62 3.62 0 0 1 3.62-3.622 3.62 3.62 0 0 1 3.621 3.621c0 2.033-1.588 3.621-3.62 3.621m0 9.847a3.62 3.62 0 0 1-3.62-3.62 3.62 3.62 0 0 1 3.62-3.622 3.62 3.62 0 0 1 3.621 3.621 3.62 3.62 0 0 1-3.62 3.621m-9.783-19.694A3.62 3.62 0 0 1-78.11 51.2a3.62 3.62 0 0 1 3.62-3.621 3.62 3.62 0 0 1 3.622 3.621c-.064 2.033-1.652 3.621-3.621 3.621m0 9.847a3.62 3.62 0 0 1-3.621-3.62 3.62 3.62 0 0 1 3.62-3.622 3.62 3.62 0 0 1 3.622 3.621c-.064 2.033-1.652 3.621-3.621 3.621m-9.847-9.847a3.62 3.62 0 0 1-3.621-3.621 3.62 3.62 0 0 1 3.62-3.621 3.62 3.62 0 0 1 3.622 3.621 3.62 3.62 0 0 1-3.621 3.621m0 9.847a3.62 3.62 0 0 1-3.621-3.62 3.62 3.62 0 0 1 3.62-3.622 3.62 3.62 0 0 1 3.622 3.621 3.62 3.62 0 0 1-3.621 3.621m-9.847-9.847a3.62 3.62 0 0 1-3.621-3.621 3.62 3.62 0 0 1 3.62-3.621A3.62 3.62 0 0 1-90.56 51.2c0 2.033-1.588 3.621-3.621 3.621m0 9.847a3.62 3.62 0 0 1-3.621-3.62 3.62 3.62 0 0 1 3.62-3.622 3.62 3.62 0 0 1 3.622 3.621c0 2.033-1.588 3.621-3.621 3.621m0 9.847a3.62 3.62 0 0 1-3.621-3.62 3.62 3.62 0 0 1 3.62-3.622 3.62 3.62 0 0 1 3.622 3.621 3.62 3.62 0 0 1-3.621 3.621m-9.847-9.847a3.62 3.62 0 0 1-3.622-3.62 3.62 3.62 0 0 1 3.622-3.622 3.62 3.62 0 0 1 3.62 3.621c0 2.033-1.587 3.621-3.62 3.621m0 9.847a3.62 3.62 0 0 1-3.622-3.62 3.62 3.62 0 0 1 3.622-3.622 3.62 3.62 0 0 1 3.62 3.621 3.62 3.62 0 0 1-3.62 3.621" class="st1" style="fill:#3f8ae5;fill-opacity:1;stroke-width:.635293" transform="translate(140.044 20.657)scale(.9572)"/></svg>