<svg xmlns="http://www.w3.org/2000/svg" xmlns:xlink="http://www.w3.org/1999/xlink" width="128" height="128" viewBox="0 0 128 128"><defs><linearGradient xlink:href="#folder_ruby_a" id="folder_ruby_c" x1="2689.252" x2="2918.07" y1="-1106.803" y2="-1106.803" gradientUnits="userSpaceOnUse"/><linearGradient id="folder_ruby_a"><stop offset="0" style="stop-color:#62a0ea;stop-opacity:1"/><stop offset=".058" style="stop-color:#afd4ff;stop-opacity:1"/><stop offset=".122" style="stop-color:#62a0ea;stop-opacity:1"/><stop offset=".873" style="stop-color:#62a0ea;stop-opacity:1"/><stop offset=".956" style="stop-color:#c0d5ea;stop-opacity:1"/><stop offset="1" style="stop-color:#62a0ea;stop-opacity:1"/></linearGradient><linearGradient xlink:href="#folder_ruby_b" id="folder_ruby_d" x1="174.074" x2="132.276" y1="215.549" y2="141.753" gradientUnits="userSpaceOnUse"/><linearGradient id="folder_ruby_b" x1="174.074" x2="132.276" y1="215.549" y2="141.753" gradientUnits="userSpaceOnUse"><stop offset="0" style="stop-color:#438de6;stop-opacity:.40000001"/><stop offset="0" style="stop-color:#438de6;stop-opacity:.40000001"/><stop offset=".41" style="stop-color:#438de6;stop-opacity:.60000002"/><stop offset=".99" style="stop-color:#438de6;stop-opacity:.80000001"/><stop offset="1" style="stop-color:#438de6;stop-opacity:1"/></linearGradient><linearGradient id="folder_ruby_e" x1="194.895" x2="141.028" y1="153.558" y2="117.409" gradientUnits="userSpaceOnUse"><stop offset="0" style="stop-color:#438de6;stop-opacity:1"/><stop offset="0" style="stop-color:#438de6;stop-opacity:1"/><stop offset=".99" style="stop-color:#438de6;stop-opacity:.89999998"/><stop offset="1" style="stop-color:#438de6;stop-opacity:.89999998"/></linearGradient><linearGradient id="folder_ruby_f" x1="151.795" x2="97.93" y1="217.785" y2="181.638" gradientUnits="userSpaceOnUse"><stop offset="0" style="stop-color:#438de6;stop-opacity:1"/><stop offset="0" style="stop-color:#438de6;stop-opacity:1"/><stop offset=".99" style="stop-color:#438de6;stop-opacity:.80000001"/><stop offset="1" style="stop-color:#438de6;stop-opacity:.80000001"/></linearGradient><linearGradient id="folder_ruby_g" x1="38.696" x2="47.047" y1="127.391" y2="181.661" gradientUnits="userSpaceOnUse"><stop offset="0" style="stop-color:#438de6;stop-opacity:0"/><stop offset="0" style="stop-color:#438de6;stop-opacity:0"/><stop offset=".23" style="stop-color:#438de6;stop-opacity:.60000002"/><stop offset=".46" style="stop-color:#438de6;stop-opacity:1"/><stop offset=".99" style="stop-color:#438de6;stop-opacity:.80000001"/><stop offset="1" style="stop-color:#438de6;stop-opacity:.80000001"/></linearGradient><linearGradient id="folder_ruby_h" x1="96.133" x2="99.21" y1="76.715" y2="132.102" gradientUnits="userSpaceOnUse"><stop offset="0" style="stop-color:#438de6;stop-opacity:0"/><stop offset="0" style="stop-color:#438de6;stop-opacity:0"/><stop offset=".23" style="stop-color:#438de6;stop-opacity:.60000002"/><stop offset=".56" style="stop-color:#438de6;stop-opacity:.80000001"/><stop offset=".99" style="stop-color:#438de6;stop-opacity:1"/><stop offset="1" style="stop-color:#438de6;stop-opacity:1"/></linearGradient><linearGradient id="folder_ruby_i" x1="147.103" x2="156.314" y1="25.521" y2="65.216" gradientUnits="userSpaceOnUse"><stop offset="0" style="stop-color:#438de6;stop-opacity:0"/><stop offset="0" style="stop-color:#438de6;stop-opacity:0"/><stop offset=".18" style="stop-color:#438de6;stop-opacity:.60000002"/><stop offset=".4" style="stop-color:#438de6;stop-opacity:.80000001"/><stop offset=".99" style="stop-color:#438de6;stop-opacity:1"/><stop offset="1" style="stop-color:#438de6;stop-opacity:1"/></linearGradient><linearGradient id="folder_ruby_j" x1="118.976" x2="158.669" y1="11.541" y2="-8.305" gradientUnits="userSpaceOnUse"><stop offset="0" style="stop-color:#438de6;stop-opacity:0"/><stop offset="0" style="stop-color:#438de6;stop-opacity:0"/><stop offset=".54" style="stop-color:#438de6;stop-opacity:.60000002"/><stop offset=".99" style="stop-color:#438de6;stop-opacity:.80000001"/><stop offset="1" style="stop-color:#438de6;stop-opacity:.80000001"/></linearGradient><linearGradient id="folder_ruby_k" x1="3.903" x2="7.17" y1="113.555" y2="146.263" gradientUnits="userSpaceOnUse"><stop offset="0" style="stop-color:#438de6;stop-opacity:0"/><stop offset="0" style="stop-color:#438de6;stop-opacity:0"/><stop offset=".31" style="stop-color:#438de6;stop-opacity:.40000001"/><stop offset=".99" style="stop-color:#438de6;stop-opacity:.60000002"/><stop offset="1" style="stop-color:#438de6;stop-opacity:.60000002"/></linearGradient><linearGradient id="folder_ruby_l" x1="-18.556" x2="135.015" y1="155.105" y2="-2.809" gradientTransform="translate(47.955 59.984)scale(.16196)" gradientUnits="userSpaceOnUse"><stop offset="0" style="stop-color:#438de6;stop-opacity:.80000001"/><stop offset="0" style="stop-color:#438de6;stop-opacity:.80000001"/><stop offset=".07" style="stop-color:#438de6;stop-opacity:0"/><stop offset=".17" style="stop-color:#438de6;stop-opacity:0"/><stop offset=".27" style="stop-color:#438de6;stop-opacity:.60000002"/><stop offset=".33" style="stop-color:#438de6;stop-opacity:1"/><stop offset=".46" style="stop-color:#438de6;stop-opacity:.80000001"/><stop offset=".72" style="stop-color:#438de6;stop-opacity:.80000001"/><stop offset=".99" style="stop-color:#438de6;stop-opacity:.40000001"/><stop offset="1" style="stop-color:#438de6;stop-opacity:.40000001"/></linearGradient><linearGradient id="folder_ruby_m" x1="99.075" x2="52.818" y1="171.033" y2="159.617" gradientTransform="translate(47.955 59.984)scale(.16196)" gradientUnits="userSpaceOnUse"><stop offset="0" style="stop-color:#438de6;stop-opacity:1"/><stop offset="0" style="stop-color:#438de6;stop-opacity:1"/><stop offset=".54" style="stop-color:#438de6;stop-opacity:.80000001"/><stop offset=".99" style="stop-color:#438de6;stop-opacity:.60000002"/><stop offset="1" style="stop-color:#438de6;stop-opacity:.60000002"/></linearGradient><linearGradient id="folder_ruby_n" x1="178.526" x2="137.433" y1="115.515" y2="78.684" gradientTransform="translate(47.955 59.984)scale(.16196)" gradientUnits="userSpaceOnUse"><stop offset="0" style="stop-color:#438de6;stop-opacity:1"/><stop offset="0" style="stop-color:#438de6;stop-opacity:1"/><stop offset=".99" style="stop-color:#438de6;stop-opacity:.80000001"/><stop offset="1" style="stop-color:#438de6;stop-opacity:.80000001"/></linearGradient><linearGradient id="folder_ruby_o" x1="193.624" x2="173.154" y1="47.937" y2="26.054" gradientTransform="translate(47.955 59.984)scale(.16196)" gradientUnits="userSpaceOnUse"><stop offset="0" style="stop-color:#438de6;stop-opacity:1"/><stop offset="0" style="stop-color:#438de6;stop-opacity:1"/><stop offset=".99" style="stop-color:#438de6;stop-opacity:.80000001"/><stop offset="1" style="stop-color:#438de6;stop-opacity:.80000001"/></linearGradient><linearGradient id="folder_ruby_r" x1="26.67" x2="9.989" y1="197.336" y2="140.742" gradientTransform="translate(47.955 59.984)scale(.16196)" gradientUnits="userSpaceOnUse"><stop offset="0" style="stop-color:#438de6;stop-opacity:1"/><stop offset="0" style="stop-color:#438de6;stop-opacity:1"/><stop offset=".43" style="stop-color:#438de6;stop-opacity:.80000001"/><stop offset=".99" style="stop-color:#438de6;stop-opacity:.60000002"/><stop offset="1" style="stop-color:#438de6;stop-opacity:.60000002"/></linearGradient><linearGradient id="folder_ruby_s" x1="154.641" x2="192.039" y1="9.798" y2="26.306" gradientTransform="translate(47.955 59.984)scale(.16196)" gradientUnits="userSpaceOnUse"><stop offset="0" style="stop-color:#438de6;stop-opacity:.60000002"/><stop offset="0" style="stop-color:#438de6;stop-opacity:.60000002"/><stop offset=".44" style="stop-color:#438de6;stop-opacity:.80000001"/><stop offset=".99" style="stop-color:#438de6;stop-opacity:1"/><stop offset="1" style="stop-color:#438de6;stop-opacity:1"/></linearGradient><radialGradient id="folder_ruby_p" cx="143.832" cy="79.388" r="50.358" gradientTransform="translate(47.955 59.984)scale(.16196)" gradientUnits="userSpaceOnUse"><stop offset="0" style="stop-color:#438de6;stop-opacity:.80000001"/><stop offset="0" style="stop-color:#438de6;stop-opacity:.80000001"/><stop offset=".99" style="stop-color:#438de6;stop-opacity:1"/><stop offset="1" style="stop-color:#438de6;stop-opacity:1"/></radialGradient><radialGradient id="folder_ruby_q" cx="74.092" cy="145.751" r="66.944" gradientTransform="translate(47.955 59.984)scale(.16196)" gradientUnits="userSpaceOnUse"><stop offset="0" style="stop-color:#438de6;stop-opacity:.80000001"/><stop offset="0" style="stop-color:#438de6;stop-opacity:.80000001"/><stop offset=".99" style="stop-color:#438de6;stop-opacity:1"/><stop offset="1" style="stop-color:#438de6;stop-opacity:1"/></radialGradient></defs><g style="display:inline;stroke-width:1.26428"><path d="M2711.206-1326.332a21.906 21.906 0 0 0-21.954 21.953v188.867a21.906 21.906 0 0 0 21.954 21.953h184.91a21.906 21.906 0 0 0 21.954-21.953v-158.255a26.343 26.343 45 0 0-26.344-26.343H2790.46a14.28 14.28 31.639 0 1-12.758-7.86l-3.308-6.57a21.43 21.43 31.639 0 0-19.137-11.792z" style="fill:#438de6;fill-opacity:1;stroke-width:8.79091;stroke-linecap:round;stop-color:#000" transform="matrix(.45451 0 0 .45552 -1210.292 616.157)"/><path d="M2808.014-1273.645a21.9 21.9 0 0 0-15.465 6.343c-5.003 4.955-11.848 11.22-18.993 11.22h-62.35a21.906 21.906 0 0 0-21.954 21.952v118.618a21.906 21.906 0 0 0 21.954 21.953h184.91a21.906 21.906 0 0 0 21.954-21.953v-136.18a21.906 21.906 0 0 0-21.955-21.953z" style="fill:url(#folder_ruby_c);fill-opacity:1;stroke-width:8.79091;stroke-linecap:round;stop-color:#000" transform="matrix(.45451 0 0 .45552 -1210.292 616.157)"/><path d="M2808.014-1282.426a21.9 21.9 0 0 0-15.465 6.343c-5.003 4.955-11.848 11.22-18.993 11.22h-62.35a21.906 21.906 0 0 0-21.954 21.952v122.887a21.906 21.906 0 0 0 21.954 21.953h184.91a21.906 21.906 0 0 0 21.954-21.953v-140.449a21.906 21.906 0 0 0-21.955-21.953z" style="fill:#a4caee;fill-opacity:1;stroke-width:8.79091;stroke-linecap:round;stop-color:#000" transform="matrix(.45451 0 0 .45552 -1210.292 616.157)"/></g><path d="m40.38 197.58 146.469-9.939L198.13 39.95l-44.63 90.46z" clip-rule="evenodd" style="fill:url(#folder_ruby_d);fill-rule:evenodd" transform="translate(47.955 59.984)scale(.16196)"/><path d="m140.209 145.93 46.88 41.61-12.589-86.89z" clip-rule="evenodd" style="fill:url(#folder_ruby_e);fill-rule:evenodd" transform="translate(47.955 59.984)scale(.16196)"/><path d="m40.87 197.391 146.389-9.851-92.229-7.24z" clip-rule="evenodd" style="fill:url(#folder_ruby_f);fill-rule:evenodd" transform="translate(47.955 59.984)scale(.16196)"/><path d="M13.34 132.771 41 197.41l23.04-75.48z" clip-rule="evenodd" style="fill:url(#folder_ruby_g);fill-rule:evenodd" transform="translate(47.955 59.984)scale(.16196)"/><path d="m58.33 120.01 81.87 26.17L119 63.14z" clip-rule="evenodd" style="fill:url(#folder_ruby_h);fill-rule:evenodd" transform="translate(47.955 59.984)scale(.16196)"/><path d="m120 69.1 73.32-4.79-57.35-46.84z" clip-rule="evenodd" style="fill:url(#folder_ruby_i);fill-rule:evenodd" transform="translate(47.955 59.984)scale(.16196)"/><path d="m111.49.52 55.01.25-33.73 18.64z" clip-rule="evenodd" style="fill:url(#folder_ruby_j);fill-rule:evenodd" transform="translate(47.955 59.984)scale(.16196)"/><path d="M2.7 101.62 0 158.09l14.13-25.77z" clip-rule="evenodd" style="fill:url(#folder_ruby_k);fill-rule:evenodd" transform="translate(47.955 59.984)scale(.16196)"/><path d="m48.27 76.285 1.862 5.283 8.093-1.815 9.24-8.587 2.608-8.283-4.106-2.899-6.98 2.612c-2.2 2.046-6.468 6.093-6.621 6.17s-2.818 5.116-4.096 7.52" clip-rule="evenodd" style="fill:#438de6;fill-opacity:1;fill-rule:evenodd;stroke-width:.16196"/><path d="M54.81 66.794c4.766-4.726 10.91-7.518 13.269-5.139 2.357 2.38-.143 8.162-4.91 12.886-4.766 4.724-10.834 7.67-13.19 5.291-2.359-2.377.064-8.313 4.83-13.038" clip-rule="evenodd" style="fill:url(#folder_ruby_l);fill-rule:evenodd;stroke-width:.16196"/><path d="m54.596 91.952 3.702-12.264 12.296 3.95c-4.446 4.169-9.39 7.693-15.998 8.314" clip-rule="evenodd" style="fill:url(#folder_ruby_m);fill-rule:evenodd;stroke-width:.16196"/><path d="m67.481 71.141 3.157 12.504c3.714-3.905 7.047-8.103 8.68-13.296z" clip-rule="evenodd" style="fill:url(#folder_ruby_n);fill-rule:evenodd;stroke-width:.16196"/><path d="M79.285 70.413c1.263-3.813 1.555-9.282-4.402-10.298l-4.888 2.7z" clip-rule="evenodd" style="fill:url(#folder_ruby_o);fill-rule:evenodd;stroke-width:.16196"/><path d="M47.955 85.533c.175 6.292 4.715 6.386 6.649 6.441l-4.467-10.432Z" clip-rule="evenodd" style="fill:#438de6;fill-opacity:1;fill-rule:evenodd;stroke-width:.16196"/><path d="M67.499 71.16c2.854 1.755 8.605 5.277 8.722 5.342.18.102 2.48-3.875 3-6.123z" clip-rule="evenodd" style="fill:url(#folder_ruby_p);fill-rule:evenodd;stroke-width:.16196"/><path d="m58.293 79.688 4.95 9.55c2.926-1.588 5.218-3.522 7.317-5.593z" clip-rule="evenodd" style="fill:url(#folder_ruby_q);fill-rule:evenodd;stroke-width:.16196"/><path d="m50.118 81.555-.702 8.351c1.324 1.808 3.144 1.965 5.053 1.824-1.381-3.439-4.14-10.314-4.351-10.175" clip-rule="evenodd" style="fill:url(#folder_ruby_r);fill-rule:evenodd;stroke-width:.16196"/><path d="m69.966 62.836 9.832 1.38c-.524-2.224-2.136-3.659-4.883-4.107z" clip-rule="evenodd" style="fill:url(#folder_ruby_s);fill-rule:evenodd;stroke-width:.16196"/></svg>