<svg xmlns="http://www.w3.org/2000/svg" xmlns:xlink="http://www.w3.org/1999/xlink" width="128" height="128" viewBox="0 0 128 128"><defs><linearGradient xlink:href="#folder_freecad_a" id="folder_freecad_b" x1="2689.252" x2="2918.07" y1="-1106.803" y2="-1106.803" gradientTransform="matrix(.45451 0 0 .45552 -1210.292 616.157)" gradientUnits="userSpaceOnUse"/><linearGradient id="folder_freecad_a"><stop offset="0" style="stop-color:#62a0ea;stop-opacity:1"/><stop offset=".058" style="stop-color:#afd4ff;stop-opacity:1"/><stop offset=".122" style="stop-color:#62a0ea;stop-opacity:1"/><stop offset=".873" style="stop-color:#62a0ea;stop-opacity:1"/><stop offset=".956" style="stop-color:#c0d5ea;stop-opacity:1"/><stop offset="1" style="stop-color:#62a0ea;stop-opacity:1"/></linearGradient></defs><path d="M21.978 11.984c-5.527 0-9.978 4.46-9.978 10v86.033c0 5.54 4.45 10 9.978 10h84.043c5.528 0 9.979-4.46 9.979-10V35.929a11.973 12 0 0 0-11.973-12H58a6.492 6.507 0 0 1-5.799-3.581l-1.503-2.993A9.738 9.76 0 0 0 42 11.984Z" style="fill:#438de6;fill-opacity:1;stroke-width:4;stroke-linecap:round;stop-color:#000"/><path d="M65.979 35.984a9.94 9.94 0 0 0-7.03 2.89c-2.273 2.256-5.384 5.11-8.632 5.11H21.978c-5.527 0-9.978 4.46-9.978 10v54.033c0 5.54 4.45 10 9.978 10h84.043c5.528 0 9.979-4.46 9.979-10V45.984c0-5.54-4.45-10-9.979-10z" style="fill:url(#folder_freecad_b);fill-opacity:1;stroke-width:4;stroke-linecap:round;stop-color:#000"/><path d="M65.979 31.984a9.94 9.94 0 0 0-7.03 2.89c-2.273 2.256-5.384 5.11-8.632 5.11H21.978c-5.527 0-9.978 4.46-9.978 10v55.978c0 5.54 4.45 10 9.978 10h84.043c5.528 0 9.979-4.46 9.979-10V41.984c0-5.54-4.45-10-9.979-10z" style="fill:#a4caee;fill-opacity:1;stroke-width:4;stroke-linecap:round;stop-color:#000"/><path d="m56 59.984-5.332 5.332v26.668h10.734c.405 0 .762-.26.887-.645l.965-2.972a.93.93 0 0 1 .598-.598l.742-.242a.94.94 0 0 1 .84.133l2.527 1.836a.93.93 0 0 0 1.098 0l2.261-1.645a.93.93 0 0 0 .34-1.043l-.965-2.972a.93.93 0 0 1 .133-.836l.457-.633a.94.94 0 0 1 .758-.383h3.121a.94.94 0 0 0 .89-.648l.864-2.66a.93.93 0 0 0-.34-1.044l-2.527-1.836a.94.94 0 0 1-.383-.757v-.778c0-.298.14-.582.383-.758l2.898-2.105a.93.93 0 0 0 .383-.754v-10.66H72zm0 5.332h16v5.336H61.332v4h5.336v5.332h-5.336v6.668H56v-5.336z" style="fill:#438de6;fill-opacity:1;fill-rule:evenodd;stroke:none;stroke-width:.176377;stroke-linecap:square"/></svg>