<svg xmlns="http://www.w3.org/2000/svg" xmlns:xlink="http://www.w3.org/1999/xlink" width="128" height="128" viewBox="0 0 128 128"><defs><linearGradient xlink:href="#folder_earth_a" id="folder_earth_b" x1="2689.252" x2="2918.07" y1="-1106.803" y2="-1106.803" gradientUnits="userSpaceOnUse"/><linearGradient id="folder_earth_a"><stop offset="0" style="stop-color:#62a0ea;stop-opacity:1"/><stop offset=".058" style="stop-color:#afd4ff;stop-opacity:1"/><stop offset=".122" style="stop-color:#62a0ea;stop-opacity:1"/><stop offset=".873" style="stop-color:#62a0ea;stop-opacity:1"/><stop offset=".956" style="stop-color:#c0d5ea;stop-opacity:1"/><stop offset="1" style="stop-color:#62a0ea;stop-opacity:1"/></linearGradient></defs><g style="display:inline;stroke-width:1.26428"><path d="M2711.206-1326.332a21.906 21.906 0 0 0-21.954 21.953v188.867a21.906 21.906 0 0 0 21.954 21.953h184.91a21.906 21.906 0 0 0 21.954-21.953v-158.255a26.343 26.343 45 0 0-26.344-26.343H2790.46a14.28 14.28 31.639 0 1-12.758-7.86l-3.308-6.57a21.43 21.43 31.639 0 0-19.137-11.792z" style="fill:#438de6;fill-opacity:1;stroke-width:8.79091;stroke-linecap:round;stop-color:#000" transform="matrix(.45451 0 0 .45552 -1210.292 616.157)"/><path d="M2808.014-1273.645a21.9 21.9 0 0 0-15.465 6.343c-5.003 4.955-11.848 11.22-18.993 11.22h-62.35a21.906 21.906 0 0 0-21.954 21.952v118.618a21.906 21.906 0 0 0 21.954 21.953h184.91a21.906 21.906 0 0 0 21.954-21.953v-136.18a21.906 21.906 0 0 0-21.955-21.953z" style="fill:url(#folder_earth_b);fill-opacity:1;stroke-width:8.79091;stroke-linecap:round;stop-color:#000" transform="matrix(.45451 0 0 .45552 -1210.292 616.157)"/><path d="M2808.014-1282.426a21.9 21.9 0 0 0-15.465 6.343c-5.003 4.955-11.848 11.22-18.993 11.22h-62.35a21.906 21.906 0 0 0-21.954 21.952v122.887a21.906 21.906 0 0 0 21.954 21.953h184.91a21.906 21.906 0 0 0 21.954-21.953v-140.449a21.906 21.906 0 0 0-21.955-21.953z" style="fill:#a4caee;fill-opacity:1;stroke-width:8.79091;stroke-linecap:round;stop-color:#000" transform="matrix(.45451 0 0 .45552 -1210.292 616.157)"/></g><path fill="#222" d="M63.79 59.985c-8.759 0-15.79 7.25-15.79 16 0 8.836 7.164 16 16 16s16-7.164 16-16-7.164-16-16-16zm-3.938 4.922c.468.039.875.343 1.046.781a.834.834 0 0 1-.773.875.82.82 0 0 0-.82.82v2.367c0 .883-.711 1.602-1.594 1.602s-1.594.711-1.602 1.594c0 .875-.71 1.594-1.593 1.594a1.59 1.59 0 0 0-1.594 1.593c0 .883.71 1.594 1.594 1.594.882 0 1.601.711 1.593 1.602v5.71a11.97 11.97 0 0 1-4.03-8.953c0-2.984 1.124-5.859 3.132-8.054l.11-.102c.468-.5.976-.96 1.523-1.367l.078-.063a12 12 0 0 1 2.937-1.593zm9.062.867h1.188c.96.562 1.836 1.258 2.609 2.07a1 1 0 0 1-.211.024h-3.586a1.04 1.04 0 0 1-1.039-1.047c0-.586.46-1.047 1.04-1.047m-4.101 1.742c.64 0 1.156.516 1.156 1.164v1.266a1.16 1.16 0 0 1-1.156 1.164 1.17 1.17 0 0 1-1.165-1.164V68.68c0-.648.524-1.164 1.164-1.164m4.578 1.344h4.171a11.9 11.9 0 0 1 2.43 6.953c-.25.21-.554.328-.883.336l-2.257-.016a2.446 2.446 0 0 0-2.438 2.438v2.695a1.584 1.584 0 0 1-1.586 1.594 1.587 1.587 0 0 1-1.601-1.594v-1.742a1.186 1.186 0 0 0-.797-1.461 1.45 1.45 0 0 1-1.453-1.453v-2.477a1.703 1.703 0 0 1 1.57-1.836c.789 0 1.422-.632 1.43-1.421v-.602c0-.781.632-1.414 1.414-1.422zm0 0" style="fill:#438de6;fill-opacity:1;stroke-width:2"/></svg>