<svg xmlns="http://www.w3.org/2000/svg" xmlns:xlink="http://www.w3.org/1999/xlink" width="128" height="128" viewBox="0 0 128 128"><defs><linearGradient xlink:href="#folder_nextcloud_a" id="folder_nextcloud_b" x1="2689.252" x2="2918.07" y1="-1106.803" y2="-1106.803" gradientUnits="userSpaceOnUse"/><linearGradient id="folder_nextcloud_a"><stop offset="0" style="stop-color:#62a0ea;stop-opacity:1"/><stop offset=".058" style="stop-color:#afd4ff;stop-opacity:1"/><stop offset=".122" style="stop-color:#62a0ea;stop-opacity:1"/><stop offset=".873" style="stop-color:#62a0ea;stop-opacity:1"/><stop offset=".956" style="stop-color:#c0d5ea;stop-opacity:1"/><stop offset="1" style="stop-color:#62a0ea;stop-opacity:1"/></linearGradient></defs><g style="display:inline;stroke-width:1.26428"><path d="M2711.206-1326.332a21.906 21.906 0 0 0-21.954 21.953v188.867a21.906 21.906 0 0 0 21.954 21.953h184.91a21.906 21.906 0 0 0 21.954-21.953v-158.255a26.343 26.343 45 0 0-26.344-26.343H2790.46a14.28 14.28 31.639 0 1-12.758-7.86l-3.308-6.57a21.43 21.43 31.639 0 0-19.137-11.792z" style="fill:#438de6;fill-opacity:1;stroke-width:8.79091;stroke-linecap:round;stop-color:#000" transform="matrix(.45451 0 0 .45552 -1210.292 616.157)"/><path d="M2808.014-1273.645a21.9 21.9 0 0 0-15.465 6.343c-5.003 4.955-11.848 11.22-18.993 11.22h-62.35a21.906 21.906 0 0 0-21.954 21.952v118.618a21.906 21.906 0 0 0 21.954 21.953h184.91a21.906 21.906 0 0 0 21.954-21.953v-136.18a21.906 21.906 0 0 0-21.955-21.953z" style="fill:url(#folder_nextcloud_b);fill-opacity:1;stroke-width:8.79091;stroke-linecap:round;stop-color:#000" transform="matrix(.45451 0 0 .45552 -1210.292 616.157)"/><path d="M2808.014-1282.426a21.9 21.9 0 0 0-15.465 6.343c-5.003 4.955-11.848 11.22-18.993 11.22h-62.35a21.906 21.906 0 0 0-21.954 21.952v122.887a21.906 21.906 0 0 0 21.954 21.953h184.91a21.906 21.906 0 0 0 21.954-21.953v-140.449a21.906 21.906 0 0 0-21.955-21.953z" style="fill:#a4caee;fill-opacity:1;stroke-width:8.79091;stroke-linecap:round;stop-color:#000" transform="matrix(.45451 0 0 .45552 -1210.292 616.157)"/></g><path d="M64.04 67.4c-5.625 0-10.35 3.852-11.793 9.035-1.26-2.772-4.033-4.736-7.255-4.736-4.385 0-7.992 3.607-7.992 7.993s3.606 7.994 7.992 7.995c3.223-.001 5.994-1.967 7.254-4.739 1.443 5.183 6.168 9.036 11.795 9.036 5.595 0 10.296-3.81 11.769-8.949 1.28 2.721 4.01 4.65 7.195 4.651 4.388 0 7.995-3.607 7.995-7.995 0-4.387-3.607-7.994-7.994-7.993-3.185 0-5.917 1.93-7.197 4.651-1.473-5.139-6.173-8.95-11.767-8.95zm0 4.692a7.564 7.564 0 0 1 7.6 7.6 7.564 7.564 0 0 1-7.6 7.6 7.564 7.564 0 0 1-7.598-7.6c0-4.226 3.375-7.6 7.599-7.6zM44.992 76.39c1.851 0 3.3 1.45 3.301 3.301a3.267 3.267 0 0 1-3.3 3.303 3.266 3.266 0 0 1-3.3-3.303c0-1.85 1.449-3.3 3.3-3.3zm38.013 0a3.266 3.266 0 0 1 3.302 3.301 3.27 3.27 0 0 1-3.302 3.303 3.267 3.267 0 0 1-3.3-3.303c0-1.85 1.45-3.3 3.3-3.3" style="color:#000;text-indent:0;text-decoration:none;text-decoration-line:none;text-decoration-style:solid;text-decoration-color:#000;text-transform:none;white-space:normal;display:inline;isolation:auto;mix-blend-mode:normal;fill:#3f8ae5;fill-opacity:1;stroke-width:.682903"/></svg>