<svg xmlns="http://www.w3.org/2000/svg" xmlns:xlink="http://www.w3.org/1999/xlink" width="128" height="128" viewBox="0 0 128 128"><defs><linearGradient xlink:href="#folder_obsidian_a" id="folder_obsidian_b" x1="2689.252" x2="2918.07" y1="-1106.803" y2="-1106.803" gradientTransform="matrix(.45451 0 0 .45552 -1210.292 616.157)" gradientUnits="userSpaceOnUse"/><linearGradient id="folder_obsidian_a"><stop offset="0" style="stop-color:#62a0ea;stop-opacity:1"/><stop offset=".058" style="stop-color:#afd4ff;stop-opacity:1"/><stop offset=".122" style="stop-color:#62a0ea;stop-opacity:1"/><stop offset=".873" style="stop-color:#62a0ea;stop-opacity:1"/><stop offset=".956" style="stop-color:#c0d5ea;stop-opacity:1"/><stop offset="1" style="stop-color:#62a0ea;stop-opacity:1"/></linearGradient></defs><path d="M21.978 11.984c-5.527 0-9.978 4.46-9.978 10v86.033c0 5.54 4.45 10 9.978 10h84.043c5.528 0 9.979-4.46 9.979-10V35.929a11.973 12 0 0 0-11.973-12H58a6.492 6.507 0 0 1-5.799-3.581l-1.503-2.993A9.738 9.76 0 0 0 42 11.984Z" style="fill:#438de6;fill-opacity:1;stroke-width:4;stroke-linecap:round;stop-color:#000"/><path d="M65.979 35.984a9.94 9.94 0 0 0-7.03 2.89c-2.273 2.256-5.384 5.11-8.632 5.11H21.978c-5.527 0-9.978 4.46-9.978 10v54.033c0 5.54 4.45 10 9.978 10h84.043c5.528 0 9.979-4.46 9.979-10V45.984c0-5.54-4.45-10-9.979-10z" style="fill:url(#folder_obsidian_b);fill-opacity:1;stroke-width:4;stroke-linecap:round;stop-color:#000"/><path d="M65.979 31.984a9.94 9.94 0 0 0-7.03 2.89c-2.273 2.256-5.384 5.11-8.632 5.11H21.978c-5.527 0-9.978 4.46-9.978 10v55.978c0 5.54 4.45 10 9.978 10h84.043c5.528 0 9.979-4.46 9.979-10V41.984c0-5.54-4.45-10-9.979-10z" style="fill:#a4caee;fill-opacity:1;stroke-width:4;stroke-linecap:round;stop-color:#000"/><g style="fill:#438de6;fill-opacity:1"><path d="M38.88 41.151c-2.156.085-4.159 1.309-5.645 2.874-7.024 6.343-14.094 12.63-21.088 19.004-2.373 2.47-1.953 6.156-2.634 9.263-.382 2.618-.76 5.236-1.159 7.851-.138.907.385 2.029 1.152 2.531 6.959 4.555 12.92 10.985 15.736 18.875.308.864 1.247 1.421 2.148 1.25 2.444-.468 4.91-.816 7.392-.952.916-.05 1.413-.76 1.127-1.632-3.187-9.697-4.592-20.402-1.075-30.202 1.971-6.233 6.476-11.496 7.522-18.04.5-3.074-.258-6.228-1.256-9.1-.301-.867-1.306-1.758-2.22-1.722m9.683 7.955c-.179.012-.28.253-.272.706.12 6.076-2.9 11.665-5.702 16.9-3.22 5.942-4.914 12.784-3.981 19.542.558 5.004 1.947 9.873 3.683 14.59.278.756 1.164 1.454 1.955 1.611 8.228 1.637 15.239 7.256 19.806 14.175 1.215 1.447 2.26 3.89 3.27 5.444.437.674 1.28.577 1.72-.097 2.447-3.735 4.885-7.481 7.127-11.34.405-.697.967-1.9.913-2.7-.166-2.487-2.846-4.364-3.916-6.57-3.858-5.649-7.233-11.88-7.884-18.81-.717-4.18-.468-8.453-.945-12.64-.917-2.967-3.36-5.076-5.113-7.56-3.373-4.286-6.744-8.564-10.117-12.85-.218-.276-.405-.41-.544-.4M6.917 88.247c-.403.018-.772.267-.964.706-3.487 7.94-7.163 15.802-10.642 23.742-.957 2.797.182 5.923 2.382 7.793l16.383 16.868c.534.55 1.237.437 1.56-.259 3.93-8.457 6.826-17.778 5.677-27.179-.844-7.47-4.924-14.332-10.674-19.095a43 43 0 0 0-2.99-2.35 1.16 1.16 0 0 0-.732-.226m29.62 19.386c-2.693.053-5.376.39-8.02.894-.831.158-1.41.982-1.334 1.825.907 10.065-2.036 20.066-6.246 29.147-.356.767.03 1.448.874 1.514 5.798.455 11.663.573 17.295 2.162 4.68 1.148 9.217 2.818 13.897 3.949 4.706.704 9.024-3.518 9.289-8.098.407-2.759 1.037-5.492 1.967-8.123.283-.798-.053-1.846-.427-2.59-.487-.966-.855-2.274-1.43-3.113-3.444-6.784-8.542-13.322-15.904-16.033-3.173-1.187-6.59-1.592-9.961-1.534" style="fill:#438de6;fill-opacity:1;stroke-width:.264583" transform="translate(53.129 47.567)scale(.30174)"/></g></svg>