<svg xmlns="http://www.w3.org/2000/svg" xmlns:xlink="http://www.w3.org/1999/xlink" width="128" height="128" viewBox="0 0 128 128"><defs><linearGradient xlink:href="#folder_syncthing_a" id="folder_syncthing_b" x1="2689.252" x2="2918.07" y1="-1106.803" y2="-1106.803" gradientUnits="userSpaceOnUse"/><linearGradient id="folder_syncthing_a"><stop offset="0" style="stop-color:#62a0ea;stop-opacity:1"/><stop offset=".058" style="stop-color:#afd4ff;stop-opacity:1"/><stop offset=".122" style="stop-color:#62a0ea;stop-opacity:1"/><stop offset=".873" style="stop-color:#62a0ea;stop-opacity:1"/><stop offset=".956" style="stop-color:#c0d5ea;stop-opacity:1"/><stop offset="1" style="stop-color:#62a0ea;stop-opacity:1"/></linearGradient></defs><g style="display:inline;stroke-width:1.26428"><path d="M2711.206-1326.332a21.906 21.906 0 0 0-21.954 21.953v188.867a21.906 21.906 0 0 0 21.954 21.953h184.91a21.906 21.906 0 0 0 21.954-21.953v-158.255a26.343 26.343 45 0 0-26.344-26.343H2790.46a14.28 14.28 31.639 0 1-12.758-7.86l-3.308-6.57a21.43 21.43 31.639 0 0-19.137-11.792z" style="fill:#438de6;fill-opacity:1;stroke-width:8.79091;stroke-linecap:round;stop-color:#000" transform="matrix(.45451 0 0 .45552 -1210.292 616.157)"/><path d="M2808.014-1273.645a21.9 21.9 0 0 0-15.465 6.343c-5.003 4.955-11.848 11.22-18.993 11.22h-62.35a21.906 21.906 0 0 0-21.954 21.952v118.618a21.906 21.906 0 0 0 21.954 21.953h184.91a21.906 21.906 0 0 0 21.954-21.953v-136.18a21.906 21.906 0 0 0-21.955-21.953z" style="fill:url(#folder_syncthing_b);fill-opacity:1;stroke-width:8.79091;stroke-linecap:round;stop-color:#000" transform="matrix(.45451 0 0 .45552 -1210.292 616.157)"/><path d="M2808.014-1282.426a21.9 21.9 0 0 0-15.465 6.343c-5.003 4.955-11.848 11.22-18.993 11.22h-62.35a21.906 21.906 0 0 0-21.954 21.952v122.887a21.906 21.906 0 0 0 21.954 21.953h184.91a21.906 21.906 0 0 0 21.954-21.953v-140.449a21.906 21.906 0 0 0-21.955-21.953z" style="fill:#a4caee;fill-opacity:1;stroke-width:8.79091;stroke-linecap:round;stop-color:#000" transform="matrix(.45451 0 0 .45552 -1210.292 616.157)"/></g><path d="M64.514 59.985c-8.817 0-16 7.181-16 15.998 0 .177.02.35.025.525a3.6 3.6 0 0 0-.92 1.014l-.002.002-.002.004c-1.03 1.772-.454 4.064 1.293 5.103l.004.004.004.002a3.7 3.7 0 0 0 1.342.457c2.63 5.244 8.004 8.89 14.256 8.89 2.655 0 5.124-.715 7.332-1.866a3.8 3.8 0 0 0 1.402.43l.008.001h.008a3.78 3.78 0 0 0 4.058-3.392v-.016a3.7 3.7 0 0 0-.172-1.463c2.078-2.7 3.364-6.036 3.364-9.695 0-1.33-.212-2.6-.52-3.836.298-.348.547-.747.703-1.205a3.74 3.74 0 0 0-2.326-4.734 3.7 3.7 0 0 0-1.441-.186c-2.936-3.65-7.383-6.037-12.416-6.037m0 3.57c3.813 0 7.17 1.737 9.447 4.422-.105.19-.254.344-.326.557-.218.64-.194 1.284-.07 1.906l-4.88 4.053c-1.07-.406-2.287-.377-3.306.289-.64.398-1.047.99-1.332 1.635l-10.176.939a3.7 3.7 0 0 0-1.129-1.117l-.01-.006-.01-.006c-.2-.117-.422-.143-.634-.219l-.004-.025a12.4 12.4 0 0 1 12.43-12.428m11.322 9.643c.046.018.077.056.125.072.23.078.461.058.693.09.181.847.287 1.72.287 2.623 0 2.737-.9 5.242-2.388 7.29-.21-.059-.398-.168-.623-.19l-.01-.002h-.008c-.249-.02-.475.056-.715.083l-2.517-3.628c.359-.734.516-1.547.355-2.352zM64.299 79.98c.787 1.178 2.136 1.735 3.459 1.61l2.48 3.576c-.2.404-.346.843-.384 1.322v.002c-.019.222.053.425.074.64-1.641.796-3.461 1.282-5.414 1.282-4.764 0-8.837-2.683-10.924-6.598.14-.162.316-.283.43-.473.08-.134.087-.285.148-.425z" style="color:#000;fill:#438de6;stroke:none;stroke-width:1.62025;stroke-miterlimit:10;-inkscape-stroke:none"/></svg>