<?xml version="1.0" encoding="UTF-8" standalone="no"?>
<svg
   height="128"
   viewBox="0 0 128 128"
   width="128"
   version="1.1"
   id="folder_temp_svg5248"
   xmlns:xlink="http://www.w3.org/1999/xlink"
   xmlns="http://www.w3.org/2000/svg"
   xmlns:svg="http://www.w3.org/2000/svg">
  <defs
     id="folder_temp_defs5252">
    <linearGradient
       xlink:href="#folder_temp_linearGradient2023"
       id="folder_temp_linearGradient2025"
       x1="2689.252"
       y1="-1106.803"
       x2="2918.0698"
       y2="-1106.803"
       gradientUnits="userSpaceOnUse" />
    <linearGradient
       id="folder_temp_linearGradient2023">
      <stop
         style="stop-color:#62a0ea;stop-opacity:1;"
         offset="0"
         id="folder_temp_stop2019" />
      <stop
         style="stop-color:#afd4ff;stop-opacity:1;"
         offset="0.05769911"
         id="folder_temp_stop2795" />
      <stop
         style="stop-color:#62a0ea;stop-opacity:1;"
         offset="0.12220427"
         id="folder_temp_stop2797" />
      <stop
         style="stop-color:#62a0ea;stop-opacity:1;"
         offset="0.87330586"
         id="folder_temp_stop2793" />
      <stop
         style="stop-color:#c0d5ea;stop-opacity:1;"
         offset="0.95599729"
         id="folder_temp_stop2791" />
      <stop
         style="stop-color:#62a0ea;stop-opacity:1;"
         offset="1"
         id="folder_temp_stop2021" />
    </linearGradient>
    <clipPath
       id="folder_temp_s">
      <path
         d="M 0,0 H 1600 V 1200 H 0 Z"
         id="folder_temp_path18" />
    </clipPath>
    <mask
       id="folder_temp_r">
      <g
         filter="url(#folder_temp_a)"
         id="folder_temp_g17"
         style="filter:url(#folder_temp_a-2)">
        <path
           d="M 0,0 H 16 V 16 H 0 Z"
           fill-opacity="0.5"
           id="folder_temp_path17" />
      </g>
    </mask>
    <filter
       id="folder_temp_a-2"
       height="1"
       width="1"
       x="0"
       y="0">
      <feColorMatrix
         in="SourceGraphic"
         type="matrix"
         values="0 0 0 0 1 0 0 0 0 1 0 0 0 0 1 0 0 0 1 0"
         id="folder_temp_feColorMatrix1" />
    </filter>
    <clipPath
       id="folder_temp_q">
      <path
         d="M 0,0 H 1600 V 1200 H 0 Z"
         id="folder_temp_path16" />
    </clipPath>
    <mask
       id="folder_temp_p">
      <g
         filter="url(#folder_temp_a)"
         id="folder_temp_g15"
         style="filter:url(#folder_temp_a-2)">
        <path
           d="M 0,0 H 16 V 16 H 0 Z"
           fill-opacity="0.3"
           id="folder_temp_path15" />
      </g>
    </mask>
    <clipPath
       id="folder_temp_o">
      <path
         d="M 0,0 H 1600 V 1200 H 0 Z"
         id="folder_temp_path14" />
    </clipPath>
    <mask
       id="folder_temp_n">
      <g
         filter="url(#folder_temp_a)"
         id="folder_temp_g13"
         style="filter:url(#folder_temp_a-2)">
        <path
           d="M 0,0 H 16 V 16 H 0 Z"
           fill-opacity="0.05"
           id="folder_temp_path13" />
      </g>
    </mask>
    <clipPath
       id="folder_temp_m">
      <path
         d="M 0,0 H 1600 V 1200 H 0 Z"
         id="folder_temp_path12" />
    </clipPath>
    <mask
       id="folder_temp_l">
      <g
         filter="url(#folder_temp_a)"
         id="folder_temp_g11"
         style="filter:url(#folder_temp_a-2)">
        <path
           d="M 0,0 H 16 V 16 H 0 Z"
           fill-opacity="0.05"
           id="folder_temp_path11" />
      </g>
    </mask>
    <clipPath
       id="folder_temp_k">
      <path
         d="M 0,0 H 1600 V 1200 H 0 Z"
         id="folder_temp_path10" />
    </clipPath>
    <mask
       id="folder_temp_j">
      <g
         filter="url(#folder_temp_a)"
         id="folder_temp_g9"
         style="filter:url(#folder_temp_a-2)">
        <path
           d="M 0,0 H 16 V 16 H 0 Z"
           fill-opacity="0.05"
           id="folder_temp_path9" />
      </g>
    </mask>
    <clipPath
       id="folder_temp_i">
      <path
         d="M 0,0 H 1600 V 1200 H 0 Z"
         id="folder_temp_path8" />
    </clipPath>
    <mask
       id="folder_temp_h">
      <g
         filter="url(#folder_temp_a)"
         id="folder_temp_g7"
         style="filter:url(#folder_temp_a-2)">
        <path
           d="M 0,0 H 16 V 16 H 0 Z"
           fill-opacity="0.05"
           id="folder_temp_path7" />
      </g>
    </mask>
    <clipPath
       id="folder_temp_g">
      <path
         d="M 0,0 H 1600 V 1200 H 0 Z"
         id="folder_temp_path6" />
    </clipPath>
    <mask
       id="folder_temp_f">
      <g
         filter="url(#folder_temp_a)"
         id="folder_temp_g5"
         style="filter:url(#folder_temp_a-2)">
        <path
           d="M 0,0 H 16 V 16 H 0 Z"
           fill-opacity="0.05"
           id="folder_temp_path5" />
      </g>
    </mask>
    <clipPath
       id="folder_temp_e">
      <path
         d="M 0,0 H 1600 V 1200 H 0 Z"
         id="folder_temp_path4" />
    </clipPath>
    <mask
       id="folder_temp_d">
      <g
         filter="url(#folder_temp_a)"
         id="folder_temp_g3"
         style="filter:url(#folder_temp_a-2)">
        <path
           d="M 0,0 H 16 V 16 H 0 Z"
           fill-opacity="0.05"
           id="folder_temp_path3" />
      </g>
    </mask>
    <clipPath
       id="folder_temp_c">
      <path
         d="M 0,0 H 1600 V 1200 H 0 Z"
         id="folder_temp_path2-7" />
    </clipPath>
    <mask
       id="folder_temp_b-0">
      <g
         filter="url(#folder_temp_a)"
         id="folder_temp_g1"
         style="filter:url(#folder_temp_a-2)">
        <path
           d="M 0,0 H 16 V 16 H 0 Z"
           fill-opacity="0.3"
           id="folder_temp_path1" />
      </g>
    </mask>
  </defs>
  <linearGradient
     id="folder_temp_a"
     gradientUnits="userSpaceOnUse"
     x1="11.999989"
     x2="115.99999"
     y1="64"
     y2="64">
    <stop
       offset="0"
       stop-color="#3d3846"
       id="folder_temp_stop5214" />
    <stop
       offset="0.05"
       stop-color="#77767b"
       id="folder_temp_stop5216" />
    <stop
       offset="0.1"
       stop-color="#5e5c64"
       id="folder_temp_stop5218" />
    <stop
       offset="0.899999"
       stop-color="#504e56"
       id="folder_temp_stop5220" />
    <stop
       offset="0.95"
       stop-color="#77767b"
       id="folder_temp_stop5222" />
    <stop
       offset="1"
       stop-color="#3d3846"
       id="folder_temp_stop5224" />
  </linearGradient>
  <linearGradient
     id="folder_temp_b"
     gradientUnits="userSpaceOnUse"
     x1="12"
     x2="112.04102"
     y1="60"
     y2="80.988281">
    <stop
       offset="0"
       stop-color="#77767b"
       id="folder_temp_stop5227" />
    <stop
       offset="0.384443"
       stop-color="#9a9996"
       id="folder_temp_stop5229" />
    <stop
       offset="0.720567"
       stop-color="#77767b"
       id="folder_temp_stop5231" />
    <stop
       offset="1"
       stop-color="#68666f"
       id="folder_temp_stop5233" />
  </linearGradient>
  <g
     id="folder_temp_g760"
     style="display:inline;stroke-width:1.26428;enable-background:new"
     transform="matrix(0.45451006,0,0,0.45552152,-1210.2921,616.15659)">
    <path
       id="folder_temp_rect1135"
       style="fill:#438de6;fill-opacity:1;stroke-width:8.79091;stroke-linecap:round;stop-color:#000000"
       d="m 2711.2064,-1326.3316 c -12.1618,0 -21.9544,9.791 -21.9544,21.9528 v 188.867 c 0,12.1618 9.7926,21.9528 21.9544,21.9528 h 184.9089 c 12.1619,0 21.9545,-9.791 21.9545,-21.9528 v -158.2547 a 26.343462,26.343462 45 0 0 -26.3435,-26.3435 h -101.2664 a 14.283764,14.283764 31.638659 0 1 -12.7581,-7.8607 l -3.3076,-6.5699 a 21.425501,21.425501 31.638659 0 0 -19.1371,-11.791 z" />
    <path
       id="folder_temp_path1953"
       style="fill:url(#folder_temp_linearGradient2025);fill-opacity:1;stroke-width:8.79091;stroke-linecap:round;stop-color:#000000"
       d="m 2808.014,-1273.6447 c -6.0429,0 -11.5016,2.4179 -15.4646,6.3426 -5.0031,4.9549 -11.8483,11.2197 -18.9936,11.2197 h -62.3494 c -12.1618,0 -21.9544,9.791 -21.9544,21.9528 v 118.6179 c 0,12.1618 9.7926,21.9528 21.9544,21.9528 h 184.9089 c 12.1619,0 21.9545,-9.791 21.9545,-21.9528 v -105.4461 -13.1718 -17.5623 c 0,-12.1618 -9.7926,-21.9528 -21.9545,-21.9528 z" />
    <path
       id="folder_temp_rect1586"
       style="fill:#a4caee;fill-opacity:1;stroke-width:8.79091;stroke-linecap:round;stop-color:#000000"
       d="m 2808.014,-1282.4259 c -6.0429,0 -11.5016,2.4179 -15.4646,6.3426 -5.0031,4.9549 -11.8483,11.2197 -18.9936,11.2197 h -62.3494 c -12.1618,0 -21.9544,9.791 -21.9544,21.9528 v 122.8867 c 0,12.1618 9.7926,21.9528 21.9544,21.9528 h 184.9089 c 12.1619,0 21.9545,-9.791 21.9545,-21.9528 v -109.7149 -13.1718 -17.5623 c 0,-12.1618 -9.7926,-21.9528 -21.9545,-21.9528 z" />
  </g>
  <g
     clip-path="url(#folder_temp_c)"
     mask="url(#folder_temp_b-0)"
     transform="translate(-384,-268)"
     id="folder_temp_g19">
    <path
       d="m 562.46094,212.05859 h 10.44922 c -1.1836,0.49219 -1.29688,2.46094 0,3 h -10.44922 z m 0,0"
       fill="#2e3436"
       id="folder_temp_path19" />
  </g>
  <g
     clip-path="url(#folder_temp_e)"
     mask="url(#folder_temp_d)"
     transform="translate(-384,-268)"
     id="folder_temp_g22">
    <path
       d="m 16,748 h 1 v 1 h -1 z m 0,0"
       fill="#2e3436"
       fill-rule="evenodd"
       id="folder_temp_path22" />
  </g>
  <g
     clip-path="url(#folder_temp_g)"
     mask="url(#folder_temp_f)"
     transform="translate(-384,-268)"
     id="folder_temp_g23">
    <path
       d="m 17,747 h 1 v 1 h -1 z m 0,0"
       fill="#2e3436"
       fill-rule="evenodd"
       id="folder_temp_path23" />
  </g>
  <g
     clip-path="url(#folder_temp_i)"
     mask="url(#folder_temp_h)"
     transform="translate(-384,-268)"
     id="folder_temp_g24">
    <path
       d="m 18,750 h 1 v 1 h -1 z m 0,0"
       fill="#2e3436"
       fill-rule="evenodd"
       id="folder_temp_path24" />
  </g>
  <g
     clip-path="url(#folder_temp_k)"
     mask="url(#folder_temp_j)"
     transform="translate(-384,-268)"
     id="folder_temp_g25">
    <path
       d="m 16,750 h 1 v 1 h -1 z m 0,0"
       fill="#2e3436"
       fill-rule="evenodd"
       id="folder_temp_path25" />
  </g>
  <g
     clip-path="url(#folder_temp_m)"
     mask="url(#folder_temp_l)"
     transform="translate(-384,-268)"
     id="folder_temp_g26">
    <path
       d="m 17,751 h 1 v 1 h -1 z m 0,0"
       fill="#2e3436"
       fill-rule="evenodd"
       id="folder_temp_path26" />
  </g>
  <g
     clip-path="url(#folder_temp_o)"
     mask="url(#folder_temp_n)"
     transform="translate(-384,-268)"
     id="folder_temp_g27">
    <path
       d="m 19,751 h 1 v 1 h -1 z m 0,0"
       fill="#2e3436"
       fill-rule="evenodd"
       id="folder_temp_path27" />
  </g>
  <g
     clip-path="url(#folder_temp_q)"
     mask="url(#folder_temp_p)"
     transform="translate(-384,-268)"
     id="folder_temp_g28">
    <path
       d="m 136,776 v 7 h 7 v -7 z m 0,0"
       fill="#2e3436"
       id="folder_temp_path28" />
  </g>
  <g
     clip-path="url(#folder_temp_s)"
     mask="url(#folder_temp_r)"
     transform="translate(-384,-268)"
     id="folder_temp_g29">
    <path
       d="m 219,758 h 3 v 12 h -3 z m 0,0"
       fill="#2e3436"
       id="folder_temp_path29" />
  </g>
  <path
     d="m 57.999984,59.983966 c -1.9375,0 -4,2.101562 -4,4 v 5.976562 c 0,0.859374 0.4453,1.351562 1.10936,2.015626 l 4.04688,4.007812 -4.01562,3.984374 c -0.73438,0.726562 -1.14062,1.375 -1.14062,2 v 6.015622 c 0,2.02344 1.97656,4 4,4 h 12 c 2.01562,0 4,-2.02343 4,-4.00781 V 81.96834 c 0,-0.625 -0.44532,-1.257812 -1.14064,-1.953124 l -4.03124,-4.03125 3.97656,-3.976564 c 0.52344,-0.523436 1.17188,-1.375 1.19532,-2.031248 v -5.992188 c 0,-2.007812 -2.01564,-4 -4,-4 z m 12,10 h -12 v -6 h 12 m -7.1797,14 h 2.35156 l 4.82814,4.828126 v 3.17187 l -6,-3.999996 -6,3.999996 v -3.22656 z m 0,0"
     fill="#222222"
     id="folder_temp_path1-2"
     style="fill:#438de6;fill-opacity:1;stroke-width:2" />
</svg>
