<svg xmlns="http://www.w3.org/2000/svg" xmlns:xlink="http://www.w3.org/1999/xlink" width="128" height="128" viewBox="0 0 128 128"><defs><linearGradient xlink:href="#folder_rust_a" id="folder_rust_b" x1="2689.252" x2="2918.07" y1="-1106.803" y2="-1106.803" gradientUnits="userSpaceOnUse"/><linearGradient id="folder_rust_a"><stop offset="0" style="stop-color:#62a0ea;stop-opacity:1"/><stop offset=".058" style="stop-color:#afd4ff;stop-opacity:1"/><stop offset=".122" style="stop-color:#62a0ea;stop-opacity:1"/><stop offset=".873" style="stop-color:#62a0ea;stop-opacity:1"/><stop offset=".956" style="stop-color:#c0d5ea;stop-opacity:1"/><stop offset="1" style="stop-color:#62a0ea;stop-opacity:1"/></linearGradient></defs><g style="display:inline;stroke-width:1.26428"><path d="M2711.206-1326.332a21.906 21.906 0 0 0-21.954 21.953v188.867a21.906 21.906 0 0 0 21.954 21.953h184.91a21.906 21.906 0 0 0 21.954-21.953v-158.255a26.343 26.343 45 0 0-26.344-26.343H2790.46a14.28 14.28 31.639 0 1-12.758-7.86l-3.308-6.57a21.43 21.43 31.639 0 0-19.137-11.792z" style="fill:#438de6;fill-opacity:1;stroke-width:8.79091;stroke-linecap:round;stop-color:#000" transform="matrix(.45451 0 0 .45552 -1210.292 616.157)"/><path d="M2808.014-1273.645a21.9 21.9 0 0 0-15.465 6.343c-5.003 4.955-11.848 11.22-18.993 11.22h-62.35a21.906 21.906 0 0 0-21.954 21.952v118.618a21.906 21.906 0 0 0 21.954 21.953h184.91a21.906 21.906 0 0 0 21.954-21.953v-136.18a21.906 21.906 0 0 0-21.955-21.953z" style="fill:url(#folder_rust_b);fill-opacity:1;stroke-width:8.79091;stroke-linecap:round;stop-color:#000" transform="matrix(.45451 0 0 .45552 -1210.292 616.157)"/><path d="M2808.014-1282.426a21.9 21.9 0 0 0-15.465 6.343c-5.003 4.955-11.848 11.22-18.993 11.22h-62.35a21.906 21.906 0 0 0-21.954 21.952v122.887a21.906 21.906 0 0 0 21.954 21.953h184.91a21.906 21.906 0 0 0 21.954-21.953v-140.449a21.906 21.906 0 0 0-21.955-21.953z" style="fill:#a4caee;fill-opacity:1;stroke-width:8.79091;stroke-linecap:round;stop-color:#000" transform="matrix(.45451 0 0 .45552 -1210.292 616.157)"/></g><path d="M52.55 69.07a.914.914 0 0 0-.933.628l-1.319 4.058a.914.914 0 0 0 1.285 1.097l2.688-1.37a.914.914 0 0 0 .4-1.23l-1.37-2.687a.91.91 0 0 0-.752-.497m-.061 2.218a1 1 0 0 1 .2.04.914.914 0 0 1 .588 1.152.914.914 0 0 1-1.153.587.914.914 0 0 1-.587-1.151.914.914 0 0 1 .952-.628m5.229 12.392a1 1 0 0 0-.13.012l-2.98.472a.914.914 0 0 0-.394 1.642l3.451 2.508a.914.914 0 0 0 1.44-.883l-.471-2.98a.914.914 0 0 0-.916-.77m-.924 1.234a.9.9 0 0 1 .578.173.914.914 0 0 1 .203 1.278.914.914 0 0 1-1.277.202.914.914 0 0 1-.202-1.277.91.91 0 0 1 .698-.376m13.489-1.234a.914.914 0 0 0-.916.772l-.472 2.98a.914.914 0 0 0 1.44.882l3.452-2.508a.914.914 0 0 0-.394-1.642l-2.98-.472a1 1 0 0 0-.13-.012m.924 1.234a.91.91 0 0 1 .698.376.914.914 0 0 1-.202 1.277.914.914 0 0 1-1.277-.202.914.914 0 0 1 .202-1.278.9.9 0 0 1 .579-.173m4.245-15.845a.91.91 0 0 0-.752.497l-1.37 2.688a.914.914 0 0 0 .4 1.23l2.688 1.369a.914.914 0 0 0 1.284-1.097l-1.318-4.058a.91.91 0 0 0-.798-.628 1 1 0 0 0-.134 0m.06 2.219a.914.914 0 0 1 .952.628.914.914 0 0 1-.587 1.151.914.914 0 0 1-1.153-.587.914.914 0 0 1 .587-1.151 1 1 0 0 1 .2-.041M61.867 62.25a.914.914 0 0 0-.646 1.56l2.133 2.134a.914.914 0 0 0 1.293 0l2.133-2.133a.914.914 0 0 0-.646-1.561zm2.133.61a.914.914 0 0 1 .914.914.914.914 0 0 1-.914.914.914.914 0 0 1-.914-.914.914.914 0 0 1 .914-.915m0-1.353c-7.979 0-14.476 6.497-14.476 14.476S56.021 90.46 64 90.46c7.978 0 14.476-6.497 14.476-14.476S71.978 61.508 64 61.508m0 1.348a.914.914 0 0 1 .914.914.9.9 0 0 1-.169.504 11.71 11.71 0 0 1 10.152 7.342.9.9 0 0 1 .414-.292.914.914 0 0 1 1.152.587.914.914 0 0 1-.587 1.152.9.9 0 0 1-.505.007c.236.931.362 1.908.362 2.914 0 3.623-1.628 6.854-4.196 9.003a.9.9 0 0 1 .368.298.914.914 0 0 1-.202 1.277.914.914 0 0 1-1.277-.202.9.9 0 0 1-.169-.44A11.7 11.7 0 0 1 64 87.716c-2.304 0-4.45-.66-6.26-1.8a.9.9 0 0 1-.166.443.914.914 0 0 1-1.276.202.914.914 0 0 1-.203-1.277.9.9 0 0 1 .368-.298 11.7 11.7 0 0 1-4.196-9.003c0-1.003.125-1.976.36-2.904a.9.9 0 0 1-.503-.017.914.914 0 0 1-.587-1.152.914.914 0 0 1 1.152-.587.9.9 0 0 1 .42.284 11.71 11.71 0 0 1 10.146-7.334.9.9 0 0 1-.17-.504.914.914 0 0 1 .915-.914m13.273 9.15a.46.46 0 0 0-.15.436l.356 1.793a.457.457 0 0 0 .756.25l1.316-1.194a.457.457 0 0 0-.153-.77l-1.673-.6a.46.46 0 0 0-.452.085m.904 1.05.195.07-.154.138zm-.25 1.09 1.317-1.194-1.673-.6zm-1.685-4.653a.46.46 0 0 0-.063.456l.7 1.69a.457.457 0 0 0 .79.097l1.058-1.427a.457.457 0 0 0-.3-.725l-1.758-.262a.46.46 0 0 0-.427.171m1.091.853.205.03-.123.167zm-.032 1.118 1.058-1.428-1.757-.261zm-2.56-4.234a.46.46 0 0 0 .027.46l1.016 1.52a.457.457 0 0 0 .793-.059l.76-1.606a.457.457 0 0 0-.436-.653l-1.775.087a.46.46 0 0 0-.386.25m1.236.623.207-.01-.089.187zm.187 1.103.76-1.607-1.776.086zm-3.338-3.653a.46.46 0 0 0 .117.445l1.293 1.293a.457.457 0 0 0 .767-.212l.43-1.724a.457.457 0 0 0-.554-.555l-1.724.431a.46.46 0 0 0-.329.322m1.335.37.2-.05-.05.2zm.398 1.045.431-1.724-1.724.43zm-3.986-2.932a.46.46 0 0 0 .201.414l1.52 1.016a.457.457 0 0 0 .711-.358l.087-1.775a.457.457 0 0 0-.653-.436l-1.606.76a.46.46 0 0 0-.26.379m1.38.103.188-.09-.01.208zm.596.947.086-1.775-1.607.759zm-4.482-2.098a.46.46 0 0 0 .278.367l1.69.7a.457.457 0 0 0 .627-.49l-.262-1.758a.457.457 0 0 0-.725-.3l-1.427 1.058a.46.46 0 0 0-.181.423m1.374-.169.167-.123.03.205zm.768.813-.261-1.757-1.428 1.057zm-4.804-1.18a.46.46 0 0 0 .345.306l1.793.356a.457.457 0 0 0 .52-.602l-.6-1.673a.457.457 0 0 0-.769-.153L65.5 61.749a.46.46 0 0 0-.095.45m1.316-.434.139-.153.07.195zm.912.648-.6-1.673-1.194 1.316zm-4.944-.223a.46.46 0 0 0 .398.232h1.828a.457.457 0 0 0 .392-.692l-.914-1.524a.457.457 0 0 0-.784 0l-.915 1.524a.46.46 0 0 0-.005.46m1.205-.682L64 61.33l.107.178zm1.021.457L64 60.441l-.914 1.524zm-4.892.746a.46.46 0 0 0 .436.15l1.793-.356a.457.457 0 0 0 .25-.756l-1.194-1.316a.457.457 0 0 0-.77.153l-.6 1.673a.46.46 0 0 0 .085.452m1.05-.904.07-.195.138.153zm1.09.25-1.194-1.317-.6 1.673zm-4.653 1.685a.46.46 0 0 0 .456.063l1.69-.7a.457.457 0 0 0 .097-.79l-1.427-1.058a.457.457 0 0 0-.725.3l-.262 1.758a.46.46 0 0 0 .171.427m.853-1.091.03-.205.167.123zm1.118.031-1.428-1.057-.261 1.757zm-4.234 2.562a.46.46 0 0 0 .46-.028l1.52-1.016a.457.457 0 0 0-.059-.794l-1.607-.759a.457.457 0 0 0-.652.436l.087 1.775a.46.46 0 0 0 .25.386m.623-1.237-.01-.207.187.088zm1.103-.187-1.607-.76.086 1.776zm-3.653 3.338a.46.46 0 0 0 .445-.117l1.293-1.293a.457.457 0 0 0-.212-.767l-1.724-.43a.457.457 0 0 0-.555.554l.431 1.724a.46.46 0 0 0 .322.329m.37-1.335-.05-.2.2.05zm1.045-.398-1.724-.431.43 1.724zm-2.932 3.986a.46.46 0 0 0 .414-.201l1.016-1.52a.457.457 0 0 0-.358-.711l-1.775-.087a.457.457 0 0 0-.436.653l.76 1.606a.46.46 0 0 0 .379.26m.103-1.38-.09-.188.208.01zm.947-.596-1.775-.086.759 1.607zm-2.098 4.482a.46.46 0 0 0 .367-.278l.7-1.69a.457.457 0 0 0-.49-.627l-1.758.262a.457.457 0 0 0-.3.725l1.058 1.427a.46.46 0 0 0 .423.181m-.169-1.374-.123-.167.205-.03zm.813-.768-1.757.261 1.057 1.428zm-1.183 4.805a.46.46 0 0 0 .306-.345l.356-1.793a.457.457 0 0 0-.602-.52l-1.673.6a.457.457 0 0 0-.153.769l1.316 1.194a.46.46 0 0 0 .45.095m-.434-1.316-.153-.139.195-.07zm.648-.912-1.673.6 1.316 1.194zm-.223 4.944a.46.46 0 0 0 .232-.398V75.07a.457.457 0 0 0-.692-.393l-1.524.915a.457.457 0 0 0 0 .784l1.524.914a.46.46 0 0 0 .46.006m-.682-1.205-.178-.107.178-.107zm.457-1.021-1.524.914 1.524.914zm.746 4.892a.46.46 0 0 0 .15-.436l-.356-1.793a.457.457 0 0 0-.756-.25l-1.316 1.194a.457.457 0 0 0 .153.77l1.673.6a.46.46 0 0 0 .452-.085m-.904-1.05-.195-.07.153-.138zm.25-1.09-1.317 1.194 1.673.6zm1.685 4.653a.46.46 0 0 0 .063-.457l-.7-1.689a.457.457 0 0 0-.79-.097l-1.058 1.427a.457.457 0 0 0 .3.725l1.758.262a.46.46 0 0 0 .427-.171m-1.091-.853-.205-.03.123-.167zm.031-1.118-1.057 1.428 1.757.261zm2.562 4.234a.46.46 0 0 0-.028-.46l-1.016-1.52a.457.457 0 0 0-.794.059l-.759 1.606a.457.457 0 0 0 .436.653l1.775-.087a.46.46 0 0 0 .386-.25m-1.237-.623-.207.01.089-.187zm-.187-1.103-.76 1.607 1.776-.086zm3.338 3.653a.46.46 0 0 0-.117-.445l-1.293-1.293a.457.457 0 0 0-.767.212l-.43 1.724a.457.457 0 0 0 .554.555l1.724-.431a.46.46 0 0 0 .329-.322m-1.335-.37-.2.05.05-.2zm-.398-1.045-.431 1.724 1.724-.43zm3.986 2.932a.46.46 0 0 0-.201-.414l-1.52-1.016a.457.457 0 0 0-.711.358l-.087 1.775a.457.457 0 0 0 .653.436l1.606-.76a.46.46 0 0 0 .26-.38m-1.38-.103-.188.09.01-.208zm-.596-.947-.086 1.775 1.607-.759zm4.482 2.098a.46.46 0 0 0-.278-.367l-1.69-.7a.457.457 0 0 0-.627.49l.262 1.758a.457.457 0 0 0 .724.3l1.428-1.058a.46.46 0 0 0 .181-.423m-1.374.169-.167.123-.03-.205zm-.768-.813.261 1.757 1.428-1.058zm4.805 1.183a.46.46 0 0 0-.345-.306l-1.793-.356a.457.457 0 0 0-.52.602l.6 1.673a.457.457 0 0 0 .769.153l1.194-1.316a.46.46 0 0 0 .095-.45m-1.316.434-.139.153-.07-.195zm-.912-.648.6 1.673 1.194-1.316zm4.944.223a.46.46 0 0 0-.398-.232h-1.828a.457.457 0 0 0-.393.692l.915 1.524a.457.457 0 0 0 .784 0l.915-1.524a.46.46 0 0 0 .005-.46m-1.205.682-.107.178-.107-.178zm-1.021-.457L64 91.527l.914-1.524zm4.892-.746a.46.46 0 0 0-.436-.15l-1.793.356a.457.457 0 0 0-.25.756l1.194 1.316a.457.457 0 0 0 .77-.153l.6-1.673a.46.46 0 0 0-.085-.452m-1.05.904-.07.195-.138-.153zm-1.09-.25 1.194 1.317.6-1.673zm4.653-1.685a.46.46 0 0 0-.457-.063l-1.689.7a.457.457 0 0 0-.097.79l1.427 1.058a.457.457 0 0 0 .725-.3l.262-1.758a.46.46 0 0 0-.171-.427m-.853 1.091-.03.205-.167-.123zm-1.118-.031 1.428 1.057.261-1.757zm4.234-2.562a.46.46 0 0 0-.46.028l-1.52 1.016a.457.457 0 0 0 .059.794l1.606.759a.457.457 0 0 0 .653-.436l-.087-1.775a.46.46 0 0 0-.25-.386m-.623 1.237.01.207-.187-.089zm-1.103.187 1.607.76-.086-1.776zm3.653-3.338a.46.46 0 0 0-.445.117l-1.293 1.293a.457.457 0 0 0 .212.767l1.724.43a.457.457 0 0 0 .555-.554l-.431-1.724a.46.46 0 0 0-.322-.329m-.37 1.335.05.2-.2-.05zm-1.045.398 1.724.431-.43-1.724zm2.932-3.986a.46.46 0 0 0-.414.201l-1.016 1.52a.457.457 0 0 0 .358.711l1.775.087a.457.457 0 0 0 .436-.653l-.76-1.606a.46.46 0 0 0-.38-.26m-.103 1.38.09.188-.208-.01zm-.947.596 1.775.086-.759-1.607zm2.098-4.482a.46.46 0 0 0-.367.278l-.7 1.69a.457.457 0 0 0 .49.627l1.758-.262a.457.457 0 0 0 .3-.725l-1.058-1.427a.46.46 0 0 0-.423-.181m.169 1.374.123.167-.205.03zm-.813.768 1.757-.261-1.057-1.428zm1.183-4.805a.46.46 0 0 0-.306.345l-.356 1.793a.457.457 0 0 0 .602.52l1.673-.6a.457.457 0 0 0 .153-.769l-1.316-1.194a.46.46 0 0 0-.45-.095m.434 1.316.153.139-.195.07zm-.648.912 1.673-.6-1.316-1.194zm.223-4.944a.46.46 0 0 0-.232.398v1.828a.457.457 0 0 0 .692.392l1.524-.914a.457.457 0 0 0 0-.784l-1.524-.915a.46.46 0 0 0-.46-.005m.682 1.205.178.107-.178.107zm1.067.107-1.524-.914v1.828zm-26.21-7.924a.15.15 0 0 0-.152.153v3.352a.15.15 0 0 0 .152.152h2.896v7.62h-4.42a.15.15 0 0 0-.152.152v3.352a.15.15 0 0 0 .153.152H64a.15.15 0 0 0 .152-.152v-3.352a.15.15 0 0 0-.152-.153h-2.59v-2.133h2.895c.794 0 1.244.323 1.566.834s.495 1.22.647 1.94c.152.722.283 1.454.565 2.027.281.572.749.99 1.488.99h7.62a.15.15 0 0 0 .152-.153v-5.79a.15.15 0 0 0-.153-.153h-1.828a.15.15 0 0 0-.153.153v.61c0 .58-.16.977-.394 1.235a1.23 1.23 0 0 1-.87.402c-.655.035-1.346-.38-1.482-1.058-.158-.793-.55-1.496-.942-2.006a4 4 0 0 0-.565-.609c-.062-.053-.119-.09-.175-.127 1.01-.597 1.686-1.313 2.003-2.085.344-.837.313-1.718.016-2.511-.595-1.586-2.247-2.842-4.143-2.842zm8.077 3.657h3.809c.584 0 1.008.147 1.28.351.273.204.396.462.396.716s-.123.512-.396.716c-.272.204-.696.35-1.28.35h-3.81z" style="color:#000;fill:#438de6;fill-opacity:1;stroke-width:.304755;stroke-linejoin:round;-inkscape-stroke:none"/></svg>