<svg xmlns="http://www.w3.org/2000/svg" xmlns:xlink="http://www.w3.org/1999/xlink" width="128" height="128" viewBox="0 0 128 128"><defs><linearGradient xlink:href="#folder_plugdata_a" id="folder_plugdata_b" x1="2689.252" x2="2918.07" y1="-1106.803" y2="-1106.803" gradientUnits="userSpaceOnUse"/><linearGradient id="folder_plugdata_a"><stop offset="0" style="stop-color:#62a0ea;stop-opacity:1"/><stop offset=".058" style="stop-color:#afd4ff;stop-opacity:1"/><stop offset=".122" style="stop-color:#62a0ea;stop-opacity:1"/><stop offset=".873" style="stop-color:#62a0ea;stop-opacity:1"/><stop offset=".956" style="stop-color:#c0d5ea;stop-opacity:1"/><stop offset="1" style="stop-color:#62a0ea;stop-opacity:1"/></linearGradient></defs><g style="display:inline;stroke-width:1.26428"><path d="M2711.206-1326.332a21.906 21.906 0 0 0-21.954 21.953v188.867a21.906 21.906 0 0 0 21.954 21.953h184.91a21.906 21.906 0 0 0 21.954-21.953v-158.255a26.343 26.343 45 0 0-26.344-26.343H2790.46a14.28 14.28 31.639 0 1-12.758-7.86l-3.308-6.57a21.43 21.43 31.639 0 0-19.137-11.792z" style="fill:#438de6;fill-opacity:1;stroke-width:8.79091;stroke-linecap:round;stop-color:#000" transform="matrix(.45451 0 0 .45552 -1210.292 616.157)"/><path d="M2808.014-1273.645a21.9 21.9 0 0 0-15.465 6.343c-5.003 4.955-11.848 11.22-18.993 11.22h-62.35a21.906 21.906 0 0 0-21.954 21.952v118.618a21.906 21.906 0 0 0 21.954 21.953h184.91a21.906 21.906 0 0 0 21.954-21.953v-136.18a21.906 21.906 0 0 0-21.955-21.953z" style="fill:url(#folder_plugdata_b);fill-opacity:1;stroke-width:8.79091;stroke-linecap:round;stop-color:#000" transform="matrix(.45451 0 0 .45552 -1210.292 616.157)"/><path d="M2808.014-1282.426a21.9 21.9 0 0 0-15.465 6.343c-5.003 4.955-11.848 11.22-18.993 11.22h-62.35a21.906 21.906 0 0 0-21.954 21.952v122.887a21.906 21.906 0 0 0 21.954 21.953h184.91a21.906 21.906 0 0 0 21.954-21.953v-140.449a21.906 21.906 0 0 0-21.955-21.953z" style="fill:#a4caee;fill-opacity:1;stroke-width:8.79091;stroke-linecap:round;stop-color:#000" transform="matrix(.45451 0 0 .45552 -1210.292 616.157)"/></g><path d="M52.01 88.967a.9.9 0 0 1-.9.898.9.9 0 0 1-.898-.898.9.9 0 0 1 .899-.899.9.9 0 0 1 .898.899m7.886 0a.9.9 0 0 1-.899.898.9.9 0 0 1-.898-.898.9.9 0 0 1 .898-.899.9.9 0 0 1 .899.899m0-7.91a.9.9 0 0 1-.899.899.9.9 0 0 1-.898-.899.9.9 0 0 1 .898-.898.9.9 0 0 1 .899.898m-7.887 0a.9.9 0 0 1-.898.899.9.9 0 0 1-.899-.899.9.9 0 0 1 .899-.898.9.9 0 0 1 .898.898m17.975-10.065a.9.9 0 0 1-.898.898.9.9 0 0 1-.899-.898.9.9 0 0 1 .899-.899.9.9 0 0 1 .898.899m7.887 0a.9.9 0 0 1-.899.898.9.9 0 0 1-.898-.898.9.9 0 0 1 .898-.899.9.9 0 0 1 .899.899m0-7.91a.9.9 0 0 1-.899.899.9.9 0 0 1-.898-.899.9.9 0 0 1 .898-.898.9.9 0 0 1 .899.898m-7.887 0a.9.9 0 0 1-.898.899.9.9 0 0 1-.899-.899.9.9 0 0 1 .899-.898.9.9 0 0 1 .898.898m-.373 14.927h6.788a3.586 3.586 0 0 1 3.594 3.594v6.788a3.586 3.586 0 0 1-3.594 3.594H69.61a3.586 3.586 0 0 1-3.594-3.594v-6.788a3.586 3.586 0 0 1 3.594-3.594M51.6 59.985h6.788a3.586 3.586 0 0 1 3.594 3.594v6.788a3.586 3.586 0 0 1-3.594 3.594H51.6a3.586 3.586 0 0 1-3.594-3.594v-6.788a3.586 3.586 0 0 1 3.594-3.594" style="fill:#438de6;fill-opacity:1;stroke-width:.394694"/></svg>