<svg xmlns="http://www.w3.org/2000/svg" xmlns:xlink="http://www.w3.org/1999/xlink" width="128" height="128" viewBox="0 0 128 128"><defs><linearGradient xlink:href="#folder_openscad_a" id="folder_openscad_b" x1="2689.252" x2="2918.07" y1="-1106.803" y2="-1106.803" gradientTransform="matrix(.45451 0 0 .45552 -1210.292 616.157)" gradientUnits="userSpaceOnUse"/><linearGradient id="folder_openscad_a"><stop offset="0" style="stop-color:#62a0ea;stop-opacity:1"/><stop offset=".058" style="stop-color:#afd4ff;stop-opacity:1"/><stop offset=".122" style="stop-color:#62a0ea;stop-opacity:1"/><stop offset=".873" style="stop-color:#62a0ea;stop-opacity:1"/><stop offset=".956" style="stop-color:#c0d5ea;stop-opacity:1"/><stop offset="1" style="stop-color:#62a0ea;stop-opacity:1"/></linearGradient></defs><path d="M21.978 11.984c-5.527 0-9.978 4.46-9.978 10v86.033c0 5.54 4.45 10 9.978 10h84.043c5.528 0 9.979-4.46 9.979-10V35.929a11.973 12 0 0 0-11.973-12H58a6.492 6.507 0 0 1-5.799-3.581l-1.503-2.993A9.738 9.76 0 0 0 42 11.984Z" style="fill:#438de6;fill-opacity:1;stroke-width:4;stroke-linecap:round;stop-color:#000"/><path d="M65.979 35.984a9.94 9.94 0 0 0-7.03 2.89c-2.273 2.256-5.384 5.11-8.632 5.11H21.978c-5.527 0-9.978 4.46-9.978 10v54.033c0 5.54 4.45 10 9.978 10h84.043c5.528 0 9.979-4.46 9.979-10V45.984c0-5.54-4.45-10-9.979-10z" style="fill:url(#folder_openscad_b);fill-opacity:1;stroke-width:4;stroke-linecap:round;stop-color:#000"/><path d="M65.979 31.984a9.94 9.94 0 0 0-7.03 2.89c-2.273 2.256-5.384 5.11-8.632 5.11H21.978c-5.527 0-9.978 4.46-9.978 10v55.978c0 5.54 4.45 10 9.978 10h84.043c5.528 0 9.979-4.46 9.979-10V41.984c0-5.54-4.45-10-9.979-10z" style="fill:#a4caee;fill-opacity:1;stroke-width:4;stroke-linecap:round;stop-color:#000"/><path d="M64.483 60.068a16.04 16.04 0 0 0-15.896 14.74l-2.601 1.246-.343.17-.009.01a4.34 4.34 0 0 0-1.878 3.931 11.63 11.63 0 0 0 1.662 5.766c1.748 3.035 4.48 5.116 6.792 5.116a3.35 3.35 0 0 0 1.69-.48v-.022l2.11-1.027a16.04 16.04 0 0 0 24.567-12.775l1.893-1.078.03-.02a4.2 4.2 0 0 0 1.264-1.532l.033-.093a6.3 6.3 0 0 0 .46-2.514 12.95 12.95 0 0 0-1.908-5.853 11.3 11.3 0 0 0-4.018-3.685 4.8 4.8 0 0 0-1.777-.503.8.8 0 0 0-.462.109l-2.486 1.2a16.04 16.04 0 0 0-9.09-2.79zm.113 1.022c2.182.007 4.35.559 6.214 1.662.654.458 1.295 1.131 1.423 1.95l.004.025.006.044-.006-.044-.004-.024c.002.024.022.202.02.26.005.319-.067.618-.191.893q.183-.406.188-.836c-.006.513-.213 1.015-.604 1.474l-.02.021a4.6 4.6 0 0 1-1.01.851c-1.835 1.142-4.09 1.489-6.2 1.518a11.8 11.8 0 0 1-2.586-.23l-.197-.034c-1.878-.464-4.537-1.315-4.769-3.613.009-1.07.844-1.893 1.691-2.413 1.821-1.012 3.945-1.517 6.055-1.517zm7.037 5.419-.017.02zm4.914-4.408a4.2 4.2 0 0 1 1.56.458 10.7 10.7 0 0 1 3.801 3.512 12.7 12.7 0 0 1 1.778 5.52 5.8 5.8 0 0 1-.434 2.341l.029-.001-.033.092a3.7 3.7 0 0 1-1.07 1.278l-1.604.907-.031.02v-.151a16.04 16.04 0 0 0-6.46-12.847h.013l2.283-1.101a.6.6 0 0 1 .16-.019zm-5.015 4.538c-.362.393-.858.757-1.474 1.08l-.001-.008c.617-.322 1.113-.683 1.474-1.072zm-19.798 7.717c1.125.005 2.226.552 3.136 1.205 2.052 1.517 3.497 3.757 4.278 6.156.42 1.705.893 3.786-.177 5.362a4 4 0 0 1-.789.893l-.023-.023c-1.016.488-2.023.98-3.049 1.46.337-.514.51-1.115.565-1.735a9.9 9.9 0 0 0-1.517-6.749c-1.177-2.124-3.064-4.017-5.376-4.84a4.6 4.6 0 0 0-.987-.203c.936-.45 1.864-.902 2.803-1.35a3.2 3.2 0 0 1 1.125-.192zm24.423.208a3.3 3.3 0 0 1 .732.08c1.298.3 1.98 1.589 2.125 2.817.281 2.428-.616 4.841-1.966 6.835-1.047 1.518-2.428 2.905-4.176 3.555-1.045.388-2.341.396-3.194-.427-1.212-1.203-1.22-3.093-.916-4.668l.072-.374c.672-2.63 2.182-5.13 4.407-6.735.853-.596 1.865-1.085 2.92-1.09zm-28.758 1.864c.19 0 .382.01.57.021 1.29.164 2.414.989 3.382 1.778 1.677 1.46 2.847 3.44 3.526 5.534.466 1.446.64 3.035.209 4.51-.056.15-.109.304-.168.456v.017c-.523 1.489-2.283 2.038-3.685 1.59-1.749-.509-3.165-1.792-4.278-3.208-1.676-2.182-2.73-4.914-2.543-7.703.157-1.137.815-2.37 1.922-2.832.338-.148.702-.184 1.066-.184z" style="fill:#438de6;fill-opacity:1;stroke-width:1.4451"/></svg>