<svg xmlns="http://www.w3.org/2000/svg" xmlns:xlink="http://www.w3.org/1999/xlink" width="128" height="128" viewBox="0 0 128 128"><defs><linearGradient xlink:href="#folder_java_a" id="folder_java_b" x1="2689.252" x2="2918.07" y1="-1106.803" y2="-1106.803" gradientUnits="userSpaceOnUse"/><linearGradient id="folder_java_a"><stop offset="0" style="stop-color:#62a0ea;stop-opacity:1"/><stop offset=".058" style="stop-color:#afd4ff;stop-opacity:1"/><stop offset=".122" style="stop-color:#62a0ea;stop-opacity:1"/><stop offset=".873" style="stop-color:#62a0ea;stop-opacity:1"/><stop offset=".956" style="stop-color:#c0d5ea;stop-opacity:1"/><stop offset="1" style="stop-color:#62a0ea;stop-opacity:1"/></linearGradient></defs><g style="display:inline;stroke-width:1.26428"><path d="M2711.206-1326.332a21.906 21.906 0 0 0-21.954 21.953v188.867a21.906 21.906 0 0 0 21.954 21.953h184.91a21.906 21.906 0 0 0 21.954-21.953v-158.255a26.343 26.343 45 0 0-26.344-26.343H2790.46a14.28 14.28 31.639 0 1-12.758-7.86l-3.308-6.57a21.43 21.43 31.639 0 0-19.137-11.792z" style="fill:#438de6;fill-opacity:1;stroke-width:8.79091;stroke-linecap:round;stop-color:#000" transform="matrix(.45451 0 0 .45552 -1210.292 616.157)"/><path d="M2808.014-1273.645a21.9 21.9 0 0 0-15.465 6.343c-5.003 4.955-11.848 11.22-18.993 11.22h-62.35a21.906 21.906 0 0 0-21.954 21.952v118.618a21.906 21.906 0 0 0 21.954 21.953h184.91a21.906 21.906 0 0 0 21.954-21.953v-136.18a21.906 21.906 0 0 0-21.955-21.953z" style="fill:url(#folder_java_b);fill-opacity:1;stroke-width:8.79091;stroke-linecap:round;stop-color:#000" transform="matrix(.45451 0 0 .45552 -1210.292 616.157)"/><path d="M2808.014-1282.426a21.9 21.9 0 0 0-15.465 6.343c-5.003 4.955-11.848 11.22-18.993 11.22h-62.35a21.906 21.906 0 0 0-21.954 21.952v122.887a21.906 21.906 0 0 0 21.954 21.953h184.91a21.906 21.906 0 0 0 21.954-21.953v-140.449a21.906 21.906 0 0 0-21.955-21.953z" style="fill:#a4caee;fill-opacity:1;stroke-width:8.79091;stroke-linecap:round;stop-color:#000" transform="matrix(.45451 0 0 .45552 -1210.292 616.157)"/></g><g style="fill:#438de6;fill-opacity:1"><path d="M-274.602 50.122a3.7 3.7 0 0 0-1.4.217c-.342.122-.52.401-.52.401s.213-.086.696-.187c1.97-.41 4.793 2.639-1.312 5.811a.5.5 0 0 1-.124.16c7.135-1.875 5.734-6.255 2.66-6.402m-13.548-.322c-.779.021-2.598.189-4.717 1.213-3.34 1.616 8.26 2.351 14.266.772.625-.426 1.487-.796 1.487-.796s-2.456.439-4.903.645c-2.995.251-6.213.3-7.825.085-3.82-.51 2.095-1.915 2.095-1.915s-.144-.01-.404-.003m-.974 4.225c-5.512 1.83 3.067 3.905 10.769 1.652a3.85 3.85 0 0 1-1.34-.817c-3.763.725-5.938.704-8.693.42-2.13-.221-.736-1.255-.736-1.255m.781 3.947c-5.003 1.398 3.042 4.287 9.412 1.556a11.6 11.6 0 0 1-1.788-.874c-2.842.538-4.162.578-6.74.283-2.129-.244-.884-.965-.884-.965" style="fill:#438de6;fill-opacity:1" transform="translate(442.767 5.769)scale(1.33333)"/><path d="M-291.58 60.203c-2.15-.082-7.031 2.066-2.864 2.741 12.988 2.107 23.675-.95 20.306-2.47 0 0 .92.76-1.013 1.346-3.677 1.114-15.303 1.45-18.533.045-1.161-.505 1.016-1.207 1.7-1.354.715-.155 1.125-.124 1.125-.124-.161-.113-.413-.172-.72-.184" style="fill:#438de6;fill-opacity:1" transform="translate(442.767 5.769)scale(1.33333)"/><path d="M-272.075 61.58s-.41 1.05-4.843 1.884c-5.002.942-11.171.833-14.83.23 0 0 .75.618 4.601.865 5.86.375 14.859-.206 15.072-2.98m-8.477-29.458c1.364 5.372-4.81 6.997-7.038 10.343-1.518 2.28.743 4.727 3.827 7.509-1.203-2.718-5.28-5.095.003-9.267 6.587-5.2 3.208-8.585 3.208-8.585" style="fill:#438de6;fill-opacity:1" transform="translate(442.767 5.769)scale(1.33333)"/><path d="M-276.818 38.767s-11.138 2.784-5.817 8.914c1.57 1.807-.413 3.435-.413 3.435s3.986-2.059 2.156-4.635c-1.71-2.403-3.023-3.598 4.074-7.714" style="fill:#438de6;fill-opacity:1" transform="translate(442.767 5.769)scale(1.33333)"/></g></svg>