<svg xmlns="http://www.w3.org/2000/svg" xmlns:xlink="http://www.w3.org/1999/xlink" width="128" height="128" viewBox="0 0 128 128"><defs><linearGradient xlink:href="#folder_github_a" id="folder_github_b" x1="2689.252" x2="2918.07" y1="-1106.803" y2="-1106.803" gradientTransform="matrix(.45451 0 0 .45552 -1210.292 616.157)" gradientUnits="userSpaceOnUse"/><linearGradient id="folder_github_a"><stop offset="0" style="stop-color:#62a0ea;stop-opacity:1"/><stop offset=".058" style="stop-color:#afd4ff;stop-opacity:1"/><stop offset=".122" style="stop-color:#62a0ea;stop-opacity:1"/><stop offset=".873" style="stop-color:#62a0ea;stop-opacity:1"/><stop offset=".956" style="stop-color:#c0d5ea;stop-opacity:1"/><stop offset="1" style="stop-color:#62a0ea;stop-opacity:1"/></linearGradient></defs><path d="M21.978 11.984c-5.527 0-9.978 4.46-9.978 10v86.033c0 5.54 4.45 10 9.978 10h84.043c5.528 0 9.979-4.46 9.979-10V35.929a11.973 12 0 0 0-11.973-12H58a6.492 6.507 0 0 1-5.799-3.581l-1.503-2.993A9.738 9.76 0 0 0 42 11.984Z" style="fill:#438de6;fill-opacity:1;stroke-width:4;stroke-linecap:round;stop-color:#000"/><path d="M65.979 35.984a9.94 9.94 0 0 0-7.03 2.89c-2.273 2.256-5.384 5.11-8.632 5.11H21.978c-5.527 0-9.978 4.46-9.978 10v54.033c0 5.54 4.45 10 9.978 10h84.043c5.528 0 9.979-4.46 9.979-10V45.984c0-5.54-4.45-10-9.979-10z" style="fill:url(#folder_github_b);fill-opacity:1;stroke-width:4;stroke-linecap:round;stop-color:#000"/><path d="M65.979 31.984a9.94 9.94 0 0 0-7.03 2.89c-2.273 2.256-5.384 5.11-8.632 5.11H21.978c-5.527 0-9.978 4.46-9.978 10v55.978c0 5.54 4.45 10 9.978 10h84.043c5.528 0 9.979-4.46 9.979-10V41.984c0-5.54-4.45-10-9.979-10z" style="fill:#a4caee;fill-opacity:1;stroke-width:4;stroke-linecap:round;stop-color:#000"/><path fill="#fff" fill-rule="evenodd" d="M64.013 59.984C55.158 59.984 48 67.195 48 76.116c0 7.131 4.587 13.168 10.95 15.304.795.16 1.086-.347 1.086-.774 0-.374-.026-1.656-.026-2.992-4.454.962-5.382-1.923-5.382-1.923-.716-1.87-1.777-2.35-1.777-2.35-1.458-.988.107-.988.107-.988 1.617.107 2.465 1.656 2.465 1.656 1.432 2.457 3.738 1.763 4.666 1.335.133-1.042.557-1.763 1.008-2.163-3.553-.374-7.29-1.763-7.29-7.96 0-1.762.635-3.205 1.643-4.326-.16-.4-.716-2.057.159-4.274 0 0 1.352-.427 4.4 1.656a15.4 15.4 0 0 1 4.004-.534 15.4 15.4 0 0 1 4.003.534c3.05-2.083 4.401-1.656 4.401-1.656.876 2.217.318 3.873.16 4.274 1.034 1.121 1.643 2.564 1.643 4.326 0 6.197-3.738 7.559-7.317 7.96.583.507 1.087 1.469 1.087 2.991 0 2.163-.026 3.9-.026 4.434 0 .427.291.935 1.087.774C75.413 89.283 80 83.247 80 76.116c.026-8.92-7.158-16.132-15.987-16.132" clip-rule="evenodd" style="fill:#438de6;fill-opacity:1;stroke-width:.327778"/></svg>