<svg xmlns="http://www.w3.org/2000/svg" xmlns:xlink="http://www.w3.org/1999/xlink" xml:space="preserve" width="128" height="128" viewBox="0 0 128 128"><defs><linearGradient xlink:href="#folder_3dbenchy_a" id="folder_3dbenchy_b" x1="2689.252" x2="2918.07" y1="-1106.803" y2="-1106.803" gradientUnits="userSpaceOnUse"/><linearGradient id="folder_3dbenchy_a"><stop offset="0" style="stop-color:#62a0ea;stop-opacity:1"/><stop offset=".058" style="stop-color:#afd4ff;stop-opacity:1"/><stop offset=".122" style="stop-color:#62a0ea;stop-opacity:1"/><stop offset=".873" style="stop-color:#62a0ea;stop-opacity:1"/><stop offset=".956" style="stop-color:#c0d5ea;stop-opacity:1"/><stop offset="1" style="stop-color:#62a0ea;stop-opacity:1"/></linearGradient></defs><g style="display:inline;stroke-width:1.26428"><path d="M2711.206-1326.332a21.906 21.906 0 0 0-21.954 21.953v188.867a21.906 21.906 0 0 0 21.954 21.953h184.91a21.906 21.906 0 0 0 21.954-21.953v-158.255a26.343 26.343 45 0 0-26.344-26.343H2790.46a14.28 14.28 31.639 0 1-12.758-7.86l-3.308-6.57a21.43 21.43 31.639 0 0-19.137-11.792z" style="fill:#438de6;fill-opacity:1;stroke-width:8.79091;stroke-linecap:round;stop-color:#000" transform="matrix(.45451 0 0 .45552 -1210.292 616.157)"/><path d="M2808.014-1273.645a21.9 21.9 0 0 0-15.465 6.343c-5.003 4.955-11.848 11.22-18.993 11.22h-62.35a21.906 21.906 0 0 0-21.954 21.952v118.618a21.906 21.906 0 0 0 21.954 21.953h184.91a21.906 21.906 0 0 0 21.954-21.953v-136.18a21.906 21.906 0 0 0-21.955-21.953z" style="fill:url(#folder_3dbenchy_b);fill-opacity:1;stroke-width:8.79091;stroke-linecap:round;stop-color:#000" transform="matrix(.45451 0 0 .45552 -1210.292 616.157)"/><path d="M2808.014-1282.426a21.9 21.9 0 0 0-15.465 6.343c-5.003 4.955-11.848 11.22-18.993 11.22h-62.35a21.906 21.906 0 0 0-21.954 21.952v122.887a21.906 21.906 0 0 0 21.954 21.953h184.91a21.906 21.906 0 0 0 21.954-21.953v-140.449a21.906 21.906 0 0 0-21.955-21.953z" style="fill:#a4caee;fill-opacity:1;stroke-width:8.79091;stroke-linecap:round;stop-color:#000" transform="matrix(.45451 0 0 .45552 -1210.292 616.157)"/></g><path d="M46.8 91.583c-.367-.559-2.123-4.507-2.404-5.403a3.65 3.65 0 0 1-.11-1.542c.114-.764.16-.817.942-1.084 1.3-.443 1.56-.385 1.75.386l.165.667 1.423.056c.782.03 1.846.005 2.364-.058l.942-.115-.107-.83c-.059-.457-.15-1.13-.202-1.497l-.095-.667h3.571c3.285 0 3.57-.025 3.566-.311-.003-.171-.082-1.351-.175-2.622-.094-1.271-.176-3.957-.182-5.969-.011-3.396-.037-3.678-.358-3.954-.256-.219-.347-.524-.347-1.167 0-.854.012-.873.623-.988l.622-.116v-2.026c0-1.159-.076-2.073-.178-2.136-.098-.06-.178-.585-.178-1.166v-1.056h4.8v1.031c0 .567-.07 1.107-.157 1.2-.2.214-.452 3.813-.267 3.813.076 0 2.25-.206 4.83-.457 2.58-.252 4.805-.414 4.943-.361.363.139.35 1.987-.015 2.127-.209.08-.267.441-.27 1.664-.002 1.748-.47 7.631-.628 7.885-.186.303.482.17 2.832-.562 1.283-.4 2.892-.885 3.577-1.078.684-.193 2.154-.626 3.267-.962s2.084-.611 2.158-.611c.302 0 .33.92.08 2.592-.49 3.265-1.292 5.582-2.627 7.582-1.042 1.56-3.603 4.178-6.163 6.299l-2.217 1.838H47.063zm17.558-8.849c1.95-.486 2.35-.66 2.57-1.116.103-.214.306-2.309.45-4.655.245-3.964.242-4.305-.036-4.8-.465-.828-1.324-1.185-2.688-1.118-1.245.062-1.95.421-2.298 1.17-.122.261-.19 2.304-.19 5.645 0 6.058-.258 5.485 2.192 4.874M80.2 78.186c.064-.256.068-.514.01-.573-.145-.144-.438.34-.441.727-.004.478.3.37.43-.154z" style="fill:#438de6;fill-opacity:1;stroke-width:.177778"/></svg>