<svg xmlns="http://www.w3.org/2000/svg" xmlns:xlink="http://www.w3.org/1999/xlink" width="128" height="128" viewBox="0 0 128 128"><defs><linearGradient xlink:href="#folder_platformio_a" id="folder_platformio_b" x1="2689.252" x2="2918.07" y1="-1106.803" y2="-1106.803" gradientUnits="userSpaceOnUse"/><linearGradient id="folder_platformio_a"><stop offset="0" style="stop-color:#62a0ea;stop-opacity:1"/><stop offset=".058" style="stop-color:#afd4ff;stop-opacity:1"/><stop offset=".122" style="stop-color:#62a0ea;stop-opacity:1"/><stop offset=".873" style="stop-color:#62a0ea;stop-opacity:1"/><stop offset=".956" style="stop-color:#c0d5ea;stop-opacity:1"/><stop offset="1" style="stop-color:#62a0ea;stop-opacity:1"/></linearGradient></defs><g style="display:inline;stroke-width:1.26428"><path d="M2711.206-1326.332a21.906 21.906 0 0 0-21.954 21.953v188.867a21.906 21.906 0 0 0 21.954 21.953h184.91a21.906 21.906 0 0 0 21.954-21.953v-158.255a26.343 26.343 45 0 0-26.344-26.343H2790.46a14.28 14.28 31.639 0 1-12.758-7.86l-3.308-6.57a21.43 21.43 31.639 0 0-19.137-11.792z" style="fill:#438de6;fill-opacity:1;stroke-width:8.79091;stroke-linecap:round;stop-color:#000" transform="matrix(.45451 0 0 .45552 -1210.292 616.157)"/><path d="M2808.014-1273.645a21.9 21.9 0 0 0-15.465 6.343c-5.003 4.955-11.848 11.22-18.993 11.22h-62.35a21.906 21.906 0 0 0-21.954 21.952v118.618a21.906 21.906 0 0 0 21.954 21.953h184.91a21.906 21.906 0 0 0 21.954-21.953v-136.18a21.906 21.906 0 0 0-21.955-21.953z" style="fill:url(#folder_platformio_b);fill-opacity:1;stroke-width:8.79091;stroke-linecap:round;stop-color:#000" transform="matrix(.45451 0 0 .45552 -1210.292 616.157)"/><path d="M2808.014-1282.426a21.9 21.9 0 0 0-15.465 6.343c-5.003 4.955-11.848 11.22-18.993 11.22h-62.35a21.906 21.906 0 0 0-21.954 21.952v122.887a21.906 21.906 0 0 0 21.954 21.953h184.91a21.906 21.906 0 0 0 21.954-21.953v-140.449a21.906 21.906 0 0 0-21.955-21.953z" style="fill:#a4caee;fill-opacity:1;stroke-width:8.79091;stroke-linecap:round;stop-color:#000" transform="matrix(.45451 0 0 .45552 -1210.292 616.157)"/></g><path d="M57.237 59.985a1.868 1.868 0 0 0-.01 3.736l.912 3.432c-3.55 1.179-7.402 3.755-7.402 9.393.079 8.146 10.778 15.432 13.248 15.438h.003c2.465 0 13.249-7.446 13.275-15.438 0-5.725-3.806-8.296-7.343-9.45l.932-3.356a1.868 1.868 0 1 0-1.13-.26l-.914 3.294c-2.614-.665-4.82-.614-4.82-.614s-2.219-.012-4.84.69l-.91-3.421a1.868 1.868 0 0 0-1.002-3.444m-1.065 11.208c.195-.008.39.003.577.033 5.495 1.118 6.384 8.938 4.281 12.298-1.473 1.847-9.548-4.686-8.175-9.35.475-1.925 1.947-2.923 3.317-2.98m16.01 0c1.37.058 2.842 1.056 3.317 2.98 1.373 4.665-6.701 11.198-8.175 9.351-2.103-3.36-1.214-11.18 4.28-12.298q.285-.045.578-.033m-1.56 5.134a1.7 1.7 0 0 0-1.701 1.702 1.7 1.7 0 0 0 1.701 1.701 1.7 1.7 0 0 0 1.702-1.702 1.7 1.7 0 0 0-1.702-1.701m-13 .052a1.7 1.7 0 0 0-1.701 1.702 1.7 1.7 0 0 0 1.702 1.702 1.7 1.7 0 0 0 1.701-1.702 1.7 1.7 0 0 0-1.701-1.702m13.509.658a.43.43 0 0 1 0 .86.43.43 0 0 1 0-.86m-14.017.053a.43.43 0 0 1 0 .86.43.43 0 0 1 0-.86" style="display:inline;fill:#438de6;fill-opacity:1;stroke-width:.181053"/></svg>