<svg xmlns="http://www.w3.org/2000/svg" xmlns:xlink="http://www.w3.org/1999/xlink" width="128" height="128" viewBox="0 0 128 128"><defs><linearGradient xlink:href="#folder_inkscape_a" id="folder_inkscape_b" x1="2689.252" x2="2918.07" y1="-1106.803" y2="-1106.803" gradientUnits="userSpaceOnUse"/><linearGradient id="folder_inkscape_a"><stop offset="0" style="stop-color:#62a0ea;stop-opacity:1"/><stop offset=".058" style="stop-color:#afd4ff;stop-opacity:1"/><stop offset=".122" style="stop-color:#62a0ea;stop-opacity:1"/><stop offset=".873" style="stop-color:#62a0ea;stop-opacity:1"/><stop offset=".956" style="stop-color:#c0d5ea;stop-opacity:1"/><stop offset="1" style="stop-color:#62a0ea;stop-opacity:1"/></linearGradient></defs><g style="display:inline;stroke-width:1.26428"><path d="M2711.206-1326.332a21.906 21.906 0 0 0-21.954 21.953v188.867a21.906 21.906 0 0 0 21.954 21.953h184.91a21.906 21.906 0 0 0 21.954-21.953v-158.255a26.343 26.343 45 0 0-26.344-26.343H2790.46a14.28 14.28 31.639 0 1-12.758-7.86l-3.308-6.57a21.43 21.43 31.639 0 0-19.137-11.792z" style="fill:#438de6;fill-opacity:1;stroke-width:8.79091;stroke-linecap:round;stop-color:#000" transform="matrix(.45451 0 0 .45552 -1210.292 616.157)"/><path d="M2808.014-1273.645a21.9 21.9 0 0 0-15.465 6.343c-5.003 4.955-11.848 11.22-18.993 11.22h-62.35a21.906 21.906 0 0 0-21.954 21.952v118.618a21.906 21.906 0 0 0 21.954 21.953h184.91a21.906 21.906 0 0 0 21.954-21.953v-136.18a21.906 21.906 0 0 0-21.955-21.953z" style="fill:url(#folder_inkscape_b);fill-opacity:1;stroke-width:8.79091;stroke-linecap:round;stop-color:#000" transform="matrix(.45451 0 0 .45552 -1210.292 616.157)"/><path d="M2808.014-1282.426a21.9 21.9 0 0 0-15.465 6.343c-5.003 4.955-11.848 11.22-18.993 11.22h-62.35a21.906 21.906 0 0 0-21.954 21.952v122.887a21.906 21.906 0 0 0 21.954 21.953h184.91a21.906 21.906 0 0 0 21.954-21.953v-140.449a21.906 21.906 0 0 0-21.955-21.953z" style="fill:#a4caee;fill-opacity:1;stroke-width:8.79091;stroke-linecap:round;stop-color:#000" transform="matrix(.45451 0 0 .45552 -1210.292 616.157)"/></g><path d="M64 59.985c-.908 0-1.816.343-2.501 1.069L49.01 73.924a3.8 3.8 0 0 0-1.069 2.562v.06c0 2.765 7.363.082 8.03 3.45.362 1.836-4.015.989-4.015 2.825 0 2.158 6.193.685 7.968 2.44.726 1.776-2.38 1.493-1.816 3.148 1.03 1.069 3.37.463 3.813 2.198.525 1.977 3.873 1.634 5.83.182 1.05-1.07-1.594-1.553-.565-2.643 1.05-1.069 6.173-.847 6.214-3.187-.485-1.473-2.421-1.715-2.441-3.45-.101-1.472 1.573-1.049 6.899-2.501 2.118-1.009 2.199-1.533 2.199-2.461v-.06c-.02-.929-.444-1.857-1.13-2.563L66.5 61.054a3.44 3.44 0 0 0-2.5-1.07m.242 2.703c.948 0 3.53 3.187 5.83 5.588.666.867-.242 1.755-.242 1.755l-4.821-2.643-2.139 2.885-1.876-2.824-1.13 4.398-3.328-1.998.888-1.13 5.204-5.345c.384-.404.706-.686 1.614-.686m14.303 19.326c-.263-.02-.505 0-.686.06-.343.101-1.957.162-1.816 1.372 1.453.625 3.672 1.11 3.934-.121.202-.908-.666-1.291-1.432-1.311M53.65 86.089a1.1 1.1 0 0 0-.363.12c-1.11.424-1.856 1.312-.827 1.695s1.735-.02 2.643-.504.867-.565.807-.747c-.121.02-.948-.484-1.816-.564a1.6 1.6 0 0 0-.444 0" style="fill:#438de6;fill-opacity:1;stroke-width:2.0173"/></svg>