<svg xmlns="http://www.w3.org/2000/svg" xmlns:xlink="http://www.w3.org/1999/xlink" width="128" height="128" viewBox="0 0 128 128"><defs><linearGradient xlink:href="#folder_csharp_a" id="folder_csharp_b" x1="2689.252" x2="2918.07" y1="-1106.803" y2="-1106.803" gradientTransform="matrix(.45451 0 0 .45552 -1210.292 616.157)" gradientUnits="userSpaceOnUse"/><linearGradient id="folder_csharp_a"><stop offset="0" style="stop-color:#62a0ea;stop-opacity:1"/><stop offset=".058" style="stop-color:#afd4ff;stop-opacity:1"/><stop offset=".122" style="stop-color:#62a0ea;stop-opacity:1"/><stop offset=".873" style="stop-color:#62a0ea;stop-opacity:1"/><stop offset=".956" style="stop-color:#c0d5ea;stop-opacity:1"/><stop offset="1" style="stop-color:#62a0ea;stop-opacity:1"/></linearGradient></defs><path d="M21.978 11.984c-5.527 0-9.978 4.46-9.978 10v86.033c0 5.54 4.45 10 9.978 10h84.043c5.528 0 9.979-4.46 9.979-10V35.929a11.973 12 0 0 0-11.973-12H58a6.492 6.507 0 0 1-5.799-3.581l-1.503-2.993A9.738 9.76 0 0 0 42 11.984Z" style="fill:#438de6;fill-opacity:1;stroke-width:4;stroke-linecap:round;stop-color:#000"/><path d="M65.979 35.984a9.94 9.94 0 0 0-7.03 2.89c-2.273 2.256-5.384 5.11-8.632 5.11H21.978c-5.527 0-9.978 4.46-9.978 10v54.033c0 5.54 4.45 10 9.978 10h84.043c5.528 0 9.979-4.46 9.979-10V45.984c0-5.54-4.45-10-9.979-10z" style="fill:url(#folder_csharp_b);fill-opacity:1;stroke-width:4;stroke-linecap:round;stop-color:#000"/><path d="M65.979 31.984a9.94 9.94 0 0 0-7.03 2.89c-2.273 2.256-5.384 5.11-8.632 5.11H21.978c-5.527 0-9.978 4.46-9.978 10v55.978c0 5.54 4.45 10 9.978 10h84.043c5.528 0 9.979-4.46 9.979-10V41.984c0-5.54-4.45-10-9.979-10z" style="fill:#a4caee;fill-opacity:1;stroke-width:4;stroke-linecap:round;stop-color:#000"/><g fill="#fff" style="fill:#438de6;fill-opacity:1"><path d="M-128.773 52.487v13.474h13.473V52.487h6.737v13.474h13.474v6.737h-13.474V86.17h13.474v6.737h-13.474v13.474h-6.737V92.908h-13.473v13.474h-6.737V92.908h-13.474v-6.737h13.474V72.698h-13.474V65.96h13.474V52.487zm13.473 20.21h-13.473v13.474h13.473z" style="fill:#438de6;fill-opacity:1" transform="translate(98.732 62.54)scale(.16842)"/><path d="M-202.209-15.18c35.144 0 65.827 19.085 82.262 47.455l-.16-.273-41.35 23.808c-8.146-13.793-23.08-23.102-40.212-23.293l-.54-.003c-26.126 0-47.306 21.179-47.306 47.305a47.1 47.1 0 0 0 6.239 23.469c8.154 14.235 23.483 23.837 41.067 23.837 17.693 0 33.109-9.724 41.222-24.111l-.198.345 41.287 23.918c-16.254 28.13-46.517 47.157-81.253 47.536l-1.058.006c-35.255 0-66.025-19.203-82.418-47.723-8.003-13.923-12.583-30.065-12.583-47.277 0-52.466 42.533-95 95.001-95z" style="fill:#438de6;fill-opacity:1" transform="translate(98.732 62.54)scale(.16842)"/></g></svg>