<svg xmlns="http://www.w3.org/2000/svg" xmlns:xlink="http://www.w3.org/1999/xlink" xml:space="preserve" width="128" height="128" viewBox="0 0 128 128"><defs><linearGradient xlink:href="#folder_local_a" id="folder_local_b" x1="2689.252" x2="2918.07" y1="-1106.803" y2="-1106.803" gradientUnits="userSpaceOnUse"/><linearGradient id="folder_local_a"><stop offset="0" style="stop-color:#62a0ea;stop-opacity:1"/><stop offset=".058" style="stop-color:#afd4ff;stop-opacity:1"/><stop offset=".122" style="stop-color:#62a0ea;stop-opacity:1"/><stop offset=".873" style="stop-color:#62a0ea;stop-opacity:1"/><stop offset=".956" style="stop-color:#c0d5ea;stop-opacity:1"/><stop offset="1" style="stop-color:#62a0ea;stop-opacity:1"/></linearGradient></defs><g style="display:inline;stroke-width:1.26428"><path d="M2711.206-1326.332a21.906 21.906 0 0 0-21.954 21.953v188.867a21.906 21.906 0 0 0 21.954 21.953h184.91a21.906 21.906 0 0 0 21.954-21.953v-158.255a26.343 26.343 45 0 0-26.344-26.343H2790.46a14.28 14.28 31.639 0 1-12.758-7.86l-3.308-6.57a21.43 21.43 31.639 0 0-19.137-11.792z" style="fill:#438de6;fill-opacity:1;stroke-width:8.79091;stroke-linecap:round;stop-color:#000" transform="matrix(.45451 0 0 .45552 -1210.292 616.157)"/><path d="M2808.014-1273.645a21.9 21.9 0 0 0-15.465 6.343c-5.003 4.955-11.848 11.22-18.993 11.22h-62.35a21.906 21.906 0 0 0-21.954 21.952v118.618a21.906 21.906 0 0 0 21.954 21.953h184.91a21.906 21.906 0 0 0 21.954-21.953v-136.18a21.906 21.906 0 0 0-21.955-21.953z" style="fill:url(#folder_local_b);fill-opacity:1;stroke-width:8.79091;stroke-linecap:round;stop-color:#000" transform="matrix(.45451 0 0 .45552 -1210.292 616.157)"/><path d="M2808.014-1282.426a21.9 21.9 0 0 0-15.465 6.343c-5.003 4.955-11.848 11.22-18.993 11.22h-62.35a21.906 21.906 0 0 0-21.954 21.952v122.887a21.906 21.906 0 0 0 21.954 21.953h184.91a21.906 21.906 0 0 0 21.954-21.953v-140.449a21.906 21.906 0 0 0-21.955-21.953z" style="fill:#a4caee;fill-opacity:1;stroke-width:8.79091;stroke-linecap:round;stop-color:#000" transform="matrix(.45451 0 0 .45552 -1210.292 616.157)"/></g><path d="M54 62.131c-3.29 0-6 2.652-6 5.87v15.65c0 3.218 2.71 5.87 6 5.87h6c2 0 2-1.956 2-1.956s0-1.957-2-1.957h-6c-1.125 0-2-.856-2-1.956V69.957h22c1.125 0 2 .856 2 1.956v1.957c0 1.956 2 1.956 2 1.956s2 0 2-1.956v-1.957c0-3.217-2.71-5.869-6-5.869h-7.172l-3.414-3.34A2.02 2.02 0 0 0 62 62.132zm0 3.913h7.172l2 1.957H52c0-1.1.875-1.957 2-1.957m17.69 9.567c-.615 0-1.23.204-1.731.613l-4.486 3.657a3.57 3.57 0 0 0-1.318 2.756v5.9c0 1.907 1.582 3.448 3.513 3.448h8.044c1.93 0 3.513-1.541 3.513-3.447v-5.9a3.57 3.57 0 0 0-1.318-2.757l-4.486-3.657a2.74 2.74 0 0 0-1.731-.613m0 3.047 4.303 3.508v.002a.6.6 0 0 1 .227.47v5.9a.504.504 0 0 1-.508.485H73.7v-4.42a.997.997 0 0 0-1.006-.984h-2.01a.997.997 0 0 0-1.006.984v4.42h-2.01a.504.504 0 0 1-.51-.485v-5.9a.6.6 0 0 1 .228-.47l.002-.003z" style="fill:#438de6;fill-opacity:1;stroke-width:1.97807"/></svg>