<svg xmlns="http://www.w3.org/2000/svg" xmlns:xlink="http://www.w3.org/1999/xlink" width="128" height="128" viewBox="0 0 128 128"><defs><linearGradient xlink:href="#folder_work_a" id="folder_work_b" x1="2689.252" x2="2918.07" y1="-1106.803" y2="-1106.803" gradientUnits="userSpaceOnUse"/><linearGradient id="folder_work_a"><stop offset="0" style="stop-color:#62a0ea;stop-opacity:1"/><stop offset=".058" style="stop-color:#afd4ff;stop-opacity:1"/><stop offset=".122" style="stop-color:#62a0ea;stop-opacity:1"/><stop offset=".873" style="stop-color:#62a0ea;stop-opacity:1"/><stop offset=".956" style="stop-color:#c0d5ea;stop-opacity:1"/><stop offset="1" style="stop-color:#62a0ea;stop-opacity:1"/></linearGradient></defs><g style="display:inline;stroke-width:1.26428"><path d="M2711.206-1326.332a21.906 21.906 0 0 0-21.954 21.953v188.867a21.906 21.906 0 0 0 21.954 21.953h184.91a21.906 21.906 0 0 0 21.954-21.953v-158.255a26.343 26.343 45 0 0-26.344-26.343H2790.46a14.28 14.28 31.639 0 1-12.758-7.86l-3.308-6.57a21.43 21.43 31.639 0 0-19.137-11.792z" style="fill:#438de6;fill-opacity:1;stroke-width:8.79091;stroke-linecap:round;stop-color:#000" transform="matrix(.45451 0 0 .45552 -1210.292 616.157)"/><path d="M2808.014-1273.645a21.9 21.9 0 0 0-15.465 6.343c-5.003 4.955-11.848 11.22-18.993 11.22h-62.35a21.906 21.906 0 0 0-21.954 21.952v118.618a21.906 21.906 0 0 0 21.954 21.953h184.91a21.906 21.906 0 0 0 21.954-21.953v-136.18a21.906 21.906 0 0 0-21.955-21.953z" style="fill:url(#folder_work_b);fill-opacity:1;stroke-width:8.79091;stroke-linecap:round;stop-color:#000" transform="matrix(.45451 0 0 .45552 -1210.292 616.157)"/><path d="M2808.014-1282.426a21.9 21.9 0 0 0-15.465 6.343c-5.003 4.955-11.848 11.22-18.993 11.22h-62.35a21.906 21.906 0 0 0-21.954 21.952v122.887a21.906 21.906 0 0 0 21.954 21.953h184.91a21.906 21.906 0 0 0 21.954-21.953v-140.449a21.906 21.906 0 0 0-21.955-21.953z" style="fill:#a4caee;fill-opacity:1;stroke-width:8.79091;stroke-linecap:round;stop-color:#000" transform="matrix(.45451 0 0 .45552 -1210.292 616.157)"/></g><path d="M66.298 59.985c-.277 0-.556.012-.832.004h-4.089c-1.013-.023-1.996.705-2.211 1.705-.136.558-.064 1.133-.083 1.7v1.182H51.35c-1.17 0-2.108.94-2.108 2.109v10.541c0 1.17.938 2.109 2.108 2.109h8.433v-4.217c0-1.17.94-2.108 2.109-2.108h4.216c1.17 0 2.109.939 2.109 2.108v4.217h8.433c1.17 0 2.108-.94 2.108-2.109V66.685c0-1.17-.938-2.109-2.108-2.109h-7.733c-.007-.841.011-1.683-.013-2.524-.07-.966-.825-1.833-1.783-2.005a4.3 4.3 0 0 0-.823-.062m-4.876 1.968h5.201c.314-.008.352.332.33.568v2.055h-5.901c.004-.787-.007-1.577.008-2.363.036-.2.192-.25.362-.26m.47 13.165v6.325h4.216v-6.325zM51.35 81.443v8.434c0 1.169.939 2.108 2.108 2.108h21.084c1.17 0 2.108-.939 2.108-2.108v-8.434h-8.433c0 1.17-.94 2.108-2.109 2.108h-4.216a2.1 2.1 0 0 1-2.109-2.108z" style="fill:#438de6;fill-opacity:1;stroke-width:.951066"/></svg>