<svg xmlns="http://www.w3.org/2000/svg" xmlns:xlink="http://www.w3.org/1999/xlink" width="128" height="128" viewBox="0 0 128 128"><defs><linearGradient xlink:href="#folder_appimage_a" id="folder_appimage_b" x1="2689.252" x2="2918.07" y1="-1106.803" y2="-1106.803" gradientUnits="userSpaceOnUse"/><linearGradient id="folder_appimage_a"><stop offset="0" style="stop-color:#62a0ea;stop-opacity:1"/><stop offset=".058" style="stop-color:#afd4ff;stop-opacity:1"/><stop offset=".122" style="stop-color:#62a0ea;stop-opacity:1"/><stop offset=".873" style="stop-color:#62a0ea;stop-opacity:1"/><stop offset=".956" style="stop-color:#c0d5ea;stop-opacity:1"/><stop offset="1" style="stop-color:#62a0ea;stop-opacity:1"/></linearGradient></defs><g style="display:inline;stroke-width:1.26428"><path d="M2711.206-1326.332a21.906 21.906 0 0 0-21.954 21.953v188.867a21.906 21.906 0 0 0 21.954 21.953h184.91a21.906 21.906 0 0 0 21.954-21.953v-158.255a26.343 26.343 45 0 0-26.344-26.343H2790.46a14.28 14.28 31.639 0 1-12.758-7.86l-3.308-6.57a21.43 21.43 31.639 0 0-19.137-11.792z" style="fill:#438de6;fill-opacity:1;stroke-width:8.79091;stroke-linecap:round;stop-color:#000" transform="matrix(.45451 0 0 .45552 -1210.292 616.157)"/><path d="M2808.014-1273.645a21.9 21.9 0 0 0-15.465 6.343c-5.003 4.955-11.848 11.22-18.993 11.22h-62.35a21.906 21.906 0 0 0-21.954 21.952v118.618a21.906 21.906 0 0 0 21.954 21.953h184.91a21.906 21.906 0 0 0 21.954-21.953v-136.18a21.906 21.906 0 0 0-21.955-21.953z" style="fill:url(#folder_appimage_b);fill-opacity:1;stroke-width:8.79091;stroke-linecap:round;stop-color:#000" transform="matrix(.45451 0 0 .45552 -1210.292 616.157)"/><path d="M2808.014-1282.426a21.9 21.9 0 0 0-15.465 6.343c-5.003 4.955-11.848 11.22-18.993 11.22h-62.35a21.906 21.906 0 0 0-21.954 21.952v122.887a21.906 21.906 0 0 0 21.954 21.953h184.91a21.906 21.906 0 0 0 21.954-21.953v-140.449a21.906 21.906 0 0 0-21.955-21.953z" style="fill:#a4caee;fill-opacity:1;stroke-width:8.79091;stroke-linecap:round;stop-color:#000" transform="matrix(.45451 0 0 .45552 -1210.292 616.157)"/></g><path d="M61 59.985v6h-3.187l6.187 7 6.187-7H67v-6zm1.906 14c-.172 0-.281.295-.281.656v2.281a6.2 6.2 0 0 0-1.938.813l-1.625-1.625c-.255-.256-.533-.373-.656-.25l-1.531 1.531c-.122.123-.003.4.25.656l1.625 1.625a6.2 6.2 0 0 0-.813 1.938h-2.28c-.362 0-.657.108-.657.281v2.188c0 .172.295.28.656.28h2.281a6.2 6.2 0 0 0 .813 1.938l-1.625 1.625c-.256.256-.372.534-.25.657l1.531 1.53c.123.123.401.004.656-.25l1.625-1.624c.586.37 1.242.654 1.938.812v2.282c0 .36.109.656.281.656h2.188c.172 0 .281-.295.281-.656v-2.282a6.2 6.2 0 0 0 1.937-.812l1.625 1.625c.256.255.534.372.657.25l1.531-1.531c.122-.122.003-.401-.25-.657l-1.625-1.625c.37-.586.654-1.241.812-1.937h2.282c.361 0 .656-.109.656-.281V81.89c0-.173-.295-.281-.656-.281h-2.282a6.2 6.2 0 0 0-.812-1.938l1.625-1.625c.255-.255.372-.534.25-.656l-1.531-1.531c-.123-.123-.401-.004-.657.25l-1.625 1.625a6.2 6.2 0 0 0-1.937-.813v-2.28c0-.362-.109-.657-.281-.657zM64 80.204a2.79 2.79 0 0 1 2.781 2.78A2.79 2.79 0 0 1 64 85.767a2.79 2.79 0 0 1-2.781-2.781A2.79 2.79 0 0 1 64 80.204" style="display:inline;overflow:visible;visibility:visible;fill:#438de6;fill-opacity:1;fill-rule:nonzero;stroke:none;stroke-width:1.00179;marker:none"/></svg>