<svg xmlns="http://www.w3.org/2000/svg" xmlns:xlink="http://www.w3.org/1999/xlink" width="128" height="128" viewBox="0 0 128 128"><defs><linearGradient xlink:href="#folder_fedora_a" id="folder_fedora_b" x1="2689.252" x2="2918.07" y1="-1106.803" y2="-1106.803" gradientUnits="userSpaceOnUse"/><linearGradient id="folder_fedora_a"><stop offset="0" style="stop-color:#62a0ea;stop-opacity:1"/><stop offset=".058" style="stop-color:#afd4ff;stop-opacity:1"/><stop offset=".122" style="stop-color:#62a0ea;stop-opacity:1"/><stop offset=".873" style="stop-color:#62a0ea;stop-opacity:1"/><stop offset=".956" style="stop-color:#c0d5ea;stop-opacity:1"/><stop offset="1" style="stop-color:#62a0ea;stop-opacity:1"/></linearGradient></defs><g style="display:inline;stroke-width:1.26428"><path d="M2711.206-1326.332a21.906 21.906 0 0 0-21.954 21.953v188.867a21.906 21.906 0 0 0 21.954 21.953h184.91a21.906 21.906 0 0 0 21.954-21.953v-158.255a26.343 26.343 45 0 0-26.344-26.343H2790.46a14.28 14.28 31.639 0 1-12.758-7.86l-3.308-6.57a21.43 21.43 31.639 0 0-19.137-11.792z" style="fill:#438de6;fill-opacity:1;stroke-width:8.79091;stroke-linecap:round;stop-color:#000" transform="matrix(.45451 0 0 .45552 -1210.292 616.157)"/><path d="M2808.014-1273.645a21.9 21.9 0 0 0-15.465 6.343c-5.003 4.955-11.848 11.22-18.993 11.22h-62.35a21.906 21.906 0 0 0-21.954 21.952v118.618a21.906 21.906 0 0 0 21.954 21.953h184.91a21.906 21.906 0 0 0 21.954-21.953v-136.18a21.906 21.906 0 0 0-21.955-21.953z" style="fill:url(#folder_fedora_b);fill-opacity:1;stroke-width:8.79091;stroke-linecap:round;stop-color:#000" transform="matrix(.45451 0 0 .45552 -1210.292 616.157)"/><path d="M2808.014-1282.426a21.9 21.9 0 0 0-15.465 6.343c-5.003 4.955-11.848 11.22-18.993 11.22h-62.35a21.906 21.906 0 0 0-21.954 21.952v122.887a21.906 21.906 0 0 0 21.954 21.953h184.91a21.906 21.906 0 0 0 21.954-21.953v-140.449a21.906 21.906 0 0 0-21.955-21.953z" style="fill:#a4caee;fill-opacity:1;stroke-width:8.79091;stroke-linecap:round;stop-color:#000" transform="matrix(.45451 0 0 .45552 -1210.292 616.157)"/></g><path d="M64.009 59.985c-9.005 0-16.296 7.157-16.312 15.993h-.003v12.38h.002c.004 2.004 1.662 3.627 3.705 3.627H64.01c9.008-.006 16.297-7.162 16.297-15.993C80.306 67.156 73.007 60 63.995 60zm3.314 6.58v.006c2.738 0 5.323 2.056 5.323 4.893 0 .263 0 .526-.042.825-.076.754-.78 1.297-1.545 1.19a1.34 1.34 0 0 1-1.144-1.567c.012-.085.018-.219.018-.449 0-1.608-1.342-2.23-2.61-2.23-1.27 0-2.412 1.047-2.414 2.23.022 1.37 0 2.728 0 4.094l2.354-.017c1.839-.037 1.86 2.678.022 2.665l-2.375.017c-.006 1.101.008.902.002 1.457 0 0 .02 1.346-.022 2.367-.284 2.998-2.886 5.394-6.013 5.394-3.315 0-6.045-2.658-6.045-5.917.1-3.351 2.824-5.988 6.257-5.957l1.915-.014v2.66l-1.915.017h-.01c-1.886.055-3.503 1.312-3.533 3.293 0 1.805 1.486 3.251 3.332 3.251 1.843 0 3.318-1.315 3.318-3.248l-.002-10.075c0-.187.008-.336.028-.542.311-2.464 2.558-4.343 5.102-4.343z" style="fill:#438de6;fill-opacity:1;stroke-width:.839853"/></svg>