<svg xmlns="http://www.w3.org/2000/svg" xmlns:xlink="http://www.w3.org/1999/xlink" width="128" height="128" viewBox="0 0 128 128"><defs><linearGradient xlink:href="#folder_emacs_a" id="folder_emacs_b" x1="2689.252" x2="2918.07" y1="-1106.803" y2="-1106.803" gradientUnits="userSpaceOnUse"/><linearGradient id="folder_emacs_a"><stop offset="0" style="stop-color:#62a0ea;stop-opacity:1"/><stop offset=".058" style="stop-color:#afd4ff;stop-opacity:1"/><stop offset=".122" style="stop-color:#62a0ea;stop-opacity:1"/><stop offset=".873" style="stop-color:#62a0ea;stop-opacity:1"/><stop offset=".956" style="stop-color:#c0d5ea;stop-opacity:1"/><stop offset="1" style="stop-color:#62a0ea;stop-opacity:1"/></linearGradient></defs><g style="display:inline;stroke-width:1.26428"><path d="M2711.206-1326.332a21.906 21.906 0 0 0-21.954 21.953v188.867a21.906 21.906 0 0 0 21.954 21.953h184.91a21.906 21.906 0 0 0 21.954-21.953v-158.255a26.343 26.343 45 0 0-26.344-26.343H2790.46a14.28 14.28 31.639 0 1-12.758-7.86l-3.308-6.57a21.43 21.43 31.639 0 0-19.137-11.792z" style="fill:#438de6;fill-opacity:1;stroke-width:8.79091;stroke-linecap:round;stop-color:#000" transform="matrix(.45451 0 0 .45552 -1210.292 616.157)"/><path d="M2808.014-1273.645a21.9 21.9 0 0 0-15.465 6.343c-5.003 4.955-11.848 11.22-18.993 11.22h-62.35a21.906 21.906 0 0 0-21.954 21.952v118.618a21.906 21.906 0 0 0 21.954 21.953h184.91a21.906 21.906 0 0 0 21.954-21.953v-136.18a21.906 21.906 0 0 0-21.955-21.953z" style="fill:url(#folder_emacs_b);fill-opacity:1;stroke-width:8.79091;stroke-linecap:round;stop-color:#000" transform="matrix(.45451 0 0 .45552 -1210.292 616.157)"/><path d="M2808.014-1282.426a21.9 21.9 0 0 0-15.465 6.343c-5.003 4.955-11.848 11.22-18.993 11.22h-62.35a21.906 21.906 0 0 0-21.954 21.952v122.887a21.906 21.906 0 0 0 21.954 21.953h184.91a21.906 21.906 0 0 0 21.954-21.953v-140.449a21.906 21.906 0 0 0-21.955-21.953z" style="fill:#a4caee;fill-opacity:1;stroke-width:8.79091;stroke-linecap:round;stop-color:#000" transform="matrix(.45451 0 0 .45552 -1210.292 616.157)"/></g><path d="M64 59.985c-8.836 0-16 7.163-16 16s7.164 16 16 16 16-7.164 16-16-7.163-16-16-16m3.763 4.19c1.527-.016 2.972.852 3.277 2.208.388 1.518-.543 2.476-1.959 2.709 0 0-.166.064-1.192.08-2.041.032-4.283.314-5.872.768-.493.14-1.376.627-1.114 1.193.232.59 1.3 1.077 1.968 1.401.762.37 4.467 2.077 6.453 3.049 0 0-5.899 1.33-7.404 2.05-2.987 1.354-3.338 2.892-2.64 3.447.726.548 2.092 1.227 6.195 1.366 3.7.078 5.569-.042 7.181.627.63.262.513.697.528.82-.335.6-1.08 1.024-2.447 1.523-1.307.477-3.75.993-3.75.993-2.003.435-4.683.696-5.389.758-1.742.152-3.097.056-3.097.056.024-.005 4.735-1.04 6.532-1.554.707-.201 3.294-.855 3.262-1.118-.023-.187-.385-.26-2.686-.137-3.906.348-5.206-.056-7.824-.915-4.434-1.454-5.39-3.816-3.226-5.797 1.913-1.583 5.175-2.957 9.696-2.71 0 0-1.539-.466-2.063-.713-1.394-.655-3.559-1.546-5.058-3.196-.355-.454-1.164-1.179-.772-2 .6-1.256 2.597-1.268 5.435-1.435 0 0 2.958-.277 4.381-.507 1.308-.211 1.622-.622 1.406-.921-.366-.507-1.186-.589-6.087-.547 0 0 3.964-1.14 5.61-1.436q.328-.06.656-.062" style="display:inline;fill:#438de6;fill-opacity:1;stroke:none;stroke-width:.911255;stroke-miterlimit:4;stroke-dasharray:none;stroke-opacity:1"/></svg>