<svg xmlns="http://www.w3.org/2000/svg" xmlns:xlink="http://www.w3.org/1999/xlink" width="128" height="128" viewBox="0 0 128 128"><defs><clipPath id="folder_temp_u"><path d="M0 0h1600v1200H0Z"/></clipPath><clipPath id="folder_temp_s"><path d="M0 0h1600v1200H0Z"/></clipPath><clipPath id="folder_temp_q"><path d="M0 0h1600v1200H0Z"/></clipPath><clipPath id="folder_temp_o"><path d="M0 0h1600v1200H0Z"/></clipPath><clipPath id="folder_temp_m"><path d="M0 0h1600v1200H0Z"/></clipPath><clipPath id="folder_temp_k"><path d="M0 0h1600v1200H0Z"/></clipPath><clipPath id="folder_temp_i"><path d="M0 0h1600v1200H0Z"/></clipPath><clipPath id="folder_temp_g"><path d="M0 0h1600v1200H0Z"/></clipPath><clipPath id="folder_temp_e"><path d="M0 0h1600v1200H0Z"/></clipPath><mask id="folder_temp_v"><g filter="url(#folder_temp_a)" style="filter:url(#folder_temp_b)"><path fill-opacity=".5" d="M0 0h16v16H0Z"/></g></mask><mask id="folder_temp_t"><g filter="url(#folder_temp_a)" style="filter:url(#folder_temp_b)"><path fill-opacity=".3" d="M0 0h16v16H0Z"/></g></mask><mask id="folder_temp_r"><g filter="url(#folder_temp_a)" style="filter:url(#folder_temp_b)"><path fill-opacity=".05" d="M0 0h16v16H0Z"/></g></mask><mask id="folder_temp_p"><g filter="url(#folder_temp_a)" style="filter:url(#folder_temp_b)"><path fill-opacity=".05" d="M0 0h16v16H0Z"/></g></mask><mask id="folder_temp_n"><g filter="url(#folder_temp_a)" style="filter:url(#folder_temp_b)"><path fill-opacity=".05" d="M0 0h16v16H0Z"/></g></mask><mask id="folder_temp_l"><g filter="url(#folder_temp_a)" style="filter:url(#folder_temp_b)"><path fill-opacity=".05" d="M0 0h16v16H0Z"/></g></mask><mask id="folder_temp_j"><g filter="url(#folder_temp_a)" style="filter:url(#folder_temp_b)"><path fill-opacity=".05" d="M0 0h16v16H0Z"/></g></mask><mask id="folder_temp_h"><g filter="url(#folder_temp_a)" style="filter:url(#folder_temp_b)"><path fill-opacity=".05" d="M0 0h16v16H0Z"/></g></mask><mask id="folder_temp_f"><g filter="url(#folder_temp_a)" style="filter:url(#folder_temp_b)"><path fill-opacity=".3" d="M0 0h16v16H0Z"/></g></mask><linearGradient xlink:href="#folder_temp_c" id="folder_temp_d" x1="2689.252" x2="2918.07" y1="-1106.803" y2="-1106.803" gradientUnits="userSpaceOnUse"/><linearGradient id="folder_temp_c"><stop offset="0" style="stop-color:#62a0ea;stop-opacity:1"/><stop offset=".058" style="stop-color:#afd4ff;stop-opacity:1"/><stop offset=".122" style="stop-color:#62a0ea;stop-opacity:1"/><stop offset=".873" style="stop-color:#62a0ea;stop-opacity:1"/><stop offset=".956" style="stop-color:#c0d5ea;stop-opacity:1"/><stop offset="1" style="stop-color:#62a0ea;stop-opacity:1"/></linearGradient><filter id="folder_temp_b" width="1" height="1" x="0" y="0"><feColorMatrix in="SourceGraphic" values="0 0 0 0 1 0 0 0 0 1 0 0 0 0 1 0 0 0 1 0"/></filter></defs><linearGradient id="folder_temp_a" x1="12" x2="116" y1="64" y2="64" gradientUnits="userSpaceOnUse"><stop offset="0" stop-color="#3d3846"/><stop offset=".05" stop-color="#77767b"/><stop offset=".1" stop-color="#5e5c64"/><stop offset=".9" stop-color="#504e56"/><stop offset=".95" stop-color="#77767b"/><stop offset="1" stop-color="#3d3846"/></linearGradient><g style="display:inline;stroke-width:1.26428;enable-background:new"><path d="M2711.206-1326.332a21.906 21.906 0 0 0-21.954 21.953v188.867a21.906 21.906 0 0 0 21.954 21.953h184.91a21.906 21.906 0 0 0 21.954-21.953v-158.255a26.343 26.343 45 0 0-26.344-26.343H2790.46a14.28 14.28 31.639 0 1-12.758-7.86l-3.308-6.57a21.43 21.43 31.639 0 0-19.137-11.792z" style="fill:#438de6;fill-opacity:1;stroke-width:8.79091;stroke-linecap:round;stop-color:#000" transform="matrix(.45451 0 0 .45552 -1210.292 616.157)"/><path d="M2808.014-1273.645a21.9 21.9 0 0 0-15.465 6.343c-5.003 4.955-11.848 11.22-18.993 11.22h-62.35a21.906 21.906 0 0 0-21.954 21.952v118.618a21.906 21.906 0 0 0 21.954 21.953h184.91a21.906 21.906 0 0 0 21.954-21.953v-136.18a21.906 21.906 0 0 0-21.955-21.953z" style="fill:url(#folder_temp_d);fill-opacity:1;stroke-width:8.79091;stroke-linecap:round;stop-color:#000" transform="matrix(.45451 0 0 .45552 -1210.292 616.157)"/><path d="M2808.014-1282.426a21.9 21.9 0 0 0-15.465 6.343c-5.003 4.955-11.848 11.22-18.993 11.22h-62.35a21.906 21.906 0 0 0-21.954 21.952v122.887a21.906 21.906 0 0 0 21.954 21.953h184.91a21.906 21.906 0 0 0 21.954-21.953v-140.449a21.906 21.906 0 0 0-21.955-21.953z" style="fill:#a4caee;fill-opacity:1;stroke-width:8.79091;stroke-linecap:round;stop-color:#000" transform="matrix(.45451 0 0 .45552 -1210.292 616.157)"/></g><g clip-path="url(#folder_temp_e)" mask="url(#folder_temp_f)" transform="translate(-384 -268)"><path fill="#2e3436" d="M562.46 212.059h10.45c-1.183.492-1.297 2.46 0 3h-10.45zm0 0"/></g><g clip-path="url(#folder_temp_g)" mask="url(#folder_temp_h)" transform="translate(-384 -268)"><path fill="#2e3436" fill-rule="evenodd" d="M16 748h1v1h-1zm0 0"/></g><g clip-path="url(#folder_temp_i)" mask="url(#folder_temp_j)" transform="translate(-384 -268)"><path fill="#2e3436" fill-rule="evenodd" d="M17 747h1v1h-1zm0 0"/></g><g clip-path="url(#folder_temp_k)" mask="url(#folder_temp_l)" transform="translate(-384 -268)"><path fill="#2e3436" fill-rule="evenodd" d="M18 750h1v1h-1zm0 0"/></g><g clip-path="url(#folder_temp_m)" mask="url(#folder_temp_n)" transform="translate(-384 -268)"><path fill="#2e3436" fill-rule="evenodd" d="M16 750h1v1h-1zm0 0"/></g><g clip-path="url(#folder_temp_o)" mask="url(#folder_temp_p)" transform="translate(-384 -268)"><path fill="#2e3436" fill-rule="evenodd" d="M17 751h1v1h-1zm0 0"/></g><g clip-path="url(#folder_temp_q)" mask="url(#folder_temp_r)" transform="translate(-384 -268)"><path fill="#2e3436" fill-rule="evenodd" d="M19 751h1v1h-1zm0 0"/></g><g clip-path="url(#folder_temp_s)" mask="url(#folder_temp_t)" transform="translate(-384 -268)"><path fill="#2e3436" d="M136 776v7h7v-7zm0 0"/></g><g clip-path="url(#folder_temp_u)" mask="url(#folder_temp_v)" transform="translate(-384 -268)"><path fill="#2e3436" d="M219 758h3v12h-3zm0 0"/></g><path fill="#222" d="M58 59.984c-1.938 0-4 2.102-4 4v5.977c0 .859.445 1.351 1.11 2.015l4.046 4.008-4.015 3.984c-.735.727-1.141 1.375-1.141 2v6.016c0 2.023 1.977 4 4 4h12c2.016 0 4-2.023 4-4.008v-6.008c0-.625-.445-1.257-1.14-1.953l-4.032-4.031 3.977-3.977c.523-.523 1.172-1.375 1.195-2.03v-5.993c0-2.008-2.016-4-4-4zm12 10H58v-6h12m-7.18 14h2.352L70 82.812v3.172l-6-4-6 4v-3.227zm0 0" style="fill:#438de6;fill-opacity:1;stroke-width:2"/></svg>