<svg xmlns="http://www.w3.org/2000/svg" xmlns:xlink="http://www.w3.org/1999/xlink" width="128" height="128" viewBox="0 0 128 128"><defs><linearGradient xlink:href="#folder_translation_a" id="folder_translation_b" x1="2689.252" x2="2918.07" y1="-1106.803" y2="-1106.803" gradientUnits="userSpaceOnUse"/><linearGradient id="folder_translation_a"><stop offset="0" style="stop-color:#62a0ea;stop-opacity:1"/><stop offset=".058" style="stop-color:#afd4ff;stop-opacity:1"/><stop offset=".122" style="stop-color:#62a0ea;stop-opacity:1"/><stop offset=".873" style="stop-color:#62a0ea;stop-opacity:1"/><stop offset=".956" style="stop-color:#c0d5ea;stop-opacity:1"/><stop offset="1" style="stop-color:#62a0ea;stop-opacity:1"/></linearGradient></defs><g style="display:inline;stroke-width:1.26428"><path d="M2711.206-1326.332a21.906 21.906 0 0 0-21.954 21.953v188.867a21.906 21.906 0 0 0 21.954 21.953h184.91a21.906 21.906 0 0 0 21.954-21.953v-158.255a26.343 26.343 45 0 0-26.344-26.343H2790.46a14.28 14.28 31.639 0 1-12.758-7.86l-3.308-6.57a21.43 21.43 31.639 0 0-19.137-11.792z" style="fill:#438de6;fill-opacity:1;stroke-width:8.79091;stroke-linecap:round;stop-color:#000" transform="matrix(.45451 0 0 .45552 -1210.292 616.157)"/><path d="M2808.014-1273.645a21.9 21.9 0 0 0-15.465 6.343c-5.003 4.955-11.848 11.22-18.993 11.22h-62.35a21.906 21.906 0 0 0-21.954 21.952v118.618a21.906 21.906 0 0 0 21.954 21.953h184.91a21.906 21.906 0 0 0 21.954-21.953v-136.18a21.906 21.906 0 0 0-21.955-21.953z" style="fill:url(#folder_translation_b);fill-opacity:1;stroke-width:8.79091;stroke-linecap:round;stop-color:#000" transform="matrix(.45451 0 0 .45552 -1210.292 616.157)"/><path d="M2808.014-1282.426a21.9 21.9 0 0 0-15.465 6.343c-5.003 4.955-11.848 11.22-18.993 11.22h-62.35a21.906 21.906 0 0 0-21.954 21.952v122.887a21.906 21.906 0 0 0 21.954 21.953h184.91a21.906 21.906 0 0 0 21.954-21.953v-140.449a21.906 21.906 0 0 0-21.955-21.953z" style="fill:#a4caee;fill-opacity:1;stroke-width:8.79091;stroke-linecap:round;stop-color:#000" transform="matrix(.45451 0 0 .45552 -1210.292 616.157)"/></g><path d="M73.572 62.16a.2.2 0 0 0-.055.009 24 24 0 0 1-1.418.423.17.17 0 0 0-.126.165v2.246a.17.17 0 0 0 .171.17.17.17 0 0 0 .14-.074l.593-.853a.26.26 0 0 1 .172-.107h.018c.086 0 .136.019.18.053l.905.718a.2.2 0 0 0 .106.038q.038 0 .075-.017a.17.17 0 0 0 .096-.155V62.66a.25.25 0 0 1 .069-.174.17.17 0 0 0 .021-.201.17.17 0 0 0-.185-.081q-.12.027-.258.027-.21 0-.46-.065a.2.2 0 0 0-.044-.006m-1.428 3.933a.17.17 0 0 0-.171.171v.938c0 .076.05.142.122.164.932.282 1.617.664 2.035 1.136a.17.17 0 0 0 .189.047.17.17 0 0 0 .11-.16v-2.156a.17.17 0 0 0-.17-.17l-.03.002a2 2 0 0 1-.38.028zm4.583-2.145a.17.17 0 0 0-.171.171v7.74c0 .094.077.171.17.171h2.024a.17.17 0 0 0 .17-.17v-7.74a.17.17 0 0 0-.17-.172zM70.134 74.9a.256.256 0 0 1-.256-.256v-4.24a.17.17 0 0 0-.171-.17.17.17 0 0 0-.139.07 12.7 12.7 0 0 1-2.024 2.178.257.257 0 0 1-.354-.022l-.183-.197a.26.26 0 0 1-.02-.321c.993-1.407 1.824-3.41 2.34-5.638a.17.17 0 0 0-.167-.21h-1.798a.256.256 0 0 1-.249-.193l-.076-.305a.255.255 0 0 1 .25-.317h2.42a.17.17 0 0 0 .17-.171v-1.795a.17.17 0 0 0-.061-.132.17.17 0 0 0-.141-.036c-.756.139-1.557.259-2.314.347h-.005c-.14 0-.236-.073-.27-.18l-.061-.197a.255.255 0 0 1 .162-.317c1.809-.617 4.153-1.771 5.338-2.627a.256.256 0 0 1 .312.008l1.826 1.459a.26.26 0 0 1 .096.186.25.25 0 0 1-.076.195.5.5 0 0 1-.087.072.17.17 0 0 0 .094.312.3.3 0 0 1 .097.022l1.609.695 2.414.013a.17.17 0 0 0 .137-.068l.542-.726a.255.255 0 0 1 .356-.054l1.767 1.293a.255.255 0 0 1 .062.348q-.14.209-.502.35a.17.17 0 0 0-.11.158v9.176c0 .329-.806.697-1.885.697a.256.256 0 0 1-.256-.256v-1.033a.17.17 0 0 0-.171-.171h-2.024a.17.17 0 0 0-.17.17v.684c0 .19-.317.895-1.87.895a.256.256 0 0 1-.257-.256v-3.75a.17.17 0 0 0-.274-.135.98.98 0 0 1-.596.2c-.28 0-.553-.126-.79-.364a.26.26 0 0 1-.073-.146c-.046-.328-.185-.717-.402-1.125a.17.17 0 0 0-.192-.086.17.17 0 0 0-.13.166v5.086c-.05.369-.775.712-1.55.712zM68.25 85.457l-.765-2.338-5.333 5.876 7.75 2.46-.452-2.163c7.648-3.854 8.446-7.228 9.498-10.62l-4.13-.73c-.974 4.12-3.546 6.222-6.568 7.515m-9.277-19.474.766 2.338 5.333-5.876-7.752-2.46.453 2.163c-7.647 3.853-8.445 7.227-9.498 10.62l4.13.73c.974-4.12 3.546-6.222 6.568-7.515m-3.26 23.228h-5.42l-.973 2.774h-3.038l5.142-13.754h3.296l5.003 13.754h-3.057zm-.814-2.358-1.887-5.377-1.886 5.377z" style="fill:#438de6;fill-opacity:1;fill-rule:evenodd;stroke:none;stroke-width:.581756"/></svg>