<svg xmlns="http://www.w3.org/2000/svg" xmlns:xlink="http://www.w3.org/1999/xlink" width="128" height="128" viewBox="0 0 128 128"><defs><linearGradient xlink:href="#folder_lua_a" id="folder_lua_b" x1="2689.252" x2="2918.07" y1="-1106.803" y2="-1106.803" gradientUnits="userSpaceOnUse"/><linearGradient id="folder_lua_a"><stop offset="0" style="stop-color:#62a0ea;stop-opacity:1"/><stop offset=".058" style="stop-color:#afd4ff;stop-opacity:1"/><stop offset=".122" style="stop-color:#62a0ea;stop-opacity:1"/><stop offset=".873" style="stop-color:#62a0ea;stop-opacity:1"/><stop offset=".956" style="stop-color:#c0d5ea;stop-opacity:1"/><stop offset="1" style="stop-color:#62a0ea;stop-opacity:1"/></linearGradient></defs><g style="display:inline;stroke-width:1.26428"><path d="M2711.206-1326.332a21.906 21.906 0 0 0-21.954 21.953v188.867a21.906 21.906 0 0 0 21.954 21.953h184.91a21.906 21.906 0 0 0 21.954-21.953v-158.255a26.343 26.343 45 0 0-26.344-26.343H2790.46a14.28 14.28 31.639 0 1-12.758-7.86l-3.308-6.57a21.43 21.43 31.639 0 0-19.137-11.792z" style="fill:#438de6;fill-opacity:1;stroke-width:8.79091;stroke-linecap:round;stop-color:#000" transform="matrix(.45451 0 0 .45552 -1210.292 616.157)"/><path d="M2808.014-1273.645a21.9 21.9 0 0 0-15.465 6.343c-5.003 4.955-11.848 11.22-18.993 11.22h-62.35a21.906 21.906 0 0 0-21.954 21.952v118.618a21.906 21.906 0 0 0 21.954 21.953h184.91a21.906 21.906 0 0 0 21.954-21.953v-136.18a21.906 21.906 0 0 0-21.955-21.953z" style="fill:url(#folder_lua_b);fill-opacity:1;stroke-width:8.79091;stroke-linecap:round;stop-color:#000" transform="matrix(.45451 0 0 .45552 -1210.292 616.157)"/><path d="M2808.014-1282.426a21.9 21.9 0 0 0-15.465 6.343c-5.003 4.955-11.848 11.22-18.993 11.22h-62.35a21.906 21.906 0 0 0-21.954 21.952v122.887a21.906 21.906 0 0 0 21.954 21.953h184.91a21.906 21.906 0 0 0 21.954-21.953v-140.449a21.906 21.906 0 0 0-21.955-21.953z" style="fill:#a4caee;fill-opacity:1;stroke-width:8.79091;stroke-linecap:round;stop-color:#000" transform="matrix(.45451 0 0 .45552 -1210.292 616.157)"/></g><path d="M64 63.748c-6.754 0-12.239 5.485-12.239 12.24 0 6.754 5.485 12.239 12.24 12.239s12.238-5.485 12.238-12.24c0-6.754-5.483-12.239-12.238-12.239m5.072 3.585a3.585 3.585 0 0 1 0 7.168 3.587 3.587 0 0 1-3.584-3.585 3.586 3.586 0 0 1 3.584-3.583" style="fill:#438de6;fill-opacity:1;stroke-width:.0338087"/><path fill="navy" d="M79.823 63.745a3.586 3.586 0 0 0-3.584-3.583 3.586 3.586 0 0 0-3.584 3.583 3.583 3.583 0 1 0 7.168 0" style="fill:#438de6;fill-opacity:1;stroke-width:.0338087"/><path fill="none" stroke="gray" stroke-dasharray="40.847" stroke-miterlimit="10" stroke-width="10.861" d="M78.102 68.8a15.8 15.8 0 0 1 1.724 7.184c0 8.736-7.09 15.826-15.826 15.826s-15.826-7.09-15.826-15.826S55.264 60.158 64 60.158c2.81 0 5.565.748 7.986 2.16" style="stroke:#438de6;stroke-width:.367325;stroke-dasharray:1.38146;stroke-dashoffset:0;stroke-opacity:1"/></svg>