<svg xmlns="http://www.w3.org/2000/svg" xmlns:xlink="http://www.w3.org/1999/xlink" width="128" height="128" viewBox="0 0 128 128"><defs><linearGradient xlink:href="#folder_kde_a" id="folder_kde_b" x1="2689.252" x2="2918.07" y1="-1106.803" y2="-1106.803" gradientTransform="matrix(.45451 0 0 .45552 -1210.292 616.157)" gradientUnits="userSpaceOnUse"/><linearGradient id="folder_kde_a"><stop offset="0" style="stop-color:#62a0ea;stop-opacity:1"/><stop offset=".058" style="stop-color:#afd4ff;stop-opacity:1"/><stop offset=".122" style="stop-color:#62a0ea;stop-opacity:1"/><stop offset=".873" style="stop-color:#62a0ea;stop-opacity:1"/><stop offset=".956" style="stop-color:#c0d5ea;stop-opacity:1"/><stop offset="1" style="stop-color:#62a0ea;stop-opacity:1"/></linearGradient></defs><path d="M21.978 11.984c-5.527 0-9.978 4.46-9.978 10v86.033c0 5.54 4.45 10 9.978 10h84.043c5.528 0 9.979-4.46 9.979-10V35.929a11.973 12 0 0 0-11.973-12H58a6.492 6.507 0 0 1-5.799-3.581l-1.503-2.993A9.738 9.76 0 0 0 42 11.984Z" style="fill:#438de6;fill-opacity:1;stroke-width:4;stroke-linecap:round;stop-color:#000"/><path d="M65.979 35.984a9.94 9.94 0 0 0-7.03 2.89c-2.273 2.256-5.384 5.11-8.632 5.11H21.978c-5.527 0-9.978 4.46-9.978 10v54.033c0 5.54 4.45 10 9.978 10h84.043c5.528 0 9.979-4.46 9.979-10V45.984c0-5.54-4.45-10-9.979-10z" style="fill:url(#folder_kde_b);fill-opacity:1;stroke-width:4;stroke-linecap:round;stop-color:#000"/><path d="M65.979 31.984a9.94 9.94 0 0 0-7.03 2.89c-2.273 2.256-5.384 5.11-8.632 5.11H21.978c-5.527 0-9.978 4.46-9.978 10v55.978c0 5.54 4.45 10 9.978 10h84.043c5.528 0 9.979-4.46 9.979-10V41.984c0-5.54-4.45-10-9.979-10z" style="fill:#a4caee;fill-opacity:1;stroke-width:4;stroke-linecap:round;stop-color:#000"/><path d="m66.508 59.984-5.322.51v21.913l5.266-.793v-9.343l7.078 10.363 5.548-1.756-7.247-9.966 7.305-9.399-5.662-1.302-7.021 9.4zm-12.063 5.34a.27.27 0 0 0-.164.078l-2.088 2.088a.27.27 0 0 0-.04.332l2.445 4.027c-.433.73-.78 1.516-1.03 2.345l-4.489.934a.27.27 0 0 0-.215.265v2.953a.27.27 0 0 0 .206.262l4.358 1.065c.232.96.592 1.871 1.068 2.708l-2.522 3.847a.27.27 0 0 0 .035.34l2.088 2.088a.27.27 0 0 0 .332.04l3.952-2.4c.777.448 1.614.8 2.499 1.04l.922 4.433a.27.27 0 0 0 .264.215h2.954a.27.27 0 0 0 .262-.207l1.087-4.443a10.4 10.4 0 0 0 2.57-1.081l3.895 2.554a.27.27 0 0 0 .34-.035l2.088-2.088a.27.27 0 0 0 .04-.331l-1.422-2.344-.46.146a.16.16 0 0 1-.18-.062l-2.078-3.042a8.463 8.463 0 1 1-11.006-11.566v-2.183c-.536.187-1.054.413-1.546.681l-.003-.002-3.986-2.615a.27.27 0 0 0-.176-.043z" style="fill:#438de6;fill-opacity:1;stroke-width:.666668"/></svg>