<svg xmlns="http://www.w3.org/2000/svg" xmlns:xlink="http://www.w3.org/1999/xlink" width="128" height="128" viewBox="0 0 128 128"><defs><linearGradient xlink:href="#folder_gimp_a" id="folder_gimp_b" x1="2689.252" x2="2918.07" y1="-1106.803" y2="-1106.803" gradientUnits="userSpaceOnUse"/><linearGradient id="folder_gimp_a"><stop offset="0" style="stop-color:#62a0ea;stop-opacity:1"/><stop offset=".058" style="stop-color:#afd4ff;stop-opacity:1"/><stop offset=".122" style="stop-color:#62a0ea;stop-opacity:1"/><stop offset=".873" style="stop-color:#62a0ea;stop-opacity:1"/><stop offset=".956" style="stop-color:#c0d5ea;stop-opacity:1"/><stop offset="1" style="stop-color:#62a0ea;stop-opacity:1"/></linearGradient></defs><g style="display:inline;stroke-width:1.26428"><path d="M2711.206-1326.332a21.906 21.906 0 0 0-21.954 21.953v188.867a21.906 21.906 0 0 0 21.954 21.953h184.91a21.906 21.906 0 0 0 21.954-21.953v-158.255a26.343 26.343 45 0 0-26.344-26.343H2790.46a14.28 14.28 31.639 0 1-12.758-7.86l-3.308-6.57a21.43 21.43 31.639 0 0-19.137-11.792z" style="fill:#438de6;fill-opacity:1;stroke-width:8.79091;stroke-linecap:round;stop-color:#000" transform="matrix(.45451 0 0 .45552 -1210.292 616.157)"/><path d="M2808.014-1273.645a21.9 21.9 0 0 0-15.465 6.343c-5.003 4.955-11.848 11.22-18.993 11.22h-62.35a21.906 21.906 0 0 0-21.954 21.952v118.618a21.906 21.906 0 0 0 21.954 21.953h184.91a21.906 21.906 0 0 0 21.954-21.953v-136.18a21.906 21.906 0 0 0-21.955-21.953z" style="fill:url(#folder_gimp_b);fill-opacity:1;stroke-width:8.79091;stroke-linecap:round;stop-color:#000" transform="matrix(.45451 0 0 .45552 -1210.292 616.157)"/><path d="M2808.014-1282.426a21.9 21.9 0 0 0-15.465 6.343c-5.003 4.955-11.848 11.22-18.993 11.22h-62.35a21.906 21.906 0 0 0-21.954 21.952v122.887a21.906 21.906 0 0 0 21.954 21.953h184.91a21.906 21.906 0 0 0 21.954-21.953v-140.449a21.906 21.906 0 0 0-21.955-21.953z" style="fill:#a4caee;fill-opacity:1;stroke-width:8.79091;stroke-linecap:round;stop-color:#000" transform="matrix(.45451 0 0 .45552 -1210.292 616.157)"/></g><path d="M68.66 71.678a2.9 3.18 0 0 0-2.9 3.179 2.9 3.18 0 0 0 2.9 3.18 2.9 3.18 0 0 0 2.901-3.18 2.9 3.18 0 0 0-2.9-3.18m0 .201a1.245 1.245 0 0 1 1.245 1.245 1.245 1.245 0 0 1-1.245 1.246 1.245 1.245 0 0 1-1.245-1.246 1.245 1.245 0 0 1 1.245-1.245m-17.98-.736a3.918 3.038 78.561 0 0-.394.048 3.918 3.038 78.561 0 0-2.183 4.458 3.918 3.038 78.561 0 0 3.766 3.216 3.918 3.038 78.561 0 0 2.182-4.457 3.918 3.038 78.561 0 0-3.37-3.265m.028.243a1.654 1.654 89.982 0 1 1.654 1.654 1.654 1.654 89.982 0 1-1.654 1.654 1.654 1.654 89.982 0 1-1.654-1.654 1.654 1.654 89.982 0 1 1.654-1.654m9.728.825a2.147 2.61 0 0 0-2.147 2.61 2.147 2.61 0 0 0 2.147 2.61 2.147 2.61 0 0 0 2.147-2.61 2.147 2.61 0 0 0-2.147-2.61m.012.19a.98.98 0 0 1 .978.978.98.98 0 0 1-.978.978.98.98 0 0 1-.978-.978.98.98 0 0 1 .978-.978m18.38-10.092c-.108.012-.237.074-.37.244-3.006 4.514-7.386 6.537-10.582 7.363a4.684 4.782 0 0 1 4.335 4.767 4.684 4.782 0 0 1-4.685 4.781 4.684 4.782 0 0 1-4.5-3.46 3.568 3.998 0 0 1-3.361 2.668 3.568 3.998 0 0 1-3.568-3.999 3.568 3.998 0 0 1 3.568-3.998 3.568 3.998 0 0 1 3.356 2.716 4.684 4.782 0 0 1 2.504-3.027c-2.516.328-3.853-.032-5.78-.865-1.365-.746-2.296-1.563-3.308-3.145-.048-.073-.145-.115-.211-.033-.242.321-1.294 7.63-1.308 8.302-.044 2.177-.942 4.79-3.641 4.882 2.486 5.064 7.892 7.286 14.117 7.195 1.87.013 4.437-.442 6.894-1.657a284 284 0 0 1-2.09-1.327h-.002c-1.794 1.05-3.912 1.452-6.23 1.357-2.957-.12-2.464-.975-1.815-.889 4.766.676 7.761-.832 9.755-3.396a46 46 0 0 1-.743-.502c-.218-.152.043-.389.514-.405l.054-.001c.274-.002.61.075.962.275 1.01.577 1.045 1.287.713 1.442-.106.049-.35-.065-.585-.202-.34.439-.705.829-1.09 1.183h.012c.891.387 2.091.912 2.673 1.187a12.85 12.85 0 0 0 4.023-4.766c2.907-5.931.87-16.235.819-16.386s-.2-.282-.323-.302h-.101zm-1.88 21.308a3 3 0 0 0-2.132.89.4.4 0 0 1-.141-.042c-.194-.108-.261-.424-.516-.438h-.008a.4.4 0 0 0-.117.016c-.37.106-.859.98-.754 1.352.105.37.475.203.7.328q.047.028.085.07a3 3 0 0 0 2.883 3.824h1.528c.034.064.074.059.117 0h1.355v-3a3 3 0 0 0-3-3" style="fill:#438de6;fill-opacity:1;stroke:none;stroke-width:.642956;stroke-linecap:round;stroke-linejoin:round"/></svg>