<svg xmlns="http://www.w3.org/2000/svg" xmlns:xlink="http://www.w3.org/1999/xlink" xml:space="preserve" width="128" height="128" viewBox="0 0 128 128"><defs><linearGradient xlink:href="#folder_raspberry_pi_a" id="folder_raspberry_pi_b" x1="2689.252" x2="2918.07" y1="-1106.803" y2="-1106.803" gradientUnits="userSpaceOnUse"/><linearGradient id="folder_raspberry_pi_a"><stop offset="0" style="stop-color:#62a0ea;stop-opacity:1"/><stop offset=".058" style="stop-color:#afd4ff;stop-opacity:1"/><stop offset=".122" style="stop-color:#62a0ea;stop-opacity:1"/><stop offset=".873" style="stop-color:#62a0ea;stop-opacity:1"/><stop offset=".956" style="stop-color:#c0d5ea;stop-opacity:1"/><stop offset="1" style="stop-color:#62a0ea;stop-opacity:1"/></linearGradient></defs><g style="display:inline;stroke-width:1.26428"><path d="M2711.206-1326.332a21.906 21.906 0 0 0-21.954 21.953v188.867a21.906 21.906 0 0 0 21.954 21.953h184.91a21.906 21.906 0 0 0 21.954-21.953v-158.255a26.343 26.343 45 0 0-26.344-26.343H2790.46a14.28 14.28 31.639 0 1-12.758-7.86l-3.308-6.57a21.43 21.43 31.639 0 0-19.137-11.792z" style="fill:#438de6;fill-opacity:1;stroke-width:8.79091;stroke-linecap:round;stop-color:#000" transform="matrix(.45451 0 0 .45552 -1210.292 616.157)"/><path d="M2808.014-1273.645a21.9 21.9 0 0 0-15.465 6.343c-5.003 4.955-11.848 11.22-18.993 11.22h-62.35a21.906 21.906 0 0 0-21.954 21.952v118.618a21.906 21.906 0 0 0 21.954 21.953h184.91a21.906 21.906 0 0 0 21.954-21.953v-136.18a21.906 21.906 0 0 0-21.955-21.953z" style="fill:url(#folder_raspberry_pi_b);fill-opacity:1;stroke-width:8.79091;stroke-linecap:round;stop-color:#000" transform="matrix(.45451 0 0 .45552 -1210.292 616.157)"/><path d="M2808.014-1282.426a21.9 21.9 0 0 0-15.465 6.343c-5.003 4.955-11.848 11.22-18.993 11.22h-62.35a21.906 21.906 0 0 0-21.954 21.952v122.887a21.906 21.906 0 0 0 21.954 21.953h184.91a21.906 21.906 0 0 0 21.954-21.953v-140.449a21.906 21.906 0 0 0-21.955-21.953z" style="fill:#a4caee;fill-opacity:1;stroke-width:8.79091;stroke-linecap:round;stop-color:#000" transform="matrix(.45451 0 0 .45552 -1210.292 616.157)"/></g><path d="M68.963 59.988c-.513.02-1.08.137-1.455.325-.173.087-.366.133-.634.15-.731.046-1.558.515-2.4 1.361l-.474.479-.475-.479c-.84-.846-1.668-1.315-2.4-1.361a1.6 1.6 0 0 1-.633-.15c-.449-.225-1.177-.349-1.754-.324a2 2 0 0 0-.51.075.95.95 0 0 1-.535.02 4.4 4.4 0 0 0-.802-.028c-.585.03-.984.148-1.384.412-.208.138-.329.179-.62.206-1.672.154-2.855 1.078-2.864 2.24-.003.425.076.693.306 1.034.179.265.183.28.128.52-.08.344-.07.93.019 1.265.103.387.348.852.637 1.212.14.172.282.423.334.584.05.155.162.408.25.562.228.4.84 1.017 1.25 1.258.191.113.457.32.592.46l.244.255-.348.36c-.403.419-.59.681-.844 1.187-.23.459-.37.87-.45 1.327a1.5 1.5 0 0 1-.254.64 3.8 3.8 0 0 0-.488.952c-.093.247-.192.387-.436.62-.576.548-1.032 1.383-1.288 2.353-.11.413-.122.568-.12 1.462.003.867.02 1.054.117 1.407.14.508.456 1.166.717 1.496.128.161.24.388.315.635a5.5 5.5 0 0 0 .597 1.362c.133.218.228.438.228.526 0 .082.055.37.123.637.455 1.79 1.895 3.33 3.64 3.89.42.136.588.22.856.435a8 8 0 0 0 1.576.98c.268.125.633.348.812.495.63.52 1.483.917 2.327 1.085.473.094 1.751.096 2.237.003a5.36 5.36 0 0 0 2.364-1.088c.18-.147.545-.37.812-.495a8 8 0 0 0 1.575-.98c.269-.214.437-.3.857-.434 1.745-.56 3.185-2.1 3.64-3.89.068-.269.123-.556.123-.638 0-.088.095-.308.228-.526a5.5 5.5 0 0 0 .597-1.358 2.1 2.1 0 0 1 .315-.641c.269-.35.58-.998.718-1.494.097-.353.113-.54.115-1.407.003-.894-.01-1.049-.119-1.462-.256-.97-.712-1.805-1.288-2.354-.244-.232-.342-.372-.435-.62a3.8 3.8 0 0 0-.49-.95 1.5 1.5 0 0 1-.253-.641 4.6 4.6 0 0 0-.45-1.327 4.1 4.1 0 0 0-.844-1.186l-.348-.36.244-.256c.135-.14.4-.347.592-.46.41-.241 1.022-.857 1.25-1.258.087-.154.2-.407.25-.562a2.2 2.2 0 0 1 .334-.584c.29-.36.534-.825.637-1.212.09-.335.098-.92.02-1.264-.056-.24-.052-.256.127-.521.23-.341.31-.609.306-1.035-.004-.513-.167-.876-.577-1.287-.524-.523-1.346-.866-2.287-.952-.29-.027-.412-.068-.62-.205-.399-.265-.8-.384-1.384-.413a4.4 4.4 0 0 0-.801.028.96.96 0 0 1-.535-.02 2.6 2.6 0 0 0-.81-.076m-10.05 1.652c.244-.008.615.073.882.206.171.086.44.282.598.435s.304.26.326.237a.45.45 0 0 0 .056-.194c.014-.131.041-.157.18-.17.324-.032 1.113.49 1.54 1.017.927 1.142 1.16 2.408.588 3.185-.171.233-.592.557-.722.557-.045 0-.267-.223-.492-.496a8.67 8.67 0 0 0-3.8-2.61c-.615-.206-1.467-.395-1.524-.338-.021.021.151.116.384.21 1.602.644 3.352 1.965 4.544 3.43l.388.477-.084.266c-.227.713-.995 1.279-2.037 1.501-.423.09-1.372.087-1.76-.007-.367-.089-.8-.29-.98-.456-.155-.144-.165-.196-.058-.303.043-.042.077-.096.077-.12 0-.025-.193-.108-.43-.185-.45-.147-.938-.431-1.168-.682-.3-.326-.446-.713-.288-.76.28-.084.28-.081.09-.225-.636-.482-1.08-1.041-1.157-1.459-.052-.28.03-.355.342-.314.302.04.342-.02.252-.376-.105-.418-.303-.764-.655-1.143-.275-.297-.33-.385-.288-.453.083-.135.526-.354.915-.453.437-.11 1.393-.123 1.685-.023.22.076.293.045.2-.086-.176-.244-.188-.318-.071-.435.09-.09.185-.115.502-.131a2.54 2.54 0 0 1 1.34.281c.188.095.361.172.384.172.06 0 .05-.193-.01-.23-.09-.056-.056-.225.057-.286a.5.5 0 0 1 .194-.039m10.175 0a.45.45 0 0 1 .192.04c.114.06.148.23.058.285-.06.037-.069.23-.01.23.023 0 .196-.077.385-.172.437-.22.848-.306 1.34-.281.315.016.41.04.501.131.117.117.105.19-.07.435-.094.13-.02.162.2.086.29-.1 1.247-.087 1.684.023.39.099.833.318.916.453.042.068-.014.156-.29.453-.351.38-.55.725-.655 1.143-.089.356-.048.416.254.376.312-.041.393.033.34.314-.077.418-.52.977-1.156 1.458-.187.142-.189.138.077.22.17.054.037.428-.274.766-.23.25-.718.535-1.169.682-.236.077-.43.16-.43.184 0 .025.034.079.077.121.107.107.097.159-.059.303-.185.171-.611.366-1.002.459-.4.094-1.339.094-1.762.001-1.024-.225-1.787-.794-2.011-1.498l-.085-.266.388-.478c1.191-1.464 2.942-2.785 4.544-3.43.233-.093.405-.187.384-.209-.057-.057-.91.132-1.525.338a8.67 8.67 0 0 0-3.8 2.61c-.224.273-.445.496-.49.496-.13 0-.552-.324-.723-.557-.811-1.102.1-3.273 1.717-4.092.15-.076.313-.12.411-.11.139.013.166.039.18.17a.45.45 0 0 0 .057.194c.022.023.168-.084.325-.237.158-.153.427-.35.599-.435.267-.133.638-.214.882-.206M64 70.093c.968 0 1.937.347 2.663 1.043.297.285.519.683.52.933 0 .413-.434.873-1.062 1.124-.844.338-2.414.444-3.43.232-.6-.126-1.067-.311-1.386-.55-.28-.211-.487-.554-.487-.806.001-.25.223-.648.52-.933.725-.696 1.694-1.043 2.662-1.043m-4.738.206c.67-.001.94.156.94.549 0 .28-.138.556-.494.994-.79.97-2.154 2.019-2.996 2.302-.356.12-.432.124-.651.028-.294-.127-.375-.465-.253-1.053.214-1.03.986-1.964 2.071-2.508.421-.21.867-.311 1.383-.312m9.476 0c.516 0 .963.102 1.384.312 1.085.544 1.856 1.477 2.07 2.508.124.597.041.927-.264 1.055-.224.094-.296.09-.651-.032-.84-.289-2.201-1.337-2.985-2.3-.356-.438-.494-.715-.494-.994 0-.393.27-.55.94-.55m-8.285 3.839c.49.006.959.142 1.37.407.803.519 1.223 1.36 1.22 2.446-.001.62-.084 1.013-.324 1.542-.671 1.479-2.249 2.403-3.62 2.122-1.29-.264-2.128-1.369-2.13-2.808-.003-1.365.808-2.721 1.994-3.336.49-.255 1-.379 1.49-.373m7.126.006c.54 0 .952.104 1.458.367 1.186.615 1.997 1.971 1.994 3.336-.002 1.29-.683 2.33-1.774 2.71-.4.14-1.074.173-1.51.075-1.229-.276-2.305-1.352-2.678-2.677-.147-.52-.156-1.383-.022-1.834.37-1.235 1.319-1.977 2.532-1.977M54.697 76c.555-.008.85.753.85 2.196 0 .895-.09 1.407-.376 2.149-.221.571-.504.876-.812.876-.173 0-.252-.035-.413-.18-.24-.217-.53-.75-.653-1.204-.138-.509-.126-1.493.023-2.023.25-.879.842-1.722 1.267-1.802a1 1 0 0 1 .114-.012m18.567.002q.073-.005.153.01c.426.08 1.019.923 1.267 1.802.092.325.115.537.114 1.048 0 .742-.084 1.122-.363 1.653q-.37.706-.794.706c-.186 0-.243-.03-.43-.226-.252-.262-.486-.816-.651-1.54-.14-.61-.15-1.863-.021-2.439.15-.665.384-.995.725-1.014M64 80.632c.625 0 .738.014 1.144.147 1.023.335 1.829 1.142 2.035 2.038.076.33.066.853-.024 1.198-.118.453-.318.782-.722 1.188a3.3 3.3 0 0 1-1.56.861c-.42.099-1.356.098-1.77-.002a3.34 3.34 0 0 1-1.536-.859c-.403-.406-.604-.735-.722-1.188a2.9 2.9 0 0 1-.024-1.198c.206-.896 1.013-1.703 2.035-2.038.407-.133.52-.147 1.144-.147m-7.69 1.47q.066 0 .133.007c.992.102 2.527 1.502 3.265 2.976.608 1.217.51 2.07-.27 2.334-.243.082-1.103.068-1.444-.024-1.598-.428-2.916-2.159-2.807-3.686q.008-.102.02-.198l.002-.021.023-.158.015-.073.02-.096.017-.07.026-.092.024-.073a2 2 0 0 1 .088-.215l.017-.033a1.5 1.5 0 0 1 .157-.24l.017-.022.002-.002q.034-.039.072-.073l.004-.004a1 1 0 0 1 .078-.062l.014-.012a1 1 0 0 1 .186-.099l.008-.003a1 1 0 0 1 .214-.053h.004q.056-.007.115-.007m15.38 0c.65.006 1.049.574 1.123 1.607.101 1.422-1.04 3.045-2.538 3.604-.284.106-.458.132-.962.146-.374.01-.677-.005-.77-.04-.574-.215-.77-.756-.563-1.559.172-.672.855-1.779 1.529-2.478.682-.708 1.5-1.216 2.048-1.273q.069-.007.134-.006M64 87.509c.747 0 .972.02 1.34.111 1.008.251 1.534.651 1.534 1.167 0 .101-.034.25-.075.33-.19.367-1.002.876-1.723 1.08-.43.12-1.316.175-1.7.105-.693-.127-1.444-.463-1.865-.833-.28-.246-.385-.433-.385-.682 0-.516.526-.916 1.535-1.167.366-.091.592-.11 1.339-.11" style="fill:#438de6;fill-opacity:1;stroke-width:.41045"/><path d="M58.915 61.64a.5.5 0 0 0-.193.038c-.113.06-.147.23-.058.286.062.037.07.23.01.23-.022 0-.196-.077-.384-.172a2.54 2.54 0 0 0-1.34-.281c-.316.016-.41.04-.502.131-.117.117-.105.19.071.435.094.13.02.162-.2.086-.291-.1-1.247-.087-1.684.023-.39.099-.832.318-.916.453-.042.068.013.156.289.453.352.38.55.725.655 1.143.09.356.05.416-.253.376-.312-.041-.393.033-.341.314.077.418.52.977 1.156 1.459.19.144.192.141-.09.225-.158.047-.011.434.288.76.23.25.718.535 1.169.682.237.077.43.16.43.184 0 .025-.035.079-.077.121-.107.107-.097.16.058.303.18.166.612.367.98.456.387.094 1.337.098 1.76.007 1.041-.222 1.81-.788 2.036-1.501l.085-.266-.389-.478c-1.19-1.464-2.941-2.785-4.543-3.43-.233-.093-.406-.188-.384-.21.057-.056.909.133 1.524.339a8.67 8.67 0 0 1 3.8 2.61c.225.273.446.496.491.496.131 0 .551-.324.723-.557.572-.777.338-2.043-.588-3.185-.427-.528-1.217-1.049-1.54-1.017-.14.013-.166.039-.18.17a.45.45 0 0 1-.056.194c-.022.023-.17-.083-.327-.237a3 3 0 0 0-.597-.435 2.1 2.1 0 0 0-.883-.206m10.176-.001a2.1 2.1 0 0 0-.883.206 3 3 0 0 0-.598.435c-.157.154-.304.26-.326.237a.45.45 0 0 1-.056-.194c-.015-.131-.042-.157-.18-.17-.098-.01-.262.034-.412.11-1.617.819-2.528 2.99-1.717 4.092.172.233.593.557.724.557.045 0 .265-.223.49-.496a8.67 8.67 0 0 1 3.8-2.61c.615-.206 1.467-.394 1.524-.338.022.022-.15.116-.384.21-1.602.644-3.352 1.965-4.543 3.43l-.388.477.085.266c.224.704.987 1.273 2.01 1.498.424.093 1.362.093 1.762-.001.391-.092.818-.288 1.003-.459.155-.144.166-.196.058-.303-.042-.042-.077-.096-.077-.12 0-.025.194-.108.431-.185.45-.147.938-.431 1.169-.682.31-.338.444-.712.274-.765-.266-.083-.265-.078-.077-.22.636-.482 1.079-1.041 1.156-1.459.052-.28-.028-.355-.34-.314-.302.04-.343-.02-.254-.376.105-.418.304-.764.655-1.143.276-.297.332-.385.29-.453-.084-.135-.527-.354-.917-.453-.437-.11-1.393-.123-1.684-.023-.22.076-.293.045-.2-.086.176-.244.188-.318.07-.435-.09-.09-.185-.115-.501-.131a2.54 2.54 0 0 0-1.34.281 3 3 0 0 1-.384.172c-.06 0-.051-.193.01-.23.09-.056.055-.225-.058-.286a.5.5 0 0 0-.192-.039" style="opacity:.4;fill:#438de6;fill-opacity:1;stroke-width:.41045"/></svg>