<svg xmlns="http://www.w3.org/2000/svg" xmlns:xlink="http://www.w3.org/1999/xlink" width="128" height="128" viewBox="0 0 128 128"><defs><linearGradient xlink:href="#folder_obs_a" id="folder_obs_b" x1="2689.252" x2="2918.07" y1="-1106.803" y2="-1106.803" gradientUnits="userSpaceOnUse"/><linearGradient id="folder_obs_a"><stop offset="0" style="stop-color:#62a0ea;stop-opacity:1"/><stop offset=".058" style="stop-color:#afd4ff;stop-opacity:1"/><stop offset=".122" style="stop-color:#62a0ea;stop-opacity:1"/><stop offset=".873" style="stop-color:#62a0ea;stop-opacity:1"/><stop offset=".956" style="stop-color:#c0d5ea;stop-opacity:1"/><stop offset="1" style="stop-color:#62a0ea;stop-opacity:1"/></linearGradient></defs><g style="display:inline;stroke-width:1.26428"><path d="M2711.206-1326.332a21.906 21.906 0 0 0-21.954 21.953v188.867a21.906 21.906 0 0 0 21.954 21.953h184.91a21.906 21.906 0 0 0 21.954-21.953v-158.255a26.343 26.343 45 0 0-26.344-26.343H2790.46a14.28 14.28 31.639 0 1-12.758-7.86l-3.308-6.57a21.43 21.43 31.639 0 0-19.137-11.792z" style="fill:#438de6;fill-opacity:1;stroke-width:8.79091;stroke-linecap:round;stop-color:#000" transform="matrix(.45451 0 0 .45552 -1210.292 616.157)"/><path d="M2808.014-1273.645a21.9 21.9 0 0 0-15.465 6.343c-5.003 4.955-11.848 11.22-18.993 11.22h-62.35a21.906 21.906 0 0 0-21.954 21.952v118.618a21.906 21.906 0 0 0 21.954 21.953h184.91a21.906 21.906 0 0 0 21.954-21.953v-136.18a21.906 21.906 0 0 0-21.955-21.953z" style="fill:url(#folder_obs_b);fill-opacity:1;stroke-width:8.79091;stroke-linecap:round;stop-color:#000" transform="matrix(.45451 0 0 .45552 -1210.292 616.157)"/><path d="M2808.014-1282.426a21.9 21.9 0 0 0-15.465 6.343c-5.003 4.955-11.848 11.22-18.993 11.22h-62.35a21.906 21.906 0 0 0-21.954 21.952v122.887a21.906 21.906 0 0 0 21.954 21.953h184.91a21.906 21.906 0 0 0 21.954-21.953v-140.449a21.906 21.906 0 0 0-21.955-21.953z" style="fill:#a4caee;fill-opacity:1;stroke-width:8.79091;stroke-linecap:round;stop-color:#000" transform="matrix(.45451 0 0 .45552 -1210.292 616.157)"/></g><path d="M63.995 59.986c-6.29-.087-12.357 3.956-14.74 9.77-2.487 5.713-1.2 12.81 3.162 17.266 4.195 4.514 11.106 6.163 16.892 4.055 6-2.038 10.423-7.931 10.66-14.27.4-6.161-3.171-12.32-8.692-15.07a15.95 15.95 0 0 0-7.282-1.75m0 3.2c5.755-.107 11.185 4.185 12.44 9.798.124.612.528 2.041-.2.886a8.72 8.72 0 0 0-6.101-2.917c-1.871 3.49-5.72 4.066-8.947 1.773-2.65-1.708-3.86-5.296-2.748-8.252 1.995-1.228 3.213-1.294 5.556-1.288m-7.936 2.76c-.933 2.3-.848 5.065.366 7.228 3.896-.177 6.294 2.883 6.078 6.778-.028 3.24-2.57 6.227-5.766 6.766-4.684-2.479-6.3-7.568-5.375-12.789.494-3.125 2.21-6.028 4.697-7.982m15.084 8.322a7.05 7.05 0 0 1 5.346 2.382c.318 5.829-3.63 10.369-9.296 11.73a12.83 12.83 0 0 1-8.352-.682c2.613-.26 5.056-1.805 6.427-4.043-1.947-3.34-.768-6.952 2.71-8.615a7.1 7.1 0 0 1 3.165-.772" style="fill:#438de6;fill-opacity:1;stroke-width:.0328951"/></svg>